<?xml version="1.0" encoding="UTF-8" standalone="no"?>
<!DOCTYPE svg PUBLIC "-//W3C//DTD SVG 1.1//EN"
 "http://www.w3.org/Graphics/SVG/1.1/DTD/svg11.dtd">
<!-- Generated by graphviz version 2.42.4 (0)
 -->
<!-- Title: pahm_drivermod::pahm_run Pages: 1 -->
<!--zoomable 619 -->
<svg id="main" version="1.1" xmlns="http://www.w3.org/2000/svg" xmlns:xlink="http://www.w3.org/1999/xlink" xml:space="preserve" onload="init(evt)">
<style type="text/css"><![CDATA[
.edge:hover path { stroke: red; }
.edge:hover polygon { stroke: red; fill: red; }
]]></style>
<script type="text/javascript"><![CDATA[
var edges = document.getElementsByTagName('g');
if (edges && edges.length) {
  for (var i=0;i<edges.length;i++) {
    if (edges[i].id.substr(0,4)=='edge') {
      edges[i].setAttribute('class','edge');
    }
  }
}
]]></script>
        <defs>
                <circle id="rim" cx="0" cy="0" r="7"/>
                <circle id="rim2" cx="0" cy="0" r="3.5"/>
                <g id="zoomPlus">
                        <use xlink:href="#rim" fill="#404040">
                                <set attributeName="fill" to="#808080" begin="zoomplus.mouseover" end="zoomplus.mouseout"/>
                        </use>
                        <path d="M-4,0h8M0,-4v8" fill="none" stroke="white" stroke-width="1.5" pointer-events="none"/>
                </g>
                <g id="zoomMin">
                        <use xlink:href="#rim" fill="#404040">
                                <set attributeName="fill" to="#808080" begin="zoomminus.mouseover" end="zoomminus.mouseout"/>
                        </use>
                        <path d="M-4,0h8" fill="none" stroke="white" stroke-width="1.5" pointer-events="none"/>
                </g>
                <g id="dirArrow">
                        <path fill="none" stroke="white" stroke-width="1.5" d="M0,-3.0v7 M-2.5,-0.5L0,-3.0L2.5,-0.5"/>
                </g>
               <g id="resetDef">
                       <use xlink:href="#rim2" fill="#404040">
                               <set attributeName="fill" to="#808080" begin="reset.mouseover" end="reset.mouseout"/>
                       </use>
               </g>
        </defs>

<script type="text/javascript">
var viewWidth = 1179;
var viewHeight = 619;
var sectionId = 'dynsection-6';
</script>
<script xlink:href="../../svgpan.js"/>
<svg id="graph" class="graph">
<g id="viewport">
<title>pahm_drivermod::pahm_run</title>
<polygon fill="white" stroke="transparent" points="-4,4 -4,-615.02 1175,-615.02 1175,4 -4,4"/>
<!-- Node1 -->
<g id="node1" class="node">
<title>Node1</title>
<g id="a_node1"><a xlink:title="Subroutine to run PaHM (timestepping).">
<polygon fill="#bfbfbf" stroke="black" points="0,-299.88 0,-320.88 167,-320.88 167,-299.88 0,-299.88"/>
<text text-anchor="middle" x="83.5" y="-307.28" font-family="Helvetica,sans-Serif" font-size="12.00">pahm_drivermod::pahm_run</text>
</a>
</g>
</g>
<!-- Node2 -->
<g id="node2" class="node">
<title>Node2</title>
<g id="a_node2"><a xlink:href="../../d9/d41/namespaceparwind.html#ad2cf2a3c40591a24959e6dd126066294" target="_top" xlink:title="Calculates wind velocities and MSL pressures at the mesh nodes from the P&#45;W Holland Wind model.">
<polygon fill="white" stroke="black" points="234.5,-162.88 234.5,-183.88 385.5,-183.88 385.5,-162.88 234.5,-162.88"/>
<text text-anchor="middle" x="310" y="-170.28" font-family="Helvetica,sans-Serif" font-size="12.00">parwind::gethollandfields</text>
</a>
</g>
</g>
<!-- Node1&#45;&gt;Node2 -->
<g id="edge1" class="edge">
<title>Node1&#45;&gt;Node2</title>
<path fill="none" stroke="midnightblue" d="M101.74,-299.86C140.92,-275.95 236.81,-217.44 283.13,-189.17"/>
<polygon fill="midnightblue" stroke="midnightblue" points="284.98,-192.14 291.7,-183.94 281.34,-186.16 284.98,-192.14"/>
</g>
<!-- Node11 -->
<g id="node11" class="node">
<title>Node11</title>
<g id="a_node11"><a xlink:href="../../d4/d3b/namespacepahm__messages.html#acf0c696cc1604842ee84a5df6d81179c" target="_top" xlink:title="Sets the name of the subroutine that is writing log and/or screen messages.">
<polygon fill="white" stroke="black" points="949.5,-494.88 949.5,-515.88 1164.5,-515.88 1164.5,-494.88 949.5,-494.88"/>
<text text-anchor="middle" x="1057" y="-502.28" font-family="Helvetica,sans-Serif" font-size="12.00">pahm_messages::setmessagesource</text>
</a>
</g>
</g>
<!-- Node1&#45;&gt;Node11 -->
<g id="edge29" class="edge">
<title>Node1&#45;&gt;Node11</title>
<path fill="none" stroke="midnightblue" d="M95,-321.02C136.08,-361.82 291.64,-508.8 453,-563.38 644.22,-628.07 710.11,-620.9 907,-576.38 953.66,-565.84 1002.82,-538.85 1031.39,-521.36"/>
<polygon fill="midnightblue" stroke="midnightblue" points="1033.27,-524.3 1039.91,-516.04 1029.57,-518.36 1033.27,-524.3"/>
</g>
<!-- Node12 -->
<g id="node12" class="node">
<title>Node12</title>
<g id="a_node12"><a xlink:href="../../d4/d3b/namespacepahm__messages.html#ad35e9f2327aad65d4c669e3d886f54dc" target="_top" xlink:title="Removes the name of the subroutine that is no longer active.">
<polygon fill="white" stroke="black" points="943,-338.88 943,-359.88 1171,-359.88 1171,-338.88 943,-338.88"/>
<text text-anchor="middle" x="1057" y="-346.28" font-family="Helvetica,sans-Serif" font-size="12.00">pahm_messages::unsetmessagesource</text>
</a>
</g>
</g>
<!-- Node1&#45;&gt;Node12 -->
<g id="edge30" class="edge">
<title>Node1&#45;&gt;Node12</title>
<path fill="none" stroke="midnightblue" d="M90.45,-299.65C105.99,-272.4 150.25,-199.41 203,-153.38 298.96,-69.67 329.78,-45.54 453,-13.38 547.61,11.3 575.57,-5.12 673,-13.38 778.13,-22.3 822.18,9.36 907,-53.38 1002.85,-124.28 1041.15,-274.35 1052.27,-328.96"/>
<polygon fill="midnightblue" stroke="midnightblue" points="1048.85,-329.69 1054.19,-338.83 1055.72,-328.35 1048.85,-329.69"/>
</g>
<!-- Node17 -->
<g id="node17" class="node">
<title>Node17</title>
<g id="a_node17"><a xlink:href="../../da/dd1/namespacepahm__netcdfio.html#a21917504b7e9d5594375d1a48bb4cb8f" target="_top" xlink:title="Initializes a new NetCDF data file and puts it in define mode.">
<polygon fill="white" stroke="black" points="203,-339.88 203,-360.88 417,-360.88 417,-339.88 203,-339.88"/>
<text text-anchor="middle" x="310" y="-347.28" font-family="Helvetica,sans-Serif" font-size="12.00">pahm_netcdfio::initadcircnetcdfoutfile</text>
</a>
</g>
</g>
<!-- Node1&#45;&gt;Node17 -->
<g id="edge18" class="edge">
<title>Node1&#45;&gt;Node17</title>
<path fill="none" stroke="midnightblue" d="M143.48,-320.89C173.01,-326.16 208.95,-332.56 239.78,-338.05"/>
<polygon fill="midnightblue" stroke="midnightblue" points="239.56,-341.57 250.02,-339.88 240.79,-334.68 239.56,-341.57"/>
</g>
<!-- Node20 -->
<g id="node20" class="node">
<title>Node20</title>
<g id="a_node20"><a xlink:href="../../da/dd1/namespacepahm__netcdfio.html#aaf8d794ff0adcfbca0e2d13c8b71162a" target="_top" xlink:title="Writes data to the NetCDF file.">
<polygon fill="white" stroke="black" points="213.5,-299.88 213.5,-320.88 406.5,-320.88 406.5,-299.88 213.5,-299.88"/>
<text text-anchor="middle" x="310" y="-307.28" font-family="Helvetica,sans-Serif" font-size="12.00">pahm_netcdfio::writenetcdfrecord</text>
</a>
</g>
</g>
<!-- Node1&#45;&gt;Node20 -->
<g id="edge31" class="edge">
<title>Node1&#45;&gt;Node20</title>
<path fill="none" stroke="midnightblue" d="M167.14,-310.38C178.86,-310.38 191.04,-310.38 203.13,-310.38"/>
<polygon fill="midnightblue" stroke="midnightblue" points="203.25,-313.88 213.25,-310.38 203.25,-306.88 203.25,-313.88"/>
</g>
<!-- Node3 -->
<g id="node3" class="node">
<title>Node3</title>
<g id="a_node3"><a xlink:href="../../d4/d19/namespacetimedateutils.html#a565d549493d69e2c9ea5b7af18247df5" target="_top" xlink:title="Constructs a NetCDF time string.">
<polygon fill="white" stroke="black" points="477,-222.88 477,-243.88 649,-243.88 649,-222.88 477,-222.88"/>
<text text-anchor="middle" x="563" y="-230.28" font-family="Helvetica,sans-Serif" font-size="12.00">timedateutils::datetime2string</text>
</a>
</g>
</g>
<!-- Node2&#45;&gt;Node3 -->
<g id="edge2" class="edge">
<title>Node2&#45;&gt;Node3</title>
<path fill="none" stroke="midnightblue" d="M344.91,-183.9C373.54,-192.54 415.7,-204.73 453,-213.38 464.57,-216.07 476.89,-218.62 488.94,-220.95"/>
<polygon fill="midnightblue" stroke="midnightblue" points="488.49,-224.43 498.97,-222.85 489.79,-217.55 488.49,-224.43"/>
</g>
<!-- Node4 -->
<g id="node4" class="node">
<title>Node4</title>
<g id="a_node4"><a xlink:href="../../d9/d41/namespaceparwind.html#a0ed4ae2d2927c042da5b0f3df42f5ef8" target="_top" xlink:title="Subroutine to deallocate memory of an allocated holland structure.">
<polygon fill="white" stroke="black" points="486.5,-182.88 486.5,-203.88 639.5,-203.88 639.5,-182.88 486.5,-182.88"/>
<text text-anchor="middle" x="563" y="-190.28" font-family="Helvetica,sans-Serif" font-size="12.00">parwind::deallochollstruct</text>
</a>
</g>
</g>
<!-- Node2&#45;&gt;Node4 -->
<g id="edge3" class="edge">
<title>Node2&#45;&gt;Node4</title>
<path fill="none" stroke="midnightblue" d="M385.63,-179.33C414.07,-181.6 446.7,-184.2 476.1,-186.54"/>
<polygon fill="midnightblue" stroke="midnightblue" points="476.11,-190.05 486.36,-187.36 476.67,-183.07 476.11,-190.05"/>
</g>
<!-- Node5 -->
<g id="node5" class="node">
<title>Node5</title>
<g id="a_node5"><a xlink:href="../../d2/d96/namespaceutilities.html#a35b859c005e3b9cc063bdc46a1675159" target="_top" xlink:title="Calculates the location of a value in an 1D array of values.">
<polygon fill="white" stroke="black" points="495,-62.88 495,-83.88 631,-83.88 631,-62.88 495,-62.88"/>
<text text-anchor="middle" x="563" y="-70.28" font-family="Helvetica,sans-Serif" font-size="12.00">utilities::getlocandratio</text>
</a>
</g>
</g>
<!-- Node2&#45;&gt;Node5 -->
<g id="edge4" class="edge">
<title>Node2&#45;&gt;Node5</title>
<path fill="none" stroke="midnightblue" d="M325.94,-162.73C350.97,-145.41 403.51,-111.3 453,-93.38 463.11,-89.72 474,-86.71 484.85,-84.23"/>
<polygon fill="midnightblue" stroke="midnightblue" points="485.74,-87.62 494.78,-82.11 484.27,-80.78 485.74,-87.62"/>
</g>
<!-- Node6 -->
<g id="node6" class="node">
<title>Node6</title>
<g id="a_node6"><a xlink:href="../../d4/d19/namespacetimedateutils.html#a6c7acacb9981bb9182378a449e45715b" target="_top" xlink:title="Calculates the conversion factor between time units and seconds.">
<polygon fill="white" stroke="black" points="476,-300.88 476,-321.88 650,-321.88 650,-300.88 476,-300.88"/>
<text text-anchor="middle" x="563" y="-308.28" font-family="Helvetica,sans-Serif" font-size="12.00">timedateutils::gettimeconvsec</text>
</a>
</g>
</g>
<!-- Node2&#45;&gt;Node6 -->
<g id="edge5" class="edge">
<title>Node2&#45;&gt;Node6</title>
<path fill="none" stroke="midnightblue" d="M329.75,-184.14C356.85,-199.64 408.58,-229.06 453,-253.38 479.86,-268.09 510.69,-284.45 532.69,-296.03"/>
<polygon fill="midnightblue" stroke="midnightblue" points="531.35,-299.28 541.83,-300.84 534.61,-293.09 531.35,-299.28"/>
</g>
<!-- Node7 -->
<g id="node7" class="node">
<title>Node7</title>
<g id="a_node7"><a xlink:href="../../d4/d19/namespacetimedateutils.html#abc63ac16baec18b6c9bb2ee6e0400a63" target="_top" xlink:title="Determines the Julian date from a Gregorian date.">
<polygon fill="white" stroke="black" points="485.5,-22.88 485.5,-43.88 640.5,-43.88 640.5,-22.88 485.5,-22.88"/>
<text text-anchor="middle" x="563" y="-30.28" font-family="Helvetica,sans-Serif" font-size="12.00">timedateutils::juldaytogreg</text>
</a>
</g>
</g>
<!-- Node2&#45;&gt;Node7 -->
<g id="edge6" class="edge">
<title>Node2&#45;&gt;Node7</title>
<path fill="none" stroke="midnightblue" d="M320.03,-162.63C340.8,-138.7 394.64,-80.97 453,-53.38 460.09,-50.03 467.69,-47.24 475.46,-44.91"/>
<polygon fill="midnightblue" stroke="midnightblue" points="476.63,-48.22 485.36,-42.21 474.79,-41.47 476.63,-48.22"/>
</g>
<!-- Node8 -->
<g id="node8" class="node">
<title>Node8</title>
<g id="a_node8"><a xlink:href="../../d9/d41/namespaceparwind.html#a6efcf8be68b268f0a6d92ceb5f8c6f41" target="_top" xlink:title="Subroutine to support the Holland model (GetHolland).">
<polygon fill="white" stroke="black" points="477.5,-102.88 477.5,-123.88 648.5,-123.88 648.5,-102.88 477.5,-102.88"/>
<text text-anchor="middle" x="563" y="-110.28" font-family="Helvetica,sans-Serif" font-size="12.00">parwind::processhollanddata</text>
</a>
</g>
</g>
<!-- Node2&#45;&gt;Node8 -->
<g id="edge7" class="edge">
<title>Node2&#45;&gt;Node8</title>
<path fill="none" stroke="midnightblue" d="M344.91,-162.87C373.54,-154.23 415.7,-142.04 453,-133.38 464.57,-130.7 476.89,-128.15 488.94,-125.82"/>
<polygon fill="midnightblue" stroke="midnightblue" points="489.79,-129.22 498.97,-123.92 488.49,-122.34 489.79,-129.22"/>
</g>
<!-- Node16 -->
<g id="node16" class="node">
<title>Node16</title>
<g id="a_node16"><a xlink:href="../../d2/d96/namespaceutilities.html#a0ef8b9a5f7a0aac72618c3e7b05adf44" target="_top" xlink:title="Calculates the coordinates of an intermediate point between two points along the great circle.">
<polygon fill="white" stroke="black" points="485.5,-142.88 485.5,-163.88 640.5,-163.88 640.5,-142.88 485.5,-142.88"/>
<text text-anchor="middle" x="563" y="-150.28" font-family="Helvetica,sans-Serif" font-size="12.00">utilities::sphericalfracpoint</text>
</a>
</g>
</g>
<!-- Node2&#45;&gt;Node16 -->
<g id="edge17" class="edge">
<title>Node2&#45;&gt;Node16</title>
<path fill="none" stroke="midnightblue" d="M385.63,-167.44C413.81,-165.19 446.11,-162.62 475.3,-160.29"/>
<polygon fill="midnightblue" stroke="midnightblue" points="475.79,-163.76 485.49,-159.48 475.24,-156.79 475.79,-163.76"/>
</g>
<!-- Node9 -->
<g id="node9" class="node">
<title>Node9</title>
<g id="a_node9"><a xlink:href="../../d9/d41/namespaceparwind.html#a7bbd86c1fc9b715f2dd8c8d340c6964c" target="_top" xlink:title="Subroutine to allocate memory for a holland structure.">
<polygon fill="white" stroke="black" points="738,-142.88 738,-163.88 878,-163.88 878,-142.88 738,-142.88"/>
<text text-anchor="middle" x="808" y="-150.28" font-family="Helvetica,sans-Serif" font-size="12.00">parwind::allochollstruct</text>
</a>
</g>
</g>
<!-- Node8&#45;&gt;Node9 -->
<g id="edge8" class="edge">
<title>Node8&#45;&gt;Node9</title>
<path fill="none" stroke="midnightblue" d="M627.85,-123.89C660.09,-129.2 699.38,-135.67 732.94,-141.19"/>
<polygon fill="midnightblue" stroke="midnightblue" points="732.72,-144.7 743.16,-142.88 733.86,-137.8 732.72,-144.7"/>
</g>
<!-- Node10 -->
<g id="node10" class="node">
<title>Node10</title>
<g id="a_node10"><a xlink:href="../../de/d94/namespacepahm__vortex.html#a2c7cf08c2619746ea1c60556b6487b35" target="_top" xlink:title="This subroutine calculates the intensity time change of a variable using second order mumerical accur...">
<polygon fill="white" stroke="black" points="709,-378.88 709,-399.88 907,-399.88 907,-378.88 709,-378.88"/>
<text text-anchor="middle" x="808" y="-386.28" font-family="Helvetica,sans-Serif" font-size="12.00">pahm_vortex::calcintensitychange</text>
</a>
</g>
</g>
<!-- Node8&#45;&gt;Node10 -->
<g id="edge9" class="edge">
<title>Node8&#45;&gt;Node10</title>
<path fill="none" stroke="midnightblue" d="M648.6,-117.77C657.73,-121.31 666.17,-126.34 673,-133.38 746.89,-209.53 635.87,-292.51 709,-369.38 710.08,-370.52 711.22,-371.61 712.39,-372.64"/>
<polygon fill="midnightblue" stroke="midnightblue" points="710.54,-375.62 720.67,-378.7 714.67,-369.97 710.54,-375.62"/>
</g>
<!-- Node13 -->
<g id="node13" class="node">
<title>Node13</title>
<g id="a_node13"><a xlink:href="../../d2/d96/namespaceutilities.html#a241eabd46f9d0e4a26adc221570ad79f" target="_top" xlink:title="Find the unique non&#45;blank elements in 1D character array.">
<polygon fill="white" stroke="black" points="748,-102.88 748,-123.88 868,-123.88 868,-102.88 748,-102.88"/>
<text text-anchor="middle" x="808" y="-110.28" font-family="Helvetica,sans-Serif" font-size="12.00">utilities::charunique</text>
</a>
</g>
</g>
<!-- Node8&#45;&gt;Node13 -->
<g id="edge12" class="edge">
<title>Node8&#45;&gt;Node13</title>
<path fill="none" stroke="midnightblue" d="M648.65,-113.38C677.8,-113.38 710.09,-113.38 737.86,-113.38"/>
<polygon fill="midnightblue" stroke="midnightblue" points="737.87,-116.88 747.87,-113.38 737.87,-109.88 737.87,-116.88"/>
</g>
<!-- Node14 -->
<g id="node14" class="node">
<title>Node14</title>
<g id="a_node14"><a xlink:href="../../d2/d96/namespaceutilities.html#a8dff395c74e87d059dadcf8bacdbfedd" target="_top" xlink:title="Convert a string to upper&#45;case.">
<polygon fill="white" stroke="black" points="745,-62.88 745,-83.88 871,-83.88 871,-62.88 745,-62.88"/>
<text text-anchor="middle" x="808" y="-70.28" font-family="Helvetica,sans-Serif" font-size="12.00">utilities::touppercase</text>
</a>
</g>
</g>
<!-- Node8&#45;&gt;Node14 -->
<g id="edge13" class="edge">
<title>Node8&#45;&gt;Node14</title>
<path fill="none" stroke="midnightblue" d="M627.85,-102.87C660.74,-97.46 700.97,-90.84 734.97,-85.24"/>
<polygon fill="midnightblue" stroke="midnightblue" points="735.54,-88.69 744.84,-83.62 734.4,-81.79 735.54,-88.69"/>
</g>
<!-- Node15 -->
<g id="node15" class="node">
<title>Node15</title>
<g id="a_node15"><a xlink:href="../../de/d94/namespacepahm__vortex.html#a68cd3f6ceb40446c3c0c6d192f8b61bb" target="_top" xlink:title="This subroutine calculates the translational velocity of a moving hurricane using second order mumeri...">
<polygon fill="white" stroke="black" points="742.5,-338.88 742.5,-359.88 873.5,-359.88 873.5,-338.88 742.5,-338.88"/>
<text text-anchor="middle" x="808" y="-346.28" font-family="Helvetica,sans-Serif" font-size="12.00">pahm_vortex::uvtrans</text>
</a>
</g>
</g>
<!-- Node8&#45;&gt;Node15 -->
<g id="edge14" class="edge">
<title>Node8&#45;&gt;Node15</title>
<path fill="none" stroke="midnightblue" d="M648.67,-121.52C657.31,-124.47 665.61,-128.34 673,-133.38 710.27,-158.8 773.48,-281.4 797.42,-329.73"/>
<polygon fill="midnightblue" stroke="midnightblue" points="794.36,-331.43 801.91,-338.86 800.64,-328.34 794.36,-331.43"/>
</g>
<!-- Node10&#45;&gt;Node11 -->
<g id="edge10" class="edge">
<title>Node10&#45;&gt;Node11</title>
<path fill="none" stroke="midnightblue" d="M831.79,-400.09C876.11,-420.9 973.96,-466.86 1024.47,-490.58"/>
<polygon fill="midnightblue" stroke="midnightblue" points="1023.08,-493.79 1033.62,-494.87 1026.05,-487.45 1023.08,-493.79"/>
</g>
<!-- Node10&#45;&gt;Node12 -->
<g id="edge11" class="edge">
<title>Node10&#45;&gt;Node12</title>
<path fill="none" stroke="midnightblue" d="M873.9,-378.87C906.81,-373.54 946.95,-367.04 981.16,-361.5"/>
<polygon fill="midnightblue" stroke="midnightblue" points="981.8,-364.95 991.11,-359.89 980.68,-358.04 981.8,-364.95"/>
</g>
<!-- Node15&#45;&gt;Node11 -->
<g id="edge15" class="edge">
<title>Node15&#45;&gt;Node11</title>
<path fill="none" stroke="midnightblue" d="M873.68,-357.43C885.15,-360.28 896.71,-364.15 907,-369.38 964.96,-398.87 1017.22,-457.12 1041.57,-486.91"/>
<polygon fill="midnightblue" stroke="midnightblue" points="1038.95,-489.23 1047.94,-494.84 1044.4,-484.85 1038.95,-489.23"/>
</g>
<!-- Node15&#45;&gt;Node12 -->
<g id="edge16" class="edge">
<title>Node15&#45;&gt;Node12</title>
<path fill="none" stroke="midnightblue" d="M873.57,-349.38C891.75,-349.38 912.16,-349.38 932.56,-349.38"/>
<polygon fill="midnightblue" stroke="midnightblue" points="932.57,-352.88 942.57,-349.38 932.57,-345.88 932.57,-352.88"/>
</g>
<!-- Node17&#45;&gt;Node3 -->
<g id="edge19" class="edge">
<title>Node17&#45;&gt;Node3</title>
<path fill="none" stroke="midnightblue" d="M394.95,-339.81C402.64,-337.3 410.12,-334.2 417,-330.38 437.63,-318.95 434.32,-305.79 453,-291.38 475.87,-273.74 504.86,-258.6 527.2,-248.22"/>
<polygon fill="midnightblue" stroke="midnightblue" points="528.67,-251.39 536.32,-244.07 525.77,-245.02 528.67,-251.39"/>
</g>
<!-- Node17&#45;&gt;Node6 -->
<g id="edge20" class="edge">
<title>Node17&#45;&gt;Node6</title>
<path fill="none" stroke="midnightblue" d="M378.59,-339.88C411.1,-334.83 450.23,-328.75 483.99,-323.5"/>
<polygon fill="midnightblue" stroke="midnightblue" points="484.94,-326.9 494.29,-321.91 483.87,-319.98 484.94,-326.9"/>
</g>
<!-- Node17&#45;&gt;Node11 -->
<g id="edge27" class="edge">
<title>Node17&#45;&gt;Node11</title>
<path fill="none" stroke="midnightblue" d="M315.82,-361.2C330.73,-393.21 379.61,-487.57 453,-525.38 643.84,-623.72 915.62,-551.77 1016.41,-519.18"/>
<polygon fill="midnightblue" stroke="midnightblue" points="1017.77,-522.41 1026.18,-515.97 1015.58,-515.76 1017.77,-522.41"/>
</g>
<!-- Node17&#45;&gt;Node12 -->
<g id="edge28" class="edge">
<title>Node17&#45;&gt;Node12</title>
<path fill="none" stroke="midnightblue" d="M417.13,-344.9C489.29,-341.15 586.91,-336.03 673,-331.38 689,-330.52 692.98,-329.83 709,-329.38 796.97,-326.94 819.2,-323.52 907,-329.38 931.38,-331.01 957.86,-334.13 981.64,-337.42"/>
<polygon fill="midnightblue" stroke="midnightblue" points="981.26,-340.9 991.65,-338.84 982.24,-333.97 981.26,-340.9"/>
</g>
<!-- Node18 -->
<g id="node18" class="node">
<title>Node18</title>
<g id="a_node18"><a xlink:href="../../da/dd1/namespacepahm__netcdfio.html#a850b1df36d9d2d229b8b03f0558c3703" target="_top" xlink:title="Creates a new NetCDF data file and puts it in define mode.">
<polygon fill="white" stroke="black" points="453,-494.88 453,-515.88 673,-515.88 673,-494.88 453,-494.88"/>
<text text-anchor="middle" x="563" y="-502.28" font-family="Helvetica,sans-Serif" font-size="12.00">pahm_netcdfio::newadcircnetcdfoutfile</text>
</a>
</g>
</g>
<!-- Node17&#45;&gt;Node18 -->
<g id="edge21" class="edge">
<title>Node17&#45;&gt;Node18</title>
<path fill="none" stroke="midnightblue" d="M319.31,-361.11C339.37,-386.21 393.22,-449 453,-480.38 461.99,-485.1 471.85,-488.94 481.86,-492.05"/>
<polygon fill="midnightblue" stroke="midnightblue" points="480.9,-495.41 491.47,-494.82 482.83,-488.69 480.9,-495.41"/>
</g>
<!-- Node18&#45;&gt;Node11 -->
<g id="edge25" class="edge">
<title>Node18&#45;&gt;Node11</title>
<path fill="none" stroke="midnightblue" d="M626.61,-515.93C652.09,-519.72 681.87,-523.52 709,-525.38 796.79,-531.41 819.2,-531.25 907,-525.38 931.38,-523.76 957.86,-520.64 981.64,-517.35"/>
<polygon fill="midnightblue" stroke="midnightblue" points="982.24,-520.8 991.65,-515.93 981.26,-513.87 982.24,-520.8"/>
</g>
<!-- Node18&#45;&gt;Node12 -->
<g id="edge26" class="edge">
<title>Node18&#45;&gt;Node12</title>
<path fill="none" stroke="midnightblue" d="M607.51,-494.84C673.1,-478.58 800.89,-445.48 907,-409.38 947.32,-395.67 992.57,-376.96 1022.51,-364.1"/>
<polygon fill="midnightblue" stroke="midnightblue" points="1024.26,-367.16 1032.05,-359.98 1021.48,-360.73 1024.26,-367.16"/>
</g>
<!-- Node19 -->
<g id="node19" class="node">
<title>Node19</title>
<g id="a_node19"><a xlink:href="../../da/dd1/namespacepahm__netcdfio.html#aa0987122588b6ef883046848cfcefe0b" target="_top" xlink:title="Terminates the program on NetCDF error.">
<polygon fill="white" stroke="black" points="716,-494.88 716,-515.88 900,-515.88 900,-494.88 716,-494.88"/>
<text text-anchor="middle" x="808" y="-502.28" font-family="Helvetica,sans-Serif" font-size="12.00">pahm_netcdfio::netcdfterminate</text>
</a>
</g>
</g>
<!-- Node18&#45;&gt;Node19 -->
<g id="edge22" class="edge">
<title>Node18&#45;&gt;Node19</title>
<path fill="none" stroke="midnightblue" d="M673.06,-505.38C683.87,-505.38 694.8,-505.38 705.53,-505.38"/>
<polygon fill="midnightblue" stroke="midnightblue" points="705.73,-508.88 715.73,-505.38 705.73,-501.88 705.73,-508.88"/>
</g>
<!-- Node19&#45;&gt;Node11 -->
<g id="edge23" class="edge">
<title>Node19&#45;&gt;Node11</title>
<path fill="none" stroke="midnightblue" d="M900.27,-505.38C912.85,-505.38 925.91,-505.38 938.87,-505.38"/>
<polygon fill="midnightblue" stroke="midnightblue" points="939.24,-508.88 949.24,-505.38 939.24,-501.88 939.24,-508.88"/>
</g>
<!-- Node19&#45;&gt;Node12 -->
<g id="edge24" class="edge">
<title>Node19&#45;&gt;Node12</title>
<path fill="none" stroke="midnightblue" d="M825.98,-494.66C868.56,-467.77 980.09,-397.33 1030.55,-365.46"/>
<polygon fill="midnightblue" stroke="midnightblue" points="1032.64,-368.27 1039.23,-359.98 1028.91,-362.36 1032.64,-368.27"/>
</g>
<!-- Node20&#45;&gt;Node6 -->
<g id="edge32" class="edge">
<title>Node20&#45;&gt;Node6</title>
<path fill="none" stroke="midnightblue" d="M406.61,-310.77C425.96,-310.84 446.31,-310.92 465.68,-311"/>
<polygon fill="midnightblue" stroke="midnightblue" points="465.7,-314.5 475.71,-311.04 465.73,-307.5 465.7,-314.5"/>
</g>
<!-- Node20&#45;&gt;Node11 -->
<g id="edge33" class="edge">
<title>Node20&#45;&gt;Node11</title>
<path fill="none" stroke="midnightblue" d="M371.44,-320.91C386.38,-323.76 402.31,-326.99 417,-330.38 446.65,-337.23 864.13,-452.4 1007.82,-492.07"/>
<polygon fill="midnightblue" stroke="midnightblue" points="1007.11,-495.51 1017.68,-494.8 1008.98,-488.76 1007.11,-495.51"/>
</g>
<!-- Node20&#45;&gt;Node12 -->
<g id="edge34" class="edge">
<title>Node20&#45;&gt;Node12</title>
<path fill="none" stroke="midnightblue" d="M375.85,-299.86C400,-296.43 427.69,-293.07 453,-291.38 654.77,-277.95 707.26,-289.84 907,-321.38 935.7,-325.92 967.36,-331.75 994.08,-336.91"/>
<polygon fill="midnightblue" stroke="midnightblue" points="993.58,-340.38 1004.07,-338.86 994.92,-333.51 993.58,-340.38"/>
</g>
</g>
</svg>
        <g id="navigator" transform="translate(0 0)" fill="#404254">
                <rect fill="#f2f5e9" fill-opacity="0.5" stroke="#606060" stroke-width=".5" x="0" y="0" width="60" height="60"/>
                <use id="zoomplus" xlink:href="#zoomPlus" x="17" y="9" onmousedown="handleZoom(evt,'in')"/>
                <use id="zoomminus" xlink:href="#zoomMin" x="42" y="9" onmousedown="handleZoom(evt,'out')"/>
                <use id="reset" xlink:href="#resetDef" x="30" y="36" onmousedown="handleReset()"/>
                <g id="arrowUp" xlink:href="#dirArrow" transform="translate(30 24)" onmousedown="handlePan(0,-1)">
                  <use xlink:href="#rim" fill="#404040">
                        <set attributeName="fill" to="#808080" begin="arrowUp.mouseover" end="arrowUp.mouseout"/>
                  </use>
                  <path fill="none" stroke="white" stroke-width="1.5" d="M0,-3.0v7 M-2.5,-0.5L0,-3.0L2.5,-0.5"/>
                </g>
                <g id="arrowRight" xlink:href="#dirArrow" transform="rotate(90) translate(36 -43)" onmousedown="handlePan(1,0)">
                  <use xlink:href="#rim" fill="#404040">
                        <set attributeName="fill" to="#808080" begin="arrowRight.mouseover" end="arrowRight.mouseout"/>
                  </use>
                  <path fill="none" stroke="white" stroke-width="1.5" d="M0,-3.0v7 M-2.5,-0.5L0,-3.0L2.5,-0.5"/>
                </g>
                <g id="arrowDown" xlink:href="#dirArrow" transform="rotate(180) translate(-30 -48)" onmousedown="handlePan(0,1)">
                  <use xlink:href="#rim" fill="#404040">
                        <set attributeName="fill" to="#808080" begin="arrowDown.mouseover" end="arrowDown.mouseout"/>
                  </use>
                  <path fill="none" stroke="white" stroke-width="1.5" d="M0,-3.0v7 M-2.5,-0.5L0,-3.0L2.5,-0.5"/>
                </g>
                <g id="arrowLeft" xlink:href="#dirArrow" transform="rotate(270) translate(-36 17)" onmousedown="handlePan(-1,0)">
                  <use xlink:href="#rim" fill="#404040">
                        <set attributeName="fill" to="#808080" begin="arrowLeft.mouseover" end="arrowLeft.mouseout"/>
                  </use>
                  <path fill="none" stroke="white" stroke-width="1.5" d="M0,-3.0v7 M-2.5,-0.5L0,-3.0L2.5,-0.5"/>
                </g>
        </g>
        <svg viewBox="0 0 15 15" width="100%" height="30px" preserveAspectRatio="xMaxYMin meet">
         <g id="arrow_out" transform="scale(0.3 0.3)">
          <a xlink:href="namespacepahm__drivermod_a7ae4571521a5bb4eb55990dd7fb76237_cgraph_org.svg" target="_base">
           <rect id="button" ry="5" rx="5" y="6" x="6" height="38" width="38"
                fill="#f2f5e9" fill-opacity="0.5" stroke="#606060" stroke-width="1.0"/>
           <path id="arrow"
             d="M 11.500037,31.436501 C 11.940474,20.09759 22.043105,11.32322 32.158766,21.979434 L 37.068811,17.246167 C 37.068811,17.246167 37.088388,32 37.088388,32 L 22.160133,31.978069 C 22.160133,31.978069 26.997745,27.140456 26.997745,27.140456 C 18.528582,18.264221 13.291696,25.230495 11.500037,31.436501 z"
             style="fill:#404040;"/>
          </a>
         </g>
        </svg>
</svg>
