<?xml version="1.0" encoding="UTF-8" standalone="no"?>
<!DOCTYPE svg PUBLIC "-//W3C//DTD SVG 1.1//EN"
 "http://www.w3.org/Graphics/SVG/1.1/DTD/svg11.dtd">
<!-- Generated by graphviz version 2.42.4 (0)
 -->
<!-- Title: pahm_drivermod::pahm_init Pages: 1 -->
<!--zoomable 1233 -->
<svg id="main" version="1.1" xmlns="http://www.w3.org/2000/svg" xmlns:xlink="http://www.w3.org/1999/xlink" xml:space="preserve" onload="init(evt)">
<style type="text/css"><![CDATA[
.edge:hover path { stroke: red; }
.edge:hover polygon { stroke: red; fill: red; }
]]></style>
<script type="text/javascript"><![CDATA[
var edges = document.getElementsByTagName('g');
if (edges && edges.length) {
  for (var i=0;i<edges.length;i++) {
    if (edges[i].id.substr(0,4)=='edge') {
      edges[i].setAttribute('class','edge');
    }
  }
}
]]></script>
        <defs>
                <circle id="rim" cx="0" cy="0" r="7"/>
                <circle id="rim2" cx="0" cy="0" r="3.5"/>
                <g id="zoomPlus">
                        <use xlink:href="#rim" fill="#404040">
                                <set attributeName="fill" to="#808080" begin="zoomplus.mouseover" end="zoomplus.mouseout"/>
                        </use>
                        <path d="M-4,0h8M0,-4v8" fill="none" stroke="white" stroke-width="1.5" pointer-events="none"/>
                </g>
                <g id="zoomMin">
                        <use xlink:href="#rim" fill="#404040">
                                <set attributeName="fill" to="#808080" begin="zoomminus.mouseover" end="zoomminus.mouseout"/>
                        </use>
                        <path d="M-4,0h8" fill="none" stroke="white" stroke-width="1.5" pointer-events="none"/>
                </g>
                <g id="dirArrow">
                        <path fill="none" stroke="white" stroke-width="1.5" d="M0,-3.0v7 M-2.5,-0.5L0,-3.0L2.5,-0.5"/>
                </g>
               <g id="resetDef">
                       <use xlink:href="#rim2" fill="#404040">
                               <set attributeName="fill" to="#808080" begin="reset.mouseover" end="reset.mouseout"/>
                       </use>
               </g>
        </defs>

<script type="text/javascript">
var viewWidth = 1376;
var viewHeight = 1233;
var sectionId = 'dynsection-4';
</script>
<script xlink:href="../../svgpan.js"/>
<svg id="graph" class="graph">
<g id="viewport">
<title>pahm_drivermod::pahm_init</title>
<polygon fill="white" stroke="transparent" points="-4,4 -4,-1229.17 1372,-1229.17 1372,4 -4,4"/>
<!-- Node1 -->
<g id="node1" class="node">
<title>Node1</title>
<g id="a_node1"><a xlink:title="Subroutine to initialize a PaHM run.">
<polygon fill="#bfbfbf" stroke="black" points="0,-382.67 0,-403.67 165,-403.67 165,-382.67 0,-382.67"/>
<text text-anchor="middle" x="82.5" y="-390.07" font-family="Helvetica,sans-Serif" font-size="12.00">pahm_drivermod::pahm_init</text>
</a>
</g>
</g>
<!-- Node2 -->
<g id="node2" class="node">
<title>Node2</title>
<g id="a_node2"><a xlink:href="../../de/d07/namespacepahm__drivermod.html#a3294ddc68b72ff9220010a8764a8afe3" target="_top" xlink:title="Prints on the screen the help system of the PaHM program.">
<polygon fill="white" stroke="black" points="201,-772.67 201,-793.67 423,-793.67 423,-772.67 201,-772.67"/>
<text text-anchor="middle" x="312" y="-780.07" font-family="Helvetica,sans-Serif" font-size="12.00">pahm_drivermod::getprogramcmdlargs</text>
</a>
</g>
</g>
<!-- Node1&#45;&gt;Node2 -->
<g id="edge1" class="edge">
<title>Node1&#45;&gt;Node2</title>
<path fill="none" stroke="midnightblue" d="M89.82,-404.01C121.08,-457.59 259.19,-694.36 299.76,-763.91"/>
<polygon fill="midnightblue" stroke="midnightblue" points="296.75,-765.7 304.82,-772.57 302.8,-762.17 296.75,-765.7"/>
</g>
<!-- Node3 -->
<g id="node3" class="node">
<title>Node3</title>
<g id="a_node3"><a xlink:href="../../d4/d3b/namespacepahm__messages.html#ad2fb6cca6853de16ee45c8cdebe6190a" target="_top" xlink:title="Initializes logging levels.">
<polygon fill="white" stroke="black" points="472.5,-967.67 472.5,-988.67 642.5,-988.67 642.5,-967.67 472.5,-967.67"/>
<text text-anchor="middle" x="557.5" y="-975.07" font-family="Helvetica,sans-Serif" font-size="12.00">pahm_messages::initlogging</text>
</a>
</g>
</g>
<!-- Node1&#45;&gt;Node3 -->
<g id="edge27" class="edge">
<title>Node1&#45;&gt;Node3</title>
<path fill="none" stroke="midnightblue" d="M83.79,-403.94C85.67,-454.45 99.58,-670.99 201,-803.17 282.43,-909.3 334.36,-909.6 459,-958.17 465.7,-960.78 472.79,-963.07 479.98,-965.08"/>
<polygon fill="midnightblue" stroke="midnightblue" points="479.24,-968.51 489.8,-967.64 481.01,-961.73 479.24,-968.51"/>
</g>
<!-- Node21 -->
<g id="node21" class="node">
<title>Node21</title>
<g id="a_node21"><a xlink:href="../../d4/d3b/namespacepahm__messages.html#acf0c696cc1604842ee84a5df6d81179c" target="_top" xlink:title="Sets the name of the subroutine that is writing log and/or screen messages.">
<polygon fill="white" stroke="black" points="1000.5,-267.67 1000.5,-288.67 1215.5,-288.67 1215.5,-267.67 1000.5,-267.67"/>
<text text-anchor="middle" x="1108" y="-275.07" font-family="Helvetica,sans-Serif" font-size="12.00">pahm_messages::setmessagesource</text>
</a>
</g>
</g>
<!-- Node1&#45;&gt;Node21 -->
<g id="edge60" class="edge">
<title>Node1&#45;&gt;Node21</title>
<path fill="none" stroke="midnightblue" d="M165.26,-384.99C320.1,-369.33 666.73,-333.54 958,-298.17 978.48,-295.69 1000.53,-292.83 1021.21,-290.07"/>
<polygon fill="midnightblue" stroke="midnightblue" points="1021.8,-293.52 1031.25,-288.72 1020.87,-286.58 1021.8,-293.52"/>
</g>
<!-- Node22 -->
<g id="node22" class="node">
<title>Node22</title>
<g id="a_node22"><a xlink:href="../../d9/d41/namespaceparwind.html#abae6c098afd2135918a478b6b7b20673" target="_top" xlink:title="Subroutine to read all a&#45;deck/b&#45;deck best track files (ATCF format).">
<polygon fill="white" stroke="black" points="480,-382.67 480,-403.67 635,-403.67 635,-382.67 480,-382.67"/>
<text text-anchor="middle" x="557.5" y="-390.07" font-family="Helvetica,sans-Serif" font-size="12.00">parwind::readbesttrackfile</text>
</a>
</g>
</g>
<!-- Node1&#45;&gt;Node22 -->
<g id="edge28" class="edge">
<title>Node1&#45;&gt;Node22</title>
<path fill="none" stroke="midnightblue" d="M165.08,-393.17C250.11,-393.17 382.86,-393.17 469.76,-393.17"/>
<polygon fill="midnightblue" stroke="midnightblue" points="469.86,-396.67 479.86,-393.17 469.86,-389.67 469.86,-396.67"/>
</g>
<!-- Node26 -->
<g id="node26" class="node">
<title>Node26</title>
<g id="a_node26"><a xlink:href="../../d4/d3b/namespacepahm__messages.html#ad35e9f2327aad65d4c669e3d886f54dc" target="_top" xlink:title="Removes the name of the subroutine that is no longer active.">
<polygon fill="white" stroke="black" points="994,-150.67 994,-171.67 1222,-171.67 1222,-150.67 994,-150.67"/>
<text text-anchor="middle" x="1108" y="-158.07" font-family="Helvetica,sans-Serif" font-size="12.00">pahm_messages::unsetmessagesource</text>
</a>
</g>
</g>
<!-- Node1&#45;&gt;Node26 -->
<g id="edge61" class="edge">
<title>Node1&#45;&gt;Node26</title>
<path fill="none" stroke="midnightblue" d="M87.49,-382.56C99.86,-350.93 140.36,-255.97 201,-199.17 295.31,-110.85 335.14,-101.96 459,-65.17 671.82,-1.96 748.47,31.23 958,-42.17 1015.2,-62.21 1066.78,-114.44 1091.54,-142.58"/>
<polygon fill="midnightblue" stroke="midnightblue" points="1089.16,-145.18 1098.33,-150.48 1094.46,-140.61 1089.16,-145.18"/>
</g>
<!-- Node29 -->
<g id="node29" class="node">
<title>Node29</title>
<g id="a_node29"><a xlink:href="../../d9/d41/namespaceparwind.html#a75c722a5d8fdb18014543923d7e4dcca" target="_top" xlink:title="Subroutine to read all a&#45;deck/b&#45;deck best track files (ATCF format).">
<polygon fill="white" stroke="black" points="471,-519.67 471,-540.67 644,-540.67 644,-519.67 471,-519.67"/>
<text text-anchor="middle" x="557.5" y="-527.07" font-family="Helvetica,sans-Serif" font-size="12.00">parwind::readcsvbesttrackfile</text>
</a>
</g>
</g>
<!-- Node1&#45;&gt;Node29 -->
<g id="edge42" class="edge">
<title>Node1&#45;&gt;Node29</title>
<path fill="none" stroke="midnightblue" d="M119.83,-403.7C204.78,-428.3 416.29,-489.56 510.25,-516.78"/>
<polygon fill="midnightblue" stroke="midnightblue" points="509.47,-520.2 520.05,-519.62 511.41,-513.47 509.47,-520.2"/>
</g>
<!-- Node32 -->
<g id="node32" class="node">
<title>Node32</title>
<g id="a_node32"><a xlink:href="../../d2/dd9/namespacepahm__mesh.html#a6fd7801e4cbacfd2a7ce61c0fb31073c" target="_top" xlink:title="Reads an input mesh file for the specified supported model type.">
<polygon fill="white" stroke="black" points="241,-208.67 241,-229.67 383,-229.67 383,-208.67 241,-208.67"/>
<text text-anchor="middle" x="312" y="-216.07" font-family="Helvetica,sans-Serif" font-size="12.00">pahm_mesh::readmesh</text>
</a>
</g>
</g>
<!-- Node1&#45;&gt;Node32 -->
<g id="edge51" class="edge">
<title>Node1&#45;&gt;Node32</title>
<path fill="none" stroke="midnightblue" d="M97.24,-382.64C119.17,-365.83 163.44,-331.9 201,-303.17 231.5,-279.85 266.78,-252.92 288.99,-235.97"/>
<polygon fill="midnightblue" stroke="midnightblue" points="291.28,-238.63 297.1,-229.78 287.03,-233.06 291.28,-238.63"/>
</g>
<!-- Node2&#45;&gt;Node3 -->
<g id="edge2" class="edge">
<title>Node2&#45;&gt;Node3</title>
<path fill="none" stroke="midnightblue" d="M327.38,-793.88C349.98,-811.26 394.22,-847.59 423,-886.17 444.39,-914.85 430.62,-936.39 459,-958.17 461.31,-959.95 463.74,-961.58 466.27,-963.07"/>
<polygon fill="midnightblue" stroke="midnightblue" points="464.68,-966.19 475.17,-967.64 467.88,-959.96 464.68,-966.19"/>
</g>
<!-- Node5 -->
<g id="node5" class="node">
<title>Node5</title>
<g id="a_node5"><a xlink:href="../../d4/d3b/namespacepahm__messages.html#a0bf7cabdd36155ddc9946687defee4ff" target="_top" xlink:title="Prints on the screen the help system of the program.">
<polygon fill="white" stroke="black" points="466.5,-772.67 466.5,-793.67 648.5,-793.67 648.5,-772.67 466.5,-772.67"/>
<text text-anchor="middle" x="557.5" y="-780.07" font-family="Helvetica,sans-Serif" font-size="12.00">pahm_messages::programhelp</text>
</a>
</g>
</g>
<!-- Node2&#45;&gt;Node5 -->
<g id="edge4" class="edge">
<title>Node2&#45;&gt;Node5</title>
<path fill="none" stroke="midnightblue" d="M423.35,-783.17C434.22,-783.17 445.21,-783.17 455.98,-783.17"/>
<polygon fill="midnightblue" stroke="midnightblue" points="456.22,-786.67 466.22,-783.17 456.22,-779.67 456.22,-786.67"/>
</g>
<!-- Node6 -->
<g id="node6" class="node">
<title>Node6</title>
<g id="a_node6"><a xlink:href="../../d4/d3b/namespacepahm__messages.html#a339ae583dc62f85245ae10374b0c677f" target="_top" xlink:title="Prints on the screen the versioning information of the program.">
<polygon fill="white" stroke="black" points="726.5,-733.67 726.5,-754.67 923.5,-754.67 923.5,-733.67 726.5,-733.67"/>
<text text-anchor="middle" x="825" y="-741.07" font-family="Helvetica,sans-Serif" font-size="12.00">pahm_messages::programversion</text>
</a>
</g>
</g>
<!-- Node2&#45;&gt;Node6 -->
<g id="edge6" class="edge">
<title>Node2&#45;&gt;Node6</title>
<path fill="none" stroke="midnightblue" d="M381.2,-772.62C405.68,-769.16 433.53,-765.58 459,-763.17 545.28,-755.03 643.39,-750.17 716.14,-747.41"/>
<polygon fill="midnightblue" stroke="midnightblue" points="716.37,-750.9 726.24,-747.03 716.11,-743.91 716.37,-750.9"/>
</g>
<!-- Node7 -->
<g id="node7" class="node">
<title>Node7</title>
<g id="a_node7"><a xlink:href="../../d2/d96/namespaceutilities.html#ab095172ef12ae151ab5c9aacf82f4dc6" target="_top" xlink:title="This subroutine reads the program&#39;s main control file.">
<polygon fill="white" stroke="black" points="489.5,-927.67 489.5,-948.67 625.5,-948.67 625.5,-927.67 489.5,-927.67"/>
<text text-anchor="middle" x="557.5" y="-935.07" font-family="Helvetica,sans-Serif" font-size="12.00">utilities::readcontrolfile</text>
</a>
</g>
</g>
<!-- Node2&#45;&gt;Node7 -->
<g id="edge7" class="edge">
<title>Node2&#45;&gt;Node7</title>
<path fill="none" stroke="midnightblue" d="M329.74,-793.83C371.72,-820.55 481.66,-890.54 531.41,-922.2"/>
<polygon fill="midnightblue" stroke="midnightblue" points="529.65,-925.23 539.97,-927.65 533.41,-919.33 529.65,-925.23"/>
</g>
<!-- Node4 -->
<g id="node4" class="node">
<title>Node4</title>
<g id="a_node4"><a xlink:href="../../d4/d3b/namespacepahm__messages.html#a4856e55c31868efd23b7f6ca723004e5" target="_top" xlink:title="Opens the log file for writting.">
<polygon fill="white" stroke="black" points="738.5,-1203.67 738.5,-1224.67 911.5,-1224.67 911.5,-1203.67 738.5,-1203.67"/>
<text text-anchor="middle" x="825" y="-1211.07" font-family="Helvetica,sans-Serif" font-size="12.00">pahm_messages::openlogfile</text>
</a>
</g>
</g>
<!-- Node3&#45;&gt;Node4 -->
<g id="edge3" class="edge">
<title>Node3&#45;&gt;Node4</title>
<path fill="none" stroke="midnightblue" d="M561.51,-988.75C572.32,-1024.54 612.73,-1141.81 692,-1194.17 702.94,-1201.4 715.49,-1206.41 728.41,-1209.83"/>
<polygon fill="midnightblue" stroke="midnightblue" points="727.81,-1213.29 738.34,-1212.15 729.4,-1206.47 727.81,-1213.29"/>
</g>
<!-- Node5&#45;&gt;Node6 -->
<g id="edge5" class="edge">
<title>Node5&#45;&gt;Node6</title>
<path fill="none" stroke="midnightblue" d="M630,-772.67C664.67,-767.58 706.49,-761.44 742.41,-756.16"/>
<polygon fill="midnightblue" stroke="midnightblue" points="742.99,-759.61 752.37,-754.7 741.97,-752.69 742.99,-759.61"/>
</g>
<!-- Node8 -->
<g id="node8" class="node">
<title>Node8</title>
<g id="a_node8"><a xlink:href="../../d2/d96/namespaceutilities.html#a1e2f2593103f415e1c073284ff95a83f" target="_top" xlink:title="Checks the user defined control file inputs.">
<polygon fill="white" stroke="black" points="737,-927.67 737,-948.67 913,-948.67 913,-927.67 737,-927.67"/>
<text text-anchor="middle" x="825" y="-935.07" font-family="Helvetica,sans-Serif" font-size="12.00">utilities::checkcontrolfileinputs</text>
</a>
</g>
</g>
<!-- Node7&#45;&gt;Node8 -->
<g id="edge8" class="edge">
<title>Node7&#45;&gt;Node8</title>
<path fill="none" stroke="midnightblue" d="M625.84,-938.17C656.33,-938.17 692.96,-938.17 726.38,-938.17"/>
<polygon fill="midnightblue" stroke="midnightblue" points="726.64,-941.67 736.64,-938.17 726.64,-934.67 726.64,-941.67"/>
</g>
<!-- Node9 -->
<g id="node9" class="node">
<title>Node9</title>
<g id="a_node9"><a xlink:href="../../d4/d19/namespacetimedateutils.html#a6c7acacb9981bb9182378a449e45715b" target="_top" xlink:title="Calculates the conversion factor between time units and seconds.">
<polygon fill="white" stroke="black" points="1021,-924.67 1021,-945.67 1195,-945.67 1195,-924.67 1021,-924.67"/>
<text text-anchor="middle" x="1108" y="-932.07" font-family="Helvetica,sans-Serif" font-size="12.00">timedateutils::gettimeconvsec</text>
</a>
</g>
</g>
<!-- Node7&#45;&gt;Node9 -->
<g id="edge15" class="edge">
<title>Node7&#45;&gt;Node9</title>
<path fill="none" stroke="midnightblue" d="M616.12,-927.63C639.57,-923.84 666.99,-920.04 692,-918.17 809.9,-909.39 839.97,-911.46 958,-918.17 977.9,-919.31 999.23,-921.28 1019.34,-923.49"/>
<polygon fill="midnightblue" stroke="midnightblue" points="1019.09,-926.99 1029.42,-924.63 1019.88,-920.03 1019.09,-926.99"/>
</g>
<!-- Node11 -->
<g id="node11" class="node">
<title>Node11</title>
<g id="a_node11"><a xlink:href="../../d4/d19/namespacetimedateutils.html#a393203cc78370648d0dd392fe96d66ff" target="_top" xlink:title="Pre&#45;processes an arbitrary date string.">
<polygon fill="white" stroke="black" points="1041.5,-964.67 1041.5,-985.67 1174.5,-985.67 1174.5,-964.67 1041.5,-964.67"/>
<text text-anchor="middle" x="1108" y="-972.07" font-family="Helvetica,sans-Serif" font-size="12.00">timedateutils::joindate</text>
</a>
</g>
</g>
<!-- Node7&#45;&gt;Node11 -->
<g id="edge16" class="edge">
<title>Node7&#45;&gt;Node11</title>
<path fill="none" stroke="midnightblue" d="M619.47,-948.72C642.18,-952.28 668.2,-955.91 692,-958.17 810.18,-969.41 947.99,-973.23 1031.31,-974.52"/>
<polygon fill="midnightblue" stroke="midnightblue" points="1031.39,-978.02 1041.44,-974.67 1031.5,-971.02 1031.39,-978.02"/>
</g>
<!-- Node12 -->
<g id="node12" class="node">
<title>Node12</title>
<g id="a_node12"><a xlink:href="../../d2/d96/namespaceutilities.html#a8dff395c74e87d059dadcf8bacdbfedd" target="_top" xlink:title="Convert a string to upper&#45;case.">
<polygon fill="white" stroke="black" points="1045,-752.67 1045,-773.67 1171,-773.67 1171,-752.67 1045,-752.67"/>
<text text-anchor="middle" x="1108" y="-760.07" font-family="Helvetica,sans-Serif" font-size="12.00">utilities::touppercase</text>
</a>
</g>
</g>
<!-- Node7&#45;&gt;Node12 -->
<g id="edge26" class="edge">
<title>Node7&#45;&gt;Node12</title>
<path fill="none" stroke="midnightblue" d="M605.27,-927.63C703.49,-905.39 924.93,-854.68 958,-842.17 1003.47,-824.97 1052.63,-796.85 1081.57,-779.21"/>
<polygon fill="midnightblue" stroke="midnightblue" points="1083.55,-782.11 1090.23,-773.88 1079.88,-776.15 1083.55,-782.11"/>
</g>
<!-- Node13 -->
<g id="node13" class="node">
<title>Node13</title>
<g id="a_node13"><a xlink:href="../../d4/d19/namespacetimedateutils.html#a565d549493d69e2c9ea5b7af18247df5" target="_top" xlink:title="Constructs a NetCDF time string.">
<polygon fill="white" stroke="black" points="1022,-1004.67 1022,-1025.67 1194,-1025.67 1194,-1004.67 1022,-1004.67"/>
<text text-anchor="middle" x="1108" y="-1012.07" font-family="Helvetica,sans-Serif" font-size="12.00">timedateutils::datetime2string</text>
</a>
</g>
</g>
<!-- Node7&#45;&gt;Node13 -->
<g id="edge13" class="edge">
<title>Node7&#45;&gt;Node13</title>
<path fill="none" stroke="midnightblue" d="M625.48,-948.71C635.87,-951.25 646.35,-954.37 656,-958.17 673.45,-965.05 674.18,-974.34 692,-980.17 797.49,-1014.7 925.69,-1020.41 1011.43,-1019.44"/>
<polygon fill="midnightblue" stroke="midnightblue" points="1011.73,-1022.94 1021.67,-1019.29 1011.62,-1015.94 1011.73,-1022.94"/>
</g>
<!-- Node14 -->
<g id="node14" class="node">
<title>Node14</title>
<g id="a_node14"><a xlink:href="../../d4/d19/namespacetimedateutils.html#abc63ac16baec18b6c9bb2ee6e0400a63" target="_top" xlink:title="Determines the Julian date from a Gregorian date.">
<polygon fill="white" stroke="black" points="747.5,-1123.67 747.5,-1144.67 902.5,-1144.67 902.5,-1123.67 747.5,-1123.67"/>
<text text-anchor="middle" x="825" y="-1131.07" font-family="Helvetica,sans-Serif" font-size="12.00">timedateutils::juldaytogreg</text>
</a>
</g>
</g>
<!-- Node7&#45;&gt;Node14 -->
<g id="edge17" class="edge">
<title>Node7&#45;&gt;Node14</title>
<path fill="none" stroke="midnightblue" d="M625.66,-941.49C636.93,-944.79 647.65,-950.03 656,-958.17 706.93,-1007.87 639.8,-1065.82 692,-1114.17 704.51,-1125.76 720.73,-1132.34 737.49,-1135.83"/>
<polygon fill="midnightblue" stroke="midnightblue" points="736.95,-1139.29 747.4,-1137.55 738.14,-1132.39 736.95,-1139.29"/>
</g>
<!-- Node15 -->
<g id="node15" class="node">
<title>Node15</title>
<g id="a_node15"><a xlink:href="../../d2/d96/namespaceutilities.html#a062355064a86a716b2ddff1aa0cd3fb4" target="_top" xlink:title="This function loads input values into a requested model integer variable.">
<polygon fill="white" stroke="black" points="768.5,-1083.67 768.5,-1104.67 881.5,-1104.67 881.5,-1083.67 768.5,-1083.67"/>
<text text-anchor="middle" x="825" y="-1091.07" font-family="Helvetica,sans-Serif" font-size="12.00">utilities::loadintvar</text>
</a>
</g>
</g>
<!-- Node7&#45;&gt;Node15 -->
<g id="edge18" class="edge">
<title>Node7&#45;&gt;Node15</title>
<path fill="none" stroke="midnightblue" d="M625.68,-942.14C636.81,-945.4 647.48,-950.46 656,-958.17 696.01,-994.42 651.07,-1038.98 692,-1074.17 710.07,-1089.71 734.9,-1095.99 758.17,-1097.95"/>
<polygon fill="midnightblue" stroke="midnightblue" points="758.17,-1101.45 768.36,-1098.55 758.58,-1094.47 758.17,-1101.45"/>
</g>
<!-- Node16 -->
<g id="node16" class="node">
<title>Node16</title>
<g id="a_node16"><a xlink:href="../../d2/d96/namespaceutilities.html#a4a70a4be51dcd79bc46b6cfcb2d2ac0a" target="_top" xlink:title="This function loads input values into a requested model real variable.">
<polygon fill="white" stroke="black" points="765,-1043.67 765,-1064.67 885,-1064.67 885,-1043.67 765,-1043.67"/>
<text text-anchor="middle" x="825" y="-1051.07" font-family="Helvetica,sans-Serif" font-size="12.00">utilities::loadrealvar</text>
</a>
</g>
</g>
<!-- Node7&#45;&gt;Node16 -->
<g id="edge19" class="edge">
<title>Node7&#45;&gt;Node16</title>
<path fill="none" stroke="midnightblue" d="M625.68,-943.65C636.56,-946.79 647.14,-951.41 656,-958.17 684.12,-979.64 663.71,-1007.92 692,-1029.17 709.95,-1042.66 733.06,-1049.54 754.92,-1052.87"/>
<polygon fill="midnightblue" stroke="midnightblue" points="754.48,-1056.35 764.85,-1054.17 755.39,-1049.4 754.48,-1056.35"/>
</g>
<!-- Node17 -->
<g id="node17" class="node">
<title>Node17</title>
<g id="a_node17"><a xlink:href="../../d2/d96/namespaceutilities.html#ab30d13ba0fcebcb933a30be2237ec162" target="_top" xlink:title="This function parses lines of text from input script/control files.">
<polygon fill="white" stroke="black" points="770,-811.67 770,-832.67 880,-832.67 880,-811.67 770,-811.67"/>
<text text-anchor="middle" x="825" y="-819.07" font-family="Helvetica,sans-Serif" font-size="12.00">utilities::parseline</text>
</a>
</g>
</g>
<!-- Node7&#45;&gt;Node17 -->
<g id="edge20" class="edge">
<title>Node7&#45;&gt;Node17</title>
<path fill="none" stroke="midnightblue" d="M570.38,-927.52C592.55,-908.24 642.5,-867.68 692,-847.17 713.3,-838.35 737.84,-832.61 759.93,-828.89"/>
<polygon fill="midnightblue" stroke="midnightblue" points="760.56,-832.34 769.89,-827.32 759.47,-825.42 760.56,-832.34"/>
</g>
<!-- Node19 -->
<g id="node19" class="node">
<title>Node19</title>
<g id="a_node19"><a xlink:href="../../d2/d96/namespaceutilities.html#a57953a3306e17ea2e28254e3d2091516" target="_top" xlink:title="This subroutine prints on the screen the values of the program&#39;s parameters.">
<polygon fill="white" stroke="black" points="747,-1163.67 747,-1184.67 903,-1184.67 903,-1163.67 747,-1163.67"/>
<text text-anchor="middle" x="825" y="-1171.07" font-family="Helvetica,sans-Serif" font-size="12.00">utilities::printmodelparams</text>
</a>
</g>
</g>
<!-- Node7&#45;&gt;Node19 -->
<g id="edge23" class="edge">
<title>Node7&#45;&gt;Node19</title>
<path fill="none" stroke="midnightblue" d="M625.71,-941.11C637.04,-944.43 647.78,-949.78 656,-958.17 717.98,-1021.45 628.4,-1092.53 692,-1154.17 704.24,-1166.04 720.35,-1172.74 737.09,-1176.26"/>
<polygon fill="midnightblue" stroke="midnightblue" points="736.54,-1179.72 746.99,-1177.98 737.74,-1172.82 736.54,-1179.72"/>
</g>
<!-- Node7&#45;&gt;Node21 -->
<g id="edge25" class="edge">
<title>Node7&#45;&gt;Node21</title>
<path fill="none" stroke="midnightblue" d="M565.33,-927.39C582.76,-900.91 631.77,-832.64 692,-802.17 798.57,-748.27 871.86,-846.88 958,-764.17 1021.57,-703.14 969.94,-653.96 994,-569.17 1023.78,-464.23 1076.58,-344.42 1097.8,-297.99"/>
<polygon fill="midnightblue" stroke="midnightblue" points="1101.05,-299.31 1102.05,-288.76 1094.69,-296.38 1101.05,-299.31"/>
</g>
<!-- Node8&#45;&gt;Node9 -->
<g id="edge9" class="edge">
<title>Node8&#45;&gt;Node9</title>
<path fill="none" stroke="midnightblue" d="M913.37,-937.24C944.19,-936.91 979.01,-936.54 1010.54,-936.2"/>
<polygon fill="midnightblue" stroke="midnightblue" points="1010.69,-939.7 1020.65,-936.1 1010.61,-932.7 1010.69,-939.7"/>
</g>
<!-- Node8&#45;&gt;Node11 -->
<g id="edge11" class="edge">
<title>Node8&#45;&gt;Node11</title>
<path fill="none" stroke="midnightblue" d="M905.77,-948.68C945.09,-953.86 992.27,-960.07 1031.06,-965.18"/>
<polygon fill="midnightblue" stroke="midnightblue" points="1030.88,-968.68 1041.25,-966.52 1031.79,-961.74 1030.88,-968.68"/>
</g>
<!-- Node8&#45;&gt;Node12 -->
<g id="edge12" class="edge">
<title>Node8&#45;&gt;Node12</title>
<path fill="none" stroke="midnightblue" d="M851.84,-927.66C879.04,-916.18 922.71,-896.56 958,-875.17 1006.65,-845.68 1058.76,-803.87 1086.62,-780.58"/>
<polygon fill="midnightblue" stroke="midnightblue" points="1089.07,-783.09 1094.46,-773.97 1084.56,-777.74 1089.07,-783.09"/>
</g>
<!-- Node10 -->
<g id="node10" class="node">
<title>Node10</title>
<g id="a_node10"><a xlink:href="../../d4/d19/namespacetimedateutils.html#a09a914846a02d3d430348f83c67d58b5" target="_top" xlink:title="Convert a string to upper&#45;case.">
<polygon fill="white" stroke="black" points="1258,-964.67 1258,-985.67 1368,-985.67 1368,-964.67 1258,-964.67"/>
<text text-anchor="middle" x="1313" y="-972.07" font-family="Helvetica,sans-Serif" font-size="12.00">timedateutils::upp</text>
</a>
</g>
</g>
<!-- Node9&#45;&gt;Node10 -->
<g id="edge10" class="edge">
<title>Node9&#45;&gt;Node10</title>
<path fill="none" stroke="midnightblue" d="M1171.26,-945.69C1187.78,-948.62 1205.59,-951.9 1222,-955.17 1233.17,-957.4 1245.08,-959.94 1256.46,-962.44"/>
<polygon fill="midnightblue" stroke="midnightblue" points="1255.78,-965.87 1266.3,-964.61 1257.29,-959.03 1255.78,-965.87"/>
</g>
<!-- Node13&#45;&gt;Node10 -->
<g id="edge14" class="edge">
<title>Node13&#45;&gt;Node10</title>
<path fill="none" stroke="midnightblue" d="M1171.26,-1004.66C1187.78,-1001.73 1205.59,-998.45 1222,-995.17 1233.17,-992.95 1245.08,-990.41 1256.46,-987.91"/>
<polygon fill="midnightblue" stroke="midnightblue" points="1257.29,-991.31 1266.3,-985.73 1255.78,-984.48 1257.29,-991.31"/>
</g>
<!-- Node17&#45;&gt;Node12 -->
<g id="edge22" class="edge">
<title>Node17&#45;&gt;Node12</title>
<path fill="none" stroke="midnightblue" d="M880.04,-812.41C903.97,-807.96 932.43,-802.51 958,-797.17 989.46,-790.61 1024.51,-782.64 1052.7,-776.08"/>
<polygon fill="midnightblue" stroke="midnightblue" points="1053.82,-779.41 1062.76,-773.72 1052.23,-772.59 1053.82,-779.41"/>
</g>
<!-- Node18 -->
<g id="node18" class="node">
<title>Node18</title>
<g id="a_node18"><a xlink:href="../../d2/d96/namespaceutilities.html#a8723656afba63e33ed1c6cc8e5440b63" target="_top" xlink:title="Gets a line from a file.">
<polygon fill="white" stroke="black" points="1043,-618.67 1043,-639.67 1173,-639.67 1173,-618.67 1043,-618.67"/>
<text text-anchor="middle" x="1108" y="-626.07" font-family="Helvetica,sans-Serif" font-size="12.00">utilities::getlinerecord</text>
</a>
</g>
</g>
<!-- Node17&#45;&gt;Node18 -->
<g id="edge21" class="edge">
<title>Node17&#45;&gt;Node18</title>
<path fill="none" stroke="midnightblue" d="M880.04,-821.43C905.47,-818.82 935.15,-812.31 958,-797.17 982.05,-781.25 975.76,-765.52 994,-743.17 1023.95,-706.48 1063.94,-668.26 1087.44,-646.72"/>
<polygon fill="midnightblue" stroke="midnightblue" points="1089.97,-649.14 1095.02,-639.82 1085.26,-643.96 1089.97,-649.14"/>
</g>
<!-- Node20 -->
<g id="node20" class="node">
<title>Node20</title>
<g id="a_node20"><a xlink:href="../../d2/d96/namespaceutilities.html#a376978b945cbdf5d33ff8bf905d19866" target="_top" xlink:title="Convert a string to lower&#45;case.">
<polygon fill="white" stroke="black" points="1046,-1163.67 1046,-1184.67 1170,-1184.67 1170,-1163.67 1046,-1163.67"/>
<text text-anchor="middle" x="1108" y="-1171.07" font-family="Helvetica,sans-Serif" font-size="12.00">utilities::tolowercase</text>
</a>
</g>
</g>
<!-- Node19&#45;&gt;Node20 -->
<g id="edge24" class="edge">
<title>Node19&#45;&gt;Node20</title>
<path fill="none" stroke="midnightblue" d="M903.16,-1174.17C944.5,-1174.17 995.09,-1174.17 1035.53,-1174.17"/>
<polygon fill="midnightblue" stroke="midnightblue" points="1035.58,-1177.67 1045.58,-1174.17 1035.58,-1170.67 1035.58,-1177.67"/>
</g>
<!-- Node22&#45;&gt;Node12 -->
<g id="edge39" class="edge">
<title>Node22&#45;&gt;Node12</title>
<path fill="none" stroke="midnightblue" d="M623.64,-403.71C645.37,-407.15 669.71,-410.91 692,-414.17 751.02,-422.81 914.89,-408.94 958,-450.17 1022.95,-512.3 952.5,-569.45 994,-649.17 1015.5,-690.48 1057.08,-726.44 1083.37,-746.43"/>
<polygon fill="midnightblue" stroke="midnightblue" points="1081.53,-749.42 1091.64,-752.58 1085.7,-743.8 1081.53,-749.42"/>
</g>
<!-- Node22&#45;&gt;Node18 -->
<g id="edge31" class="edge">
<title>Node22&#45;&gt;Node18</title>
<path fill="none" stroke="midnightblue" d="M635.11,-387.06C737.58,-380.62 911.75,-376.39 958,-417.17 1023.12,-474.6 932.3,-548.1 994,-609.17 1004.47,-619.54 1018.32,-625.58 1032.72,-628.94"/>
<polygon fill="midnightblue" stroke="midnightblue" points="1032.26,-632.42 1042.74,-630.85 1033.58,-625.54 1032.26,-632.42"/>
</g>
<!-- Node22&#45;&gt;Node21 -->
<g id="edge35" class="edge">
<title>Node22&#45;&gt;Node21</title>
<path fill="none" stroke="midnightblue" d="M635.2,-385.6C716.26,-376.6 847.43,-359.16 958,-331.17 998.06,-321.04 1042.51,-304.5 1072.34,-292.6"/>
<polygon fill="midnightblue" stroke="midnightblue" points="1073.91,-295.74 1081.88,-288.75 1071.29,-289.25 1073.91,-295.74"/>
</g>
<!-- Node23 -->
<g id="node23" class="node">
<title>Node23</title>
<g id="a_node23"><a xlink:href="../../d9/d41/namespaceparwind.html#a9b826e18db73886e01f39d55bf7e5b85" target="_top" xlink:title="Subroutine to allocate memory for a best track structure.">
<polygon fill="white" stroke="black" points="758,-499.67 758,-520.67 892,-520.67 892,-499.67 758,-499.67"/>
<text text-anchor="middle" x="825" y="-507.07" font-family="Helvetica,sans-Serif" font-size="12.00">parwind::allocbtrstruct</text>
</a>
</g>
</g>
<!-- Node22&#45;&gt;Node23 -->
<g id="edge29" class="edge">
<title>Node22&#45;&gt;Node23</title>
<path fill="none" stroke="midnightblue" d="M569.15,-403.77C590.43,-424.25 640.58,-469.08 692,-490.17 709.45,-497.33 729.14,-501.96 747.89,-504.95"/>
<polygon fill="midnightblue" stroke="midnightblue" points="747.49,-508.42 757.89,-506.4 748.5,-501.5 747.49,-508.42"/>
</g>
<!-- Node24 -->
<g id="node24" class="node">
<title>Node24</title>
<g id="a_node24"><a xlink:href="../../d2/d96/namespaceutilities.html#a241eabd46f9d0e4a26adc221570ad79f" target="_top" xlink:title="Find the unique non&#45;blank elements in 1D character array.">
<polygon fill="white" stroke="black" points="765,-459.67 765,-480.67 885,-480.67 885,-459.67 765,-459.67"/>
<text text-anchor="middle" x="825" y="-467.07" font-family="Helvetica,sans-Serif" font-size="12.00">utilities::charunique</text>
</a>
</g>
</g>
<!-- Node22&#45;&gt;Node24 -->
<g id="edge30" class="edge">
<title>Node22&#45;&gt;Node24</title>
<path fill="none" stroke="midnightblue" d="M581.68,-403.72C607.96,-415.31 652.31,-433.79 692,-445.17 712.23,-450.98 734.6,-455.79 755.09,-459.6"/>
<polygon fill="midnightblue" stroke="midnightblue" points="754.51,-463.05 764.97,-461.39 755.76,-456.17 754.51,-463.05"/>
</g>
<!-- Node25 -->
<g id="node25" class="node">
<title>Node25</title>
<g id="a_node25"><a xlink:href="../../d2/d96/namespaceutilities.html#a2a41067ed5533ec0c36318e8f1e960bf" target="_top" xlink:title="This subroutine opens an existing file for reading.">
<polygon fill="white" stroke="black" points="755,-267.67 755,-288.67 895,-288.67 895,-267.67 755,-267.67"/>
<text text-anchor="middle" x="825" y="-275.07" font-family="Helvetica,sans-Serif" font-size="12.00">utilities::openfileforread</text>
</a>
</g>
</g>
<!-- Node22&#45;&gt;Node25 -->
<g id="edge32" class="edge">
<title>Node22&#45;&gt;Node25</title>
<path fill="none" stroke="midnightblue" d="M583,-382.56C630.72,-361.89 736.16,-316.22 790.37,-292.74"/>
<polygon fill="midnightblue" stroke="midnightblue" points="791.77,-295.95 799.56,-288.76 788.99,-289.52 791.77,-295.95"/>
</g>
<!-- Node22&#45;&gt;Node26 -->
<g id="edge40" class="edge">
<title>Node22&#45;&gt;Node26</title>
<path fill="none" stroke="midnightblue" d="M562.97,-382.62C576.82,-351.33 622.34,-258.78 692,-218.17 780.24,-166.74 896.56,-154.58 983.59,-154.09"/>
<polygon fill="midnightblue" stroke="midnightblue" points="983.79,-157.59 993.79,-154.08 983.79,-150.59 983.79,-157.59"/>
</g>
<!-- Node27 -->
<g id="node27" class="node">
<title>Node27</title>
<g id="a_node27"><a xlink:href="../../d4/d3b/namespacepahm__messages.html#a8fdeeba7e0469ebda6435518f619444b" target="_top" xlink:title="Terminates the calling program when a fatal error is encountered.">
<polygon fill="white" stroke="black" points="743,-227.67 743,-248.67 907,-248.67 907,-227.67 743,-227.67"/>
<text text-anchor="middle" x="825" y="-235.07" font-family="Helvetica,sans-Serif" font-size="12.00">pahm_messages::terminate</text>
</a>
</g>
</g>
<!-- Node22&#45;&gt;Node27 -->
<g id="edge36" class="edge">
<title>Node22&#45;&gt;Node27</title>
<path fill="none" stroke="midnightblue" d="M565.37,-382.5C582.88,-356.29 632.07,-288.67 692,-258.17 704.67,-251.73 718.85,-247.22 733.09,-244.1"/>
<polygon fill="midnightblue" stroke="midnightblue" points="733.8,-247.52 742.93,-242.15 732.44,-240.66 733.8,-247.52"/>
</g>
<!-- Node28 -->
<g id="node28" class="node">
<title>Node28</title>
<g id="a_node28"><a xlink:href="../../d9/d41/namespaceparwind.html#a7989fce3f35ac76cf6c9a81eed22a3b7" target="_top" xlink:title="Outputs the post&#45;prossed best track data to file.">
<polygon fill="white" stroke="black" points="743,-539.67 743,-560.67 907,-560.67 907,-539.67 743,-539.67"/>
<text text-anchor="middle" x="825" y="-547.07" font-family="Helvetica,sans-Serif" font-size="12.00">parwind::writebesttrackdata</text>
</a>
</g>
</g>
<!-- Node22&#45;&gt;Node28 -->
<g id="edge41" class="edge">
<title>Node22&#45;&gt;Node28</title>
<path fill="none" stroke="midnightblue" d="M565.33,-404.01C582.74,-430.61 631.73,-499.23 692,-530.17 704.65,-536.67 718.81,-541.2 733.04,-544.33"/>
<polygon fill="midnightblue" stroke="midnightblue" points="732.4,-547.77 742.89,-546.29 733.76,-540.91 732.4,-547.77"/>
</g>
<!-- Node25&#45;&gt;Node21 -->
<g id="edge33" class="edge">
<title>Node25&#45;&gt;Node21</title>
<path fill="none" stroke="midnightblue" d="M895.1,-278.17C923.69,-278.17 957.66,-278.17 989.93,-278.17"/>
<polygon fill="midnightblue" stroke="midnightblue" points="990.34,-281.67 1000.34,-278.17 990.34,-274.67 990.34,-281.67"/>
</g>
<!-- Node25&#45;&gt;Node26 -->
<g id="edge34" class="edge">
<title>Node25&#45;&gt;Node26</title>
<path fill="none" stroke="midnightblue" d="M895.25,-273.31C915.91,-270.37 938.29,-265.68 958,-258.17 1008.5,-238.95 1059.61,-200.66 1086.88,-178.37"/>
<polygon fill="midnightblue" stroke="midnightblue" points="1089.4,-180.82 1094.86,-171.74 1084.93,-175.43 1089.4,-180.82"/>
</g>
<!-- Node27&#45;&gt;Node21 -->
<g id="edge37" class="edge">
<title>Node27&#45;&gt;Node21</title>
<path fill="none" stroke="midnightblue" d="M899.83,-248.68C937.59,-254.06 983.73,-260.63 1022.86,-266.2"/>
<polygon fill="midnightblue" stroke="midnightblue" points="1022.78,-269.72 1033.18,-267.67 1023.77,-262.79 1022.78,-269.72"/>
</g>
<!-- Node27&#45;&gt;Node26 -->
<g id="edge38" class="edge">
<title>Node27&#45;&gt;Node26</title>
<path fill="none" stroke="midnightblue" d="M864.48,-227.63C915,-213.79 1003.69,-189.48 1058.67,-174.42"/>
<polygon fill="midnightblue" stroke="midnightblue" points="1059.81,-177.73 1068.53,-171.72 1057.96,-170.98 1059.81,-177.73"/>
</g>
<!-- Node29&#45;&gt;Node12 -->
<g id="edge49" class="edge">
<title>Node29&#45;&gt;Node12</title>
<path fill="none" stroke="midnightblue" d="M568,-540.88C588.35,-563.08 638.64,-614.13 692,-639.17 801.04,-690.36 843.72,-653.1 958,-691.17 1002.52,-706.01 1050.88,-731.22 1080.06,-747.53"/>
<polygon fill="midnightblue" stroke="midnightblue" points="1078.4,-750.61 1088.83,-752.49 1081.85,-744.52 1078.4,-750.61"/>
</g>
<!-- Node29&#45;&gt;Node18 -->
<g id="edge45" class="edge">
<title>Node29&#45;&gt;Node18</title>
<path fill="none" stroke="midnightblue" d="M571.1,-540.72C593.64,-558.85 643.11,-595.43 692,-610.17 807.13,-644.88 948.32,-642.44 1032.79,-636.52"/>
<polygon fill="midnightblue" stroke="midnightblue" points="1033.09,-640.01 1042.81,-635.78 1032.58,-633.02 1033.09,-640.01"/>
</g>
<!-- Node29&#45;&gt;Node23 -->
<g id="edge43" class="edge">
<title>Node29&#45;&gt;Node23</title>
<path fill="none" stroke="midnightblue" d="M644.33,-523.71C677.55,-521.21 715.27,-518.37 747.54,-515.93"/>
<polygon fill="midnightblue" stroke="midnightblue" points="748.11,-519.4 757.82,-515.16 747.58,-512.42 748.11,-519.4"/>
</g>
<!-- Node29&#45;&gt;Node24 -->
<g id="edge44" class="edge">
<title>Node29&#45;&gt;Node24</title>
<path fill="none" stroke="midnightblue" d="M589.2,-519.63C616.05,-510.74 656.23,-498.2 692,-490.17 712.22,-485.64 734.41,-481.83 754.74,-478.8"/>
<polygon fill="midnightblue" stroke="midnightblue" points="755.47,-482.23 764.86,-477.33 754.46,-475.3 755.47,-482.23"/>
</g>
<!-- Node29&#45;&gt;Node25 -->
<g id="edge48" class="edge">
<title>Node29&#45;&gt;Node25</title>
<path fill="none" stroke="midnightblue" d="M569.57,-519.67C610.56,-480.76 753.98,-344.63 805.44,-295.79"/>
<polygon fill="midnightblue" stroke="midnightblue" points="808.04,-298.15 812.88,-288.73 803.22,-293.07 808.04,-298.15"/>
</g>
<!-- Node29&#45;&gt;Node28 -->
<g id="edge50" class="edge">
<title>Node29&#45;&gt;Node28</title>
<path fill="none" stroke="midnightblue" d="M644.33,-536.64C672.66,-538.77 704.25,-541.15 732.95,-543.32"/>
<polygon fill="midnightblue" stroke="midnightblue" points="732.74,-546.81 742.97,-544.07 733.27,-539.83 732.74,-546.81"/>
</g>
<!-- Node30 -->
<g id="node30" class="node">
<title>Node30</title>
<g id="a_node30"><a xlink:href="../../d2/d96/namespaceutilities.html#a2a5c60da3dadf9f6ef913709c07dbee7" target="_top" xlink:title="Returns the value of the leading integer numeric string.">
<polygon fill="white" stroke="black" points="774,-579.67 774,-600.67 876,-600.67 876,-579.67 774,-579.67"/>
<text text-anchor="middle" x="825" y="-587.07" font-family="Helvetica,sans-Serif" font-size="12.00">utilities::intvalstr</text>
</a>
</g>
</g>
<!-- Node29&#45;&gt;Node30 -->
<g id="edge46" class="edge">
<title>Node29&#45;&gt;Node30</title>
<path fill="none" stroke="midnightblue" d="M589.2,-540.72C616.05,-549.61 656.23,-562.15 692,-570.17 715.24,-575.39 741.09,-579.64 763.71,-582.86"/>
<polygon fill="midnightblue" stroke="midnightblue" points="763.47,-586.36 773.86,-584.27 764.44,-579.43 763.47,-586.36"/>
</g>
<!-- Node31 -->
<g id="node31" class="node">
<title>Node31</title>
<g id="a_node31"><a xlink:href="../../d2/d96/namespaceutilities.html#a26a70a9de90e0016d323e4c8dbea1a5b" target="_top" xlink:title="Scans string looking for the leading integer numeric string.">
<polygon fill="white" stroke="black" points="1059,-578.67 1059,-599.67 1157,-599.67 1157,-578.67 1059,-578.67"/>
<text text-anchor="middle" x="1108" y="-586.07" font-family="Helvetica,sans-Serif" font-size="12.00">utilities::intscan</text>
</a>
</g>
</g>
<!-- Node30&#45;&gt;Node31 -->
<g id="edge47" class="edge">
<title>Node30&#45;&gt;Node31</title>
<path fill="none" stroke="midnightblue" d="M876.24,-590C924.53,-589.82 997.5,-589.56 1048.41,-589.38"/>
<polygon fill="midnightblue" stroke="midnightblue" points="1048.62,-592.88 1058.61,-589.35 1048.59,-585.88 1048.62,-592.88"/>
</g>
<!-- Node32&#45;&gt;Node12 -->
<g id="edge58" class="edge">
<title>Node32&#45;&gt;Node12</title>
<path fill="none" stroke="midnightblue" d="M315.07,-229.69C324.22,-273.91 364.95,-447.24 459,-550.17 617.42,-723.58 728.37,-674.8 958,-724.17 992.61,-731.62 1031.27,-741.79 1060.54,-749.88"/>
<polygon fill="midnightblue" stroke="midnightblue" points="1059.9,-753.34 1070.48,-752.65 1061.78,-746.6 1059.9,-753.34"/>
</g>
<!-- Node32&#45;&gt;Node21 -->
<g id="edge56" class="edge">
<title>Node32&#45;&gt;Node21</title>
<path fill="none" stroke="midnightblue" d="M383.03,-210.37C502.35,-197.28 752.15,-178.28 958,-218.17 1001.78,-226.66 1049.01,-247.96 1078.29,-262.75"/>
<polygon fill="midnightblue" stroke="midnightblue" points="1077.01,-266.03 1087.5,-267.49 1080.21,-259.8 1077.01,-266.03"/>
</g>
<!-- Node32&#45;&gt;Node26 -->
<g id="edge59" class="edge">
<title>Node32&#45;&gt;Node26</title>
<path fill="none" stroke="midnightblue" d="M325.79,-208.44C350.14,-188.52 405.54,-145.74 459,-122.17 556.65,-79.13 586.08,-77.16 692,-64.17 809.34,-49.79 844.67,-30.53 958,-64.17 1010.33,-79.71 1061.47,-120.08 1088.09,-143.55"/>
<polygon fill="midnightblue" stroke="midnightblue" points="1086.07,-146.44 1095.84,-150.52 1090.75,-141.23 1086.07,-146.44"/>
</g>
<!-- Node32&#45;&gt;Node27 -->
<g id="edge57" class="edge">
<title>Node32&#45;&gt;Node27</title>
<path fill="none" stroke="midnightblue" d="M383.25,-221.79C474.1,-225.16 632.52,-231.06 732.64,-234.78"/>
<polygon fill="midnightblue" stroke="midnightblue" points="732.62,-238.28 742.74,-235.15 732.88,-231.28 732.62,-238.28"/>
</g>
<!-- Node33 -->
<g id="node33" class="node">
<title>Node33</title>
<g id="a_node33"><a xlink:href="../../d2/dd9/namespacepahm__mesh.html#af53257d02ceb6ebe4349de40187496d6" target="_top" xlink:title="Reads the ADCIRC fort.14 mesh file.">
<polygon fill="white" stroke="black" points="459,-131.67 459,-152.67 656,-152.67 656,-131.67 459,-131.67"/>
<text text-anchor="middle" x="557.5" y="-139.07" font-family="Helvetica,sans-Serif" font-size="12.00">pahm_mesh::readmeshasciifort14</text>
</a>
</g>
</g>
<!-- Node32&#45;&gt;Node33 -->
<g id="edge52" class="edge">
<title>Node32&#45;&gt;Node33</title>
<path fill="none" stroke="midnightblue" d="M346.35,-208.63C389.76,-194.9 465.7,-170.89 513.43,-155.79"/>
<polygon fill="midnightblue" stroke="midnightblue" points="514.69,-159.07 523.17,-152.72 512.58,-152.39 514.69,-159.07"/>
</g>
<!-- Node33&#45;&gt;Node21 -->
<g id="edge55" class="edge">
<title>Node33&#45;&gt;Node21</title>
<path fill="none" stroke="midnightblue" d="M656.39,-140.61C738.94,-142.12 859.1,-151.01 958,-185.17 1008.19,-202.51 1059.05,-239.3 1086.44,-261.05"/>
<polygon fill="midnightblue" stroke="midnightblue" points="1084.5,-263.98 1094.48,-267.54 1088.9,-258.54 1084.5,-263.98"/>
</g>
<!-- Node33&#45;&gt;Node25 -->
<g id="edge54" class="edge">
<title>Node33&#45;&gt;Node25</title>
<path fill="none" stroke="midnightblue" d="M566.87,-152.7C586.13,-176.1 636.26,-232.42 692,-258.17 708.18,-265.65 726.55,-270.44 744.34,-273.48"/>
<polygon fill="midnightblue" stroke="midnightblue" points="744.31,-277.02 754.72,-275.08 745.37,-270.1 744.31,-277.02"/>
</g>
<!-- Node34 -->
<g id="node34" class="node">
<title>Node34</title>
<g id="a_node34"><a xlink:href="../../d2/dd9/namespacepahm__mesh.html#a3ac2350cf2b06f708810684f67950e69" target="_top" xlink:title="Allocates memory to mesh arrays.">
<polygon fill="white" stroke="black" points="692,-73.67 692,-94.67 958,-94.67 958,-73.67 692,-73.67"/>
<text text-anchor="middle" x="825" y="-81.07" font-family="Helvetica,sans-Serif" font-size="12.00">pahm_mesh::allocatenodalandelementalarrays</text>
</a>
</g>
</g>
<!-- Node33&#45;&gt;Node34 -->
<g id="edge53" class="edge">
<title>Node33&#45;&gt;Node34</title>
<path fill="none" stroke="midnightblue" d="M598.67,-131.63C625.11,-124.84 660.51,-116.04 692,-109.17 712.27,-104.75 734.4,-100.38 754.64,-96.57"/>
<polygon fill="midnightblue" stroke="midnightblue" points="755.53,-99.96 764.72,-94.68 754.25,-93.08 755.53,-99.96"/>
</g>
</g>
</svg>
        <g id="navigator" transform="translate(0 0)" fill="#404254">
                <rect fill="#f2f5e9" fill-opacity="0.5" stroke="#606060" stroke-width=".5" x="0" y="0" width="60" height="60"/>
                <use id="zoomplus" xlink:href="#zoomPlus" x="17" y="9" onmousedown="handleZoom(evt,'in')"/>
                <use id="zoomminus" xlink:href="#zoomMin" x="42" y="9" onmousedown="handleZoom(evt,'out')"/>
                <use id="reset" xlink:href="#resetDef" x="30" y="36" onmousedown="handleReset()"/>
                <g id="arrowUp" xlink:href="#dirArrow" transform="translate(30 24)" onmousedown="handlePan(0,-1)">
                  <use xlink:href="#rim" fill="#404040">
                        <set attributeName="fill" to="#808080" begin="arrowUp.mouseover" end="arrowUp.mouseout"/>
                  </use>
                  <path fill="none" stroke="white" stroke-width="1.5" d="M0,-3.0v7 M-2.5,-0.5L0,-3.0L2.5,-0.5"/>
                </g>
                <g id="arrowRight" xlink:href="#dirArrow" transform="rotate(90) translate(36 -43)" onmousedown="handlePan(1,0)">
                  <use xlink:href="#rim" fill="#404040">
                        <set attributeName="fill" to="#808080" begin="arrowRight.mouseover" end="arrowRight.mouseout"/>
                  </use>
                  <path fill="none" stroke="white" stroke-width="1.5" d="M0,-3.0v7 M-2.5,-0.5L0,-3.0L2.5,-0.5"/>
                </g>
                <g id="arrowDown" xlink:href="#dirArrow" transform="rotate(180) translate(-30 -48)" onmousedown="handlePan(0,1)">
                  <use xlink:href="#rim" fill="#404040">
                        <set attributeName="fill" to="#808080" begin="arrowDown.mouseover" end="arrowDown.mouseout"/>
                  </use>
                  <path fill="none" stroke="white" stroke-width="1.5" d="M0,-3.0v7 M-2.5,-0.5L0,-3.0L2.5,-0.5"/>
                </g>
                <g id="arrowLeft" xlink:href="#dirArrow" transform="rotate(270) translate(-36 17)" onmousedown="handlePan(-1,0)">
                  <use xlink:href="#rim" fill="#404040">
                        <set attributeName="fill" to="#808080" begin="arrowLeft.mouseover" end="arrowLeft.mouseout"/>
                  </use>
                  <path fill="none" stroke="white" stroke-width="1.5" d="M0,-3.0v7 M-2.5,-0.5L0,-3.0L2.5,-0.5"/>
                </g>
        </g>
        <svg viewBox="0 0 15 15" width="100%" height="30px" preserveAspectRatio="xMaxYMin meet">
         <g id="arrow_out" transform="scale(0.3 0.3)">
          <a xlink:href="namespacepahm__drivermod_ae0d4b223a96ba116b38152caf6b0768c_cgraph_org.svg" target="_base">
           <rect id="button" ry="5" rx="5" y="6" x="6" height="38" width="38"
                fill="#f2f5e9" fill-opacity="0.5" stroke="#606060" stroke-width="1.0"/>
           <path id="arrow"
             d="M 11.500037,31.436501 C 11.940474,20.09759 22.043105,11.32322 32.158766,21.979434 L 37.068811,17.246167 C 37.068811,17.246167 37.088388,32 37.088388,32 L 22.160133,31.978069 C 22.160133,31.978069 26.997745,27.140456 26.997745,27.140456 C 18.528582,18.264221 13.291696,25.230495 11.500037,31.436501 z"
             style="fill:#404040;"/>
          </a>
         </g>
        </svg>
</svg>
