<?xml version="1.0" encoding="UTF-8" standalone="no"?>
<!DOCTYPE svg PUBLIC "-//W3C//DTD SVG 1.1//EN"
 "http://www.w3.org/Graphics/SVG/1.1/DTD/svg11.dtd">
<!-- Generated by graphviz version 2.42.4 (0)
 -->
<!-- Title: pahm_messages::terminate Pages: 1 -->
<svg width="650pt" height="217pt"
 viewBox="0.00 0.00 650.00 216.50" xmlns="http://www.w3.org/2000/svg" xmlns:xlink="http://www.w3.org/1999/xlink">
<g id="graph0" class="graph" transform="scale(1 1) rotate(0) translate(4 212.5)">
<title>pahm_messages::terminate</title>
<polygon fill="white" stroke="transparent" points="-4,4 -4,-212.5 646,-212.5 646,4 -4,4"/>
<!-- Node1 -->
<g id="node1" class="node">
<title>Node1</title>
<g id="a_node1"><a xlink:title="Terminates the calling program when a fatal error is encountered.">
<polygon fill="#bfbfbf" stroke="black" points="478,-107 478,-128 642,-128 642,-107 478,-107"/>
<text text-anchor="middle" x="560" y="-114.4" font-family="Helvetica,sans-Serif" font-size="12.00">pahm_messages::terminate</text>
</a>
</g>
</g>
<!-- Node2 -->
<g id="node2" class="node">
<title>Node2</title>
<g id="a_node2"><a xlink:href="../../d3/d46/namespacecsv__module.html#a95642923259cb41370798af573c1babc" target="_top" xlink:title="Reads a CSV file.">
<polygon fill="white" stroke="black" points="284,-187 284,-208 442,-208 442,-187 284,-187"/>
<text text-anchor="middle" x="363" y="-194.4" font-family="Helvetica,sans-Serif" font-size="12.00">csv_module::read_csv_file</text>
</a>
</g>
</g>
<!-- Node1&#45;&gt;Node2 -->
<g id="edge1" class="edge">
<title>Node1&#45;&gt;Node2</title>
<path fill="none" stroke="midnightblue" d="M532.44,-133.29C509.22,-146.56 474.27,-165.26 442,-177.5 432.46,-181.12 422.02,-184.3 411.96,-187"/>
<polygon fill="midnightblue" stroke="midnightblue" points="534.43,-136.18 541.33,-128.14 530.93,-130.12 534.43,-136.18"/>
</g>
<!-- Node3 -->
<g id="node3" class="node">
<title>Node3</title>
<g id="a_node3"><a xlink:href="../../d9/d41/namespaceparwind.html#abae6c098afd2135918a478b6b7b20673" target="_top" xlink:title="Subroutine to read all a&#45;deck/b&#45;deck best track files (ATCF format).">
<polygon fill="white" stroke="black" points="285.5,-147 285.5,-168 440.5,-168 440.5,-147 285.5,-147"/>
<text text-anchor="middle" x="363" y="-154.4" font-family="Helvetica,sans-Serif" font-size="12.00">parwind::readbesttrackfile</text>
</a>
</g>
</g>
<!-- Node1&#45;&gt;Node3 -->
<g id="edge2" class="edge">
<title>Node1&#45;&gt;Node3</title>
<path fill="none" stroke="midnightblue" d="M497.82,-130.05C471.28,-135.49 440.54,-141.8 415.23,-146.99"/>
<polygon fill="midnightblue" stroke="midnightblue" points="498.67,-133.45 507.77,-128.01 497.27,-126.59 498.67,-133.45"/>
</g>
<!-- Node6 -->
<g id="node6" class="node">
<title>Node6</title>
<g id="a_node6"><a xlink:href="../../d2/dd9/namespacepahm__mesh.html#a6fd7801e4cbacfd2a7ce61c0fb31073c" target="_top" xlink:title="Reads an input mesh file for the specified supported model type.">
<polygon fill="white" stroke="black" points="292,-107 292,-128 434,-128 434,-107 292,-107"/>
<text text-anchor="middle" x="363" y="-114.4" font-family="Helvetica,sans-Serif" font-size="12.00">pahm_mesh::readmesh</text>
</a>
</g>
</g>
<!-- Node1&#45;&gt;Node6 -->
<g id="edge5" class="edge">
<title>Node1&#45;&gt;Node6</title>
<path fill="none" stroke="midnightblue" d="M467.7,-117.5C456.44,-117.5 445.07,-117.5 434.19,-117.5"/>
<polygon fill="midnightblue" stroke="midnightblue" points="468,-121 478,-117.5 468,-114 468,-121"/>
</g>
<!-- Node7 -->
<g id="node7" class="node">
<title>Node7</title>
<g id="a_node7"><a xlink:href="../../d7/d92/interfacetimedateutils_1_1timeconv.html#a2f5f511b312d9f4b1bed33ecb8567b86" target="_top" xlink:title="Convert time from year, month, day, hour, min, sec into seconds since the reference date of the simul...">
<polygon fill="white" stroke="black" points="294,-53.5 294,-87.5 432,-87.5 432,-53.5 294,-53.5"/>
<text text-anchor="start" x="302" y="-73.9" font-family="Helvetica,sans-Serif" font-size="12.00">timedateutils::timeconv</text>
<text text-anchor="middle" x="363" y="-60.9" font-family="Helvetica,sans-Serif" font-size="12.00">::timeconvisec</text>
</a>
</g>
</g>
<!-- Node1&#45;&gt;Node7 -->
<g id="edge7" class="edge">
<title>Node1&#45;&gt;Node7</title>
<path fill="none" stroke="midnightblue" d="M505.47,-104.6C482.81,-99.14 456.15,-92.71 432.12,-86.92"/>
<polygon fill="midnightblue" stroke="midnightblue" points="504.7,-108.01 515.24,-106.95 506.34,-101.21 504.7,-108.01"/>
</g>
<!-- Node8 -->
<g id="node8" class="node">
<title>Node8</title>
<g id="a_node8"><a xlink:href="../../d7/d92/interfacetimedateutils_1_1timeconv.html#a03e2abbe51f02a02624986a3d49ec192" target="_top" xlink:title="Convert time from year, month, day, hour, min, sec into seconds since the reference date of the simul...">
<polygon fill="white" stroke="black" points="294,-0.5 294,-34.5 432,-34.5 432,-0.5 294,-0.5"/>
<text text-anchor="start" x="302" y="-20.9" font-family="Helvetica,sans-Serif" font-size="12.00">timedateutils::timeconv</text>
<text text-anchor="middle" x="363" y="-7.9" font-family="Helvetica,sans-Serif" font-size="12.00">::timeconvrsec</text>
</a>
</g>
</g>
<!-- Node1&#45;&gt;Node8 -->
<g id="edge8" class="edge">
<title>Node1&#45;&gt;Node8</title>
<path fill="none" stroke="midnightblue" d="M536.09,-101.04C513.12,-85.06 476.33,-60.9 442,-44.5 434.5,-40.92 426.39,-37.57 418.34,-34.54"/>
<polygon fill="midnightblue" stroke="midnightblue" points="534.28,-104.04 544.47,-106.93 538.3,-98.31 534.28,-104.04"/>
</g>
<!-- Node4 -->
<g id="node4" class="node">
<title>Node4</title>
<g id="a_node4"><a xlink:href="../../de/d07/namespacepahm__drivermod.html#ae0d4b223a96ba116b38152caf6b0768c" target="_top" xlink:title="Subroutine to initialize a PaHM run.">
<polygon fill="white" stroke="black" points="83,-127 83,-148 248,-148 248,-127 83,-127"/>
<text text-anchor="middle" x="165.5" y="-134.4" font-family="Helvetica,sans-Serif" font-size="12.00">pahm_drivermod::pahm_init</text>
</a>
</g>
</g>
<!-- Node3&#45;&gt;Node4 -->
<g id="edge3" class="edge">
<title>Node3&#45;&gt;Node4</title>
<path fill="none" stroke="midnightblue" d="M275.2,-148.62C266.21,-147.7 257.08,-146.77 248.14,-145.85"/>
<polygon fill="midnightblue" stroke="midnightblue" points="274.99,-152.12 285.29,-149.65 275.7,-145.15 274.99,-152.12"/>
</g>
<!-- Node5 -->
<g id="node5" class="node">
<title>Node5</title>
<g id="a_node5"><a xlink:href="../../d9/d8a/pahm_8F90.html#a3d3918f5c5f1ac0a7991a7a78f530f30" target="_top" xlink:title=" ">
<polygon fill="white" stroke="black" points="0,-127 0,-148 47,-148 47,-127 0,-127"/>
<text text-anchor="middle" x="23.5" y="-134.4" font-family="Helvetica,sans-Serif" font-size="12.00">pahm</text>
</a>
</g>
</g>
<!-- Node4&#45;&gt;Node5 -->
<g id="edge4" class="edge">
<title>Node4&#45;&gt;Node5</title>
<path fill="none" stroke="midnightblue" d="M72.42,-137.5C63.15,-137.5 54.47,-137.5 47.1,-137.5"/>
<polygon fill="midnightblue" stroke="midnightblue" points="72.66,-141 82.66,-137.5 72.66,-134 72.66,-141"/>
</g>
<!-- Node6&#45;&gt;Node4 -->
<g id="edge6" class="edge">
<title>Node6&#45;&gt;Node4</title>
<path fill="none" stroke="midnightblue" d="M281.83,-125.7C270.68,-126.84 259.21,-128.02 248.03,-129.16"/>
<polygon fill="midnightblue" stroke="midnightblue" points="282.38,-129.16 291.97,-124.66 281.67,-122.2 282.38,-129.16"/>
</g>
</g>
</svg>
