<?xml version="1.0" encoding="UTF-8" standalone="no"?>
<!DOCTYPE svg PUBLIC "-//W3C//DTD SVG 1.1//EN"
 "http://www.w3.org/Graphics/SVG/1.1/DTD/svg11.dtd">
<!-- Generated by graphviz version 2.42.4 (0)
 -->
<!-- Title: csv_utilities::unique Pages: 1 -->
<svg width="636pt" height="96pt"
 viewBox="0.00 0.00 636.00 96.00" xmlns="http://www.w3.org/2000/svg" xmlns:xlink="http://www.w3.org/1999/xlink">
<g id="graph0" class="graph" transform="scale(1 1) rotate(0) translate(4 92)">
<title>csv_utilities::unique</title>
<polygon fill="white" stroke="transparent" points="-4,4 -4,-92 632,-92 632,4 -4,4"/>
<!-- Node1 -->
<g id="node1" class="node">
<title>Node1</title>
<g id="a_node1"><a xlink:title="Finds the unique elements in a vector of integers.">
<polygon fill="#bfbfbf" stroke="black" points="0,-33 0,-54 122,-54 122,-33 0,-33"/>
<text text-anchor="middle" x="61" y="-40.4" font-family="Helvetica,sans-Serif" font-size="12.00">csv_utilities::unique</text>
</a>
</g>
</g>
<!-- Node2 -->
<g id="node2" class="node">
<title>Node2</title>
<g id="a_node2"><a xlink:href="../../dc/d33/namespacecsv__utilities.html#a6e82721fc2fc96ab10ca4a32547e1c88" target="_top" xlink:title="Add elements to the integer vector in chunks.">
<polygon fill="white" stroke="black" points="158,-53.5 158,-87.5 282,-87.5 282,-53.5 158,-53.5"/>
<text text-anchor="start" x="166" y="-73.9" font-family="Helvetica,sans-Serif" font-size="12.00">csv_utilities::expand</text>
<text text-anchor="middle" x="220" y="-60.9" font-family="Helvetica,sans-Serif" font-size="12.00">_vector</text>
</a>
</g>
</g>
<!-- Node1&#45;&gt;Node2 -->
<g id="edge1" class="edge">
<title>Node1&#45;&gt;Node2</title>
<path fill="none" stroke="midnightblue" d="M122.25,-53.86C130.64,-55.3 139.33,-56.8 147.89,-58.27"/>
<polygon fill="midnightblue" stroke="midnightblue" points="147.42,-61.74 157.87,-59.99 148.61,-54.84 147.42,-61.74"/>
</g>
<!-- Node3 -->
<g id="node3" class="node">
<title>Node3</title>
<g id="a_node3"><a xlink:href="../../dc/d33/namespacecsv__utilities.html#a07f2d0f6e53440f20e140a6c90f8ab2f" target="_top" xlink:title="Sorts an integer array ivec in increasing order.">
<polygon fill="white" stroke="black" points="167.5,-0.5 167.5,-34.5 272.5,-34.5 272.5,-0.5 167.5,-0.5"/>
<text text-anchor="start" x="175.5" y="-20.9" font-family="Helvetica,sans-Serif" font-size="12.00">csv_utilities::sort</text>
<text text-anchor="middle" x="220" y="-7.9" font-family="Helvetica,sans-Serif" font-size="12.00">_ascending</text>
</a>
</g>
</g>
<!-- Node1&#45;&gt;Node3 -->
<g id="edge2" class="edge">
<title>Node1&#45;&gt;Node3</title>
<path fill="none" stroke="midnightblue" d="M122.25,-33.52C133.76,-31.62 145.81,-29.62 157.36,-27.71"/>
<polygon fill="midnightblue" stroke="midnightblue" points="158.05,-31.14 167.35,-26.05 156.91,-24.23 158.05,-31.14"/>
</g>
<!-- Node4 -->
<g id="node4" class="node">
<title>Node4</title>
<g id="a_node4"><a xlink:href="../../de/d72/csv__utilities_8F90.html#a8022107c14c4c90ad3e149f4d52aedb0" target="_top" xlink:title=" ">
<polygon fill="white" stroke="black" points="318,-7 318,-28 383,-28 383,-7 318,-7"/>
<text text-anchor="middle" x="350.5" y="-14.4" font-family="Helvetica,sans-Serif" font-size="12.00">quicksort</text>
</a>
</g>
</g>
<!-- Node3&#45;&gt;Node4 -->
<g id="edge3" class="edge">
<title>Node3&#45;&gt;Node4</title>
<path fill="none" stroke="midnightblue" d="M272.53,-17.5C284.29,-17.5 296.64,-17.5 307.92,-17.5"/>
<polygon fill="midnightblue" stroke="midnightblue" points="307.94,-21 317.94,-17.5 307.94,-14 307.94,-21"/>
</g>
<!-- Node4&#45;&gt;Node4 -->
<g id="edge6" class="edge">
<title>Node4&#45;&gt;Node4</title>
<path fill="none" stroke="midnightblue" d="M334.93,-28.21C328.27,-37.15 333.46,-46.5 350.5,-46.5 361.15,-46.5 367.17,-42.85 368.56,-37.93"/>
<polygon fill="midnightblue" stroke="midnightblue" points="371.94,-37.03 366.07,-28.21 365.16,-38.76 371.94,-37.03"/>
</g>
<!-- Node5 -->
<g id="node5" class="node">
<title>Node5</title>
<g id="a_node5"><a xlink:href="../../de/d72/csv__utilities_8F90.html#aa045c8b172bdcec2551ec610869f0391" target="_top" xlink:title=" ">
<polygon fill="white" stroke="black" points="419,-27 419,-48 479,-48 479,-27 419,-27"/>
<text text-anchor="middle" x="449" y="-34.4" font-family="Helvetica,sans-Serif" font-size="12.00">partition</text>
</a>
</g>
</g>
<!-- Node4&#45;&gt;Node5 -->
<g id="edge4" class="edge">
<title>Node4&#45;&gt;Node5</title>
<path fill="none" stroke="midnightblue" d="M383.1,-24.05C391.39,-25.77 400.44,-27.64 409.07,-29.43"/>
<polygon fill="midnightblue" stroke="midnightblue" points="408.44,-32.88 418.94,-31.48 409.86,-26.02 408.44,-32.88"/>
</g>
<!-- Node6 -->
<g id="node6" class="node">
<title>Node6</title>
<g id="a_node6"><a xlink:href="../../dc/d33/namespacecsv__utilities.html#ad5588bf7cfadb052191fa2d0c82265c8" target="_top" xlink:title="Swap two integer values.">
<polygon fill="white" stroke="black" points="515,-7 515,-28 628,-28 628,-7 515,-7"/>
<text text-anchor="middle" x="571.5" y="-14.4" font-family="Helvetica,sans-Serif" font-size="12.00">csv_utilities::swap</text>
</a>
</g>
</g>
<!-- Node4&#45;&gt;Node6 -->
<g id="edge7" class="edge">
<title>Node4&#45;&gt;Node6</title>
<path fill="none" stroke="midnightblue" d="M383.34,-17.5C414.99,-17.5 464.47,-17.5 504.61,-17.5"/>
<polygon fill="midnightblue" stroke="midnightblue" points="504.86,-21 514.86,-17.5 504.86,-14 504.86,-21"/>
</g>
<!-- Node5&#45;&gt;Node6 -->
<g id="edge5" class="edge">
<title>Node5&#45;&gt;Node6</title>
<path fill="none" stroke="midnightblue" d="M479.17,-32.66C486.96,-31.37 495.71,-29.91 504.63,-28.43"/>
<polygon fill="midnightblue" stroke="midnightblue" points="505.43,-31.85 514.72,-26.76 504.28,-24.94 505.43,-31.85"/>
</g>
</g>
</svg>
