<?xml version="1.0" encoding="UTF-8" standalone="no"?>
<!DOCTYPE svg PUBLIC "-//W3C//DTD SVG 1.1//EN"
 "http://www.w3.org/Graphics/SVG/1.1/DTD/svg11.dtd">
<!-- Generated by graphviz version 2.42.4 (0)
 -->
<!-- Title: csv_utilities::sort_ascending Pages: 1 -->
<svg width="459pt" height="57pt"
 viewBox="0.00 0.00 459.00 56.50" xmlns="http://www.w3.org/2000/svg" xmlns:xlink="http://www.w3.org/1999/xlink">
<g id="graph0" class="graph" transform="scale(1 1) rotate(0) translate(4 52.5)">
<title>csv_utilities::sort_ascending</title>
<polygon fill="white" stroke="transparent" points="-4,4 -4,-52.5 455,-52.5 455,4 -4,4"/>
<!-- Node1 -->
<g id="node1" class="node">
<title>Node1</title>
<g id="a_node1"><a xlink:title="Sorts an integer array ivec in increasing order.">
<polygon fill="#bfbfbf" stroke="black" points="0,-0.5 0,-34.5 105,-34.5 105,-0.5 0,-0.5"/>
<text text-anchor="start" x="8" y="-20.9" font-family="Helvetica,sans-Serif" font-size="12.00">csv_utilities::sort</text>
<text text-anchor="middle" x="52.5" y="-7.9" font-family="Helvetica,sans-Serif" font-size="12.00">_ascending</text>
</a>
</g>
</g>
<!-- Node2 -->
<g id="node2" class="node">
<title>Node2</title>
<g id="a_node2"><a xlink:href="../../de/d72/csv__utilities_8F90.html#a8022107c14c4c90ad3e149f4d52aedb0" target="_top" xlink:title=" ">
<polygon fill="white" stroke="black" points="141,-7 141,-28 206,-28 206,-7 141,-7"/>
<text text-anchor="middle" x="173.5" y="-14.4" font-family="Helvetica,sans-Serif" font-size="12.00">quicksort</text>
</a>
</g>
</g>
<!-- Node1&#45;&gt;Node2 -->
<g id="edge1" class="edge">
<title>Node1&#45;&gt;Node2</title>
<path fill="none" stroke="midnightblue" d="M105,-17.5C113.57,-17.5 122.36,-17.5 130.66,-17.5"/>
<polygon fill="midnightblue" stroke="midnightblue" points="130.83,-21 140.83,-17.5 130.83,-14 130.83,-21"/>
</g>
<!-- Node2&#45;&gt;Node2 -->
<g id="edge4" class="edge">
<title>Node2&#45;&gt;Node2</title>
<path fill="none" stroke="midnightblue" d="M157.93,-28.21C151.27,-37.15 156.46,-46.5 173.5,-46.5 184.15,-46.5 190.17,-42.85 191.56,-37.93"/>
<polygon fill="midnightblue" stroke="midnightblue" points="194.94,-37.03 189.07,-28.21 188.16,-38.76 194.94,-37.03"/>
</g>
<!-- Node3 -->
<g id="node3" class="node">
<title>Node3</title>
<g id="a_node3"><a xlink:href="../../de/d72/csv__utilities_8F90.html#aa045c8b172bdcec2551ec610869f0391" target="_top" xlink:title=" ">
<polygon fill="white" stroke="black" points="242,-27 242,-48 302,-48 302,-27 242,-27"/>
<text text-anchor="middle" x="272" y="-34.4" font-family="Helvetica,sans-Serif" font-size="12.00">partition</text>
</a>
</g>
</g>
<!-- Node2&#45;&gt;Node3 -->
<g id="edge2" class="edge">
<title>Node2&#45;&gt;Node3</title>
<path fill="none" stroke="midnightblue" d="M206.1,-24.05C214.39,-25.77 223.44,-27.64 232.07,-29.43"/>
<polygon fill="midnightblue" stroke="midnightblue" points="231.44,-32.88 241.94,-31.48 232.86,-26.02 231.44,-32.88"/>
</g>
<!-- Node4 -->
<g id="node4" class="node">
<title>Node4</title>
<g id="a_node4"><a xlink:href="../../dc/d33/namespacecsv__utilities.html#ad5588bf7cfadb052191fa2d0c82265c8" target="_top" xlink:title="Swap two integer values.">
<polygon fill="white" stroke="black" points="338,-7 338,-28 451,-28 451,-7 338,-7"/>
<text text-anchor="middle" x="394.5" y="-14.4" font-family="Helvetica,sans-Serif" font-size="12.00">csv_utilities::swap</text>
</a>
</g>
</g>
<!-- Node2&#45;&gt;Node4 -->
<g id="edge5" class="edge">
<title>Node2&#45;&gt;Node4</title>
<path fill="none" stroke="midnightblue" d="M206.34,-17.5C237.99,-17.5 287.47,-17.5 327.61,-17.5"/>
<polygon fill="midnightblue" stroke="midnightblue" points="327.86,-21 337.86,-17.5 327.86,-14 327.86,-21"/>
</g>
<!-- Node3&#45;&gt;Node4 -->
<g id="edge3" class="edge">
<title>Node3&#45;&gt;Node4</title>
<path fill="none" stroke="midnightblue" d="M302.17,-32.66C309.96,-31.37 318.71,-29.91 327.63,-28.43"/>
<polygon fill="midnightblue" stroke="midnightblue" points="328.43,-31.85 337.72,-26.76 327.28,-24.94 328.43,-31.85"/>
</g>
</g>
</svg>
