<?xml version="1.0" encoding="UTF-8" standalone="no"?>
<!DOCTYPE svg PUBLIC "-//W3C//DTD SVG 1.1//EN"
 "http://www.w3.org/Graphics/SVG/1.1/DTD/svg11.dtd">
<!-- Generated by graphviz version 2.42.4 (0)
 -->
<!-- Title: csv_utilities::swap Pages: 1 -->
<!--zoomable 57 -->
<svg id="main" version="1.1" xmlns="http://www.w3.org/2000/svg" xmlns:xlink="http://www.w3.org/1999/xlink" xml:space="preserve" onload="init(evt)">
<style type="text/css"><![CDATA[
.edge:hover path { stroke: red; }
.edge:hover polygon { stroke: red; fill: red; }
]]></style>
<script type="text/javascript"><![CDATA[
var edges = document.getElementsByTagName('g');
if (edges && edges.length) {
  for (var i=0;i<edges.length;i++) {
    if (edges[i].id.substr(0,4)=='edge') {
      edges[i].setAttribute('class','edge');
    }
  }
}
]]></script>
        <defs>
                <circle id="rim" cx="0" cy="0" r="7"/>
                <circle id="rim2" cx="0" cy="0" r="3.5"/>
                <g id="zoomPlus">
                        <use xlink:href="#rim" fill="#404040">
                                <set attributeName="fill" to="#808080" begin="zoomplus.mouseover" end="zoomplus.mouseout"/>
                        </use>
                        <path d="M-4,0h8M0,-4v8" fill="none" stroke="white" stroke-width="1.5" pointer-events="none"/>
                </g>
                <g id="zoomMin">
                        <use xlink:href="#rim" fill="#404040">
                                <set attributeName="fill" to="#808080" begin="zoomminus.mouseover" end="zoomminus.mouseout"/>
                        </use>
                        <path d="M-4,0h8" fill="none" stroke="white" stroke-width="1.5" pointer-events="none"/>
                </g>
                <g id="dirArrow">
                        <path fill="none" stroke="white" stroke-width="1.5" d="M0,-3.0v7 M-2.5,-0.5L0,-3.0L2.5,-0.5"/>
                </g>
               <g id="resetDef">
                       <use xlink:href="#rim2" fill="#404040">
                               <set attributeName="fill" to="#808080" begin="reset.mouseover" end="reset.mouseout"/>
                       </use>
               </g>
        </defs>

<script type="text/javascript">
var viewWidth = 811;
var viewHeight = 57;
var sectionId = 'dynsection-3';
</script>
<script xlink:href="../../svgpan.js"/>
<svg id="graph" class="graph">
<g id="viewport">
<title>csv_utilities::swap</title>
<polygon fill="white" stroke="transparent" points="-4,4 -4,-52.5 807,-52.5 807,4 -4,4"/>
<!-- Node1 -->
<g id="node1" class="node">
<title>Node1</title>
<g id="a_node1"><a xlink:title="Swap two integer values.">
<polygon fill="#bfbfbf" stroke="black" points="690,-7 690,-28 803,-28 803,-7 690,-7"/>
<text text-anchor="middle" x="746.5" y="-14.4" font-family="Helvetica,sans-Serif" font-size="12.00">csv_utilities::swap</text>
</a>
</g>
</g>
<!-- Node2 -->
<g id="node2" class="node">
<title>Node2</title>
<g id="a_node2"><a xlink:href="../../de/d72/csv__utilities_8F90.html#aa045c8b172bdcec2551ec610869f0391" target="_top" xlink:title=" ">
<polygon fill="white" stroke="black" points="594,-27 594,-48 654,-48 654,-27 594,-27"/>
<text text-anchor="middle" x="624" y="-34.4" font-family="Helvetica,sans-Serif" font-size="12.00">partition</text>
</a>
</g>
</g>
<!-- Node1&#45;&gt;Node2 -->
<g id="edge1" class="edge">
<title>Node1&#45;&gt;Node2</title>
<path fill="none" stroke="midnightblue" d="M679.7,-28.42C670.75,-29.91 661.97,-31.36 654.15,-32.66"/>
<polygon fill="midnightblue" stroke="midnightblue" points="680.54,-31.83 689.84,-26.74 679.4,-24.92 680.54,-31.83"/>
</g>
<!-- Node3 -->
<g id="node3" class="node">
<title>Node3</title>
<g id="a_node3"><a xlink:href="../../de/d72/csv__utilities_8F90.html#a8022107c14c4c90ad3e149f4d52aedb0" target="_top" xlink:title=" ">
<polygon fill="white" stroke="black" points="493,-7 493,-28 558,-28 558,-7 493,-7"/>
<text text-anchor="middle" x="525.5" y="-14.4" font-family="Helvetica,sans-Serif" font-size="12.00">quicksort</text>
</a>
</g>
</g>
<!-- Node1&#45;&gt;Node3 -->
<g id="edge7" class="edge">
<title>Node1&#45;&gt;Node3</title>
<path fill="none" stroke="midnightblue" d="M679.94,-17.5C639.7,-17.5 589.97,-17.5 558.24,-17.5"/>
<polygon fill="midnightblue" stroke="midnightblue" points="679.95,-21 689.95,-17.5 679.95,-14 679.95,-21"/>
</g>
<!-- Node2&#45;&gt;Node3 -->
<g id="edge2" class="edge">
<title>Node2&#45;&gt;Node3</title>
<path fill="none" stroke="midnightblue" d="M583.73,-29.36C575.27,-27.61 566.44,-25.78 558.31,-24.09"/>
<polygon fill="midnightblue" stroke="midnightblue" points="583.28,-32.84 593.78,-31.45 584.7,-25.99 583.28,-32.84"/>
</g>
<!-- Node3&#45;&gt;Node3 -->
<g id="edge3" class="edge">
<title>Node3&#45;&gt;Node3</title>
<path fill="none" stroke="midnightblue" d="M543.56,-37.93C542.17,-42.85 536.15,-46.5 525.5,-46.5 508.46,-46.5 503.27,-37.15 509.93,-28.21"/>
<polygon fill="midnightblue" stroke="midnightblue" points="546.94,-37.03 541.07,-28.21 540.16,-38.76 546.94,-37.03"/>
</g>
<!-- Node4 -->
<g id="node4" class="node">
<title>Node4</title>
<g id="a_node4"><a xlink:href="../../dc/d33/namespacecsv__utilities.html#a07f2d0f6e53440f20e140a6c90f8ab2f" target="_top" xlink:title="Sorts an integer array ivec in increasing order.">
<polygon fill="white" stroke="black" points="352,-0.5 352,-34.5 457,-34.5 457,-0.5 352,-0.5"/>
<text text-anchor="start" x="360" y="-20.9" font-family="Helvetica,sans-Serif" font-size="12.00">csv_utilities::sort</text>
<text text-anchor="middle" x="404.5" y="-7.9" font-family="Helvetica,sans-Serif" font-size="12.00">_ascending</text>
</a>
</g>
</g>
<!-- Node3&#45;&gt;Node4 -->
<g id="edge4" class="edge">
<title>Node3&#45;&gt;Node4</title>
<path fill="none" stroke="midnightblue" d="M482.73,-17.5C474.42,-17.5 465.61,-17.5 457.02,-17.5"/>
<polygon fill="midnightblue" stroke="midnightblue" points="482.92,-21 492.92,-17.5 482.92,-14 482.92,-21"/>
</g>
<!-- Node5 -->
<g id="node5" class="node">
<title>Node5</title>
<g id="a_node5"><a xlink:href="../../dc/d33/namespacecsv__utilities.html#a6c1f008f2a5f0ec6727aa9627a9e7bc4" target="_top" xlink:title="Finds the unique elements in a vector of integers.">
<polygon fill="white" stroke="black" points="194,-7 194,-28 316,-28 316,-7 194,-7"/>
<text text-anchor="middle" x="255" y="-14.4" font-family="Helvetica,sans-Serif" font-size="12.00">csv_utilities::unique</text>
</a>
</g>
</g>
<!-- Node4&#45;&gt;Node5 -->
<g id="edge5" class="edge">
<title>Node4&#45;&gt;Node5</title>
<path fill="none" stroke="midnightblue" d="M341.73,-17.5C333.27,-17.5 324.59,-17.5 316.16,-17.5"/>
<polygon fill="midnightblue" stroke="midnightblue" points="341.91,-21 351.91,-17.5 341.91,-14 341.91,-21"/>
</g>
<!-- Node6 -->
<g id="node6" class="node">
<title>Node6</title>
<g id="a_node6"><a xlink:href="../../d3/d46/namespacecsv__module.html#a95642923259cb41370798af573c1babc" target="_top" xlink:title="Reads a CSV file.">
<polygon fill="white" stroke="black" points="0,-7 0,-28 158,-28 158,-7 0,-7"/>
<text text-anchor="middle" x="79" y="-14.4" font-family="Helvetica,sans-Serif" font-size="12.00">csv_module::read_csv_file</text>
</a>
</g>
</g>
<!-- Node5&#45;&gt;Node6 -->
<g id="edge6" class="edge">
<title>Node5&#45;&gt;Node6</title>
<path fill="none" stroke="midnightblue" d="M183.52,-17.5C175.13,-17.5 166.53,-17.5 158.04,-17.5"/>
<polygon fill="midnightblue" stroke="midnightblue" points="183.63,-21 193.63,-17.5 183.63,-14 183.63,-21"/>
</g>
</g>
</svg>
        <g id="navigator" transform="translate(0 0)" fill="#404254">
                <rect fill="#f2f5e9" fill-opacity="0.5" stroke="#606060" stroke-width=".5" x="0" y="0" width="60" height="60"/>
                <use id="zoomplus" xlink:href="#zoomPlus" x="17" y="9" onmousedown="handleZoom(evt,'in')"/>
                <use id="zoomminus" xlink:href="#zoomMin" x="42" y="9" onmousedown="handleZoom(evt,'out')"/>
                <use id="reset" xlink:href="#resetDef" x="30" y="36" onmousedown="handleReset()"/>
                <g id="arrowUp" xlink:href="#dirArrow" transform="translate(30 24)" onmousedown="handlePan(0,-1)">
                  <use xlink:href="#rim" fill="#404040">
                        <set attributeName="fill" to="#808080" begin="arrowUp.mouseover" end="arrowUp.mouseout"/>
                  </use>
                  <path fill="none" stroke="white" stroke-width="1.5" d="M0,-3.0v7 M-2.5,-0.5L0,-3.0L2.5,-0.5"/>
                </g>
                <g id="arrowRight" xlink:href="#dirArrow" transform="rotate(90) translate(36 -43)" onmousedown="handlePan(1,0)">
                  <use xlink:href="#rim" fill="#404040">
                        <set attributeName="fill" to="#808080" begin="arrowRight.mouseover" end="arrowRight.mouseout"/>
                  </use>
                  <path fill="none" stroke="white" stroke-width="1.5" d="M0,-3.0v7 M-2.5,-0.5L0,-3.0L2.5,-0.5"/>
                </g>
                <g id="arrowDown" xlink:href="#dirArrow" transform="rotate(180) translate(-30 -48)" onmousedown="handlePan(0,1)">
                  <use xlink:href="#rim" fill="#404040">
                        <set attributeName="fill" to="#808080" begin="arrowDown.mouseover" end="arrowDown.mouseout"/>
                  </use>
                  <path fill="none" stroke="white" stroke-width="1.5" d="M0,-3.0v7 M-2.5,-0.5L0,-3.0L2.5,-0.5"/>
                </g>
                <g id="arrowLeft" xlink:href="#dirArrow" transform="rotate(270) translate(-36 17)" onmousedown="handlePan(-1,0)">
                  <use xlink:href="#rim" fill="#404040">
                        <set attributeName="fill" to="#808080" begin="arrowLeft.mouseover" end="arrowLeft.mouseout"/>
                  </use>
                  <path fill="none" stroke="white" stroke-width="1.5" d="M0,-3.0v7 M-2.5,-0.5L0,-3.0L2.5,-0.5"/>
                </g>
        </g>
        <svg viewBox="0 0 15 15" width="100%" height="30px" preserveAspectRatio="xMaxYMin meet">
         <g id="arrow_out" transform="scale(0.3 0.3)">
          <a xlink:href="namespacecsv__utilities_ad5588bf7cfadb052191fa2d0c82265c8_icgraph_org.svg" target="_base">
           <rect id="button" ry="5" rx="5" y="6" x="6" height="38" width="38"
                fill="#f2f5e9" fill-opacity="0.5" stroke="#606060" stroke-width="1.0"/>
           <path id="arrow"
             d="M 11.500037,31.436501 C 11.940474,20.09759 22.043105,11.32322 32.158766,21.979434 L 37.068811,17.246167 C 37.068811,17.246167 37.088388,32 37.088388,32 L 22.160133,31.978069 C 22.160133,31.978069 26.997745,27.140456 26.997745,27.140456 C 18.528582,18.264221 13.291696,25.230495 11.500037,31.436501 z"
             style="fill:#404040;"/>
          </a>
         </g>
        </svg>
</svg>
