<?xml version="1.0" encoding="UTF-8" standalone="no"?>
<!DOCTYPE svg PUBLIC "-//W3C//DTD SVG 1.1//EN"
 "http://www.w3.org/Graphics/SVG/1.1/DTD/svg11.dtd">
<!-- Generated by graphviz version 2.42.4 (0)
 -->
<!-- Title: quicksort Pages: 1 -->
<svg width="318pt" height="50pt"
 viewBox="0.00 0.00 318.00 50.00" xmlns="http://www.w3.org/2000/svg" xmlns:xlink="http://www.w3.org/1999/xlink">
<g id="graph0" class="graph" transform="scale(1 1) rotate(0) translate(4 46)">
<title>quicksort</title>
<polygon fill="white" stroke="transparent" points="-4,4 -4,-46 314,-46 314,4 -4,4"/>
<!-- Node1 -->
<g id="node1" class="node">
<title>Node1</title>
<g id="a_node1"><a xlink:title=" ">
<polygon fill="#bfbfbf" stroke="black" points="0,-0.5 0,-21.5 65,-21.5 65,-0.5 0,-0.5"/>
<text text-anchor="middle" x="32.5" y="-7.9" font-family="Helvetica,sans-Serif" font-size="12.00">quicksort</text>
</a>
</g>
</g>
<!-- Node1&#45;&gt;Node1 -->
<g id="edge3" class="edge">
<title>Node1&#45;&gt;Node1</title>
<path fill="none" stroke="midnightblue" d="M16.93,-21.71C10.27,-30.65 15.46,-40 32.5,-40 43.15,-40 49.17,-36.35 50.56,-31.43"/>
<polygon fill="midnightblue" stroke="midnightblue" points="53.94,-30.53 48.07,-21.71 47.16,-32.26 53.94,-30.53"/>
</g>
<!-- Node2 -->
<g id="node2" class="node">
<title>Node2</title>
<g id="a_node2"><a xlink:href="../../de/d72/csv__utilities_8F90.html#aa045c8b172bdcec2551ec610869f0391" target="_top" xlink:title=" ">
<polygon fill="white" stroke="black" points="101,-20.5 101,-41.5 161,-41.5 161,-20.5 101,-20.5"/>
<text text-anchor="middle" x="131" y="-27.9" font-family="Helvetica,sans-Serif" font-size="12.00">partition</text>
</a>
</g>
</g>
<!-- Node1&#45;&gt;Node2 -->
<g id="edge1" class="edge">
<title>Node1&#45;&gt;Node2</title>
<path fill="none" stroke="midnightblue" d="M65.1,-17.55C73.39,-19.27 82.44,-21.14 91.07,-22.93"/>
<polygon fill="midnightblue" stroke="midnightblue" points="90.44,-26.38 100.94,-24.98 91.86,-19.52 90.44,-26.38"/>
</g>
<!-- Node3 -->
<g id="node3" class="node">
<title>Node3</title>
<g id="a_node3"><a xlink:href="../../dc/d33/namespacecsv__utilities.html#ad5588bf7cfadb052191fa2d0c82265c8" target="_top" xlink:title="Swap two integer values.">
<polygon fill="white" stroke="black" points="197,-0.5 197,-21.5 310,-21.5 310,-0.5 197,-0.5"/>
<text text-anchor="middle" x="253.5" y="-7.9" font-family="Helvetica,sans-Serif" font-size="12.00">csv_utilities::swap</text>
</a>
</g>
</g>
<!-- Node1&#45;&gt;Node3 -->
<g id="edge4" class="edge">
<title>Node1&#45;&gt;Node3</title>
<path fill="none" stroke="midnightblue" d="M65.34,-11C96.99,-11 146.47,-11 186.61,-11"/>
<polygon fill="midnightblue" stroke="midnightblue" points="186.86,-14.5 196.86,-11 186.86,-7.5 186.86,-14.5"/>
</g>
<!-- Node2&#45;&gt;Node3 -->
<g id="edge2" class="edge">
<title>Node2&#45;&gt;Node3</title>
<path fill="none" stroke="midnightblue" d="M161.17,-26.16C168.96,-24.87 177.71,-23.41 186.63,-21.93"/>
<polygon fill="midnightblue" stroke="midnightblue" points="187.43,-25.35 196.72,-20.26 186.28,-18.44 187.43,-25.35"/>
</g>
</g>
</svg>
