<?xml version="1.0" encoding="UTF-8" standalone="no"?>
<!DOCTYPE svg PUBLIC "-//W3C//DTD SVG 1.1//EN"
 "http://www.w3.org/Graphics/SVG/1.1/DTD/svg11.dtd">
<!-- Generated by graphviz version 2.42.4 (0)
 -->
<!-- Title: parwind::besttrackdata_t Pages: 1 -->
<svg width="156pt" height="202pt"
 viewBox="0.00 0.00 156.00 202.00" xmlns="http://www.w3.org/2000/svg" xmlns:xlink="http://www.w3.org/1999/xlink">
<g id="graph0" class="graph" transform="scale(1 1) rotate(0) translate(4 198)">
<title>parwind::besttrackdata_t</title>
<polygon fill="white" stroke="transparent" points="-4,4 -4,-198 152,-198 152,4 -4,4"/>
<!-- Node1 -->
<g id="node1" class="node">
<title>Node1</title>
<g id="a_node1"><a xlink:title=" ">
<polygon fill="#bfbfbf" stroke="black" points="0,-0.5 0,-193.5 148,-193.5 148,-0.5 0,-0.5"/>
<text text-anchor="middle" x="74" y="-179.9" font-family="Helvetica,sans-Serif" font-size="12.00">parwind::besttrackdata_t</text>
<polyline fill="none" stroke="black" points="0,-172.5 148,-172.5 "/>
<text text-anchor="start" x="8" y="-158.9" font-family="Helvetica,sans-Serif" font-size="12.00">+ filename</text>
<text text-anchor="start" x="8" y="-145.9" font-family="Helvetica,sans-Serif" font-size="12.00">+ thisstorm</text>
<text text-anchor="start" x="8" y="-132.9" font-family="Helvetica,sans-Serif" font-size="12.00">+ loaded</text>
<text text-anchor="start" x="8" y="-119.9" font-family="Helvetica,sans-Serif" font-size="12.00">+ numrec</text>
<text text-anchor="start" x="8" y="-106.9" font-family="Helvetica,sans-Serif" font-size="12.00">+ basin</text>
<text text-anchor="start" x="8" y="-93.9" font-family="Helvetica,sans-Serif" font-size="12.00">+ cynum</text>
<text text-anchor="start" x="8" y="-80.9" font-family="Helvetica,sans-Serif" font-size="12.00">+ dtg</text>
<text text-anchor="start" x="8" y="-67.9" font-family="Helvetica,sans-Serif" font-size="12.00">+ technum</text>
<text text-anchor="start" x="8" y="-54.9" font-family="Helvetica,sans-Serif" font-size="12.00">+ tech</text>
<text text-anchor="start" x="8" y="-41.9" font-family="Helvetica,sans-Serif" font-size="12.00">+ tau</text>
<text text-anchor="start" x="8" y="-28.9" font-family="Helvetica,sans-Serif" font-size="12.00">and 31 more...</text>
<polyline fill="none" stroke="black" points="0,-21.5 148,-21.5 "/>
<text text-anchor="middle" x="74" y="-7.9" font-family="Helvetica,sans-Serif" font-size="12.00"> </text>
</a>
</g>
</g>
</g>
</svg>
