<?xml version="1.0" encoding="UTF-8" standalone="no"?>
<!DOCTYPE svg PUBLIC "-//W3C//DTD SVG 1.1//EN"
 "http://www.w3.org/Graphics/SVG/1.1/DTD/svg11.dtd">
<!-- Generated by graphviz version 2.42.4 (0)
 -->
<!-- Title: pahm_netcdfio::writenetcdfrecord Pages: 1 -->
<svg width="465pt" height="110pt"
 viewBox="0.00 0.00 465.00 110.00" xmlns="http://www.w3.org/2000/svg" xmlns:xlink="http://www.w3.org/1999/xlink">
<g id="graph0" class="graph" transform="scale(1 1) rotate(0) translate(4 106)">
<title>pahm_netcdfio::writenetcdfrecord</title>
<polygon fill="white" stroke="transparent" points="-4,4 -4,-106 461,-106 461,4 -4,4"/>
<!-- Node1 -->
<g id="node1" class="node">
<title>Node1</title>
<g id="a_node1"><a xlink:title="Writes data to the NetCDF file.">
<polygon fill="#bfbfbf" stroke="black" points="0,-40.5 0,-61.5 193,-61.5 193,-40.5 0,-40.5"/>
<text text-anchor="middle" x="96.5" y="-47.9" font-family="Helvetica,sans-Serif" font-size="12.00">pahm_netcdfio::writenetcdfrecord</text>
</a>
</g>
</g>
<!-- Node2 -->
<g id="node2" class="node">
<title>Node2</title>
<g id="a_node2"><a xlink:href="../../d4/d19/namespacetimedateutils.html#a6c7acacb9981bb9182378a449e45715b" target="_top" xlink:title="Calculates the conversion factor between time units and seconds.">
<polygon fill="white" stroke="black" points="256,-80.5 256,-101.5 430,-101.5 430,-80.5 256,-80.5"/>
<text text-anchor="middle" x="343" y="-87.9" font-family="Helvetica,sans-Serif" font-size="12.00">timedateutils::gettimeconvsec</text>
</a>
</g>
</g>
<!-- Node1&#45;&gt;Node2 -->
<g id="edge1" class="edge">
<title>Node1&#45;&gt;Node2</title>
<path fill="none" stroke="midnightblue" d="M161.74,-61.51C194.18,-66.82 233.71,-73.28 267.48,-78.81"/>
<polygon fill="midnightblue" stroke="midnightblue" points="267.33,-82.33 277.77,-80.49 268.46,-75.42 267.33,-82.33"/>
</g>
<!-- Node3 -->
<g id="node3" class="node">
<title>Node3</title>
<g id="a_node3"><a xlink:href="../../d4/d3b/namespacepahm__messages.html#acf0c696cc1604842ee84a5df6d81179c" target="_top" xlink:title="Sets the name of the subroutine that is writing log and/or screen messages.">
<polygon fill="white" stroke="black" points="235.5,-40.5 235.5,-61.5 450.5,-61.5 450.5,-40.5 235.5,-40.5"/>
<text text-anchor="middle" x="343" y="-47.9" font-family="Helvetica,sans-Serif" font-size="12.00">pahm_messages::setmessagesource</text>
</a>
</g>
</g>
<!-- Node1&#45;&gt;Node3 -->
<g id="edge2" class="edge">
<title>Node1&#45;&gt;Node3</title>
<path fill="none" stroke="midnightblue" d="M193.08,-51C203.53,-51 214.26,-51 224.94,-51"/>
<polygon fill="midnightblue" stroke="midnightblue" points="225.15,-54.5 235.15,-51 225.15,-47.5 225.15,-54.5"/>
</g>
<!-- Node4 -->
<g id="node4" class="node">
<title>Node4</title>
<g id="a_node4"><a xlink:href="../../d4/d3b/namespacepahm__messages.html#ad35e9f2327aad65d4c669e3d886f54dc" target="_top" xlink:title="Removes the name of the subroutine that is no longer active.">
<polygon fill="white" stroke="black" points="229,-0.5 229,-21.5 457,-21.5 457,-0.5 229,-0.5"/>
<text text-anchor="middle" x="343" y="-7.9" font-family="Helvetica,sans-Serif" font-size="12.00">pahm_messages::unsetmessagesource</text>
</a>
</g>
</g>
<!-- Node1&#45;&gt;Node4 -->
<g id="edge3" class="edge">
<title>Node1&#45;&gt;Node4</title>
<path fill="none" stroke="midnightblue" d="M161.74,-40.49C194.18,-35.18 233.71,-28.72 267.48,-23.19"/>
<polygon fill="midnightblue" stroke="midnightblue" points="268.46,-26.58 277.77,-21.51 267.33,-19.67 268.46,-26.58"/>
</g>
</g>
</svg>
