<?xml version="1.0" encoding="UTF-8" standalone="no"?>
<!DOCTYPE svg PUBLIC "-//W3C//DTD SVG 1.1//EN"
 "http://www.w3.org/Graphics/SVG/1.1/DTD/svg11.dtd">
<!-- Generated by graphviz version 2.42.4 (0)
 -->
<!-- Title: timedateutils::splitdatetimestring::splitdatetimestring Pages: 1 -->
<svg width="628pt" height="70pt"
 viewBox="0.00 0.00 628.00 70.00" xmlns="http://www.w3.org/2000/svg" xmlns:xlink="http://www.w3.org/1999/xlink">
<g id="graph0" class="graph" transform="scale(1 1) rotate(0) translate(4 66)">
<title>timedateutils::splitdatetimestring::splitdatetimestring</title>
<polygon fill="white" stroke="transparent" points="-4,4 -4,-66 624,-66 624,4 -4,4"/>
<!-- Node1 -->
<g id="node1" class="node">
<title>Node1</title>
<g id="a_node1"><a xlink:title="Splits a date string into components.">
<polygon fill="#bfbfbf" stroke="black" points="0,-14 0,-48 187,-48 187,-14 0,-14"/>
<text text-anchor="start" x="8" y="-34.4" font-family="Helvetica,sans-Serif" font-size="12.00">timedateutils::splitdatetimestring</text>
<text text-anchor="middle" x="93.5" y="-21.4" font-family="Helvetica,sans-Serif" font-size="12.00">::splitdatetimestring</text>
</a>
</g>
</g>
<!-- Node2 -->
<g id="node2" class="node">
<title>Node2</title>
<g id="a_node2"><a xlink:href="namespacetimedateutils.html#a101cf9ce5907971b096d77575d8d249d" target="_top" xlink:title="Determines the days in the month of the year.">
<polygon fill="white" stroke="black" points="261,-40.5 261,-61.5 409,-61.5 409,-40.5 261,-40.5"/>
<text text-anchor="middle" x="335" y="-47.9" font-family="Helvetica,sans-Serif" font-size="12.00">timedateutils::monthdays</text>
</a>
</g>
</g>
<!-- Node1&#45;&gt;Node2 -->
<g id="edge1" class="edge">
<title>Node1&#45;&gt;Node2</title>
<path fill="none" stroke="midnightblue" d="M187.1,-38.73C208.14,-40.49 230.36,-42.35 250.97,-44.07"/>
<polygon fill="midnightblue" stroke="midnightblue" points="250.69,-47.56 260.95,-44.9 251.28,-40.58 250.69,-47.56"/>
</g>
<!-- Node4 -->
<g id="node4" class="node">
<title>Node4</title>
<g id="a_node4"><a xlink:href="namespacetimedateutils.html#a2561d57f398381d56d2fa94f5f9a1147" target="_top" xlink:title="Pre&#45;processes an arbitrary date string.">
<polygon fill="white" stroke="black" points="223,-0.5 223,-21.5 447,-21.5 447,-0.5 223,-0.5"/>
<text text-anchor="middle" x="335" y="-7.9" font-family="Helvetica,sans-Serif" font-size="12.00">timedateutils::preprocessdatetimestring</text>
</a>
</g>
</g>
<!-- Node1&#45;&gt;Node4 -->
<g id="edge3" class="edge">
<title>Node1&#45;&gt;Node4</title>
<path fill="none" stroke="midnightblue" d="M187.1,-23.27C195.52,-22.56 204.13,-21.85 212.75,-21.13"/>
<polygon fill="midnightblue" stroke="midnightblue" points="213.19,-24.6 222.86,-20.28 212.6,-17.63 213.19,-24.6"/>
</g>
<!-- Node3 -->
<g id="node3" class="node">
<title>Node3</title>
<g id="a_node3"><a xlink:href="namespacetimedateutils.html#ac0661d72fdf8161ad7d0b30d0dc57bd6" target="_top" xlink:title="Checks for a leap year.">
<polygon fill="white" stroke="black" points="483,-40.5 483,-61.5 620,-61.5 620,-40.5 483,-40.5"/>
<text text-anchor="middle" x="551.5" y="-47.9" font-family="Helvetica,sans-Serif" font-size="12.00">timedateutils::leapyear</text>
</a>
</g>
</g>
<!-- Node2&#45;&gt;Node3 -->
<g id="edge2" class="edge">
<title>Node2&#45;&gt;Node3</title>
<path fill="none" stroke="midnightblue" d="M409.22,-51C429.66,-51 451.94,-51 472.64,-51"/>
<polygon fill="midnightblue" stroke="midnightblue" points="472.66,-54.5 482.66,-51 472.66,-47.5 472.66,-54.5"/>
</g>
</g>
</svg>
