<?xml version="1.0" encoding="UTF-8" standalone="no"?>
<!DOCTYPE svg PUBLIC "-//W3C//DTD SVG 1.1//EN"
 "http://www.w3.org/Graphics/SVG/1.1/DTD/svg11.dtd">
<!-- Generated by graphviz version 2.42.4 (0)
 -->
<!-- Title: timedateutils::gregtojulday::gregtojuldayisec Pages: 1 -->
<svg width="336pt" height="70pt"
 viewBox="0.00 0.00 336.00 70.00" xmlns="http://www.w3.org/2000/svg" xmlns:xlink="http://www.w3.org/1999/xlink">
<g id="graph0" class="graph" transform="scale(1 1) rotate(0) translate(4 66)">
<title>timedateutils::gregtojulday::gregtojuldayisec</title>
<polygon fill="white" stroke="transparent" points="-4,4 -4,-66 332,-66 332,4 -4,4"/>
<!-- Node1 -->
<g id="node1" class="node">
<title>Node1</title>
<g id="a_node1"><a xlink:title="Determines the Julian date from a Gregorian date.">
<polygon fill="#bfbfbf" stroke="black" points="0,-14 0,-48 155,-48 155,-14 0,-14"/>
<text text-anchor="start" x="8" y="-34.4" font-family="Helvetica,sans-Serif" font-size="12.00">timedateutils::gregtojulday</text>
<text text-anchor="middle" x="77.5" y="-21.4" font-family="Helvetica,sans-Serif" font-size="12.00">::gregtojuldayisec</text>
</a>
</g>
</g>
<!-- Node2 -->
<g id="node2" class="node">
<title>Node2</title>
<g id="a_node2"><a xlink:href="namespacetimedateutils.html#a393203cc78370648d0dd392fe96d66ff" target="_top" xlink:title="Pre&#45;processes an arbitrary date string.">
<polygon fill="white" stroke="black" points="193,-40.5 193,-61.5 326,-61.5 326,-40.5 193,-40.5"/>
<text text-anchor="middle" x="259.5" y="-47.9" font-family="Helvetica,sans-Serif" font-size="12.00">timedateutils::joindate</text>
</a>
</g>
</g>
<!-- Node1&#45;&gt;Node2 -->
<g id="edge1" class="edge">
<title>Node1&#45;&gt;Node2</title>
<path fill="none" stroke="midnightblue" d="M155.1,-39.51C164.2,-40.52 173.5,-41.56 182.6,-42.57"/>
<polygon fill="midnightblue" stroke="midnightblue" points="182.44,-46.07 192.76,-43.7 183.21,-39.11 182.44,-46.07"/>
</g>
<!-- Node3 -->
<g id="node3" class="node">
<title>Node3</title>
<g id="a_node3"><a xlink:href="namespacetimedateutils.html#ac0661d72fdf8161ad7d0b30d0dc57bd6" target="_top" xlink:title="Checks for a leap year.">
<polygon fill="white" stroke="black" points="191,-0.5 191,-21.5 328,-21.5 328,-0.5 191,-0.5"/>
<text text-anchor="middle" x="259.5" y="-7.9" font-family="Helvetica,sans-Serif" font-size="12.00">timedateutils::leapyear</text>
</a>
</g>
</g>
<!-- Node1&#45;&gt;Node3 -->
<g id="edge2" class="edge">
<title>Node1&#45;&gt;Node3</title>
<path fill="none" stroke="midnightblue" d="M155.1,-22.49C163.53,-21.55 172.13,-20.6 180.58,-19.66"/>
<polygon fill="midnightblue" stroke="midnightblue" points="181.24,-23.11 190.8,-18.52 180.47,-16.15 181.24,-23.11"/>
</g>
</g>
</svg>
