<?xml version="1.0" encoding="UTF-8" standalone="no"?>
<!DOCTYPE svg PUBLIC "-//W3C//DTD SVG 1.1//EN"
 "http://www.w3.org/Graphics/SVG/1.1/DTD/svg11.dtd">
<!-- Generated by graphviz version 2.42.4 (0)
 -->
<!-- Title: sortutils::indexx::indexxint8 Pages: 1 -->
<svg width="377pt" height="110pt"
 viewBox="0.00 0.00 377.00 110.00" xmlns="http://www.w3.org/2000/svg" xmlns:xlink="http://www.w3.org/1999/xlink">
<g id="graph0" class="graph" transform="scale(1 1) rotate(0) translate(4 106)">
<title>sortutils::indexx::indexxint8</title>
<polygon fill="white" stroke="transparent" points="-4,4 -4,-106 373,-106 373,4 -4,4"/>
<!-- Node1 -->
<g id="node1" class="node">
<title>Node1</title>
<g id="a_node1"><a xlink:title="Indexes a 1D 32&#45;bit integer array in ascending order.">
<polygon fill="#bfbfbf" stroke="black" points="0,-34 0,-68 105,-68 105,-34 0,-34"/>
<text text-anchor="start" x="8" y="-54.4" font-family="Helvetica,sans-Serif" font-size="12.00">sortutils::indexx::</text>
<text text-anchor="middle" x="52.5" y="-41.4" font-family="Helvetica,sans-Serif" font-size="12.00">indexxint8</text>
</a>
</g>
</g>
<!-- Node2 -->
<g id="node2" class="node">
<title>Node2</title>
<g id="a_node2"><a xlink:href="sortutils_8F90.html#a9a84b5261a9e763169be70c29396d0fb" target="_top" xlink:title=" ">
<polygon fill="white" stroke="black" points="218,-80.5 218,-101.5 292,-101.5 292,-80.5 218,-80.5"/>
<text text-anchor="middle" x="255" y="-87.9" font-family="Helvetica,sans-Serif" font-size="12.00">icompxchg</text>
</a>
</g>
</g>
<!-- Node1&#45;&gt;Node2 -->
<g id="edge1" class="edge">
<title>Node1&#45;&gt;Node2</title>
<path fill="none" stroke="midnightblue" d="M105.23,-63.27C116.97,-65.93 129.39,-68.65 141,-71 162.88,-75.43 187.26,-79.82 207.76,-83.35"/>
<polygon fill="midnightblue" stroke="midnightblue" points="207.34,-86.83 217.78,-85.06 208.51,-79.93 207.34,-86.83"/>
</g>
<!-- Node3 -->
<g id="node3" class="node">
<title>Node3</title>
<g id="a_node3"><a xlink:href="namespacepahm__messages.html#acf0c696cc1604842ee84a5df6d81179c" target="_top" xlink:title="Sets the name of the subroutine that is writing log and/or screen messages.">
<polygon fill="white" stroke="black" points="147.5,-40.5 147.5,-61.5 362.5,-61.5 362.5,-40.5 147.5,-40.5"/>
<text text-anchor="middle" x="255" y="-47.9" font-family="Helvetica,sans-Serif" font-size="12.00">pahm_messages::setmessagesource</text>
</a>
</g>
</g>
<!-- Node1&#45;&gt;Node3 -->
<g id="edge2" class="edge">
<title>Node1&#45;&gt;Node3</title>
<path fill="none" stroke="midnightblue" d="M105.13,-51C115.08,-51 125.88,-51 136.95,-51"/>
<polygon fill="midnightblue" stroke="midnightblue" points="137.18,-54.5 147.18,-51 137.18,-47.5 137.18,-54.5"/>
</g>
<!-- Node4 -->
<g id="node4" class="node">
<title>Node4</title>
<g id="a_node4"><a xlink:href="namespacepahm__messages.html#ad35e9f2327aad65d4c669e3d886f54dc" target="_top" xlink:title="Removes the name of the subroutine that is no longer active.">
<polygon fill="white" stroke="black" points="141,-0.5 141,-21.5 369,-21.5 369,-0.5 141,-0.5"/>
<text text-anchor="middle" x="255" y="-7.9" font-family="Helvetica,sans-Serif" font-size="12.00">pahm_messages::unsetmessagesource</text>
</a>
</g>
</g>
<!-- Node1&#45;&gt;Node4 -->
<g id="edge3" class="edge">
<title>Node1&#45;&gt;Node4</title>
<path fill="none" stroke="midnightblue" d="M105.23,-38.73C116.97,-36.07 129.39,-33.35 141,-31 153.99,-28.37 167.86,-25.75 181.28,-23.32"/>
<polygon fill="midnightblue" stroke="midnightblue" points="182.21,-26.71 191.43,-21.5 180.97,-19.82 182.21,-26.71"/>
</g>
</g>
</svg>
