<?xml version="1.0" encoding="UTF-8" standalone="no"?>
<!DOCTYPE svg PUBLIC "-//W3C//DTD SVG 1.1//EN"
 "http://www.w3.org/Graphics/SVG/1.1/DTD/svg11.dtd">
<!-- Generated by graphviz version 2.42.4 (0)
 -->
<!-- Title: sortutils::indexx::indexxstring Pages: 1 -->
<svg width="539pt" height="150pt"
 viewBox="0.00 0.00 539.00 150.00" xmlns="http://www.w3.org/2000/svg" xmlns:xlink="http://www.w3.org/1999/xlink">
<g id="graph0" class="graph" transform="scale(1 1) rotate(0) translate(4 146)">
<title>sortutils::indexx::indexxstring</title>
<polygon fill="white" stroke="transparent" points="-4,4 -4,-146 535,-146 535,4 -4,4"/>
<!-- Node1 -->
<g id="node1" class="node">
<title>Node1</title>
<g id="a_node1"><a xlink:title="Indexes a 1D string array in ascending order.">
<polygon fill="#bfbfbf" stroke="black" points="0,-54 0,-88 105,-88 105,-54 0,-54"/>
<text text-anchor="start" x="8" y="-74.4" font-family="Helvetica,sans-Serif" font-size="12.00">sortutils::indexx::</text>
<text text-anchor="middle" x="52.5" y="-61.4" font-family="Helvetica,sans-Serif" font-size="12.00">indexxstring</text>
</a>
</g>
</g>
<!-- Node2 -->
<g id="node2" class="node">
<title>Node2</title>
<g id="a_node2"><a xlink:href="sortutils_8F90.html#a9a84b5261a9e763169be70c29396d0fb" target="_top" xlink:title=" ">
<polygon fill="white" stroke="black" points="218,-120.5 218,-141.5 292,-141.5 292,-120.5 218,-120.5"/>
<text text-anchor="middle" x="255" y="-127.9" font-family="Helvetica,sans-Serif" font-size="12.00">icompxchg</text>
</a>
</g>
</g>
<!-- Node1&#45;&gt;Node2 -->
<g id="edge1" class="edge">
<title>Node1&#45;&gt;Node2</title>
<path fill="none" stroke="midnightblue" d="M85.55,-88.03C101.78,-96.03 122.02,-105.09 141,-111 162.48,-117.69 187,-122.37 207.69,-125.51"/>
<polygon fill="midnightblue" stroke="midnightblue" points="207.42,-129.01 217.82,-126.97 208.42,-122.08 207.42,-129.01"/>
</g>
<!-- Node3 -->
<g id="node3" class="node">
<title>Node3</title>
<g id="a_node3"><a xlink:href="namespacepahm__messages.html#acf0c696cc1604842ee84a5df6d81179c" target="_top" xlink:title="Sets the name of the subroutine that is writing log and/or screen messages.">
<polygon fill="white" stroke="black" points="147.5,-80.5 147.5,-101.5 362.5,-101.5 362.5,-80.5 147.5,-80.5"/>
<text text-anchor="middle" x="255" y="-87.9" font-family="Helvetica,sans-Serif" font-size="12.00">pahm_messages::setmessagesource</text>
</a>
</g>
</g>
<!-- Node1&#45;&gt;Node3 -->
<g id="edge2" class="edge">
<title>Node1&#45;&gt;Node3</title>
<path fill="none" stroke="midnightblue" d="M105.13,-76.15C115.45,-77.18 126.68,-78.3 138.19,-79.45"/>
<polygon fill="midnightblue" stroke="midnightblue" points="138.06,-82.95 148.36,-80.46 138.75,-75.99 138.06,-82.95"/>
</g>
<!-- Node4 -->
<g id="node4" class="node">
<title>Node4</title>
<g id="a_node4"><a xlink:href="namespacesortutils.html#a7822b9599be6b22fd49ba0ad285bc3f9" target="_top" xlink:title="Performs a lexical comparison between two strings.">
<polygon fill="white" stroke="black" points="186,-40.5 186,-61.5 324,-61.5 324,-40.5 186,-40.5"/>
<text text-anchor="middle" x="255" y="-47.9" font-family="Helvetica,sans-Serif" font-size="12.00">sortutils::stringlexcomp</text>
</a>
</g>
</g>
<!-- Node1&#45;&gt;Node4 -->
<g id="edge3" class="edge">
<title>Node1&#45;&gt;Node4</title>
<path fill="none" stroke="midnightblue" d="M105.13,-65.85C126.66,-63.7 152.13,-61.16 175.85,-58.8"/>
<polygon fill="midnightblue" stroke="midnightblue" points="176.3,-62.27 185.9,-57.79 175.6,-55.3 176.3,-62.27"/>
</g>
<!-- Node6 -->
<g id="node6" class="node">
<title>Node6</title>
<g id="a_node6"><a xlink:href="namespacepahm__messages.html#ad35e9f2327aad65d4c669e3d886f54dc" target="_top" xlink:title="Removes the name of the subroutine that is no longer active.">
<polygon fill="white" stroke="black" points="141,-0.5 141,-21.5 369,-21.5 369,-0.5 141,-0.5"/>
<text text-anchor="middle" x="255" y="-7.9" font-family="Helvetica,sans-Serif" font-size="12.00">pahm_messages::unsetmessagesource</text>
</a>
</g>
</g>
<!-- Node1&#45;&gt;Node6 -->
<g id="edge5" class="edge">
<title>Node1&#45;&gt;Node6</title>
<path fill="none" stroke="midnightblue" d="M85.55,-53.97C101.78,-45.97 122.02,-36.91 141,-31 149.96,-28.21 159.46,-25.77 168.98,-23.64"/>
<polygon fill="midnightblue" stroke="midnightblue" points="169.84,-27.03 178.9,-21.54 168.39,-20.19 169.84,-27.03"/>
</g>
<!-- Node5 -->
<g id="node5" class="node">
<title>Node5</title>
<g id="a_node5"><a xlink:href="namespaceutilities.html#a8dff395c74e87d059dadcf8bacdbfedd" target="_top" xlink:title="Convert a string to upper&#45;case.">
<polygon fill="white" stroke="black" points="405,-40.5 405,-61.5 531,-61.5 531,-40.5 405,-40.5"/>
<text text-anchor="middle" x="468" y="-47.9" font-family="Helvetica,sans-Serif" font-size="12.00">utilities::touppercase</text>
</a>
</g>
</g>
<!-- Node4&#45;&gt;Node5 -->
<g id="edge4" class="edge">
<title>Node4&#45;&gt;Node5</title>
<path fill="none" stroke="midnightblue" d="M324.21,-51C346.66,-51 371.7,-51 394.46,-51"/>
<polygon fill="midnightblue" stroke="midnightblue" points="394.73,-54.5 404.73,-51 394.73,-47.5 394.73,-54.5"/>
</g>
</g>
</svg>
