<?xml version="1.0" encoding="UTF-8" standalone="no"?>
<!DOCTYPE svg PUBLIC "-//W3C//DTD SVG 1.1//EN"
 "http://www.w3.org/Graphics/SVG/1.1/DTD/svg11.dtd">
<!-- Generated by graphviz version 2.42.4 (0)
 -->
<!-- Title: pahm_messages::terminate Pages: 1 -->
<!--zoomable 230 -->
<svg id="main" version="1.1" xmlns="http://www.w3.org/2000/svg" xmlns:xlink="http://www.w3.org/1999/xlink" xml:space="preserve" onload="init(evt)">
<style type="text/css"><![CDATA[
.edge:hover path { stroke: red; }
.edge:hover polygon { stroke: red; fill: red; }
]]></style>
<script type="text/javascript"><![CDATA[
var edges = document.getElementsByTagName('g');
if (edges && edges.length) {
  for (var i=0;i<edges.length;i++) {
    if (edges[i].id.substr(0,4)=='edge') {
      edges[i].setAttribute('class','edge');
    }
  }
}
]]></script>
        <defs>
                <circle id="rim" cx="0" cy="0" r="7"/>
                <circle id="rim2" cx="0" cy="0" r="3.5"/>
                <g id="zoomPlus">
                        <use xlink:href="#rim" fill="#404040">
                                <set attributeName="fill" to="#808080" begin="zoomplus.mouseover" end="zoomplus.mouseout"/>
                        </use>
                        <path d="M-4,0h8M0,-4v8" fill="none" stroke="white" stroke-width="1.5" pointer-events="none"/>
                </g>
                <g id="zoomMin">
                        <use xlink:href="#rim" fill="#404040">
                                <set attributeName="fill" to="#808080" begin="zoomminus.mouseover" end="zoomminus.mouseout"/>
                        </use>
                        <path d="M-4,0h8" fill="none" stroke="white" stroke-width="1.5" pointer-events="none"/>
                </g>
                <g id="dirArrow">
                        <path fill="none" stroke="white" stroke-width="1.5" d="M0,-3.0v7 M-2.5,-0.5L0,-3.0L2.5,-0.5"/>
                </g>
               <g id="resetDef">
                       <use xlink:href="#rim2" fill="#404040">
                               <set attributeName="fill" to="#808080" begin="reset.mouseover" end="reset.mouseout"/>
                       </use>
               </g>
        </defs>

<script type="text/javascript">
var viewWidth = 647;
var viewHeight = 230;
var sectionId = 'dynsection-9';
</script>
<script xlink:href="svgpan.js"/>
<svg id="graph" class="graph">
<g id="viewport">
<title>pahm_messages::terminate</title>
<polygon fill="white" stroke="transparent" points="-4,4 -4,-226 643,-226 643,4 -4,4"/>
<!-- Node1 -->
<g id="node1" class="node">
<title>Node1</title>
<g id="a_node1"><a xlink:title="Terminates the calling program when a fatal error is encountered.">
<polygon fill="#bfbfbf" stroke="black" points="475,-107 475,-128 639,-128 639,-107 475,-107"/>
<text text-anchor="middle" x="557" y="-114.4" font-family="Helvetica,sans-Serif" font-size="12.00">pahm_messages::terminate</text>
</a>
</g>
</g>
<!-- Node2 -->
<g id="node2" class="node">
<title>Node2</title>
<g id="a_node2"><a xlink:href="namespacecsv__module.html#a9813e1ff838ed6024c464bb5c443bada" target="_top" xlink:title="Initialize a [[csv_file(type)]].">
<polygon fill="white" stroke="black" points="296,-187.5 296,-221.5 427,-221.5 427,-187.5 296,-187.5"/>
<text text-anchor="start" x="304" y="-207.9" font-family="Helvetica,sans-Serif" font-size="12.00">csv_module::initialize</text>
<text text-anchor="middle" x="361.5" y="-194.9" font-family="Helvetica,sans-Serif" font-size="12.00">_csv_file</text>
</a>
</g>
</g>
<!-- Node1&#45;&gt;Node2 -->
<g id="edge1" class="edge">
<title>Node1&#45;&gt;Node2</title>
<path fill="none" stroke="midnightblue" d="M528.34,-133.03C504.94,-145.83 470.33,-164.01 439,-177.5 430.98,-180.95 422.36,-184.32 413.89,-187.43"/>
<polygon fill="midnightblue" stroke="midnightblue" points="530.26,-135.96 537.33,-128.07 526.88,-129.83 530.26,-135.96"/>
</g>
<!-- Node3 -->
<g id="node3" class="node">
<title>Node3</title>
<g id="a_node3"><a xlink:href="namespaceparwind.html#abae6c098afd2135918a478b6b7b20673" target="_top" xlink:title="Subroutine to read all a&#45;deck/b&#45;deck best track files (ATCF format).">
<polygon fill="white" stroke="black" points="284,-147 284,-168 439,-168 439,-147 284,-147"/>
<text text-anchor="middle" x="361.5" y="-154.4" font-family="Helvetica,sans-Serif" font-size="12.00">parwind::readbesttrackfile</text>
</a>
</g>
</g>
<!-- Node1&#45;&gt;Node3 -->
<g id="edge2" class="edge">
<title>Node1&#45;&gt;Node3</title>
<path fill="none" stroke="midnightblue" d="M495.29,-130.05C468.95,-135.49 438.46,-141.8 413.34,-146.99"/>
<polygon fill="midnightblue" stroke="midnightblue" points="496.08,-133.46 505.16,-128.01 494.66,-126.61 496.08,-133.46"/>
</g>
<!-- Node4 -->
<g id="node4" class="node">
<title>Node4</title>
<g id="a_node4"><a xlink:href="namespacepahm__mesh.html#a6fd7801e4cbacfd2a7ce61c0fb31073c" target="_top" xlink:title="Reads an input mesh file for the specified supported model type.">
<polygon fill="white" stroke="black" points="290.5,-107 290.5,-128 432.5,-128 432.5,-107 290.5,-107"/>
<text text-anchor="middle" x="361.5" y="-114.4" font-family="Helvetica,sans-Serif" font-size="12.00">pahm_mesh::readmesh</text>
</a>
</g>
</g>
<!-- Node1&#45;&gt;Node4 -->
<g id="edge3" class="edge">
<title>Node1&#45;&gt;Node4</title>
<path fill="none" stroke="midnightblue" d="M464.57,-117.5C453.88,-117.5 443.11,-117.5 432.77,-117.5"/>
<polygon fill="midnightblue" stroke="midnightblue" points="464.78,-121 474.78,-117.5 464.78,-114 464.78,-121"/>
</g>
<!-- Node7 -->
<g id="node7" class="node">
<title>Node7</title>
<g id="a_node7"><a xlink:href="interfacetimedateutils_1_1timeconv.html#a2f5f511b312d9f4b1bed33ecb8567b86" target="_top" xlink:title="Convert time from year, month, day, hour, min, sec into seconds since the reference date of the simul...">
<polygon fill="white" stroke="black" points="292.5,-53.5 292.5,-87.5 430.5,-87.5 430.5,-53.5 292.5,-53.5"/>
<text text-anchor="start" x="300.5" y="-73.9" font-family="Helvetica,sans-Serif" font-size="12.00">timedateutils::timeconv</text>
<text text-anchor="middle" x="361.5" y="-60.9" font-family="Helvetica,sans-Serif" font-size="12.00">::timeconvisec</text>
</a>
</g>
</g>
<!-- Node1&#45;&gt;Node7 -->
<g id="edge6" class="edge">
<title>Node1&#45;&gt;Node7</title>
<path fill="none" stroke="midnightblue" d="M502.67,-104.55C480.47,-99.15 454.43,-92.83 430.85,-87.1"/>
<polygon fill="midnightblue" stroke="midnightblue" points="502.03,-107.99 512.57,-106.95 503.68,-101.19 502.03,-107.99"/>
</g>
<!-- Node8 -->
<g id="node8" class="node">
<title>Node8</title>
<g id="a_node8"><a xlink:href="interfacetimedateutils_1_1timeconv.html#a03e2abbe51f02a02624986a3d49ec192" target="_top" xlink:title="Convert time from year, month, day, hour, min, sec into seconds since the reference date of the simul...">
<polygon fill="white" stroke="black" points="292.5,-0.5 292.5,-34.5 430.5,-34.5 430.5,-0.5 292.5,-0.5"/>
<text text-anchor="start" x="300.5" y="-20.9" font-family="Helvetica,sans-Serif" font-size="12.00">timedateutils::timeconv</text>
<text text-anchor="middle" x="361.5" y="-7.9" font-family="Helvetica,sans-Serif" font-size="12.00">::timeconvrsec</text>
</a>
</g>
</g>
<!-- Node1&#45;&gt;Node8 -->
<g id="edge7" class="edge">
<title>Node1&#45;&gt;Node8</title>
<path fill="none" stroke="midnightblue" d="M533.07,-101.08C510.08,-85.14 473.28,-61 439,-44.5 431.64,-40.96 423.69,-37.63 415.79,-34.61"/>
<polygon fill="midnightblue" stroke="midnightblue" points="531.26,-104.09 541.45,-106.96 535.27,-98.35 531.26,-104.09"/>
</g>
<!-- Node5 -->
<g id="node5" class="node">
<title>Node5</title>
<g id="a_node5"><a xlink:href="namespacepahm__drivermod.html#ae0d4b223a96ba116b38152caf6b0768c" target="_top" xlink:title="Subroutine to initialize a PaHM run.">
<polygon fill="white" stroke="black" points="83,-107 83,-128 248,-128 248,-107 83,-107"/>
<text text-anchor="middle" x="165.5" y="-114.4" font-family="Helvetica,sans-Serif" font-size="12.00">pahm_drivermod::pahm_init</text>
</a>
</g>
</g>
<!-- Node4&#45;&gt;Node5 -->
<g id="edge4" class="edge">
<title>Node4&#45;&gt;Node5</title>
<path fill="none" stroke="midnightblue" d="M280.41,-117.5C269.81,-117.5 258.94,-117.5 248.32,-117.5"/>
<polygon fill="midnightblue" stroke="midnightblue" points="280.46,-121 290.46,-117.5 280.46,-114 280.46,-121"/>
</g>
<!-- Node6 -->
<g id="node6" class="node">
<title>Node6</title>
<g id="a_node6"><a xlink:href="pahm_8F90.html#a3d3918f5c5f1ac0a7991a7a78f530f30" target="_top" xlink:title=" ">
<polygon fill="white" stroke="black" points="0,-107 0,-128 47,-128 47,-107 0,-107"/>
<text text-anchor="middle" x="23.5" y="-114.4" font-family="Helvetica,sans-Serif" font-size="12.00">pahm</text>
</a>
</g>
</g>
<!-- Node5&#45;&gt;Node6 -->
<g id="edge5" class="edge">
<title>Node5&#45;&gt;Node6</title>
<path fill="none" stroke="midnightblue" d="M72.42,-117.5C63.15,-117.5 54.47,-117.5 47.1,-117.5"/>
<polygon fill="midnightblue" stroke="midnightblue" points="72.66,-121 82.66,-117.5 72.66,-114 72.66,-121"/>
</g>
</g>
</svg>
        <g id="navigator" transform="translate(0 0)" fill="#404254">
                <rect fill="#f2f5e9" fill-opacity="0.5" stroke="#606060" stroke-width=".5" x="0" y="0" width="60" height="60"/>
                <use id="zoomplus" xlink:href="#zoomPlus" x="17" y="9" onmousedown="handleZoom(evt,'in')"/>
                <use id="zoomminus" xlink:href="#zoomMin" x="42" y="9" onmousedown="handleZoom(evt,'out')"/>
                <use id="reset" xlink:href="#resetDef" x="30" y="36" onmousedown="handleReset()"/>
                <g id="arrowUp" xlink:href="#dirArrow" transform="translate(30 24)" onmousedown="handlePan(0,-1)">
                  <use xlink:href="#rim" fill="#404040">
                        <set attributeName="fill" to="#808080" begin="arrowUp.mouseover" end="arrowUp.mouseout"/>
                  </use>
                  <path fill="none" stroke="white" stroke-width="1.5" d="M0,-3.0v7 M-2.5,-0.5L0,-3.0L2.5,-0.5"/>
                </g>
                <g id="arrowRight" xlink:href="#dirArrow" transform="rotate(90) translate(36 -43)" onmousedown="handlePan(1,0)">
                  <use xlink:href="#rim" fill="#404040">
                        <set attributeName="fill" to="#808080" begin="arrowRight.mouseover" end="arrowRight.mouseout"/>
                  </use>
                  <path fill="none" stroke="white" stroke-width="1.5" d="M0,-3.0v7 M-2.5,-0.5L0,-3.0L2.5,-0.5"/>
                </g>
                <g id="arrowDown" xlink:href="#dirArrow" transform="rotate(180) translate(-30 -48)" onmousedown="handlePan(0,1)">
                  <use xlink:href="#rim" fill="#404040">
                        <set attributeName="fill" to="#808080" begin="arrowDown.mouseover" end="arrowDown.mouseout"/>
                  </use>
                  <path fill="none" stroke="white" stroke-width="1.5" d="M0,-3.0v7 M-2.5,-0.5L0,-3.0L2.5,-0.5"/>
                </g>
                <g id="arrowLeft" xlink:href="#dirArrow" transform="rotate(270) translate(-36 17)" onmousedown="handlePan(-1,0)">
                  <use xlink:href="#rim" fill="#404040">
                        <set attributeName="fill" to="#808080" begin="arrowLeft.mouseover" end="arrowLeft.mouseout"/>
                  </use>
                  <path fill="none" stroke="white" stroke-width="1.5" d="M0,-3.0v7 M-2.5,-0.5L0,-3.0L2.5,-0.5"/>
                </g>
        </g>
        <svg viewBox="0 0 15 15" width="100%" height="30px" preserveAspectRatio="xMaxYMin meet">
         <g id="arrow_out" transform="scale(0.3 0.3)">
          <a xlink:href="namespacepahm__messages_a8fdeeba7e0469ebda6435518f619444b_icgraph_org.svg" target="_base">
           <rect id="button" ry="5" rx="5" y="6" x="6" height="38" width="38"
                fill="#f2f5e9" fill-opacity="0.5" stroke="#606060" stroke-width="1.0"/>
           <path id="arrow"
             d="M 11.500037,31.436501 C 11.940474,20.09759 22.043105,11.32322 32.158766,21.979434 L 37.068811,17.246167 C 37.068811,17.246167 37.088388,32 37.088388,32 L 22.160133,31.978069 C 22.160133,31.978069 26.997745,27.140456 26.997745,27.140456 C 18.528582,18.264221 13.291696,25.230495 11.500037,31.436501 z"
             style="fill:#404040;"/>
          </a>
         </g>
        </svg>
</svg>
