<?xml version="1.0" encoding="UTF-8" standalone="no"?>
<!DOCTYPE svg PUBLIC "-//W3C//DTD SVG 1.1//EN"
 "http://www.w3.org/Graphics/SVG/1.1/DTD/svg11.dtd">
<!-- Generated by graphviz version 2.42.4 (0)
 -->
<!-- Title: csv_module::initialize_csv_file Pages: 1 -->
<svg width="603pt" height="272pt"
 viewBox="0.00 0.00 603.00 271.50" xmlns="http://www.w3.org/2000/svg" xmlns:xlink="http://www.w3.org/1999/xlink">
<g id="graph0" class="graph" transform="scale(1 1) rotate(0) translate(4 267.5)">
<title>csv_module::initialize_csv_file</title>
<polygon fill="white" stroke="transparent" points="-4,4 -4,-267.5 599,-267.5 599,4 -4,4"/>
<!-- Node1 -->
<g id="node1" class="node">
<title>Node1</title>
<g id="a_node1"><a xlink:title="Initialize a [[csv_file(type)]].">
<polygon fill="#bfbfbf" stroke="black" points="0,-112 0,-146 131,-146 131,-112 0,-112"/>
<text text-anchor="start" x="8" y="-132.4" font-family="Helvetica,sans-Serif" font-size="12.00">csv_module::initialize</text>
<text text-anchor="middle" x="65.5" y="-119.4" font-family="Helvetica,sans-Serif" font-size="12.00">_csv_file</text>
</a>
</g>
</g>
<!-- Node2 -->
<g id="node2" class="node">
<title>Node2</title>
<g id="a_node2"><a xlink:href="namespacecsv__utilities.html#a6e82721fc2fc96ab10ca4a32547e1c88" target="_top" xlink:title="Add elements to the integer vector in chunks.">
<polygon fill="white" stroke="black" points="419,-229 419,-263 543,-263 543,-229 419,-229"/>
<text text-anchor="start" x="427" y="-249.4" font-family="Helvetica,sans-Serif" font-size="12.00">csv_utilities::expand</text>
<text text-anchor="middle" x="481" y="-236.4" font-family="Helvetica,sans-Serif" font-size="12.00">_vector</text>
</a>
</g>
</g>
<!-- Node1&#45;&gt;Node2 -->
<g id="edge1" class="edge">
<title>Node1&#45;&gt;Node2</title>
<path fill="none" stroke="midnightblue" d="M78.04,-146.25C94.61,-169.38 127.56,-209.54 167,-227 244.26,-261.2 342.88,-260.91 408.57,-255.39"/>
<polygon fill="midnightblue" stroke="midnightblue" points="409.17,-258.85 418.82,-254.46 408.54,-251.88 409.17,-258.85"/>
</g>
<!-- Node3 -->
<g id="node3" class="node">
<title>Node3</title>
<g id="a_node3"><a xlink:href="namespaceutilities.html#a2a41067ed5533ec0c36318e8f1e960bf" target="_top" xlink:title="This subroutine opens an existing file for reading.">
<polygon fill="white" stroke="black" points="179,-78.5 179,-99.5 319,-99.5 319,-78.5 179,-78.5"/>
<text text-anchor="middle" x="249" y="-85.9" font-family="Helvetica,sans-Serif" font-size="12.00">utilities::openfileforread</text>
</a>
</g>
</g>
<!-- Node1&#45;&gt;Node3 -->
<g id="edge2" class="edge">
<title>Node1&#45;&gt;Node3</title>
<path fill="none" stroke="midnightblue" d="M131,-114.78C150.35,-110.52 171.44,-105.87 190.31,-101.71"/>
<polygon fill="midnightblue" stroke="midnightblue" points="191.24,-105.09 200.25,-99.52 189.73,-98.26 191.24,-105.09"/>
</g>
<!-- Node4 -->
<g id="node4" class="node">
<title>Node4</title>
<g id="a_node4"><a xlink:href="namespacepahm__messages.html#acf0c696cc1604842ee84a5df6d81179c" target="_top" xlink:title="Sets the name of the subroutine that is writing log and/or screen messages.">
<polygon fill="white" stroke="black" points="373.5,-118.5 373.5,-139.5 588.5,-139.5 588.5,-118.5 373.5,-118.5"/>
<text text-anchor="middle" x="481" y="-125.9" font-family="Helvetica,sans-Serif" font-size="12.00">pahm_messages::setmessagesource</text>
</a>
</g>
</g>
<!-- Node1&#45;&gt;Node4 -->
<g id="edge5" class="edge">
<title>Node1&#45;&gt;Node4</title>
<path fill="none" stroke="midnightblue" d="M131.09,-143.79C142.98,-145.96 155.32,-147.85 167,-149 239.54,-156.15 258.27,-153.86 331,-149 355.38,-147.37 381.86,-144.26 405.64,-140.97"/>
<polygon fill="midnightblue" stroke="midnightblue" points="406.24,-144.42 415.65,-139.55 405.26,-137.48 406.24,-144.42"/>
</g>
<!-- Node5 -->
<g id="node5" class="node">
<title>Node5</title>
<g id="a_node5"><a xlink:href="namespacepahm__messages.html#ad35e9f2327aad65d4c669e3d886f54dc" target="_top" xlink:title="Removes the name of the subroutine that is no longer active.">
<polygon fill="white" stroke="black" points="367,-78.5 367,-99.5 595,-99.5 595,-78.5 367,-78.5"/>
<text text-anchor="middle" x="481" y="-85.9" font-family="Helvetica,sans-Serif" font-size="12.00">pahm_messages::unsetmessagesource</text>
</a>
</g>
</g>
<!-- Node1&#45;&gt;Node5 -->
<g id="edge13" class="edge">
<title>Node1&#45;&gt;Node5</title>
<path fill="none" stroke="midnightblue" d="M87.28,-111.98C106.59,-97.34 136.83,-77.32 167,-69 257.74,-43.97 368.67,-61.87 431.13,-76.13"/>
<polygon fill="midnightblue" stroke="midnightblue" points="430.57,-79.59 441.1,-78.47 432.17,-72.77 430.57,-79.59"/>
</g>
<!-- Node6 -->
<g id="node6" class="node">
<title>Node6</title>
<g id="a_node6"><a xlink:href="namespacepahm__messages.html#a8fdeeba7e0469ebda6435518f619444b" target="_top" xlink:title="Terminates the calling program when a fatal error is encountered.">
<polygon fill="white" stroke="black" points="167,-118.5 167,-139.5 331,-139.5 331,-118.5 167,-118.5"/>
<text text-anchor="middle" x="249" y="-125.9" font-family="Helvetica,sans-Serif" font-size="12.00">pahm_messages::terminate</text>
</a>
</g>
</g>
<!-- Node1&#45;&gt;Node6 -->
<g id="edge6" class="edge">
<title>Node1&#45;&gt;Node6</title>
<path fill="none" stroke="midnightblue" d="M131,-129C139.35,-129 148.02,-129 156.7,-129"/>
<polygon fill="midnightblue" stroke="midnightblue" points="156.88,-132.5 166.88,-129 156.88,-125.5 156.88,-132.5"/>
</g>
<!-- Node7 -->
<g id="node7" class="node">
<title>Node7</title>
<g id="a_node7"><a xlink:href="namespaceutilities.html#a376978b945cbdf5d33ff8bf905d19866" target="_top" xlink:title="Convert a string to lower&#45;case.">
<polygon fill="white" stroke="black" points="187,-0.5 187,-21.5 311,-21.5 311,-0.5 187,-0.5"/>
<text text-anchor="middle" x="249" y="-7.9" font-family="Helvetica,sans-Serif" font-size="12.00">utilities::tolowercase</text>
</a>
</g>
</g>
<!-- Node1&#45;&gt;Node7 -->
<g id="edge9" class="edge">
<title>Node1&#45;&gt;Node7</title>
<path fill="none" stroke="midnightblue" d="M80.73,-111.77C98.77,-90.98 131.78,-56.3 167,-36 174.6,-31.62 183.04,-27.93 191.53,-24.83"/>
<polygon fill="midnightblue" stroke="midnightblue" points="192.75,-28.12 201.1,-21.59 190.5,-21.49 192.75,-28.12"/>
</g>
<!-- Node8 -->
<g id="node8" class="node">
<title>Node8</title>
<g id="a_node8"><a xlink:href="namespacecsv__utilities.html#a6c1f008f2a5f0ec6727aa9627a9e7bc4" target="_top" xlink:title="Returns only the unique elements of the vector.">
<polygon fill="white" stroke="black" points="188,-196.5 188,-217.5 310,-217.5 310,-196.5 188,-196.5"/>
<text text-anchor="middle" x="249" y="-203.9" font-family="Helvetica,sans-Serif" font-size="12.00">csv_utilities::unique</text>
</a>
</g>
</g>
<!-- Node1&#45;&gt;Node8 -->
<g id="edge10" class="edge">
<title>Node1&#45;&gt;Node8</title>
<path fill="none" stroke="midnightblue" d="M95.27,-146.01C115,-157.22 142.03,-171.67 167,-182 177.2,-186.22 188.38,-190.12 199.09,-193.51"/>
<polygon fill="midnightblue" stroke="midnightblue" points="198.16,-196.89 208.75,-196.49 200.22,-190.2 198.16,-196.89"/>
</g>
<!-- Node3&#45;&gt;Node4 -->
<g id="edge3" class="edge">
<title>Node3&#45;&gt;Node4</title>
<path fill="none" stroke="midnightblue" d="M310.43,-99.51C340.81,-104.79 377.82,-111.23 409.49,-116.74"/>
<polygon fill="midnightblue" stroke="midnightblue" points="409.12,-120.23 419.57,-118.49 410.32,-113.33 409.12,-120.23"/>
</g>
<!-- Node3&#45;&gt;Node5 -->
<g id="edge4" class="edge">
<title>Node3&#45;&gt;Node5</title>
<path fill="none" stroke="midnightblue" d="M319.01,-89C330.91,-89 343.6,-89 356.43,-89"/>
<polygon fill="midnightblue" stroke="midnightblue" points="356.74,-92.5 366.74,-89 356.74,-85.5 356.74,-92.5"/>
</g>
<!-- Node6&#45;&gt;Node4 -->
<g id="edge7" class="edge">
<title>Node6&#45;&gt;Node4</title>
<path fill="none" stroke="midnightblue" d="M331.09,-129C341.59,-129 352.5,-129 363.42,-129"/>
<polygon fill="midnightblue" stroke="midnightblue" points="363.46,-132.5 373.46,-129 363.46,-125.5 363.46,-132.5"/>
</g>
<!-- Node6&#45;&gt;Node5 -->
<g id="edge8" class="edge">
<title>Node6&#45;&gt;Node5</title>
<path fill="none" stroke="midnightblue" d="M310.43,-118.49C340.81,-113.21 377.82,-106.77 409.49,-101.26"/>
<polygon fill="midnightblue" stroke="midnightblue" points="410.32,-104.67 419.57,-99.51 409.12,-97.77 410.32,-104.67"/>
</g>
<!-- Node8&#45;&gt;Node2 -->
<g id="edge11" class="edge">
<title>Node8&#45;&gt;Node2</title>
<path fill="none" stroke="midnightblue" d="M310.13,-217.2C340.27,-222.31 376.99,-228.53 408.57,-233.89"/>
<polygon fill="midnightblue" stroke="midnightblue" points="408.18,-237.37 418.62,-235.59 409.35,-230.47 408.18,-237.37"/>
</g>
<!-- Node9 -->
<g id="node9" class="node">
<title>Node9</title>
<g id="a_node9"><a xlink:href="namespacecsv__utilities.html#a07f2d0f6e53440f20e140a6c90f8ab2f" target="_top" xlink:title="Sorts an integer array ivec in increasing order. Uses a basic recursive quicksort (with insertion sor...">
<polygon fill="white" stroke="black" points="428.5,-176 428.5,-210 533.5,-210 533.5,-176 428.5,-176"/>
<text text-anchor="start" x="436.5" y="-196.4" font-family="Helvetica,sans-Serif" font-size="12.00">csv_utilities::sort</text>
<text text-anchor="middle" x="481" y="-183.4" font-family="Helvetica,sans-Serif" font-size="12.00">_ascending</text>
</a>
</g>
</g>
<!-- Node8&#45;&gt;Node9 -->
<g id="edge12" class="edge">
<title>Node8&#45;&gt;Node9</title>
<path fill="none" stroke="midnightblue" d="M310.13,-203.34C343.42,-201.31 384.73,-198.8 418.27,-196.76"/>
<polygon fill="midnightblue" stroke="midnightblue" points="418.64,-200.24 428.41,-196.14 418.22,-193.25 418.64,-200.24"/>
</g>
</g>
</svg>
