<?xml version="1.0" encoding="UTF-8" standalone="no"?>
<!DOCTYPE svg PUBLIC "-//W3C//DTD SVG 1.1//EN"
 "http://www.w3.org/Graphics/SVG/1.1/DTD/svg11.dtd">
<!-- Generated by graphviz version 2.42.4 (0)
 -->
<!-- Title: pahm_vortex::calcrmaxes Pages: 1 -->
<svg width="563pt" height="110pt"
 viewBox="0.00 0.00 563.00 110.00" xmlns="http://www.w3.org/2000/svg" xmlns:xlink="http://www.w3.org/1999/xlink">
<g id="graph0" class="graph" transform="scale(1 1) rotate(0) translate(4 106)">
<title>pahm_vortex::calcrmaxes</title>
<polygon fill="white" stroke="transparent" points="-4,4 -4,-106 559,-106 559,4 -4,4"/>
<!-- Node1 -->
<g id="node1" class="node">
<title>Node1</title>
<g id="a_node1"><a xlink:title="Calculate the radius of maximum winds for all storm quadrants.">
<polygon fill="#bfbfbf" stroke="black" points="0,-40.5 0,-61.5 152,-61.5 152,-40.5 0,-40.5"/>
<text text-anchor="middle" x="76" y="-47.9" font-family="Helvetica,sans-Serif" font-size="12.00">pahm_vortex::calcrmaxes</text>
</a>
</g>
</g>
<!-- Node2 -->
<g id="node2" class="node">
<title>Node2</title>
<g id="a_node2"><a xlink:href="namespacepahm__vortex.html#a24ea19697c70ab6e010e36a71faefcbc" target="_top" xlink:title="Use brute&#45;force marching to find a root the interval [x1,x2].">
<polygon fill="white" stroke="black" points="195.5,-80.5 195.5,-101.5 326.5,-101.5 326.5,-80.5 195.5,-80.5"/>
<text text-anchor="middle" x="261" y="-87.9" font-family="Helvetica,sans-Serif" font-size="12.00">pahm_vortex::findroot</text>
</a>
</g>
</g>
<!-- Node1&#45;&gt;Node2 -->
<g id="edge1" class="edge">
<title>Node1&#45;&gt;Node2</title>
<path fill="none" stroke="midnightblue" d="M125.08,-61.51C148.63,-66.66 177.17,-72.9 201.93,-78.31"/>
<polygon fill="midnightblue" stroke="midnightblue" points="201.41,-81.78 211.92,-80.49 202.9,-74.94 201.41,-81.78"/>
</g>
<!-- Node3 -->
<g id="node3" class="node">
<title>Node3</title>
<g id="a_node3"><a xlink:href="namespacepahm__vortex.html#a758504d51e519dac32d8146e79fccd2c" target="_top" xlink:title=" ">
<polygon fill="white" stroke="black" points="192.5,-40.5 192.5,-61.5 329.5,-61.5 329.5,-40.5 192.5,-40.5"/>
<text text-anchor="middle" x="261" y="-47.9" font-family="Helvetica,sans-Serif" font-size="12.00">pahm_vortex::vhnocori</text>
</a>
</g>
</g>
<!-- Node1&#45;&gt;Node3 -->
<g id="edge2" class="edge">
<title>Node1&#45;&gt;Node3</title>
<path fill="none" stroke="midnightblue" d="M152.23,-51C162.1,-51 172.24,-51 182.16,-51"/>
<polygon fill="midnightblue" stroke="midnightblue" points="182.4,-54.5 192.4,-51 182.4,-47.5 182.4,-54.5"/>
</g>
<!-- Node5 -->
<g id="node5" class="node">
<title>Node5</title>
<g id="a_node5"><a xlink:href="namespacepahm__vortex.html#a1e9c82cf5fb1c37ebd0629060e93d5fa" target="_top" xlink:title="External function f(x) = 0 for which a root is sought using Brent&#39;s root&#45;finding method.">
<polygon fill="white" stroke="black" points="188,-0.5 188,-21.5 334,-21.5 334,-0.5 188,-0.5"/>
<text text-anchor="middle" x="261" y="-7.9" font-family="Helvetica,sans-Serif" font-size="12.00">pahm_vortex::vhwithcori</text>
</a>
</g>
</g>
<!-- Node1&#45;&gt;Node5 -->
<g id="edge4" class="edge">
<title>Node1&#45;&gt;Node5</title>
<path fill="none" stroke="midnightblue" d="M125.08,-40.49C148.63,-35.34 177.17,-29.1 201.93,-23.69"/>
<polygon fill="midnightblue" stroke="midnightblue" points="202.9,-27.06 211.92,-21.51 201.41,-20.22 202.9,-27.06"/>
</g>
<!-- Node4 -->
<g id="node4" class="node">
<title>Node4</title>
<g id="a_node4"><a xlink:href="namespacepahm__vortex.html#a632207c65211e9337eb3f016f274558d" target="_top" xlink:title=" ">
<polygon fill="white" stroke="black" points="370,-20.5 370,-41.5 555,-41.5 555,-20.5 370,-20.5"/>
<text text-anchor="middle" x="462.5" y="-27.9" font-family="Helvetica,sans-Serif" font-size="12.00">pahm_vortex::getusequadrantvr</text>
</a>
</g>
</g>
<!-- Node3&#45;&gt;Node4 -->
<g id="edge3" class="edge">
<title>Node3&#45;&gt;Node4</title>
<path fill="none" stroke="midnightblue" d="M329.54,-44.23C339.29,-43.25 349.5,-42.23 359.74,-41.2"/>
<polygon fill="midnightblue" stroke="midnightblue" points="360.37,-44.66 369.97,-40.18 359.67,-37.69 360.37,-44.66"/>
</g>
<!-- Node5&#45;&gt;Node4 -->
<g id="edge5" class="edge">
<title>Node5&#45;&gt;Node4</title>
<path fill="none" stroke="midnightblue" d="M334.02,-18.22C342.37,-19.06 350.99,-19.92 359.64,-20.79"/>
<polygon fill="midnightblue" stroke="midnightblue" points="359.48,-24.29 369.78,-21.8 360.18,-17.32 359.48,-24.29"/>
</g>
</g>
</svg>
