<?xml version="1.0" encoding="UTF-8" standalone="no"?>
<!DOCTYPE svg PUBLIC "-//W3C//DTD SVG 1.1//EN"
 "http://www.w3.org/Graphics/SVG/1.1/DTD/svg11.dtd">
<!-- Generated by graphviz version 2.42.4 (0)
 -->
<!-- Title: utilities::touppercase Pages: 1 -->
<svg width="1077pt" height="318pt"
 viewBox="0.00 0.00 1077.00 317.50" xmlns="http://www.w3.org/2000/svg" xmlns:xlink="http://www.w3.org/1999/xlink">
<g id="graph0" class="graph" transform="scale(1 1) rotate(0) translate(4 313.5)">
<title>utilities::touppercase</title>
<polygon fill="white" stroke="transparent" points="-4,4 -4,-313.5 1073,-313.5 1073,4 -4,4"/>
<!-- Node1 -->
<g id="node1" class="node">
<title>Node1</title>
<g id="a_node1"><a xlink:title="Convert a string to upper&#45;case.">
<polygon fill="#bfbfbf" stroke="black" points="943,-149 943,-170 1069,-170 1069,-149 943,-149"/>
<text text-anchor="middle" x="1006" y="-156.4" font-family="Helvetica,sans-Serif" font-size="12.00">utilities::touppercase</text>
</a>
</g>
</g>
<!-- Node2 -->
<g id="node2" class="node">
<title>Node2</title>
<g id="a_node2"><a xlink:href="namespaceutilities.html#a1e2f2593103f415e1c073284ff95a83f" target="_top" xlink:title="Checks the user defined control file inputs.">
<polygon fill="white" stroke="black" points="731,-208 731,-229 907,-229 907,-208 731,-208"/>
<text text-anchor="middle" x="819" y="-215.4" font-family="Helvetica,sans-Serif" font-size="12.00">utilities::checkcontrolfileinputs</text>
</a>
</g>
</g>
<!-- Node1&#45;&gt;Node2 -->
<g id="edge1" class="edge">
<title>Node1&#45;&gt;Node2</title>
<path fill="none" stroke="midnightblue" d="M966.41,-173.43C948.43,-179.78 926.7,-187.26 907,-193.5 891.12,-198.53 873.47,-203.68 858.25,-207.99"/>
<polygon fill="midnightblue" stroke="midnightblue" points="967.73,-176.68 975.98,-170.03 965.38,-170.08 967.73,-176.68"/>
</g>
<!-- Node3 -->
<g id="node3" class="node">
<title>Node3</title>
<g id="a_node3"><a xlink:href="namespaceutilities.html#ab095172ef12ae151ab5c9aacf82f4dc6" target="_top" xlink:title="This subroutine reads the program&#39;s main control file.">
<polygon fill="white" stroke="black" points="551.5,-188 551.5,-209 687.5,-209 687.5,-188 551.5,-188"/>
<text text-anchor="middle" x="619.5" y="-195.4" font-family="Helvetica,sans-Serif" font-size="12.00">utilities::readcontrolfile</text>
</a>
</g>
</g>
<!-- Node1&#45;&gt;Node3 -->
<g id="edge13" class="edge">
<title>Node1&#45;&gt;Node3</title>
<path fill="none" stroke="midnightblue" d="M932.69,-166.83C862.35,-173.97 756.36,-184.72 687.79,-191.67"/>
<polygon fill="midnightblue" stroke="midnightblue" points="933.2,-170.3 942.8,-165.81 932.49,-163.34 933.2,-170.3"/>
</g>
<!-- Node7 -->
<g id="node7" class="node">
<title>Node7</title>
<g id="a_node7"><a xlink:href="namespaceutilities.html#ab30d13ba0fcebcb933a30be2237ec162" target="_top" xlink:title="This function parses lines of text from input script/control files.">
<polygon fill="white" stroke="black" points="764,-248 764,-269 874,-269 874,-248 764,-248"/>
<text text-anchor="middle" x="819" y="-255.4" font-family="Helvetica,sans-Serif" font-size="12.00">utilities::parseline</text>
</a>
</g>
</g>
<!-- Node1&#45;&gt;Node7 -->
<g id="edge6" class="edge">
<title>Node1&#45;&gt;Node7</title>
<path fill="none" stroke="midnightblue" d="M988.2,-177.12C969.91,-195.25 938.99,-222.96 907,-238.5 896.82,-243.44 885.38,-247.19 874.21,-250.03"/>
<polygon fill="midnightblue" stroke="midnightblue" points="990.69,-179.58 995.23,-170.01 985.71,-174.66 990.69,-179.58"/>
</g>
<!-- Node8 -->
<g id="node8" class="node">
<title>Node8</title>
<g id="a_node8"><a xlink:href="namespaceparwind.html#a6efcf8be68b268f0a6d92ceb5f8c6f41" target="_top" xlink:title="Subroutine to support the Holland model (GetHolland). Gets the next line from the file,...">
<polygon fill="white" stroke="black" points="733.5,-288 733.5,-309 904.5,-309 904.5,-288 733.5,-288"/>
<text text-anchor="middle" x="819" y="-295.4" font-family="Helvetica,sans-Serif" font-size="12.00">parwind::processhollanddata</text>
</a>
</g>
</g>
<!-- Node1&#45;&gt;Node8 -->
<g id="edge8" class="edge">
<title>Node1&#45;&gt;Node8</title>
<path fill="none" stroke="midnightblue" d="M994.57,-178.87C979.11,-205.63 947.54,-253.42 907,-278.5 900.81,-282.33 893.95,-285.43 886.89,-287.94"/>
<polygon fill="midnightblue" stroke="midnightblue" points="997.68,-180.48 999.52,-170.05 991.57,-177.06 997.68,-180.48"/>
</g>
<!-- Node11 -->
<g id="node11" class="node">
<title>Node11</title>
<g id="a_node11"><a xlink:href="namespaceparwind.html#abae6c098afd2135918a478b6b7b20673" target="_top" xlink:title="Subroutine to read all a&#45;deck/b&#45;deck best track files (ATCF format).">
<polygon fill="white" stroke="black" points="741.5,-130 741.5,-151 896.5,-151 896.5,-130 741.5,-130"/>
<text text-anchor="middle" x="819" y="-137.4" font-family="Helvetica,sans-Serif" font-size="12.00">parwind::readbesttrackfile</text>
</a>
</g>
</g>
<!-- Node1&#45;&gt;Node11 -->
<g id="edge12" class="edge">
<title>Node1&#45;&gt;Node11</title>
<path fill="none" stroke="midnightblue" d="M932.66,-152.07C920.88,-150.86 908.63,-149.6 896.74,-148.38"/>
<polygon fill="midnightblue" stroke="midnightblue" points="932.58,-155.58 942.88,-153.12 933.29,-148.62 932.58,-155.58"/>
</g>
<!-- Node12 -->
<g id="node12" class="node">
<title>Node12</title>
<g id="a_node12"><a xlink:href="namespaceparwind.html#a75c722a5d8fdb18014543923d7e4dcca" target="_top" xlink:title="Subroutine to read all a&#45;deck/b&#45;deck best track files (ATCF format).">
<polygon fill="white" stroke="black" points="310.5,-71 310.5,-92 483.5,-92 483.5,-71 310.5,-71"/>
<text text-anchor="middle" x="397" y="-78.4" font-family="Helvetica,sans-Serif" font-size="12.00">parwind::readcsvbesttrackfile</text>
</a>
</g>
</g>
<!-- Node1&#45;&gt;Node12 -->
<g id="edge14" class="edge">
<title>Node1&#45;&gt;Node12</title>
<path fill="none" stroke="midnightblue" d="M980.93,-143.24C961.8,-131.26 933.87,-115.83 907,-108.5 762.3,-69.01 586.07,-69.98 483.5,-75.14"/>
<polygon fill="midnightblue" stroke="midnightblue" points="979.27,-146.33 989.57,-148.79 983.05,-140.44 979.27,-146.33"/>
</g>
<!-- Node13 -->
<g id="node13" class="node">
<title>Node13</title>
<g id="a_node13"><a xlink:href="namespacepahm__mesh.html#a6fd7801e4cbacfd2a7ce61c0fb31073c" target="_top" xlink:title="Reads an input mesh file for the specified supported model type.">
<polygon fill="white" stroke="black" points="548.5,-119 548.5,-140 690.5,-140 690.5,-119 548.5,-119"/>
<text text-anchor="middle" x="619.5" y="-126.4" font-family="Helvetica,sans-Serif" font-size="12.00">pahm_mesh::readmesh</text>
</a>
</g>
</g>
<!-- Node1&#45;&gt;Node13 -->
<g id="edge16" class="edge">
<title>Node1&#45;&gt;Node13</title>
<path fill="none" stroke="midnightblue" d="M975.99,-144.58C956.94,-135.64 931.15,-125.13 907,-120.5 833.44,-106.4 747.35,-111.99 688.89,-118.99"/>
<polygon fill="midnightblue" stroke="midnightblue" points="974.51,-147.75 985.04,-148.94 977.55,-141.44 974.51,-147.75"/>
</g>
<!-- Node14 -->
<g id="node14" class="node">
<title>Node14</title>
<g id="a_node14"><a xlink:href="namespacesortutils.html#a7822b9599be6b22fd49ba0ad285bc3f9" target="_top" xlink:title="Performs a lexical comparison between two strings.">
<polygon fill="white" stroke="black" points="750,-11 750,-32 888,-32 888,-11 750,-11"/>
<text text-anchor="middle" x="819" y="-18.4" font-family="Helvetica,sans-Serif" font-size="12.00">sortutils::stringlexcomp</text>
</a>
</g>
</g>
<!-- Node1&#45;&gt;Node14 -->
<g id="edge18" class="edge">
<title>Node1&#45;&gt;Node14</title>
<path fill="none" stroke="midnightblue" d="M992.7,-140.26C976.09,-115.78 944.25,-73.76 907,-49.5 895.3,-41.88 881.36,-36.19 868.11,-32"/>
<polygon fill="midnightblue" stroke="midnightblue" points="989.86,-142.31 998.3,-148.71 995.69,-138.44 989.86,-142.31"/>
</g>
<!-- Node2&#45;&gt;Node3 -->
<g id="edge2" class="edge">
<title>Node2&#45;&gt;Node3</title>
<path fill="none" stroke="midnightblue" d="M720.59,-208.64C709.44,-207.51 698.28,-206.38 687.66,-205.3"/>
<polygon fill="midnightblue" stroke="midnightblue" points="720.5,-212.14 730.8,-209.67 721.2,-205.18 720.5,-212.14"/>
</g>
<!-- Node4 -->
<g id="node4" class="node">
<title>Node4</title>
<g id="a_node4"><a xlink:href="namespacepahm__drivermod.html#a3294ddc68b72ff9220010a8764a8afe3" target="_top" xlink:title="Prints on the screen the help system of the PaHM program.">
<polygon fill="white" stroke="black" points="286,-163 286,-184 508,-184 508,-163 286,-163"/>
<text text-anchor="middle" x="397" y="-170.4" font-family="Helvetica,sans-Serif" font-size="12.00">pahm_drivermod::getprogramcmdlargs</text>
</a>
</g>
</g>
<!-- Node3&#45;&gt;Node4 -->
<g id="edge3" class="edge">
<title>Node3&#45;&gt;Node4</title>
<path fill="none" stroke="midnightblue" d="M541.41,-189.76C525.05,-187.9 507.62,-185.93 490.74,-184.02"/>
<polygon fill="midnightblue" stroke="midnightblue" points="541.11,-193.25 551.44,-190.9 541.9,-186.29 541.11,-193.25"/>
</g>
<!-- Node5 -->
<g id="node5" class="node">
<title>Node5</title>
<g id="a_node5"><a xlink:href="namespacepahm__drivermod.html#ae0d4b223a96ba116b38152caf6b0768c" target="_top" xlink:title="Subroutine to initialize a PaHM run.">
<polygon fill="white" stroke="black" points="84,-138 84,-159 249,-159 249,-138 84,-138"/>
<text text-anchor="middle" x="166.5" y="-145.4" font-family="Helvetica,sans-Serif" font-size="12.00">pahm_drivermod::pahm_init</text>
</a>
</g>
</g>
<!-- Node4&#45;&gt;Node5 -->
<g id="edge4" class="edge">
<title>Node4&#45;&gt;Node5</title>
<path fill="none" stroke="midnightblue" d="M289.45,-161.84C275.91,-160.36 262.23,-158.86 249.17,-157.44"/>
<polygon fill="midnightblue" stroke="midnightblue" points="289.44,-165.36 299.76,-162.97 290.2,-158.4 289.44,-165.36"/>
</g>
<!-- Node6 -->
<g id="node6" class="node">
<title>Node6</title>
<g id="a_node6"><a xlink:href="pahm_8F90.html#a3d3918f5c5f1ac0a7991a7a78f530f30" target="_top" xlink:title=" ">
<polygon fill="white" stroke="black" points="0,-158 0,-179 47,-179 47,-158 0,-158"/>
<text text-anchor="middle" x="23.5" y="-165.4" font-family="Helvetica,sans-Serif" font-size="12.00">pahm</text>
</a>
</g>
</g>
<!-- Node5&#45;&gt;Node6 -->
<g id="edge5" class="edge">
<title>Node5&#45;&gt;Node6</title>
<path fill="none" stroke="midnightblue" d="M81.19,-160.46C68.72,-162.23 56.86,-163.91 47.23,-165.28"/>
<polygon fill="midnightblue" stroke="midnightblue" points="81.87,-163.9 91.28,-159.03 80.89,-156.97 81.87,-163.9"/>
</g>
<!-- Node7&#45;&gt;Node3 -->
<g id="edge7" class="edge">
<title>Node7&#45;&gt;Node3</title>
<path fill="none" stroke="midnightblue" d="M757.23,-245.52C748.38,-243.35 739.42,-240.98 731,-238.5 701.84,-229.91 669.19,-217.76 646.99,-209.12"/>
<polygon fill="midnightblue" stroke="midnightblue" points="756.59,-248.97 767.13,-247.9 758.22,-242.16 756.59,-248.97"/>
</g>
<!-- Node9 -->
<g id="node9" class="node">
<title>Node9</title>
<g id="a_node9"><a xlink:href="namespaceparwind.html#a0f547832ef9dcece74e3d1267557c9e7" target="_top" xlink:title="Calculate wind velocities and MSL pressures at the mesh nodes from the P&#45;W Holland Wind model.">
<polygon fill="white" stroke="black" points="544,-267 544,-288 695,-288 695,-267 544,-267"/>
<text text-anchor="middle" x="619.5" y="-274.4" font-family="Helvetica,sans-Serif" font-size="12.00">parwind::gethollandfields</text>
</a>
</g>
</g>
<!-- Node8&#45;&gt;Node9 -->
<g id="edge9" class="edge">
<title>Node8&#45;&gt;Node9</title>
<path fill="none" stroke="midnightblue" d="M723.24,-288.42C713.85,-287.43 704.42,-286.42 695.28,-285.45"/>
<polygon fill="midnightblue" stroke="midnightblue" points="723.07,-291.93 733.38,-289.5 723.81,-284.96 723.07,-291.93"/>
</g>
<!-- Node10 -->
<g id="node10" class="node">
<title>Node10</title>
<g id="a_node10"><a xlink:href="namespacepahm__drivermod.html#a7ae4571521a5bb4eb55990dd7fb76237" target="_top" xlink:title="Subroutine to run PaHM (timestepping).">
<polygon fill="white" stroke="black" points="83,-201 83,-222 250,-222 250,-201 83,-201"/>
<text text-anchor="middle" x="166.5" y="-208.4" font-family="Helvetica,sans-Serif" font-size="12.00">pahm_drivermod::pahm_run</text>
</a>
</g>
</g>
<!-- Node9&#45;&gt;Node10 -->
<g id="edge10" class="edge">
<title>Node9&#45;&gt;Node10</title>
<path fill="none" stroke="midnightblue" d="M536.43,-265.49C451.62,-253.08 320.52,-233.89 239.58,-222.05"/>
<polygon fill="midnightblue" stroke="midnightblue" points="536.14,-268.98 546.54,-266.97 537.15,-262.06 536.14,-268.98"/>
</g>
<!-- Node10&#45;&gt;Node6 -->
<g id="edge11" class="edge">
<title>Node10&#45;&gt;Node6</title>
<path fill="none" stroke="midnightblue" d="M121.17,-197.98C96.6,-190.49 67.09,-181.49 47.19,-175.42"/>
<polygon fill="midnightblue" stroke="midnightblue" points="120.42,-201.41 131.01,-200.98 122.46,-194.72 120.42,-201.41"/>
</g>
<!-- Node12&#45;&gt;Node5 -->
<g id="edge15" class="edge">
<title>Node12&#45;&gt;Node5</title>
<path fill="none" stroke="midnightblue" d="M350.36,-94.88C307.22,-107.53 243.33,-126.26 203.62,-137.91"/>
<polygon fill="midnightblue" stroke="midnightblue" points="351.43,-98.21 360.05,-92.04 349.46,-91.5 351.43,-98.21"/>
</g>
<!-- Node13&#45;&gt;Node5 -->
<g id="edge17" class="edge">
<title>Node13&#45;&gt;Node5</title>
<path fill="none" stroke="midnightblue" d="M537.82,-132.9C456.36,-136.33 331.17,-141.6 249.3,-145.05"/>
<polygon fill="midnightblue" stroke="midnightblue" points="538.19,-136.39 548.03,-132.47 537.89,-129.39 538.19,-136.39"/>
</g>
<!-- Node15 -->
<g id="node15" class="node">
<title>Node15</title>
<g id="a_node15"><a xlink:href="interfacesortutils_1_1indexx.html#ae59fb4eaf41ea6af9149f9dc28df4421" target="_top" xlink:title="Indexes a 1D string array in ascending order.">
<polygon fill="white" stroke="black" points="567,-0.5 567,-34.5 672,-34.5 672,-0.5 567,-0.5"/>
<text text-anchor="start" x="575" y="-20.9" font-family="Helvetica,sans-Serif" font-size="12.00">sortutils::indexx::</text>
<text text-anchor="middle" x="619.5" y="-7.9" font-family="Helvetica,sans-Serif" font-size="12.00">indexxstring</text>
</a>
</g>
</g>
<!-- Node14&#45;&gt;Node15 -->
<g id="edge19" class="edge">
<title>Node14&#45;&gt;Node15</title>
<path fill="none" stroke="midnightblue" d="M739.49,-19.91C716.87,-19.45 692.77,-18.96 672.22,-18.55"/>
<polygon fill="midnightblue" stroke="midnightblue" points="739.69,-23.41 749.76,-20.12 739.83,-16.42 739.69,-23.41"/>
</g>
</g>
</svg>
