<?xml version="1.0" encoding="UTF-8" standalone="no"?>
<!DOCTYPE svg PUBLIC "-//W3C//DTD SVG 1.1//EN"
 "http://www.w3.org/Graphics/SVG/1.1/DTD/svg11.dtd">
<!-- Generated by graphviz version 2.42.4 (0)
 -->
<!-- Title: utilities::intscan Pages: 1 -->
<svg width="748pt" height="110pt"
 viewBox="0.00 0.00 748.00 110.00" xmlns="http://www.w3.org/2000/svg" xmlns:xlink="http://www.w3.org/1999/xlink">
<g id="graph0" class="graph" transform="scale(1 1) rotate(0) translate(4 106)">
<title>utilities::intscan</title>
<polygon fill="white" stroke="transparent" points="-4,4 -4,-106 744,-106 744,4 -4,4"/>
<!-- Node1 -->
<g id="node1" class="node">
<title>Node1</title>
<g id="a_node1"><a xlink:title="Scans string looking for the leading integer numeric string.">
<polygon fill="#bfbfbf" stroke="black" points="642,-40.5 642,-61.5 740,-61.5 740,-40.5 642,-40.5"/>
<text text-anchor="middle" x="691" y="-47.9" font-family="Helvetica,sans-Serif" font-size="12.00">utilities::intscan</text>
</a>
</g>
</g>
<!-- Node2 -->
<g id="node2" class="node">
<title>Node2</title>
<g id="a_node2"><a xlink:href="namespaceutilities.html#ac6d4fd461bd13f1ca73e75038fd09fc9" target="_top" xlink:title="Scans string looking for the leading double precision real numeric string.">
<polygon fill="white" stroke="black" points="493,-80.5 493,-101.5 606,-101.5 606,-80.5 493,-80.5"/>
<text text-anchor="middle" x="549.5" y="-87.9" font-family="Helvetica,sans-Serif" font-size="12.00">utilities::drealscan</text>
</a>
</g>
</g>
<!-- Node1&#45;&gt;Node2 -->
<g id="edge1" class="edge">
<title>Node1&#45;&gt;Node2</title>
<path fill="none" stroke="midnightblue" d="M643.49,-64.34C625.24,-69.57 604.59,-75.49 587.39,-80.42"/>
<polygon fill="midnightblue" stroke="midnightblue" points="644.7,-67.63 653.35,-61.51 642.77,-60.9 644.7,-67.63"/>
</g>
<!-- Node4 -->
<g id="node4" class="node">
<title>Node4</title>
<g id="a_node4"><a xlink:href="namespaceutilities.html#a2a5c60da3dadf9f6ef913709c07dbee7" target="_top" xlink:title="Returns the value of the leading integer numeric string.">
<polygon fill="white" stroke="black" points="498.5,-40.5 498.5,-61.5 600.5,-61.5 600.5,-40.5 498.5,-40.5"/>
<text text-anchor="middle" x="549.5" y="-47.9" font-family="Helvetica,sans-Serif" font-size="12.00">utilities::intvalstr</text>
</a>
</g>
</g>
<!-- Node1&#45;&gt;Node4 -->
<g id="edge3" class="edge">
<title>Node1&#45;&gt;Node4</title>
<path fill="none" stroke="midnightblue" d="M631.88,-51C621.61,-51 611.01,-51 600.97,-51"/>
<polygon fill="midnightblue" stroke="midnightblue" points="631.99,-54.5 641.99,-51 631.99,-47.5 631.99,-54.5"/>
</g>
<!-- Node8 -->
<g id="node8" class="node">
<title>Node8</title>
<g id="a_node8"><a xlink:href="namespaceutilities.html#a3101905bb797cb61841b9a73bbc419bb" target="_top" xlink:title="Scans string looking for the leading single precision real numeric string.">
<polygon fill="white" stroke="black" points="496.5,-0.5 496.5,-21.5 602.5,-21.5 602.5,-0.5 496.5,-0.5"/>
<text text-anchor="middle" x="549.5" y="-7.9" font-family="Helvetica,sans-Serif" font-size="12.00">utilities::realscan</text>
</a>
</g>
</g>
<!-- Node1&#45;&gt;Node8 -->
<g id="edge7" class="edge">
<title>Node1&#45;&gt;Node8</title>
<path fill="none" stroke="midnightblue" d="M643.49,-37.66C625.24,-32.43 604.59,-26.51 587.39,-21.58"/>
<polygon fill="midnightblue" stroke="midnightblue" points="642.77,-41.1 653.35,-40.49 644.7,-34.37 642.77,-41.1"/>
</g>
<!-- Node3 -->
<g id="node3" class="node">
<title>Node3</title>
<g id="a_node3"><a xlink:href="namespaceutilities.html#aad75f7f3cadcd2677693859a6d525ba2" target="_top" xlink:title="Returns the value of the leading double precision real numeric string.">
<polygon fill="white" stroke="black" points="323,-80.5 323,-101.5 418,-101.5 418,-80.5 323,-80.5"/>
<text text-anchor="middle" x="370.5" y="-87.9" font-family="Helvetica,sans-Serif" font-size="12.00">utilities::dvalstr</text>
</a>
</g>
</g>
<!-- Node2&#45;&gt;Node3 -->
<g id="edge2" class="edge">
<title>Node2&#45;&gt;Node3</title>
<path fill="none" stroke="midnightblue" d="M482.94,-91C461.44,-91 438,-91 418.2,-91"/>
<polygon fill="midnightblue" stroke="midnightblue" points="482.98,-94.5 492.98,-91 482.98,-87.5 482.98,-94.5"/>
</g>
<!-- Node5 -->
<g id="node5" class="node">
<title>Node5</title>
<g id="a_node5"><a xlink:href="namespaceparwind.html#a75c722a5d8fdb18014543923d7e4dcca" target="_top" xlink:title="Subroutine to read all a&#45;deck/b&#45;deck best track files (ATCF format).">
<polygon fill="white" stroke="black" points="284,-40.5 284,-61.5 457,-61.5 457,-40.5 284,-40.5"/>
<text text-anchor="middle" x="370.5" y="-47.9" font-family="Helvetica,sans-Serif" font-size="12.00">parwind::readcsvbesttrackfile</text>
</a>
</g>
</g>
<!-- Node4&#45;&gt;Node5 -->
<g id="edge4" class="edge">
<title>Node4&#45;&gt;Node5</title>
<path fill="none" stroke="midnightblue" d="M488.05,-51C478.05,-51 467.52,-51 457.04,-51"/>
<polygon fill="midnightblue" stroke="midnightblue" points="488.25,-54.5 498.25,-51 488.25,-47.5 488.25,-54.5"/>
</g>
<!-- Node6 -->
<g id="node6" class="node">
<title>Node6</title>
<g id="a_node6"><a xlink:href="namespacepahm__drivermod.html#ae0d4b223a96ba116b38152caf6b0768c" target="_top" xlink:title="Subroutine to initialize a PaHM run.">
<polygon fill="white" stroke="black" points="83,-40.5 83,-61.5 248,-61.5 248,-40.5 83,-40.5"/>
<text text-anchor="middle" x="165.5" y="-47.9" font-family="Helvetica,sans-Serif" font-size="12.00">pahm_drivermod::pahm_init</text>
</a>
</g>
</g>
<!-- Node5&#45;&gt;Node6 -->
<g id="edge5" class="edge">
<title>Node5&#45;&gt;Node6</title>
<path fill="none" stroke="midnightblue" d="M273.88,-51C265.23,-51 256.53,-51 248.01,-51"/>
<polygon fill="midnightblue" stroke="midnightblue" points="274,-54.5 284,-51 274,-47.5 274,-54.5"/>
</g>
<!-- Node7 -->
<g id="node7" class="node">
<title>Node7</title>
<g id="a_node7"><a xlink:href="pahm_8F90.html#a3d3918f5c5f1ac0a7991a7a78f530f30" target="_top" xlink:title=" ">
<polygon fill="white" stroke="black" points="0,-40.5 0,-61.5 47,-61.5 47,-40.5 0,-40.5"/>
<text text-anchor="middle" x="23.5" y="-47.9" font-family="Helvetica,sans-Serif" font-size="12.00">pahm</text>
</a>
</g>
</g>
<!-- Node6&#45;&gt;Node7 -->
<g id="edge6" class="edge">
<title>Node6&#45;&gt;Node7</title>
<path fill="none" stroke="midnightblue" d="M72.42,-51C63.15,-51 54.47,-51 47.1,-51"/>
<polygon fill="midnightblue" stroke="midnightblue" points="72.66,-54.5 82.66,-51 72.66,-47.5 72.66,-54.5"/>
</g>
<!-- Node9 -->
<g id="node9" class="node">
<title>Node9</title>
<g id="a_node9"><a xlink:href="namespaceutilities.html#af02043c76be30cc5e092ffaf0e28fb6d" target="_top" xlink:title="Returns the value of the leading double precision real numeric string.">
<polygon fill="white" stroke="black" points="326,-0.5 326,-21.5 415,-21.5 415,-0.5 326,-0.5"/>
<text text-anchor="middle" x="370.5" y="-7.9" font-family="Helvetica,sans-Serif" font-size="12.00">utilities::valstr</text>
</a>
</g>
</g>
<!-- Node8&#45;&gt;Node9 -->
<g id="edge8" class="edge">
<title>Node8&#45;&gt;Node9</title>
<path fill="none" stroke="midnightblue" d="M486.15,-11C462.72,-11 436.6,-11 415.22,-11"/>
<polygon fill="midnightblue" stroke="midnightblue" points="486.35,-14.5 496.35,-11 486.35,-7.5 486.35,-14.5"/>
</g>
</g>
</svg>
