<?xml version="1.0" encoding="UTF-8" standalone="no"?>
<!DOCTYPE svg PUBLIC "-//W3C//DTD SVG 1.1//EN"
 "http://www.w3.org/Graphics/SVG/1.1/DTD/svg11.dtd">
<!-- Generated by graphviz version 2.42.4 (0)
 -->
<!-- Title: parwind::writebesttrackdata Pages: 1 -->
<svg width="665pt" height="70pt"
 viewBox="0.00 0.00 665.00 70.00" xmlns="http://www.w3.org/2000/svg" xmlns:xlink="http://www.w3.org/1999/xlink">
<g id="graph0" class="graph" transform="scale(1 1) rotate(0) translate(4 66)">
<title>parwind::writebesttrackdata</title>
<polygon fill="white" stroke="transparent" points="-4,4 -4,-66 661,-66 661,4 -4,4"/>
<!-- Node1 -->
<g id="node1" class="node">
<title>Node1</title>
<g id="a_node1"><a xlink:title="Writes the best track data (adjusted or not) to the &quot;adjusted&quot; best track output file.">
<polygon fill="#bfbfbf" stroke="black" points="493,-20.5 493,-41.5 657,-41.5 657,-20.5 493,-20.5"/>
<text text-anchor="middle" x="575" y="-27.9" font-family="Helvetica,sans-Serif" font-size="12.00">parwind::writebesttrackdata</text>
</a>
</g>
</g>
<!-- Node2 -->
<g id="node2" class="node">
<title>Node2</title>
<g id="a_node2"><a xlink:href="namespaceparwind.html#abae6c098afd2135918a478b6b7b20673" target="_top" xlink:title="Subroutine to read all a&#45;deck/b&#45;deck best track files (ATCF format).">
<polygon fill="white" stroke="black" points="293,-40.5 293,-61.5 448,-61.5 448,-40.5 293,-40.5"/>
<text text-anchor="middle" x="370.5" y="-47.9" font-family="Helvetica,sans-Serif" font-size="12.00">parwind::readbesttrackfile</text>
</a>
</g>
</g>
<!-- Node1&#45;&gt;Node2 -->
<g id="edge1" class="edge">
<title>Node1&#45;&gt;Node2</title>
<path fill="none" stroke="midnightblue" d="M482.71,-40.02C471.15,-41.16 459.41,-42.32 448.12,-43.43"/>
<polygon fill="midnightblue" stroke="midnightblue" points="483.19,-43.49 492.8,-39.02 482.51,-36.52 483.19,-43.49"/>
</g>
<!-- Node3 -->
<g id="node3" class="node">
<title>Node3</title>
<g id="a_node3"><a xlink:href="namespaceparwind.html#a75c722a5d8fdb18014543923d7e4dcca" target="_top" xlink:title="Subroutine to read all a&#45;deck/b&#45;deck best track files (ATCF format).">
<polygon fill="white" stroke="black" points="284,-0.5 284,-21.5 457,-21.5 457,-0.5 284,-0.5"/>
<text text-anchor="middle" x="370.5" y="-7.9" font-family="Helvetica,sans-Serif" font-size="12.00">parwind::readcsvbesttrackfile</text>
</a>
</g>
</g>
<!-- Node1&#45;&gt;Node3 -->
<g id="edge2" class="edge">
<title>Node1&#45;&gt;Node3</title>
<path fill="none" stroke="midnightblue" d="M482.79,-21.99C474.22,-21.14 465.54,-20.29 457.02,-19.45"/>
<polygon fill="midnightblue" stroke="midnightblue" points="482.51,-25.48 492.8,-22.98 483.19,-18.51 482.51,-25.48"/>
</g>
<!-- Node4 -->
<g id="node4" class="node">
<title>Node4</title>
<g id="a_node4"><a xlink:href="namespacepahm__drivermod.html#ae0d4b223a96ba116b38152caf6b0768c" target="_top" xlink:title="Subroutine to initialize a PaHM run.">
<polygon fill="white" stroke="black" points="83,-0.5 83,-21.5 248,-21.5 248,-0.5 83,-0.5"/>
<text text-anchor="middle" x="165.5" y="-7.9" font-family="Helvetica,sans-Serif" font-size="12.00">pahm_drivermod::pahm_init</text>
</a>
</g>
</g>
<!-- Node3&#45;&gt;Node4 -->
<g id="edge3" class="edge">
<title>Node3&#45;&gt;Node4</title>
<path fill="none" stroke="midnightblue" d="M273.88,-11C265.23,-11 256.53,-11 248.01,-11"/>
<polygon fill="midnightblue" stroke="midnightblue" points="274,-14.5 284,-11 274,-7.5 274,-14.5"/>
</g>
<!-- Node5 -->
<g id="node5" class="node">
<title>Node5</title>
<g id="a_node5"><a xlink:href="pahm_8F90.html#a3d3918f5c5f1ac0a7991a7a78f530f30" target="_top" xlink:title=" ">
<polygon fill="white" stroke="black" points="0,-0.5 0,-21.5 47,-21.5 47,-0.5 0,-0.5"/>
<text text-anchor="middle" x="23.5" y="-7.9" font-family="Helvetica,sans-Serif" font-size="12.00">pahm</text>
</a>
</g>
</g>
<!-- Node4&#45;&gt;Node5 -->
<g id="edge4" class="edge">
<title>Node4&#45;&gt;Node5</title>
<path fill="none" stroke="midnightblue" d="M72.42,-11C63.15,-11 54.47,-11 47.1,-11"/>
<polygon fill="midnightblue" stroke="midnightblue" points="72.66,-14.5 82.66,-11 72.66,-7.5 72.66,-14.5"/>
</g>
</g>
</svg>
