<?xml version="1.0" encoding="UTF-8" standalone="no"?>
<!DOCTYPE svg PUBLIC "-//W3C//DTD SVG 1.1//EN"
 "http://www.w3.org/Graphics/SVG/1.1/DTD/svg11.dtd">
<!-- Generated by graphviz version 2.42.4 (0)
 -->
<!-- Title: timedateutils::datetime2string Pages: 1 -->
<svg width="974pt" height="70pt"
 viewBox="0.00 0.00 974.00 70.00" xmlns="http://www.w3.org/2000/svg" xmlns:xlink="http://www.w3.org/1999/xlink">
<g id="graph0" class="graph" transform="scale(1 1) rotate(0) translate(4 66)">
<title>timedateutils::datetime2string</title>
<polygon fill="white" stroke="transparent" points="-4,4 -4,-66 970,-66 970,4 -4,4"/>
<!-- Node1 -->
<g id="node1" class="node">
<title>Node1</title>
<g id="a_node1"><a xlink:title="Constructs a NetCDF time string.">
<polygon fill="#bfbfbf" stroke="black" points="794,-20.5 794,-41.5 966,-41.5 966,-20.5 794,-20.5"/>
<text text-anchor="middle" x="880" y="-27.9" font-family="Helvetica,sans-Serif" font-size="12.00">timedateutils::datetime2string</text>
</a>
</g>
</g>
<!-- Node2 -->
<g id="node2" class="node">
<title>Node2</title>
<g id="a_node2"><a xlink:href="namespacepahm__netcdfio.html#a21917504b7e9d5594375d1a48bb4cb8f" target="_top" xlink:title="Initializes a new NetCDF data file and puts it in define mode. Sets up netCDF dimensions and variable...">
<polygon fill="white" stroke="black" points="544,-40.5 544,-61.5 758,-61.5 758,-40.5 544,-40.5"/>
<text text-anchor="middle" x="651" y="-47.9" font-family="Helvetica,sans-Serif" font-size="12.00">pahm_netcdfio::initadcircnetcdfoutfile</text>
</a>
</g>
</g>
<!-- Node1&#45;&gt;Node2 -->
<g id="edge1" class="edge">
<title>Node1&#45;&gt;Node2</title>
<path fill="none" stroke="midnightblue" d="M783.7,-39.4C775.33,-40.13 766.82,-40.88 758.37,-41.63"/>
<polygon fill="midnightblue" stroke="midnightblue" points="784.17,-42.87 793.83,-38.5 783.56,-35.9 784.17,-42.87"/>
</g>
<!-- Node5 -->
<g id="node5" class="node">
<title>Node5</title>
<g id="a_node5"><a xlink:href="namespaceutilities.html#ab095172ef12ae151ab5c9aacf82f4dc6" target="_top" xlink:title="This subroutine reads the program&#39;s main control file.">
<polygon fill="white" stroke="black" points="583,-0.5 583,-21.5 719,-21.5 719,-0.5 583,-0.5"/>
<text text-anchor="middle" x="651" y="-7.9" font-family="Helvetica,sans-Serif" font-size="12.00">utilities::readcontrolfile</text>
</a>
</g>
</g>
<!-- Node1&#45;&gt;Node5 -->
<g id="edge4" class="edge">
<title>Node1&#45;&gt;Node5</title>
<path fill="none" stroke="midnightblue" d="M783.62,-22.6C761.97,-20.69 739.41,-18.7 719.21,-16.92"/>
<polygon fill="midnightblue" stroke="midnightblue" points="783.56,-26.1 793.83,-23.5 784.17,-19.13 783.56,-26.1"/>
</g>
<!-- Node3 -->
<g id="node3" class="node">
<title>Node3</title>
<g id="a_node3"><a xlink:href="namespacepahm__drivermod.html#a7ae4571521a5bb4eb55990dd7fb76237" target="_top" xlink:title="Subroutine to run PaHM (timestepping).">
<polygon fill="white" stroke="black" points="83,-40.5 83,-61.5 250,-61.5 250,-40.5 83,-40.5"/>
<text text-anchor="middle" x="166.5" y="-47.9" font-family="Helvetica,sans-Serif" font-size="12.00">pahm_drivermod::pahm_run</text>
</a>
</g>
</g>
<!-- Node2&#45;&gt;Node3 -->
<g id="edge2" class="edge">
<title>Node2&#45;&gt;Node3</title>
<path fill="none" stroke="midnightblue" d="M533.57,-51C446.06,-51 328.3,-51 250.25,-51"/>
<polygon fill="midnightblue" stroke="midnightblue" points="533.81,-54.5 543.81,-51 533.81,-47.5 533.81,-54.5"/>
</g>
<!-- Node4 -->
<g id="node4" class="node">
<title>Node4</title>
<g id="a_node4"><a xlink:href="pahm_8F90.html#a3d3918f5c5f1ac0a7991a7a78f530f30" target="_top" xlink:title=" ">
<polygon fill="white" stroke="black" points="0,-20.5 0,-41.5 47,-41.5 47,-20.5 0,-20.5"/>
<text text-anchor="middle" x="23.5" y="-27.9" font-family="Helvetica,sans-Serif" font-size="12.00">pahm</text>
</a>
</g>
</g>
<!-- Node3&#45;&gt;Node4 -->
<g id="edge3" class="edge">
<title>Node3&#45;&gt;Node4</title>
<path fill="none" stroke="midnightblue" d="M81.19,-39.04C68.72,-37.27 56.86,-35.59 47.23,-34.22"/>
<polygon fill="midnightblue" stroke="midnightblue" points="80.89,-42.53 91.28,-40.47 81.87,-35.6 80.89,-42.53"/>
</g>
<!-- Node6 -->
<g id="node6" class="node">
<title>Node6</title>
<g id="a_node6"><a xlink:href="namespacepahm__drivermod.html#a3294ddc68b72ff9220010a8764a8afe3" target="_top" xlink:title="Prints on the screen the help system of the PaHM program.">
<polygon fill="white" stroke="black" points="286,-0.5 286,-21.5 508,-21.5 508,-0.5 286,-0.5"/>
<text text-anchor="middle" x="397" y="-7.9" font-family="Helvetica,sans-Serif" font-size="12.00">pahm_drivermod::getprogramcmdlargs</text>
</a>
</g>
</g>
<!-- Node5&#45;&gt;Node6 -->
<g id="edge5" class="edge">
<title>Node5&#45;&gt;Node6</title>
<path fill="none" stroke="midnightblue" d="M572.68,-11C552.34,-11 530.01,-11 508.31,-11"/>
<polygon fill="midnightblue" stroke="midnightblue" points="572.8,-14.5 582.8,-11 572.8,-7.5 572.8,-14.5"/>
</g>
<!-- Node7 -->
<g id="node7" class="node">
<title>Node7</title>
<g id="a_node7"><a xlink:href="namespacepahm__drivermod.html#ae0d4b223a96ba116b38152caf6b0768c" target="_top" xlink:title="Subroutine to initialize a PaHM run.">
<polygon fill="white" stroke="black" points="84,-0.5 84,-21.5 249,-21.5 249,-0.5 84,-0.5"/>
<text text-anchor="middle" x="166.5" y="-7.9" font-family="Helvetica,sans-Serif" font-size="12.00">pahm_drivermod::pahm_init</text>
</a>
</g>
</g>
<!-- Node6&#45;&gt;Node7 -->
<g id="edge6" class="edge">
<title>Node6&#45;&gt;Node7</title>
<path fill="none" stroke="midnightblue" d="M275.65,-11C266.7,-11 257.81,-11 249.18,-11"/>
<polygon fill="midnightblue" stroke="midnightblue" points="275.77,-14.5 285.77,-11 275.77,-7.5 275.77,-14.5"/>
</g>
<!-- Node7&#45;&gt;Node4 -->
<g id="edge7" class="edge">
<title>Node7&#45;&gt;Node4</title>
<path fill="none" stroke="midnightblue" d="M81.19,-22.96C68.72,-24.73 56.86,-26.41 47.23,-27.78"/>
<polygon fill="midnightblue" stroke="midnightblue" points="81.87,-26.4 91.28,-21.53 80.89,-19.47 81.87,-26.4"/>
</g>
</g>
</svg>
