<?xml version="1.0" encoding="UTF-8" standalone="no"?>
<!DOCTYPE svg PUBLIC "-//W3C//DTD SVG 1.1//EN"
 "http://www.w3.org/Graphics/SVG/1.1/DTD/svg11.dtd">
<!-- Generated by graphviz version 2.42.4 (0)
 -->
<!-- Title: csv_utilities::sort_ascending Pages: 1 -->
<svg width="438pt" height="43pt"
 viewBox="0.00 0.00 438.00 43.00" xmlns="http://www.w3.org/2000/svg" xmlns:xlink="http://www.w3.org/1999/xlink">
<g id="graph0" class="graph" transform="scale(1 1) rotate(0) translate(4 39)">
<title>csv_utilities::sort_ascending</title>
<polygon fill="white" stroke="transparent" points="-4,4 -4,-39 434,-39 434,4 -4,4"/>
<!-- Node1 -->
<g id="node1" class="node">
<title>Node1</title>
<g id="a_node1"><a xlink:title="Sorts an integer array ivec in increasing order. Uses a basic recursive quicksort (with insertion sor...">
<polygon fill="#bfbfbf" stroke="black" points="325,-0.5 325,-34.5 430,-34.5 430,-0.5 325,-0.5"/>
<text text-anchor="start" x="333" y="-20.9" font-family="Helvetica,sans-Serif" font-size="12.00">csv_utilities::sort</text>
<text text-anchor="middle" x="377.5" y="-7.9" font-family="Helvetica,sans-Serif" font-size="12.00">_ascending</text>
</a>
</g>
</g>
<!-- Node2 -->
<g id="node2" class="node">
<title>Node2</title>
<g id="a_node2"><a xlink:href="namespacecsv__utilities.html#a6c1f008f2a5f0ec6727aa9627a9e7bc4" target="_top" xlink:title="Returns only the unique elements of the vector.">
<polygon fill="white" stroke="black" points="167,-7 167,-28 289,-28 289,-7 167,-7"/>
<text text-anchor="middle" x="228" y="-14.4" font-family="Helvetica,sans-Serif" font-size="12.00">csv_utilities::unique</text>
</a>
</g>
</g>
<!-- Node1&#45;&gt;Node2 -->
<g id="edge1" class="edge">
<title>Node1&#45;&gt;Node2</title>
<path fill="none" stroke="midnightblue" d="M314.73,-17.5C306.27,-17.5 297.59,-17.5 289.16,-17.5"/>
<polygon fill="midnightblue" stroke="midnightblue" points="314.91,-21 324.91,-17.5 314.91,-14 314.91,-21"/>
</g>
<!-- Node3 -->
<g id="node3" class="node">
<title>Node3</title>
<g id="a_node3"><a xlink:href="namespacecsv__module.html#a9813e1ff838ed6024c464bb5c443bada" target="_top" xlink:title="Initialize a [[csv_file(type)]].">
<polygon fill="white" stroke="black" points="0,-0.5 0,-34.5 131,-34.5 131,-0.5 0,-0.5"/>
<text text-anchor="start" x="8" y="-20.9" font-family="Helvetica,sans-Serif" font-size="12.00">csv_module::initialize</text>
<text text-anchor="middle" x="65.5" y="-7.9" font-family="Helvetica,sans-Serif" font-size="12.00">_csv_file</text>
</a>
</g>
</g>
<!-- Node2&#45;&gt;Node3 -->
<g id="edge2" class="edge">
<title>Node2&#45;&gt;Node3</title>
<path fill="none" stroke="midnightblue" d="M156.55,-17.5C148.08,-17.5 139.47,-17.5 131.09,-17.5"/>
<polygon fill="midnightblue" stroke="midnightblue" points="156.78,-21 166.78,-17.5 156.78,-14 156.78,-21"/>
</g>
</g>
</svg>
