<?xml version="1.0" encoding="UTF-8" standalone="no"?>
<!DOCTYPE svg PUBLIC "-//W3C//DTD SVG 1.1//EN"
 "http://www.w3.org/Graphics/SVG/1.1/DTD/svg11.dtd">
<!-- Generated by graphviz version 2.42.4 (0)
 -->
<!-- Title: utilities::openfileforread Pages: 1 -->
<svg width="412pt" height="70pt"
 viewBox="0.00 0.00 412.00 70.00" xmlns="http://www.w3.org/2000/svg" xmlns:xlink="http://www.w3.org/1999/xlink">
<g id="graph0" class="graph" transform="scale(1 1) rotate(0) translate(4 66)">
<title>utilities::openfileforread</title>
<polygon fill="white" stroke="transparent" points="-4,4 -4,-66 408,-66 408,4 -4,4"/>
<!-- Node1 -->
<g id="node1" class="node">
<title>Node1</title>
<g id="a_node1"><a xlink:title="This subroutine opens an existing file for reading.">
<polygon fill="#bfbfbf" stroke="black" points="0,-20.5 0,-41.5 140,-41.5 140,-20.5 0,-20.5"/>
<text text-anchor="middle" x="70" y="-27.9" font-family="Helvetica,sans-Serif" font-size="12.00">utilities::openfileforread</text>
</a>
</g>
</g>
<!-- Node2 -->
<g id="node2" class="node">
<title>Node2</title>
<g id="a_node2"><a xlink:href="namespacepahm__messages.html#acf0c696cc1604842ee84a5df6d81179c" target="_top" xlink:title="Sets the name of the subroutine that is writing log and/or screen messages.">
<polygon fill="white" stroke="black" points="182.5,-40.5 182.5,-61.5 397.5,-61.5 397.5,-40.5 182.5,-40.5"/>
<text text-anchor="middle" x="290" y="-47.9" font-family="Helvetica,sans-Serif" font-size="12.00">pahm_messages::setmessagesource</text>
</a>
</g>
</g>
<!-- Node1&#45;&gt;Node2 -->
<g id="edge1" class="edge">
<title>Node1&#45;&gt;Node2</title>
<path fill="none" stroke="midnightblue" d="M140.28,-37.36C150.59,-38.3 161.44,-39.3 172.4,-40.3"/>
<polygon fill="midnightblue" stroke="midnightblue" points="172.21,-43.8 182.49,-41.23 172.85,-36.83 172.21,-43.8"/>
</g>
<!-- Node3 -->
<g id="node3" class="node">
<title>Node3</title>
<g id="a_node3"><a xlink:href="namespacepahm__messages.html#ad35e9f2327aad65d4c669e3d886f54dc" target="_top" xlink:title="Removes the name of the subroutine that is no longer active.">
<polygon fill="white" stroke="black" points="176,-0.5 176,-21.5 404,-21.5 404,-0.5 176,-0.5"/>
<text text-anchor="middle" x="290" y="-7.9" font-family="Helvetica,sans-Serif" font-size="12.00">pahm_messages::unsetmessagesource</text>
</a>
</g>
</g>
<!-- Node1&#45;&gt;Node3 -->
<g id="edge2" class="edge">
<title>Node1&#45;&gt;Node3</title>
<path fill="none" stroke="midnightblue" d="M140.28,-24.64C148.43,-23.9 156.93,-23.12 165.55,-22.33"/>
<polygon fill="midnightblue" stroke="midnightblue" points="166.07,-25.79 175.71,-21.39 165.44,-18.82 166.07,-25.79"/>
</g>
</g>
</svg>
