<?xml version="1.0" encoding="UTF-8" standalone="no"?>
<!DOCTYPE svg PUBLIC "-//W3C//DTD SVG 1.1//EN"
 "http://www.w3.org/Graphics/SVG/1.1/DTD/svg11.dtd">
<!-- Generated by graphviz version 2.42.4 (0)
 -->
<!-- Title: pahm_vortex::fang Pages: 1 -->
<svg width="274pt" height="70pt"
 viewBox="0.00 0.00 274.00 70.00" xmlns="http://www.w3.org/2000/svg" xmlns:xlink="http://www.w3.org/1999/xlink">
<g id="graph0" class="graph" transform="scale(1 1) rotate(0) translate(4 66)">
<title>pahm_vortex::fang</title>
<polygon fill="white" stroke="transparent" points="-4,4 -4,-66 270,-66 270,4 -4,4"/>
<!-- Node1 -->
<g id="node1" class="node">
<title>Node1</title>
<g id="a_node1"><a xlink:title="Compute a wind angle to parameterize frictional inflow across isobars.">
<polygon fill="#bfbfbf" stroke="black" points="151,-20.5 151,-41.5 266,-41.5 266,-20.5 151,-20.5"/>
<text text-anchor="middle" x="208.5" y="-27.9" font-family="Helvetica,sans-Serif" font-size="12.00">pahm_vortex::fang</text>
</a>
</g>
</g>
<!-- Node2 -->
<g id="node2" class="node">
<title>Node2</title>
<g id="a_node2"><a xlink:href="namespacepahm__vortex.html#a90ff68ab89a00a014a2429d42758a3f5" target="_top" xlink:title="Calculate (u, v) wind components and surface pressure from an asymmetric hurricane wind model.">
<polygon fill="white" stroke="black" points="2,-40.5 2,-61.5 113,-61.5 113,-40.5 2,-40.5"/>
<text text-anchor="middle" x="57.5" y="-47.9" font-family="Helvetica,sans-Serif" font-size="12.00">pahm_vortex::uvp</text>
</a>
</g>
</g>
<!-- Node1&#45;&gt;Node2 -->
<g id="edge1" class="edge">
<title>Node1&#45;&gt;Node2</title>
<path fill="none" stroke="midnightblue" d="M140.8,-39.95C131.54,-41.2 122.13,-42.46 113.13,-43.67"/>
<polygon fill="midnightblue" stroke="midnightblue" points="141.3,-43.42 150.74,-38.62 140.37,-36.48 141.3,-43.42"/>
</g>
<!-- Node3 -->
<g id="node3" class="node">
<title>Node3</title>
<g id="a_node3"><a xlink:href="namespacepahm__vortex.html#add2e19299be51bde3c016c4702653eb0" target="_top" xlink:title="Calculate (u, v) wind components and surface pressure from an asymmetric hurricane wind model.">
<polygon fill="white" stroke="black" points="0,-0.5 0,-21.5 115,-21.5 115,-0.5 0,-0.5"/>
<text text-anchor="middle" x="57.5" y="-7.9" font-family="Helvetica,sans-Serif" font-size="12.00">pahm_vortex::uvpr</text>
</a>
</g>
</g>
<!-- Node1&#45;&gt;Node3 -->
<g id="edge2" class="edge">
<title>Node1&#45;&gt;Node3</title>
<path fill="none" stroke="midnightblue" d="M140.77,-22.04C132.2,-20.89 123.49,-19.72 115.1,-18.6"/>
<polygon fill="midnightblue" stroke="midnightblue" points="140.37,-25.52 150.74,-23.38 141.3,-18.58 140.37,-25.52"/>
</g>
</g>
</svg>
