<?xml version="1.0" encoding="UTF-8" standalone="no"?>
<!DOCTYPE svg PUBLIC "-//W3C//DTD SVG 1.1//EN"
 "http://www.w3.org/Graphics/SVG/1.1/DTD/svg11.dtd">
<!-- Generated by graphviz version 2.42.4 (0)
 -->
<!-- Title: pahm_mesh::readmesh Pages: 1 -->
<svg width="949pt" height="252pt"
 viewBox="0.00 0.00 949.00 251.98" xmlns="http://www.w3.org/2000/svg" xmlns:xlink="http://www.w3.org/1999/xlink">
<g id="graph0" class="graph" transform="scale(1 1) rotate(0) translate(4 247.98)">
<title>pahm_mesh::readmesh</title>
<polygon fill="white" stroke="transparent" points="-4,4 -4,-247.98 945,-247.98 945,4 -4,4"/>
<!-- Node1 -->
<g id="node1" class="node">
<title>Node1</title>
<g id="a_node1"><a xlink:title="Reads an input mesh file for the specified supported model type.">
<polygon fill="#bfbfbf" stroke="black" points="0,-78.5 0,-99.5 142,-99.5 142,-78.5 0,-78.5"/>
<text text-anchor="middle" x="71" y="-85.9" font-family="Helvetica,sans-Serif" font-size="12.00">pahm_mesh::readmesh</text>
</a>
</g>
</g>
<!-- Node2 -->
<g id="node2" class="node">
<title>Node2</title>
<g id="a_node2"><a xlink:href="namespacepahm__mesh.html#af53257d02ceb6ebe4349de40187496d6" target="_top" xlink:title="Reads the ADCIRC fort.14 mesh file.">
<polygon fill="white" stroke="black" points="178,-138.5 178,-159.5 375,-159.5 375,-138.5 178,-138.5"/>
<text text-anchor="middle" x="276.5" y="-145.9" font-family="Helvetica,sans-Serif" font-size="12.00">pahm_mesh::readmeshasciifort14</text>
</a>
</g>
</g>
<!-- Node1&#45;&gt;Node2 -->
<g id="edge1" class="edge">
<title>Node1&#45;&gt;Node2</title>
<path fill="none" stroke="midnightblue" d="M107.91,-99.59C141.81,-109.58 192.79,-124.61 229.62,-135.47"/>
<polygon fill="midnightblue" stroke="midnightblue" points="229.02,-138.95 239.6,-138.42 231,-132.23 229.02,-138.95"/>
</g>
<!-- Node5 -->
<g id="node5" class="node">
<title>Node5</title>
<g id="a_node5"><a xlink:href="namespacepahm__messages.html#acf0c696cc1604842ee84a5df6d81179c" target="_top" xlink:title="Sets the name of the subroutine that is writing log and/or screen messages.">
<polygon fill="white" stroke="black" points="719.5,-137.5 719.5,-158.5 934.5,-158.5 934.5,-137.5 719.5,-137.5"/>
<text text-anchor="middle" x="827" y="-144.9" font-family="Helvetica,sans-Serif" font-size="12.00">pahm_messages::setmessagesource</text>
</a>
</g>
</g>
<!-- Node1&#45;&gt;Node5 -->
<g id="edge7" class="edge">
<title>Node1&#45;&gt;Node5</title>
<path fill="none" stroke="midnightblue" d="M82.76,-99.53C100.88,-116.67 139.3,-150.53 178,-169 274.31,-214.96 305.08,-214.01 411,-227 528.34,-241.39 562.27,-255.53 677,-227 725.46,-214.95 775.48,-183.89 803.47,-164.5"/>
<polygon fill="midnightblue" stroke="midnightblue" points="805.61,-167.28 811.76,-158.66 801.57,-161.56 805.61,-167.28"/>
</g>
<!-- Node6 -->
<g id="node6" class="node">
<title>Node6</title>
<g id="a_node6"><a xlink:href="namespacepahm__messages.html#ad35e9f2327aad65d4c669e3d886f54dc" target="_top" xlink:title="Removes the name of the subroutine that is no longer active.">
<polygon fill="white" stroke="black" points="713,-78.5 713,-99.5 941,-99.5 941,-78.5 713,-78.5"/>
<text text-anchor="middle" x="827" y="-85.9" font-family="Helvetica,sans-Serif" font-size="12.00">pahm_messages::unsetmessagesource</text>
</a>
</g>
</g>
<!-- Node1&#45;&gt;Node6 -->
<g id="edge12" class="edge">
<title>Node1&#45;&gt;Node6</title>
<path fill="none" stroke="midnightblue" d="M142.4,-82.13C255.31,-72.12 483.8,-56.09 677,-69 701.38,-70.63 727.86,-73.74 751.64,-77.03"/>
<polygon fill="midnightblue" stroke="midnightblue" points="751.26,-80.52 761.65,-78.45 752.24,-73.58 751.26,-80.52"/>
</g>
<!-- Node7 -->
<g id="node7" class="node">
<title>Node7</title>
<g id="a_node7"><a xlink:href="namespacepahm__messages.html#a8fdeeba7e0469ebda6435518f619444b" target="_top" xlink:title="Terminates the calling program when a fatal error is encountered.">
<polygon fill="white" stroke="black" points="462,-78.5 462,-99.5 626,-99.5 626,-78.5 462,-78.5"/>
<text text-anchor="middle" x="544" y="-85.9" font-family="Helvetica,sans-Serif" font-size="12.00">pahm_messages::terminate</text>
</a>
</g>
</g>
<!-- Node1&#45;&gt;Node7 -->
<g id="edge8" class="edge">
<title>Node1&#45;&gt;Node7</title>
<path fill="none" stroke="midnightblue" d="M142,-89C224.3,-89 361.1,-89 451.67,-89"/>
<polygon fill="midnightblue" stroke="midnightblue" points="451.93,-92.5 461.93,-89 451.93,-85.5 451.93,-92.5"/>
</g>
<!-- Node8 -->
<g id="node8" class="node">
<title>Node8</title>
<g id="a_node8"><a xlink:href="namespaceutilities.html#a8dff395c74e87d059dadcf8bacdbfedd" target="_top" xlink:title="Convert a string to upper&#45;case.">
<polygon fill="white" stroke="black" points="213.5,-0.5 213.5,-21.5 339.5,-21.5 339.5,-0.5 213.5,-0.5"/>
<text text-anchor="middle" x="276.5" y="-7.9" font-family="Helvetica,sans-Serif" font-size="12.00">utilities::touppercase</text>
</a>
</g>
</g>
<!-- Node1&#45;&gt;Node8 -->
<g id="edge11" class="edge">
<title>Node1&#45;&gt;Node8</title>
<path fill="none" stroke="midnightblue" d="M90.23,-78.38C110.93,-66.68 146,-47.95 178,-36 190.01,-31.51 203.15,-27.55 215.78,-24.17"/>
<polygon fill="midnightblue" stroke="midnightblue" points="216.96,-27.48 225.77,-21.59 215.21,-20.7 216.96,-27.48"/>
</g>
<!-- Node3 -->
<g id="node3" class="node">
<title>Node3</title>
<g id="a_node3"><a xlink:href="namespacepahm__mesh.html#a3ac2350cf2b06f708810684f67950e69" target="_top" xlink:title="Allocates memory to mesh arrays.">
<polygon fill="white" stroke="black" points="411,-196.5 411,-217.5 677,-217.5 677,-196.5 411,-196.5"/>
<text text-anchor="middle" x="544" y="-203.9" font-family="Helvetica,sans-Serif" font-size="12.00">pahm_mesh::allocatenodalandelementalarrays</text>
</a>
</g>
</g>
<!-- Node2&#45;&gt;Node3 -->
<g id="edge2" class="edge">
<title>Node2&#45;&gt;Node3</title>
<path fill="none" stroke="midnightblue" d="M317.67,-159.54C344.11,-166.33 379.51,-175.13 411,-182 431.27,-186.42 453.4,-190.79 473.64,-194.61"/>
<polygon fill="midnightblue" stroke="midnightblue" points="473.25,-198.09 483.72,-196.49 474.53,-191.21 473.25,-198.09"/>
</g>
<!-- Node4 -->
<g id="node4" class="node">
<title>Node4</title>
<g id="a_node4"><a xlink:href="namespaceutilities.html#a2a41067ed5533ec0c36318e8f1e960bf" target="_top" xlink:title="This subroutine opens an existing file for reading.">
<polygon fill="white" stroke="black" points="474,-118.5 474,-139.5 614,-139.5 614,-118.5 474,-118.5"/>
<text text-anchor="middle" x="544" y="-125.9" font-family="Helvetica,sans-Serif" font-size="12.00">utilities::openfileforread</text>
</a>
</g>
</g>
<!-- Node2&#45;&gt;Node4 -->
<g id="edge3" class="edge">
<title>Node2&#45;&gt;Node4</title>
<path fill="none" stroke="midnightblue" d="M375.23,-141.64C404.33,-139.45 435.85,-137.07 463.63,-134.98"/>
<polygon fill="midnightblue" stroke="midnightblue" points="463.98,-138.46 473.69,-134.22 463.45,-131.48 463.98,-138.46"/>
</g>
<!-- Node2&#45;&gt;Node5 -->
<g id="edge6" class="edge">
<title>Node2&#45;&gt;Node5</title>
<path fill="none" stroke="midnightblue" d="M375.19,-149.18C456.07,-149.29 574,-149.35 677,-149 687.5,-148.96 698.41,-148.92 709.34,-148.86"/>
<polygon fill="midnightblue" stroke="midnightblue" points="709.4,-152.36 719.38,-148.8 709.36,-145.36 709.4,-152.36"/>
</g>
<!-- Node4&#45;&gt;Node5 -->
<g id="edge4" class="edge">
<title>Node4&#45;&gt;Node5</title>
<path fill="none" stroke="midnightblue" d="M614.1,-133.67C642.82,-135.61 676.95,-137.92 709.35,-140.11"/>
<polygon fill="midnightblue" stroke="midnightblue" points="709.13,-143.61 719.34,-140.79 709.6,-136.62 709.13,-143.61"/>
</g>
<!-- Node4&#45;&gt;Node6 -->
<g id="edge5" class="edge">
<title>Node4&#45;&gt;Node6</title>
<path fill="none" stroke="midnightblue" d="M614.1,-119.16C652.68,-113.67 701.05,-106.79 741.83,-100.98"/>
<polygon fill="midnightblue" stroke="midnightblue" points="742.34,-104.44 751.75,-99.57 741.36,-97.51 742.34,-104.44"/>
</g>
<!-- Node7&#45;&gt;Node5 -->
<g id="edge9" class="edge">
<title>Node7&#45;&gt;Node5</title>
<path fill="none" stroke="midnightblue" d="M623.77,-99.54C641.35,-102.28 659.86,-105.47 677,-109 711.91,-116.19 750.85,-126.47 780.17,-134.66"/>
<polygon fill="midnightblue" stroke="midnightblue" points="779.55,-138.12 790.12,-137.47 781.45,-131.39 779.55,-138.12"/>
</g>
<!-- Node7&#45;&gt;Node6 -->
<g id="edge10" class="edge">
<title>Node7&#45;&gt;Node6</title>
<path fill="none" stroke="midnightblue" d="M626.28,-89C650.1,-89 676.71,-89 702.54,-89"/>
<polygon fill="midnightblue" stroke="midnightblue" points="702.77,-92.5 712.77,-89 702.77,-85.5 702.77,-92.5"/>
</g>
</g>
</svg>
