<?xml version="1.0" encoding="UTF-8" standalone="no"?>
<!DOCTYPE svg PUBLIC "-//W3C//DTD SVG 1.1//EN"
 "http://www.w3.org/Graphics/SVG/1.1/DTD/svg11.dtd">
<!-- Generated by graphviz version 2.42.4 (0)
 -->
<!-- Title: pahm_vortex::rotate Pages: 1 -->
<svg width="281pt" height="70pt"
 viewBox="0.00 0.00 281.00 70.00" xmlns="http://www.w3.org/2000/svg" xmlns:xlink="http://www.w3.org/1999/xlink">
<g id="graph0" class="graph" transform="scale(1 1) rotate(0) translate(4 66)">
<title>pahm_vortex::rotate</title>
<polygon fill="white" stroke="transparent" points="-4,4 -4,-66 277,-66 277,4 -4,4"/>
<!-- Node1 -->
<g id="node1" class="node">
<title>Node1</title>
<g id="a_node1"><a xlink:title="Rotate a 2D vector (x, y) by an angle.">
<polygon fill="#bfbfbf" stroke="black" points="151,-20.5 151,-41.5 273,-41.5 273,-20.5 151,-20.5"/>
<text text-anchor="middle" x="212" y="-27.9" font-family="Helvetica,sans-Serif" font-size="12.00">pahm_vortex::rotate</text>
</a>
</g>
</g>
<!-- Node2 -->
<g id="node2" class="node">
<title>Node2</title>
<g id="a_node2"><a xlink:href="namespacepahm__vortex.html#a90ff68ab89a00a014a2429d42758a3f5" target="_top" xlink:title="Calculate (u, v) wind components and surface pressure from an asymmetric hurricane wind model.">
<polygon fill="white" stroke="black" points="2,-40.5 2,-61.5 113,-61.5 113,-40.5 2,-40.5"/>
<text text-anchor="middle" x="57.5" y="-47.9" font-family="Helvetica,sans-Serif" font-size="12.00">pahm_vortex::uvp</text>
</a>
</g>
</g>
<!-- Node1&#45;&gt;Node2 -->
<g id="edge1" class="edge">
<title>Node1&#45;&gt;Node2</title>
<path fill="none" stroke="midnightblue" d="M140.81,-40.21C131.61,-41.41 122.28,-42.64 113.38,-43.8"/>
<polygon fill="midnightblue" stroke="midnightblue" points="141.27,-43.68 150.73,-38.9 140.36,-36.73 141.27,-43.68"/>
</g>
<!-- Node3 -->
<g id="node3" class="node">
<title>Node3</title>
<g id="a_node3"><a xlink:href="namespacepahm__vortex.html#add2e19299be51bde3c016c4702653eb0" target="_top" xlink:title="Calculate (u, v) wind components and surface pressure from an asymmetric hurricane wind model.">
<polygon fill="white" stroke="black" points="0,-0.5 0,-21.5 115,-21.5 115,-0.5 0,-0.5"/>
<text text-anchor="middle" x="57.5" y="-7.9" font-family="Helvetica,sans-Serif" font-size="12.00">pahm_vortex::uvpr</text>
</a>
</g>
</g>
<!-- Node1&#45;&gt;Node3 -->
<g id="edge2" class="edge">
<title>Node1&#45;&gt;Node3</title>
<path fill="none" stroke="midnightblue" d="M140.8,-21.79C132.27,-20.68 123.65,-19.54 115.35,-18.46"/>
<polygon fill="midnightblue" stroke="midnightblue" points="140.36,-25.27 150.73,-23.1 141.27,-18.32 140.36,-25.27"/>
</g>
</g>
</svg>
