<?xml version="1.0" encoding="UTF-8" standalone="no"?>
<!DOCTYPE svg PUBLIC "-//W3C//DTD SVG 1.1//EN"
 "http://www.w3.org/Graphics/SVG/1.1/DTD/svg11.dtd">
<!-- Generated by graphviz version 2.42.4 (0)
 -->
<!-- Title: csv_utilities::unique Pages: 1 -->
<svg width="290pt" height="96pt"
 viewBox="0.00 0.00 290.00 96.00" xmlns="http://www.w3.org/2000/svg" xmlns:xlink="http://www.w3.org/1999/xlink">
<g id="graph0" class="graph" transform="scale(1 1) rotate(0) translate(4 92)">
<title>csv_utilities::unique</title>
<polygon fill="white" stroke="transparent" points="-4,4 -4,-92 286,-92 286,4 -4,4"/>
<!-- Node1 -->
<g id="node1" class="node">
<title>Node1</title>
<g id="a_node1"><a xlink:title="Returns only the unique elements of the vector.">
<polygon fill="#bfbfbf" stroke="black" points="0,-33 0,-54 122,-54 122,-33 0,-33"/>
<text text-anchor="middle" x="61" y="-40.4" font-family="Helvetica,sans-Serif" font-size="12.00">csv_utilities::unique</text>
</a>
</g>
</g>
<!-- Node2 -->
<g id="node2" class="node">
<title>Node2</title>
<g id="a_node2"><a xlink:href="namespacecsv__utilities.html#a6e82721fc2fc96ab10ca4a32547e1c88" target="_top" xlink:title="Add elements to the integer vector in chunks.">
<polygon fill="white" stroke="black" points="158,-53.5 158,-87.5 282,-87.5 282,-53.5 158,-53.5"/>
<text text-anchor="start" x="166" y="-73.9" font-family="Helvetica,sans-Serif" font-size="12.00">csv_utilities::expand</text>
<text text-anchor="middle" x="220" y="-60.9" font-family="Helvetica,sans-Serif" font-size="12.00">_vector</text>
</a>
</g>
</g>
<!-- Node1&#45;&gt;Node2 -->
<g id="edge1" class="edge">
<title>Node1&#45;&gt;Node2</title>
<path fill="none" stroke="midnightblue" d="M122.25,-53.86C130.64,-55.3 139.33,-56.8 147.89,-58.27"/>
<polygon fill="midnightblue" stroke="midnightblue" points="147.42,-61.74 157.87,-59.99 148.61,-54.84 147.42,-61.74"/>
</g>
<!-- Node3 -->
<g id="node3" class="node">
<title>Node3</title>
<g id="a_node3"><a xlink:href="namespacecsv__utilities.html#a07f2d0f6e53440f20e140a6c90f8ab2f" target="_top" xlink:title="Sorts an integer array ivec in increasing order. Uses a basic recursive quicksort (with insertion sor...">
<polygon fill="white" stroke="black" points="167.5,-0.5 167.5,-34.5 272.5,-34.5 272.5,-0.5 167.5,-0.5"/>
<text text-anchor="start" x="175.5" y="-20.9" font-family="Helvetica,sans-Serif" font-size="12.00">csv_utilities::sort</text>
<text text-anchor="middle" x="220" y="-7.9" font-family="Helvetica,sans-Serif" font-size="12.00">_ascending</text>
</a>
</g>
</g>
<!-- Node1&#45;&gt;Node3 -->
<g id="edge2" class="edge">
<title>Node1&#45;&gt;Node3</title>
<path fill="none" stroke="midnightblue" d="M122.25,-33.52C133.76,-31.62 145.81,-29.62 157.36,-27.71"/>
<polygon fill="midnightblue" stroke="midnightblue" points="158.05,-31.14 167.35,-26.05 156.91,-24.23 158.05,-31.14"/>
</g>
</g>
</svg>
