<?xml version="1.0" encoding="UTF-8" standalone="no"?>
<!DOCTYPE svg PUBLIC "-//W3C//DTD SVG 1.1//EN"
 "http://www.w3.org/Graphics/SVG/1.1/DTD/svg11.dtd">
<!-- Generated by graphviz version 2.42.4 (0)
 -->
<!-- Title: pahm_messages::unsetmessagesource Pages: 1 -->
<!--zoomable 1129 -->
<svg id="main" version="1.1" xmlns="http://www.w3.org/2000/svg" xmlns:xlink="http://www.w3.org/1999/xlink" xml:space="preserve" onload="init(evt)">
<style type="text/css"><![CDATA[
.edge:hover path { stroke: red; }
.edge:hover polygon { stroke: red; fill: red; }
]]></style>
<script type="text/javascript"><![CDATA[
var edges = document.getElementsByTagName('g');
if (edges && edges.length) {
  for (var i=0;i<edges.length;i++) {
    if (edges[i].id.substr(0,4)=='edge') {
      edges[i].setAttribute('class','edge');
    }
  }
}
]]></script>
        <defs>
                <circle id="rim" cx="0" cy="0" r="7"/>
                <circle id="rim2" cx="0" cy="0" r="3.5"/>
                <g id="zoomPlus">
                        <use xlink:href="#rim" fill="#404040">
                                <set attributeName="fill" to="#808080" begin="zoomplus.mouseover" end="zoomplus.mouseout"/>
                        </use>
                        <path d="M-4,0h8M0,-4v8" fill="none" stroke="white" stroke-width="1.5" pointer-events="none"/>
                </g>
                <g id="zoomMin">
                        <use xlink:href="#rim" fill="#404040">
                                <set attributeName="fill" to="#808080" begin="zoomminus.mouseover" end="zoomminus.mouseout"/>
                        </use>
                        <path d="M-4,0h8" fill="none" stroke="white" stroke-width="1.5" pointer-events="none"/>
                </g>
                <g id="dirArrow">
                        <path fill="none" stroke="white" stroke-width="1.5" d="M0,-3.0v7 M-2.5,-0.5L0,-3.0L2.5,-0.5"/>
                </g>
               <g id="resetDef">
                       <use xlink:href="#rim2" fill="#404040">
                               <set attributeName="fill" to="#808080" begin="reset.mouseover" end="reset.mouseout"/>
                       </use>
               </g>
        </defs>

<script type="text/javascript">
var viewWidth = 1324;
var viewHeight = 1129;
var sectionId = 'dynsection-10';
</script>
<script xlink:href="svgpan.js"/>
<svg id="graph" class="graph">
<g id="viewport">
<title>pahm_messages::unsetmessagesource</title>
<polygon fill="white" stroke="transparent" points="-4,4 -4,-1125.04 1320,-1125.04 1320,4 -4,4"/>
<!-- Node1 -->
<g id="node1" class="node">
<title>Node1</title>
<g id="a_node1"><a xlink:title="Removes the name of the subroutine that is no longer active.">
<polygon fill="#bfbfbf" stroke="black" points="1088,-516.48 1088,-537.48 1316,-537.48 1316,-516.48 1088,-516.48"/>
<text text-anchor="middle" x="1202" y="-523.88" font-family="Helvetica,sans-Serif" font-size="12.00">pahm_messages::unsetmessagesource</text>
</a>
</g>
</g>
<!-- Node2 -->
<g id="node2" class="node">
<title>Node2</title>
<g id="a_node2"><a xlink:href="namespacepahm__netcdfio.html#aa686f5f58121595cbd368f0f0b12bfba" target="_top" xlink:title="Checks the return value from netCDF calls; if there was an error, it writes the error message to the ...">
<polygon fill="white" stroke="black" points="582,-985.98 582,-1019.98 710,-1019.98 710,-985.98 582,-985.98"/>
<text text-anchor="start" x="590" y="-1006.38" font-family="Helvetica,sans-Serif" font-size="12.00">pahm_netcdfio::base</text>
<text text-anchor="middle" x="646" y="-993.38" font-family="Helvetica,sans-Serif" font-size="12.00">_netcdfcheckerr</text>
</a>
</g>
</g>
<!-- Node1&#45;&gt;Node2 -->
<g id="edge1" class="edge">
<title>Node1&#45;&gt;Node2</title>
<path fill="none" stroke="midnightblue" d="M1197.87,-547.64C1184.58,-632.26 1129.95,-950.52 1052,-1007.98 999.5,-1046.68 810.44,-1026.67 710.28,-1012.72"/>
<polygon fill="midnightblue" stroke="midnightblue" points="1201.33,-548.12 1199.41,-537.71 1194.42,-547.05 1201.33,-548.12"/>
</g>
<!-- Node3 -->
<g id="node3" class="node">
<title>Node3</title>
<g id="a_node3"><a xlink:href="namespacepahm__vortex.html#a2c7cf08c2619746ea1c60556b6487b35" target="_top" xlink:title="This subroutine calculates the intensity time change of a variable using second order mumerical accur...">
<polygon fill="white" stroke="black" points="823,-555.48 823,-576.48 1021,-576.48 1021,-555.48 823,-555.48"/>
<text text-anchor="middle" x="922" y="-562.88" font-family="Helvetica,sans-Serif" font-size="12.00">pahm_vortex::calcintensitychange</text>
</a>
</g>
</g>
<!-- Node1&#45;&gt;Node3 -->
<g id="edge2" class="edge">
<title>Node1&#45;&gt;Node3</title>
<path fill="none" stroke="midnightblue" d="M1116.19,-538.88C1078.49,-544.17 1034.48,-550.34 998,-555.46"/>
<polygon fill="midnightblue" stroke="midnightblue" points="1116.72,-542.34 1126.14,-537.48 1115.75,-535.41 1116.72,-542.34"/>
</g>
<!-- Node6 -->
<g id="node6" class="node">
<title>Node6</title>
<g id="a_node6"><a xlink:href="namespacepahm__drivermod.html#a7ae4571521a5bb4eb55990dd7fb76237" target="_top" xlink:title="Subroutine to run PaHM (timestepping).">
<polygon fill="white" stroke="black" points="83,-584.48 83,-605.48 250,-605.48 250,-584.48 83,-584.48"/>
<text text-anchor="middle" x="166.5" y="-591.88" font-family="Helvetica,sans-Serif" font-size="12.00">pahm_drivermod::pahm_run</text>
</a>
</g>
</g>
<!-- Node1&#45;&gt;Node6 -->
<g id="edge32" class="edge">
<title>Node1&#45;&gt;Node6</title>
<path fill="none" stroke="midnightblue" d="M1198.16,-547.86C1185.79,-635.51 1133.49,-972.03 1052,-1032.98 868.35,-1170.35 743.51,-1127.63 536,-1029.98 331.37,-933.68 198.45,-662.73 172.26,-605.63"/>
<polygon fill="midnightblue" stroke="midnightblue" points="1201.65,-548.2 1199.56,-537.81 1194.72,-547.24 1201.65,-548.2"/>
</g>
<!-- Node8 -->
<g id="node8" class="node">
<title>Node8</title>
<g id="a_node8"><a xlink:href="interfacesortutils_1_1indexx.html#a14dc4f3d78c6d7a518f48185dac60b8c" target="_top" xlink:title="Indexes a 1D double precision array in ascending order.">
<polygon fill="white" stroke="black" points="869.5,-923.98 869.5,-957.98 974.5,-957.98 974.5,-923.98 869.5,-923.98"/>
<text text-anchor="start" x="877.5" y="-944.38" font-family="Helvetica,sans-Serif" font-size="12.00">sortutils::indexx::</text>
<text text-anchor="middle" x="922" y="-931.38" font-family="Helvetica,sans-Serif" font-size="12.00">indexxdouble</text>
</a>
</g>
</g>
<!-- Node1&#45;&gt;Node8 -->
<g id="edge7" class="edge">
<title>Node1&#45;&gt;Node8</title>
<path fill="none" stroke="midnightblue" d="M1199.72,-548C1194.52,-613.58 1169.25,-815.92 1052,-914.98 1030.71,-932.97 1000.41,-939.72 974.53,-941.85"/>
<polygon fill="midnightblue" stroke="midnightblue" points="1203.23,-547.94 1200.45,-537.72 1196.25,-547.45 1203.23,-547.94"/>
</g>
<!-- Node9 -->
<g id="node9" class="node">
<title>Node9</title>
<g id="a_node9"><a xlink:href="interfacesortutils_1_1indexx.html#a4e4fa36a9147b5a7eb8a9fd718fafc50" target="_top" xlink:title="Indexes a 1D integer array in ascending order.">
<polygon fill="white" stroke="black" points="869.5,-870.98 869.5,-904.98 974.5,-904.98 974.5,-870.98 869.5,-870.98"/>
<text text-anchor="start" x="877.5" y="-891.38" font-family="Helvetica,sans-Serif" font-size="12.00">sortutils::indexx::</text>
<text text-anchor="middle" x="922" y="-878.38" font-family="Helvetica,sans-Serif" font-size="12.00">indexxint</text>
</a>
</g>
</g>
<!-- Node1&#45;&gt;Node9 -->
<g id="edge8" class="edge">
<title>Node1&#45;&gt;Node9</title>
<path fill="none" stroke="midnightblue" d="M1198.4,-547.47C1189.74,-606.57 1156.29,-778.4 1052,-861.98 1030.43,-879.27 1000.43,-886.02 974.79,-888.34"/>
<polygon fill="midnightblue" stroke="midnightblue" points="1201.87,-547.89 1199.77,-537.51 1194.94,-546.93 1201.87,-547.89"/>
</g>
<!-- Node10 -->
<g id="node10" class="node">
<title>Node10</title>
<g id="a_node10"><a xlink:href="interfacesortutils_1_1indexx.html#abca639f6c4c72a7a97e26522db8c1249" target="_top" xlink:title="Indexes a 1D 32&#45;bit integer array in ascending order.">
<polygon fill="white" stroke="black" points="869.5,-817.98 869.5,-851.98 974.5,-851.98 974.5,-817.98 869.5,-817.98"/>
<text text-anchor="start" x="877.5" y="-838.38" font-family="Helvetica,sans-Serif" font-size="12.00">sortutils::indexx::</text>
<text text-anchor="middle" x="922" y="-825.38" font-family="Helvetica,sans-Serif" font-size="12.00">indexxint8</text>
</a>
</g>
</g>
<!-- Node1&#45;&gt;Node10 -->
<g id="edge9" class="edge">
<title>Node1&#45;&gt;Node10</title>
<path fill="none" stroke="midnightblue" d="M1196.6,-547.35C1184.12,-599.9 1143.31,-740.74 1052,-808.98 1029.95,-825.46 1000.07,-832.19 974.63,-834.69"/>
<polygon fill="midnightblue" stroke="midnightblue" points="1200.03,-548.06 1198.84,-537.53 1193.2,-546.5 1200.03,-548.06"/>
</g>
<!-- Node11 -->
<g id="node11" class="node">
<title>Node11</title>
<g id="a_node11"><a xlink:href="interfacesortutils_1_1indexx.html#af7ae6ba72f204c10de0faa8023f9fc4a" target="_top" xlink:title="Indexes a 1D single precision array in ascending order.">
<polygon fill="white" stroke="black" points="869.5,-764.98 869.5,-798.98 974.5,-798.98 974.5,-764.98 869.5,-764.98"/>
<text text-anchor="start" x="877.5" y="-785.38" font-family="Helvetica,sans-Serif" font-size="12.00">sortutils::indexx::</text>
<text text-anchor="middle" x="922" y="-772.38" font-family="Helvetica,sans-Serif" font-size="12.00">indexxsingle</text>
</a>
</g>
</g>
<!-- Node1&#45;&gt;Node11 -->
<g id="edge10" class="edge">
<title>Node1&#45;&gt;Node11</title>
<path fill="none" stroke="midnightblue" d="M1193.99,-547.43C1177.27,-592.93 1130.47,-702.71 1052,-755.98 1029.41,-771.32 999.8,-778 974.65,-780.77"/>
<polygon fill="midnightblue" stroke="midnightblue" points="1197.36,-548.39 1197.43,-537.79 1190.77,-546.03 1197.36,-548.39"/>
</g>
<!-- Node12 -->
<g id="node12" class="node">
<title>Node12</title>
<g id="a_node12"><a xlink:href="interfacesortutils_1_1indexx.html#ae59fb4eaf41ea6af9149f9dc28df4421" target="_top" xlink:title="Indexes a 1D string array in ascending order.">
<polygon fill="white" stroke="black" points="869.5,-711.98 869.5,-745.98 974.5,-745.98 974.5,-711.98 869.5,-711.98"/>
<text text-anchor="start" x="877.5" y="-732.38" font-family="Helvetica,sans-Serif" font-size="12.00">sortutils::indexx::</text>
<text text-anchor="middle" x="922" y="-719.38" font-family="Helvetica,sans-Serif" font-size="12.00">indexxstring</text>
</a>
</g>
</g>
<!-- Node1&#45;&gt;Node12 -->
<g id="edge11" class="edge">
<title>Node1&#45;&gt;Node12</title>
<path fill="none" stroke="midnightblue" d="M1189.46,-546.73C1167.47,-582.52 1116.03,-657.98 1052,-696.98 1028.75,-711.15 999.52,-719.05 974.77,-723.46"/>
<polygon fill="midnightblue" stroke="midnightblue" points="1192.7,-548.13 1194.86,-537.75 1186.7,-544.52 1192.7,-548.13"/>
</g>
<!-- Node13 -->
<g id="node13" class="node">
<title>Node13</title>
<g id="a_node13"><a xlink:href="namespacepahm__netcdfio.html#a21917504b7e9d5594375d1a48bb4cb8f" target="_top" xlink:title="Initializes a new NetCDF data file and puts it in define mode. Sets up netCDF dimensions and variable...">
<polygon fill="white" stroke="black" points="286,-634.48 286,-655.48 500,-655.48 500,-634.48 286,-634.48"/>
<text text-anchor="middle" x="393" y="-641.88" font-family="Helvetica,sans-Serif" font-size="12.00">pahm_netcdfio::initadcircnetcdfoutfile</text>
</a>
</g>
</g>
<!-- Node1&#45;&gt;Node13 -->
<g id="edge12" class="edge">
<title>Node1&#45;&gt;Node13</title>
<path fill="none" stroke="midnightblue" d="M1182.44,-544.44C1155.92,-568.09 1104.58,-609.28 1052,-625.98 952.41,-657.63 659.32,-653.76 500.01,-648.96"/>
<polygon fill="midnightblue" stroke="midnightblue" points="1184.8,-547.03 1189.84,-537.71 1180.09,-541.85 1184.8,-547.03"/>
</g>
<!-- Node14 -->
<g id="node14" class="node">
<title>Node14</title>
<g id="a_node14"><a xlink:href="namespacecsv__module.html#a9813e1ff838ed6024c464bb5c443bada" target="_top" xlink:title="Initialize a [[csv_file(type)]].">
<polygon fill="white" stroke="black" points="580.5,-347.98 580.5,-381.98 711.5,-381.98 711.5,-347.98 580.5,-347.98"/>
<text text-anchor="start" x="588.5" y="-368.38" font-family="Helvetica,sans-Serif" font-size="12.00">csv_module::initialize</text>
<text text-anchor="middle" x="646" y="-355.38" font-family="Helvetica,sans-Serif" font-size="12.00">_csv_file</text>
</a>
</g>
</g>
<!-- Node1&#45;&gt;Node14 -->
<g id="edge14" class="edge">
<title>Node1&#45;&gt;Node14</title>
<path fill="none" stroke="midnightblue" d="M1180.85,-509.85C1153.55,-487.63 1102.41,-449.43 1052,-429.98 1044.1,-426.93 824.26,-392.52 711.86,-375.04"/>
<polygon fill="midnightblue" stroke="midnightblue" points="1178.91,-512.79 1188.85,-516.46 1183.37,-507.39 1178.91,-512.79"/>
</g>
<!-- Node15 -->
<g id="node15" class="node">
<title>Node15</title>
<g id="a_node15"><a xlink:href="namespacepahm__netcdfio.html#aa0987122588b6ef883046848cfcefe0b" target="_top" xlink:title="Terminates the program on NetCDF error.">
<polygon fill="white" stroke="black" points="830,-977.48 830,-998.48 1014,-998.48 1014,-977.48 830,-977.48"/>
<text text-anchor="middle" x="922" y="-984.88" font-family="Helvetica,sans-Serif" font-size="12.00">pahm_netcdfio::netcdfterminate</text>
</a>
</g>
</g>
<!-- Node1&#45;&gt;Node15 -->
<g id="edge15" class="edge">
<title>Node1&#45;&gt;Node15</title>
<path fill="none" stroke="midnightblue" d="M1201,-548.18C1199.75,-620 1185.27,-855.87 1052,-967.98 1041.16,-977.1 1027.93,-982.96 1014.11,-986.61"/>
<polygon fill="midnightblue" stroke="midnightblue" points="1204.5,-547.8 1201.1,-537.76 1197.5,-547.73 1204.5,-547.8"/>
</g>
<!-- Node16 -->
<g id="node16" class="node">
<title>Node16</title>
<g id="a_node16"><a xlink:href="namespacepahm__netcdfio.html#a850b1df36d9d2d229b8b03f0558c3703" target="_top" xlink:title="Creates a new NetCDF data file and puts it in define mode.">
<polygon fill="white" stroke="black" points="536,-673.48 536,-694.48 756,-694.48 756,-673.48 536,-673.48"/>
<text text-anchor="middle" x="646" y="-680.88" font-family="Helvetica,sans-Serif" font-size="12.00">pahm_netcdfio::newadcircnetcdfoutfile</text>
</a>
</g>
</g>
<!-- Node1&#45;&gt;Node16 -->
<g id="edge19" class="edge">
<title>Node1&#45;&gt;Node16</title>
<path fill="none" stroke="midnightblue" d="M1186.86,-545.83C1162.94,-576.03 1111.27,-634.39 1052,-658.98 948.87,-701.77 818.19,-701.16 733.61,-694.49"/>
<polygon fill="midnightblue" stroke="midnightblue" points="1189.75,-547.81 1193.11,-537.76 1184.22,-543.52 1189.75,-547.81"/>
</g>
<!-- Node17 -->
<g id="node17" class="node">
<title>Node17</title>
<g id="a_node17"><a xlink:href="namespaceutilities.html#a2a41067ed5533ec0c36318e8f1e960bf" target="_top" xlink:title="This subroutine opens an existing file for reading.">
<polygon fill="white" stroke="black" points="852,-439.48 852,-460.48 992,-460.48 992,-439.48 852,-439.48"/>
<text text-anchor="middle" x="922" y="-446.88" font-family="Helvetica,sans-Serif" font-size="12.00">utilities::openfileforread</text>
</a>
</g>
</g>
<!-- Node1&#45;&gt;Node17 -->
<g id="edge20" class="edge">
<title>Node1&#45;&gt;Node17</title>
<path fill="none" stroke="midnightblue" d="M1164.87,-512.72C1134.97,-501.33 1091.21,-485.56 1052,-474.98 1031.08,-469.34 1007.92,-464.44 987.06,-460.51"/>
<polygon fill="midnightblue" stroke="midnightblue" points="1163.86,-516.08 1174.45,-516.41 1166.37,-509.55 1163.86,-516.08"/>
</g>
<!-- Node18 -->
<g id="node18" class="node">
<title>Node18</title>
<g id="a_node18"><a xlink:href="namespaceparwind.html#abae6c098afd2135918a478b6b7b20673" target="_top" xlink:title="Subroutine to read all a&#45;deck/b&#45;deck best track files (ATCF format).">
<polygon fill="white" stroke="black" points="568.5,-307.48 568.5,-328.48 723.5,-328.48 723.5,-307.48 568.5,-307.48"/>
<text text-anchor="middle" x="646" y="-314.88" font-family="Helvetica,sans-Serif" font-size="12.00">parwind::readbesttrackfile</text>
</a>
</g>
</g>
<!-- Node1&#45;&gt;Node18 -->
<g id="edge34" class="edge">
<title>Node1&#45;&gt;Node18</title>
<path fill="none" stroke="midnightblue" d="M1187.29,-507.91C1163.64,-476.66 1111.91,-415.21 1052,-386.98 946.62,-337.34 904.19,-385.3 792,-353.98 775.14,-349.27 772.73,-343.15 756,-337.98 743.96,-334.26 730.95,-331.13 718.24,-328.54"/>
<polygon fill="midnightblue" stroke="midnightblue" points="1184.69,-510.27 1193.45,-516.22 1190.31,-506.1 1184.69,-510.27"/>
</g>
<!-- Node20 -->
<g id="node20" class="node">
<title>Node20</title>
<g id="a_node20"><a xlink:href="namespacepahm__drivermod.html#ae0d4b223a96ba116b38152caf6b0768c" target="_top" xlink:title="Subroutine to initialize a PaHM run.">
<polygon fill="white" stroke="black" points="84,-439.48 84,-460.48 249,-460.48 249,-439.48 84,-439.48"/>
<text text-anchor="middle" x="166.5" y="-446.88" font-family="Helvetica,sans-Serif" font-size="12.00">pahm_drivermod::pahm_init</text>
</a>
</g>
</g>
<!-- Node1&#45;&gt;Node20 -->
<g id="edge31" class="edge">
<title>Node1&#45;&gt;Node20</title>
<path fill="none" stroke="midnightblue" d="M1077.9,-523.42C901.87,-517.39 568.29,-502.51 286,-469.98 265.17,-467.58 242.43,-463.98 222.49,-460.5"/>
<polygon fill="midnightblue" stroke="midnightblue" points="1077.86,-526.92 1087.97,-523.76 1078.1,-519.92 1077.86,-526.92"/>
</g>
<!-- Node22 -->
<g id="node22" class="node">
<title>Node22</title>
<g id="a_node22"><a xlink:href="namespacepahm__mesh.html#a6fd7801e4cbacfd2a7ce61c0fb31073c" target="_top" xlink:title="Reads an input mesh file for the specified supported model type.">
<polygon fill="white" stroke="black" points="322,-334.48 322,-355.48 464,-355.48 464,-334.48 322,-334.48"/>
<text text-anchor="middle" x="393" y="-341.88" font-family="Helvetica,sans-Serif" font-size="12.00">pahm_mesh::readmesh</text>
</a>
</g>
</g>
<!-- Node1&#45;&gt;Node22 -->
<g id="edge35" class="edge">
<title>Node1&#45;&gt;Node22</title>
<path fill="none" stroke="midnightblue" d="M1201.02,-506.02C1199.82,-436.16 1185.38,-210.42 1052,-116.98 958.07,-51.18 635.79,-69.46 536,-125.98 450.83,-174.22 408.29,-296.97 397.08,-334.15"/>
<polygon fill="midnightblue" stroke="midnightblue" points="1197.52,-506.22 1201.12,-516.19 1204.52,-506.15 1197.52,-506.22"/>
</g>
<!-- Node23 -->
<g id="node23" class="node">
<title>Node23</title>
<g id="a_node23"><a xlink:href="namespacepahm__drivermod.html#af330510561d1d60a5c566fcab929c68f" target="_top" xlink:title="Subroutine to finalize a PaHM run.">
<polygon fill="white" stroke="black" points="95,-214.98 95,-248.98 238,-248.98 238,-214.98 95,-214.98"/>
<text text-anchor="start" x="103" y="-235.38" font-family="Helvetica,sans-Serif" font-size="12.00">pahm_drivermod::pahm</text>
<text text-anchor="middle" x="166.5" y="-222.38" font-family="Helvetica,sans-Serif" font-size="12.00">_finalize</text>
</a>
</g>
</g>
<!-- Node1&#45;&gt;Node23 -->
<g id="edge29" class="edge">
<title>Node1&#45;&gt;Node23</title>
<path fill="none" stroke="midnightblue" d="M1201.8,-505.92C1203.32,-431.53 1197.21,-180.01 1052,-74.98 769.88,129.07 307.15,-142.17 193.37,-214.91"/>
<polygon fill="midnightblue" stroke="midnightblue" points="1198.29,-506.19 1201.51,-516.29 1205.29,-506.39 1198.29,-506.19"/>
</g>
<!-- Node24 -->
<g id="node24" class="node">
<title>Node24</title>
<g id="a_node24"><a xlink:href="namespacesortutils.html#a33d62feb5c8d9983664fb4e8e6f336c0" target="_top" xlink:title="Sorts the array arr1D into ascending numerical order using Quicksort.">
<polygon fill="white" stroke="black" points="865.5,-323.48 865.5,-344.48 978.5,-344.48 978.5,-323.48 865.5,-323.48"/>
<text text-anchor="middle" x="922" y="-330.88" font-family="Helvetica,sans-Serif" font-size="12.00">sortutils::quicksort</text>
</a>
</g>
</g>
<!-- Node1&#45;&gt;Node24 -->
<g id="edge33" class="edge">
<title>Node1&#45;&gt;Node24</title>
<path fill="none" stroke="midnightblue" d="M1189.58,-507.15C1167.81,-471.27 1116.69,-395.88 1052,-358.98 1029.91,-346.38 1002.59,-340.01 978.78,-336.84"/>
<polygon fill="midnightblue" stroke="midnightblue" points="1186.82,-509.34 1194.93,-516.16 1192.84,-505.77 1186.82,-509.34"/>
</g>
<!-- Node25 -->
<g id="node25" class="node">
<title>Node25</title>
<g id="a_node25"><a xlink:href="namespacepahm__netcdfio.html#a9247da765972aa9c8c5b0d116238416f" target="_top" xlink:title="Compares the current simulation time with the array of output times in the file, and if the simulatio...">
<polygon fill="white" stroke="black" points="792,-283.48 792,-304.48 1052,-304.48 1052,-283.48 792,-283.48"/>
<text text-anchor="middle" x="922" y="-290.88" font-family="Helvetica,sans-Serif" font-size="12.00">pahm_netcdfio::setrecordcounterandstoretime</text>
</a>
</g>
</g>
<!-- Node1&#45;&gt;Node25 -->
<g id="edge36" class="edge">
<title>Node1&#45;&gt;Node25</title>
<path fill="none" stroke="midnightblue" d="M1193.37,-506.82C1175.8,-463.45 1128.08,-361.38 1052,-313.98 1046.04,-310.27 1039.63,-307.16 1032.96,-304.56"/>
<polygon fill="midnightblue" stroke="midnightblue" points="1190.17,-508.27 1197.1,-516.29 1196.69,-505.7 1190.17,-508.27"/>
</g>
<!-- Node26 -->
<g id="node26" class="node">
<title>Node26</title>
<g id="a_node26"><a xlink:href="namespacesortutils.html#a9ede2e4d77a01ef0a1c54e8dc4cf3b35" target="_top" xlink:title="Sorts two 1D arrays into ascending numerical order using Quicksort.">
<polygon fill="white" stroke="black" points="876,-243.48 876,-264.48 968,-264.48 968,-243.48 876,-243.48"/>
<text text-anchor="middle" x="922" y="-250.88" font-family="Helvetica,sans-Serif" font-size="12.00">sortutils::sort2</text>
</a>
</g>
</g>
<!-- Node1&#45;&gt;Node26 -->
<g id="edge37" class="edge">
<title>Node1&#45;&gt;Node26</title>
<path fill="none" stroke="midnightblue" d="M1195.52,-506.51C1181.2,-457.29 1137.68,-332.12 1052,-273.98 1027.62,-257.44 994.74,-252.54 968.27,-251.73"/>
<polygon fill="midnightblue" stroke="midnightblue" points="1192.2,-507.63 1198.28,-516.31 1198.94,-505.74 1192.2,-507.63"/>
</g>
<!-- Node27 -->
<g id="node27" class="node">
<title>Node27</title>
<g id="a_node27"><a xlink:href="namespacepahm__messages.html#a8fdeeba7e0469ebda6435518f619444b" target="_top" xlink:title="Terminates the calling program when a fatal error is encountered.">
<polygon fill="white" stroke="black" points="840,-203.48 840,-224.48 1004,-224.48 1004,-203.48 840,-203.48"/>
<text text-anchor="middle" x="922" y="-210.88" font-family="Helvetica,sans-Serif" font-size="12.00">pahm_messages::terminate</text>
</a>
</g>
</g>
<!-- Node1&#45;&gt;Node27 -->
<g id="edge38" class="edge">
<title>Node1&#45;&gt;Node27</title>
<path fill="none" stroke="midnightblue" d="M1197.19,-506.31C1185.95,-451.74 1147.54,-303.22 1052,-233.98 1038.14,-223.94 1021.24,-218.08 1004.29,-214.82"/>
<polygon fill="midnightblue" stroke="midnightblue" points="1193.77,-507.06 1199.13,-516.2 1200.64,-505.71 1193.77,-507.06"/>
</g>
<!-- Node28 -->
<g id="node28" class="node">
<title>Node28</title>
<g id="a_node28"><a xlink:href="interfacetimedateutils_1_1timeconv.html#a2f5f511b312d9f4b1bed33ecb8567b86" target="_top" xlink:title="Convert time from year, month, day, hour, min, sec into seconds since the reference date of the simul...">
<polygon fill="white" stroke="black" points="577,-192.98 577,-226.98 715,-226.98 715,-192.98 577,-192.98"/>
<text text-anchor="start" x="585" y="-213.38" font-family="Helvetica,sans-Serif" font-size="12.00">timedateutils::timeconv</text>
<text text-anchor="middle" x="646" y="-200.38" font-family="Helvetica,sans-Serif" font-size="12.00">::timeconvisec</text>
</a>
</g>
</g>
<!-- Node1&#45;&gt;Node28 -->
<g id="edge44" class="edge">
<title>Node1&#45;&gt;Node28</title>
<path fill="none" stroke="midnightblue" d="M1199.15,-505.98C1192.5,-444.8 1163.85,-266.47 1052,-193.98 998.19,-159.11 815.73,-182 715.07,-198.08"/>
<polygon fill="midnightblue" stroke="midnightblue" points="1195.7,-506.69 1200.18,-516.29 1202.67,-505.99 1195.7,-506.69"/>
</g>
<!-- Node29 -->
<g id="node29" class="node">
<title>Node29</title>
<g id="a_node29"><a xlink:href="interfacetimedateutils_1_1timeconv.html#a03e2abbe51f02a02624986a3d49ec192" target="_top" xlink:title="Convert time from year, month, day, hour, min, sec into seconds since the reference date of the simul...">
<polygon fill="white" stroke="black" points="577,-135.98 577,-169.98 715,-169.98 715,-135.98 577,-135.98"/>
<text text-anchor="start" x="585" y="-156.38" font-family="Helvetica,sans-Serif" font-size="12.00">timedateutils::timeconv</text>
<text text-anchor="middle" x="646" y="-143.38" font-family="Helvetica,sans-Serif" font-size="12.00">::timeconvrsec</text>
</a>
</g>
</g>
<!-- Node1&#45;&gt;Node29 -->
<g id="edge45" class="edge">
<title>Node1&#45;&gt;Node29</title>
<path fill="none" stroke="midnightblue" d="M1199.59,-506.16C1194.06,-443.02 1168.03,-253.1 1052,-171.98 951.62,-101.8 800.59,-118.25 714.14,-135.98"/>
<polygon fill="midnightblue" stroke="midnightblue" points="1196.12,-506.72 1200.4,-516.42 1203.1,-506.17 1196.12,-506.72"/>
</g>
<!-- Node30 -->
<g id="node30" class="node">
<title>Node30</title>
<g id="a_node30"><a xlink:href="namespacepahm__vortex.html#a68cd3f6ceb40446c3c0c6d192f8b61bb" target="_top" xlink:title="This subroutine calculates the translational velocity of a moving hurricane using second order mumeri...">
<polygon fill="white" stroke="black" points="856.5,-595.48 856.5,-616.48 987.5,-616.48 987.5,-595.48 856.5,-595.48"/>
<text text-anchor="middle" x="922" y="-602.88" font-family="Helvetica,sans-Serif" font-size="12.00">pahm_vortex::uvtrans</text>
</a>
</g>
</g>
<!-- Node1&#45;&gt;Node30 -->
<g id="edge46" class="edge">
<title>Node1&#45;&gt;Node30</title>
<path fill="none" stroke="midnightblue" d="M1169.4,-541.89C1139.71,-555.32 1093.73,-574.64 1052,-585.98 1031.33,-591.6 1008.35,-595.8 987.57,-598.85"/>
<polygon fill="midnightblue" stroke="midnightblue" points="1171.18,-544.93 1178.82,-537.58 1168.27,-538.56 1171.18,-544.93"/>
</g>
<!-- Node31 -->
<g id="node31" class="node">
<title>Node31</title>
<g id="a_node31"><a xlink:href="namespacepahm__netcdfio.html#aaf8d794ff0adcfbca0e2d13c8b71162a" target="_top" xlink:title="Writes data to the NetCDF file.">
<polygon fill="white" stroke="black" points="296.5,-535.48 296.5,-556.48 489.5,-556.48 489.5,-535.48 296.5,-535.48"/>
<text text-anchor="middle" x="393" y="-542.88" font-family="Helvetica,sans-Serif" font-size="12.00">pahm_netcdfio::writenetcdfrecord</text>
</a>
</g>
</g>
<!-- Node1&#45;&gt;Node31 -->
<g id="edge48" class="edge">
<title>Node1&#45;&gt;Node31</title>
<path fill="none" stroke="midnightblue" d="M1077.47,-529.89C915.85,-533.7 636.05,-540.28 489.61,-543.73"/>
<polygon fill="midnightblue" stroke="midnightblue" points="1078.03,-533.38 1087.94,-529.64 1077.86,-526.38 1078.03,-533.38"/>
</g>
<!-- Node4 -->
<g id="node4" class="node">
<title>Node4</title>
<g id="a_node4"><a xlink:href="namespaceparwind.html#a6efcf8be68b268f0a6d92ceb5f8c6f41" target="_top" xlink:title="Subroutine to support the Holland model (GetHolland). Gets the next line from the file,...">
<polygon fill="white" stroke="black" points="560.5,-584.48 560.5,-605.48 731.5,-605.48 731.5,-584.48 560.5,-584.48"/>
<text text-anchor="middle" x="646" y="-591.88" font-family="Helvetica,sans-Serif" font-size="12.00">parwind::processhollanddata</text>
</a>
</g>
</g>
<!-- Node3&#45;&gt;Node4 -->
<g id="edge3" class="edge">
<title>Node3&#45;&gt;Node4</title>
<path fill="none" stroke="midnightblue" d="M812.64,-577.45C785.76,-580.3 757.34,-583.3 731.77,-586.01"/>
<polygon fill="midnightblue" stroke="midnightblue" points="813.28,-580.9 822.85,-576.37 812.54,-573.94 813.28,-580.9"/>
</g>
<!-- Node5 -->
<g id="node5" class="node">
<title>Node5</title>
<g id="a_node5"><a xlink:href="namespaceparwind.html#a0f547832ef9dcece74e3d1267557c9e7" target="_top" xlink:title="Calculate wind velocities and MSL pressures at the mesh nodes from the P&#45;W Holland Wind model.">
<polygon fill="white" stroke="black" points="317.5,-584.48 317.5,-605.48 468.5,-605.48 468.5,-584.48 317.5,-584.48"/>
<text text-anchor="middle" x="393" y="-591.88" font-family="Helvetica,sans-Serif" font-size="12.00">parwind::gethollandfields</text>
</a>
</g>
</g>
<!-- Node4&#45;&gt;Node5 -->
<g id="edge4" class="edge">
<title>Node4&#45;&gt;Node5</title>
<path fill="none" stroke="midnightblue" d="M550.14,-594.98C523.17,-594.98 494.18,-594.98 468.59,-594.98"/>
<polygon fill="midnightblue" stroke="midnightblue" points="550.37,-598.48 560.37,-594.98 550.37,-591.48 550.37,-598.48"/>
</g>
<!-- Node5&#45;&gt;Node6 -->
<g id="edge5" class="edge">
<title>Node5&#45;&gt;Node6</title>
<path fill="none" stroke="midnightblue" d="M307,-594.98C288.34,-594.98 268.61,-594.98 250.05,-594.98"/>
<polygon fill="midnightblue" stroke="midnightblue" points="307.24,-598.48 317.24,-594.98 307.24,-591.48 307.24,-598.48"/>
</g>
<!-- Node7 -->
<g id="node7" class="node">
<title>Node7</title>
<g id="a_node7"><a xlink:href="pahm_8F90.html#a3d3918f5c5f1ac0a7991a7a78f530f30" target="_top" xlink:title=" ">
<polygon fill="white" stroke="black" points="0,-439.48 0,-460.48 47,-460.48 47,-439.48 0,-439.48"/>
<text text-anchor="middle" x="23.5" y="-446.88" font-family="Helvetica,sans-Serif" font-size="12.00">pahm</text>
</a>
</g>
</g>
<!-- Node6&#45;&gt;Node7 -->
<g id="edge6" class="edge">
<title>Node6&#45;&gt;Node7</title>
<path fill="none" stroke="midnightblue" d="M147.65,-576.62C117.8,-545.93 58.69,-485.14 34.84,-460.61"/>
<polygon fill="midnightblue" stroke="midnightblue" points="145.42,-579.35 154.9,-584.08 150.44,-574.47 145.42,-579.35"/>
</g>
<!-- Node13&#45;&gt;Node6 -->
<g id="edge13" class="edge">
<title>Node13&#45;&gt;Node6</title>
<path fill="none" stroke="midnightblue" d="M334.49,-632.17C297.37,-623.91 249.68,-613.28 214.77,-605.51"/>
<polygon fill="midnightblue" stroke="midnightblue" points="334.14,-635.68 344.66,-634.44 335.66,-628.85 334.14,-635.68"/>
</g>
<!-- Node15&#45;&gt;Node2 -->
<g id="edge16" class="edge">
<title>Node15&#45;&gt;Node2</title>
<path fill="none" stroke="midnightblue" d="M819.53,-993.54C782.89,-995.54 742.6,-997.75 710.17,-999.52"/>
<polygon fill="midnightblue" stroke="midnightblue" points="819.97,-997.02 829.76,-992.98 819.59,-990.03 819.97,-997.02"/>
</g>
<!-- Node15&#45;&gt;Node16 -->
<g id="edge17" class="edge">
<title>Node15&#45;&gt;Node16</title>
<path fill="none" stroke="midnightblue" d="M820.2,-982.07C810.12,-978.7 800.49,-974.12 792,-967.98 693.1,-896.43 657,-737.44 648.89,-694.72"/>
<polygon fill="midnightblue" stroke="midnightblue" points="819.4,-985.49 829.98,-984.95 821.38,-978.77 819.4,-985.49"/>
</g>
<!-- Node16&#45;&gt;Node13 -->
<g id="edge18" class="edge">
<title>Node16&#45;&gt;Node13</title>
<path fill="none" stroke="midnightblue" d="M567.12,-671.88C533.37,-666.64 494.23,-660.56 461.71,-655.5"/>
<polygon fill="midnightblue" stroke="midnightblue" points="566.99,-675.4 577.41,-673.48 568.06,-668.49 566.99,-675.4"/>
</g>
<!-- Node17&#45;&gt;Node14 -->
<g id="edge21" class="edge">
<title>Node17&#45;&gt;Node14</title>
<path fill="none" stroke="midnightblue" d="M841.8,-441.74C824.79,-438.05 807.33,-432.7 792,-424.98 772.62,-415.22 775.13,-402.24 756,-391.98 742.34,-384.66 726.66,-379.28 711.52,-375.34"/>
<polygon fill="midnightblue" stroke="midnightblue" points="841.26,-445.2 851.75,-443.73 842.63,-438.34 841.26,-445.2"/>
</g>
<!-- Node17&#45;&gt;Node18 -->
<g id="edge22" class="edge">
<title>Node17&#45;&gt;Node18</title>
<path fill="none" stroke="midnightblue" d="M879.85,-435.81C852.94,-425.19 818.07,-408.75 792,-386.98 771.26,-369.66 778.91,-352.32 756,-337.98 746.22,-331.86 735.03,-327.5 723.64,-324.43"/>
<polygon fill="midnightblue" stroke="midnightblue" points="878.78,-439.15 889.37,-439.46 881.29,-432.62 878.78,-439.15"/>
</g>
<!-- Node19 -->
<g id="node19" class="node">
<title>Node19</title>
<g id="a_node19"><a xlink:href="namespaceparwind.html#a75c722a5d8fdb18014543923d7e4dcca" target="_top" xlink:title="Subroutine to read all a&#45;deck/b&#45;deck best track files (ATCF format).">
<polygon fill="white" stroke="black" points="306.5,-439.48 306.5,-460.48 479.5,-460.48 479.5,-439.48 306.5,-439.48"/>
<text text-anchor="middle" x="393" y="-446.88" font-family="Helvetica,sans-Serif" font-size="12.00">parwind::readcsvbesttrackfile</text>
</a>
</g>
</g>
<!-- Node17&#45;&gt;Node19 -->
<g id="edge23" class="edge">
<title>Node17&#45;&gt;Node19</title>
<path fill="none" stroke="midnightblue" d="M841.76,-449.98C744.47,-449.98 580.09,-449.98 479.86,-449.98"/>
<polygon fill="midnightblue" stroke="midnightblue" points="841.83,-453.48 851.83,-449.98 841.83,-446.48 841.83,-453.48"/>
</g>
<!-- Node21 -->
<g id="node21" class="node">
<title>Node21</title>
<g id="a_node21"><a xlink:href="namespacepahm__mesh.html#af53257d02ceb6ebe4349de40187496d6" target="_top" xlink:title="Reads the ADCIRC fort.14 mesh file.">
<polygon fill="white" stroke="black" points="547.5,-401.48 547.5,-422.48 744.5,-422.48 744.5,-401.48 547.5,-401.48"/>
<text text-anchor="middle" x="646" y="-408.88" font-family="Helvetica,sans-Serif" font-size="12.00">pahm_mesh::readmeshasciifort14</text>
</a>
</g>
</g>
<!-- Node17&#45;&gt;Node21 -->
<g id="edge26" class="edge">
<title>Node17&#45;&gt;Node21</title>
<path fill="none" stroke="midnightblue" d="M841.51,-438.96C804.14,-433.77 759.78,-427.62 722.87,-422.5"/>
<polygon fill="midnightblue" stroke="midnightblue" points="841.47,-442.49 851.86,-440.39 842.43,-435.55 841.47,-442.49"/>
</g>
<!-- Node19&#45;&gt;Node20 -->
<g id="edge24" class="edge">
<title>Node19&#45;&gt;Node20</title>
<path fill="none" stroke="midnightblue" d="M296.24,-449.98C280.54,-449.98 264.39,-449.98 249.08,-449.98"/>
<polygon fill="midnightblue" stroke="midnightblue" points="296.49,-453.48 306.49,-449.98 296.49,-446.48 296.49,-453.48"/>
</g>
<!-- Node20&#45;&gt;Node7 -->
<g id="edge25" class="edge">
<title>Node20&#45;&gt;Node7</title>
<path fill="none" stroke="midnightblue" d="M73.88,-449.98C64.05,-449.98 54.82,-449.98 47.06,-449.98"/>
<polygon fill="midnightblue" stroke="midnightblue" points="73.89,-453.48 83.89,-449.98 73.89,-446.48 73.89,-453.48"/>
</g>
<!-- Node21&#45;&gt;Node22 -->
<g id="edge27" class="edge">
<title>Node21&#45;&gt;Node22</title>
<path fill="none" stroke="midnightblue" d="M573.37,-399.49C560.85,-396.93 548,-394.07 536,-390.98 496.35,-380.78 451.55,-365.65 423.06,-355.56"/>
<polygon fill="midnightblue" stroke="midnightblue" points="572.82,-402.95 583.31,-401.47 574.19,-396.08 572.82,-402.95"/>
</g>
<!-- Node22&#45;&gt;Node20 -->
<g id="edge28" class="edge">
<title>Node22&#45;&gt;Node20</title>
<path fill="none" stroke="midnightblue" d="M360.01,-359.94C313.94,-381.49 230.07,-420.72 189.99,-439.46"/>
<polygon fill="midnightblue" stroke="midnightblue" points="361.66,-363.03 369.24,-355.63 358.7,-356.69 361.66,-363.03"/>
</g>
<!-- Node23&#45;&gt;Node7 -->
<g id="edge30" class="edge">
<title>Node23&#45;&gt;Node7</title>
<path fill="none" stroke="midnightblue" d="M148.92,-257.61C118.1,-305.27 53.13,-405.71 31.6,-439"/>
<polygon fill="midnightblue" stroke="midnightblue" points="151.94,-259.39 154.44,-249.09 146.07,-255.58 151.94,-259.39"/>
</g>
<!-- Node27&#45;&gt;Node14 -->
<g id="edge39" class="edge">
<title>Node27&#45;&gt;Node14</title>
<path fill="none" stroke="midnightblue" d="M829.86,-215.45C816.07,-219.09 802.85,-224.92 792,-233.98 754.45,-265.33 792.11,-304.99 756,-337.98 743.76,-349.16 727.64,-355.89 711.55,-359.89"/>
<polygon fill="midnightblue" stroke="midnightblue" points="830.99,-218.79 839.97,-213.17 829.45,-211.96 830.99,-218.79"/>
</g>
<!-- Node27&#45;&gt;Node18 -->
<g id="edge40" class="edge">
<title>Node27&#45;&gt;Node18</title>
<path fill="none" stroke="midnightblue" d="M830.13,-218.97C816.74,-222.24 803.57,-227.04 792,-233.98 769.14,-247.71 777.65,-266.42 756,-281.98 739.49,-293.85 718.84,-301.97 699.96,-307.45"/>
<polygon fill="midnightblue" stroke="midnightblue" points="830.88,-222.39 839.91,-216.85 829.39,-215.55 830.88,-222.39"/>
</g>
<!-- Node27&#45;&gt;Node22 -->
<g id="edge41" class="edge">
<title>Node27&#45;&gt;Node22</title>
<path fill="none" stroke="midnightblue" d="M835.43,-226.13C820.9,-228.51 805.99,-231.16 792,-233.98 677.04,-257.21 648.64,-265.31 536,-297.98 496.84,-309.34 452.31,-324.44 423.72,-334.43"/>
<polygon fill="midnightblue" stroke="midnightblue" points="836.1,-229.56 845.42,-224.52 834.99,-222.65 836.1,-229.56"/>
</g>
<!-- Node27&#45;&gt;Node28 -->
<g id="edge42" class="edge">
<title>Node27&#45;&gt;Node28</title>
<path fill="none" stroke="midnightblue" d="M829.54,-212.65C792.26,-212.1 749.92,-211.48 715.4,-210.98"/>
<polygon fill="midnightblue" stroke="midnightblue" points="829.85,-216.15 839.9,-212.8 829.96,-209.15 829.85,-216.15"/>
</g>
<!-- Node27&#45;&gt;Node29 -->
<g id="edge43" class="edge">
<title>Node27&#45;&gt;Node29</title>
<path fill="none" stroke="midnightblue" d="M863.78,-201.24C820.49,-191.6 760.88,-178.33 715.12,-168.15"/>
<polygon fill="midnightblue" stroke="midnightblue" points="863.06,-204.67 873.59,-203.43 864.59,-197.84 863.06,-204.67"/>
</g>
<!-- Node30&#45;&gt;Node4 -->
<g id="edge47" class="edge">
<title>Node30&#45;&gt;Node4</title>
<path fill="none" stroke="midnightblue" d="M846.14,-602.98C810.71,-601.55 768.25,-599.85 731.66,-598.38"/>
<polygon fill="midnightblue" stroke="midnightblue" points="846.28,-606.49 856.41,-603.39 846.56,-599.49 846.28,-606.49"/>
</g>
<!-- Node31&#45;&gt;Node6 -->
<g id="edge49" class="edge">
<title>Node31&#45;&gt;Node6</title>
<path fill="none" stroke="midnightblue" d="M333.8,-558.68C297.21,-566.67 250.55,-576.86 215.97,-584.4"/>
<polygon fill="midnightblue" stroke="midnightblue" points="334.82,-562.05 343.84,-556.49 333.32,-555.21 334.82,-562.05"/>
</g>
</g>
</svg>
        <g id="navigator" transform="translate(0 0)" fill="#404254">
                <rect fill="#f2f5e9" fill-opacity="0.5" stroke="#606060" stroke-width=".5" x="0" y="0" width="60" height="60"/>
                <use id="zoomplus" xlink:href="#zoomPlus" x="17" y="9" onmousedown="handleZoom(evt,'in')"/>
                <use id="zoomminus" xlink:href="#zoomMin" x="42" y="9" onmousedown="handleZoom(evt,'out')"/>
                <use id="reset" xlink:href="#resetDef" x="30" y="36" onmousedown="handleReset()"/>
                <g id="arrowUp" xlink:href="#dirArrow" transform="translate(30 24)" onmousedown="handlePan(0,-1)">
                  <use xlink:href="#rim" fill="#404040">
                        <set attributeName="fill" to="#808080" begin="arrowUp.mouseover" end="arrowUp.mouseout"/>
                  </use>
                  <path fill="none" stroke="white" stroke-width="1.5" d="M0,-3.0v7 M-2.5,-0.5L0,-3.0L2.5,-0.5"/>
                </g>
                <g id="arrowRight" xlink:href="#dirArrow" transform="rotate(90) translate(36 -43)" onmousedown="handlePan(1,0)">
                  <use xlink:href="#rim" fill="#404040">
                        <set attributeName="fill" to="#808080" begin="arrowRight.mouseover" end="arrowRight.mouseout"/>
                  </use>
                  <path fill="none" stroke="white" stroke-width="1.5" d="M0,-3.0v7 M-2.5,-0.5L0,-3.0L2.5,-0.5"/>
                </g>
                <g id="arrowDown" xlink:href="#dirArrow" transform="rotate(180) translate(-30 -48)" onmousedown="handlePan(0,1)">
                  <use xlink:href="#rim" fill="#404040">
                        <set attributeName="fill" to="#808080" begin="arrowDown.mouseover" end="arrowDown.mouseout"/>
                  </use>
                  <path fill="none" stroke="white" stroke-width="1.5" d="M0,-3.0v7 M-2.5,-0.5L0,-3.0L2.5,-0.5"/>
                </g>
                <g id="arrowLeft" xlink:href="#dirArrow" transform="rotate(270) translate(-36 17)" onmousedown="handlePan(-1,0)">
                  <use xlink:href="#rim" fill="#404040">
                        <set attributeName="fill" to="#808080" begin="arrowLeft.mouseover" end="arrowLeft.mouseout"/>
                  </use>
                  <path fill="none" stroke="white" stroke-width="1.5" d="M0,-3.0v7 M-2.5,-0.5L0,-3.0L2.5,-0.5"/>
                </g>
        </g>
        <svg viewBox="0 0 15 15" width="100%" height="30px" preserveAspectRatio="xMaxYMin meet">
         <g id="arrow_out" transform="scale(0.3 0.3)">
          <a xlink:href="namespacepahm__messages_ad35e9f2327aad65d4c669e3d886f54dc_icgraph_org.svg" target="_base">
           <rect id="button" ry="5" rx="5" y="6" x="6" height="38" width="38"
                fill="#f2f5e9" fill-opacity="0.5" stroke="#606060" stroke-width="1.0"/>
           <path id="arrow"
             d="M 11.500037,31.436501 C 11.940474,20.09759 22.043105,11.32322 32.158766,21.979434 L 37.068811,17.246167 C 37.068811,17.246167 37.088388,32 37.088388,32 L 22.160133,31.978069 C 22.160133,31.978069 26.997745,27.140456 26.997745,27.140456 C 18.528582,18.264221 13.291696,25.230495 11.500037,31.436501 z"
             style="fill:#404040;"/>
          </a>
         </g>
        </svg>
</svg>
