<?xml version="1.0" encoding="UTF-8" standalone="no"?>
<!DOCTYPE svg PUBLIC "-//W3C//DTD SVG 1.1//EN"
 "http://www.w3.org/Graphics/SVG/1.1/DTD/svg11.dtd">
<!-- Generated by graphviz version 2.42.4 (0)
 -->
<!-- Title: pahm_netcdfio::writenetcdfrecord Pages: 1 -->
<svg width="465pt" height="70pt"
 viewBox="0.00 0.00 465.00 70.00" xmlns="http://www.w3.org/2000/svg" xmlns:xlink="http://www.w3.org/1999/xlink">
<g id="graph0" class="graph" transform="scale(1 1) rotate(0) translate(4 66)">
<title>pahm_netcdfio::writenetcdfrecord</title>
<polygon fill="white" stroke="transparent" points="-4,4 -4,-66 461,-66 461,4 -4,4"/>
<!-- Node1 -->
<g id="node1" class="node">
<title>Node1</title>
<g id="a_node1"><a xlink:title="Writes data to the NetCDF file.">
<polygon fill="#bfbfbf" stroke="black" points="0,-20.5 0,-41.5 193,-41.5 193,-20.5 0,-20.5"/>
<text text-anchor="middle" x="96.5" y="-27.9" font-family="Helvetica,sans-Serif" font-size="12.00">pahm_netcdfio::writenetcdfrecord</text>
</a>
</g>
</g>
<!-- Node2 -->
<g id="node2" class="node">
<title>Node2</title>
<g id="a_node2"><a xlink:href="namespacepahm__messages.html#acf0c696cc1604842ee84a5df6d81179c" target="_top" xlink:title="Sets the name of the subroutine that is writing log and/or screen messages.">
<polygon fill="white" stroke="black" points="235.5,-40.5 235.5,-61.5 450.5,-61.5 450.5,-40.5 235.5,-40.5"/>
<text text-anchor="middle" x="343" y="-47.9" font-family="Helvetica,sans-Serif" font-size="12.00">pahm_messages::setmessagesource</text>
</a>
</g>
</g>
<!-- Node1&#45;&gt;Node2 -->
<g id="edge1" class="edge">
<title>Node1&#45;&gt;Node2</title>
<path fill="none" stroke="midnightblue" d="M193.08,-38.82C203.53,-39.67 214.26,-40.55 224.94,-41.42"/>
<polygon fill="midnightblue" stroke="midnightblue" points="224.89,-44.93 235.15,-42.26 225.46,-37.96 224.89,-44.93"/>
</g>
<!-- Node3 -->
<g id="node3" class="node">
<title>Node3</title>
<g id="a_node3"><a xlink:href="namespacepahm__messages.html#ad35e9f2327aad65d4c669e3d886f54dc" target="_top" xlink:title="Removes the name of the subroutine that is no longer active.">
<polygon fill="white" stroke="black" points="229,-0.5 229,-21.5 457,-21.5 457,-0.5 229,-0.5"/>
<text text-anchor="middle" x="343" y="-7.9" font-family="Helvetica,sans-Serif" font-size="12.00">pahm_messages::unsetmessagesource</text>
</a>
</g>
</g>
<!-- Node1&#45;&gt;Node3 -->
<g id="edge2" class="edge">
<title>Node1&#45;&gt;Node3</title>
<path fill="none" stroke="midnightblue" d="M193.08,-23.18C201.46,-22.5 210.01,-21.8 218.56,-21.1"/>
<polygon fill="midnightblue" stroke="midnightblue" points="218.92,-24.58 228.61,-20.28 218.35,-17.6 218.92,-24.58"/>
</g>
</g>
</svg>
