<?xml version="1.0" encoding="UTF-8" standalone="no"?>
<!DOCTYPE svg PUBLIC "-//W3C//DTD SVG 1.1//EN"
 "http://www.w3.org/Graphics/SVG/1.1/DTD/svg11.dtd">
<!-- Generated by graphviz version 2.42.4 (0)
 -->
<!-- Title: pahm_netcdfio::base_netcdfcheckerr Pages: 1 -->
<svg width="620pt" height="79pt"
 viewBox="0.00 0.00 620.00 79.00" xmlns="http://www.w3.org/2000/svg" xmlns:xlink="http://www.w3.org/1999/xlink">
<g id="graph0" class="graph" transform="scale(1 1) rotate(0) translate(4 75)">
<title>pahm_netcdfio::base_netcdfcheckerr</title>
<polygon fill="white" stroke="transparent" points="-4,4 -4,-75 616,-75 616,4 -4,4"/>
<!-- Node1 -->
<g id="node1" class="node">
<title>Node1</title>
<g id="a_node1"><a xlink:title="Checks the return value from netCDF calls; if there was an error, it writes the error message to the ...">
<polygon fill="#bfbfbf" stroke="black" points="0,-14 0,-48 128,-48 128,-14 0,-14"/>
<text text-anchor="start" x="8" y="-34.4" font-family="Helvetica,sans-Serif" font-size="12.00">pahm_netcdfio::base</text>
<text text-anchor="middle" x="64" y="-21.4" font-family="Helvetica,sans-Serif" font-size="12.00">_netcdfcheckerr</text>
</a>
</g>
</g>
<!-- Node2 -->
<g id="node2" class="node">
<title>Node2</title>
<g id="a_node2"><a xlink:href="namespacepahm__netcdfio.html#aa0987122588b6ef883046848cfcefe0b" target="_top" xlink:title="Terminates the program on NetCDF error.">
<polygon fill="white" stroke="black" points="164,-20.5 164,-41.5 348,-41.5 348,-20.5 164,-20.5"/>
<text text-anchor="middle" x="256" y="-27.9" font-family="Helvetica,sans-Serif" font-size="12.00">pahm_netcdfio::netcdfterminate</text>
</a>
</g>
</g>
<!-- Node1&#45;&gt;Node2 -->
<g id="edge1" class="edge">
<title>Node1&#45;&gt;Node2</title>
<path fill="none" stroke="midnightblue" d="M128,-31C136.23,-31 144.83,-31 153.49,-31"/>
<polygon fill="midnightblue" stroke="midnightblue" points="153.68,-34.5 163.68,-31 153.68,-27.5 153.68,-34.5"/>
</g>
<!-- Node3 -->
<g id="node3" class="node">
<title>Node3</title>
<g id="a_node3"><a xlink:href="namespacepahm__messages.html#acf0c696cc1604842ee84a5df6d81179c" target="_top" xlink:title="Sets the name of the subroutine that is writing log and/or screen messages.">
<polygon fill="white" stroke="black" points="390.5,-49.5 390.5,-70.5 605.5,-70.5 605.5,-49.5 390.5,-49.5"/>
<text text-anchor="middle" x="498" y="-56.9" font-family="Helvetica,sans-Serif" font-size="12.00">pahm_messages::setmessagesource</text>
</a>
</g>
</g>
<!-- Node1&#45;&gt;Node3 -->
<g id="edge4" class="edge">
<title>Node1&#45;&gt;Node3</title>
<path fill="none" stroke="midnightblue" d="M128.12,-45.44C139.98,-47.67 152.33,-49.67 164,-51 235.45,-59.12 316.06,-61.48 380.07,-61.75"/>
<polygon fill="midnightblue" stroke="midnightblue" points="380.19,-65.25 390.19,-61.78 380.2,-58.25 380.19,-65.25"/>
</g>
<!-- Node4 -->
<g id="node4" class="node">
<title>Node4</title>
<g id="a_node4"><a xlink:href="namespacepahm__messages.html#ad35e9f2327aad65d4c669e3d886f54dc" target="_top" xlink:title="Removes the name of the subroutine that is no longer active.">
<polygon fill="white" stroke="black" points="384,-0.5 384,-21.5 612,-21.5 612,-0.5 384,-0.5"/>
<text text-anchor="middle" x="498" y="-7.9" font-family="Helvetica,sans-Serif" font-size="12.00">pahm_messages::unsetmessagesource</text>
</a>
</g>
</g>
<!-- Node1&#45;&gt;Node4 -->
<g id="edge5" class="edge">
<title>Node1&#45;&gt;Node4</title>
<path fill="none" stroke="midnightblue" d="M128.09,-16.3C139.96,-14.1 152.31,-12.17 164,-11 233.07,-4.09 310.6,-3.67 373.46,-5.16"/>
<polygon fill="midnightblue" stroke="midnightblue" points="373.73,-8.67 383.82,-5.42 373.91,-1.67 373.73,-8.67"/>
</g>
<!-- Node2&#45;&gt;Node3 -->
<g id="edge2" class="edge">
<title>Node2&#45;&gt;Node3</title>
<path fill="none" stroke="midnightblue" d="M343.98,-41.51C362.09,-43.7 381.29,-46.02 399.75,-48.25"/>
<polygon fill="midnightblue" stroke="midnightblue" points="399.56,-51.75 409.91,-49.48 400.4,-44.8 399.56,-51.75"/>
</g>
<!-- Node2&#45;&gt;Node4 -->
<g id="edge3" class="edge">
<title>Node2&#45;&gt;Node4</title>
<path fill="none" stroke="midnightblue" d="M348.08,-23.41C356.46,-22.71 365.05,-22 373.66,-21.28"/>
<polygon fill="midnightblue" stroke="midnightblue" points="374.1,-24.75 383.77,-20.44 373.51,-17.78 374.1,-24.75"/>
</g>
</g>
</svg>
