<?xml version="1.0" encoding="UTF-8" standalone="no"?>
<!DOCTYPE svg PUBLIC "-//W3C//DTD SVG 1.1//EN"
 "http://www.w3.org/Graphics/SVG/1.1/DTD/svg11.dtd">
<!-- Generated by graphviz version 2.42.4 (0)
 -->
<!-- Title: pahm_drivermod::pahm_finalize Pages: 1 -->
<svg width="415pt" height="110pt"
 viewBox="0.00 0.00 415.00 110.00" xmlns="http://www.w3.org/2000/svg" xmlns:xlink="http://www.w3.org/1999/xlink">
<g id="graph0" class="graph" transform="scale(1 1) rotate(0) translate(4 106)">
<title>pahm_drivermod::pahm_finalize</title>
<polygon fill="white" stroke="transparent" points="-4,4 -4,-106 411,-106 411,4 -4,4"/>
<!-- Node1 -->
<g id="node1" class="node">
<title>Node1</title>
<g id="a_node1"><a xlink:title="Subroutine to finalize a PaHM run.">
<polygon fill="#bfbfbf" stroke="black" points="0,-34 0,-68 143,-68 143,-34 0,-34"/>
<text text-anchor="start" x="8" y="-54.4" font-family="Helvetica,sans-Serif" font-size="12.00">pahm_drivermod::pahm</text>
<text text-anchor="middle" x="71.5" y="-41.4" font-family="Helvetica,sans-Serif" font-size="12.00">_finalize</text>
</a>
</g>
</g>
<!-- Node2 -->
<g id="node2" class="node">
<title>Node2</title>
<g id="a_node2"><a xlink:href="namespacepahm__messages.html#ac4e3ac4677b30069fdf8e71c1c6445d4" target="_top" xlink:title="Closes an opened log file.">
<polygon fill="white" stroke="black" points="205.5,-80.5 205.5,-101.5 380.5,-101.5 380.5,-80.5 205.5,-80.5"/>
<text text-anchor="middle" x="293" y="-87.9" font-family="Helvetica,sans-Serif" font-size="12.00">pahm_messages::closelogfile</text>
</a>
</g>
</g>
<!-- Node1&#45;&gt;Node2 -->
<g id="edge1" class="edge">
<title>Node1&#45;&gt;Node2</title>
<path fill="none" stroke="midnightblue" d="M143.23,-64.39C155.17,-66.62 167.43,-68.89 179,-71 192.8,-73.52 207.56,-76.16 221.7,-78.68"/>
<polygon fill="midnightblue" stroke="midnightblue" points="221.41,-82.18 231.87,-80.48 222.63,-75.29 221.41,-82.18"/>
</g>
<!-- Node3 -->
<g id="node3" class="node">
<title>Node3</title>
<g id="a_node3"><a xlink:href="namespacepahm__messages.html#acf0c696cc1604842ee84a5df6d81179c" target="_top" xlink:title="Sets the name of the subroutine that is writing log and/or screen messages.">
<polygon fill="white" stroke="black" points="185.5,-40.5 185.5,-61.5 400.5,-61.5 400.5,-40.5 185.5,-40.5"/>
<text text-anchor="middle" x="293" y="-47.9" font-family="Helvetica,sans-Serif" font-size="12.00">pahm_messages::setmessagesource</text>
</a>
</g>
</g>
<!-- Node1&#45;&gt;Node3 -->
<g id="edge2" class="edge">
<title>Node1&#45;&gt;Node3</title>
<path fill="none" stroke="midnightblue" d="M143.16,-51C153.43,-51 164.22,-51 175.1,-51"/>
<polygon fill="midnightblue" stroke="midnightblue" points="175.12,-54.5 185.12,-51 175.12,-47.5 175.12,-54.5"/>
</g>
<!-- Node4 -->
<g id="node4" class="node">
<title>Node4</title>
<g id="a_node4"><a xlink:href="namespacepahm__messages.html#ad35e9f2327aad65d4c669e3d886f54dc" target="_top" xlink:title="Removes the name of the subroutine that is no longer active.">
<polygon fill="white" stroke="black" points="179,-0.5 179,-21.5 407,-21.5 407,-0.5 179,-0.5"/>
<text text-anchor="middle" x="293" y="-7.9" font-family="Helvetica,sans-Serif" font-size="12.00">pahm_messages::unsetmessagesource</text>
</a>
</g>
</g>
<!-- Node1&#45;&gt;Node4 -->
<g id="edge3" class="edge">
<title>Node1&#45;&gt;Node4</title>
<path fill="none" stroke="midnightblue" d="M143.23,-37.61C155.17,-35.38 167.43,-33.11 179,-31 192.8,-28.48 207.56,-25.84 221.7,-23.32"/>
<polygon fill="midnightblue" stroke="midnightblue" points="222.63,-26.71 231.87,-21.52 221.41,-19.82 222.63,-26.71"/>
</g>
</g>
</svg>
