<?xml version="1.0" encoding="UTF-8" standalone="no"?>
<!DOCTYPE svg PUBLIC "-//W3C//DTD SVG 1.1//EN"
 "http://www.w3.org/Graphics/SVG/1.1/DTD/svg11.dtd">
<!-- Generated by graphviz version 2.42.4 (0)
 -->
<!-- Title: timedateutils::joindate Pages: 1 -->
<svg width="1078pt" height="228pt"
 viewBox="0.00 0.00 1078.00 227.50" xmlns="http://www.w3.org/2000/svg" xmlns:xlink="http://www.w3.org/1999/xlink">
<g id="graph0" class="graph" transform="scale(1 1) rotate(0) translate(4 223.5)">
<title>timedateutils::joindate</title>
<polygon fill="white" stroke="transparent" points="-4,4 -4,-223.5 1074,-223.5 1074,4 -4,4"/>
<!-- Node1 -->
<g id="node1" class="node">
<title>Node1</title>
<g id="a_node1"><a xlink:title="Pre&#45;processes an arbitrary date string.">
<polygon fill="#bfbfbf" stroke="black" points="937,-113 937,-134 1070,-134 1070,-113 937,-113"/>
<text text-anchor="middle" x="1003.5" y="-120.4" font-family="Helvetica,sans-Serif" font-size="12.00">timedateutils::joindate</text>
</a>
</g>
</g>
<!-- Node2 -->
<g id="node2" class="node">
<title>Node2</title>
<g id="a_node2"><a xlink:href="namespaceutilities.html#a1e2f2593103f415e1c073284ff95a83f" target="_top" xlink:title="Checks the user defined control file inputs.">
<polygon fill="white" stroke="black" points="719.5,-198 719.5,-219 895.5,-219 895.5,-198 719.5,-198"/>
<text text-anchor="middle" x="807.5" y="-205.4" font-family="Helvetica,sans-Serif" font-size="12.00">utilities::checkcontrolfileinputs</text>
</a>
</g>
</g>
<!-- Node1&#45;&gt;Node2 -->
<g id="edge1" class="edge">
<title>Node1&#45;&gt;Node2</title>
<path fill="none" stroke="midnightblue" d="M978.92,-139.93C958.94,-153.23 929.14,-171.64 901,-183.5 887.2,-189.32 871.68,-194.13 857.34,-197.93"/>
<polygon fill="midnightblue" stroke="midnightblue" points="981.04,-142.72 987.37,-134.22 977.12,-136.92 981.04,-142.72"/>
</g>
<!-- Node3 -->
<g id="node3" class="node">
<title>Node3</title>
<g id="a_node3"><a xlink:href="namespaceutilities.html#ab095172ef12ae151ab5c9aacf82f4dc6" target="_top" xlink:title="This subroutine reads the program&#39;s main control file.">
<polygon fill="white" stroke="black" points="542,-178 542,-199 678,-199 678,-178 542,-178"/>
<text text-anchor="middle" x="610" y="-185.4" font-family="Helvetica,sans-Serif" font-size="12.00">utilities::readcontrolfile</text>
</a>
</g>
</g>
<!-- Node1&#45;&gt;Node3 -->
<g id="edge8" class="edge">
<title>Node1&#45;&gt;Node3</title>
<path fill="none" stroke="midnightblue" d="M957.57,-136.8C940.04,-141.63 919.69,-146.81 901,-150.5 825.28,-165.47 737.24,-176.06 678.21,-182.19"/>
<polygon fill="midnightblue" stroke="midnightblue" points="958.85,-140.07 967.53,-134 956.96,-133.33 958.85,-140.07"/>
</g>
<!-- Node7 -->
<g id="node7" class="node">
<title>Node7</title>
<g id="a_node7"><a xlink:href="interfacetimedateutils_1_1gregtojulday.html#afc8af3bdb0b4ce15757d5d57c4dccd35" target="_top" xlink:title="Determines the Julian date from a Gregorian date.">
<polygon fill="white" stroke="black" points="730,-106.5 730,-140.5 885,-140.5 885,-106.5 730,-106.5"/>
<text text-anchor="start" x="738" y="-126.9" font-family="Helvetica,sans-Serif" font-size="12.00">timedateutils::gregtojulday</text>
<text text-anchor="middle" x="807.5" y="-113.9" font-family="Helvetica,sans-Serif" font-size="12.00">::gregtojuldayisec</text>
</a>
</g>
</g>
<!-- Node1&#45;&gt;Node7 -->
<g id="edge6" class="edge">
<title>Node1&#45;&gt;Node7</title>
<path fill="none" stroke="midnightblue" d="M926.55,-123.5C912.96,-123.5 898.78,-123.5 885.17,-123.5"/>
<polygon fill="midnightblue" stroke="midnightblue" points="926.82,-127 936.82,-123.5 926.82,-120 926.82,-127"/>
</g>
<!-- Node8 -->
<g id="node8" class="node">
<title>Node8</title>
<g id="a_node8"><a xlink:href="interfacetimedateutils_1_1gregtojulday.html#a69d60502d5a566a83c486c68ef728178" target="_top" xlink:title="Determines the Julian date from a Gregorian date.">
<polygon fill="white" stroke="black" points="730,-53.5 730,-87.5 885,-87.5 885,-53.5 730,-53.5"/>
<text text-anchor="start" x="738" y="-73.9" font-family="Helvetica,sans-Serif" font-size="12.00">timedateutils::gregtojulday</text>
<text text-anchor="middle" x="807.5" y="-60.9" font-family="Helvetica,sans-Serif" font-size="12.00">::gregtojuldayrsec</text>
</a>
</g>
</g>
<!-- Node1&#45;&gt;Node8 -->
<g id="edge7" class="edge">
<title>Node1&#45;&gt;Node8</title>
<path fill="none" stroke="midnightblue" d="M954.02,-110.26C928.86,-103.38 897.83,-94.91 870.9,-87.55"/>
<polygon fill="midnightblue" stroke="midnightblue" points="953.14,-113.64 963.71,-112.9 954.98,-106.89 953.14,-113.64"/>
</g>
<!-- Node9 -->
<g id="node9" class="node">
<title>Node9</title>
<g id="a_node9"><a xlink:href="interfacetimedateutils_1_1splitdatetimestring.html#ae4e99ec4039eb29e05103be89968f374" target="_top" xlink:title="Splits a date string into two components.">
<polygon fill="white" stroke="black" points="714,-0.5 714,-34.5 901,-34.5 901,-0.5 714,-0.5"/>
<text text-anchor="start" x="722" y="-20.9" font-family="Helvetica,sans-Serif" font-size="12.00">timedateutils::splitdatetimestring</text>
<text text-anchor="middle" x="807.5" y="-7.9" font-family="Helvetica,sans-Serif" font-size="12.00">::splitdatetimestring2</text>
</a>
</g>
</g>
<!-- Node1&#45;&gt;Node9 -->
<g id="edge9" class="edge">
<title>Node1&#45;&gt;Node9</title>
<path fill="none" stroke="midnightblue" d="M984.48,-105.99C965.25,-88.19 933.18,-60.96 901,-44.5 893.7,-40.77 885.81,-37.48 877.82,-34.59"/>
<polygon fill="midnightblue" stroke="midnightblue" points="982.22,-108.67 991.9,-112.98 987.02,-103.57 982.22,-108.67"/>
</g>
<!-- Node2&#45;&gt;Node3 -->
<g id="edge2" class="edge">
<title>Node2&#45;&gt;Node3</title>
<path fill="none" stroke="midnightblue" d="M709.23,-198.55C698.68,-197.47 688.13,-196.39 678.05,-195.36"/>
<polygon fill="midnightblue" stroke="midnightblue" points="709.02,-202.05 719.33,-199.58 709.74,-195.08 709.02,-202.05"/>
</g>
<!-- Node4 -->
<g id="node4" class="node">
<title>Node4</title>
<g id="a_node4"><a xlink:href="namespacepahm__drivermod.html#a3294ddc68b72ff9220010a8764a8afe3" target="_top" xlink:title="Prints on the screen the help system of the PaHM program.">
<polygon fill="white" stroke="black" points="284,-178 284,-199 506,-199 506,-178 284,-178"/>
<text text-anchor="middle" x="395" y="-185.4" font-family="Helvetica,sans-Serif" font-size="12.00">pahm_drivermod::getprogramcmdlargs</text>
</a>
</g>
</g>
<!-- Node3&#45;&gt;Node4 -->
<g id="edge3" class="edge">
<title>Node3&#45;&gt;Node4</title>
<path fill="none" stroke="midnightblue" d="M531.8,-188.5C523.39,-188.5 514.73,-188.5 506.03,-188.5"/>
<polygon fill="midnightblue" stroke="midnightblue" points="531.9,-192 541.9,-188.5 531.9,-185 531.9,-192"/>
</g>
<!-- Node5 -->
<g id="node5" class="node">
<title>Node5</title>
<g id="a_node5"><a xlink:href="namespacepahm__drivermod.html#ae0d4b223a96ba116b38152caf6b0768c" target="_top" xlink:title="Subroutine to initialize a PaHM run.">
<polygon fill="white" stroke="black" points="83,-178 83,-199 248,-199 248,-178 83,-178"/>
<text text-anchor="middle" x="165.5" y="-185.4" font-family="Helvetica,sans-Serif" font-size="12.00">pahm_drivermod::pahm_init</text>
</a>
</g>
</g>
<!-- Node4&#45;&gt;Node5 -->
<g id="edge4" class="edge">
<title>Node4&#45;&gt;Node5</title>
<path fill="none" stroke="midnightblue" d="M273.77,-188.5C265.14,-188.5 256.56,-188.5 248.22,-188.5"/>
<polygon fill="midnightblue" stroke="midnightblue" points="273.92,-192 283.92,-188.5 273.92,-185 273.92,-192"/>
</g>
<!-- Node6 -->
<g id="node6" class="node">
<title>Node6</title>
<g id="a_node6"><a xlink:href="pahm_8F90.html#a3d3918f5c5f1ac0a7991a7a78f530f30" target="_top" xlink:title=" ">
<polygon fill="white" stroke="black" points="0,-178 0,-199 47,-199 47,-178 0,-178"/>
<text text-anchor="middle" x="23.5" y="-185.4" font-family="Helvetica,sans-Serif" font-size="12.00">pahm</text>
</a>
</g>
</g>
<!-- Node5&#45;&gt;Node6 -->
<g id="edge5" class="edge">
<title>Node5&#45;&gt;Node6</title>
<path fill="none" stroke="midnightblue" d="M72.42,-188.5C63.15,-188.5 54.47,-188.5 47.1,-188.5"/>
<polygon fill="midnightblue" stroke="midnightblue" points="72.66,-192 82.66,-188.5 72.66,-185 72.66,-192"/>
</g>
</g>
</svg>
