<?xml version="1.0" encoding="UTF-8" standalone="no"?>
<!DOCTYPE svg PUBLIC "-//W3C//DTD SVG 1.1//EN"
 "http://www.w3.org/Graphics/SVG/1.1/DTD/svg11.dtd">
<!-- Generated by graphviz version 2.42.4 (0)
 -->
<!-- Title: parwind::readbesttrackfile Pages: 1 -->
<svg width="627pt" height="346pt"
 viewBox="0.00 0.00 627.00 346.00" xmlns="http://www.w3.org/2000/svg" xmlns:xlink="http://www.w3.org/1999/xlink">
<g id="graph0" class="graph" transform="scale(1 1) rotate(0) translate(4 342)">
<title>parwind::readbesttrackfile</title>
<polygon fill="white" stroke="transparent" points="-4,4 -4,-342 623,-342 623,4 -4,4"/>
<!-- Node1 -->
<g id="node1" class="node">
<title>Node1</title>
<g id="a_node1"><a xlink:title="Subroutine to read all a&#45;deck/b&#45;deck best track files (ATCF format).">
<polygon fill="#bfbfbf" stroke="black" points="0,-158.5 0,-179.5 155,-179.5 155,-158.5 0,-158.5"/>
<text text-anchor="middle" x="77.5" y="-165.9" font-family="Helvetica,sans-Serif" font-size="12.00">parwind::readbesttrackfile</text>
</a>
</g>
</g>
<!-- Node2 -->
<g id="node2" class="node">
<title>Node2</title>
<g id="a_node2"><a xlink:href="namespaceparwind.html#a9b826e18db73886e01f39d55bf7e5b85" target="_top" xlink:title="Subroutine to allocate memory for a best track structure.">
<polygon fill="white" stroke="black" points="206,-316.5 206,-337.5 340,-337.5 340,-316.5 206,-316.5"/>
<text text-anchor="middle" x="273" y="-323.9" font-family="Helvetica,sans-Serif" font-size="12.00">parwind::allocbtrstruct</text>
</a>
</g>
</g>
<!-- Node1&#45;&gt;Node2 -->
<g id="edge1" class="edge">
<title>Node1&#45;&gt;Node2</title>
<path fill="none" stroke="midnightblue" d="M83.94,-179.59C97.92,-205.66 137.72,-273.27 191,-307 194.19,-309.02 197.56,-310.83 201.05,-312.46"/>
<polygon fill="midnightblue" stroke="midnightblue" points="199.95,-315.79 210.53,-316.37 202.62,-309.32 199.95,-315.79"/>
</g>
<!-- Node3 -->
<g id="node3" class="node">
<title>Node3</title>
<g id="a_node3"><a xlink:href="namespaceutilities.html#a241eabd46f9d0e4a26adc221570ad79f" target="_top" xlink:title="Find the unique non&#45;blank elements in 1D character array.">
<polygon fill="white" stroke="black" points="213,-276.5 213,-297.5 333,-297.5 333,-276.5 213,-276.5"/>
<text text-anchor="middle" x="273" y="-283.9" font-family="Helvetica,sans-Serif" font-size="12.00">utilities::charunique</text>
</a>
</g>
</g>
<!-- Node1&#45;&gt;Node3 -->
<g id="edge2" class="edge">
<title>Node1&#45;&gt;Node3</title>
<path fill="none" stroke="midnightblue" d="M87.53,-179.7C105.23,-199.95 146.64,-243.94 191,-267 195.46,-269.32 200.21,-271.38 205.07,-273.2"/>
<polygon fill="midnightblue" stroke="midnightblue" points="203.94,-276.52 214.54,-276.44 206.21,-269.89 203.94,-276.52"/>
</g>
<!-- Node4 -->
<g id="node4" class="node">
<title>Node4</title>
<g id="a_node4"><a xlink:href="namespaceutilities.html#a8723656afba63e33ed1c6cc8e5440b63" target="_top" xlink:title="Gets a line from a file.">
<polygon fill="white" stroke="black" points="208,-236.5 208,-257.5 338,-257.5 338,-236.5 208,-236.5"/>
<text text-anchor="middle" x="273" y="-243.9" font-family="Helvetica,sans-Serif" font-size="12.00">utilities::getlinerecord</text>
</a>
</g>
</g>
<!-- Node1&#45;&gt;Node4 -->
<g id="edge3" class="edge">
<title>Node1&#45;&gt;Node4</title>
<path fill="none" stroke="midnightblue" d="M98.85,-179.66C121.1,-191.05 157.99,-209.2 191,-222 201.51,-226.07 212.97,-229.95 223.89,-233.37"/>
<polygon fill="midnightblue" stroke="midnightblue" points="223.12,-236.8 233.71,-236.39 225.18,-230.11 223.12,-236.8"/>
</g>
<!-- Node5 -->
<g id="node5" class="node">
<title>Node5</title>
<g id="a_node5"><a xlink:href="namespaceutilities.html#a2a41067ed5533ec0c36318e8f1e960bf" target="_top" xlink:title="This subroutine opens an existing file for reading.">
<polygon fill="white" stroke="black" points="203,-118.5 203,-139.5 343,-139.5 343,-118.5 203,-118.5"/>
<text text-anchor="middle" x="273" y="-125.9" font-family="Helvetica,sans-Serif" font-size="12.00">utilities::openfileforread</text>
</a>
</g>
</g>
<!-- Node1&#45;&gt;Node5 -->
<g id="edge4" class="edge">
<title>Node1&#45;&gt;Node5</title>
<path fill="none" stroke="midnightblue" d="M129.34,-158.49C154.46,-153.3 184.96,-146.99 211.29,-141.55"/>
<polygon fill="midnightblue" stroke="midnightblue" points="212.08,-144.96 221.16,-139.51 210.66,-138.11 212.08,-144.96"/>
</g>
<!-- Node6 -->
<g id="node6" class="node">
<title>Node6</title>
<g id="a_node6"><a xlink:href="namespacepahm__messages.html#acf0c696cc1604842ee84a5df6d81179c" target="_top" xlink:title="Sets the name of the subroutine that is writing log and/or screen messages.">
<polygon fill="white" stroke="black" points="397.5,-158.5 397.5,-179.5 612.5,-179.5 612.5,-158.5 397.5,-158.5"/>
<text text-anchor="middle" x="505" y="-165.9" font-family="Helvetica,sans-Serif" font-size="12.00">pahm_messages::setmessagesource</text>
</a>
</g>
</g>
<!-- Node1&#45;&gt;Node6 -->
<g id="edge7" class="edge">
<title>Node1&#45;&gt;Node6</title>
<path fill="none" stroke="midnightblue" d="M126.98,-179.54C146.73,-183.34 169.86,-187.14 191,-189 263.61,-195.4 282.27,-193.86 355,-189 379.38,-187.37 405.86,-184.26 429.64,-180.97"/>
<polygon fill="midnightblue" stroke="midnightblue" points="430.24,-184.42 439.65,-179.55 429.26,-177.48 430.24,-184.42"/>
</g>
<!-- Node7 -->
<g id="node7" class="node">
<title>Node7</title>
<g id="a_node7"><a xlink:href="namespacepahm__messages.html#ad35e9f2327aad65d4c669e3d886f54dc" target="_top" xlink:title="Removes the name of the subroutine that is no longer active.">
<polygon fill="white" stroke="black" points="391,-118.5 391,-139.5 619,-139.5 619,-118.5 391,-118.5"/>
<text text-anchor="middle" x="505" y="-125.9" font-family="Helvetica,sans-Serif" font-size="12.00">pahm_messages::unsetmessagesource</text>
</a>
</g>
</g>
<!-- Node1&#45;&gt;Node7 -->
<g id="edge12" class="edge">
<title>Node1&#45;&gt;Node7</title>
<path fill="none" stroke="midnightblue" d="M92.82,-158.35C113.32,-143.83 152.78,-118.56 191,-109 281.07,-86.48 390.01,-102.83 452.73,-116.26"/>
<polygon fill="midnightblue" stroke="midnightblue" points="452.24,-119.74 462.76,-118.47 453.75,-112.9 452.24,-119.74"/>
</g>
<!-- Node8 -->
<g id="node8" class="node">
<title>Node8</title>
<g id="a_node8"><a xlink:href="namespacepahm__messages.html#a8fdeeba7e0469ebda6435518f619444b" target="_top" xlink:title="Terminates the calling program when a fatal error is encountered.">
<polygon fill="white" stroke="black" points="191,-158.5 191,-179.5 355,-179.5 355,-158.5 191,-158.5"/>
<text text-anchor="middle" x="273" y="-165.9" font-family="Helvetica,sans-Serif" font-size="12.00">pahm_messages::terminate</text>
</a>
</g>
</g>
<!-- Node1&#45;&gt;Node8 -->
<g id="edge8" class="edge">
<title>Node1&#45;&gt;Node8</title>
<path fill="none" stroke="midnightblue" d="M155.25,-169C163.67,-169 172.3,-169 180.87,-169"/>
<polygon fill="midnightblue" stroke="midnightblue" points="180.89,-172.5 190.89,-169 180.89,-165.5 180.89,-172.5"/>
</g>
<!-- Node9 -->
<g id="node9" class="node">
<title>Node9</title>
<g id="a_node9"><a xlink:href="namespaceutilities.html#a8dff395c74e87d059dadcf8bacdbfedd" target="_top" xlink:title="Convert a string to upper&#45;case.">
<polygon fill="white" stroke="black" points="210,-40.5 210,-61.5 336,-61.5 336,-40.5 210,-40.5"/>
<text text-anchor="middle" x="273" y="-47.9" font-family="Helvetica,sans-Serif" font-size="12.00">utilities::touppercase</text>
</a>
</g>
</g>
<!-- Node1&#45;&gt;Node9 -->
<g id="edge11" class="edge">
<title>Node1&#45;&gt;Node9</title>
<path fill="none" stroke="midnightblue" d="M88.63,-158.2C107.18,-139.02 148.63,-98.87 191,-76 199.08,-71.64 208.04,-67.91 216.97,-64.78"/>
<polygon fill="midnightblue" stroke="midnightblue" points="218.19,-68.06 226.59,-61.61 216,-61.41 218.19,-68.06"/>
</g>
<!-- Node10 -->
<g id="node10" class="node">
<title>Node10</title>
<g id="a_node10"><a xlink:href="namespaceparwind.html#a7a4d6eb0de8c960ffd29e8705b11e707" target="_top" xlink:title="Writes the best track data (adjusted or not) to the &quot;adjusted&quot; best track output file.">
<polygon fill="white" stroke="black" points="191,-0.5 191,-21.5 355,-21.5 355,-0.5 191,-0.5"/>
<text text-anchor="middle" x="273" y="-7.9" font-family="Helvetica,sans-Serif" font-size="12.00">parwind::writebesttrackdata</text>
</a>
</g>
</g>
<!-- Node1&#45;&gt;Node10 -->
<g id="edge13" class="edge">
<title>Node1&#45;&gt;Node10</title>
<path fill="none" stroke="midnightblue" d="M83.94,-158.41C97.92,-132.34 137.72,-64.73 191,-31 194.19,-28.98 197.56,-27.17 201.05,-25.54"/>
<polygon fill="midnightblue" stroke="midnightblue" points="202.62,-28.68 210.53,-21.63 199.95,-22.21 202.62,-28.68"/>
</g>
<!-- Node5&#45;&gt;Node6 -->
<g id="edge5" class="edge">
<title>Node5&#45;&gt;Node6</title>
<path fill="none" stroke="midnightblue" d="M334.43,-139.51C364.81,-144.79 401.82,-151.23 433.49,-156.74"/>
<polygon fill="midnightblue" stroke="midnightblue" points="433.12,-160.23 443.57,-158.49 434.32,-153.33 433.12,-160.23"/>
</g>
<!-- Node5&#45;&gt;Node7 -->
<g id="edge6" class="edge">
<title>Node5&#45;&gt;Node7</title>
<path fill="none" stroke="midnightblue" d="M343.01,-129C354.91,-129 367.6,-129 380.43,-129"/>
<polygon fill="midnightblue" stroke="midnightblue" points="380.74,-132.5 390.74,-129 380.74,-125.5 380.74,-132.5"/>
</g>
<!-- Node8&#45;&gt;Node6 -->
<g id="edge9" class="edge">
<title>Node8&#45;&gt;Node6</title>
<path fill="none" stroke="midnightblue" d="M355.09,-169C365.59,-169 376.5,-169 387.42,-169"/>
<polygon fill="midnightblue" stroke="midnightblue" points="387.46,-172.5 397.46,-169 387.46,-165.5 387.46,-172.5"/>
</g>
<!-- Node8&#45;&gt;Node7 -->
<g id="edge10" class="edge">
<title>Node8&#45;&gt;Node7</title>
<path fill="none" stroke="midnightblue" d="M334.43,-158.49C364.81,-153.21 401.82,-146.77 433.49,-141.26"/>
<polygon fill="midnightblue" stroke="midnightblue" points="434.32,-144.67 443.57,-139.51 433.12,-137.77 434.32,-144.67"/>
</g>
</g>
</svg>
