<?xml version="1.0" encoding="UTF-8" standalone="no"?>
<!DOCTYPE svg PUBLIC "-//W3C//DTD SVG 1.1//EN"
 "http://www.w3.org/Graphics/SVG/1.1/DTD/svg11.dtd">
<!-- Generated by graphviz version 2.42.4 (0)
 -->
<!-- Title: utilities::valstr Pages: 1 -->
<svg width="373pt" height="30pt"
 viewBox="0.00 0.00 373.00 30.00" xmlns="http://www.w3.org/2000/svg" xmlns:xlink="http://www.w3.org/1999/xlink">
<g id="graph0" class="graph" transform="scale(1 1) rotate(0) translate(4 26)">
<title>utilities::valstr</title>
<polygon fill="white" stroke="transparent" points="-4,4 -4,-26 369,-26 369,4 -4,4"/>
<!-- Node1 -->
<g id="node1" class="node">
<title>Node1</title>
<g id="a_node1"><a xlink:title="Returns the value of the leading double precision real numeric string.">
<polygon fill="#bfbfbf" stroke="black" points="0,-0.5 0,-21.5 89,-21.5 89,-0.5 0,-0.5"/>
<text text-anchor="middle" x="44.5" y="-7.9" font-family="Helvetica,sans-Serif" font-size="12.00">utilities::valstr</text>
</a>
</g>
</g>
<!-- Node2 -->
<g id="node2" class="node">
<title>Node2</title>
<g id="a_node2"><a xlink:href="namespaceutilities.html#a3101905bb797cb61841b9a73bbc419bb" target="_top" xlink:title="Scans string looking for the leading single precision real numeric string.">
<polygon fill="white" stroke="black" points="125,-0.5 125,-21.5 231,-21.5 231,-0.5 125,-0.5"/>
<text text-anchor="middle" x="178" y="-7.9" font-family="Helvetica,sans-Serif" font-size="12.00">utilities::realscan</text>
</a>
</g>
</g>
<!-- Node1&#45;&gt;Node2 -->
<g id="edge1" class="edge">
<title>Node1&#45;&gt;Node2</title>
<path fill="none" stroke="midnightblue" d="M89.29,-11C97.45,-11 106.12,-11 114.72,-11"/>
<polygon fill="midnightblue" stroke="midnightblue" points="114.73,-14.5 124.73,-11 114.73,-7.5 114.73,-14.5"/>
</g>
<!-- Node3 -->
<g id="node3" class="node">
<title>Node3</title>
<g id="a_node3"><a xlink:href="namespaceutilities.html#a26a70a9de90e0016d323e4c8dbea1a5b" target="_top" xlink:title="Scans string looking for the leading integer numeric string.">
<polygon fill="white" stroke="black" points="267,-0.5 267,-21.5 365,-21.5 365,-0.5 267,-0.5"/>
<text text-anchor="middle" x="316" y="-7.9" font-family="Helvetica,sans-Serif" font-size="12.00">utilities::intscan</text>
</a>
</g>
</g>
<!-- Node2&#45;&gt;Node3 -->
<g id="edge2" class="edge">
<title>Node2&#45;&gt;Node3</title>
<path fill="none" stroke="midnightblue" d="M231.19,-11C239.5,-11 248.14,-11 256.58,-11"/>
<polygon fill="midnightblue" stroke="midnightblue" points="256.74,-14.5 266.74,-11 256.74,-7.5 256.74,-14.5"/>
</g>
</g>
</svg>
