<?xml version="1.0" encoding="UTF-8" standalone="no"?>
<!DOCTYPE svg PUBLIC "-//W3C//DTD SVG 1.1//EN"
 "http://www.w3.org/Graphics/SVG/1.1/DTD/svg11.dtd">
<!-- Generated by graphviz version 2.42.4 (0)
 -->
<!-- Title: timedateutils::gettimeconvsec Pages: 1 -->
<svg width="1148pt" height="162pt"
 viewBox="0.00 0.00 1148.00 162.00" xmlns="http://www.w3.org/2000/svg" xmlns:xlink="http://www.w3.org/1999/xlink">
<g id="graph0" class="graph" transform="scale(1 1) rotate(0) translate(4 158)">
<title>timedateutils::gettimeconvsec</title>
<polygon fill="white" stroke="transparent" points="-4,4 -4,-158 1144,-158 1144,4 -4,4"/>
<!-- Node1 -->
<g id="node1" class="node">
<title>Node1</title>
<g id="a_node1"><a xlink:title="Calculates the conversion factor between time units and seconds.">
<polygon fill="#bfbfbf" stroke="black" points="966,-73.5 966,-94.5 1140,-94.5 1140,-73.5 966,-73.5"/>
<text text-anchor="middle" x="1053" y="-80.9" font-family="Helvetica,sans-Serif" font-size="12.00">timedateutils::gettimeconvsec</text>
</a>
</g>
</g>
<!-- Node2 -->
<g id="node2" class="node">
<title>Node2</title>
<g id="a_node2"><a xlink:href="namespaceutilities.html#a1e2f2593103f415e1c073284ff95a83f" target="_top" xlink:title="Checks the user defined control file inputs.">
<polygon fill="white" stroke="black" points="735,-132.5 735,-153.5 911,-153.5 911,-132.5 735,-132.5"/>
<text text-anchor="middle" x="823" y="-139.9" font-family="Helvetica,sans-Serif" font-size="12.00">utilities::checkcontrolfileinputs</text>
</a>
</g>
</g>
<!-- Node1&#45;&gt;Node2 -->
<g id="edge1" class="edge">
<title>Node1&#45;&gt;Node2</title>
<path fill="none" stroke="midnightblue" d="M1005.79,-97.35C983.03,-103.81 955.13,-111.54 930,-118 910.59,-122.99 889.08,-128.14 870.54,-132.45"/>
<polygon fill="midnightblue" stroke="midnightblue" points="1006.87,-100.68 1015.53,-94.58 1004.96,-93.95 1006.87,-100.68"/>
</g>
<!-- Node3 -->
<g id="node3" class="node">
<title>Node3</title>
<g id="a_node3"><a xlink:href="namespaceutilities.html#ab095172ef12ae151ab5c9aacf82f4dc6" target="_top" xlink:title="This subroutine reads the program&#39;s main control file.">
<polygon fill="white" stroke="black" points="543,-132.5 543,-153.5 679,-153.5 679,-132.5 543,-132.5"/>
<text text-anchor="middle" x="611" y="-139.9" font-family="Helvetica,sans-Serif" font-size="12.00">utilities::readcontrolfile</text>
</a>
</g>
</g>
<!-- Node1&#45;&gt;Node3 -->
<g id="edge12" class="edge">
<title>Node1&#45;&gt;Node3</title>
<path fill="none" stroke="midnightblue" d="M955.62,-93.26C888.32,-100.2 796.46,-110.61 716,-123 698.55,-125.69 679.57,-129.17 662.65,-132.48"/>
<polygon fill="midnightblue" stroke="midnightblue" points="956.2,-96.72 965.79,-92.22 955.49,-89.76 956.2,-96.72"/>
</g>
<!-- Node7 -->
<g id="node7" class="node">
<title>Node7</title>
<g id="a_node7"><a xlink:href="namespacetimedateutils.html#a109255326a7eb93c3ccdb4b543c26385" target="_top" xlink:title="Calculates the elapsed time in seconds.">
<polygon fill="white" stroke="black" points="744,-54.5 744,-75.5 902,-75.5 902,-54.5 744,-54.5"/>
<text text-anchor="middle" x="823" y="-61.9" font-family="Helvetica,sans-Serif" font-size="12.00">timedateutils::elapsedsecs</text>
</a>
</g>
</g>
<!-- Node1&#45;&gt;Node7 -->
<g id="edge6" class="edge">
<title>Node1&#45;&gt;Node7</title>
<path fill="none" stroke="midnightblue" d="M955.41,-75.95C937.61,-74.47 919.24,-72.94 902.07,-71.51"/>
<polygon fill="midnightblue" stroke="midnightblue" points="955.55,-79.47 965.8,-76.82 956.13,-72.5 955.55,-79.47"/>
</g>
<!-- Node10 -->
<g id="node10" class="node">
<title>Node10</title>
<g id="a_node10"><a xlink:href="namespacepahm__netcdfio.html#a21917504b7e9d5594375d1a48bb4cb8f" target="_top" xlink:title="Initializes a new NetCDF data file and puts it in define mode. Sets up netCDF dimensions and variable...">
<polygon fill="white" stroke="black" points="716,-0.5 716,-21.5 930,-21.5 930,-0.5 716,-0.5"/>
<text text-anchor="middle" x="823" y="-7.9" font-family="Helvetica,sans-Serif" font-size="12.00">pahm_netcdfio::initadcircnetcdfoutfile</text>
</a>
</g>
</g>
<!-- Node1&#45;&gt;Node10 -->
<g id="edge9" class="edge">
<title>Node1&#45;&gt;Node10</title>
<path fill="none" stroke="midnightblue" d="M1009.25,-70.31C965.04,-56.16 896.97,-34.36 856.82,-21.51"/>
<polygon fill="midnightblue" stroke="midnightblue" points="1008.26,-73.67 1018.85,-73.39 1010.39,-67 1008.26,-73.67"/>
</g>
<!-- Node2&#45;&gt;Node3 -->
<g id="edge2" class="edge">
<title>Node2&#45;&gt;Node3</title>
<path fill="none" stroke="midnightblue" d="M724.68,-143C709.27,-143 693.63,-143 679.11,-143"/>
<polygon fill="midnightblue" stroke="midnightblue" points="724.77,-146.5 734.77,-143 724.77,-139.5 724.77,-146.5"/>
</g>
<!-- Node4 -->
<g id="node4" class="node">
<title>Node4</title>
<g id="a_node4"><a xlink:href="namespacepahm__drivermod.html#a3294ddc68b72ff9220010a8764a8afe3" target="_top" xlink:title="Prints on the screen the help system of the PaHM program.">
<polygon fill="white" stroke="black" points="284,-105.5 284,-126.5 506,-126.5 506,-105.5 284,-105.5"/>
<text text-anchor="middle" x="395" y="-112.9" font-family="Helvetica,sans-Serif" font-size="12.00">pahm_drivermod::getprogramcmdlargs</text>
</a>
</g>
</g>
<!-- Node3&#45;&gt;Node4 -->
<g id="edge3" class="edge">
<title>Node3&#45;&gt;Node4</title>
<path fill="none" stroke="midnightblue" d="M532.82,-133.26C515.49,-131.08 497.03,-128.75 479.46,-126.53"/>
<polygon fill="midnightblue" stroke="midnightblue" points="532.52,-136.75 542.88,-134.53 533.39,-129.81 532.52,-136.75"/>
</g>
<!-- Node5 -->
<g id="node5" class="node">
<title>Node5</title>
<g id="a_node5"><a xlink:href="namespacepahm__drivermod.html#ae0d4b223a96ba116b38152caf6b0768c" target="_top" xlink:title="Subroutine to initialize a PaHM run.">
<polygon fill="white" stroke="black" points="83,-78.5 83,-99.5 248,-99.5 248,-78.5 83,-78.5"/>
<text text-anchor="middle" x="165.5" y="-85.9" font-family="Helvetica,sans-Serif" font-size="12.00">pahm_drivermod::pahm_init</text>
</a>
</g>
</g>
<!-- Node4&#45;&gt;Node5 -->
<g id="edge4" class="edge">
<title>Node4&#45;&gt;Node5</title>
<path fill="none" stroke="midnightblue" d="M295.15,-104.27C279.47,-102.41 263.41,-100.5 248.18,-98.69"/>
<polygon fill="midnightblue" stroke="midnightblue" points="295.05,-107.78 305.39,-105.48 295.87,-100.83 295.05,-107.78"/>
</g>
<!-- Node6 -->
<g id="node6" class="node">
<title>Node6</title>
<g id="a_node6"><a xlink:href="pahm_8F90.html#a3d3918f5c5f1ac0a7991a7a78f530f30" target="_top" xlink:title=" ">
<polygon fill="white" stroke="black" points="0,-58.5 0,-79.5 47,-79.5 47,-58.5 0,-58.5"/>
<text text-anchor="middle" x="23.5" y="-65.9" font-family="Helvetica,sans-Serif" font-size="12.00">pahm</text>
</a>
</g>
</g>
<!-- Node5&#45;&gt;Node6 -->
<g id="edge5" class="edge">
<title>Node5&#45;&gt;Node6</title>
<path fill="none" stroke="midnightblue" d="M80.79,-77.04C68.41,-75.27 56.63,-73.59 47.07,-72.22"/>
<polygon fill="midnightblue" stroke="midnightblue" points="80.42,-80.52 90.81,-78.47 81.41,-73.59 80.42,-80.52"/>
</g>
<!-- Node8 -->
<g id="node8" class="node">
<title>Node8</title>
<g id="a_node8"><a xlink:href="interfacetimedateutils_1_1timeconv.html#a2f5f511b312d9f4b1bed33ecb8567b86" target="_top" xlink:title="Convert time from year, month, day, hour, min, sec into seconds since the reference date of the simul...">
<polygon fill="white" stroke="black" points="542,-79 542,-113 680,-113 680,-79 542,-79"/>
<text text-anchor="start" x="550" y="-99.4" font-family="Helvetica,sans-Serif" font-size="12.00">timedateutils::timeconv</text>
<text text-anchor="middle" x="611" y="-86.4" font-family="Helvetica,sans-Serif" font-size="12.00">::timeconvisec</text>
</a>
</g>
</g>
<!-- Node7&#45;&gt;Node8 -->
<g id="edge7" class="edge">
<title>Node7&#45;&gt;Node8</title>
<path fill="none" stroke="midnightblue" d="M740.63,-77.01C720.71,-79.95 699.59,-83.07 680.35,-85.91"/>
<polygon fill="midnightblue" stroke="midnightblue" points="741.23,-80.46 750.61,-75.54 740.21,-73.54 741.23,-80.46"/>
</g>
<!-- Node9 -->
<g id="node9" class="node">
<title>Node9</title>
<g id="a_node9"><a xlink:href="interfacetimedateutils_1_1timeconv.html#a03e2abbe51f02a02624986a3d49ec192" target="_top" xlink:title="Convert time from year, month, day, hour, min, sec into seconds since the reference date of the simul...">
<polygon fill="white" stroke="black" points="542,-26 542,-60 680,-60 680,-26 542,-26"/>
<text text-anchor="start" x="550" y="-46.4" font-family="Helvetica,sans-Serif" font-size="12.00">timedateutils::timeconv</text>
<text text-anchor="middle" x="611" y="-33.4" font-family="Helvetica,sans-Serif" font-size="12.00">::timeconvrsec</text>
</a>
</g>
</g>
<!-- Node7&#45;&gt;Node9 -->
<g id="edge8" class="edge">
<title>Node7&#45;&gt;Node9</title>
<path fill="none" stroke="midnightblue" d="M733.42,-55.72C715.64,-53.86 697.21,-51.93 680.25,-50.15"/>
<polygon fill="midnightblue" stroke="midnightblue" points="733.49,-59.25 743.8,-56.81 734.22,-52.29 733.49,-59.25"/>
</g>
<!-- Node11 -->
<g id="node11" class="node">
<title>Node11</title>
<g id="a_node11"><a xlink:href="namespacepahm__drivermod.html#a7ae4571521a5bb4eb55990dd7fb76237" target="_top" xlink:title="Subroutine to run PaHM (timestepping).">
<polygon fill="white" stroke="black" points="311.5,-39.5 311.5,-60.5 478.5,-60.5 478.5,-39.5 311.5,-39.5"/>
<text text-anchor="middle" x="395" y="-46.9" font-family="Helvetica,sans-Serif" font-size="12.00">pahm_drivermod::pahm_run</text>
</a>
</g>
</g>
<!-- Node10&#45;&gt;Node11 -->
<g id="edge10" class="edge">
<title>Node10&#45;&gt;Node11</title>
<path fill="none" stroke="midnightblue" d="M705.63,-7.61C655.16,-7.54 595.49,-9.37 542,-16 503.77,-20.74 460.95,-31.36 431.62,-39.48"/>
<polygon fill="midnightblue" stroke="midnightblue" points="705.91,-11.11 715.93,-7.64 705.94,-4.11 705.91,-11.11"/>
</g>
<!-- Node11&#45;&gt;Node6 -->
<g id="edge11" class="edge">
<title>Node11&#45;&gt;Node6</title>
<path fill="none" stroke="midnightblue" d="M300.89,-54.79C215.91,-59.16 96.29,-65.31 47.04,-67.84"/>
<polygon fill="midnightblue" stroke="midnightblue" points="301.27,-58.27 311.08,-54.26 300.91,-51.28 301.27,-58.27"/>
</g>
</g>
</svg>
