<?xml version="1.0" encoding="UTF-8" standalone="no"?>
<!DOCTYPE svg PUBLIC "-//W3C//DTD SVG 1.1//EN"
 "http://www.w3.org/Graphics/SVG/1.1/DTD/svg11.dtd">
<!-- Generated by graphviz version 2.42.4 (0)
 -->
<!-- Title: timedateutils::juldaytogreg Pages: 1 -->
<svg width="920pt" height="110pt"
 viewBox="0.00 0.00 920.00 110.00" xmlns="http://www.w3.org/2000/svg" xmlns:xlink="http://www.w3.org/1999/xlink">
<g id="graph0" class="graph" transform="scale(1 1) rotate(0) translate(4 106)">
<title>timedateutils::juldaytogreg</title>
<polygon fill="white" stroke="transparent" points="-4,4 -4,-106 916,-106 916,4 -4,4"/>
<!-- Node1 -->
<g id="node1" class="node">
<title>Node1</title>
<g id="a_node1"><a xlink:title="Determines the Julian date from a Gregorian date.">
<polygon fill="#bfbfbf" stroke="black" points="757,-40.5 757,-61.5 912,-61.5 912,-40.5 757,-40.5"/>
<text text-anchor="middle" x="834.5" y="-47.9" font-family="Helvetica,sans-Serif" font-size="12.00">timedateutils::juldaytogreg</text>
</a>
</g>
</g>
<!-- Node2 -->
<g id="node2" class="node">
<title>Node2</title>
<g id="a_node2"><a xlink:href="namespacetimedateutils.html#a86f68bd48786e32c535b0564f3bdea5c" target="_top" xlink:title="Determines the Gregorian date (year, month, day) from a day of the year.">
<polygon fill="white" stroke="black" points="544,-80.5 544,-101.5 721,-101.5 721,-80.5 544,-80.5"/>
<text text-anchor="middle" x="632.5" y="-87.9" font-family="Helvetica,sans-Serif" font-size="12.00">timedateutils::dayofyeartogreg</text>
</a>
</g>
</g>
<!-- Node1&#45;&gt;Node2 -->
<g id="edge1" class="edge">
<title>Node1&#45;&gt;Node2</title>
<path fill="none" stroke="midnightblue" d="M771.11,-63.48C743.8,-68.94 712.12,-75.28 686.04,-80.49"/>
<polygon fill="midnightblue" stroke="midnightblue" points="771.83,-66.9 780.95,-61.51 770.46,-60.04 771.83,-66.9"/>
</g>
<!-- Node3 -->
<g id="node3" class="node">
<title>Node3</title>
<g id="a_node3"><a xlink:href="namespaceparwind.html#a0f547832ef9dcece74e3d1267557c9e7" target="_top" xlink:title="Calculate wind velocities and MSL pressures at the mesh nodes from the P&#45;W Holland Wind model.">
<polygon fill="white" stroke="black" points="557,-40.5 557,-61.5 708,-61.5 708,-40.5 557,-40.5"/>
<text text-anchor="middle" x="632.5" y="-47.9" font-family="Helvetica,sans-Serif" font-size="12.00">parwind::gethollandfields</text>
</a>
</g>
</g>
<!-- Node1&#45;&gt;Node3 -->
<g id="edge2" class="edge">
<title>Node1&#45;&gt;Node3</title>
<path fill="none" stroke="midnightblue" d="M746.54,-51C733.72,-51 720.61,-51 708.07,-51"/>
<polygon fill="midnightblue" stroke="midnightblue" points="746.75,-54.5 756.75,-51 746.75,-47.5 746.75,-54.5"/>
</g>
<!-- Node6 -->
<g id="node6" class="node">
<title>Node6</title>
<g id="a_node6"><a xlink:href="namespaceutilities.html#ab095172ef12ae151ab5c9aacf82f4dc6" target="_top" xlink:title="This subroutine reads the program&#39;s main control file.">
<polygon fill="white" stroke="black" points="564.5,-0.5 564.5,-21.5 700.5,-21.5 700.5,-0.5 564.5,-0.5"/>
<text text-anchor="middle" x="632.5" y="-7.9" font-family="Helvetica,sans-Serif" font-size="12.00">utilities::readcontrolfile</text>
</a>
</g>
</g>
<!-- Node1&#45;&gt;Node6 -->
<g id="edge5" class="edge">
<title>Node1&#45;&gt;Node6</title>
<path fill="none" stroke="midnightblue" d="M771.11,-38.52C743.8,-33.06 712.12,-26.72 686.04,-21.51"/>
<polygon fill="midnightblue" stroke="midnightblue" points="770.46,-41.96 780.95,-40.49 771.83,-35.1 770.46,-41.96"/>
</g>
<!-- Node4 -->
<g id="node4" class="node">
<title>Node4</title>
<g id="a_node4"><a xlink:href="namespacepahm__drivermod.html#a7ae4571521a5bb4eb55990dd7fb76237" target="_top" xlink:title="Subroutine to run PaHM (timestepping).">
<polygon fill="white" stroke="black" points="83,-40.5 83,-61.5 250,-61.5 250,-40.5 83,-40.5"/>
<text text-anchor="middle" x="166.5" y="-47.9" font-family="Helvetica,sans-Serif" font-size="12.00">pahm_drivermod::pahm_run</text>
</a>
</g>
</g>
<!-- Node3&#45;&gt;Node4 -->
<g id="edge3" class="edge">
<title>Node3&#45;&gt;Node4</title>
<path fill="none" stroke="midnightblue" d="M546.89,-51C462.51,-51 333.74,-51 250.08,-51"/>
<polygon fill="midnightblue" stroke="midnightblue" points="546.95,-54.5 556.95,-51 546.95,-47.5 546.95,-54.5"/>
</g>
<!-- Node5 -->
<g id="node5" class="node">
<title>Node5</title>
<g id="a_node5"><a xlink:href="pahm_8F90.html#a3d3918f5c5f1ac0a7991a7a78f530f30" target="_top" xlink:title=" ">
<polygon fill="white" stroke="black" points="0,-20.5 0,-41.5 47,-41.5 47,-20.5 0,-20.5"/>
<text text-anchor="middle" x="23.5" y="-27.9" font-family="Helvetica,sans-Serif" font-size="12.00">pahm</text>
</a>
</g>
</g>
<!-- Node4&#45;&gt;Node5 -->
<g id="edge4" class="edge">
<title>Node4&#45;&gt;Node5</title>
<path fill="none" stroke="midnightblue" d="M81.19,-39.04C68.72,-37.27 56.86,-35.59 47.23,-34.22"/>
<polygon fill="midnightblue" stroke="midnightblue" points="80.89,-42.53 91.28,-40.47 81.87,-35.6 80.89,-42.53"/>
</g>
<!-- Node7 -->
<g id="node7" class="node">
<title>Node7</title>
<g id="a_node7"><a xlink:href="namespacepahm__drivermod.html#a3294ddc68b72ff9220010a8764a8afe3" target="_top" xlink:title="Prints on the screen the help system of the PaHM program.">
<polygon fill="white" stroke="black" points="286,-0.5 286,-21.5 508,-21.5 508,-0.5 286,-0.5"/>
<text text-anchor="middle" x="397" y="-7.9" font-family="Helvetica,sans-Serif" font-size="12.00">pahm_drivermod::getprogramcmdlargs</text>
</a>
</g>
</g>
<!-- Node6&#45;&gt;Node7 -->
<g id="edge6" class="edge">
<title>Node6&#45;&gt;Node7</title>
<path fill="none" stroke="midnightblue" d="M554.24,-11C539.52,-11 523.84,-11 508.31,-11"/>
<polygon fill="midnightblue" stroke="midnightblue" points="554.28,-14.5 564.28,-11 554.28,-7.5 554.28,-14.5"/>
</g>
<!-- Node8 -->
<g id="node8" class="node">
<title>Node8</title>
<g id="a_node8"><a xlink:href="namespacepahm__drivermod.html#ae0d4b223a96ba116b38152caf6b0768c" target="_top" xlink:title="Subroutine to initialize a PaHM run.">
<polygon fill="white" stroke="black" points="84,-0.5 84,-21.5 249,-21.5 249,-0.5 84,-0.5"/>
<text text-anchor="middle" x="166.5" y="-7.9" font-family="Helvetica,sans-Serif" font-size="12.00">pahm_drivermod::pahm_init</text>
</a>
</g>
</g>
<!-- Node7&#45;&gt;Node8 -->
<g id="edge7" class="edge">
<title>Node7&#45;&gt;Node8</title>
<path fill="none" stroke="midnightblue" d="M275.65,-11C266.7,-11 257.81,-11 249.18,-11"/>
<polygon fill="midnightblue" stroke="midnightblue" points="275.77,-14.5 285.77,-11 275.77,-7.5 275.77,-14.5"/>
</g>
<!-- Node8&#45;&gt;Node5 -->
<g id="edge8" class="edge">
<title>Node8&#45;&gt;Node5</title>
<path fill="none" stroke="midnightblue" d="M81.19,-22.96C68.72,-24.73 56.86,-26.41 47.23,-27.78"/>
<polygon fill="midnightblue" stroke="midnightblue" points="81.87,-26.4 91.28,-21.53 80.89,-19.47 81.87,-26.4"/>
</g>
</g>
</svg>
