<?xml version="1.0" encoding="UTF-8" standalone="no"?>
<!DOCTYPE svg PUBLIC "-//W3C//DTD SVG 1.1//EN"
 "http://www.w3.org/Graphics/SVG/1.1/DTD/svg11.dtd">
<!-- Generated by graphviz version 2.42.4 (0)
 -->
<!-- Title: utilities::dvalstr Pages: 1 -->
<svg width="386pt" height="30pt"
 viewBox="0.00 0.00 386.00 30.00" xmlns="http://www.w3.org/2000/svg" xmlns:xlink="http://www.w3.org/1999/xlink">
<g id="graph0" class="graph" transform="scale(1 1) rotate(0) translate(4 26)">
<title>utilities::dvalstr</title>
<polygon fill="white" stroke="transparent" points="-4,4 -4,-26 382,-26 382,4 -4,4"/>
<!-- Node1 -->
<g id="node1" class="node">
<title>Node1</title>
<g id="a_node1"><a xlink:title="Returns the value of the leading double precision real numeric string.">
<polygon fill="#bfbfbf" stroke="black" points="0,-0.5 0,-21.5 95,-21.5 95,-0.5 0,-0.5"/>
<text text-anchor="middle" x="47.5" y="-7.9" font-family="Helvetica,sans-Serif" font-size="12.00">utilities::dvalstr</text>
</a>
</g>
</g>
<!-- Node2 -->
<g id="node2" class="node">
<title>Node2</title>
<g id="a_node2"><a xlink:href="namespaceutilities.html#ac6d4fd461bd13f1ca73e75038fd09fc9" target="_top" xlink:title="Scans string looking for the leading double precision real numeric string.">
<polygon fill="white" stroke="black" points="131,-0.5 131,-21.5 244,-21.5 244,-0.5 131,-0.5"/>
<text text-anchor="middle" x="187.5" y="-7.9" font-family="Helvetica,sans-Serif" font-size="12.00">utilities::drealscan</text>
</a>
</g>
</g>
<!-- Node1&#45;&gt;Node2 -->
<g id="edge1" class="edge">
<title>Node1&#45;&gt;Node2</title>
<path fill="none" stroke="midnightblue" d="M95.22,-11C103.43,-11 112.1,-11 120.71,-11"/>
<polygon fill="midnightblue" stroke="midnightblue" points="120.76,-14.5 130.76,-11 120.76,-7.5 120.76,-14.5"/>
</g>
<!-- Node3 -->
<g id="node3" class="node">
<title>Node3</title>
<g id="a_node3"><a xlink:href="namespaceutilities.html#a26a70a9de90e0016d323e4c8dbea1a5b" target="_top" xlink:title="Scans string looking for the leading integer numeric string.">
<polygon fill="white" stroke="black" points="280,-0.5 280,-21.5 378,-21.5 378,-0.5 280,-0.5"/>
<text text-anchor="middle" x="329" y="-7.9" font-family="Helvetica,sans-Serif" font-size="12.00">utilities::intscan</text>
</a>
</g>
</g>
<!-- Node2&#45;&gt;Node3 -->
<g id="edge2" class="edge">
<title>Node2&#45;&gt;Node3</title>
<path fill="none" stroke="midnightblue" d="M244.03,-11C252.46,-11 261.18,-11 269.66,-11"/>
<polygon fill="midnightblue" stroke="midnightblue" points="269.86,-14.5 279.86,-11 269.86,-7.5 269.86,-14.5"/>
</g>
</g>
</svg>
