<?xml version="1.0" encoding="UTF-8" standalone="no"?>
<!DOCTYPE svg PUBLIC "-//W3C//DTD SVG 1.1//EN"
 "http://www.w3.org/Graphics/SVG/1.1/DTD/svg11.dtd">
<!-- Generated by graphviz version 2.42.4 (0)
 -->
<!-- Title: icompxchg Pages: 1 -->
<svg width="223pt" height="255pt"
 viewBox="0.00 0.00 223.00 255.00" xmlns="http://www.w3.org/2000/svg" xmlns:xlink="http://www.w3.org/1999/xlink">
<g id="graph0" class="graph" transform="scale(1 1) rotate(0) translate(4 251)">
<title>icompxchg</title>
<polygon fill="white" stroke="transparent" points="-4,4 -4,-251 219,-251 219,4 -4,4"/>
<!-- Node1 -->
<g id="node1" class="node">
<title>Node1</title>
<g id="a_node1"><a xlink:title=" ">
<polygon fill="#bfbfbf" stroke="black" points="141,-113 141,-134 215,-134 215,-113 141,-113"/>
<text text-anchor="middle" x="178" y="-120.4" font-family="Helvetica,sans-Serif" font-size="12.00">icompxchg</text>
</a>
</g>
</g>
<!-- Node2 -->
<g id="node2" class="node">
<title>Node2</title>
<g id="a_node2"><a xlink:href="interfacesortutils_1_1indexx.html#a14dc4f3d78c6d7a518f48185dac60b8c" target="_top" xlink:title="Indexes a 1D double precision array in ascending order.">
<polygon fill="white" stroke="black" points="0,-212.5 0,-246.5 105,-246.5 105,-212.5 0,-212.5"/>
<text text-anchor="start" x="8" y="-232.9" font-family="Helvetica,sans-Serif" font-size="12.00">sortutils::indexx::</text>
<text text-anchor="middle" x="52.5" y="-219.9" font-family="Helvetica,sans-Serif" font-size="12.00">indexxdouble</text>
</a>
</g>
</g>
<!-- Node1&#45;&gt;Node2 -->
<g id="edge1" class="edge">
<title>Node1&#45;&gt;Node2</title>
<path fill="none" stroke="midnightblue" d="M163.18,-142.53C149.78,-160.02 128.13,-185.81 105,-203.5 100.78,-206.72 96.1,-209.73 91.34,-212.46"/>
<polygon fill="midnightblue" stroke="midnightblue" points="166.2,-144.34 169.4,-134.24 160.6,-140.14 166.2,-144.34"/>
</g>
<!-- Node3 -->
<g id="node3" class="node">
<title>Node3</title>
<g id="a_node3"><a xlink:href="interfacesortutils_1_1indexx.html#a4e4fa36a9147b5a7eb8a9fd718fafc50" target="_top" xlink:title="Indexes a 1D integer array in ascending order.">
<polygon fill="white" stroke="black" points="0,-159.5 0,-193.5 105,-193.5 105,-159.5 0,-159.5"/>
<text text-anchor="start" x="8" y="-179.9" font-family="Helvetica,sans-Serif" font-size="12.00">sortutils::indexx::</text>
<text text-anchor="middle" x="52.5" y="-166.9" font-family="Helvetica,sans-Serif" font-size="12.00">indexxint</text>
</a>
</g>
</g>
<!-- Node1&#45;&gt;Node3 -->
<g id="edge2" class="edge">
<title>Node1&#45;&gt;Node3</title>
<path fill="none" stroke="midnightblue" d="M142.68,-138.23C127.34,-144.81 109.16,-152.62 93.22,-159.45"/>
<polygon fill="midnightblue" stroke="midnightblue" points="144.5,-141.26 152.3,-134.1 141.73,-134.83 144.5,-141.26"/>
</g>
<!-- Node4 -->
<g id="node4" class="node">
<title>Node4</title>
<g id="a_node4"><a xlink:href="interfacesortutils_1_1indexx.html#abca639f6c4c72a7a97e26522db8c1249" target="_top" xlink:title="Indexes a 1D 32&#45;bit integer array in ascending order.">
<polygon fill="white" stroke="black" points="0,-106.5 0,-140.5 105,-140.5 105,-106.5 0,-106.5"/>
<text text-anchor="start" x="8" y="-126.9" font-family="Helvetica,sans-Serif" font-size="12.00">sortutils::indexx::</text>
<text text-anchor="middle" x="52.5" y="-113.9" font-family="Helvetica,sans-Serif" font-size="12.00">indexxint8</text>
</a>
</g>
</g>
<!-- Node1&#45;&gt;Node4 -->
<g id="edge3" class="edge">
<title>Node1&#45;&gt;Node4</title>
<path fill="none" stroke="midnightblue" d="M130.75,-123.5C122.49,-123.5 113.83,-123.5 105.43,-123.5"/>
<polygon fill="midnightblue" stroke="midnightblue" points="130.95,-127 140.95,-123.5 130.95,-120 130.95,-127"/>
</g>
<!-- Node5 -->
<g id="node5" class="node">
<title>Node5</title>
<g id="a_node5"><a xlink:href="interfacesortutils_1_1indexx.html#af7ae6ba72f204c10de0faa8023f9fc4a" target="_top" xlink:title="Indexes a 1D single precision array in ascending order.">
<polygon fill="white" stroke="black" points="0,-53.5 0,-87.5 105,-87.5 105,-53.5 0,-53.5"/>
<text text-anchor="start" x="8" y="-73.9" font-family="Helvetica,sans-Serif" font-size="12.00">sortutils::indexx::</text>
<text text-anchor="middle" x="52.5" y="-60.9" font-family="Helvetica,sans-Serif" font-size="12.00">indexxsingle</text>
</a>
</g>
</g>
<!-- Node1&#45;&gt;Node5 -->
<g id="edge4" class="edge">
<title>Node1&#45;&gt;Node5</title>
<path fill="none" stroke="midnightblue" d="M142.68,-108.77C127.34,-102.19 109.16,-94.38 93.22,-87.55"/>
<polygon fill="midnightblue" stroke="midnightblue" points="141.73,-112.17 152.3,-112.9 144.5,-105.74 141.73,-112.17"/>
</g>
<!-- Node6 -->
<g id="node6" class="node">
<title>Node6</title>
<g id="a_node6"><a xlink:href="interfacesortutils_1_1indexx.html#ae59fb4eaf41ea6af9149f9dc28df4421" target="_top" xlink:title="Indexes a 1D string array in ascending order.">
<polygon fill="white" stroke="black" points="0,-0.5 0,-34.5 105,-34.5 105,-0.5 0,-0.5"/>
<text text-anchor="start" x="8" y="-20.9" font-family="Helvetica,sans-Serif" font-size="12.00">sortutils::indexx::</text>
<text text-anchor="middle" x="52.5" y="-7.9" font-family="Helvetica,sans-Serif" font-size="12.00">indexxstring</text>
</a>
</g>
</g>
<!-- Node1&#45;&gt;Node6 -->
<g id="edge5" class="edge">
<title>Node1&#45;&gt;Node6</title>
<path fill="none" stroke="midnightblue" d="M163.07,-104.8C149.59,-87.6 127.89,-62.17 105,-44.5 100.36,-40.92 95.19,-37.58 89.95,-34.55"/>
<polygon fill="midnightblue" stroke="midnightblue" points="160.47,-107.15 169.33,-112.95 166.02,-102.89 160.47,-107.15"/>
</g>
</g>
</svg>
