<?xml version="1.0" encoding="UTF-8" standalone="no"?>
<!DOCTYPE svg PUBLIC "-//W3C//DTD SVG 1.1//EN"
 "http://www.w3.org/Graphics/SVG/1.1/DTD/svg11.dtd">
<!-- Generated by graphviz version 2.42.4 (0)
 -->
<!-- Title: pahm_vortex::getusequadrantvr Pages: 1 -->
<svg width="1317pt" height="110pt"
 viewBox="0.00 0.00 1317.00 110.00" xmlns="http://www.w3.org/2000/svg" xmlns:xlink="http://www.w3.org/1999/xlink">
<g id="graph0" class="graph" transform="scale(1 1) rotate(0) translate(4 106)">
<title>pahm_vortex::getusequadrantvr</title>
<polygon fill="white" stroke="transparent" points="-4,4 -4,-106 1313,-106 1313,4 -4,4"/>
<!-- Node1 -->
<g id="node1" class="node">
<title>Node1</title>
<g id="a_node1"><a xlink:title=" ">
<polygon fill="#bfbfbf" stroke="black" points="1124,-40.5 1124,-61.5 1309,-61.5 1309,-40.5 1124,-40.5"/>
<text text-anchor="middle" x="1216.5" y="-47.9" font-family="Helvetica,sans-Serif" font-size="12.00">pahm_vortex::getusequadrantvr</text>
</a>
</g>
</g>
<!-- Node2 -->
<g id="node2" class="node">
<title>Node2</title>
<g id="a_node2"><a xlink:href="../../de/d94/namespacepahm__vortex.html#a758504d51e519dac32d8146e79fccd2c" target="_top" xlink:title=" ">
<polygon fill="white" stroke="black" points="939,-80.5 939,-101.5 1076,-101.5 1076,-80.5 939,-80.5"/>
<text text-anchor="middle" x="1007.5" y="-87.9" font-family="Helvetica,sans-Serif" font-size="12.00">pahm_vortex::vhnocori</text>
</a>
</g>
</g>
<!-- Node1&#45;&gt;Node2 -->
<g id="edge1" class="edge">
<title>Node1&#45;&gt;Node2</title>
<path fill="none" stroke="midnightblue" d="M1150.93,-63.48C1122.67,-68.94 1089.87,-75.28 1062.88,-80.49"/>
<polygon fill="midnightblue" stroke="midnightblue" points="1151.96,-66.84 1161.11,-61.51 1150.63,-59.97 1151.96,-66.84"/>
</g>
<!-- Node8 -->
<g id="node8" class="node">
<title>Node8</title>
<g id="a_node8"><a xlink:href="../../de/d94/namespacepahm__vortex.html#a1e9c82cf5fb1c37ebd0629060e93d5fa" target="_top" xlink:title="External function f(x) = 0 for which a root is sought using Brent&#39;s root&#45;finding method.">
<polygon fill="white" stroke="black" points="934.5,-40.5 934.5,-61.5 1080.5,-61.5 1080.5,-40.5 934.5,-40.5"/>
<text text-anchor="middle" x="1007.5" y="-47.9" font-family="Helvetica,sans-Serif" font-size="12.00">pahm_vortex::vhwithcori</text>
</a>
</g>
</g>
<!-- Node1&#45;&gt;Node8 -->
<g id="edge7" class="edge">
<title>Node1&#45;&gt;Node8</title>
<path fill="none" stroke="midnightblue" d="M1113.58,-51C1102.42,-51 1091.24,-51 1080.55,-51"/>
<polygon fill="midnightblue" stroke="midnightblue" points="1113.8,-54.5 1123.8,-51 1113.8,-47.5 1113.8,-54.5"/>
</g>
<!-- Node9 -->
<g id="node9" class="node">
<title>Node9</title>
<g id="a_node9"><a xlink:href="../../de/d94/namespacepahm__vortex.html#a01b29cf3c18d04fb55a502f42f51af39" target="_top" xlink:title="External function f(x) = 0 for which a root is sought using Brent&#39;s root&#45;finding method.">
<polygon fill="white" stroke="black" points="927,-0.5 927,-21.5 1088,-21.5 1088,-0.5 927,-0.5"/>
<text text-anchor="middle" x="1007.5" y="-7.9" font-family="Helvetica,sans-Serif" font-size="12.00">pahm_vortex::vhwithcorifull</text>
</a>
</g>
</g>
<!-- Node1&#45;&gt;Node9 -->
<g id="edge9" class="edge">
<title>Node1&#45;&gt;Node9</title>
<path fill="none" stroke="midnightblue" d="M1150.93,-38.52C1122.67,-33.06 1089.87,-26.72 1062.88,-21.51"/>
<polygon fill="midnightblue" stroke="midnightblue" points="1150.63,-42.03 1161.11,-40.49 1151.96,-35.16 1150.63,-42.03"/>
</g>
<!-- Node3 -->
<g id="node3" class="node">
<title>Node3</title>
<g id="a_node3"><a xlink:href="../../de/d94/namespacepahm__vortex.html#a8b8e9e59c6d25c54f87fbd516c0d6ee0" target="_top" xlink:title="Calculates the radius of maximum winds for all storm quadrants.">
<polygon fill="white" stroke="black" points="731,-40.5 731,-61.5 883,-61.5 883,-40.5 731,-40.5"/>
<text text-anchor="middle" x="807" y="-47.9" font-family="Helvetica,sans-Serif" font-size="12.00">pahm_vortex::calcrmaxes</text>
</a>
</g>
</g>
<!-- Node2&#45;&gt;Node3 -->
<g id="edge2" class="edge">
<title>Node2&#45;&gt;Node3</title>
<path fill="none" stroke="midnightblue" d="M944.22,-78.45C917.2,-73.01 885.92,-66.7 860.15,-61.51"/>
<polygon fill="midnightblue" stroke="midnightblue" points="943.85,-81.95 954.35,-80.49 945.23,-75.08 943.85,-81.95"/>
</g>
<!-- Node4 -->
<g id="node4" class="node">
<title>Node4</title>
<g id="a_node4"><a xlink:href="../../d9/d41/namespaceparwind.html#ac27ad597b28ef7e2b0f2eba529c0c3a2" target="_top" xlink:title="Subroutine to support the asymetric vortex model(s) (Holland or otherwise).">
<polygon fill="white" stroke="black" points="463,-20.5 463,-41.5 687,-41.5 687,-20.5 463,-20.5"/>
<text text-anchor="middle" x="575" y="-27.9" font-family="Helvetica,sans-Serif" font-size="12.00">parwind::processasymmetricvortexdata</text>
</a>
</g>
</g>
<!-- Node3&#45;&gt;Node4 -->
<g id="edge3" class="edge">
<title>Node3&#45;&gt;Node4</title>
<path fill="none" stroke="midnightblue" d="M720.46,-43.56C709.65,-42.62 698.48,-41.65 687.35,-40.68"/>
<polygon fill="midnightblue" stroke="midnightblue" points="720.42,-47.07 730.69,-44.45 721.03,-40.1 720.42,-47.07"/>
</g>
<!-- Node5 -->
<g id="node5" class="node">
<title>Node5</title>
<g id="a_node5"><a xlink:href="../../d9/d41/namespaceparwind.html#ad79f0c20f27839cc6d7f50d7d1698b7c" target="_top" xlink:title="Calculates wind velocities and MSL pressures at the mesh nodes from the GAHM Wind model.">
<polygon fill="white" stroke="black" points="286,-20.5 286,-41.5 427,-41.5 427,-20.5 286,-20.5"/>
<text text-anchor="middle" x="356.5" y="-27.9" font-family="Helvetica,sans-Serif" font-size="12.00">parwind::getgahmfields</text>
</a>
</g>
</g>
<!-- Node4&#45;&gt;Node5 -->
<g id="edge4" class="edge">
<title>Node4&#45;&gt;Node5</title>
<path fill="none" stroke="midnightblue" d="M452.67,-31C444,-31 435.43,-31 427.21,-31"/>
<polygon fill="midnightblue" stroke="midnightblue" points="452.9,-34.5 462.9,-31 452.9,-27.5 452.9,-34.5"/>
</g>
<!-- Node6 -->
<g id="node6" class="node">
<title>Node6</title>
<g id="a_node6"><a xlink:href="../../de/d07/namespacepahm__drivermod.html#a7ae4571521a5bb4eb55990dd7fb76237" target="_top" xlink:title="Subroutine to run PaHM (timestepping).">
<polygon fill="white" stroke="black" points="83,-20.5 83,-41.5 250,-41.5 250,-20.5 83,-20.5"/>
<text text-anchor="middle" x="166.5" y="-27.9" font-family="Helvetica,sans-Serif" font-size="12.00">pahm_drivermod::pahm_run</text>
</a>
</g>
</g>
<!-- Node5&#45;&gt;Node6 -->
<g id="edge5" class="edge">
<title>Node5&#45;&gt;Node6</title>
<path fill="none" stroke="midnightblue" d="M275.59,-31C267.17,-31 258.6,-31 250.15,-31"/>
<polygon fill="midnightblue" stroke="midnightblue" points="275.76,-34.5 285.76,-31 275.76,-27.5 275.76,-34.5"/>
</g>
<!-- Node7 -->
<g id="node7" class="node">
<title>Node7</title>
<g id="a_node7"><a xlink:href="../../d9/d8a/pahm_8F90.html#a3d3918f5c5f1ac0a7991a7a78f530f30" target="_top" xlink:title=" ">
<polygon fill="white" stroke="black" points="0,-20.5 0,-41.5 47,-41.5 47,-20.5 0,-20.5"/>
<text text-anchor="middle" x="23.5" y="-27.9" font-family="Helvetica,sans-Serif" font-size="12.00">pahm</text>
</a>
</g>
</g>
<!-- Node6&#45;&gt;Node7 -->
<g id="edge6" class="edge">
<title>Node6&#45;&gt;Node7</title>
<path fill="none" stroke="midnightblue" d="M72.41,-31C63.14,-31 54.45,-31 47.08,-31"/>
<polygon fill="midnightblue" stroke="midnightblue" points="72.66,-34.5 82.66,-31 72.66,-27.5 72.66,-34.5"/>
</g>
<!-- Node8&#45;&gt;Node3 -->
<g id="edge8" class="edge">
<title>Node8&#45;&gt;Node3</title>
<path fill="none" stroke="midnightblue" d="M924.02,-51C910.49,-51 896.52,-51 883.17,-51"/>
<polygon fill="midnightblue" stroke="midnightblue" points="924.28,-54.5 934.28,-51 924.28,-47.5 924.28,-54.5"/>
</g>
<!-- Node10 -->
<g id="node10" class="node">
<title>Node10</title>
<g id="a_node10"><a xlink:href="../../de/d94/namespacepahm__vortex.html#a4aa80220bd5616d4d2f267e48bfe3861" target="_top" xlink:title="Calculates the radius of maximum winds for all storm quadrants.">
<polygon fill="white" stroke="black" points="723,-0.5 723,-21.5 891,-21.5 891,-0.5 723,-0.5"/>
<text text-anchor="middle" x="807" y="-7.9" font-family="Helvetica,sans-Serif" font-size="12.00">pahm_vortex::calcrmaxesfull</text>
</a>
</g>
</g>
<!-- Node9&#45;&gt;Node10 -->
<g id="edge10" class="edge">
<title>Node9&#45;&gt;Node10</title>
<path fill="none" stroke="midnightblue" d="M916.63,-11C908.16,-11 899.59,-11 891.18,-11"/>
<polygon fill="midnightblue" stroke="midnightblue" points="916.91,-14.5 926.91,-11 916.91,-7.5 916.91,-14.5"/>
</g>
<!-- Node10&#45;&gt;Node4 -->
<g id="edge11" class="edge">
<title>Node10&#45;&gt;Node4</title>
<path fill="none" stroke="midnightblue" d="M712.82,-19.1C704.42,-19.83 695.87,-20.58 687.34,-21.32"/>
<polygon fill="midnightblue" stroke="midnightblue" points="713.31,-22.57 722.96,-18.22 712.7,-15.6 713.31,-22.57"/>
</g>
</g>
</svg>
