<?xml version="1.0" encoding="UTF-8" standalone="no"?>
<!DOCTYPE svg PUBLIC "-//W3C//DTD SVG 1.1//EN"
 "http://www.w3.org/Graphics/SVG/1.1/DTD/svg11.dtd">
<!-- Generated by graphviz version 2.42.4 (0)
 -->
<!-- Title: pahm_vortex::fang Pages: 1 -->
<!--zoomable 110 -->
<svg id="main" version="1.1" xmlns="http://www.w3.org/2000/svg" xmlns:xlink="http://www.w3.org/1999/xlink" xml:space="preserve" onload="init(evt)">
<style type="text/css"><![CDATA[
.edge:hover path { stroke: red; }
.edge:hover polygon { stroke: red; fill: red; }
]]></style>
<script type="text/javascript"><![CDATA[
var edges = document.getElementsByTagName('g');
if (edges && edges.length) {
  for (var i=0;i<edges.length;i++) {
    if (edges[i].id.substr(0,4)=='edge') {
      edges[i].setAttribute('class','edge');
    }
  }
}
]]></script>
        <defs>
                <circle id="rim" cx="0" cy="0" r="7"/>
                <circle id="rim2" cx="0" cy="0" r="3.5"/>
                <g id="zoomPlus">
                        <use xlink:href="#rim" fill="#404040">
                                <set attributeName="fill" to="#808080" begin="zoomplus.mouseover" end="zoomplus.mouseout"/>
                        </use>
                        <path d="M-4,0h8M0,-4v8" fill="none" stroke="white" stroke-width="1.5" pointer-events="none"/>
                </g>
                <g id="zoomMin">
                        <use xlink:href="#rim" fill="#404040">
                                <set attributeName="fill" to="#808080" begin="zoomminus.mouseover" end="zoomminus.mouseout"/>
                        </use>
                        <path d="M-4,0h8" fill="none" stroke="white" stroke-width="1.5" pointer-events="none"/>
                </g>
                <g id="dirArrow">
                        <path fill="none" stroke="white" stroke-width="1.5" d="M0,-3.0v7 M-2.5,-0.5L0,-3.0L2.5,-0.5"/>
                </g>
               <g id="resetDef">
                       <use xlink:href="#rim2" fill="#404040">
                               <set attributeName="fill" to="#808080" begin="reset.mouseover" end="reset.mouseout"/>
                       </use>
               </g>
        </defs>

<script type="text/javascript">
var viewWidth = 846;
var viewHeight = 110;
var sectionId = 'dynsection-6';
</script>
<script xlink:href="../../svgpan.js"/>
<svg id="graph" class="graph">
<g id="viewport">
<title>pahm_vortex::fang</title>
<polygon fill="white" stroke="transparent" points="-4,4 -4,-106 842,-106 842,4 -4,4"/>
<!-- Node1 -->
<g id="node1" class="node">
<title>Node1</title>
<g id="a_node1"><a xlink:title="Compute a wind angle to parameterize frictional inflow across isobars.">
<polygon fill="#bfbfbf" stroke="black" points="723,-40.5 723,-61.5 838,-61.5 838,-40.5 723,-40.5"/>
<text text-anchor="middle" x="780.5" y="-47.9" font-family="Helvetica,sans-Serif" font-size="12.00">pahm_vortex::fang</text>
</a>
</g>
</g>
<!-- Node2 -->
<g id="node2" class="node">
<title>Node2</title>
<g id="a_node2"><a xlink:href="../../d9/d41/namespaceparwind.html#ac27ad597b28ef7e2b0f2eba529c0c3a2" target="_top" xlink:title="Subroutine to support the asymetric vortex model(s) (Holland or otherwise).">
<polygon fill="white" stroke="black" points="463,-80.5 463,-101.5 687,-101.5 687,-80.5 463,-80.5"/>
<text text-anchor="middle" x="575" y="-87.9" font-family="Helvetica,sans-Serif" font-size="12.00">parwind::processasymmetricvortexdata</text>
</a>
</g>
</g>
<!-- Node1&#45;&gt;Node2 -->
<g id="edge1" class="edge">
<title>Node1&#45;&gt;Node2</title>
<path fill="none" stroke="midnightblue" d="M722.02,-63.75C710.44,-66.23 698.34,-68.75 687,-71 670.67,-74.23 652.95,-77.53 636.56,-80.48"/>
<polygon fill="midnightblue" stroke="midnightblue" points="722.99,-67.12 732.03,-61.59 721.52,-60.28 722.99,-67.12"/>
</g>
<!-- Node6 -->
<g id="node6" class="node">
<title>Node6</title>
<g id="a_node6"><a xlink:href="../../de/d94/namespacepahm__vortex.html#aab234ce6758e2aa3ce44a3ff0f19c1f6" target="_top" xlink:title="Calculates (u, v) wind components and surface pressure from an asymmetric hurricane wind model.">
<polygon fill="white" stroke="black" points="519.5,-40.5 519.5,-61.5 630.5,-61.5 630.5,-40.5 519.5,-40.5"/>
<text text-anchor="middle" x="575" y="-47.9" font-family="Helvetica,sans-Serif" font-size="12.00">pahm_vortex::uvp</text>
</a>
</g>
</g>
<!-- Node1&#45;&gt;Node6 -->
<g id="edge5" class="edge">
<title>Node1&#45;&gt;Node6</title>
<path fill="none" stroke="midnightblue" d="M712.81,-51C686.19,-51 655.92,-51 630.63,-51"/>
<polygon fill="midnightblue" stroke="midnightblue" points="712.81,-54.5 722.81,-51 712.81,-47.5 712.81,-54.5"/>
</g>
<!-- Node7 -->
<g id="node7" class="node">
<title>Node7</title>
<g id="a_node7"><a xlink:href="../../de/d94/namespacepahm__vortex.html#aa42dc3ab759309e12cbb96f3eb1357c4" target="_top" xlink:title="Calculates (u, v) wind components and surface pressure from an asymmetric hurricane wind model.">
<polygon fill="white" stroke="black" points="517.5,-0.5 517.5,-21.5 632.5,-21.5 632.5,-0.5 517.5,-0.5"/>
<text text-anchor="middle" x="575" y="-7.9" font-family="Helvetica,sans-Serif" font-size="12.00">pahm_vortex::uvpr</text>
</a>
</g>
</g>
<!-- Node1&#45;&gt;Node7 -->
<g id="edge6" class="edge">
<title>Node1&#45;&gt;Node7</title>
<path fill="none" stroke="midnightblue" d="M722.02,-38.25C710.44,-35.77 698.34,-33.25 687,-31 669.33,-27.5 650.02,-23.93 632.54,-20.8"/>
<polygon fill="midnightblue" stroke="midnightblue" points="721.52,-41.72 732.03,-40.41 722.99,-34.88 721.52,-41.72"/>
</g>
<!-- Node3 -->
<g id="node3" class="node">
<title>Node3</title>
<g id="a_node3"><a xlink:href="../../d9/d41/namespaceparwind.html#ad79f0c20f27839cc6d7f50d7d1698b7c" target="_top" xlink:title="Calculates wind velocities and MSL pressures at the mesh nodes from the GAHM Wind model.">
<polygon fill="white" stroke="black" points="286,-40.5 286,-61.5 427,-61.5 427,-40.5 286,-40.5"/>
<text text-anchor="middle" x="356.5" y="-47.9" font-family="Helvetica,sans-Serif" font-size="12.00">parwind::getgahmfields</text>
</a>
</g>
</g>
<!-- Node2&#45;&gt;Node3 -->
<g id="edge2" class="edge">
<title>Node2&#45;&gt;Node3</title>
<path fill="none" stroke="midnightblue" d="M504.95,-78.66C491.05,-76.15 476.56,-73.51 463,-71 446.59,-67.97 428.76,-64.61 412.51,-61.53"/>
<polygon fill="midnightblue" stroke="midnightblue" points="504.47,-82.13 514.94,-80.46 505.72,-75.24 504.47,-82.13"/>
</g>
<!-- Node4 -->
<g id="node4" class="node">
<title>Node4</title>
<g id="a_node4"><a xlink:href="../../de/d07/namespacepahm__drivermod.html#a7ae4571521a5bb4eb55990dd7fb76237" target="_top" xlink:title="Subroutine to run PaHM (timestepping).">
<polygon fill="white" stroke="black" points="83,-40.5 83,-61.5 250,-61.5 250,-40.5 83,-40.5"/>
<text text-anchor="middle" x="166.5" y="-47.9" font-family="Helvetica,sans-Serif" font-size="12.00">pahm_drivermod::pahm_run</text>
</a>
</g>
</g>
<!-- Node3&#45;&gt;Node4 -->
<g id="edge3" class="edge">
<title>Node3&#45;&gt;Node4</title>
<path fill="none" stroke="midnightblue" d="M275.59,-51C267.17,-51 258.6,-51 250.15,-51"/>
<polygon fill="midnightblue" stroke="midnightblue" points="275.76,-54.5 285.76,-51 275.76,-47.5 275.76,-54.5"/>
</g>
<!-- Node5 -->
<g id="node5" class="node">
<title>Node5</title>
<g id="a_node5"><a xlink:href="../../d9/d8a/pahm_8F90.html#a3d3918f5c5f1ac0a7991a7a78f530f30" target="_top" xlink:title=" ">
<polygon fill="white" stroke="black" points="0,-40.5 0,-61.5 47,-61.5 47,-40.5 0,-40.5"/>
<text text-anchor="middle" x="23.5" y="-47.9" font-family="Helvetica,sans-Serif" font-size="12.00">pahm</text>
</a>
</g>
</g>
<!-- Node4&#45;&gt;Node5 -->
<g id="edge4" class="edge">
<title>Node4&#45;&gt;Node5</title>
<path fill="none" stroke="midnightblue" d="M72.41,-51C63.14,-51 54.45,-51 47.08,-51"/>
<polygon fill="midnightblue" stroke="midnightblue" points="72.66,-54.5 82.66,-51 72.66,-47.5 72.66,-54.5"/>
</g>
<!-- Node7&#45;&gt;Node3 -->
<g id="edge7" class="edge">
<title>Node7&#45;&gt;Node3</title>
<path fill="none" stroke="midnightblue" d="M507.27,-22.92C492.68,-25.56 477.31,-28.35 463,-31 446.59,-34.03 428.76,-37.39 412.51,-40.47"/>
<polygon fill="midnightblue" stroke="midnightblue" points="508.01,-26.35 517.23,-21.13 506.77,-19.46 508.01,-26.35"/>
</g>
</g>
</svg>
        <g id="navigator" transform="translate(0 0)" fill="#404254">
                <rect fill="#f2f5e9" fill-opacity="0.5" stroke="#606060" stroke-width=".5" x="0" y="0" width="60" height="60"/>
                <use id="zoomplus" xlink:href="#zoomPlus" x="17" y="9" onmousedown="handleZoom(evt,'in')"/>
                <use id="zoomminus" xlink:href="#zoomMin" x="42" y="9" onmousedown="handleZoom(evt,'out')"/>
                <use id="reset" xlink:href="#resetDef" x="30" y="36" onmousedown="handleReset()"/>
                <g id="arrowUp" xlink:href="#dirArrow" transform="translate(30 24)" onmousedown="handlePan(0,-1)">
                  <use xlink:href="#rim" fill="#404040">
                        <set attributeName="fill" to="#808080" begin="arrowUp.mouseover" end="arrowUp.mouseout"/>
                  </use>
                  <path fill="none" stroke="white" stroke-width="1.5" d="M0,-3.0v7 M-2.5,-0.5L0,-3.0L2.5,-0.5"/>
                </g>
                <g id="arrowRight" xlink:href="#dirArrow" transform="rotate(90) translate(36 -43)" onmousedown="handlePan(1,0)">
                  <use xlink:href="#rim" fill="#404040">
                        <set attributeName="fill" to="#808080" begin="arrowRight.mouseover" end="arrowRight.mouseout"/>
                  </use>
                  <path fill="none" stroke="white" stroke-width="1.5" d="M0,-3.0v7 M-2.5,-0.5L0,-3.0L2.5,-0.5"/>
                </g>
                <g id="arrowDown" xlink:href="#dirArrow" transform="rotate(180) translate(-30 -48)" onmousedown="handlePan(0,1)">
                  <use xlink:href="#rim" fill="#404040">
                        <set attributeName="fill" to="#808080" begin="arrowDown.mouseover" end="arrowDown.mouseout"/>
                  </use>
                  <path fill="none" stroke="white" stroke-width="1.5" d="M0,-3.0v7 M-2.5,-0.5L0,-3.0L2.5,-0.5"/>
                </g>
                <g id="arrowLeft" xlink:href="#dirArrow" transform="rotate(270) translate(-36 17)" onmousedown="handlePan(-1,0)">
                  <use xlink:href="#rim" fill="#404040">
                        <set attributeName="fill" to="#808080" begin="arrowLeft.mouseover" end="arrowLeft.mouseout"/>
                  </use>
                  <path fill="none" stroke="white" stroke-width="1.5" d="M0,-3.0v7 M-2.5,-0.5L0,-3.0L2.5,-0.5"/>
                </g>
        </g>
        <svg viewBox="0 0 15 15" width="100%" height="30px" preserveAspectRatio="xMaxYMin meet">
         <g id="arrow_out" transform="scale(0.3 0.3)">
          <a xlink:href="namespacepahm__vortex_a4d3964bc688515cb90cce06075736a3e_icgraph_org.svg" target="_base">
           <rect id="button" ry="5" rx="5" y="6" x="6" height="38" width="38"
                fill="#f2f5e9" fill-opacity="0.5" stroke="#606060" stroke-width="1.0"/>
           <path id="arrow"
             d="M 11.500037,31.436501 C 11.940474,20.09759 22.043105,11.32322 32.158766,21.979434 L 37.068811,17.246167 C 37.068811,17.246167 37.088388,32 37.088388,32 L 22.160133,31.978069 C 22.160133,31.978069 26.997745,27.140456 26.997745,27.140456 C 18.528582,18.264221 13.291696,25.230495 11.500037,31.436501 z"
             style="fill:#404040;"/>
          </a>
         </g>
        </svg>
</svg>
