<?xml version="1.0" encoding="UTF-8" standalone="no"?>
<!DOCTYPE svg PUBLIC "-//W3C//DTD SVG 1.1//EN"
 "http://www.w3.org/Graphics/SVG/1.1/DTD/svg11.dtd">
<!-- Generated by graphviz version 2.42.4 (0)
 -->
<!-- Title: parwind::processasymmetricvortexdata Pages: 1 -->
<svg width="896pt" height="750pt"
 viewBox="0.00 0.00 896.00 750.00" xmlns="http://www.w3.org/2000/svg" xmlns:xlink="http://www.w3.org/1999/xlink">
<g id="graph0" class="graph" transform="scale(1 1) rotate(0) translate(4 746)">
<title>parwind::processasymmetricvortexdata</title>
<polygon fill="white" stroke="transparent" points="-4,4 -4,-746 892,-746 892,4 -4,4"/>
<!-- Node1 -->
<g id="node1" class="node">
<title>Node1</title>
<g id="a_node1"><a xlink:title="Subroutine to support the asymetric vortex model(s) (Holland or otherwise).">
<polygon fill="#bfbfbf" stroke="black" points="0,-360.5 0,-381.5 224,-381.5 224,-360.5 0,-360.5"/>
<text text-anchor="middle" x="112" y="-367.9" font-family="Helvetica,sans-Serif" font-size="12.00">parwind::processasymmetricvortexdata</text>
</a>
</g>
</g>
<!-- Node2 -->
<g id="node2" class="node">
<title>Node2</title>
<g id="a_node2"><a xlink:href="../../d9/d41/namespaceparwind.html#a13a3511750757644c7ab3dbeb92ca4a3" target="_top" xlink:title="Subroutine to allocate memory for an asymmetric vortex structure.">
<polygon fill="white" stroke="black" points="280.5,-720.5 280.5,-741.5 449.5,-741.5 449.5,-720.5 280.5,-720.5"/>
<text text-anchor="middle" x="365" y="-727.9" font-family="Helvetica,sans-Serif" font-size="12.00">parwind::allocasymvortstruct</text>
</a>
</g>
</g>
<!-- Node1&#45;&gt;Node2 -->
<g id="edge1" class="edge">
<title>Node1&#45;&gt;Node2</title>
<path fill="none" stroke="midnightblue" d="M114.09,-381.7C119.49,-429 147.91,-621.03 260,-711 263.43,-713.75 267.12,-716.16 271,-718.28"/>
<polygon fill="midnightblue" stroke="midnightblue" points="269.82,-721.59 280.36,-722.68 272.8,-715.25 269.82,-721.59"/>
</g>
<!-- Node3 -->
<g id="node3" class="node">
<title>Node3</title>
<g id="a_node3"><a xlink:href="../../de/d94/namespacepahm__vortex.html#a8b8e9e59c6d25c54f87fbd516c0d6ee0" target="_top" xlink:title="Calculates the radius of maximum winds for all storm quadrants.">
<polygon fill="white" stroke="black" points="289,-680.5 289,-701.5 441,-701.5 441,-680.5 289,-680.5"/>
<text text-anchor="middle" x="365" y="-687.9" font-family="Helvetica,sans-Serif" font-size="12.00">pahm_vortex::calcrmaxes</text>
</a>
</g>
</g>
<!-- Node1&#45;&gt;Node3 -->
<g id="edge2" class="edge">
<title>Node1&#45;&gt;Node3</title>
<path fill="none" stroke="midnightblue" d="M114.73,-381.63C122.44,-425.38 157.93,-592.99 260,-671 265.83,-675.45 272.36,-679 279.24,-681.82"/>
<polygon fill="midnightblue" stroke="midnightblue" points="278.21,-685.17 288.8,-685.24 280.56,-678.58 278.21,-685.17"/>
</g>
<!-- Node8 -->
<g id="node8" class="node">
<title>Node8</title>
<g id="a_node8"><a xlink:href="../../de/d94/namespacepahm__vortex.html#a4aa80220bd5616d4d2f267e48bfe3861" target="_top" xlink:title="Calculates the radius of maximum winds for all storm quadrants.">
<polygon fill="white" stroke="black" points="281,-640.5 281,-661.5 449,-661.5 449,-640.5 281,-640.5"/>
<text text-anchor="middle" x="365" y="-647.9" font-family="Helvetica,sans-Serif" font-size="12.00">pahm_vortex::calcrmaxesfull</text>
</a>
</g>
</g>
<!-- Node1&#45;&gt;Node8 -->
<g id="edge8" class="edge">
<title>Node1&#45;&gt;Node8</title>
<path fill="none" stroke="midnightblue" d="M115.55,-381.57C125.76,-421.57 167.78,-564.73 260,-631 263.67,-633.64 267.59,-635.95 271.68,-637.98"/>
<polygon fill="midnightblue" stroke="midnightblue" points="270.32,-641.2 280.89,-641.99 273.12,-634.79 270.32,-641.2"/>
</g>
<!-- Node10 -->
<g id="node10" class="node">
<title>Node10</title>
<g id="a_node10"><a xlink:href="../../d2/d96/namespaceutilities.html#a241eabd46f9d0e4a26adc221570ad79f" target="_top" xlink:title="Find the unique non&#45;blank elements in 1D character array.">
<polygon fill="white" stroke="black" points="305,-600.5 305,-621.5 425,-621.5 425,-600.5 305,-600.5"/>
<text text-anchor="middle" x="365" y="-607.9" font-family="Helvetica,sans-Serif" font-size="12.00">utilities::charunique</text>
</a>
</g>
</g>
<!-- Node1&#45;&gt;Node10 -->
<g id="edge12" class="edge">
<title>Node1&#45;&gt;Node10</title>
<path fill="none" stroke="midnightblue" d="M116.68,-381.67C129.73,-417.78 177.52,-536.26 260,-591 270.4,-597.9 282.59,-602.55 294.89,-605.65"/>
<polygon fill="midnightblue" stroke="midnightblue" points="294.24,-609.09 304.75,-607.82 295.74,-602.25 294.24,-609.09"/>
</g>
<!-- Node11 -->
<g id="node11" class="node">
<title>Node11</title>
<g id="a_node11"><a xlink:href="../../de/d94/namespacepahm__vortex.html#a4d3964bc688515cb90cce06075736a3e" target="_top" xlink:title="Compute a wind angle to parameterize frictional inflow across isobars.">
<polygon fill="white" stroke="black" points="307.5,-560.5 307.5,-581.5 422.5,-581.5 422.5,-560.5 307.5,-560.5"/>
<text text-anchor="middle" x="365" y="-567.9" font-family="Helvetica,sans-Serif" font-size="12.00">pahm_vortex::fang</text>
</a>
</g>
</g>
<!-- Node1&#45;&gt;Node11 -->
<g id="edge13" class="edge">
<title>Node1&#45;&gt;Node11</title>
<path fill="none" stroke="midnightblue" d="M118.25,-381.69C134.44,-413.38 186.89,-507.38 260,-551 271.32,-557.76 284.47,-562.3 297.52,-565.33"/>
<polygon fill="midnightblue" stroke="midnightblue" points="296.95,-568.79 307.45,-567.37 298.36,-561.93 296.95,-568.79"/>
</g>
<!-- Node12 -->
<g id="node12" class="node">
<title>Node12</title>
<g id="a_node12"><a xlink:href="../../de/d94/namespacepahm__vortex.html#a50a6a2176317ad8726e41c879aa369ca" target="_top" xlink:title=" ">
<polygon fill="white" stroke="black" points="285,-520.5 285,-541.5 445,-541.5 445,-520.5 285,-520.5"/>
<text text-anchor="middle" x="365" y="-527.9" font-family="Helvetica,sans-Serif" font-size="12.00">pahm_vortex::getphifactors</text>
</a>
</g>
</g>
<!-- Node1&#45;&gt;Node12 -->
<g id="edge14" class="edge">
<title>Node1&#45;&gt;Node12</title>
<path fill="none" stroke="midnightblue" d="M120.53,-381.52C140.14,-408.05 195.77,-477.93 260,-511 264.85,-513.5 269.98,-515.69 275.25,-517.6"/>
<polygon fill="midnightblue" stroke="midnightblue" points="274.27,-520.97 284.86,-520.77 276.46,-514.32 274.27,-520.97"/>
</g>
<!-- Node13 -->
<g id="node13" class="node">
<title>Node13</title>
<g id="a_node13"><a xlink:href="../../de/d94/namespacepahm__vortex.html#a49b70ea3a709e8aca72137cb61cda8fe" target="_top" xlink:title=" ">
<polygon fill="white" stroke="black" points="291.5,-480.5 291.5,-501.5 438.5,-501.5 438.5,-480.5 291.5,-480.5"/>
<text text-anchor="middle" x="365" y="-487.9" font-family="Helvetica,sans-Serif" font-size="12.00">pahm_vortex::getrmaxes</text>
</a>
</g>
</g>
<!-- Node1&#45;&gt;Node13 -->
<g id="edge15" class="edge">
<title>Node1&#45;&gt;Node13</title>
<path fill="none" stroke="midnightblue" d="M124.96,-381.71C148.79,-402.45 204.7,-448.03 260,-471 266.77,-473.81 273.96,-476.23 281.26,-478.32"/>
<polygon fill="midnightblue" stroke="midnightblue" points="280.71,-481.79 291.27,-480.96 282.49,-475.02 280.71,-481.79"/>
</g>
<!-- Node14 -->
<g id="node14" class="node">
<title>Node14</title>
<g id="a_node14"><a xlink:href="../../de/d94/namespacepahm__vortex.html#ae27ba7661c30ad1c20c0d6cb6f0b5e44" target="_top" xlink:title=" ">
<polygon fill="white" stroke="black" points="267.5,-440.5 267.5,-461.5 462.5,-461.5 462.5,-440.5 267.5,-440.5"/>
<text text-anchor="middle" x="365" y="-447.9" font-family="Helvetica,sans-Serif" font-size="12.00">pahm_vortex::getshapeparameter</text>
</a>
</g>
</g>
<!-- Node1&#45;&gt;Node14 -->
<g id="edge16" class="edge">
<title>Node1&#45;&gt;Node14</title>
<path fill="none" stroke="midnightblue" d="M134.92,-381.55C163.23,-394.79 214.29,-417.42 260,-431 269.16,-433.72 278.88,-436.16 288.56,-438.32"/>
<polygon fill="midnightblue" stroke="midnightblue" points="288.1,-441.8 298.61,-440.47 289.57,-434.96 288.1,-441.8"/>
</g>
<!-- Node15 -->
<g id="node15" class="node">
<title>Node15</title>
<g id="a_node15"><a xlink:href="../../de/d94/namespacepahm__vortex.html#ab942e7c7cd5894dcefe967e609d9ab67" target="_top" xlink:title=" ">
<polygon fill="white" stroke="black" points="264.5,-400.5 264.5,-421.5 465.5,-421.5 465.5,-400.5 264.5,-400.5"/>
<text text-anchor="middle" x="365" y="-407.9" font-family="Helvetica,sans-Serif" font-size="12.00">pahm_vortex::getshapeparameters</text>
</a>
</g>
</g>
<!-- Node1&#45;&gt;Node15 -->
<g id="edge17" class="edge">
<title>Node1&#45;&gt;Node15</title>
<path fill="none" stroke="midnightblue" d="M178.95,-381.51C212.39,-386.84 253.19,-393.34 287.95,-398.88"/>
<polygon fill="midnightblue" stroke="midnightblue" points="287.63,-402.37 298.06,-400.49 288.73,-395.46 287.63,-402.37"/>
</g>
<!-- Node16 -->
<g id="node16" class="node">
<title>Node16</title>
<g id="a_node16"><a xlink:href="../../de/d94/namespacepahm__vortex.html#acc3d1bbecfc799064da25d4f79a84c72" target="_top" xlink:title=" ">
<polygon fill="white" stroke="black" points="285,-360.5 285,-381.5 445,-381.5 445,-360.5 285,-360.5"/>
<text text-anchor="middle" x="365" y="-367.9" font-family="Helvetica,sans-Serif" font-size="12.00">pahm_vortex::getvmaxesbl</text>
</a>
</g>
</g>
<!-- Node1&#45;&gt;Node16 -->
<g id="edge18" class="edge">
<title>Node1&#45;&gt;Node16</title>
<path fill="none" stroke="midnightblue" d="M224.19,-371C241.13,-371 258.42,-371 274.81,-371"/>
<polygon fill="midnightblue" stroke="midnightblue" points="274.89,-374.5 284.89,-371 274.89,-367.5 274.89,-374.5"/>
</g>
<!-- Node17 -->
<g id="node17" class="node">
<title>Node17</title>
<g id="a_node17"><a xlink:href="../../de/d94/namespacepahm__vortex.html#a2068d15c97a85bd4476a4522c233820e" target="_top" xlink:title="Creates a new Vortex object.">
<polygon fill="white" stroke="black" points="284,-320.5 284,-341.5 446,-341.5 446,-320.5 284,-320.5"/>
<text text-anchor="middle" x="365" y="-327.9" font-family="Helvetica,sans-Serif" font-size="12.00">pahm_vortex::newvortexfull</text>
</a>
</g>
</g>
<!-- Node1&#45;&gt;Node17 -->
<g id="edge19" class="edge">
<title>Node1&#45;&gt;Node17</title>
<path fill="none" stroke="midnightblue" d="M178.95,-360.49C212.39,-355.16 253.19,-348.66 287.95,-343.12"/>
<polygon fill="midnightblue" stroke="midnightblue" points="288.73,-346.54 298.06,-341.51 287.63,-339.63 288.73,-346.54"/>
</g>
<!-- Node18 -->
<g id="node18" class="node">
<title>Node18</title>
<g id="a_node18"><a xlink:href="../../de/d94/namespacepahm__vortex.html#aaab97c7e261e40b1326920c6ea427f2d" target="_top" xlink:title=" ">
<polygon fill="white" stroke="black" points="280.5,-280.5 280.5,-301.5 449.5,-301.5 449.5,-280.5 280.5,-280.5"/>
<text text-anchor="middle" x="365" y="-287.9" font-family="Helvetica,sans-Serif" font-size="12.00">pahm_vortex::setisotachradii</text>
</a>
</g>
</g>
<!-- Node1&#45;&gt;Node18 -->
<g id="edge20" class="edge">
<title>Node1&#45;&gt;Node18</title>
<path fill="none" stroke="midnightblue" d="M134.92,-360.45C163.23,-347.21 214.29,-324.58 260,-311 269.16,-308.28 278.88,-305.84 288.56,-303.68"/>
<polygon fill="midnightblue" stroke="midnightblue" points="289.57,-307.04 298.61,-301.53 288.1,-300.2 289.57,-307.04"/>
</g>
<!-- Node19 -->
<g id="node19" class="node">
<title>Node19</title>
<g id="a_node19"><a xlink:href="../../de/d94/namespacepahm__vortex.html#ae829eb4bd86cf66b7417dd8c135cd14c" target="_top" xlink:title=" ">
<polygon fill="white" stroke="black" points="260,-240.5 260,-261.5 470,-261.5 470,-240.5 260,-240.5"/>
<text text-anchor="middle" x="365" y="-247.9" font-family="Helvetica,sans-Serif" font-size="12.00">pahm_vortex::setisotachwindspeeds</text>
</a>
</g>
</g>
<!-- Node1&#45;&gt;Node19 -->
<g id="edge21" class="edge">
<title>Node1&#45;&gt;Node19</title>
<path fill="none" stroke="midnightblue" d="M124.96,-360.29C148.79,-339.55 204.7,-293.97 260,-271 266.22,-268.42 272.78,-266.16 279.47,-264.2"/>
<polygon fill="midnightblue" stroke="midnightblue" points="280.6,-267.52 289.33,-261.52 278.77,-260.77 280.6,-267.52"/>
</g>
<!-- Node20 -->
<g id="node20" class="node">
<title>Node20</title>
<g id="a_node20"><a xlink:href="../../de/d94/namespacepahm__vortex.html#a2babf5c497b67cb302ce24a444d46b69" target="_top" xlink:title=" ">
<polygon fill="white" stroke="black" points="272.5,-200.5 272.5,-221.5 457.5,-221.5 457.5,-200.5 272.5,-200.5"/>
<text text-anchor="middle" x="365" y="-207.9" font-family="Helvetica,sans-Serif" font-size="12.00">pahm_vortex::setusequadrantvr</text>
</a>
</g>
</g>
<!-- Node1&#45;&gt;Node20 -->
<g id="edge22" class="edge">
<title>Node1&#45;&gt;Node20</title>
<path fill="none" stroke="midnightblue" d="M120.53,-360.48C140.14,-333.95 195.77,-264.07 260,-231 264.53,-228.67 269.3,-226.6 274.21,-224.78"/>
<polygon fill="midnightblue" stroke="midnightblue" points="275.41,-228.07 283.77,-221.56 273.18,-221.43 275.41,-228.07"/>
</g>
<!-- Node21 -->
<g id="node21" class="node">
<title>Node21</title>
<g id="a_node21"><a xlink:href="../../de/d94/namespacepahm__vortex.html#aa71f92eb0375994452c5d67fe09a906c" target="_top" xlink:title=" ">
<polygon fill="white" stroke="black" points="276,-160.5 276,-181.5 454,-181.5 454,-160.5 276,-160.5"/>
<text text-anchor="middle" x="365" y="-167.9" font-family="Helvetica,sans-Serif" font-size="12.00">pahm_vortex::setusevmaxesbl</text>
</a>
</g>
</g>
<!-- Node1&#45;&gt;Node21 -->
<g id="edge23" class="edge">
<title>Node1&#45;&gt;Node21</title>
<path fill="none" stroke="midnightblue" d="M118.25,-360.31C134.44,-328.62 186.89,-234.62 260,-191 263.5,-188.91 267.17,-187.04 270.96,-185.35"/>
<polygon fill="midnightblue" stroke="midnightblue" points="272.57,-188.48 280.58,-181.55 269.99,-181.97 272.57,-188.48"/>
</g>
<!-- Node22 -->
<g id="node22" class="node">
<title>Node22</title>
<g id="a_node22"><a xlink:href="../../de/d94/namespacepahm__vortex.html#a599c0f12ed25a3614a8d819202840888" target="_top" xlink:title=" ">
<polygon fill="white" stroke="black" points="285.5,-120.5 285.5,-141.5 444.5,-141.5 444.5,-120.5 285.5,-120.5"/>
<text text-anchor="middle" x="365" y="-127.9" font-family="Helvetica,sans-Serif" font-size="12.00">pahm_vortex::setvmaxesbl</text>
</a>
</g>
</g>
<!-- Node1&#45;&gt;Node22 -->
<g id="edge24" class="edge">
<title>Node1&#45;&gt;Node22</title>
<path fill="none" stroke="midnightblue" d="M116.68,-360.33C129.73,-324.22 177.52,-205.74 260,-151 264.91,-147.74 270.21,-144.99 275.75,-142.66"/>
<polygon fill="midnightblue" stroke="midnightblue" points="277.08,-145.9 285.23,-139.13 274.64,-139.34 277.08,-145.9"/>
</g>
<!-- Node23 -->
<g id="node23" class="node">
<title>Node23</title>
<g id="a_node23"><a xlink:href="../../d2/d96/namespaceutilities.html#a8dff395c74e87d059dadcf8bacdbfedd" target="_top" xlink:title="Convert a string to upper&#45;case.">
<polygon fill="white" stroke="black" points="302,-80.5 302,-101.5 428,-101.5 428,-80.5 302,-80.5"/>
<text text-anchor="middle" x="365" y="-87.9" font-family="Helvetica,sans-Serif" font-size="12.00">utilities::touppercase</text>
</a>
</g>
</g>
<!-- Node1&#45;&gt;Node23 -->
<g id="edge25" class="edge">
<title>Node1&#45;&gt;Node23</title>
<path fill="none" stroke="midnightblue" d="M115.55,-360.43C125.76,-320.43 167.78,-177.27 260,-111 269.41,-104.24 280.49,-99.59 291.85,-96.43"/>
<polygon fill="midnightblue" stroke="midnightblue" points="292.97,-99.76 301.87,-94.02 291.33,-92.96 292.97,-99.76"/>
</g>
<!-- Node24 -->
<g id="node24" class="node">
<title>Node24</title>
<g id="a_node24"><a xlink:href="../../de/d94/namespacepahm__vortex.html#a152bcd63167a2f915475a55f5b4d9f2e" target="_top" xlink:title="This subroutine calculates the translational velocity of a moving hurricane.">
<polygon fill="white" stroke="black" points="286.5,-40.5 286.5,-61.5 443.5,-61.5 443.5,-40.5 286.5,-40.5"/>
<text text-anchor="middle" x="365" y="-47.9" font-family="Helvetica,sans-Serif" font-size="12.00">pahm_vortex::uvtranspoint</text>
</a>
</g>
</g>
<!-- Node1&#45;&gt;Node24 -->
<g id="edge26" class="edge">
<title>Node1&#45;&gt;Node24</title>
<path fill="none" stroke="midnightblue" d="M114.73,-360.37C122.44,-316.62 157.93,-149.01 260,-71 265.13,-67.08 270.81,-63.86 276.79,-61.22"/>
<polygon fill="midnightblue" stroke="midnightblue" points="278.32,-64.38 286.4,-57.53 275.81,-57.85 278.32,-64.38"/>
</g>
<!-- Node25 -->
<g id="node25" class="node">
<title>Node25</title>
<g id="a_node25"><a xlink:href="../../d9/d41/namespaceparwind.html#af04c6a174b50bd3f2995936289522213" target="_top" xlink:title="Outputs the post&#45;prossed best track data to file.">
<polygon fill="white" stroke="black" points="261,-0.5 261,-21.5 469,-21.5 469,-0.5 261,-0.5"/>
<text text-anchor="middle" x="365" y="-7.9" font-family="Helvetica,sans-Serif" font-size="12.00">parwind::writeasymmetricvortexdata</text>
</a>
</g>
</g>
<!-- Node1&#45;&gt;Node25 -->
<g id="edge27" class="edge">
<title>Node1&#45;&gt;Node25</title>
<path fill="none" stroke="midnightblue" d="M114.09,-360.3C119.49,-313 147.91,-120.97 260,-31 262.04,-29.36 264.17,-27.85 266.38,-26.44"/>
<polygon fill="midnightblue" stroke="midnightblue" points="268.18,-29.45 275.26,-21.56 264.81,-23.31 268.18,-29.45"/>
</g>
<!-- Node4 -->
<g id="node4" class="node">
<title>Node4</title>
<g id="a_node4"><a xlink:href="../../de/d94/namespacepahm__vortex.html#a24ea19697c70ab6e010e36a71faefcbc" target="_top" xlink:title="Use brute&#45;force marching to find a root the interval [x1,x2].">
<polygon fill="white" stroke="black" points="521,-640.5 521,-661.5 652,-661.5 652,-640.5 521,-640.5"/>
<text text-anchor="middle" x="586.5" y="-647.9" font-family="Helvetica,sans-Serif" font-size="12.00">pahm_vortex::findroot</text>
</a>
</g>
</g>
<!-- Node3&#45;&gt;Node4 -->
<g id="edge3" class="edge">
<title>Node3&#45;&gt;Node4</title>
<path fill="none" stroke="midnightblue" d="M423.67,-680.49C452.54,-675.23 487.68,-668.83 517.82,-663.33"/>
<polygon fill="midnightblue" stroke="midnightblue" points="518.62,-666.74 527.83,-661.51 517.37,-659.86 518.62,-666.74"/>
</g>
<!-- Node5 -->
<g id="node5" class="node">
<title>Node5</title>
<g id="a_node5"><a xlink:href="../../de/d94/namespacepahm__vortex.html#a758504d51e519dac32d8146e79fccd2c" target="_top" xlink:title=" ">
<polygon fill="white" stroke="black" points="518,-720.5 518,-741.5 655,-741.5 655,-720.5 518,-720.5"/>
<text text-anchor="middle" x="586.5" y="-727.9" font-family="Helvetica,sans-Serif" font-size="12.00">pahm_vortex::vhnocori</text>
</a>
</g>
</g>
<!-- Node3&#45;&gt;Node5 -->
<g id="edge4" class="edge">
<title>Node3&#45;&gt;Node5</title>
<path fill="none" stroke="midnightblue" d="M423.67,-701.51C452.54,-706.77 487.68,-713.17 517.82,-718.67"/>
<polygon fill="midnightblue" stroke="midnightblue" points="517.37,-722.14 527.83,-720.49 518.62,-715.26 517.37,-722.14"/>
</g>
<!-- Node7 -->
<g id="node7" class="node">
<title>Node7</title>
<g id="a_node7"><a xlink:href="../../de/d94/namespacepahm__vortex.html#a1e9c82cf5fb1c37ebd0629060e93d5fa" target="_top" xlink:title="External function f(x) = 0 for which a root is sought using Brent&#39;s root&#45;finding method.">
<polygon fill="white" stroke="black" points="513.5,-680.5 513.5,-701.5 659.5,-701.5 659.5,-680.5 513.5,-680.5"/>
<text text-anchor="middle" x="586.5" y="-687.9" font-family="Helvetica,sans-Serif" font-size="12.00">pahm_vortex::vhwithcori</text>
</a>
</g>
</g>
<!-- Node3&#45;&gt;Node7 -->
<g id="edge6" class="edge">
<title>Node3&#45;&gt;Node7</title>
<path fill="none" stroke="midnightblue" d="M441.23,-691C461.19,-691 482.85,-691 503.16,-691"/>
<polygon fill="midnightblue" stroke="midnightblue" points="503.33,-694.5 513.33,-691 503.33,-687.5 503.33,-694.5"/>
</g>
<!-- Node6 -->
<g id="node6" class="node">
<title>Node6</title>
<g id="a_node6"><a xlink:href="../../de/d94/namespacepahm__vortex.html#a7ec34dd62a9f644c1e235bb030bcb312" target="_top" xlink:title=" ">
<polygon fill="white" stroke="black" points="703,-680.5 703,-701.5 888,-701.5 888,-680.5 703,-680.5"/>
<text text-anchor="middle" x="795.5" y="-687.9" font-family="Helvetica,sans-Serif" font-size="12.00">pahm_vortex::getusequadrantvr</text>
</a>
</g>
</g>
<!-- Node5&#45;&gt;Node6 -->
<g id="edge5" class="edge">
<title>Node5&#45;&gt;Node6</title>
<path fill="none" stroke="midnightblue" d="M641.89,-720.49C668.88,-715.27 701.67,-708.94 729.93,-703.48"/>
<polygon fill="midnightblue" stroke="midnightblue" points="730.96,-706.84 740.12,-701.51 729.63,-699.97 730.96,-706.84"/>
</g>
<!-- Node7&#45;&gt;Node6 -->
<g id="edge7" class="edge">
<title>Node7&#45;&gt;Node6</title>
<path fill="none" stroke="midnightblue" d="M659.61,-691C670.33,-691 681.54,-691 692.73,-691"/>
<polygon fill="midnightblue" stroke="midnightblue" points="692.99,-694.5 702.99,-691 692.99,-687.5 692.99,-694.5"/>
</g>
<!-- Node8&#45;&gt;Node4 -->
<g id="edge9" class="edge">
<title>Node8&#45;&gt;Node4</title>
<path fill="none" stroke="midnightblue" d="M449.3,-651C469.44,-651 490.84,-651 510.57,-651"/>
<polygon fill="midnightblue" stroke="midnightblue" points="510.71,-654.5 520.71,-651 510.71,-647.5 510.71,-654.5"/>
</g>
<!-- Node9 -->
<g id="node9" class="node">
<title>Node9</title>
<g id="a_node9"><a xlink:href="../../de/d94/namespacepahm__vortex.html#a01b29cf3c18d04fb55a502f42f51af39" target="_top" xlink:title="External function f(x) = 0 for which a root is sought using Brent&#39;s root&#45;finding method.">
<polygon fill="white" stroke="black" points="506,-600.5 506,-621.5 667,-621.5 667,-600.5 506,-600.5"/>
<text text-anchor="middle" x="586.5" y="-607.9" font-family="Helvetica,sans-Serif" font-size="12.00">pahm_vortex::vhwithcorifull</text>
</a>
</g>
</g>
<!-- Node8&#45;&gt;Node9 -->
<g id="edge10" class="edge">
<title>Node8&#45;&gt;Node9</title>
<path fill="none" stroke="midnightblue" d="M423.67,-640.49C452.54,-635.23 487.68,-628.83 517.82,-623.33"/>
<polygon fill="midnightblue" stroke="midnightblue" points="518.62,-626.74 527.83,-621.51 517.37,-619.86 518.62,-626.74"/>
</g>
<!-- Node9&#45;&gt;Node6 -->
<g id="edge11" class="edge">
<title>Node9&#45;&gt;Node6</title>
<path fill="none" stroke="midnightblue" d="M635.87,-621.58C646.26,-624.29 657.08,-627.46 667,-631 702.14,-643.55 740.66,-662.45 766.07,-675.67"/>
<polygon fill="midnightblue" stroke="midnightblue" points="764.65,-678.88 775.13,-680.43 767.9,-672.68 764.65,-678.88"/>
</g>
</g>
</svg>
