<?xml version="1.0" encoding="UTF-8" standalone="no"?>
<!DOCTYPE svg PUBLIC "-//W3C//DTD SVG 1.1//EN"
 "http://www.w3.org/Graphics/SVG/1.1/DTD/svg11.dtd">
<!-- Generated by graphviz version 2.42.4 (0)
 -->
<!-- Title: parwind::gethollandfields Pages: 1 -->
<!--zoomable 310 -->
<svg id="main" version="1.1" xmlns="http://www.w3.org/2000/svg" xmlns:xlink="http://www.w3.org/1999/xlink" xml:space="preserve" onload="init(evt)">
<style type="text/css"><![CDATA[
.edge:hover path { stroke: red; }
.edge:hover polygon { stroke: red; fill: red; }
]]></style>
<script type="text/javascript"><![CDATA[
var edges = document.getElementsByTagName('g');
if (edges && edges.length) {
  for (var i=0;i<edges.length;i++) {
    if (edges[i].id.substr(0,4)=='edge') {
      edges[i].setAttribute('class','edge');
    }
  }
}
]]></script>
        <defs>
                <circle id="rim" cx="0" cy="0" r="7"/>
                <circle id="rim2" cx="0" cy="0" r="3.5"/>
                <g id="zoomPlus">
                        <use xlink:href="#rim" fill="#404040">
                                <set attributeName="fill" to="#808080" begin="zoomplus.mouseover" end="zoomplus.mouseout"/>
                        </use>
                        <path d="M-4,0h8M0,-4v8" fill="none" stroke="white" stroke-width="1.5" pointer-events="none"/>
                </g>
                <g id="zoomMin">
                        <use xlink:href="#rim" fill="#404040">
                                <set attributeName="fill" to="#808080" begin="zoomminus.mouseover" end="zoomminus.mouseout"/>
                        </use>
                        <path d="M-4,0h8" fill="none" stroke="white" stroke-width="1.5" pointer-events="none"/>
                </g>
                <g id="dirArrow">
                        <path fill="none" stroke="white" stroke-width="1.5" d="M0,-3.0v7 M-2.5,-0.5L0,-3.0L2.5,-0.5"/>
                </g>
               <g id="resetDef">
                       <use xlink:href="#rim2" fill="#404040">
                               <set attributeName="fill" to="#808080" begin="reset.mouseover" end="reset.mouseout"/>
                       </use>
               </g>
        </defs>

<script type="text/javascript">
var viewWidth = 867;
var viewHeight = 310;
var sectionId = 'dynsection-7';
</script>
<script xlink:href="../../svgpan.js"/>
<svg id="graph" class="graph">
<g id="viewport">
<title>parwind::gethollandfields</title>
<polygon fill="white" stroke="transparent" points="-4,4 -4,-306 863,-306 863,4 -4,4"/>
<!-- Node1 -->
<g id="node1" class="node">
<title>Node1</title>
<g id="a_node1"><a xlink:title="Calculates wind velocities and MSL pressures at the mesh nodes from the P&#45;W Holland Wind model.">
<polygon fill="#bfbfbf" stroke="black" points="0,-160.5 0,-181.5 151,-181.5 151,-160.5 0,-160.5"/>
<text text-anchor="middle" x="75.5" y="-167.9" font-family="Helvetica,sans-Serif" font-size="12.00">parwind::gethollandfields</text>
</a>
</g>
</g>
<!-- Node2 -->
<g id="node2" class="node">
<title>Node2</title>
<g id="a_node2"><a xlink:href="../../d4/d19/namespacetimedateutils.html#a565d549493d69e2c9ea5b7af18247df5" target="_top" xlink:title="Constructs a NetCDF time string.">
<polygon fill="white" stroke="black" points="188,-240.5 188,-261.5 360,-261.5 360,-240.5 188,-240.5"/>
<text text-anchor="middle" x="274" y="-247.9" font-family="Helvetica,sans-Serif" font-size="12.00">timedateutils::datetime2string</text>
</a>
</g>
</g>
<!-- Node1&#45;&gt;Node2 -->
<g id="edge1" class="edge">
<title>Node1&#45;&gt;Node2</title>
<path fill="none" stroke="midnightblue" d="M92.68,-181.6C113.64,-194.9 151.7,-217.59 187,-231 193.7,-233.54 200.82,-235.83 207.98,-237.86"/>
<polygon fill="midnightblue" stroke="midnightblue" points="207.18,-241.27 217.75,-240.47 208.99,-234.5 207.18,-241.27"/>
</g>
<!-- Node4 -->
<g id="node4" class="node">
<title>Node4</title>
<g id="a_node4"><a xlink:href="../../d9/d41/namespaceparwind.html#a0ed4ae2d2927c042da5b0f3df42f5ef8" target="_top" xlink:title="Subroutine to deallocate memory of an allocated holland structure.">
<polygon fill="white" stroke="black" points="197.5,-200.5 197.5,-221.5 350.5,-221.5 350.5,-200.5 197.5,-200.5"/>
<text text-anchor="middle" x="274" y="-207.9" font-family="Helvetica,sans-Serif" font-size="12.00">parwind::deallochollstruct</text>
</a>
</g>
</g>
<!-- Node1&#45;&gt;Node4 -->
<g id="edge3" class="edge">
<title>Node1&#45;&gt;Node4</title>
<path fill="none" stroke="midnightblue" d="M128.13,-181.51C153.64,-186.7 184.61,-193.01 211.35,-198.45"/>
<polygon fill="midnightblue" stroke="midnightblue" points="210.88,-201.93 221.38,-200.49 212.28,-195.07 210.88,-201.93"/>
</g>
<!-- Node5 -->
<g id="node5" class="node">
<title>Node5</title>
<g id="a_node5"><a xlink:href="../../d2/d96/namespaceutilities.html#a35b859c005e3b9cc063bdc46a1675159" target="_top" xlink:title="Calculates the location of a value in an 1D array of values.">
<polygon fill="white" stroke="black" points="206,-160.5 206,-181.5 342,-181.5 342,-160.5 206,-160.5"/>
<text text-anchor="middle" x="274" y="-167.9" font-family="Helvetica,sans-Serif" font-size="12.00">utilities::getlocandratio</text>
</a>
</g>
</g>
<!-- Node1&#45;&gt;Node5 -->
<g id="edge4" class="edge">
<title>Node1&#45;&gt;Node5</title>
<path fill="none" stroke="midnightblue" d="M151.07,-171C165.71,-171 181.1,-171 195.83,-171"/>
<polygon fill="midnightblue" stroke="midnightblue" points="195.9,-174.5 205.9,-171 195.9,-167.5 195.9,-174.5"/>
</g>
<!-- Node6 -->
<g id="node6" class="node">
<title>Node6</title>
<g id="a_node6"><a xlink:href="../../d4/d19/namespacetimedateutils.html#a6c7acacb9981bb9182378a449e45715b" target="_top" xlink:title="Calculates the conversion factor between time units and seconds.">
<polygon fill="white" stroke="black" points="187,-280.5 187,-301.5 361,-301.5 361,-280.5 187,-280.5"/>
<text text-anchor="middle" x="274" y="-287.9" font-family="Helvetica,sans-Serif" font-size="12.00">timedateutils::gettimeconvsec</text>
</a>
</g>
</g>
<!-- Node1&#45;&gt;Node6 -->
<g id="edge5" class="edge">
<title>Node1&#45;&gt;Node6</title>
<path fill="none" stroke="midnightblue" d="M84.98,-181.66C102,-202.3 142.52,-247.73 187,-271 191.47,-273.34 196.21,-275.41 201.08,-277.23"/>
<polygon fill="midnightblue" stroke="midnightblue" points="199.97,-280.55 210.57,-280.46 202.23,-273.93 199.97,-280.55"/>
</g>
<!-- Node7 -->
<g id="node7" class="node">
<title>Node7</title>
<g id="a_node7"><a xlink:href="../../d4/d19/namespacetimedateutils.html#abc63ac16baec18b6c9bb2ee6e0400a63" target="_top" xlink:title="Determines the Julian date from a Gregorian date.">
<polygon fill="white" stroke="black" points="196.5,-120.5 196.5,-141.5 351.5,-141.5 351.5,-120.5 196.5,-120.5"/>
<text text-anchor="middle" x="274" y="-127.9" font-family="Helvetica,sans-Serif" font-size="12.00">timedateutils::juldaytogreg</text>
</a>
</g>
</g>
<!-- Node1&#45;&gt;Node7 -->
<g id="edge7" class="edge">
<title>Node1&#45;&gt;Node7</title>
<path fill="none" stroke="midnightblue" d="M128.13,-160.49C153.64,-155.3 184.61,-148.99 211.35,-143.55"/>
<polygon fill="midnightblue" stroke="midnightblue" points="212.28,-146.93 221.38,-141.51 210.88,-140.07 212.28,-146.93"/>
</g>
<!-- Node8 -->
<g id="node8" class="node">
<title>Node8</title>
<g id="a_node8"><a xlink:href="../../d9/d41/namespaceparwind.html#a6efcf8be68b268f0a6d92ceb5f8c6f41" target="_top" xlink:title="Subroutine to support the Holland model(s) (GetHollandFields).">
<polygon fill="white" stroke="black" points="188.5,-80.5 188.5,-101.5 359.5,-101.5 359.5,-80.5 188.5,-80.5"/>
<text text-anchor="middle" x="274" y="-87.9" font-family="Helvetica,sans-Serif" font-size="12.00">parwind::processhollanddata</text>
</a>
</g>
</g>
<!-- Node1&#45;&gt;Node8 -->
<g id="edge8" class="edge">
<title>Node1&#45;&gt;Node8</title>
<path fill="none" stroke="midnightblue" d="M92.68,-160.4C113.64,-147.1 151.7,-124.41 187,-111 193.7,-108.46 200.82,-106.17 207.98,-104.14"/>
<polygon fill="midnightblue" stroke="midnightblue" points="208.99,-107.5 217.75,-101.53 207.18,-100.73 208.99,-107.5"/>
</g>
<!-- Node16 -->
<g id="node16" class="node">
<title>Node16</title>
<g id="a_node16"><a xlink:href="../../d2/d96/namespaceutilities.html#a0ef8b9a5f7a0aac72618c3e7b05adf44" target="_top" xlink:title="Calculates the coordinates of an intermediate point between two points along the great circle.">
<polygon fill="white" stroke="black" points="196.5,-40.5 196.5,-61.5 351.5,-61.5 351.5,-40.5 196.5,-40.5"/>
<text text-anchor="middle" x="274" y="-47.9" font-family="Helvetica,sans-Serif" font-size="12.00">utilities::sphericalfracpoint</text>
</a>
</g>
</g>
<!-- Node1&#45;&gt;Node16 -->
<g id="edge18" class="edge">
<title>Node1&#45;&gt;Node16</title>
<path fill="none" stroke="midnightblue" d="M84.98,-160.34C102,-139.7 142.52,-94.27 187,-71 191.47,-68.66 196.21,-66.59 201.08,-64.77"/>
<polygon fill="midnightblue" stroke="midnightblue" points="202.23,-68.07 210.57,-61.54 199.97,-61.45 202.23,-68.07"/>
</g>
<!-- Node3 -->
<g id="node3" class="node">
<title>Node3</title>
<g id="a_node3"><a xlink:href="../../d4/d19/namespacetimedateutils.html#a09a914846a02d3d430348f83c67d58b5" target="_top" xlink:title="Convert a string to upper&#45;case.">
<polygon fill="white" stroke="black" points="441,-260.5 441,-281.5 551,-281.5 551,-260.5 441,-260.5"/>
<text text-anchor="middle" x="496" y="-267.9" font-family="Helvetica,sans-Serif" font-size="12.00">timedateutils::upp</text>
</a>
</g>
</g>
<!-- Node2&#45;&gt;Node3 -->
<g id="edge2" class="edge">
<title>Node2&#45;&gt;Node3</title>
<path fill="none" stroke="midnightblue" d="M360.06,-258.73C383.54,-260.87 408.63,-263.15 430.72,-265.16"/>
<polygon fill="midnightblue" stroke="midnightblue" points="430.7,-268.67 440.98,-266.09 431.34,-261.7 430.7,-268.67"/>
</g>
<!-- Node6&#45;&gt;Node3 -->
<g id="edge6" class="edge">
<title>Node6&#45;&gt;Node3</title>
<path fill="none" stroke="midnightblue" d="M361,-283.18C384.2,-281.07 408.9,-278.83 430.69,-276.85"/>
<polygon fill="midnightblue" stroke="midnightblue" points="431.16,-280.32 440.81,-275.93 430.53,-273.35 431.16,-280.32"/>
</g>
<!-- Node9 -->
<g id="node9" class="node">
<title>Node9</title>
<g id="a_node9"><a xlink:href="../../d9/d41/namespaceparwind.html#a7bbd86c1fc9b715f2dd8c8d340c6964c" target="_top" xlink:title="Subroutine to allocate memory for a holland structure.">
<polygon fill="white" stroke="black" points="426,-40.5 426,-61.5 566,-61.5 566,-40.5 426,-40.5"/>
<text text-anchor="middle" x="496" y="-47.9" font-family="Helvetica,sans-Serif" font-size="12.00">parwind::allochollstruct</text>
</a>
</g>
</g>
<!-- Node8&#45;&gt;Node9 -->
<g id="edge9" class="edge">
<title>Node8&#45;&gt;Node9</title>
<path fill="none" stroke="midnightblue" d="M332.8,-80.49C361.74,-75.23 396.95,-68.83 427.16,-63.33"/>
<polygon fill="midnightblue" stroke="midnightblue" points="427.99,-66.74 437.2,-61.51 426.74,-59.85 427.99,-66.74"/>
</g>
<!-- Node10 -->
<g id="node10" class="node">
<title>Node10</title>
<g id="a_node10"><a xlink:href="../../de/d94/namespacepahm__vortex.html#a9bcc2778159c3bcce3d559c793cf1fcf" target="_top" xlink:title="This subroutine calculates the intensity time change of a variable using second order mumerical accur...">
<polygon fill="white" stroke="black" points="397,-0.5 397,-21.5 595,-21.5 595,-0.5 397,-0.5"/>
<text text-anchor="middle" x="496" y="-7.9" font-family="Helvetica,sans-Serif" font-size="12.00">pahm_vortex::calcintensitychange</text>
</a>
</g>
</g>
<!-- Node8&#45;&gt;Node10 -->
<g id="edge10" class="edge">
<title>Node8&#45;&gt;Node10</title>
<path fill="none" stroke="midnightblue" d="M340.07,-80.41C347.39,-77.91 354.53,-74.82 361,-71 381.6,-58.84 376.24,-42.88 397,-31 400.88,-28.78 404.97,-26.81 409.18,-25.05"/>
<polygon fill="midnightblue" stroke="midnightblue" points="410.44,-28.32 418.59,-21.54 408,-21.76 410.44,-28.32"/>
</g>
<!-- Node13 -->
<g id="node13" class="node">
<title>Node13</title>
<g id="a_node13"><a xlink:href="../../d2/d96/namespaceutilities.html#a241eabd46f9d0e4a26adc221570ad79f" target="_top" xlink:title="Find the unique non&#45;blank elements in 1D character array.">
<polygon fill="white" stroke="black" points="436,-120.5 436,-141.5 556,-141.5 556,-120.5 436,-120.5"/>
<text text-anchor="middle" x="496" y="-127.9" font-family="Helvetica,sans-Serif" font-size="12.00">utilities::charunique</text>
</a>
</g>
</g>
<!-- Node8&#45;&gt;Node13 -->
<g id="edge13" class="edge">
<title>Node8&#45;&gt;Node13</title>
<path fill="none" stroke="midnightblue" d="M332.8,-101.51C361.74,-106.77 396.95,-113.17 427.16,-118.67"/>
<polygon fill="midnightblue" stroke="midnightblue" points="426.74,-122.15 437.2,-120.49 427.99,-115.26 426.74,-122.15"/>
</g>
<!-- Node14 -->
<g id="node14" class="node">
<title>Node14</title>
<g id="a_node14"><a xlink:href="../../d2/d96/namespaceutilities.html#a8dff395c74e87d059dadcf8bacdbfedd" target="_top" xlink:title="Convert a string to upper&#45;case.">
<polygon fill="white" stroke="black" points="433,-80.5 433,-101.5 559,-101.5 559,-80.5 433,-80.5"/>
<text text-anchor="middle" x="496" y="-87.9" font-family="Helvetica,sans-Serif" font-size="12.00">utilities::touppercase</text>
</a>
</g>
</g>
<!-- Node8&#45;&gt;Node14 -->
<g id="edge14" class="edge">
<title>Node8&#45;&gt;Node14</title>
<path fill="none" stroke="midnightblue" d="M359.74,-91C380.56,-91 402.65,-91 422.81,-91"/>
<polygon fill="midnightblue" stroke="midnightblue" points="422.84,-94.5 432.84,-91 422.84,-87.5 422.84,-94.5"/>
</g>
<!-- Node15 -->
<g id="node15" class="node">
<title>Node15</title>
<g id="a_node15"><a xlink:href="../../de/d94/namespacepahm__vortex.html#ac9c0f4fcac5fb2067133acb366bae984" target="_top" xlink:title="This subroutine calculates the translational velocity of a moving hurricane using second order mumeri...">
<polygon fill="white" stroke="black" points="430.5,-160.5 430.5,-181.5 561.5,-181.5 561.5,-160.5 430.5,-160.5"/>
<text text-anchor="middle" x="496" y="-167.9" font-family="Helvetica,sans-Serif" font-size="12.00">pahm_vortex::uvtrans</text>
</a>
</g>
</g>
<!-- Node8&#45;&gt;Node15 -->
<g id="edge15" class="edge">
<title>Node8&#45;&gt;Node15</title>
<path fill="none" stroke="midnightblue" d="M340.07,-101.59C347.39,-104.09 354.53,-107.18 361,-111 381.6,-123.16 376.24,-139.12 397,-151 404.31,-155.18 412.37,-158.5 420.64,-161.13"/>
<polygon fill="midnightblue" stroke="midnightblue" points="419.82,-164.53 430.39,-163.91 421.74,-157.8 419.82,-164.53"/>
</g>
<!-- Node11 -->
<g id="node11" class="node">
<title>Node11</title>
<g id="a_node11"><a xlink:href="../../d4/d3b/namespacepahm__messages.html#acf0c696cc1604842ee84a5df6d81179c" target="_top" xlink:title="Sets the name of the subroutine that is writing log and/or screen messages.">
<polygon fill="white" stroke="black" points="637.5,-130.5 637.5,-151.5 852.5,-151.5 852.5,-130.5 637.5,-130.5"/>
<text text-anchor="middle" x="745" y="-137.9" font-family="Helvetica,sans-Serif" font-size="12.00">pahm_messages::setmessagesource</text>
</a>
</g>
</g>
<!-- Node10&#45;&gt;Node11 -->
<g id="edge11" class="edge">
<title>Node10&#45;&gt;Node11</title>
<path fill="none" stroke="midnightblue" d="M577.45,-21.52C583.67,-24.07 589.61,-27.19 595,-31 620.39,-48.96 607.69,-70.41 631,-91 649.48,-107.32 674.13,-119.06 695.7,-127.05"/>
<polygon fill="midnightblue" stroke="midnightblue" points="694.76,-130.43 705.35,-130.46 697.09,-123.83 694.76,-130.43"/>
</g>
<!-- Node12 -->
<g id="node12" class="node">
<title>Node12</title>
<g id="a_node12"><a xlink:href="../../d4/d3b/namespacepahm__messages.html#ad35e9f2327aad65d4c669e3d886f54dc" target="_top" xlink:title="Removes the name of the subroutine that is no longer active.">
<polygon fill="white" stroke="black" points="631,-60.5 631,-81.5 859,-81.5 859,-60.5 631,-60.5"/>
<text text-anchor="middle" x="745" y="-67.9" font-family="Helvetica,sans-Serif" font-size="12.00">pahm_messages::unsetmessagesource</text>
</a>
</g>
</g>
<!-- Node10&#45;&gt;Node12 -->
<g id="edge12" class="edge">
<title>Node10&#45;&gt;Node12</title>
<path fill="none" stroke="midnightblue" d="M551.56,-21.52C565.74,-24.42 580.97,-27.69 595,-31 629.39,-39.12 667.92,-49.49 697.17,-57.64"/>
<polygon fill="midnightblue" stroke="midnightblue" points="696.54,-61.1 707.11,-60.43 698.43,-54.36 696.54,-61.1"/>
</g>
<!-- Node15&#45;&gt;Node11 -->
<g id="edge16" class="edge">
<title>Node15&#45;&gt;Node11</title>
<path fill="none" stroke="midnightblue" d="M561.57,-163.16C587.79,-159.97 618.62,-156.23 647.41,-152.73"/>
<polygon fill="midnightblue" stroke="midnightblue" points="647.99,-156.19 657.5,-151.51 647.15,-149.24 647.99,-156.19"/>
</g>
<!-- Node15&#45;&gt;Node12 -->
<g id="edge17" class="edge">
<title>Node15&#45;&gt;Node12</title>
<path fill="none" stroke="midnightblue" d="M561.75,-162.51C573.15,-159.7 584.67,-155.96 595,-151 613.77,-141.98 613.31,-131.99 631,-121 654.18,-106.61 682.22,-94.18 704.56,-85.31"/>
<polygon fill="midnightblue" stroke="midnightblue" points="706.03,-88.49 714.08,-81.61 703.49,-81.97 706.03,-88.49"/>
</g>
</g>
</svg>
        <g id="navigator" transform="translate(0 0)" fill="#404254">
                <rect fill="#f2f5e9" fill-opacity="0.5" stroke="#606060" stroke-width=".5" x="0" y="0" width="60" height="60"/>
                <use id="zoomplus" xlink:href="#zoomPlus" x="17" y="9" onmousedown="handleZoom(evt,'in')"/>
                <use id="zoomminus" xlink:href="#zoomMin" x="42" y="9" onmousedown="handleZoom(evt,'out')"/>
                <use id="reset" xlink:href="#resetDef" x="30" y="36" onmousedown="handleReset()"/>
                <g id="arrowUp" xlink:href="#dirArrow" transform="translate(30 24)" onmousedown="handlePan(0,-1)">
                  <use xlink:href="#rim" fill="#404040">
                        <set attributeName="fill" to="#808080" begin="arrowUp.mouseover" end="arrowUp.mouseout"/>
                  </use>
                  <path fill="none" stroke="white" stroke-width="1.5" d="M0,-3.0v7 M-2.5,-0.5L0,-3.0L2.5,-0.5"/>
                </g>
                <g id="arrowRight" xlink:href="#dirArrow" transform="rotate(90) translate(36 -43)" onmousedown="handlePan(1,0)">
                  <use xlink:href="#rim" fill="#404040">
                        <set attributeName="fill" to="#808080" begin="arrowRight.mouseover" end="arrowRight.mouseout"/>
                  </use>
                  <path fill="none" stroke="white" stroke-width="1.5" d="M0,-3.0v7 M-2.5,-0.5L0,-3.0L2.5,-0.5"/>
                </g>
                <g id="arrowDown" xlink:href="#dirArrow" transform="rotate(180) translate(-30 -48)" onmousedown="handlePan(0,1)">
                  <use xlink:href="#rim" fill="#404040">
                        <set attributeName="fill" to="#808080" begin="arrowDown.mouseover" end="arrowDown.mouseout"/>
                  </use>
                  <path fill="none" stroke="white" stroke-width="1.5" d="M0,-3.0v7 M-2.5,-0.5L0,-3.0L2.5,-0.5"/>
                </g>
                <g id="arrowLeft" xlink:href="#dirArrow" transform="rotate(270) translate(-36 17)" onmousedown="handlePan(-1,0)">
                  <use xlink:href="#rim" fill="#404040">
                        <set attributeName="fill" to="#808080" begin="arrowLeft.mouseover" end="arrowLeft.mouseout"/>
                  </use>
                  <path fill="none" stroke="white" stroke-width="1.5" d="M0,-3.0v7 M-2.5,-0.5L0,-3.0L2.5,-0.5"/>
                </g>
        </g>
        <svg viewBox="0 0 15 15" width="100%" height="30px" preserveAspectRatio="xMaxYMin meet">
         <g id="arrow_out" transform="scale(0.3 0.3)">
          <a xlink:href="namespaceparwind_ad2cf2a3c40591a24959e6dd126066294_cgraph_org.svg" target="_base">
           <rect id="button" ry="5" rx="5" y="6" x="6" height="38" width="38"
                fill="#f2f5e9" fill-opacity="0.5" stroke="#606060" stroke-width="1.0"/>
           <path id="arrow"
             d="M 11.500037,31.436501 C 11.940474,20.09759 22.043105,11.32322 32.158766,21.979434 L 37.068811,17.246167 C 37.068811,17.246167 37.088388,32 37.088388,32 L 22.160133,31.978069 C 22.160133,31.978069 26.997745,27.140456 26.997745,27.140456 C 18.528582,18.264221 13.291696,25.230495 11.500037,31.436501 z"
             style="fill:#404040;"/>
          </a>
         </g>
        </svg>
</svg>
