<?xml version="1.0" encoding="UTF-8" standalone="no"?>
<!DOCTYPE svg PUBLIC "-//W3C//DTD SVG 1.1//EN"
 "http://www.w3.org/Graphics/SVG/1.1/DTD/svg11.dtd">
<!-- Generated by graphviz version 2.42.4 (0)
 -->
<!-- Title: parwind::gethollandfields Pages: 1 -->
<svg width="867pt" height="310pt"
 viewBox="0.00 0.00 867.00 310.00" xmlns="http://www.w3.org/2000/svg" xmlns:xlink="http://www.w3.org/1999/xlink">
<g id="graph0" class="graph" transform="scale(1 1) rotate(0) translate(4 306)">
<title>parwind::gethollandfields</title>
<polygon fill="white" stroke="transparent" points="-4,4 -4,-306 863,-306 863,4 -4,4"/>
<!-- Node1 -->
<g id="node1" class="node">
<title>Node1</title>
<g id="a_node1"><a xlink:title="Calculates wind velocities and MSL pressures at the mesh nodes from the P&#45;W Holland Wind model.">
<polygon fill="#bfbfbf" stroke="black" points="0,-160.5 0,-181.5 151,-181.5 151,-160.5 0,-160.5"/>
<text text-anchor="middle" x="75.5" y="-167.9" font-family="Helvetica,sans-Serif" font-size="12.00">parwind::gethollandfields</text>
</a>
</g>
</g>
<!-- Node2 -->
<g id="node2" class="node">
<title>Node2</title>
<g id="a_node2"><a xlink:href="../../d4/d19/namespacetimedateutils.html#a565d549493d69e2c9ea5b7af18247df5" target="_top" xlink:title="Constructs a NetCDF time string.">
<polygon fill="white" stroke="black" points="188,-280.5 188,-301.5 360,-301.5 360,-280.5 188,-280.5"/>
<text text-anchor="middle" x="274" y="-287.9" font-family="Helvetica,sans-Serif" font-size="12.00">timedateutils::datetime2string</text>
</a>
</g>
</g>
<!-- Node1&#45;&gt;Node2 -->
<g id="edge1" class="edge">
<title>Node1&#45;&gt;Node2</title>
<path fill="none" stroke="midnightblue" d="M84.98,-181.66C102,-202.3 142.52,-247.73 187,-271 191.47,-273.34 196.21,-275.41 201.08,-277.23"/>
<polygon fill="midnightblue" stroke="midnightblue" points="199.97,-280.55 210.57,-280.46 202.23,-273.93 199.97,-280.55"/>
</g>
<!-- Node3 -->
<g id="node3" class="node">
<title>Node3</title>
<g id="a_node3"><a xlink:href="../../d9/d41/namespaceparwind.html#a0ed4ae2d2927c042da5b0f3df42f5ef8" target="_top" xlink:title="Subroutine to deallocate memory of an allocated holland structure.">
<polygon fill="white" stroke="black" points="197.5,-240.5 197.5,-261.5 350.5,-261.5 350.5,-240.5 197.5,-240.5"/>
<text text-anchor="middle" x="274" y="-247.9" font-family="Helvetica,sans-Serif" font-size="12.00">parwind::deallochollstruct</text>
</a>
</g>
</g>
<!-- Node1&#45;&gt;Node3 -->
<g id="edge2" class="edge">
<title>Node1&#45;&gt;Node3</title>
<path fill="none" stroke="midnightblue" d="M92.68,-181.6C113.64,-194.9 151.7,-217.59 187,-231 193.7,-233.54 200.82,-235.83 207.98,-237.86"/>
<polygon fill="midnightblue" stroke="midnightblue" points="207.18,-241.27 217.75,-240.47 208.99,-234.5 207.18,-241.27"/>
</g>
<!-- Node4 -->
<g id="node4" class="node">
<title>Node4</title>
<g id="a_node4"><a xlink:href="../../d2/d96/namespaceutilities.html#a35b859c005e3b9cc063bdc46a1675159" target="_top" xlink:title="Calculates the location of a value in an 1D array of values.">
<polygon fill="white" stroke="black" points="206,-200.5 206,-221.5 342,-221.5 342,-200.5 206,-200.5"/>
<text text-anchor="middle" x="274" y="-207.9" font-family="Helvetica,sans-Serif" font-size="12.00">utilities::getlocandratio</text>
</a>
</g>
</g>
<!-- Node1&#45;&gt;Node4 -->
<g id="edge3" class="edge">
<title>Node1&#45;&gt;Node4</title>
<path fill="none" stroke="midnightblue" d="M128.13,-181.51C153.64,-186.7 184.61,-193.01 211.35,-198.45"/>
<polygon fill="midnightblue" stroke="midnightblue" points="210.88,-201.93 221.38,-200.49 212.28,-195.07 210.88,-201.93"/>
</g>
<!-- Node5 -->
<g id="node5" class="node">
<title>Node5</title>
<g id="a_node5"><a xlink:href="../../d4/d19/namespacetimedateutils.html#a6c7acacb9981bb9182378a449e45715b" target="_top" xlink:title="Calculates the conversion factor between time units and seconds.">
<polygon fill="white" stroke="black" points="187,-160.5 187,-181.5 361,-181.5 361,-160.5 187,-160.5"/>
<text text-anchor="middle" x="274" y="-167.9" font-family="Helvetica,sans-Serif" font-size="12.00">timedateutils::gettimeconvsec</text>
</a>
</g>
</g>
<!-- Node1&#45;&gt;Node5 -->
<g id="edge4" class="edge">
<title>Node1&#45;&gt;Node5</title>
<path fill="none" stroke="midnightblue" d="M151.07,-171C159.5,-171 168.17,-171 176.82,-171"/>
<polygon fill="midnightblue" stroke="midnightblue" points="176.96,-174.5 186.96,-171 176.96,-167.5 176.96,-174.5"/>
</g>
<!-- Node6 -->
<g id="node6" class="node">
<title>Node6</title>
<g id="a_node6"><a xlink:href="../../d4/d19/namespacetimedateutils.html#abc63ac16baec18b6c9bb2ee6e0400a63" target="_top" xlink:title="Determines the Julian date from a Gregorian date.">
<polygon fill="white" stroke="black" points="196.5,-120.5 196.5,-141.5 351.5,-141.5 351.5,-120.5 196.5,-120.5"/>
<text text-anchor="middle" x="274" y="-127.9" font-family="Helvetica,sans-Serif" font-size="12.00">timedateutils::juldaytogreg</text>
</a>
</g>
</g>
<!-- Node1&#45;&gt;Node6 -->
<g id="edge5" class="edge">
<title>Node1&#45;&gt;Node6</title>
<path fill="none" stroke="midnightblue" d="M128.13,-160.49C153.64,-155.3 184.61,-148.99 211.35,-143.55"/>
<polygon fill="midnightblue" stroke="midnightblue" points="212.28,-146.93 221.38,-141.51 210.88,-140.07 212.28,-146.93"/>
</g>
<!-- Node7 -->
<g id="node7" class="node">
<title>Node7</title>
<g id="a_node7"><a xlink:href="../../d9/d41/namespaceparwind.html#a6efcf8be68b268f0a6d92ceb5f8c6f41" target="_top" xlink:title="Subroutine to support the Holland model (GetHolland).">
<polygon fill="white" stroke="black" points="188.5,-80.5 188.5,-101.5 359.5,-101.5 359.5,-80.5 188.5,-80.5"/>
<text text-anchor="middle" x="274" y="-87.9" font-family="Helvetica,sans-Serif" font-size="12.00">parwind::processhollanddata</text>
</a>
</g>
</g>
<!-- Node1&#45;&gt;Node7 -->
<g id="edge6" class="edge">
<title>Node1&#45;&gt;Node7</title>
<path fill="none" stroke="midnightblue" d="M92.68,-160.4C113.64,-147.1 151.7,-124.41 187,-111 193.7,-108.46 200.82,-106.17 207.98,-104.14"/>
<polygon fill="midnightblue" stroke="midnightblue" points="208.99,-107.5 217.75,-101.53 207.18,-100.73 208.99,-107.5"/>
</g>
<!-- Node15 -->
<g id="node15" class="node">
<title>Node15</title>
<g id="a_node15"><a xlink:href="../../d2/d96/namespaceutilities.html#a0ef8b9a5f7a0aac72618c3e7b05adf44" target="_top" xlink:title="Calculates the coordinates of an intermediate point between two points along the great circle.">
<polygon fill="white" stroke="black" points="196.5,-40.5 196.5,-61.5 351.5,-61.5 351.5,-40.5 196.5,-40.5"/>
<text text-anchor="middle" x="274" y="-47.9" font-family="Helvetica,sans-Serif" font-size="12.00">utilities::sphericalfracpoint</text>
</a>
</g>
</g>
<!-- Node1&#45;&gt;Node15 -->
<g id="edge16" class="edge">
<title>Node1&#45;&gt;Node15</title>
<path fill="none" stroke="midnightblue" d="M84.98,-160.34C102,-139.7 142.52,-94.27 187,-71 191.47,-68.66 196.21,-66.59 201.08,-64.77"/>
<polygon fill="midnightblue" stroke="midnightblue" points="202.23,-68.07 210.57,-61.54 199.97,-61.45 202.23,-68.07"/>
</g>
<!-- Node8 -->
<g id="node8" class="node">
<title>Node8</title>
<g id="a_node8"><a xlink:href="../../d9/d41/namespaceparwind.html#a7bbd86c1fc9b715f2dd8c8d340c6964c" target="_top" xlink:title="Subroutine to allocate memory for a holland structure.">
<polygon fill="white" stroke="black" points="426,-160.5 426,-181.5 566,-181.5 566,-160.5 426,-160.5"/>
<text text-anchor="middle" x="496" y="-167.9" font-family="Helvetica,sans-Serif" font-size="12.00">parwind::allochollstruct</text>
</a>
</g>
</g>
<!-- Node7&#45;&gt;Node8 -->
<g id="edge7" class="edge">
<title>Node7&#45;&gt;Node8</title>
<path fill="none" stroke="midnightblue" d="M340.07,-101.59C347.39,-104.09 354.53,-107.18 361,-111 381.6,-123.16 376.24,-139.12 397,-151 402.92,-154.39 409.34,-157.21 415.96,-159.55"/>
<polygon fill="midnightblue" stroke="midnightblue" points="415.17,-162.98 425.76,-162.66 417.28,-156.3 415.17,-162.98"/>
</g>
<!-- Node9 -->
<g id="node9" class="node">
<title>Node9</title>
<g id="a_node9"><a xlink:href="../../de/d94/namespacepahm__vortex.html#a2c7cf08c2619746ea1c60556b6487b35" target="_top" xlink:title="This subroutine calculates the intensity time change of a variable using second order mumerical accur...">
<polygon fill="white" stroke="black" points="397,-80.5 397,-101.5 595,-101.5 595,-80.5 397,-80.5"/>
<text text-anchor="middle" x="496" y="-87.9" font-family="Helvetica,sans-Serif" font-size="12.00">pahm_vortex::calcintensitychange</text>
</a>
</g>
</g>
<!-- Node7&#45;&gt;Node9 -->
<g id="edge8" class="edge">
<title>Node7&#45;&gt;Node9</title>
<path fill="none" stroke="midnightblue" d="M359.74,-91C368.54,-91 377.56,-91 386.57,-91"/>
<polygon fill="midnightblue" stroke="midnightblue" points="386.72,-94.5 396.72,-91 386.72,-87.5 386.72,-94.5"/>
</g>
<!-- Node12 -->
<g id="node12" class="node">
<title>Node12</title>
<g id="a_node12"><a xlink:href="../../d2/d96/namespaceutilities.html#a241eabd46f9d0e4a26adc221570ad79f" target="_top" xlink:title="Find the unique non&#45;blank elements in 1D character array.">
<polygon fill="white" stroke="black" points="436,-40.5 436,-61.5 556,-61.5 556,-40.5 436,-40.5"/>
<text text-anchor="middle" x="496" y="-47.9" font-family="Helvetica,sans-Serif" font-size="12.00">utilities::charunique</text>
</a>
</g>
</g>
<!-- Node7&#45;&gt;Node12 -->
<g id="edge11" class="edge">
<title>Node7&#45;&gt;Node12</title>
<path fill="none" stroke="midnightblue" d="M332.8,-80.49C361.74,-75.23 396.95,-68.83 427.16,-63.33"/>
<polygon fill="midnightblue" stroke="midnightblue" points="427.99,-66.74 437.2,-61.51 426.74,-59.85 427.99,-66.74"/>
</g>
<!-- Node13 -->
<g id="node13" class="node">
<title>Node13</title>
<g id="a_node13"><a xlink:href="../../d2/d96/namespaceutilities.html#a8dff395c74e87d059dadcf8bacdbfedd" target="_top" xlink:title="Convert a string to upper&#45;case.">
<polygon fill="white" stroke="black" points="433,-0.5 433,-21.5 559,-21.5 559,-0.5 433,-0.5"/>
<text text-anchor="middle" x="496" y="-7.9" font-family="Helvetica,sans-Serif" font-size="12.00">utilities::touppercase</text>
</a>
</g>
</g>
<!-- Node7&#45;&gt;Node13 -->
<g id="edge12" class="edge">
<title>Node7&#45;&gt;Node13</title>
<path fill="none" stroke="midnightblue" d="M340.07,-80.41C347.39,-77.91 354.53,-74.82 361,-71 381.6,-58.84 376.24,-42.88 397,-31 405.02,-26.41 413.95,-22.86 423.06,-20.12"/>
<polygon fill="midnightblue" stroke="midnightblue" points="424.22,-23.44 432.97,-17.46 422.41,-16.68 424.22,-23.44"/>
</g>
<!-- Node14 -->
<g id="node14" class="node">
<title>Node14</title>
<g id="a_node14"><a xlink:href="../../de/d94/namespacepahm__vortex.html#a68cd3f6ceb40446c3c0c6d192f8b61bb" target="_top" xlink:title="This subroutine calculates the translational velocity of a moving hurricane using second order mumeri...">
<polygon fill="white" stroke="black" points="430.5,-120.5 430.5,-141.5 561.5,-141.5 561.5,-120.5 430.5,-120.5"/>
<text text-anchor="middle" x="496" y="-127.9" font-family="Helvetica,sans-Serif" font-size="12.00">pahm_vortex::uvtrans</text>
</a>
</g>
</g>
<!-- Node7&#45;&gt;Node14 -->
<g id="edge13" class="edge">
<title>Node7&#45;&gt;Node14</title>
<path fill="none" stroke="midnightblue" d="M332.8,-101.51C361.74,-106.77 396.95,-113.17 427.16,-118.67"/>
<polygon fill="midnightblue" stroke="midnightblue" points="426.74,-122.15 437.2,-120.49 427.99,-115.26 426.74,-122.15"/>
</g>
<!-- Node10 -->
<g id="node10" class="node">
<title>Node10</title>
<g id="a_node10"><a xlink:href="../../d4/d3b/namespacepahm__messages.html#acf0c696cc1604842ee84a5df6d81179c" target="_top" xlink:title="Sets the name of the subroutine that is writing log and/or screen messages.">
<polygon fill="white" stroke="black" points="637.5,-120.5 637.5,-141.5 852.5,-141.5 852.5,-120.5 637.5,-120.5"/>
<text text-anchor="middle" x="745" y="-127.9" font-family="Helvetica,sans-Serif" font-size="12.00">pahm_messages::setmessagesource</text>
</a>
</g>
</g>
<!-- Node9&#45;&gt;Node10 -->
<g id="edge9" class="edge">
<title>Node9&#45;&gt;Node10</title>
<path fill="none" stroke="midnightblue" d="M561.9,-101.51C594.81,-106.84 634.95,-113.34 669.16,-118.88"/>
<polygon fill="midnightblue" stroke="midnightblue" points="668.68,-122.35 679.11,-120.49 669.8,-115.44 668.68,-122.35"/>
</g>
<!-- Node11 -->
<g id="node11" class="node">
<title>Node11</title>
<g id="a_node11"><a xlink:href="../../d4/d3b/namespacepahm__messages.html#ad35e9f2327aad65d4c669e3d886f54dc" target="_top" xlink:title="Removes the name of the subroutine that is no longer active.">
<polygon fill="white" stroke="black" points="631,-80.5 631,-101.5 859,-101.5 859,-80.5 631,-80.5"/>
<text text-anchor="middle" x="745" y="-87.9" font-family="Helvetica,sans-Serif" font-size="12.00">pahm_messages::unsetmessagesource</text>
</a>
</g>
</g>
<!-- Node9&#45;&gt;Node11 -->
<g id="edge10" class="edge">
<title>Node9&#45;&gt;Node11</title>
<path fill="none" stroke="midnightblue" d="M595.33,-91C603.74,-91 612.32,-91 620.89,-91"/>
<polygon fill="midnightblue" stroke="midnightblue" points="620.94,-94.5 630.94,-91 620.94,-87.5 620.94,-94.5"/>
</g>
<!-- Node14&#45;&gt;Node10 -->
<g id="edge14" class="edge">
<title>Node14&#45;&gt;Node10</title>
<path fill="none" stroke="midnightblue" d="M561.57,-131C581.74,-131 604.65,-131 627.26,-131"/>
<polygon fill="midnightblue" stroke="midnightblue" points="627.27,-134.5 637.27,-131 627.27,-127.5 627.27,-134.5"/>
</g>
<!-- Node14&#45;&gt;Node11 -->
<g id="edge15" class="edge">
<title>Node14&#45;&gt;Node11</title>
<path fill="none" stroke="midnightblue" d="M561.57,-120.54C594.49,-115.21 634.7,-108.7 668.98,-103.15"/>
<polygon fill="midnightblue" stroke="midnightblue" points="669.63,-106.59 678.95,-101.54 668.51,-99.68 669.63,-106.59"/>
</g>
</g>
</svg>
