<?xml version="1.0" encoding="UTF-8" standalone="no"?>
<!DOCTYPE svg PUBLIC "-//W3C//DTD SVG 1.1//EN"
 "http://www.w3.org/Graphics/SVG/1.1/DTD/svg11.dtd">
<!-- Generated by graphviz version 2.42.4 (0)
 -->
<!-- Title: utilities::charunique Pages: 1 -->
<svg width="875pt" height="150pt"
 viewBox="0.00 0.00 875.00 150.00" xmlns="http://www.w3.org/2000/svg" xmlns:xlink="http://www.w3.org/1999/xlink">
<g id="graph0" class="graph" transform="scale(1 1) rotate(0) translate(4 146)">
<title>utilities::charunique</title>
<polygon fill="white" stroke="transparent" points="-4,4 -4,-146 871,-146 871,4 -4,4"/>
<!-- Node1 -->
<g id="node1" class="node">
<title>Node1</title>
<g id="a_node1"><a xlink:title="Find the unique non&#45;blank elements in 1D character array.">
<polygon fill="#bfbfbf" stroke="black" points="747,-60.5 747,-81.5 867,-81.5 867,-60.5 747,-60.5"/>
<text text-anchor="middle" x="807" y="-67.9" font-family="Helvetica,sans-Serif" font-size="12.00">utilities::charunique</text>
</a>
</g>
</g>
<!-- Node2 -->
<g id="node2" class="node">
<title>Node2</title>
<g id="a_node2"><a xlink:href="../../d9/d41/namespaceparwind.html#ac27ad597b28ef7e2b0f2eba529c0c3a2" target="_top" xlink:title="Subroutine to support the asymetric vortex model(s) (Holland or otherwise).">
<polygon fill="white" stroke="black" points="487,-120.5 487,-141.5 711,-141.5 711,-120.5 487,-120.5"/>
<text text-anchor="middle" x="599" y="-127.9" font-family="Helvetica,sans-Serif" font-size="12.00">parwind::processasymmetricvortexdata</text>
</a>
</g>
</g>
<!-- Node1&#45;&gt;Node2 -->
<g id="edge1" class="edge">
<title>Node1&#45;&gt;Node2</title>
<path fill="none" stroke="midnightblue" d="M775.33,-85.95C757.02,-94.35 733.1,-104.44 711,-111 698.42,-114.73 684.83,-117.88 671.6,-120.49"/>
<polygon fill="midnightblue" stroke="midnightblue" points="777.04,-89.01 784.61,-81.61 774.07,-82.67 777.04,-89.01"/>
</g>
<!-- Node6 -->
<g id="node6" class="node">
<title>Node6</title>
<g id="a_node6"><a xlink:href="../../d9/d41/namespaceparwind.html#a6efcf8be68b268f0a6d92ceb5f8c6f41" target="_top" xlink:title="Subroutine to support the Holland model(s) (GetHollandFields).">
<polygon fill="white" stroke="black" points="513.5,-80.5 513.5,-101.5 684.5,-101.5 684.5,-80.5 513.5,-80.5"/>
<text text-anchor="middle" x="599" y="-87.9" font-family="Helvetica,sans-Serif" font-size="12.00">parwind::processhollanddata</text>
</a>
</g>
</g>
<!-- Node1&#45;&gt;Node6 -->
<g id="edge5" class="edge">
<title>Node1&#45;&gt;Node6</title>
<path fill="none" stroke="midnightblue" d="M736.77,-77.72C720.08,-79.34 702.06,-81.09 684.75,-82.77"/>
<polygon fill="midnightblue" stroke="midnightblue" points="737.35,-81.18 746.97,-76.73 736.68,-74.21 737.35,-81.18"/>
</g>
<!-- Node8 -->
<g id="node8" class="node">
<title>Node8</title>
<g id="a_node8"><a xlink:href="../../d9/d41/namespaceparwind.html#abae6c098afd2135918a478b6b7b20673" target="_top" xlink:title="Subroutine to read all a&#45;deck/b&#45;deck best track files (ATCF format).">
<polygon fill="white" stroke="black" points="521.5,-40.5 521.5,-61.5 676.5,-61.5 676.5,-40.5 521.5,-40.5"/>
<text text-anchor="middle" x="599" y="-47.9" font-family="Helvetica,sans-Serif" font-size="12.00">parwind::readbesttrackfile</text>
</a>
</g>
</g>
<!-- Node1&#45;&gt;Node8 -->
<g id="edge8" class="edge">
<title>Node1&#45;&gt;Node8</title>
<path fill="none" stroke="midnightblue" d="M736.76,-64.28C717.48,-62.41 696.42,-60.36 676.73,-58.45"/>
<polygon fill="midnightblue" stroke="midnightblue" points="736.68,-67.79 746.97,-65.27 737.35,-60.82 736.68,-67.79"/>
</g>
<!-- Node10 -->
<g id="node10" class="node">
<title>Node10</title>
<g id="a_node10"><a xlink:href="../../d9/d41/namespaceparwind.html#a75c722a5d8fdb18014543923d7e4dcca" target="_top" xlink:title="Subroutine to read all a&#45;deck/b&#45;deck best track files (ATCF format).">
<polygon fill="white" stroke="black" points="512.5,-0.5 512.5,-21.5 685.5,-21.5 685.5,-0.5 512.5,-0.5"/>
<text text-anchor="middle" x="599" y="-7.9" font-family="Helvetica,sans-Serif" font-size="12.00">parwind::readcsvbesttrackfile</text>
</a>
</g>
</g>
<!-- Node1&#45;&gt;Node10 -->
<g id="edge11" class="edge">
<title>Node1&#45;&gt;Node10</title>
<path fill="none" stroke="midnightblue" d="M775.33,-56.05C757.02,-47.65 733.1,-37.56 711,-31 698.42,-27.27 684.83,-24.12 671.6,-21.51"/>
<polygon fill="midnightblue" stroke="midnightblue" points="774.07,-59.33 784.61,-60.39 777.04,-52.99 774.07,-59.33"/>
</g>
<!-- Node3 -->
<g id="node3" class="node">
<title>Node3</title>
<g id="a_node3"><a xlink:href="../../d9/d41/namespaceparwind.html#ad79f0c20f27839cc6d7f50d7d1698b7c" target="_top" xlink:title="Calculates wind velocities and MSL pressures at the mesh nodes from the GAHM Wind model.">
<polygon fill="white" stroke="black" points="298,-120.5 298,-141.5 439,-141.5 439,-120.5 298,-120.5"/>
<text text-anchor="middle" x="368.5" y="-127.9" font-family="Helvetica,sans-Serif" font-size="12.00">parwind::getgahmfields</text>
</a>
</g>
</g>
<!-- Node2&#45;&gt;Node3 -->
<g id="edge2" class="edge">
<title>Node2&#45;&gt;Node3</title>
<path fill="none" stroke="midnightblue" d="M476.49,-131C463.71,-131 451.04,-131 439.14,-131"/>
<polygon fill="midnightblue" stroke="midnightblue" points="476.76,-134.5 486.76,-131 476.76,-127.5 476.76,-134.5"/>
</g>
<!-- Node4 -->
<g id="node4" class="node">
<title>Node4</title>
<g id="a_node4"><a xlink:href="../../de/d07/namespacepahm__drivermod.html#a7ae4571521a5bb4eb55990dd7fb76237" target="_top" xlink:title="Subroutine to run PaHM (timestepping).">
<polygon fill="white" stroke="black" points="83,-80.5 83,-101.5 250,-101.5 250,-80.5 83,-80.5"/>
<text text-anchor="middle" x="166.5" y="-87.9" font-family="Helvetica,sans-Serif" font-size="12.00">pahm_drivermod::pahm_run</text>
</a>
</g>
</g>
<!-- Node3&#45;&gt;Node4 -->
<g id="edge3" class="edge">
<title>Node3&#45;&gt;Node4</title>
<path fill="none" stroke="midnightblue" d="M305.11,-118.52C277.8,-113.06 246.12,-106.72 220.04,-101.51"/>
<polygon fill="midnightblue" stroke="midnightblue" points="304.46,-121.96 314.95,-120.49 305.83,-115.1 304.46,-121.96"/>
</g>
<!-- Node5 -->
<g id="node5" class="node">
<title>Node5</title>
<g id="a_node5"><a xlink:href="../../d9/d8a/pahm_8F90.html#a3d3918f5c5f1ac0a7991a7a78f530f30" target="_top" xlink:title=" ">
<polygon fill="white" stroke="black" points="0,-60.5 0,-81.5 47,-81.5 47,-60.5 0,-60.5"/>
<text text-anchor="middle" x="23.5" y="-67.9" font-family="Helvetica,sans-Serif" font-size="12.00">pahm</text>
</a>
</g>
</g>
<!-- Node4&#45;&gt;Node5 -->
<g id="edge4" class="edge">
<title>Node4&#45;&gt;Node5</title>
<path fill="none" stroke="midnightblue" d="M81.19,-79.04C68.72,-77.27 56.86,-75.59 47.23,-74.22"/>
<polygon fill="midnightblue" stroke="midnightblue" points="80.89,-82.53 91.28,-80.47 81.87,-75.6 80.89,-82.53"/>
</g>
<!-- Node7 -->
<g id="node7" class="node">
<title>Node7</title>
<g id="a_node7"><a xlink:href="../../d9/d41/namespaceparwind.html#ad2cf2a3c40591a24959e6dd126066294" target="_top" xlink:title="Calculates wind velocities and MSL pressures at the mesh nodes from the P&#45;W Holland Wind model.">
<polygon fill="white" stroke="black" points="293,-80.5 293,-101.5 444,-101.5 444,-80.5 293,-80.5"/>
<text text-anchor="middle" x="368.5" y="-87.9" font-family="Helvetica,sans-Serif" font-size="12.00">parwind::gethollandfields</text>
</a>
</g>
</g>
<!-- Node6&#45;&gt;Node7 -->
<g id="edge6" class="edge">
<title>Node6&#45;&gt;Node7</title>
<path fill="none" stroke="midnightblue" d="M503.08,-91C483.48,-91 463.1,-91 444.34,-91"/>
<polygon fill="midnightblue" stroke="midnightblue" points="503.24,-94.5 513.24,-91 503.24,-87.5 503.24,-94.5"/>
</g>
<!-- Node7&#45;&gt;Node4 -->
<g id="edge7" class="edge">
<title>Node7&#45;&gt;Node4</title>
<path fill="none" stroke="midnightblue" d="M282.56,-91C271.85,-91 260.9,-91 250.22,-91"/>
<polygon fill="midnightblue" stroke="midnightblue" points="282.74,-94.5 292.74,-91 282.74,-87.5 282.74,-94.5"/>
</g>
<!-- Node9 -->
<g id="node9" class="node">
<title>Node9</title>
<g id="a_node9"><a xlink:href="../../de/d07/namespacepahm__drivermod.html#ae0d4b223a96ba116b38152caf6b0768c" target="_top" xlink:title="Subroutine to initialize a PaHM run.">
<polygon fill="white" stroke="black" points="286,-40.5 286,-61.5 451,-61.5 451,-40.5 286,-40.5"/>
<text text-anchor="middle" x="368.5" y="-47.9" font-family="Helvetica,sans-Serif" font-size="12.00">pahm_drivermod::pahm_init</text>
</a>
</g>
</g>
<!-- Node8&#45;&gt;Node9 -->
<g id="edge9" class="edge">
<title>Node8&#45;&gt;Node9</title>
<path fill="none" stroke="midnightblue" d="M511.1,-51C491.41,-51 470.57,-51 451.11,-51"/>
<polygon fill="midnightblue" stroke="midnightblue" points="511.28,-54.5 521.28,-51 511.28,-47.5 511.28,-54.5"/>
</g>
<!-- Node9&#45;&gt;Node5 -->
<g id="edge10" class="edge">
<title>Node9&#45;&gt;Node5</title>
<path fill="none" stroke="midnightblue" d="M275.53,-56.36C198.15,-60.87 93.02,-67 47.3,-69.67"/>
<polygon fill="midnightblue" stroke="midnightblue" points="276,-59.84 285.78,-55.77 275.59,-52.85 276,-59.84"/>
</g>
<!-- Node10&#45;&gt;Node9 -->
<g id="edge12" class="edge">
<title>Node10&#45;&gt;Node9</title>
<path fill="none" stroke="midnightblue" d="M527.95,-23.26C496.48,-28.77 459.72,-35.21 429.53,-40.49"/>
<polygon fill="midnightblue" stroke="midnightblue" points="528.72,-26.68 537.96,-21.51 527.51,-19.79 528.72,-26.68"/>
</g>
</g>
</svg>
