<?xml version="1.0" encoding="UTF-8" standalone="no"?>
<!DOCTYPE svg PUBLIC "-//W3C//DTD SVG 1.1//EN"
 "http://www.w3.org/Graphics/SVG/1.1/DTD/svg11.dtd">
<!-- Generated by graphviz version 2.42.4 (0)
 -->
<!-- Title: utilities::readcontrolfile Pages: 1 -->
<!--zoomable 430 -->
<svg id="main" version="1.1" xmlns="http://www.w3.org/2000/svg" xmlns:xlink="http://www.w3.org/1999/xlink" xml:space="preserve" onload="init(evt)">
<style type="text/css"><![CDATA[
.edge:hover path { stroke: red; }
.edge:hover polygon { stroke: red; fill: red; }
]]></style>
<script type="text/javascript"><![CDATA[
var edges = document.getElementsByTagName('g');
if (edges && edges.length) {
  for (var i=0;i<edges.length;i++) {
    if (edges[i].id.substr(0,4)=='edge') {
      edges[i].setAttribute('class','edge');
    }
  }
}
]]></script>
        <defs>
                <circle id="rim" cx="0" cy="0" r="7"/>
                <circle id="rim2" cx="0" cy="0" r="3.5"/>
                <g id="zoomPlus">
                        <use xlink:href="#rim" fill="#404040">
                                <set attributeName="fill" to="#808080" begin="zoomplus.mouseover" end="zoomplus.mouseout"/>
                        </use>
                        <path d="M-4,0h8M0,-4v8" fill="none" stroke="white" stroke-width="1.5" pointer-events="none"/>
                </g>
                <g id="zoomMin">
                        <use xlink:href="#rim" fill="#404040">
                                <set attributeName="fill" to="#808080" begin="zoomminus.mouseover" end="zoomminus.mouseout"/>
                        </use>
                        <path d="M-4,0h8" fill="none" stroke="white" stroke-width="1.5" pointer-events="none"/>
                </g>
                <g id="dirArrow">
                        <path fill="none" stroke="white" stroke-width="1.5" d="M0,-3.0v7 M-2.5,-0.5L0,-3.0L2.5,-0.5"/>
                </g>
               <g id="resetDef">
                       <use xlink:href="#rim2" fill="#404040">
                               <set attributeName="fill" to="#808080" begin="reset.mouseover" end="reset.mouseout"/>
                       </use>
               </g>
        </defs>

<script type="text/javascript">
var viewWidth = 751;
var viewHeight = 430;
var sectionId = 'dynsection-19';
</script>
<script xlink:href="../../svgpan.js"/>
<svg id="graph" class="graph">
<g id="viewport">
<title>utilities::readcontrolfile</title>
<polygon fill="white" stroke="transparent" points="-4,4 -4,-426.05 747,-426.05 747,4 -4,4"/>
<!-- Node1 -->
<g id="node1" class="node">
<title>Node1</title>
<g id="a_node1"><a xlink:title="This subroutine reads the program&#39;s main control file.">
<polygon fill="#bfbfbf" stroke="black" points="0,-200.5 0,-221.5 136,-221.5 136,-200.5 0,-200.5"/>
<text text-anchor="middle" x="68" y="-207.9" font-family="Helvetica,sans-Serif" font-size="12.00">utilities::readcontrolfile</text>
</a>
</g>
</g>
<!-- Node2 -->
<g id="node2" class="node">
<title>Node2</title>
<g id="a_node2"><a xlink:href="../../d2/d96/namespaceutilities.html#a1e2f2593103f415e1c073284ff95a83f" target="_top" xlink:title="Checks the user defined control file inputs.">
<polygon fill="white" stroke="black" points="191.5,-316.5 191.5,-337.5 367.5,-337.5 367.5,-316.5 191.5,-316.5"/>
<text text-anchor="middle" x="279.5" y="-323.9" font-family="Helvetica,sans-Serif" font-size="12.00">utilities::checkcontrolfileinputs</text>
</a>
</g>
</g>
<!-- Node1&#45;&gt;Node2 -->
<g id="edge1" class="edge">
<title>Node1&#45;&gt;Node2</title>
<path fill="none" stroke="midnightblue" d="M77.72,-221.57C94.11,-240.72 131.51,-281.07 172,-302 181.14,-306.73 191.18,-310.57 201.34,-313.7"/>
<polygon fill="midnightblue" stroke="midnightblue" points="200.5,-317.1 211.08,-316.48 202.42,-310.37 200.5,-317.1"/>
</g>
<!-- Node3 -->
<g id="node3" class="node">
<title>Node3</title>
<g id="a_node3"><a xlink:href="../../d4/d19/namespacetimedateutils.html#a6c7acacb9981bb9182378a449e45715b" target="_top" xlink:title="Calculates the conversion factor between time units and seconds.">
<polygon fill="white" stroke="black" points="423,-353.5 423,-374.5 597,-374.5 597,-353.5 423,-353.5"/>
<text text-anchor="middle" x="510" y="-360.9" font-family="Helvetica,sans-Serif" font-size="12.00">timedateutils::gettimeconvsec</text>
</a>
</g>
</g>
<!-- Node1&#45;&gt;Node3 -->
<g id="edge8" class="edge">
<title>Node1&#45;&gt;Node3</title>
<path fill="none" stroke="midnightblue" d="M73.24,-221.66C84.57,-248.48 118.33,-318.61 172,-347 258,-392.49 374.26,-386.11 445.31,-376.02"/>
<polygon fill="midnightblue" stroke="midnightblue" points="446.08,-379.44 455.46,-374.51 445.05,-372.52 446.08,-379.44"/>
</g>
<!-- Node5 -->
<g id="node5" class="node">
<title>Node5</title>
<g id="a_node5"><a xlink:href="../../d4/d19/namespacetimedateutils.html#a393203cc78370648d0dd392fe96d66ff" target="_top" xlink:title="Pre&#45;processes an arbitrary date string.">
<polygon fill="white" stroke="black" points="443.5,-297.5 443.5,-318.5 576.5,-318.5 576.5,-297.5 443.5,-297.5"/>
<text text-anchor="middle" x="510" y="-304.9" font-family="Helvetica,sans-Serif" font-size="12.00">timedateutils::joindate</text>
</a>
</g>
</g>
<!-- Node1&#45;&gt;Node5 -->
<g id="edge9" class="edge">
<title>Node1&#45;&gt;Node5</title>
<path fill="none" stroke="midnightblue" d="M90.99,-221.67C111.51,-231.2 143.19,-244.89 172,-253 259.93,-277.76 364.1,-292.64 433.11,-300.56"/>
<polygon fill="midnightblue" stroke="midnightblue" points="433.12,-304.09 443.45,-301.73 433.9,-297.13 433.12,-304.09"/>
</g>
<!-- Node6 -->
<g id="node6" class="node">
<title>Node6</title>
<g id="a_node6"><a xlink:href="../../d2/d96/namespaceutilities.html#a8dff395c74e87d059dadcf8bacdbfedd" target="_top" xlink:title="Convert a string to upper&#45;case.">
<polygon fill="white" stroke="black" points="447,-240.5 447,-261.5 573,-261.5 573,-240.5 447,-240.5"/>
<text text-anchor="middle" x="510" y="-247.9" font-family="Helvetica,sans-Serif" font-size="12.00">utilities::touppercase</text>
</a>
</g>
</g>
<!-- Node1&#45;&gt;Node6 -->
<g id="edge19" class="edge">
<title>Node1&#45;&gt;Node6</title>
<path fill="none" stroke="midnightblue" d="M116.22,-221.53C133.67,-225.06 153.66,-228.69 172,-231 262.85,-242.46 368.32,-247.38 436.73,-249.48"/>
<polygon fill="midnightblue" stroke="midnightblue" points="436.87,-252.98 446.97,-249.78 437.08,-245.99 436.87,-252.98"/>
</g>
<!-- Node7 -->
<g id="node7" class="node">
<title>Node7</title>
<g id="a_node7"><a xlink:href="../../d4/d19/namespacetimedateutils.html#a565d549493d69e2c9ea5b7af18247df5" target="_top" xlink:title="Constructs a NetCDF time string.">
<polygon fill="white" stroke="black" points="424,-393.5 424,-414.5 596,-414.5 596,-393.5 424,-393.5"/>
<text text-anchor="middle" x="510" y="-400.9" font-family="Helvetica,sans-Serif" font-size="12.00">timedateutils::datetime2string</text>
</a>
</g>
</g>
<!-- Node1&#45;&gt;Node7 -->
<g id="edge6" class="edge">
<title>Node1&#45;&gt;Node7</title>
<path fill="none" stroke="midnightblue" d="M71.84,-221.7C80.64,-252.51 110.65,-341.61 172,-379 254.48,-429.28 370.27,-425.22 442.4,-415.93"/>
<polygon fill="midnightblue" stroke="midnightblue" points="443.28,-419.34 452.72,-414.52 442.34,-412.4 443.28,-419.34"/>
</g>
<!-- Node8 -->
<g id="node8" class="node">
<title>Node8</title>
<g id="a_node8"><a xlink:href="../../d4/d19/namespacetimedateutils.html#abc63ac16baec18b6c9bb2ee6e0400a63" target="_top" xlink:title="Determines the Julian date from a Gregorian date.">
<polygon fill="white" stroke="black" points="202,-160.5 202,-181.5 357,-181.5 357,-160.5 202,-160.5"/>
<text text-anchor="middle" x="279.5" y="-167.9" font-family="Helvetica,sans-Serif" font-size="12.00">timedateutils::juldaytogreg</text>
</a>
</g>
</g>
<!-- Node1&#45;&gt;Node8 -->
<g id="edge10" class="edge">
<title>Node1&#45;&gt;Node8</title>
<path fill="none" stroke="midnightblue" d="M122.98,-200.45C138.77,-197.39 156.08,-194.04 172,-191 184.96,-188.53 198.81,-185.91 212.09,-183.41"/>
<polygon fill="midnightblue" stroke="midnightblue" points="212.93,-186.81 222.11,-181.52 211.64,-179.93 212.93,-186.81"/>
</g>
<!-- Node9 -->
<g id="node9" class="node">
<title>Node9</title>
<g id="a_node9"><a xlink:href="../../d2/d96/namespaceutilities.html#a062355064a86a716b2ddff1aa0cd3fb4" target="_top" xlink:title="This function loads input values into a requested model integer variable.">
<polygon fill="white" stroke="black" points="223,-120.5 223,-141.5 336,-141.5 336,-120.5 223,-120.5"/>
<text text-anchor="middle" x="279.5" y="-127.9" font-family="Helvetica,sans-Serif" font-size="12.00">utilities::loadintvar</text>
</a>
</g>
</g>
<!-- Node1&#45;&gt;Node9 -->
<g id="edge11" class="edge">
<title>Node1&#45;&gt;Node9</title>
<path fill="none" stroke="midnightblue" d="M83.55,-200.34C102.8,-186.77 138.26,-163.57 172,-151 184.91,-146.19 199.15,-142.5 212.9,-139.67"/>
<polygon fill="midnightblue" stroke="midnightblue" points="213.64,-143.1 222.8,-137.77 212.32,-136.22 213.64,-143.1"/>
</g>
<!-- Node10 -->
<g id="node10" class="node">
<title>Node10</title>
<g id="a_node10"><a xlink:href="../../d2/d96/namespaceutilities.html#a4a70a4be51dcd79bc46b6cfcb2d2ac0a" target="_top" xlink:title="This function loads input values into a requested model real variable.">
<polygon fill="white" stroke="black" points="219.5,-80.5 219.5,-101.5 339.5,-101.5 339.5,-80.5 219.5,-80.5"/>
<text text-anchor="middle" x="279.5" y="-87.9" font-family="Helvetica,sans-Serif" font-size="12.00">utilities::loadrealvar</text>
</a>
</g>
</g>
<!-- Node1&#45;&gt;Node10 -->
<g id="edge12" class="edge">
<title>Node1&#45;&gt;Node10</title>
<path fill="none" stroke="midnightblue" d="M76.41,-200.48C91.67,-179.68 128.85,-133.36 172,-111 183.51,-105.03 196.55,-100.83 209.45,-97.87"/>
<polygon fill="midnightblue" stroke="midnightblue" points="210.18,-101.3 219.26,-95.85 208.76,-94.44 210.18,-101.3"/>
</g>
<!-- Node11 -->
<g id="node11" class="node">
<title>Node11</title>
<g id="a_node11"><a xlink:href="../../d2/d96/namespaceutilities.html#ab30d13ba0fcebcb933a30be2237ec162" target="_top" xlink:title="This function parses lines of text from input script/control files.">
<polygon fill="white" stroke="black" points="224.5,-200.5 224.5,-221.5 334.5,-221.5 334.5,-200.5 224.5,-200.5"/>
<text text-anchor="middle" x="279.5" y="-207.9" font-family="Helvetica,sans-Serif" font-size="12.00">utilities::parseline</text>
</a>
</g>
</g>
<!-- Node1&#45;&gt;Node11 -->
<g id="edge13" class="edge">
<title>Node1&#45;&gt;Node11</title>
<path fill="none" stroke="midnightblue" d="M136.15,-211C161.19,-211 189.53,-211 214.29,-211"/>
<polygon fill="midnightblue" stroke="midnightblue" points="214.3,-214.5 224.3,-211 214.3,-207.5 214.3,-214.5"/>
</g>
<!-- Node13 -->
<g id="node13" class="node">
<title>Node13</title>
<g id="a_node13"><a xlink:href="../../d2/d96/namespaceutilities.html#a57953a3306e17ea2e28254e3d2091516" target="_top" xlink:title="This subroutine prints on the screen the values of the program&#39;s parameters.">
<polygon fill="white" stroke="black" points="201.5,-40.5 201.5,-61.5 357.5,-61.5 357.5,-40.5 201.5,-40.5"/>
<text text-anchor="middle" x="279.5" y="-47.9" font-family="Helvetica,sans-Serif" font-size="12.00">utilities::printmodelparams</text>
</a>
</g>
</g>
<!-- Node1&#45;&gt;Node13 -->
<g id="edge16" class="edge">
<title>Node1&#45;&gt;Node13</title>
<path fill="none" stroke="midnightblue" d="M73.4,-200.46C85.08,-173.89 119.63,-103.91 172,-71 178.13,-67.15 184.83,-64 191.78,-61.43"/>
<polygon fill="midnightblue" stroke="midnightblue" points="192.98,-64.72 201.39,-58.28 190.8,-58.07 192.98,-64.72"/>
</g>
<!-- Node15 -->
<g id="node15" class="node">
<title>Node15</title>
<g id="a_node15"><a xlink:href="../../d4/d3b/namespacepahm__messages.html#acf0c696cc1604842ee84a5df6d81179c" target="_top" xlink:title="Sets the name of the subroutine that is writing log and/or screen messages.">
<polygon fill="white" stroke="black" points="172,-0.5 172,-21.5 387,-21.5 387,-0.5 172,-0.5"/>
<text text-anchor="middle" x="279.5" y="-7.9" font-family="Helvetica,sans-Serif" font-size="12.00">pahm_messages::setmessagesource</text>
</a>
</g>
</g>
<!-- Node1&#45;&gt;Node15 -->
<g id="edge18" class="edge">
<title>Node1&#45;&gt;Node15</title>
<path fill="none" stroke="midnightblue" d="M71.69,-200.35C80.27,-168.76 110.1,-75.04 172,-31 174.56,-29.18 177.24,-27.51 180.02,-25.98"/>
<polygon fill="midnightblue" stroke="midnightblue" points="181.68,-29.06 189.16,-21.56 178.63,-22.76 181.68,-29.06"/>
</g>
<!-- Node2&#45;&gt;Node3 -->
<g id="edge2" class="edge">
<title>Node2&#45;&gt;Node3</title>
<path fill="none" stroke="midnightblue" d="M345.37,-337.5C372.99,-341.98 405.37,-347.22 434.01,-351.86"/>
<polygon fill="midnightblue" stroke="midnightblue" points="433.54,-355.33 443.97,-353.47 434.66,-348.42 433.54,-355.33"/>
</g>
<!-- Node2&#45;&gt;Node5 -->
<g id="edge4" class="edge">
<title>Node2&#45;&gt;Node5</title>
<path fill="none" stroke="midnightblue" d="M367.54,-319.76C389.11,-317.97 412.05,-316.06 433.04,-314.32"/>
<polygon fill="midnightblue" stroke="midnightblue" points="433.5,-317.79 443.18,-313.47 432.92,-310.81 433.5,-317.79"/>
</g>
<!-- Node2&#45;&gt;Node6 -->
<g id="edge5" class="edge">
<title>Node2&#45;&gt;Node6</title>
<path fill="none" stroke="midnightblue" d="M312.27,-316.43C352.74,-302.97 422.78,-279.68 467.45,-264.82"/>
<polygon fill="midnightblue" stroke="midnightblue" points="468.75,-268.08 477.13,-261.6 466.54,-261.43 468.75,-268.08"/>
</g>
<!-- Node4 -->
<g id="node4" class="node">
<title>Node4</title>
<g id="a_node4"><a xlink:href="../../d4/d19/namespacetimedateutils.html#a09a914846a02d3d430348f83c67d58b5" target="_top" xlink:title="Convert a string to upper&#45;case.">
<polygon fill="white" stroke="black" points="633,-373.5 633,-394.5 743,-394.5 743,-373.5 633,-373.5"/>
<text text-anchor="middle" x="688" y="-380.9" font-family="Helvetica,sans-Serif" font-size="12.00">timedateutils::upp</text>
</a>
</g>
</g>
<!-- Node3&#45;&gt;Node4 -->
<g id="edge3" class="edge">
<title>Node3&#45;&gt;Node4</title>
<path fill="none" stroke="midnightblue" d="M597.2,-373.79C605.86,-374.78 614.56,-375.77 622.94,-376.72"/>
<polygon fill="midnightblue" stroke="midnightblue" points="622.65,-380.21 632.98,-377.86 623.44,-373.25 622.65,-380.21"/>
</g>
<!-- Node7&#45;&gt;Node4 -->
<g id="edge7" class="edge">
<title>Node7&#45;&gt;Node4</title>
<path fill="none" stroke="midnightblue" d="M596.16,-394.32C605.12,-393.3 614.11,-392.28 622.78,-391.3"/>
<polygon fill="midnightblue" stroke="midnightblue" points="623.23,-394.77 632.77,-390.16 622.44,-387.81 623.23,-394.77"/>
</g>
<!-- Node11&#45;&gt;Node6 -->
<g id="edge15" class="edge">
<title>Node11&#45;&gt;Node6</title>
<path fill="none" stroke="midnightblue" d="M334.65,-220.48C365.75,-225.92 405.15,-232.82 438.62,-238.68"/>
<polygon fill="midnightblue" stroke="midnightblue" points="438.35,-242.19 448.81,-240.46 439.56,-235.29 438.35,-242.19"/>
</g>
<!-- Node12 -->
<g id="node12" class="node">
<title>Node12</title>
<g id="a_node12"><a xlink:href="../../d2/d96/namespaceutilities.html#a8723656afba63e33ed1c6cc8e5440b63" target="_top" xlink:title="Gets a line from a file.">
<polygon fill="white" stroke="black" points="445,-200.5 445,-221.5 575,-221.5 575,-200.5 445,-200.5"/>
<text text-anchor="middle" x="510" y="-207.9" font-family="Helvetica,sans-Serif" font-size="12.00">utilities::getlinerecord</text>
</a>
</g>
</g>
<!-- Node11&#45;&gt;Node12 -->
<g id="edge14" class="edge">
<title>Node11&#45;&gt;Node12</title>
<path fill="none" stroke="midnightblue" d="M334.65,-211C364.42,-211 401.81,-211 434.31,-211"/>
<polygon fill="midnightblue" stroke="midnightblue" points="434.68,-214.5 444.68,-211 434.68,-207.5 434.68,-214.5"/>
</g>
<!-- Node14 -->
<g id="node14" class="node">
<title>Node14</title>
<g id="a_node14"><a xlink:href="../../d2/d96/namespaceutilities.html#a376978b945cbdf5d33ff8bf905d19866" target="_top" xlink:title="Convert a string to lower&#45;case.">
<polygon fill="white" stroke="black" points="448,-40.5 448,-61.5 572,-61.5 572,-40.5 448,-40.5"/>
<text text-anchor="middle" x="510" y="-47.9" font-family="Helvetica,sans-Serif" font-size="12.00">utilities::tolowercase</text>
</a>
</g>
</g>
<!-- Node13&#45;&gt;Node14 -->
<g id="edge17" class="edge">
<title>Node13&#45;&gt;Node14</title>
<path fill="none" stroke="midnightblue" d="M357.54,-51C383.39,-51 412.09,-51 437.5,-51"/>
<polygon fill="midnightblue" stroke="midnightblue" points="437.8,-54.5 447.8,-51 437.8,-47.5 437.8,-54.5"/>
</g>
</g>
</svg>
        <g id="navigator" transform="translate(0 0)" fill="#404254">
                <rect fill="#f2f5e9" fill-opacity="0.5" stroke="#606060" stroke-width=".5" x="0" y="0" width="60" height="60"/>
                <use id="zoomplus" xlink:href="#zoomPlus" x="17" y="9" onmousedown="handleZoom(evt,'in')"/>
                <use id="zoomminus" xlink:href="#zoomMin" x="42" y="9" onmousedown="handleZoom(evt,'out')"/>
                <use id="reset" xlink:href="#resetDef" x="30" y="36" onmousedown="handleReset()"/>
                <g id="arrowUp" xlink:href="#dirArrow" transform="translate(30 24)" onmousedown="handlePan(0,-1)">
                  <use xlink:href="#rim" fill="#404040">
                        <set attributeName="fill" to="#808080" begin="arrowUp.mouseover" end="arrowUp.mouseout"/>
                  </use>
                  <path fill="none" stroke="white" stroke-width="1.5" d="M0,-3.0v7 M-2.5,-0.5L0,-3.0L2.5,-0.5"/>
                </g>
                <g id="arrowRight" xlink:href="#dirArrow" transform="rotate(90) translate(36 -43)" onmousedown="handlePan(1,0)">
                  <use xlink:href="#rim" fill="#404040">
                        <set attributeName="fill" to="#808080" begin="arrowRight.mouseover" end="arrowRight.mouseout"/>
                  </use>
                  <path fill="none" stroke="white" stroke-width="1.5" d="M0,-3.0v7 M-2.5,-0.5L0,-3.0L2.5,-0.5"/>
                </g>
                <g id="arrowDown" xlink:href="#dirArrow" transform="rotate(180) translate(-30 -48)" onmousedown="handlePan(0,1)">
                  <use xlink:href="#rim" fill="#404040">
                        <set attributeName="fill" to="#808080" begin="arrowDown.mouseover" end="arrowDown.mouseout"/>
                  </use>
                  <path fill="none" stroke="white" stroke-width="1.5" d="M0,-3.0v7 M-2.5,-0.5L0,-3.0L2.5,-0.5"/>
                </g>
                <g id="arrowLeft" xlink:href="#dirArrow" transform="rotate(270) translate(-36 17)" onmousedown="handlePan(-1,0)">
                  <use xlink:href="#rim" fill="#404040">
                        <set attributeName="fill" to="#808080" begin="arrowLeft.mouseover" end="arrowLeft.mouseout"/>
                  </use>
                  <path fill="none" stroke="white" stroke-width="1.5" d="M0,-3.0v7 M-2.5,-0.5L0,-3.0L2.5,-0.5"/>
                </g>
        </g>
        <svg viewBox="0 0 15 15" width="100%" height="30px" preserveAspectRatio="xMaxYMin meet">
         <g id="arrow_out" transform="scale(0.3 0.3)">
          <a xlink:href="namespaceutilities_ab095172ef12ae151ab5c9aacf82f4dc6_cgraph_org.svg" target="_base">
           <rect id="button" ry="5" rx="5" y="6" x="6" height="38" width="38"
                fill="#f2f5e9" fill-opacity="0.5" stroke="#606060" stroke-width="1.0"/>
           <path id="arrow"
             d="M 11.500037,31.436501 C 11.940474,20.09759 22.043105,11.32322 32.158766,21.979434 L 37.068811,17.246167 C 37.068811,17.246167 37.088388,32 37.088388,32 L 22.160133,31.978069 C 22.160133,31.978069 26.997745,27.140456 26.997745,27.140456 C 18.528582,18.264221 13.291696,25.230495 11.500037,31.436501 z"
             style="fill:#404040;"/>
          </a>
         </g>
        </svg>
</svg>
