<?xml version="1.0" encoding="UTF-8" standalone="no"?>
<!DOCTYPE svg PUBLIC "-//W3C//DTD SVG 1.1//EN"
 "http://www.w3.org/Graphics/SVG/1.1/DTD/svg11.dtd">
<!-- Generated by graphviz version 2.42.4 (0)
 -->
<!-- Title: utilities::getlocandratio Pages: 1 -->
<svg width="617pt" height="70pt"
 viewBox="0.00 0.00 617.00 70.00" xmlns="http://www.w3.org/2000/svg" xmlns:xlink="http://www.w3.org/1999/xlink">
<g id="graph0" class="graph" transform="scale(1 1) rotate(0) translate(4 66)">
<title>utilities::getlocandratio</title>
<polygon fill="white" stroke="transparent" points="-4,4 -4,-66 613,-66 613,4 -4,4"/>
<!-- Node1 -->
<g id="node1" class="node">
<title>Node1</title>
<g id="a_node1"><a xlink:title="Calculates the location of a value in an 1D array of values.">
<polygon fill="#bfbfbf" stroke="black" points="473,-20.5 473,-41.5 609,-41.5 609,-20.5 473,-20.5"/>
<text text-anchor="middle" x="541" y="-27.9" font-family="Helvetica,sans-Serif" font-size="12.00">utilities::getlocandratio</text>
</a>
</g>
</g>
<!-- Node2 -->
<g id="node2" class="node">
<title>Node2</title>
<g id="a_node2"><a xlink:href="../../d9/d41/namespaceparwind.html#ad79f0c20f27839cc6d7f50d7d1698b7c" target="_top" xlink:title="Calculates wind velocities and MSL pressures at the mesh nodes from the GAHM Wind model.">
<polygon fill="white" stroke="black" points="291,-40.5 291,-61.5 432,-61.5 432,-40.5 291,-40.5"/>
<text text-anchor="middle" x="361.5" y="-47.9" font-family="Helvetica,sans-Serif" font-size="12.00">parwind::getgahmfields</text>
</a>
</g>
</g>
<!-- Node1&#45;&gt;Node2 -->
<g id="edge1" class="edge">
<title>Node1&#45;&gt;Node2</title>
<path fill="none" stroke="midnightblue" d="M462.77,-39.7C452.56,-40.85 442.14,-42.03 432.06,-43.16"/>
<polygon fill="midnightblue" stroke="midnightblue" points="463.35,-43.16 472.89,-38.56 462.57,-36.2 463.35,-43.16"/>
</g>
<!-- Node5 -->
<g id="node5" class="node">
<title>Node5</title>
<g id="a_node5"><a xlink:href="../../d9/d41/namespaceparwind.html#ad2cf2a3c40591a24959e6dd126066294" target="_top" xlink:title="Calculates wind velocities and MSL pressures at the mesh nodes from the P&#45;W Holland Wind model.">
<polygon fill="white" stroke="black" points="286,-0.5 286,-21.5 437,-21.5 437,-0.5 286,-0.5"/>
<text text-anchor="middle" x="361.5" y="-7.9" font-family="Helvetica,sans-Serif" font-size="12.00">parwind::gethollandfields</text>
</a>
</g>
</g>
<!-- Node1&#45;&gt;Node5 -->
<g id="edge4" class="edge">
<title>Node1&#45;&gt;Node5</title>
<path fill="none" stroke="midnightblue" d="M462.93,-22.32C454.37,-21.35 445.66,-20.37 437.13,-19.41"/>
<polygon fill="midnightblue" stroke="midnightblue" points="462.57,-25.8 472.89,-23.44 463.35,-18.84 462.57,-25.8"/>
</g>
<!-- Node3 -->
<g id="node3" class="node">
<title>Node3</title>
<g id="a_node3"><a xlink:href="../../de/d07/namespacepahm__drivermod.html#a7ae4571521a5bb4eb55990dd7fb76237" target="_top" xlink:title="Subroutine to run PaHM (timestepping).">
<polygon fill="white" stroke="black" points="83,-20.5 83,-41.5 250,-41.5 250,-20.5 83,-20.5"/>
<text text-anchor="middle" x="166.5" y="-27.9" font-family="Helvetica,sans-Serif" font-size="12.00">pahm_drivermod::pahm_run</text>
</a>
</g>
</g>
<!-- Node2&#45;&gt;Node3 -->
<g id="edge2" class="edge">
<title>Node2&#45;&gt;Node3</title>
<path fill="none" stroke="midnightblue" d="M280.82,-42.74C270.72,-41.7 260.37,-40.62 250.22,-39.57"/>
<polygon fill="midnightblue" stroke="midnightblue" points="280.52,-46.23 290.82,-43.78 281.24,-39.27 280.52,-46.23"/>
</g>
<!-- Node4 -->
<g id="node4" class="node">
<title>Node4</title>
<g id="a_node4"><a xlink:href="../../d9/d8a/pahm_8F90.html#a3d3918f5c5f1ac0a7991a7a78f530f30" target="_top" xlink:title=" ">
<polygon fill="white" stroke="black" points="0,-20.5 0,-41.5 47,-41.5 47,-20.5 0,-20.5"/>
<text text-anchor="middle" x="23.5" y="-27.9" font-family="Helvetica,sans-Serif" font-size="12.00">pahm</text>
</a>
</g>
</g>
<!-- Node3&#45;&gt;Node4 -->
<g id="edge3" class="edge">
<title>Node3&#45;&gt;Node4</title>
<path fill="none" stroke="midnightblue" d="M72.41,-31C63.14,-31 54.45,-31 47.08,-31"/>
<polygon fill="midnightblue" stroke="midnightblue" points="72.66,-34.5 82.66,-31 72.66,-27.5 72.66,-34.5"/>
</g>
<!-- Node5&#45;&gt;Node3 -->
<g id="edge5" class="edge">
<title>Node5&#45;&gt;Node3</title>
<path fill="none" stroke="midnightblue" d="M275.67,-19.79C267.23,-20.67 258.67,-21.55 250.26,-22.42"/>
<polygon fill="midnightblue" stroke="midnightblue" points="276.3,-23.24 285.88,-18.73 275.57,-16.28 276.3,-23.24"/>
</g>
</g>
</svg>
