<?xml version="1.0" encoding="UTF-8" standalone="no"?>
<!DOCTYPE svg PUBLIC "-//W3C//DTD SVG 1.1//EN"
 "http://www.w3.org/Graphics/SVG/1.1/DTD/svg11.dtd">
<!-- Generated by graphviz version 2.42.4 (0)
 -->
<!-- Title: csv_module::get_header_str Pages: 1 -->
<svg width="439pt" height="70pt"
 viewBox="0.00 0.00 439.00 70.00" xmlns="http://www.w3.org/2000/svg" xmlns:xlink="http://www.w3.org/1999/xlink">
<g id="graph0" class="graph" transform="scale(1 1) rotate(0) translate(4 66)">
<title>csv_module::get_header_str</title>
<polygon fill="white" stroke="transparent" points="-4,4 -4,-66 435,-66 435,4 -4,4"/>
<!-- Node1 -->
<g id="node1" class="node">
<title>Node1</title>
<g id="a_node1"><a xlink:title="Returns the header as a &#39;character(len=*)&#39; array.">
<polygon fill="#bfbfbf" stroke="black" points="0,-20.5 0,-41.5 167,-41.5 167,-20.5 0,-20.5"/>
<text text-anchor="middle" x="83.5" y="-27.9" font-family="Helvetica,sans-Serif" font-size="12.00">csv_module::get_header_str</text>
</a>
</g>
</g>
<!-- Node2 -->
<g id="node2" class="node">
<title>Node2</title>
<g id="a_node2"><a xlink:href="../../d4/d3b/namespacepahm__messages.html#acf0c696cc1604842ee84a5df6d81179c" target="_top" xlink:title="Sets the name of the subroutine that is writing log and/or screen messages.">
<polygon fill="white" stroke="black" points="209.5,-40.5 209.5,-61.5 424.5,-61.5 424.5,-40.5 209.5,-40.5"/>
<text text-anchor="middle" x="317" y="-47.9" font-family="Helvetica,sans-Serif" font-size="12.00">pahm_messages::setmessagesource</text>
</a>
</g>
</g>
<!-- Node1&#45;&gt;Node2 -->
<g id="edge1" class="edge">
<title>Node1&#45;&gt;Node2</title>
<path fill="none" stroke="midnightblue" d="M167.1,-38.14C177.43,-39.03 188.15,-39.95 198.88,-40.88"/>
<polygon fill="midnightblue" stroke="midnightblue" points="198.9,-44.4 209.16,-41.77 199.5,-37.42 198.9,-44.4"/>
</g>
<!-- Node3 -->
<g id="node3" class="node">
<title>Node3</title>
<g id="a_node3"><a xlink:href="../../d4/d3b/namespacepahm__messages.html#ad35e9f2327aad65d4c669e3d886f54dc" target="_top" xlink:title="Removes the name of the subroutine that is no longer active.">
<polygon fill="white" stroke="black" points="203,-0.5 203,-21.5 431,-21.5 431,-0.5 203,-0.5"/>
<text text-anchor="middle" x="317" y="-7.9" font-family="Helvetica,sans-Serif" font-size="12.00">pahm_messages::unsetmessagesource</text>
</a>
</g>
</g>
<!-- Node1&#45;&gt;Node3 -->
<g id="edge2" class="edge">
<title>Node1&#45;&gt;Node3</title>
<path fill="none" stroke="midnightblue" d="M167.1,-23.86C175.4,-23.15 183.96,-22.41 192.57,-21.66"/>
<polygon fill="midnightblue" stroke="midnightblue" points="193.03,-25.14 202.69,-20.79 192.43,-18.16 193.03,-25.14"/>
</g>
</g>
</svg>
