<?xml version="1.0" encoding="UTF-8" standalone="no"?>
<!DOCTYPE svg PUBLIC "-//W3C//DTD SVG 1.1//EN"
 "http://www.w3.org/Graphics/SVG/1.1/DTD/svg11.dtd">
<!-- Generated by graphviz version 2.42.4 (0)
 -->
<!-- Title: csv_module::infer_variable_type Pages: 1 -->
<svg width="534pt" height="110pt"
 viewBox="0.00 0.00 534.00 110.00" xmlns="http://www.w3.org/2000/svg" xmlns:xlink="http://www.w3.org/1999/xlink">
<g id="graph0" class="graph" transform="scale(1 1) rotate(0) translate(4 106)">
<title>csv_module::infer_variable_type</title>
<polygon fill="white" stroke="transparent" points="-4,4 -4,-106 530,-106 530,4 -4,4"/>
<!-- Node1 -->
<g id="node1" class="node">
<title>Node1</title>
<g id="a_node1"><a xlink:title="Infers the variable type.">
<polygon fill="#bfbfbf" stroke="black" points="0,-40.5 0,-61.5 190,-61.5 190,-40.5 0,-40.5"/>
<text text-anchor="middle" x="95" y="-47.9" font-family="Helvetica,sans-Serif" font-size="12.00">csv_module::infer_variable_type</text>
</a>
</g>
</g>
<!-- Node2 -->
<g id="node2" class="node">
<title>Node2</title>
<g id="a_node2"><a xlink:href="../../d3/d46/namespacecsv__module.html#a6be3694bd93818db748eba1dfbedbbc8" target="_top" xlink:title="Converts a string to a &#39;integer(ip)&#39;.">
<polygon fill="white" stroke="black" points="226,-80.5 226,-101.5 366,-101.5 366,-80.5 226,-80.5"/>
<text text-anchor="middle" x="296" y="-87.9" font-family="Helvetica,sans-Serif" font-size="12.00">csv_module::to_integer</text>
</a>
</g>
</g>
<!-- Node1&#45;&gt;Node2 -->
<g id="edge1" class="edge">
<title>Node1&#45;&gt;Node2</title>
<path fill="none" stroke="midnightblue" d="M148.28,-61.51C174.12,-66.7 205.48,-73.01 232.57,-78.45"/>
<polygon fill="midnightblue" stroke="midnightblue" points="232.23,-81.95 242.72,-80.49 233.6,-75.09 232.23,-81.95"/>
</g>
<!-- Node3 -->
<g id="node3" class="node">
<title>Node3</title>
<g id="a_node3"><a xlink:href="../../d3/d46/namespacecsv__module.html#afdb32ff9495b79418037e3fae406e67f" target="_top" xlink:title="Converts a string to a &#39;logical&#39;.">
<polygon fill="white" stroke="black" points="226.5,-40.5 226.5,-61.5 365.5,-61.5 365.5,-40.5 226.5,-40.5"/>
<text text-anchor="middle" x="296" y="-47.9" font-family="Helvetica,sans-Serif" font-size="12.00">csv_module::to_logical</text>
</a>
</g>
</g>
<!-- Node1&#45;&gt;Node3 -->
<g id="edge2" class="edge">
<title>Node1&#45;&gt;Node3</title>
<path fill="none" stroke="midnightblue" d="M190.26,-51C198.9,-51 207.59,-51 216.08,-51"/>
<polygon fill="midnightblue" stroke="midnightblue" points="216.31,-54.5 226.31,-51 216.31,-47.5 216.31,-54.5"/>
</g>
<!-- Node5 -->
<g id="node5" class="node">
<title>Node5</title>
<g id="a_node5"><a xlink:href="../../d3/d46/namespacecsv__module.html#afa16fb149f3106c9326e9c31a8bb083f" target="_top" xlink:title="Converts a string to a &#39;real(wp)&#39;.">
<polygon fill="white" stroke="black" points="234,-0.5 234,-21.5 358,-21.5 358,-0.5 234,-0.5"/>
<text text-anchor="middle" x="296" y="-7.9" font-family="Helvetica,sans-Serif" font-size="12.00">csv_module::to_real</text>
</a>
</g>
</g>
<!-- Node1&#45;&gt;Node5 -->
<g id="edge4" class="edge">
<title>Node1&#45;&gt;Node5</title>
<path fill="none" stroke="midnightblue" d="M148.28,-40.49C174.12,-35.3 205.48,-28.99 232.57,-23.55"/>
<polygon fill="midnightblue" stroke="midnightblue" points="233.6,-26.91 242.72,-21.51 232.23,-20.05 233.6,-26.91"/>
</g>
<!-- Node4 -->
<g id="node4" class="node">
<title>Node4</title>
<g id="a_node4"><a xlink:href="../../d2/d96/namespaceutilities.html#a376978b945cbdf5d33ff8bf905d19866" target="_top" xlink:title="Convert a string to lower&#45;case.">
<polygon fill="white" stroke="black" points="402,-40.5 402,-61.5 526,-61.5 526,-40.5 402,-40.5"/>
<text text-anchor="middle" x="464" y="-47.9" font-family="Helvetica,sans-Serif" font-size="12.00">utilities::tolowercase</text>
</a>
</g>
</g>
<!-- Node3&#45;&gt;Node4 -->
<g id="edge3" class="edge">
<title>Node3&#45;&gt;Node4</title>
<path fill="none" stroke="midnightblue" d="M365.96,-51C374.54,-51 383.32,-51 391.93,-51"/>
<polygon fill="midnightblue" stroke="midnightblue" points="391.94,-54.5 401.94,-51 391.94,-47.5 391.94,-54.5"/>
</g>
</g>
</svg>
