<?xml version="1.0" encoding="UTF-8" standalone="no"?>
<!DOCTYPE svg PUBLIC "-//W3C//DTD SVG 1.1//EN"
 "http://www.w3.org/Graphics/SVG/1.1/DTD/svg11.dtd">
<!-- Generated by graphviz version 2.42.4 (0)
 -->
<!-- Title: csv_module::open_csv_file Pages: 1 -->
<svg width="433pt" height="70pt"
 viewBox="0.00 0.00 433.00 70.00" xmlns="http://www.w3.org/2000/svg" xmlns:xlink="http://www.w3.org/1999/xlink">
<g id="graph0" class="graph" transform="scale(1 1) rotate(0) translate(4 66)">
<title>csv_module::open_csv_file</title>
<polygon fill="white" stroke="transparent" points="-4,4 -4,-66 429,-66 429,4 -4,4"/>
<!-- Node1 -->
<g id="node1" class="node">
<title>Node1</title>
<g id="a_node1"><a xlink:title="Open a CSV file for writing.">
<polygon fill="#bfbfbf" stroke="black" points="0,-20.5 0,-41.5 161,-41.5 161,-20.5 0,-20.5"/>
<text text-anchor="middle" x="80.5" y="-27.9" font-family="Helvetica,sans-Serif" font-size="12.00">csv_module::open_csv_file</text>
</a>
</g>
</g>
<!-- Node2 -->
<g id="node2" class="node">
<title>Node2</title>
<g id="a_node2"><a xlink:href="../../d4/d3b/namespacepahm__messages.html#acf0c696cc1604842ee84a5df6d81179c" target="_top" xlink:title="Sets the name of the subroutine that is writing log and/or screen messages.">
<polygon fill="white" stroke="black" points="203.5,-40.5 203.5,-61.5 418.5,-61.5 418.5,-40.5 203.5,-40.5"/>
<text text-anchor="middle" x="311" y="-47.9" font-family="Helvetica,sans-Serif" font-size="12.00">pahm_messages::setmessagesource</text>
</a>
</g>
</g>
<!-- Node1&#45;&gt;Node2 -->
<g id="edge1" class="edge">
<title>Node1&#45;&gt;Node2</title>
<path fill="none" stroke="midnightblue" d="M161.1,-37.97C171.55,-38.88 182.43,-39.83 193.34,-40.79"/>
<polygon fill="midnightblue" stroke="midnightblue" points="193.09,-44.28 203.36,-41.67 193.7,-37.31 193.09,-44.28"/>
</g>
<!-- Node3 -->
<g id="node3" class="node">
<title>Node3</title>
<g id="a_node3"><a xlink:href="../../d4/d3b/namespacepahm__messages.html#ad35e9f2327aad65d4c669e3d886f54dc" target="_top" xlink:title="Removes the name of the subroutine that is no longer active.">
<polygon fill="white" stroke="black" points="197,-0.5 197,-21.5 425,-21.5 425,-0.5 197,-0.5"/>
<text text-anchor="middle" x="311" y="-7.9" font-family="Helvetica,sans-Serif" font-size="12.00">pahm_messages::unsetmessagesource</text>
</a>
</g>
</g>
<!-- Node1&#45;&gt;Node3 -->
<g id="edge2" class="edge">
<title>Node1&#45;&gt;Node3</title>
<path fill="none" stroke="midnightblue" d="M161.1,-24.03C169.43,-23.3 178.03,-22.55 186.71,-21.79"/>
<polygon fill="midnightblue" stroke="midnightblue" points="187.25,-25.26 196.91,-20.9 186.64,-18.28 187.25,-25.26"/>
</g>
</g>
</svg>
