<?xml version="1.0" encoding="UTF-8" standalone="no"?>
<!DOCTYPE svg PUBLIC "-//W3C//DTD SVG 1.1//EN"
 "http://www.w3.org/Graphics/SVG/1.1/DTD/svg11.dtd">
<!-- Generated by graphviz version 2.42.4 (0)
 -->
<!-- Title: csv_module::get_header_csv_str Pages: 1 -->
<svg width="420pt" height="70pt"
 viewBox="0.00 0.00 420.00 70.00" xmlns="http://www.w3.org/2000/svg" xmlns:xlink="http://www.w3.org/1999/xlink">
<g id="graph0" class="graph" transform="scale(1 1) rotate(0) translate(4 66)">
<title>csv_module::get_header_csv_str</title>
<polygon fill="white" stroke="transparent" points="-4,4 -4,-66 416,-66 416,4 -4,4"/>
<!-- Node1 -->
<g id="node1" class="node">
<title>Node1</title>
<g id="a_node1"><a xlink:title="Returns the header as a &#39;type(csv_string)&#39; array (&#39;read&#39; must have already been called to read the fi...">
<polygon fill="#bfbfbf" stroke="black" points="0,-14 0,-48 148,-48 148,-14 0,-14"/>
<text text-anchor="start" x="8" y="-34.4" font-family="Helvetica,sans-Serif" font-size="12.00">csv_module::get_header</text>
<text text-anchor="middle" x="74" y="-21.4" font-family="Helvetica,sans-Serif" font-size="12.00">_csv_str</text>
</a>
</g>
</g>
<!-- Node2 -->
<g id="node2" class="node">
<title>Node2</title>
<g id="a_node2"><a xlink:href="../../d4/d3b/namespacepahm__messages.html#acf0c696cc1604842ee84a5df6d81179c" target="_top" xlink:title="Sets the name of the subroutine that is writing log and/or screen messages.">
<polygon fill="white" stroke="black" points="190.5,-40.5 190.5,-61.5 405.5,-61.5 405.5,-40.5 190.5,-40.5"/>
<text text-anchor="middle" x="298" y="-47.9" font-family="Helvetica,sans-Serif" font-size="12.00">pahm_messages::setmessagesource</text>
</a>
</g>
</g>
<!-- Node1&#45;&gt;Node2 -->
<g id="edge1" class="edge">
<title>Node1&#45;&gt;Node2</title>
<path fill="none" stroke="midnightblue" d="M148.31,-37.6C158.65,-38.54 169.5,-39.51 180.41,-40.5"/>
<polygon fill="midnightblue" stroke="midnightblue" points="180.17,-43.99 190.44,-41.4 180.8,-37.02 180.17,-43.99"/>
</g>
<!-- Node3 -->
<g id="node3" class="node">
<title>Node3</title>
<g id="a_node3"><a xlink:href="../../d4/d3b/namespacepahm__messages.html#ad35e9f2327aad65d4c669e3d886f54dc" target="_top" xlink:title="Removes the name of the subroutine that is no longer active.">
<polygon fill="white" stroke="black" points="184,-0.5 184,-21.5 412,-21.5 412,-0.5 184,-0.5"/>
<text text-anchor="middle" x="298" y="-7.9" font-family="Helvetica,sans-Serif" font-size="12.00">pahm_messages::unsetmessagesource</text>
</a>
</g>
</g>
<!-- Node1&#45;&gt;Node3 -->
<g id="edge2" class="edge">
<title>Node1&#45;&gt;Node3</title>
<path fill="none" stroke="midnightblue" d="M148.31,-24.4C156.48,-23.66 164.96,-22.9 173.53,-22.12"/>
<polygon fill="midnightblue" stroke="midnightblue" points="173.99,-25.6 183.64,-21.21 173.37,-18.62 173.99,-25.6"/>
</g>
</g>
</svg>
