<?xml version="1.0" encoding="UTF-8" standalone="no"?>
<!DOCTYPE svg PUBLIC "-//W3C//DTD SVG 1.1//EN"
 "http://www.w3.org/Graphics/SVG/1.1/DTD/svg11.dtd">
<!-- Generated by graphviz version 2.42.4 (0)
 -->
<!-- Title: csv_module::read_csv_file Pages: 1 -->
<svg width="976pt" height="296pt"
 viewBox="0.00 0.00 976.00 295.50" xmlns="http://www.w3.org/2000/svg" xmlns:xlink="http://www.w3.org/1999/xlink">
<g id="graph0" class="graph" transform="scale(1 1) rotate(0) translate(4 291.5)">
<title>csv_module::read_csv_file</title>
<polygon fill="white" stroke="transparent" points="-4,4 -4,-291.5 972,-291.5 972,4 -4,4"/>
<!-- Node1 -->
<g id="node1" class="node">
<title>Node1</title>
<g id="a_node1"><a xlink:title="Reads a CSV file.">
<polygon fill="#bfbfbf" stroke="black" points="0,-154.5 0,-175.5 158,-175.5 158,-154.5 0,-154.5"/>
<text text-anchor="middle" x="79" y="-161.9" font-family="Helvetica,sans-Serif" font-size="12.00">csv_module::read_csv_file</text>
</a>
</g>
</g>
<!-- Node2 -->
<g id="node2" class="node">
<title>Node2</title>
<g id="a_node2"><a xlink:href="../../d3/d46/namespacecsv__module.html#a01c25fb47f1e50e51438d5b7661ad07a" target="_top" xlink:title="Returns the number of lines in a text file.">
<polygon fill="white" stroke="black" points="212,-253 212,-287 340,-287 340,-253 212,-253"/>
<text text-anchor="start" x="220" y="-273.4" font-family="Helvetica,sans-Serif" font-size="12.00">csv_module::number</text>
<text text-anchor="middle" x="276" y="-260.4" font-family="Helvetica,sans-Serif" font-size="12.00">_of_lines_in_file</text>
</a>
</g>
</g>
<!-- Node1&#45;&gt;Node2 -->
<g id="edge1" class="edge">
<title>Node1&#45;&gt;Node2</title>
<path fill="none" stroke="midnightblue" d="M94.57,-175.64C115.74,-190.78 156.55,-218.84 194,-238 201.55,-241.86 209.67,-245.57 217.76,-249"/>
<polygon fill="midnightblue" stroke="midnightblue" points="216.63,-252.31 227.2,-252.89 219.3,-245.84 216.63,-252.31"/>
</g>
<!-- Node3 -->
<g id="node3" class="node">
<title>Node3</title>
<g id="a_node3"><a xlink:href="../../d2/d96/namespaceutilities.html#a2a41067ed5533ec0c36318e8f1e960bf" target="_top" xlink:title="This subroutine opens an existing file for reading.">
<polygon fill="white" stroke="black" points="206,-174.5 206,-195.5 346,-195.5 346,-174.5 206,-174.5"/>
<text text-anchor="middle" x="276" y="-181.9" font-family="Helvetica,sans-Serif" font-size="12.00">utilities::openfileforread</text>
</a>
</g>
</g>
<!-- Node1&#45;&gt;Node3 -->
<g id="edge2" class="edge">
<title>Node1&#45;&gt;Node3</title>
<path fill="none" stroke="midnightblue" d="M158.19,-173.02C170.52,-174.28 183.29,-175.59 195.65,-176.86"/>
<polygon fill="midnightblue" stroke="midnightblue" points="195.61,-180.38 205.92,-177.91 196.33,-173.41 195.61,-180.38"/>
</g>
<!-- Node4 -->
<g id="node4" class="node">
<title>Node4</title>
<g id="a_node4"><a xlink:href="../../d4/d3b/namespacepahm__messages.html#acf0c696cc1604842ee84a5df6d81179c" target="_top" xlink:title="Sets the name of the subroutine that is writing log and/or screen messages.">
<polygon fill="white" stroke="black" points="400.5,-174.5 400.5,-195.5 615.5,-195.5 615.5,-174.5 400.5,-174.5"/>
<text text-anchor="middle" x="508" y="-181.9" font-family="Helvetica,sans-Serif" font-size="12.00">pahm_messages::setmessagesource</text>
</a>
</g>
</g>
<!-- Node1&#45;&gt;Node4 -->
<g id="edge5" class="edge">
<title>Node1&#45;&gt;Node4</title>
<path fill="none" stroke="midnightblue" d="M102.97,-175.65C125.56,-185.5 161.33,-199.43 194,-205 280.44,-219.72 381.98,-208.01 445.43,-197.29"/>
<polygon fill="midnightblue" stroke="midnightblue" points="446.4,-200.68 455.66,-195.52 445.21,-193.78 446.4,-200.68"/>
</g>
<!-- Node5 -->
<g id="node5" class="node">
<title>Node5</title>
<g id="a_node5"><a xlink:href="../../d4/d3b/namespacepahm__messages.html#ad35e9f2327aad65d4c669e3d886f54dc" target="_top" xlink:title="Removes the name of the subroutine that is no longer active.">
<polygon fill="white" stroke="black" points="394,-134.5 394,-155.5 622,-155.5 622,-134.5 394,-134.5"/>
<text text-anchor="middle" x="508" y="-141.9" font-family="Helvetica,sans-Serif" font-size="12.00">pahm_messages::unsetmessagesource</text>
</a>
</g>
</g>
<!-- Node1&#45;&gt;Node5 -->
<g id="edge17" class="edge">
<title>Node1&#45;&gt;Node5</title>
<path fill="none" stroke="midnightblue" d="M102.97,-154.35C125.56,-144.5 161.33,-130.57 194,-125 280.44,-110.28 381.98,-121.99 445.43,-132.71"/>
<polygon fill="midnightblue" stroke="midnightblue" points="445.21,-136.22 455.66,-134.48 446.4,-129.32 445.21,-136.22"/>
</g>
<!-- Node6 -->
<g id="node6" class="node">
<title>Node6</title>
<g id="a_node6"><a xlink:href="../../d4/d3b/namespacepahm__messages.html#a8fdeeba7e0469ebda6435518f619444b" target="_top" xlink:title="Terminates the calling program when a fatal error is encountered.">
<polygon fill="white" stroke="black" points="194,-134.5 194,-155.5 358,-155.5 358,-134.5 194,-134.5"/>
<text text-anchor="middle" x="276" y="-141.9" font-family="Helvetica,sans-Serif" font-size="12.00">pahm_messages::terminate</text>
</a>
</g>
</g>
<!-- Node1&#45;&gt;Node6 -->
<g id="edge6" class="edge">
<title>Node1&#45;&gt;Node6</title>
<path fill="none" stroke="midnightblue" d="M158.19,-156.98C166.64,-156.11 175.3,-155.23 183.89,-154.34"/>
<polygon fill="midnightblue" stroke="midnightblue" points="184.33,-157.82 193.92,-153.32 183.62,-150.85 184.33,-157.82"/>
</g>
<!-- Node7 -->
<g id="node7" class="node">
<title>Node7</title>
<g id="a_node7"><a xlink:href="../../dc/d33/namespacecsv__utilities.html#a6c1f008f2a5f0ec6727aa9627a9e7bc4" target="_top" xlink:title="Finds the unique elements in a vector of integers.">
<polygon fill="white" stroke="black" points="215,-56.5 215,-77.5 337,-77.5 337,-56.5 215,-56.5"/>
<text text-anchor="middle" x="276" y="-63.9" font-family="Helvetica,sans-Serif" font-size="12.00">csv_utilities::unique</text>
</a>
</g>
</g>
<!-- Node1&#45;&gt;Node7 -->
<g id="edge9" class="edge">
<title>Node1&#45;&gt;Node7</title>
<path fill="none" stroke="midnightblue" d="M93.69,-154.48C114.4,-138.98 155.41,-109.91 194,-92 203.21,-87.73 213.34,-83.94 223.23,-80.69"/>
<polygon fill="midnightblue" stroke="midnightblue" points="224.5,-83.96 232.99,-77.62 222.4,-77.28 224.5,-83.96"/>
</g>
<!-- Node3&#45;&gt;Node4 -->
<g id="edge3" class="edge">
<title>Node3&#45;&gt;Node4</title>
<path fill="none" stroke="midnightblue" d="M346.01,-185C359.88,-185 374.81,-185 389.8,-185"/>
<polygon fill="midnightblue" stroke="midnightblue" points="390.17,-188.5 400.17,-185 390.17,-181.5 390.17,-188.5"/>
</g>
<!-- Node3&#45;&gt;Node5 -->
<g id="edge4" class="edge">
<title>Node3&#45;&gt;Node5</title>
<path fill="none" stroke="midnightblue" d="M337.43,-174.49C367.81,-169.21 404.82,-162.77 436.49,-157.26"/>
<polygon fill="midnightblue" stroke="midnightblue" points="437.32,-160.67 446.57,-155.51 436.12,-153.77 437.32,-160.67"/>
</g>
<!-- Node6&#45;&gt;Node4 -->
<g id="edge7" class="edge">
<title>Node6&#45;&gt;Node4</title>
<path fill="none" stroke="midnightblue" d="M337.43,-155.51C367.81,-160.79 404.82,-167.23 436.49,-172.74"/>
<polygon fill="midnightblue" stroke="midnightblue" points="436.12,-176.23 446.57,-174.49 437.32,-169.33 436.12,-176.23"/>
</g>
<!-- Node6&#45;&gt;Node5 -->
<g id="edge8" class="edge">
<title>Node6&#45;&gt;Node5</title>
<path fill="none" stroke="midnightblue" d="M358.09,-145C366.46,-145 375.08,-145 383.78,-145"/>
<polygon fill="midnightblue" stroke="midnightblue" points="384,-148.5 394,-145 384,-141.5 384,-148.5"/>
</g>
<!-- Node8 -->
<g id="node8" class="node">
<title>Node8</title>
<g id="a_node8"><a xlink:href="../../dc/d33/namespacecsv__utilities.html#a6e82721fc2fc96ab10ca4a32547e1c88" target="_top" xlink:title="Add elements to the integer vector in chunks.">
<polygon fill="white" stroke="black" points="446,-66 446,-100 570,-100 570,-66 446,-66"/>
<text text-anchor="start" x="454" y="-86.4" font-family="Helvetica,sans-Serif" font-size="12.00">csv_utilities::expand</text>
<text text-anchor="middle" x="508" y="-73.4" font-family="Helvetica,sans-Serif" font-size="12.00">_vector</text>
</a>
</g>
</g>
<!-- Node7&#45;&gt;Node8 -->
<g id="edge10" class="edge">
<title>Node7&#45;&gt;Node8</title>
<path fill="none" stroke="midnightblue" d="M337.13,-71.18C367.27,-73.28 403.99,-75.83 435.57,-78.03"/>
<polygon fill="midnightblue" stroke="midnightblue" points="435.4,-81.53 445.62,-78.73 435.89,-74.54 435.4,-81.53"/>
</g>
<!-- Node9 -->
<g id="node9" class="node">
<title>Node9</title>
<g id="a_node9"><a xlink:href="../../dc/d33/namespacecsv__utilities.html#a07f2d0f6e53440f20e140a6c90f8ab2f" target="_top" xlink:title="Sorts an integer array ivec in increasing order.">
<polygon fill="white" stroke="black" points="455.5,-13 455.5,-47 560.5,-47 560.5,-13 455.5,-13"/>
<text text-anchor="start" x="463.5" y="-33.4" font-family="Helvetica,sans-Serif" font-size="12.00">csv_utilities::sort</text>
<text text-anchor="middle" x="508" y="-20.4" font-family="Helvetica,sans-Serif" font-size="12.00">_ascending</text>
</a>
</g>
</g>
<!-- Node7&#45;&gt;Node9 -->
<g id="edge11" class="edge">
<title>Node7&#45;&gt;Node9</title>
<path fill="none" stroke="midnightblue" d="M337.13,-57.33C370.42,-51.97 411.73,-45.33 445.27,-39.93"/>
<polygon fill="midnightblue" stroke="midnightblue" points="446.1,-43.34 455.41,-38.3 444.98,-36.43 446.1,-43.34"/>
</g>
<!-- Node10 -->
<g id="node10" class="node">
<title>Node10</title>
<g id="a_node10"><a xlink:href="../../de/d72/csv__utilities_8F90.html#a8022107c14c4c90ad3e149f4d52aedb0" target="_top" xlink:title=" ">
<polygon fill="white" stroke="black" points="658,-19.5 658,-40.5 723,-40.5 723,-19.5 658,-19.5"/>
<text text-anchor="middle" x="690.5" y="-26.9" font-family="Helvetica,sans-Serif" font-size="12.00">quicksort</text>
</a>
</g>
</g>
<!-- Node9&#45;&gt;Node10 -->
<g id="edge12" class="edge">
<title>Node9&#45;&gt;Node10</title>
<path fill="none" stroke="midnightblue" d="M560.72,-30C588.28,-30 621.74,-30 647.65,-30"/>
<polygon fill="midnightblue" stroke="midnightblue" points="647.89,-33.5 657.89,-30 647.89,-26.5 647.89,-33.5"/>
</g>
<!-- Node10&#45;&gt;Node10 -->
<g id="edge15" class="edge">
<title>Node10&#45;&gt;Node10</title>
<path fill="none" stroke="midnightblue" d="M674.93,-40.71C668.27,-49.65 673.46,-59 690.5,-59 701.15,-59 707.17,-55.35 708.56,-50.43"/>
<polygon fill="midnightblue" stroke="midnightblue" points="711.94,-49.53 706.07,-40.71 705.16,-51.26 711.94,-49.53"/>
</g>
<!-- Node11 -->
<g id="node11" class="node">
<title>Node11</title>
<g id="a_node11"><a xlink:href="../../de/d72/csv__utilities_8F90.html#aa045c8b172bdcec2551ec610869f0391" target="_top" xlink:title=" ">
<polygon fill="white" stroke="black" points="759,-0.5 759,-21.5 819,-21.5 819,-0.5 759,-0.5"/>
<text text-anchor="middle" x="789" y="-7.9" font-family="Helvetica,sans-Serif" font-size="12.00">partition</text>
</a>
</g>
</g>
<!-- Node10&#45;&gt;Node11 -->
<g id="edge13" class="edge">
<title>Node10&#45;&gt;Node11</title>
<path fill="none" stroke="midnightblue" d="M723.1,-23.78C731.39,-22.15 740.44,-20.36 749.07,-18.66"/>
<polygon fill="midnightblue" stroke="midnightblue" points="749.81,-22.09 758.94,-16.72 748.46,-15.22 749.81,-22.09"/>
</g>
<!-- Node12 -->
<g id="node12" class="node">
<title>Node12</title>
<g id="a_node12"><a xlink:href="../../dc/d33/namespacecsv__utilities.html#ad5588bf7cfadb052191fa2d0c82265c8" target="_top" xlink:title="Swap two integer values.">
<polygon fill="white" stroke="black" points="855,-19.5 855,-40.5 968,-40.5 968,-19.5 855,-19.5"/>
<text text-anchor="middle" x="911.5" y="-26.9" font-family="Helvetica,sans-Serif" font-size="12.00">csv_utilities::swap</text>
</a>
</g>
</g>
<!-- Node10&#45;&gt;Node12 -->
<g id="edge16" class="edge">
<title>Node10&#45;&gt;Node12</title>
<path fill="none" stroke="midnightblue" d="M723.09,-30.56C734.42,-30.74 747.28,-30.91 759,-31 786.98,-31.21 817.87,-31.07 844.41,-30.84"/>
<polygon fill="midnightblue" stroke="midnightblue" points="844.77,-34.33 854.74,-30.74 844.71,-27.34 844.77,-34.33"/>
</g>
<!-- Node11&#45;&gt;Node12 -->
<g id="edge14" class="edge">
<title>Node11&#45;&gt;Node12</title>
<path fill="none" stroke="midnightblue" d="M819.17,-15.6C826.96,-16.83 835.71,-18.21 844.63,-19.61"/>
<polygon fill="midnightblue" stroke="midnightblue" points="844.3,-23.1 854.72,-21.2 845.39,-16.19 844.3,-23.1"/>
</g>
</g>
</svg>
