<?xml version="1.0" encoding="UTF-8" standalone="no"?>
<!DOCTYPE svg PUBLIC "-//W3C//DTD SVG 1.1//EN"
 "http://www.w3.org/Graphics/SVG/1.1/DTD/svg11.dtd">
<!-- Generated by graphviz version 2.42.4 (0)
 -->
<!-- Title: csv_module::get_csv_string_column Pages: 1 -->
<svg width="400pt" height="70pt"
 viewBox="0.00 0.00 400.00 70.00" xmlns="http://www.w3.org/2000/svg" xmlns:xlink="http://www.w3.org/1999/xlink">
<g id="graph0" class="graph" transform="scale(1 1) rotate(0) translate(4 66)">
<title>csv_module::get_csv_string_column</title>
<polygon fill="white" stroke="transparent" points="-4,4 -4,-66 396,-66 396,4 -4,4"/>
<!-- Node1 -->
<g id="node1" class="node">
<title>Node1</title>
<g id="a_node1"><a xlink:title="Convert a column from a &#39;csv_string&#39; matrix to a &#39;type(csv_string)&#39; vector.">
<polygon fill="#bfbfbf" stroke="black" points="0,-14 0,-48 128,-48 128,-14 0,-14"/>
<text text-anchor="start" x="8" y="-34.4" font-family="Helvetica,sans-Serif" font-size="12.00">csv_module::get_csv</text>
<text text-anchor="middle" x="64" y="-21.4" font-family="Helvetica,sans-Serif" font-size="12.00">_string_column</text>
</a>
</g>
</g>
<!-- Node2 -->
<g id="node2" class="node">
<title>Node2</title>
<g id="a_node2"><a xlink:href="../../d4/d3b/namespacepahm__messages.html#acf0c696cc1604842ee84a5df6d81179c" target="_top" xlink:title="Sets the name of the subroutine that is writing log and/or screen messages.">
<polygon fill="white" stroke="black" points="170.5,-40.5 170.5,-61.5 385.5,-61.5 385.5,-40.5 170.5,-40.5"/>
<text text-anchor="middle" x="278" y="-47.9" font-family="Helvetica,sans-Serif" font-size="12.00">pahm_messages::setmessagesource</text>
</a>
</g>
</g>
<!-- Node1&#45;&gt;Node2 -->
<g id="edge1" class="edge">
<title>Node1&#45;&gt;Node2</title>
<path fill="none" stroke="midnightblue" d="M128.03,-36.95C138.22,-37.91 149.04,-38.93 160.02,-39.96"/>
<polygon fill="midnightblue" stroke="midnightblue" points="159.86,-43.46 170.14,-40.92 160.51,-36.5 159.86,-43.46"/>
</g>
<!-- Node3 -->
<g id="node3" class="node">
<title>Node3</title>
<g id="a_node3"><a xlink:href="../../d4/d3b/namespacepahm__messages.html#ad35e9f2327aad65d4c669e3d886f54dc" target="_top" xlink:title="Removes the name of the subroutine that is no longer active.">
<polygon fill="white" stroke="black" points="164,-0.5 164,-21.5 392,-21.5 392,-0.5 164,-0.5"/>
<text text-anchor="middle" x="278" y="-7.9" font-family="Helvetica,sans-Serif" font-size="12.00">pahm_messages::unsetmessagesource</text>
</a>
</g>
</g>
<!-- Node1&#45;&gt;Node3 -->
<g id="edge2" class="edge">
<title>Node1&#45;&gt;Node3</title>
<path fill="none" stroke="midnightblue" d="M128.03,-25.05C136.73,-24.23 145.89,-23.37 155.21,-22.49"/>
<polygon fill="midnightblue" stroke="midnightblue" points="155.76,-25.95 165.38,-21.53 155.1,-18.98 155.76,-25.95"/>
</g>
</g>
</svg>
