<?xml version="1.0" encoding="UTF-8" standalone="no"?>
<!DOCTYPE svg PUBLIC "-//W3C//DTD SVG 1.1//EN"
 "http://www.w3.org/Graphics/SVG/1.1/DTD/svg11.dtd">
<!-- Generated by graphviz version 2.42.4 (0)
 -->
<!-- Title: partition Pages: 1 -->
<svg width="662pt" height="55pt"
 viewBox="0.00 0.00 662.00 54.50" xmlns="http://www.w3.org/2000/svg" xmlns:xlink="http://www.w3.org/1999/xlink">
<g id="graph0" class="graph" transform="scale(1 1) rotate(0) translate(4 50.5)">
<title>partition</title>
<polygon fill="white" stroke="transparent" points="-4,4 -4,-50.5 658,-50.5 658,4 -4,4"/>
<!-- Node1 -->
<g id="node1" class="node">
<title>Node1</title>
<g id="a_node1"><a xlink:title=" ">
<polygon fill="#bfbfbf" stroke="black" points="594,-7 594,-28 654,-28 654,-7 594,-7"/>
<text text-anchor="middle" x="624" y="-14.4" font-family="Helvetica,sans-Serif" font-size="12.00">partition</text>
</a>
</g>
</g>
<!-- Node2 -->
<g id="node2" class="node">
<title>Node2</title>
<g id="a_node2"><a xlink:href="csv__utilities_8F90.html#a8022107c14c4c90ad3e149f4d52aedb0" target="_top" xlink:title=" ">
<polygon fill="white" stroke="black" points="493,-7 493,-28 558,-28 558,-7 493,-7"/>
<text text-anchor="middle" x="525.5" y="-14.4" font-family="Helvetica,sans-Serif" font-size="12.00">quicksort</text>
</a>
</g>
</g>
<!-- Node1&#45;&gt;Node2 -->
<g id="edge1" class="edge">
<title>Node1&#45;&gt;Node2</title>
<path fill="none" stroke="midnightblue" d="M583.73,-17.5C575.27,-17.5 566.44,-17.5 558.31,-17.5"/>
<polygon fill="midnightblue" stroke="midnightblue" points="583.78,-21 593.78,-17.5 583.78,-14 583.78,-21"/>
</g>
<!-- Node2&#45;&gt;Node2 -->
<g id="edge2" class="edge">
<title>Node2&#45;&gt;Node2</title>
<path fill="none" stroke="midnightblue" d="M543.56,-37.93C542.17,-42.85 536.15,-46.5 525.5,-46.5 508.46,-46.5 503.27,-37.15 509.93,-28.21"/>
<polygon fill="midnightblue" stroke="midnightblue" points="546.94,-37.03 541.07,-28.21 540.16,-38.76 546.94,-37.03"/>
</g>
<!-- Node3 -->
<g id="node3" class="node">
<title>Node3</title>
<g id="a_node3"><a xlink:href="namespacecsv__utilities.html#a07f2d0f6e53440f20e140a6c90f8ab2f" target="_top" xlink:title="Sorts an integer array ivec in increasing order.">
<polygon fill="white" stroke="black" points="352,-0.5 352,-34.5 457,-34.5 457,-0.5 352,-0.5"/>
<text text-anchor="start" x="360" y="-20.9" font-family="Helvetica,sans-Serif" font-size="12.00">csv_utilities::sort</text>
<text text-anchor="middle" x="404.5" y="-7.9" font-family="Helvetica,sans-Serif" font-size="12.00">_ascending</text>
</a>
</g>
</g>
<!-- Node2&#45;&gt;Node3 -->
<g id="edge3" class="edge">
<title>Node2&#45;&gt;Node3</title>
<path fill="none" stroke="midnightblue" d="M482.73,-17.5C474.42,-17.5 465.61,-17.5 457.02,-17.5"/>
<polygon fill="midnightblue" stroke="midnightblue" points="482.92,-21 492.92,-17.5 482.92,-14 482.92,-21"/>
</g>
<!-- Node4 -->
<g id="node4" class="node">
<title>Node4</title>
<g id="a_node4"><a xlink:href="namespacecsv__utilities.html#a6c1f008f2a5f0ec6727aa9627a9e7bc4" target="_top" xlink:title="Finds the unique elements in a vector of integers.">
<polygon fill="white" stroke="black" points="194,-7 194,-28 316,-28 316,-7 194,-7"/>
<text text-anchor="middle" x="255" y="-14.4" font-family="Helvetica,sans-Serif" font-size="12.00">csv_utilities::unique</text>
</a>
</g>
</g>
<!-- Node3&#45;&gt;Node4 -->
<g id="edge4" class="edge">
<title>Node3&#45;&gt;Node4</title>
<path fill="none" stroke="midnightblue" d="M341.73,-17.5C333.27,-17.5 324.59,-17.5 316.16,-17.5"/>
<polygon fill="midnightblue" stroke="midnightblue" points="341.91,-21 351.91,-17.5 341.91,-14 341.91,-21"/>
</g>
<!-- Node5 -->
<g id="node5" class="node">
<title>Node5</title>
<g id="a_node5"><a xlink:href="namespacecsv__module.html#a95642923259cb41370798af573c1babc" target="_top" xlink:title="Reads a CSV file.">
<polygon fill="white" stroke="black" points="0,-7 0,-28 158,-28 158,-7 0,-7"/>
<text text-anchor="middle" x="79" y="-14.4" font-family="Helvetica,sans-Serif" font-size="12.00">csv_module::read_csv_file</text>
</a>
</g>
</g>
<!-- Node4&#45;&gt;Node5 -->
<g id="edge5" class="edge">
<title>Node4&#45;&gt;Node5</title>
<path fill="none" stroke="midnightblue" d="M183.52,-17.5C175.13,-17.5 166.53,-17.5 158.04,-17.5"/>
<polygon fill="midnightblue" stroke="midnightblue" points="183.63,-21 193.63,-17.5 183.63,-14 183.63,-21"/>
</g>
</g>
</svg>
