<?xml version="1.0" encoding="UTF-8" standalone="no"?>
<!DOCTYPE svg PUBLIC "-//W3C//DTD SVG 1.1//EN"
 "http://www.w3.org/Graphics/SVG/1.1/DTD/svg11.dtd">
<!-- Generated by graphviz version 2.42.4 (0)
 -->
<!-- Title: Graph Legend Pages: 1 -->
<svg width="579pt" height="169pt"
 viewBox="0.00 0.00 578.50 169.00" xmlns="http://www.w3.org/2000/svg" xmlns:xlink="http://www.w3.org/1999/xlink">
<g id="graph0" class="graph" transform="scale(1 1) rotate(0) translate(4 165)">
<title>Graph Legend</title>
<polygon fill="white" stroke="transparent" points="-4,4 -4,-165 574.5,-165 574.5,4 -4,4"/>
<!-- Node9 -->
<g id="node1" class="node">
<title>Node9</title>
<polygon fill="#bfbfbf" stroke="black" points="336.5,-21 273.5,-21 273.5,0 336.5,0 336.5,-21"/>
<text text-anchor="middle" x="305" y="-7.4" font-family="Helvetica,sans-Serif" font-size="12.00">Inherited</text>
</g>
<!-- Node10 -->
<g id="node2" class="node">
<title>Node10</title>
<polygon fill="none" stroke="black" points="78,-91 0,-91 0,-70 78,-70 78,-91"/>
<text text-anchor="middle" x="39" y="-77.4" font-family="Helvetica,sans-Serif" font-size="12.00">PublicBase</text>
</g>
<!-- Node10&#45;&gt;Node9 -->
<g id="edge1" class="edge">
<title>Node10&#45;&gt;Node9</title>
<path fill="none" stroke="midnightblue" d="M86.27,-67.42C140.24,-53.62 227.02,-31.44 273.38,-19.58"/>
<polygon fill="midnightblue" stroke="midnightblue" points="85.09,-64.11 76.27,-69.97 86.82,-70.89 85.09,-64.11"/>
</g>
<!-- Node11 -->
<g id="node3" class="node">
<title>Node11</title>
<polygon fill="none" stroke="red" points="73.5,-161 4.5,-161 4.5,-140 73.5,-140 73.5,-161"/>
<text text-anchor="middle" x="39" y="-147.4" font-family="Helvetica,sans-Serif" font-size="12.00">Truncated</text>
</g>
<!-- Node11&#45;&gt;Node10 -->
<g id="edge2" class="edge">
<title>Node11&#45;&gt;Node10</title>
<path fill="none" stroke="midnightblue" d="M39,-129.7C39,-117.05 39,-101.22 39,-91.22"/>
<polygon fill="midnightblue" stroke="midnightblue" points="35.5,-129.76 39,-139.76 42.5,-129.76 35.5,-129.76"/>
</g>
<!-- Node13 -->
<g id="node4" class="node">
<title>Node13</title>
<polygon fill="none" stroke="black" points="191.5,-91 96.5,-91 96.5,-70 191.5,-70 191.5,-91"/>
<text text-anchor="middle" x="144" y="-77.4" font-family="Helvetica,sans-Serif" font-size="12.00">ProtectedBase</text>
</g>
<!-- Node13&#45;&gt;Node9 -->
<g id="edge3" class="edge">
<title>Node13&#45;&gt;Node9</title>
<path fill="none" stroke="darkgreen" d="M175.94,-66.01C207.39,-52.73 254.64,-32.77 282.39,-21.05"/>
<polygon fill="darkgreen" stroke="darkgreen" points="174.58,-62.79 166.73,-69.9 177.3,-69.23 174.58,-62.79"/>
</g>
<!-- Node14 -->
<g id="node5" class="node">
<title>Node14</title>
<polygon fill="none" stroke="black" points="292,-91 210,-91 210,-70 292,-70 292,-91"/>
<text text-anchor="middle" x="251" y="-77.4" font-family="Helvetica,sans-Serif" font-size="12.00">PrivateBase</text>
</g>
<!-- Node14&#45;&gt;Node9 -->
<g id="edge4" class="edge">
<title>Node14&#45;&gt;Node9</title>
<path fill="none" stroke="#8b1a1a" d="M265.23,-61.59C275.49,-48.67 288.94,-31.72 297.28,-21.22"/>
<polygon fill="#8b1a1a" stroke="#8b1a1a" points="262.21,-59.75 258.74,-69.76 267.7,-64.1 262.21,-59.75"/>
</g>
<!-- Node15 -->
<g id="node6" class="node">
<title>Node15</title>
<polygon fill="none" stroke="#bfbfbf" points="408,-91 310,-91 310,-70 408,-70 408,-91"/>
<text text-anchor="middle" x="359" y="-77.4" font-family="Helvetica,sans-Serif" font-size="12.00">Undocumented</text>
</g>
<!-- Node15&#45;&gt;Node9 -->
<g id="edge5" class="edge">
<title>Node15&#45;&gt;Node9</title>
<path fill="none" stroke="midnightblue" d="M344.77,-61.59C334.51,-48.67 321.06,-31.72 312.72,-21.22"/>
<polygon fill="midnightblue" stroke="midnightblue" points="342.3,-64.1 351.26,-69.76 347.79,-59.75 342.3,-64.1"/>
</g>
<!-- Node16 -->
<g id="node7" class="node">
<title>Node16</title>
<polygon fill="none" stroke="black" points="507.5,-91 426.5,-91 426.5,-70 507.5,-70 507.5,-91"/>
<text text-anchor="middle" x="467" y="-77.4" font-family="Helvetica,sans-Serif" font-size="12.00">Templ&lt; int &gt;</text>
</g>
<!-- Node16&#45;&gt;Node9 -->
<g id="edge6" class="edge">
<title>Node16&#45;&gt;Node9</title>
<path fill="none" stroke="midnightblue" d="M434.86,-66.01C403.21,-52.73 355.68,-32.77 327.75,-21.05"/>
<polygon fill="midnightblue" stroke="midnightblue" points="433.56,-69.26 444.13,-69.9 436.27,-62.8 433.56,-69.26"/>
</g>
<!-- Node17 -->
<g id="node8" class="node">
<title>Node17</title>
<polygon fill="none" stroke="black" points="505,-161 429,-161 429,-140 505,-140 505,-161"/>
<text text-anchor="middle" x="467" y="-147.4" font-family="Helvetica,sans-Serif" font-size="12.00">Templ&lt; T &gt;</text>
</g>
<!-- Node17&#45;&gt;Node16 -->
<g id="edge7" class="edge">
<title>Node17&#45;&gt;Node16</title>
<path fill="none" stroke="orange" stroke-dasharray="5,2" d="M467,-129.7C467,-117.05 467,-101.22 467,-91.22"/>
<polygon fill="orange" stroke="orange" points="463.5,-129.76 467,-139.76 470.5,-129.76 463.5,-129.76"/>
<text text-anchor="middle" x="483.5" y="-112.4" font-family="Helvetica,sans-Serif" font-size="12.00">&lt; int &gt;</text>
</g>
<!-- Node18 -->
<g id="node9" class="node">
<title>Node18</title>
<polygon fill="none" stroke="black" points="570.5,-91 525.5,-91 525.5,-70 570.5,-70 570.5,-91"/>
<text text-anchor="middle" x="548" y="-77.4" font-family="Helvetica,sans-Serif" font-size="12.00">Used</text>
</g>
<!-- Node18&#45;&gt;Node9 -->
<g id="edge8" class="edge">
<title>Node18&#45;&gt;Node9</title>
<path fill="none" stroke="#9a32cd" stroke-dasharray="5,2" d="M515.6,-69.64C446.54,-49.62 376.33,-30.58 336.69,-19.95"/>
<polygon fill="#9a32cd" stroke="#9a32cd" points="514.76,-73.04 525.34,-72.47 516.71,-66.32 514.76,-73.04"/>
<text text-anchor="middle" x="490" y="-42.4" font-family="Helvetica,sans-Serif" font-size="12.00">m_usedClass</text>
</g>
</g>
</svg>
