<?xml version="1.0" encoding="UTF-8" standalone="no"?>
<!DOCTYPE svg PUBLIC "-//W3C//DTD SVG 1.1//EN"
 "http://www.w3.org/Graphics/SVG/1.1/DTD/svg11.dtd">
<!-- Generated by graphviz version 2.42.4 (0)
 -->
<!-- Title: timedateutils::timeconv::timeconvisec Pages: 1 -->
<svg width="610pt" height="137pt"
 viewBox="0.00 0.00 610.00 137.00" xmlns="http://www.w3.org/2000/svg" xmlns:xlink="http://www.w3.org/1999/xlink">
<g id="graph0" class="graph" transform="scale(1 1) rotate(0) translate(4 133)">
<title>timedateutils::timeconv::timeconvisec</title>
<polygon fill="white" stroke="transparent" points="-4,4 -4,-133 606,-133 606,4 -4,4"/>
<!-- Node1 -->
<g id="node1" class="node">
<title>Node1</title>
<g id="a_node1"><a xlink:title="Convert time from year, month, day, hour, min, sec into seconds since the reference date of the simul...">
<polygon fill="#bfbfbf" stroke="black" points="0,-42 0,-76 138,-76 138,-42 0,-42"/>
<text text-anchor="start" x="8" y="-62.4" font-family="Helvetica,sans-Serif" font-size="12.00">timedateutils::timeconv</text>
<text text-anchor="middle" x="69" y="-49.4" font-family="Helvetica,sans-Serif" font-size="12.00">::timeconvisec</text>
</a>
</g>
</g>
<!-- Node2 -->
<g id="node2" class="node">
<title>Node2</title>
<g id="a_node2"><a xlink:href="namespacetimedateutils.html#a109255326a7eb93c3ccdb4b543c26385" target="_top" xlink:title="Calculates the elapsed time in seconds.">
<polygon fill="white" stroke="black" points="177,-107.5 177,-128.5 335,-128.5 335,-107.5 177,-107.5"/>
<text text-anchor="middle" x="256" y="-114.9" font-family="Helvetica,sans-Serif" font-size="12.00">timedateutils::elapsedsecs</text>
</a>
</g>
</g>
<!-- Node1&#45;&gt;Node2 -->
<g id="edge1" class="edge">
<title>Node1&#45;&gt;Node2</title>
<path fill="none" stroke="midnightblue" d="M121.52,-76.03C138.24,-81.51 156.89,-87.56 174,-93 185.83,-96.76 198.67,-100.76 210.55,-104.43"/>
<polygon fill="midnightblue" stroke="midnightblue" points="209.69,-107.82 220.27,-107.42 211.75,-101.13 209.69,-107.82"/>
</g>
<!-- Node4 -->
<g id="node4" class="node">
<title>Node4</title>
<g id="a_node4"><a xlink:href="namespacepahm__messages.html#acf0c696cc1604842ee84a5df6d81179c" target="_top" xlink:title="Sets the name of the subroutine that is writing log and/or screen messages.">
<polygon fill="white" stroke="black" points="380.5,-58.5 380.5,-79.5 595.5,-79.5 595.5,-58.5 380.5,-58.5"/>
<text text-anchor="middle" x="488" y="-65.9" font-family="Helvetica,sans-Serif" font-size="12.00">pahm_messages::setmessagesource</text>
</a>
</g>
</g>
<!-- Node1&#45;&gt;Node4 -->
<g id="edge3" class="edge">
<title>Node1&#45;&gt;Node4</title>
<path fill="none" stroke="midnightblue" d="M138.39,-60.64C201.06,-62.14 295.17,-64.4 369.82,-66.19"/>
<polygon fill="midnightblue" stroke="midnightblue" points="370.14,-69.7 380.22,-66.44 370.3,-62.7 370.14,-69.7"/>
</g>
<!-- Node5 -->
<g id="node5" class="node">
<title>Node5</title>
<g id="a_node5"><a xlink:href="namespacepahm__messages.html#a8fdeeba7e0469ebda6435518f619444b" target="_top" xlink:title="Terminates the calling program when a fatal error is encountered.">
<polygon fill="white" stroke="black" points="174,-29.5 174,-50.5 338,-50.5 338,-29.5 174,-29.5"/>
<text text-anchor="middle" x="256" y="-36.9" font-family="Helvetica,sans-Serif" font-size="12.00">pahm_messages::terminate</text>
</a>
</g>
</g>
<!-- Node1&#45;&gt;Node5 -->
<g id="edge4" class="edge">
<title>Node1&#45;&gt;Node5</title>
<path fill="none" stroke="midnightblue" d="M138.1,-52.01C146.47,-51.15 155.12,-50.26 163.76,-49.37"/>
<polygon fill="midnightblue" stroke="midnightblue" points="164.29,-52.83 173.88,-48.33 163.57,-45.87 164.29,-52.83"/>
</g>
<!-- Node6 -->
<g id="node6" class="node">
<title>Node6</title>
<g id="a_node6"><a xlink:href="namespacepahm__messages.html#ad35e9f2327aad65d4c669e3d886f54dc" target="_top" xlink:title="Removes the name of the subroutine that is no longer active.">
<polygon fill="white" stroke="black" points="374,-0.5 374,-21.5 602,-21.5 602,-0.5 374,-0.5"/>
<text text-anchor="middle" x="488" y="-7.9" font-family="Helvetica,sans-Serif" font-size="12.00">pahm_messages::unsetmessagesource</text>
</a>
</g>
</g>
<!-- Node1&#45;&gt;Node6 -->
<g id="edge7" class="edge">
<title>Node1&#45;&gt;Node6</title>
<path fill="none" stroke="midnightblue" d="M106.68,-41.85C126.21,-33.6 150.91,-24.53 174,-20 235.65,-7.9 305.42,-4.89 363.42,-5.23"/>
<polygon fill="midnightblue" stroke="midnightblue" points="363.7,-8.74 373.73,-5.33 363.77,-1.74 363.7,-8.74"/>
</g>
<!-- Node3 -->
<g id="node3" class="node">
<title>Node3</title>
<g id="a_node3"><a xlink:href="namespacetimedateutils.html#a6c7acacb9981bb9182378a449e45715b" target="_top" xlink:title="Calculates the conversion factor between time units and seconds.">
<polygon fill="white" stroke="black" points="401,-107.5 401,-128.5 575,-128.5 575,-107.5 401,-107.5"/>
<text text-anchor="middle" x="488" y="-114.9" font-family="Helvetica,sans-Serif" font-size="12.00">timedateutils::gettimeconvsec</text>
</a>
</g>
</g>
<!-- Node2&#45;&gt;Node3 -->
<g id="edge2" class="edge">
<title>Node2&#45;&gt;Node3</title>
<path fill="none" stroke="midnightblue" d="M335.19,-118C352.99,-118 372.11,-118 390.57,-118"/>
<polygon fill="midnightblue" stroke="midnightblue" points="390.74,-121.5 400.74,-118 390.74,-114.5 390.74,-121.5"/>
</g>
<!-- Node5&#45;&gt;Node4 -->
<g id="edge5" class="edge">
<title>Node5&#45;&gt;Node4</title>
<path fill="none" stroke="midnightblue" d="M338.09,-50.22C355.99,-52.48 375.09,-54.89 393.43,-57.2"/>
<polygon fill="midnightblue" stroke="midnightblue" points="393.17,-60.7 403.53,-58.48 394.05,-53.75 393.17,-60.7"/>
</g>
<!-- Node5&#45;&gt;Node6 -->
<g id="edge6" class="edge">
<title>Node5&#45;&gt;Node6</title>
<path fill="none" stroke="midnightblue" d="M338.09,-29.78C355.99,-27.52 375.09,-25.11 393.43,-22.8"/>
<polygon fill="midnightblue" stroke="midnightblue" points="394.05,-26.25 403.53,-21.52 393.17,-19.3 394.05,-26.25"/>
</g>
</g>
</svg>
