<?xml version="1.0" encoding="UTF-8" standalone="no"?>
<!DOCTYPE svg PUBLIC "-//W3C//DTD SVG 1.1//EN"
 "http://www.w3.org/Graphics/SVG/1.1/DTD/svg11.dtd">
<!-- Generated by graphviz version 2.42.4 (0)
 -->
<!-- Title: timedateutils::gregtojulday::gregtojulday2 Pages: 1 -->
<svg width="336pt" height="70pt"
 viewBox="0.00 0.00 336.00 70.00" xmlns="http://www.w3.org/2000/svg" xmlns:xlink="http://www.w3.org/1999/xlink">
<g id="graph0" class="graph" transform="scale(1 1) rotate(0) translate(4 66)">
<title>timedateutils::gregtojulday::gregtojulday2</title>
<polygon fill="white" stroke="transparent" points="-4,4 -4,-66 332,-66 332,4 -4,4"/>
<!-- Node1 -->
<g id="node1" class="node">
<title>Node1</title>
<g id="a_node1"><a xlink:title="Determines the Julian date from a Gregorian date.">
<polygon fill="#bfbfbf" stroke="black" points="0,-14 0,-48 155,-48 155,-14 0,-14"/>
<text text-anchor="start" x="8" y="-34.4" font-family="Helvetica,sans-Serif" font-size="12.00">timedateutils::gregtojulday</text>
<text text-anchor="middle" x="77.5" y="-21.4" font-family="Helvetica,sans-Serif" font-size="12.00">::gregtojulday2</text>
</a>
</g>
</g>
<!-- Node2 -->
<g id="node2" class="node">
<title>Node2</title>
<g id="a_node2"><a xlink:href="namespacetimedateutils.html#ac0661d72fdf8161ad7d0b30d0dc57bd6" target="_top" xlink:title="Checks for a leap year.">
<polygon fill="white" stroke="black" points="191,-40.5 191,-61.5 328,-61.5 328,-40.5 191,-40.5"/>
<text text-anchor="middle" x="259.5" y="-47.9" font-family="Helvetica,sans-Serif" font-size="12.00">timedateutils::leapyear</text>
</a>
</g>
</g>
<!-- Node1&#45;&gt;Node2 -->
<g id="edge1" class="edge">
<title>Node1&#45;&gt;Node2</title>
<path fill="none" stroke="midnightblue" d="M155.1,-39.51C163.53,-40.45 172.13,-41.4 180.58,-42.34"/>
<polygon fill="midnightblue" stroke="midnightblue" points="180.47,-45.85 190.8,-43.48 181.24,-38.89 180.47,-45.85"/>
</g>
<!-- Node3 -->
<g id="node3" class="node">
<title>Node3</title>
<g id="a_node3"><a xlink:href="namespacetimedateutils.html#a6954898ee8b7d8be2df0b30c0c167c87" target="_top" xlink:title="Pre&#45;processes an arbitrary date string.">
<polygon fill="white" stroke="black" points="192,-0.5 192,-21.5 327,-21.5 327,-0.5 192,-0.5"/>
<text text-anchor="middle" x="259.5" y="-7.9" font-family="Helvetica,sans-Serif" font-size="12.00">timedateutils::splitdate</text>
</a>
</g>
</g>
<!-- Node1&#45;&gt;Node3 -->
<g id="edge2" class="edge">
<title>Node1&#45;&gt;Node3</title>
<path fill="none" stroke="midnightblue" d="M155.1,-22.49C164,-21.5 173.07,-20.49 181.97,-19.5"/>
<polygon fill="midnightblue" stroke="midnightblue" points="182.37,-22.98 191.92,-18.4 181.6,-16.02 182.37,-22.98"/>
</g>
</g>
</svg>
