<?xml version="1.0" encoding="UTF-8" standalone="no"?>
<!DOCTYPE svg PUBLIC "-//W3C//DTD SVG 1.1//EN"
 "http://www.w3.org/Graphics/SVG/1.1/DTD/svg11.dtd">
<!-- Generated by graphviz version 2.42.4 (0)
 -->
<!-- Title: utilities::touppercase Pages: 1 -->
<!--zoomable 394 -->
<svg id="main" version="1.1" xmlns="http://www.w3.org/2000/svg" xmlns:xlink="http://www.w3.org/1999/xlink" xml:space="preserve" onload="init(evt)">
<style type="text/css"><![CDATA[
.edge:hover path { stroke: red; }
.edge:hover polygon { stroke: red; fill: red; }
]]></style>
<script type="text/javascript"><![CDATA[
var edges = document.getElementsByTagName('g');
if (edges && edges.length) {
  for (var i=0;i<edges.length;i++) {
    if (edges[i].id.substr(0,4)=='edge') {
      edges[i].setAttribute('class','edge');
    }
  }
}
]]></script>
        <defs>
                <circle id="rim" cx="0" cy="0" r="7"/>
                <circle id="rim2" cx="0" cy="0" r="3.5"/>
                <g id="zoomPlus">
                        <use xlink:href="#rim" fill="#404040">
                                <set attributeName="fill" to="#808080" begin="zoomplus.mouseover" end="zoomplus.mouseout"/>
                        </use>
                        <path d="M-4,0h8M0,-4v8" fill="none" stroke="white" stroke-width="1.5" pointer-events="none"/>
                </g>
                <g id="zoomMin">
                        <use xlink:href="#rim" fill="#404040">
                                <set attributeName="fill" to="#808080" begin="zoomminus.mouseover" end="zoomminus.mouseout"/>
                        </use>
                        <path d="M-4,0h8" fill="none" stroke="white" stroke-width="1.5" pointer-events="none"/>
                </g>
                <g id="dirArrow">
                        <path fill="none" stroke="white" stroke-width="1.5" d="M0,-3.0v7 M-2.5,-0.5L0,-3.0L2.5,-0.5"/>
                </g>
               <g id="resetDef">
                       <use xlink:href="#rim2" fill="#404040">
                               <set attributeName="fill" to="#808080" begin="reset.mouseover" end="reset.mouseout"/>
                       </use>
               </g>
        </defs>

<script type="text/javascript">
var viewWidth = 1123;
var viewHeight = 394;
var sectionId = 'dynsection-25';
</script>
<script xlink:href="svgpan.js"/>
<svg id="graph" class="graph">
<g id="viewport">
<title>utilities::touppercase</title>
<polygon fill="white" stroke="transparent" points="-4,4 -4,-389.5 1119,-389.5 1119,4 -4,4"/>
<!-- Node1 -->
<g id="node1" class="node">
<title>Node1</title>
<g id="a_node1"><a xlink:title="Convert a string to upper&#45;case.">
<polygon fill="#bfbfbf" stroke="black" points="989,-186 989,-207 1115,-207 1115,-186 989,-186"/>
<text text-anchor="middle" x="1052" y="-193.4" font-family="Helvetica,sans-Serif" font-size="12.00">utilities::touppercase</text>
</a>
</g>
</g>
<!-- Node2 -->
<g id="node2" class="node">
<title>Node2</title>
<g id="a_node2"><a xlink:href="namespaceutilities.html#a1e2f2593103f415e1c073284ff95a83f" target="_top" xlink:title="Checks the user defined control file inputs.">
<polygon fill="white" stroke="black" points="753,-206 753,-227 929,-227 929,-206 753,-206"/>
<text text-anchor="middle" x="841" y="-213.4" font-family="Helvetica,sans-Serif" font-size="12.00">utilities::checkcontrolfileinputs</text>
</a>
</g>
</g>
<!-- Node1&#45;&gt;Node2 -->
<g id="edge1" class="edge">
<title>Node1&#45;&gt;Node2</title>
<path fill="none" stroke="midnightblue" d="M978.55,-203.43C962.58,-204.96 945.51,-206.59 929.04,-208.17"/>
<polygon fill="midnightblue" stroke="midnightblue" points="979.24,-206.88 988.86,-202.45 978.57,-199.92 979.24,-206.88"/>
</g>
<!-- Node3 -->
<g id="node3" class="node">
<title>Node3</title>
<g id="a_node3"><a xlink:href="namespaceutilities.html#ab095172ef12ae151ab5c9aacf82f4dc6" target="_top" xlink:title="This subroutine reads the program&#39;s main control file.">
<polygon fill="white" stroke="black" points="549.5,-189 549.5,-210 685.5,-210 685.5,-189 549.5,-189"/>
<text text-anchor="middle" x="617.5" y="-196.4" font-family="Helvetica,sans-Serif" font-size="12.00">utilities::readcontrolfile</text>
</a>
</g>
</g>
<!-- Node1&#45;&gt;Node3 -->
<g id="edge18" class="edge">
<title>Node1&#45;&gt;Node3</title>
<path fill="none" stroke="midnightblue" d="M978.79,-195.94C913.52,-195.57 814.82,-195.34 729,-196.5 714.99,-196.69 699.99,-197.02 685.69,-197.38"/>
<polygon fill="midnightblue" stroke="midnightblue" points="978.95,-199.44 988.97,-196 978.99,-192.44 978.95,-199.44"/>
</g>
<!-- Node7 -->
<g id="node7" class="node">
<title>Node7</title>
<g id="a_node7"><a xlink:href="namespaceparwind.html#ad79f0c20f27839cc6d7f50d7d1698b7c" target="_top" xlink:title="Calculates wind velocities and MSL pressures at the mesh nodes from the GAHM Wind model.">
<polygon fill="white" stroke="black" points="547,-295 547,-316 688,-316 688,-295 547,-295"/>
<text text-anchor="middle" x="617.5" y="-302.4" font-family="Helvetica,sans-Serif" font-size="12.00">parwind::getgahmfields</text>
</a>
</g>
</g>
<!-- Node1&#45;&gt;Node7 -->
<g id="edge6" class="edge">
<title>Node1&#45;&gt;Node7</title>
<path fill="none" stroke="midnightblue" d="M1035.22,-214.65C1017.4,-233.75 986.48,-262.91 953,-276.5 866.72,-311.52 757.86,-314.13 688.21,-311.14"/>
<polygon fill="midnightblue" stroke="midnightblue" points="1037.9,-216.9 1042.03,-207.15 1032.72,-212.2 1037.9,-216.9"/>
</g>
<!-- Node9 -->
<g id="node9" class="node">
<title>Node9</title>
<g id="a_node9"><a xlink:href="namespaceutilities.html#ab30d13ba0fcebcb933a30be2237ec162" target="_top" xlink:title="This function parses lines of text from input script/control files.">
<polygon fill="white" stroke="black" points="786,-246 786,-267 896,-267 896,-246 786,-246"/>
<text text-anchor="middle" x="841" y="-253.4" font-family="Helvetica,sans-Serif" font-size="12.00">utilities::parseline</text>
</a>
</g>
</g>
<!-- Node1&#45;&gt;Node9 -->
<g id="edge9" class="edge">
<title>Node1&#45;&gt;Node9</title>
<path fill="none" stroke="midnightblue" d="M1019.57,-211.29C1000.64,-219.71 975.84,-229.86 953,-236.5 934.76,-241.8 914.41,-245.96 896.16,-249.07"/>
<polygon fill="midnightblue" stroke="midnightblue" points="1021.23,-214.39 1028.9,-207.08 1018.35,-208.01 1021.23,-214.39"/>
</g>
<!-- Node10 -->
<g id="node10" class="node">
<title>Node10</title>
<g id="a_node10"><a xlink:href="namespaceparwind.html#ac27ad597b28ef7e2b0f2eba529c0c3a2" target="_top" xlink:title="Subroutine to support the asymetric vortex model(s) (Holland or otherwise).">
<polygon fill="white" stroke="black" points="729,-324 729,-345 953,-345 953,-324 729,-324"/>
<text text-anchor="middle" x="841" y="-331.4" font-family="Helvetica,sans-Serif" font-size="12.00">parwind::processasymmetricvortexdata</text>
</a>
</g>
</g>
<!-- Node1&#45;&gt;Node10 -->
<g id="edge11" class="edge">
<title>Node1&#45;&gt;Node10</title>
<path fill="none" stroke="midnightblue" d="M1039.65,-216.02C1023.68,-241.65 992.13,-286.1 953,-309.5 942.57,-315.73 930.75,-320.42 918.8,-323.93"/>
<polygon fill="midnightblue" stroke="midnightblue" points="1042.8,-217.58 1044.98,-207.21 1036.81,-213.95 1042.8,-217.58"/>
</g>
<!-- Node11 -->
<g id="node11" class="node">
<title>Node11</title>
<g id="a_node11"><a xlink:href="namespaceparwind.html#a6efcf8be68b268f0a6d92ceb5f8c6f41" target="_top" xlink:title="Subroutine to support the Holland model(s) (GetHollandFields).">
<polygon fill="white" stroke="black" points="755.5,-364 755.5,-385 926.5,-385 926.5,-364 755.5,-364"/>
<text text-anchor="middle" x="841" y="-371.4" font-family="Helvetica,sans-Serif" font-size="12.00">parwind::processhollanddata</text>
</a>
</g>
</g>
<!-- Node1&#45;&gt;Node11 -->
<g id="edge13" class="edge">
<title>Node1&#45;&gt;Node11</title>
<path fill="none" stroke="midnightblue" d="M1044.49,-216.97C1032.42,-251.4 1003.11,-320.45 953,-354.5 944.98,-359.95 935.92,-364.04 926.51,-367.09"/>
<polygon fill="midnightblue" stroke="midnightblue" points="1047.94,-217.69 1047.81,-207.1 1041.31,-215.46 1047.94,-217.69"/>
</g>
<!-- Node13 -->
<g id="node13" class="node">
<title>Node13</title>
<g id="a_node13"><a xlink:href="namespaceparwind.html#abae6c098afd2135918a478b6b7b20673" target="_top" xlink:title="Subroutine to read all a&#45;deck/b&#45;deck best track files (ATCF format).">
<polygon fill="white" stroke="black" points="317.5,-93 317.5,-114 472.5,-114 472.5,-93 317.5,-93"/>
<text text-anchor="middle" x="395" y="-100.4" font-family="Helvetica,sans-Serif" font-size="12.00">parwind::readbesttrackfile</text>
</a>
</g>
</g>
<!-- Node1&#45;&gt;Node13 -->
<g id="edge16" class="edge">
<title>Node1&#45;&gt;Node13</title>
<path fill="none" stroke="midnightblue" d="M1023.07,-181.21C1003.91,-171.42 977.6,-159.32 953,-152.5 786.25,-106.29 581.67,-100.67 472.78,-101.53"/>
<polygon fill="midnightblue" stroke="midnightblue" points="1021.64,-184.42 1032.12,-185.94 1024.88,-178.21 1021.64,-184.42"/>
</g>
<!-- Node14 -->
<g id="node14" class="node">
<title>Node14</title>
<g id="a_node14"><a xlink:href="namespaceparwind.html#a75c722a5d8fdb18014543923d7e4dcca" target="_top" xlink:title="Subroutine to read all a&#45;deck/b&#45;deck best track files (ATCF format).">
<polygon fill="white" stroke="black" points="308.5,-53 308.5,-74 481.5,-74 481.5,-53 308.5,-53"/>
<text text-anchor="middle" x="395" y="-60.4" font-family="Helvetica,sans-Serif" font-size="12.00">parwind::readcsvbesttrackfile</text>
</a>
</g>
</g>
<!-- Node1&#45;&gt;Node14 -->
<g id="edge19" class="edge">
<title>Node1&#45;&gt;Node14</title>
<path fill="none" stroke="midnightblue" d="M1036.59,-178.23C1019.22,-157.72 987.97,-125.38 953,-110.5 796.95,-44.11 594.4,-46.46 481.55,-54.64"/>
<polygon fill="midnightblue" stroke="midnightblue" points="1033.89,-180.46 1042.95,-185.96 1039.29,-176.01 1033.89,-180.46"/>
</g>
<!-- Node15 -->
<g id="node15" class="node">
<title>Node15</title>
<g id="a_node15"><a xlink:href="namespacepahm__mesh.html#a6fd7801e4cbacfd2a7ce61c0fb31073c" target="_top" xlink:title="Reads an input mesh file for the specified supported model type.">
<polygon fill="white" stroke="black" points="546.5,-131 546.5,-152 688.5,-152 688.5,-131 546.5,-131"/>
<text text-anchor="middle" x="617.5" y="-138.4" font-family="Helvetica,sans-Serif" font-size="12.00">pahm_mesh::readmesh</text>
</a>
</g>
</g>
<!-- Node1&#45;&gt;Node15 -->
<g id="edge21" class="edge">
<title>Node1&#45;&gt;Node15</title>
<path fill="none" stroke="midnightblue" d="M978.5,-187.28C897.88,-177.03 768.53,-160.58 688.8,-150.44"/>
<polygon fill="midnightblue" stroke="midnightblue" points="978.21,-190.77 988.57,-188.56 979.09,-183.83 978.21,-190.77"/>
</g>
<!-- Node16 -->
<g id="node16" class="node">
<title>Node16</title>
<g id="a_node16"><a xlink:href="namespacesortutils.html#a7822b9599be6b22fd49ba0ad285bc3f9" target="_top" xlink:title="Performs a lexical comparison between two strings.">
<polygon fill="white" stroke="black" points="772,-11 772,-32 910,-32 910,-11 772,-11"/>
<text text-anchor="middle" x="841" y="-18.4" font-family="Helvetica,sans-Serif" font-size="12.00">sortutils::stringlexcomp</text>
</a>
</g>
</g>
<!-- Node1&#45;&gt;Node16 -->
<g id="edge23" class="edge">
<title>Node1&#45;&gt;Node16</title>
<path fill="none" stroke="midnightblue" d="M1043.08,-175.98C1029.62,-143.88 999.14,-82.09 953,-49.5 940.34,-40.56 925.09,-34.46 910,-30.31"/>
<polygon fill="midnightblue" stroke="midnightblue" points="1040,-177.69 1047,-185.64 1046.49,-175.06 1040,-177.69"/>
</g>
<!-- Node2&#45;&gt;Node3 -->
<g id="edge2" class="edge">
<title>Node2&#45;&gt;Node3</title>
<path fill="none" stroke="midnightblue" d="M742.78,-209.04C723.55,-207.56 703.76,-206.04 685.79,-204.66"/>
<polygon fill="midnightblue" stroke="midnightblue" points="742.54,-212.53 752.78,-209.81 743.07,-205.55 742.54,-212.53"/>
</g>
<!-- Node4 -->
<g id="node4" class="node">
<title>Node4</title>
<g id="a_node4"><a xlink:href="namespacepahm__drivermod.html#a3294ddc68b72ff9220010a8764a8afe3" target="_top" xlink:title="Prints on the screen the help system of the PaHM program.">
<polygon fill="white" stroke="black" points="284,-180 284,-201 506,-201 506,-180 284,-180"/>
<text text-anchor="middle" x="395" y="-187.4" font-family="Helvetica,sans-Serif" font-size="12.00">pahm_drivermod::getprogramcmdlargs</text>
</a>
</g>
</g>
<!-- Node3&#45;&gt;Node4 -->
<g id="edge3" class="edge">
<title>Node3&#45;&gt;Node4</title>
<path fill="none" stroke="midnightblue" d="M539.33,-196.35C528.62,-195.91 517.45,-195.46 506.28,-195"/>
<polygon fill="midnightblue" stroke="midnightblue" points="539.31,-199.85 549.44,-196.76 539.6,-192.86 539.31,-199.85"/>
</g>
<!-- Node5 -->
<g id="node5" class="node">
<title>Node5</title>
<g id="a_node5"><a xlink:href="namespacepahm__drivermod.html#ae0d4b223a96ba116b38152caf6b0768c" target="_top" xlink:title="Subroutine to initialize a PaHM run.">
<polygon fill="white" stroke="black" points="83,-132 83,-153 248,-153 248,-132 83,-132"/>
<text text-anchor="middle" x="165.5" y="-139.4" font-family="Helvetica,sans-Serif" font-size="12.00">pahm_drivermod::pahm_init</text>
</a>
</g>
</g>
<!-- Node4&#45;&gt;Node5 -->
<g id="edge4" class="edge">
<title>Node4&#45;&gt;Node5</title>
<path fill="none" stroke="midnightblue" d="M334,-177.84C297.32,-170.1 250.95,-160.32 216.31,-153.01"/>
<polygon fill="midnightblue" stroke="midnightblue" points="333.57,-181.33 344.07,-179.97 335.01,-174.48 333.57,-181.33"/>
</g>
<!-- Node6 -->
<g id="node6" class="node">
<title>Node6</title>
<g id="a_node6"><a xlink:href="pahm_8F90.html#a3d3918f5c5f1ac0a7991a7a78f530f30" target="_top" xlink:title=" ">
<polygon fill="white" stroke="black" points="0,-151 0,-172 47,-172 47,-151 0,-151"/>
<text text-anchor="middle" x="23.5" y="-158.4" font-family="Helvetica,sans-Serif" font-size="12.00">pahm</text>
</a>
</g>
</g>
<!-- Node5&#45;&gt;Node6 -->
<g id="edge5" class="edge">
<title>Node5&#45;&gt;Node6</title>
<path fill="none" stroke="midnightblue" d="M76.92,-154.39C65.95,-155.87 55.6,-157.28 47.04,-158.44"/>
<polygon fill="midnightblue" stroke="midnightblue" points="77.69,-157.81 87.13,-153 76.75,-150.88 77.69,-157.81"/>
</g>
<!-- Node8 -->
<g id="node8" class="node">
<title>Node8</title>
<g id="a_node8"><a xlink:href="namespacepahm__drivermod.html#a7ae4571521a5bb4eb55990dd7fb76237" target="_top" xlink:title="Subroutine to run PaHM (timestepping).">
<polygon fill="white" stroke="black" points="311.5,-295 311.5,-316 478.5,-316 478.5,-295 311.5,-295"/>
<text text-anchor="middle" x="395" y="-302.4" font-family="Helvetica,sans-Serif" font-size="12.00">pahm_drivermod::pahm_run</text>
</a>
</g>
</g>
<!-- Node7&#45;&gt;Node8 -->
<g id="edge7" class="edge">
<title>Node7&#45;&gt;Node8</title>
<path fill="none" stroke="midnightblue" d="M536.72,-305.5C517.89,-305.5 497.77,-305.5 478.81,-305.5"/>
<polygon fill="midnightblue" stroke="midnightblue" points="536.73,-309 546.73,-305.5 536.73,-302 536.73,-309"/>
</g>
<!-- Node8&#45;&gt;Node6 -->
<g id="edge8" class="edge">
<title>Node8&#45;&gt;Node6</title>
<path fill="none" stroke="midnightblue" d="M357.21,-291.16C281.34,-261.59 109.41,-194.59 47.37,-170.41"/>
<polygon fill="midnightblue" stroke="midnightblue" points="356.24,-294.54 366.83,-294.91 358.78,-288.02 356.24,-294.54"/>
</g>
<!-- Node9&#45;&gt;Node3 -->
<g id="edge10" class="edge">
<title>Node9&#45;&gt;Node3</title>
<path fill="none" stroke="midnightblue" d="M775.77,-246.56C760.36,-243.72 744.02,-240.35 729,-236.5 700.39,-229.17 668.47,-218.17 646.32,-210.06"/>
<polygon fill="midnightblue" stroke="midnightblue" points="775.28,-250.03 785.74,-248.34 776.52,-243.14 775.28,-250.03"/>
</g>
<!-- Node10&#45;&gt;Node7 -->
<g id="edge12" class="edge">
<title>Node10&#45;&gt;Node7</title>
<path fill="none" stroke="midnightblue" d="M749.74,-322.68C729.24,-320 707.76,-317.19 688.26,-314.63"/>
<polygon fill="midnightblue" stroke="midnightblue" points="749.35,-326.16 759.72,-323.99 750.26,-319.22 749.35,-326.16"/>
</g>
<!-- Node12 -->
<g id="node12" class="node">
<title>Node12</title>
<g id="a_node12"><a xlink:href="namespaceparwind.html#ad2cf2a3c40591a24959e6dd126066294" target="_top" xlink:title="Calculates wind velocities and MSL pressures at the mesh nodes from the P&#45;W Holland Wind model.">
<polygon fill="white" stroke="black" points="542,-354 542,-375 693,-375 693,-354 542,-354"/>
<text text-anchor="middle" x="617.5" y="-361.4" font-family="Helvetica,sans-Serif" font-size="12.00">parwind::gethollandfields</text>
</a>
</g>
</g>
<!-- Node11&#45;&gt;Node12 -->
<g id="edge14" class="edge">
<title>Node11&#45;&gt;Node12</title>
<path fill="none" stroke="midnightblue" d="M745.12,-370.22C727.69,-369.43 709.73,-368.62 693,-367.86"/>
<polygon fill="midnightblue" stroke="midnightblue" points="745.16,-373.72 755.31,-370.68 745.48,-366.73 745.16,-373.72"/>
</g>
<!-- Node12&#45;&gt;Node8 -->
<g id="edge15" class="edge">
<title>Node12&#45;&gt;Node8</title>
<path fill="none" stroke="midnightblue" d="M567.33,-351.34C527.58,-340.71 472.35,-325.93 435.45,-316.06"/>
<polygon fill="midnightblue" stroke="midnightblue" points="566.51,-354.75 577.08,-353.95 568.32,-347.99 566.51,-354.75"/>
</g>
<!-- Node13&#45;&gt;Node5 -->
<g id="edge17" class="edge">
<title>Node13&#45;&gt;Node5</title>
<path fill="none" stroke="midnightblue" d="M322.62,-115.74C292.21,-120.95 257.09,-126.97 227.87,-131.98"/>
<polygon fill="midnightblue" stroke="midnightblue" points="323.47,-119.14 332.73,-114 322.29,-112.24 323.47,-119.14"/>
</g>
<!-- Node14&#45;&gt;Node5 -->
<g id="edge20" class="edge">
<title>Node14&#45;&gt;Node5</title>
<path fill="none" stroke="midnightblue" d="M309.7,-76.26C300.93,-78.35 292.23,-80.75 284,-83.5 246.55,-96.02 206.05,-118.56 183.73,-131.86"/>
<polygon fill="midnightblue" stroke="midnightblue" points="310.61,-79.65 319.6,-74.04 309.08,-72.82 310.61,-79.65"/>
</g>
<!-- Node15&#45;&gt;Node5 -->
<g id="edge22" class="edge">
<title>Node15&#45;&gt;Node5</title>
<path fill="none" stroke="midnightblue" d="M536,-141.68C454.72,-141.86 329.81,-142.14 248.12,-142.32"/>
<polygon fill="midnightblue" stroke="midnightblue" points="536.2,-145.18 546.19,-141.66 536.18,-138.18 536.2,-145.18"/>
</g>
<!-- Node17 -->
<g id="node17" class="node">
<title>Node17</title>
<g id="a_node17"><a xlink:href="interfacesortutils_1_1indexx.html#ae59fb4eaf41ea6af9149f9dc28df4421" target="_top" xlink:title="Indexes a 1D string array in ascending order.">
<polygon fill="white" stroke="black" points="565,-0.5 565,-34.5 670,-34.5 670,-0.5 565,-0.5"/>
<text text-anchor="start" x="573" y="-20.9" font-family="Helvetica,sans-Serif" font-size="12.00">sortutils::indexx::</text>
<text text-anchor="middle" x="617.5" y="-7.9" font-family="Helvetica,sans-Serif" font-size="12.00">indexxstring</text>
</a>
</g>
</g>
<!-- Node16&#45;&gt;Node17 -->
<g id="edge24" class="edge">
<title>Node16&#45;&gt;Node17</title>
<path fill="none" stroke="midnightblue" d="M761.58,-20.08C731.17,-19.53 697.21,-18.92 670.01,-18.43"/>
<polygon fill="midnightblue" stroke="midnightblue" points="761.67,-23.59 771.74,-20.27 761.8,-16.59 761.67,-23.59"/>
</g>
</g>
</svg>
        <g id="navigator" transform="translate(0 0)" fill="#404254">
                <rect fill="#f2f5e9" fill-opacity="0.5" stroke="#606060" stroke-width=".5" x="0" y="0" width="60" height="60"/>
                <use id="zoomplus" xlink:href="#zoomPlus" x="17" y="9" onmousedown="handleZoom(evt,'in')"/>
                <use id="zoomminus" xlink:href="#zoomMin" x="42" y="9" onmousedown="handleZoom(evt,'out')"/>
                <use id="reset" xlink:href="#resetDef" x="30" y="36" onmousedown="handleReset()"/>
                <g id="arrowUp" xlink:href="#dirArrow" transform="translate(30 24)" onmousedown="handlePan(0,-1)">
                  <use xlink:href="#rim" fill="#404040">
                        <set attributeName="fill" to="#808080" begin="arrowUp.mouseover" end="arrowUp.mouseout"/>
                  </use>
                  <path fill="none" stroke="white" stroke-width="1.5" d="M0,-3.0v7 M-2.5,-0.5L0,-3.0L2.5,-0.5"/>
                </g>
                <g id="arrowRight" xlink:href="#dirArrow" transform="rotate(90) translate(36 -43)" onmousedown="handlePan(1,0)">
                  <use xlink:href="#rim" fill="#404040">
                        <set attributeName="fill" to="#808080" begin="arrowRight.mouseover" end="arrowRight.mouseout"/>
                  </use>
                  <path fill="none" stroke="white" stroke-width="1.5" d="M0,-3.0v7 M-2.5,-0.5L0,-3.0L2.5,-0.5"/>
                </g>
                <g id="arrowDown" xlink:href="#dirArrow" transform="rotate(180) translate(-30 -48)" onmousedown="handlePan(0,1)">
                  <use xlink:href="#rim" fill="#404040">
                        <set attributeName="fill" to="#808080" begin="arrowDown.mouseover" end="arrowDown.mouseout"/>
                  </use>
                  <path fill="none" stroke="white" stroke-width="1.5" d="M0,-3.0v7 M-2.5,-0.5L0,-3.0L2.5,-0.5"/>
                </g>
                <g id="arrowLeft" xlink:href="#dirArrow" transform="rotate(270) translate(-36 17)" onmousedown="handlePan(-1,0)">
                  <use xlink:href="#rim" fill="#404040">
                        <set attributeName="fill" to="#808080" begin="arrowLeft.mouseover" end="arrowLeft.mouseout"/>
                  </use>
                  <path fill="none" stroke="white" stroke-width="1.5" d="M0,-3.0v7 M-2.5,-0.5L0,-3.0L2.5,-0.5"/>
                </g>
        </g>
        <svg viewBox="0 0 15 15" width="100%" height="30px" preserveAspectRatio="xMaxYMin meet">
         <g id="arrow_out" transform="scale(0.3 0.3)">
          <a xlink:href="namespaceutilities_a8dff395c74e87d059dadcf8bacdbfedd_icgraph_org.svg" target="_base">
           <rect id="button" ry="5" rx="5" y="6" x="6" height="38" width="38"
                fill="#f2f5e9" fill-opacity="0.5" stroke="#606060" stroke-width="1.0"/>
           <path id="arrow"
             d="M 11.500037,31.436501 C 11.940474,20.09759 22.043105,11.32322 32.158766,21.979434 L 37.068811,17.246167 C 37.068811,17.246167 37.088388,32 37.088388,32 L 22.160133,31.978069 C 22.160133,31.978069 26.997745,27.140456 26.997745,27.140456 C 18.528582,18.264221 13.291696,25.230495 11.500037,31.436501 z"
             style="fill:#404040;"/>
          </a>
         </g>
        </svg>
</svg>
