<?xml version="1.0" encoding="UTF-8" standalone="no"?>
<!DOCTYPE svg PUBLIC "-//W3C//DTD SVG 1.1//EN"
 "http://www.w3.org/Graphics/SVG/1.1/DTD/svg11.dtd">
<!-- Generated by graphviz version 2.42.4 (0)
 -->
<!-- Title: pahm_messages::openlogfile Pages: 1 -->
<svg width="929pt" height="50pt"
 viewBox="0.00 0.00 929.00 50.00" xmlns="http://www.w3.org/2000/svg" xmlns:xlink="http://www.w3.org/1999/xlink">
<g id="graph0" class="graph" transform="scale(1 1) rotate(0) translate(4 46)">
<title>pahm_messages::openlogfile</title>
<polygon fill="white" stroke="transparent" points="-4,4 -4,-46 925,-46 925,4 -4,4"/>
<!-- Node1 -->
<g id="node1" class="node">
<title>Node1</title>
<g id="a_node1"><a xlink:title="Opens the log file for writting.">
<polygon fill="#bfbfbf" stroke="black" points="748,-0.5 748,-21.5 921,-21.5 921,-0.5 748,-0.5"/>
<text text-anchor="middle" x="834.5" y="-7.9" font-family="Helvetica,sans-Serif" font-size="12.00">pahm_messages::openlogfile</text>
</a>
</g>
</g>
<!-- Node2 -->
<g id="node2" class="node">
<title>Node2</title>
<g id="a_node2"><a xlink:href="namespacepahm__messages.html#ad2fb6cca6853de16ee45c8cdebe6190a" target="_top" xlink:title="Initializes logging levels.">
<polygon fill="white" stroke="black" points="542,-0.5 542,-21.5 712,-21.5 712,-0.5 542,-0.5"/>
<text text-anchor="middle" x="627" y="-7.9" font-family="Helvetica,sans-Serif" font-size="12.00">pahm_messages::initlogging</text>
</a>
</g>
</g>
<!-- Node1&#45;&gt;Node2 -->
<g id="edge1" class="edge">
<title>Node1&#45;&gt;Node2</title>
<path fill="none" stroke="midnightblue" d="M737.84,-11C729.28,-11 720.65,-11 712.2,-11"/>
<polygon fill="midnightblue" stroke="midnightblue" points="737.84,-14.5 747.84,-11 737.84,-7.5 737.84,-14.5"/>
</g>
<!-- Node3 -->
<g id="node3" class="node">
<title>Node3</title>
<g id="a_node3"><a xlink:href="namespacepahm__drivermod.html#a3294ddc68b72ff9220010a8764a8afe3" target="_top" xlink:title="Prints on the screen the help system of the PaHM program.">
<polygon fill="white" stroke="black" points="284,-20.5 284,-41.5 506,-41.5 506,-20.5 284,-20.5"/>
<text text-anchor="middle" x="395" y="-27.9" font-family="Helvetica,sans-Serif" font-size="12.00">pahm_drivermod::getprogramcmdlargs</text>
</a>
</g>
</g>
<!-- Node2&#45;&gt;Node3 -->
<g id="edge2" class="edge">
<title>Node2&#45;&gt;Node3</title>
<path fill="none" stroke="midnightblue" d="M531.76,-19.19C523.3,-19.93 514.68,-20.68 506.11,-21.43"/>
<polygon fill="midnightblue" stroke="midnightblue" points="532.33,-22.66 541.99,-18.31 531.72,-15.68 532.33,-22.66"/>
</g>
<!-- Node4 -->
<g id="node4" class="node">
<title>Node4</title>
<g id="a_node4"><a xlink:href="namespacepahm__drivermod.html#ae0d4b223a96ba116b38152caf6b0768c" target="_top" xlink:title="Subroutine to initialize a PaHM run.">
<polygon fill="white" stroke="black" points="83,-0.5 83,-21.5 248,-21.5 248,-0.5 83,-0.5"/>
<text text-anchor="middle" x="165.5" y="-7.9" font-family="Helvetica,sans-Serif" font-size="12.00">pahm_drivermod::pahm_init</text>
</a>
</g>
</g>
<!-- Node2&#45;&gt;Node4 -->
<g id="edge5" class="edge">
<title>Node2&#45;&gt;Node4</title>
<path fill="none" stroke="midnightblue" d="M531.73,-11C448.2,-11 327.48,-11 248.03,-11"/>
<polygon fill="midnightblue" stroke="midnightblue" points="531.99,-14.5 541.99,-11 531.99,-7.5 531.99,-14.5"/>
</g>
<!-- Node3&#45;&gt;Node4 -->
<g id="edge3" class="edge">
<title>Node3&#45;&gt;Node4</title>
<path fill="none" stroke="midnightblue" d="M273.77,-20.43C265.14,-19.67 256.56,-18.92 248.22,-18.18"/>
<polygon fill="midnightblue" stroke="midnightblue" points="273.65,-23.93 283.92,-21.32 274.26,-16.96 273.65,-23.93"/>
</g>
<!-- Node5 -->
<g id="node5" class="node">
<title>Node5</title>
<g id="a_node5"><a xlink:href="pahm_8F90.html#a3d3918f5c5f1ac0a7991a7a78f530f30" target="_top" xlink:title=" ">
<polygon fill="white" stroke="black" points="0,-0.5 0,-21.5 47,-21.5 47,-0.5 0,-0.5"/>
<text text-anchor="middle" x="23.5" y="-7.9" font-family="Helvetica,sans-Serif" font-size="12.00">pahm</text>
</a>
</g>
</g>
<!-- Node4&#45;&gt;Node5 -->
<g id="edge4" class="edge">
<title>Node4&#45;&gt;Node5</title>
<path fill="none" stroke="midnightblue" d="M72.42,-11C63.15,-11 54.47,-11 47.1,-11"/>
<polygon fill="midnightblue" stroke="midnightblue" points="72.66,-14.5 82.66,-11 72.66,-7.5 72.66,-14.5"/>
</g>
</g>
</svg>
