<?xml version="1.0" encoding="UTF-8" standalone="no"?>
<!DOCTYPE svg PUBLIC "-//W3C//DTD SVG 1.1//EN"
 "http://www.w3.org/Graphics/SVG/1.1/DTD/svg11.dtd">
<!-- Generated by graphviz version 2.42.4 (0)
 -->
<!-- Title: pahm_messages::terminate Pages: 1 -->
<svg width="436pt" height="70pt"
 viewBox="0.00 0.00 436.00 70.00" xmlns="http://www.w3.org/2000/svg" xmlns:xlink="http://www.w3.org/1999/xlink">
<g id="graph0" class="graph" transform="scale(1 1) rotate(0) translate(4 66)">
<title>pahm_messages::terminate</title>
<polygon fill="white" stroke="transparent" points="-4,4 -4,-66 432,-66 432,4 -4,4"/>
<!-- Node1 -->
<g id="node1" class="node">
<title>Node1</title>
<g id="a_node1"><a xlink:title="Terminates the calling program when a fatal error is encountered.">
<polygon fill="#bfbfbf" stroke="black" points="0,-20.5 0,-41.5 164,-41.5 164,-20.5 0,-20.5"/>
<text text-anchor="middle" x="82" y="-27.9" font-family="Helvetica,sans-Serif" font-size="12.00">pahm_messages::terminate</text>
</a>
</g>
</g>
<!-- Node2 -->
<g id="node2" class="node">
<title>Node2</title>
<g id="a_node2"><a xlink:href="namespacepahm__messages.html#acf0c696cc1604842ee84a5df6d81179c" target="_top" xlink:title="Sets the name of the subroutine that is writing log and/or screen messages.">
<polygon fill="white" stroke="black" points="206.5,-40.5 206.5,-61.5 421.5,-61.5 421.5,-40.5 206.5,-40.5"/>
<text text-anchor="middle" x="314" y="-47.9" font-family="Helvetica,sans-Serif" font-size="12.00">pahm_messages::setmessagesource</text>
</a>
</g>
</g>
<!-- Node1&#45;&gt;Node2 -->
<g id="edge1" class="edge">
<title>Node1&#45;&gt;Node2</title>
<path fill="none" stroke="midnightblue" d="M164.09,-38.05C174.59,-38.96 185.5,-39.91 196.42,-40.86"/>
<polygon fill="midnightblue" stroke="midnightblue" points="196.19,-44.36 206.46,-41.74 196.8,-37.38 196.19,-44.36"/>
</g>
<!-- Node3 -->
<g id="node3" class="node">
<title>Node3</title>
<g id="a_node3"><a xlink:href="namespacepahm__messages.html#ad35e9f2327aad65d4c669e3d886f54dc" target="_top" xlink:title="Removes the name of the subroutine that is no longer active.">
<polygon fill="white" stroke="black" points="200,-0.5 200,-21.5 428,-21.5 428,-0.5 200,-0.5"/>
<text text-anchor="middle" x="314" y="-7.9" font-family="Helvetica,sans-Serif" font-size="12.00">pahm_messages::unsetmessagesource</text>
</a>
</g>
</g>
<!-- Node1&#45;&gt;Node3 -->
<g id="edge2" class="edge">
<title>Node1&#45;&gt;Node3</title>
<path fill="none" stroke="midnightblue" d="M164.09,-23.95C172.46,-23.22 181.08,-22.47 189.78,-21.72"/>
<polygon fill="midnightblue" stroke="midnightblue" points="190.34,-25.18 200,-20.83 189.73,-18.21 190.34,-25.18"/>
</g>
</g>
</svg>
