<?xml version="1.0" encoding="UTF-8" standalone="no"?>
<!DOCTYPE svg PUBLIC "-//W3C//DTD SVG 1.1//EN"
 "http://www.w3.org/Graphics/SVG/1.1/DTD/svg11.dtd">
<!-- Generated by graphviz version 2.42.4 (0)
 -->
<!-- Title: csv_module::get_character_column Pages: 1 -->
<svg width="432pt" height="70pt"
 viewBox="0.00 0.00 432.00 70.00" xmlns="http://www.w3.org/2000/svg" xmlns:xlink="http://www.w3.org/1999/xlink">
<g id="graph0" class="graph" transform="scale(1 1) rotate(0) translate(4 66)">
<title>csv_module::get_character_column</title>
<polygon fill="white" stroke="transparent" points="-4,4 -4,-66 428,-66 428,4 -4,4"/>
<!-- Node1 -->
<g id="node1" class="node">
<title>Node1</title>
<g id="a_node1"><a xlink:title="Convert a column from a &#39;csv_string&#39; matrix to a &#39;character(len=*)&#39; vector.">
<polygon fill="#bfbfbf" stroke="black" points="0,-14 0,-48 160,-48 160,-14 0,-14"/>
<text text-anchor="start" x="8" y="-34.4" font-family="Helvetica,sans-Serif" font-size="12.00">csv_module::get_character</text>
<text text-anchor="middle" x="80" y="-21.4" font-family="Helvetica,sans-Serif" font-size="12.00">_column</text>
</a>
</g>
</g>
<!-- Node2 -->
<g id="node2" class="node">
<title>Node2</title>
<g id="a_node2"><a xlink:href="namespacepahm__messages.html#acf0c696cc1604842ee84a5df6d81179c" target="_top" xlink:title="Sets the name of the subroutine that is writing log and/or screen messages.">
<polygon fill="white" stroke="black" points="202.5,-40.5 202.5,-61.5 417.5,-61.5 417.5,-40.5 202.5,-40.5"/>
<text text-anchor="middle" x="310" y="-47.9" font-family="Helvetica,sans-Serif" font-size="12.00">pahm_messages::setmessagesource</text>
</a>
</g>
</g>
<!-- Node1&#45;&gt;Node2 -->
<g id="edge1" class="edge">
<title>Node1&#45;&gt;Node2</title>
<path fill="none" stroke="midnightblue" d="M160.1,-37.94C170.54,-38.85 181.41,-39.81 192.31,-40.76"/>
<polygon fill="midnightblue" stroke="midnightblue" points="192.06,-44.26 202.32,-41.64 192.67,-37.28 192.06,-44.26"/>
</g>
<!-- Node3 -->
<g id="node3" class="node">
<title>Node3</title>
<g id="a_node3"><a xlink:href="namespacepahm__messages.html#ad35e9f2327aad65d4c669e3d886f54dc" target="_top" xlink:title="Removes the name of the subroutine that is no longer active.">
<polygon fill="white" stroke="black" points="196,-0.5 196,-21.5 424,-21.5 424,-0.5 196,-0.5"/>
<text text-anchor="middle" x="310" y="-7.9" font-family="Helvetica,sans-Serif" font-size="12.00">pahm_messages::unsetmessagesource</text>
</a>
</g>
</g>
<!-- Node1&#45;&gt;Node3 -->
<g id="edge2" class="edge">
<title>Node1&#45;&gt;Node3</title>
<path fill="none" stroke="midnightblue" d="M160.1,-24.06C168.42,-23.33 177.02,-22.58 185.68,-21.82"/>
<polygon fill="midnightblue" stroke="midnightblue" points="186.22,-25.28 195.88,-20.92 185.61,-18.31 186.22,-25.28"/>
</g>
</g>
</svg>
