<?xml version="1.0" encoding="UTF-8" standalone="no"?>
<!DOCTYPE svg PUBLIC "-//W3C//DTD SVG 1.1//EN"
 "http://www.w3.org/Graphics/SVG/1.1/DTD/svg11.dtd">
<!-- Generated by graphviz version 2.42.4 (0)
 -->
<!-- Title: pahm_netcdfio::initadcircnetcdfoutfile Pages: 1 -->
<svg width="962pt" height="227pt"
 viewBox="0.00 0.00 962.00 226.68" xmlns="http://www.w3.org/2000/svg" xmlns:xlink="http://www.w3.org/1999/xlink">
<g id="graph0" class="graph" transform="scale(1 1) rotate(0) translate(4 222.68)">
<title>pahm_netcdfio::initadcircnetcdfoutfile</title>
<polygon fill="white" stroke="transparent" points="-4,4 -4,-222.68 958,-222.68 958,4 -4,4"/>
<!-- Node1 -->
<g id="node1" class="node">
<title>Node1</title>
<g id="a_node1"><a xlink:title="Initializes a new NetCDF data file and puts it in define mode. Sets up netCDF dimensions and variable...">
<polygon fill="#bfbfbf" stroke="black" points="0,-118.18 0,-139.18 214,-139.18 214,-118.18 0,-118.18"/>
<text text-anchor="middle" x="107" y="-125.58" font-family="Helvetica,sans-Serif" font-size="12.00">pahm_netcdfio::initadcircnetcdfoutfile</text>
</a>
</g>
</g>
<!-- Node2 -->
<g id="node2" class="node">
<title>Node2</title>
<g id="a_node2"><a xlink:href="namespacetimedateutils.html#a565d549493d69e2c9ea5b7af18247df5" target="_top" xlink:title="Constructs a NetCDF time string.">
<polygon fill="white" stroke="black" points="274,-197.18 274,-218.18 446,-218.18 446,-197.18 274,-197.18"/>
<text text-anchor="middle" x="360" y="-204.58" font-family="Helvetica,sans-Serif" font-size="12.00">timedateutils::datetime2string</text>
</a>
</g>
</g>
<!-- Node1&#45;&gt;Node2 -->
<g id="edge1" class="edge">
<title>Node1&#45;&gt;Node2</title>
<path fill="none" stroke="midnightblue" d="M129.61,-139.36C157,-152.5 205.97,-174.66 250,-187.68 259.41,-190.47 269.4,-192.94 279.36,-195.1"/>
<polygon fill="midnightblue" stroke="midnightblue" points="278.78,-198.56 289.28,-197.17 280.21,-191.71 278.78,-198.56"/>
</g>
<!-- Node3 -->
<g id="node3" class="node">
<title>Node3</title>
<g id="a_node3"><a xlink:href="namespacetimedateutils.html#a6c7acacb9981bb9182378a449e45715b" target="_top" xlink:title="Calculates the conversion factor between time units and seconds.">
<polygon fill="white" stroke="black" points="273,-157.18 273,-178.18 447,-178.18 447,-157.18 273,-157.18"/>
<text text-anchor="middle" x="360" y="-164.58" font-family="Helvetica,sans-Serif" font-size="12.00">timedateutils::gettimeconvsec</text>
</a>
</g>
</g>
<!-- Node1&#45;&gt;Node3 -->
<g id="edge2" class="edge">
<title>Node1&#45;&gt;Node3</title>
<path fill="none" stroke="midnightblue" d="M175.59,-139.19C208.1,-144.24 247.23,-150.32 280.99,-155.56"/>
<polygon fill="midnightblue" stroke="midnightblue" points="280.87,-159.09 291.29,-157.16 281.94,-152.17 280.87,-159.09"/>
</g>
<!-- Node4 -->
<g id="node4" class="node">
<title>Node4</title>
<g id="a_node4"><a xlink:href="namespacepahm__netcdfio.html#a850b1df36d9d2d229b8b03f0558c3703" target="_top" xlink:title="Creates a new NetCDF data file and puts it in define mode.">
<polygon fill="white" stroke="black" points="250,-60.18 250,-81.18 470,-81.18 470,-60.18 250,-60.18"/>
<text text-anchor="middle" x="360" y="-67.58" font-family="Helvetica,sans-Serif" font-size="12.00">pahm_netcdfio::newadcircnetcdfoutfile</text>
</a>
</g>
</g>
<!-- Node1&#45;&gt;Node4 -->
<g id="edge3" class="edge">
<title>Node1&#45;&gt;Node4</title>
<path fill="none" stroke="midnightblue" d="M153.45,-118.18C195.61,-108.44 258.46,-93.92 303.55,-83.5"/>
<polygon fill="midnightblue" stroke="midnightblue" points="304.51,-86.87 313.46,-81.21 302.93,-80.05 304.51,-86.87"/>
</g>
<!-- Node6 -->
<g id="node6" class="node">
<title>Node6</title>
<g id="a_node6"><a xlink:href="namespacepahm__messages.html#acf0c696cc1604842ee84a5df6d81179c" target="_top" xlink:title="Sets the name of the subroutine that is writing log and/or screen messages.">
<polygon fill="white" stroke="black" points="732.5,-2.18 732.5,-23.18 947.5,-23.18 947.5,-2.18 732.5,-2.18"/>
<text text-anchor="middle" x="840" y="-9.58" font-family="Helvetica,sans-Serif" font-size="12.00">pahm_messages::setmessagesource</text>
</a>
</g>
</g>
<!-- Node1&#45;&gt;Node6 -->
<g id="edge9" class="edge">
<title>Node1&#45;&gt;Node6</title>
<path fill="none" stroke="midnightblue" d="M122.93,-118.14C147.94,-101.04 200.45,-67.48 250,-50.68 407.05,2.54 600.91,3.66 722.28,-2.72"/>
<polygon fill="midnightblue" stroke="midnightblue" points="722.16,-6.22 732.34,-3.28 722.55,0.77 722.16,-6.22"/>
</g>
<!-- Node7 -->
<g id="node7" class="node">
<title>Node7</title>
<g id="a_node7"><a xlink:href="namespacepahm__messages.html#ad35e9f2327aad65d4c669e3d886f54dc" target="_top" xlink:title="Removes the name of the subroutine that is no longer active.">
<polygon fill="white" stroke="black" points="726,-80.18 726,-101.18 954,-101.18 954,-80.18 726,-80.18"/>
<text text-anchor="middle" x="840" y="-87.58" font-family="Helvetica,sans-Serif" font-size="12.00">pahm_messages::unsetmessagesource</text>
</a>
</g>
</g>
<!-- Node1&#45;&gt;Node7 -->
<g id="edge10" class="edge">
<title>Node1&#45;&gt;Node7</title>
<path fill="none" stroke="midnightblue" d="M214.29,-123.16C347.38,-116.24 574.92,-104.41 715.57,-97.1"/>
<polygon fill="midnightblue" stroke="midnightblue" points="716.16,-100.57 725.97,-96.56 715.8,-93.58 716.16,-100.57"/>
</g>
<!-- Node5 -->
<g id="node5" class="node">
<title>Node5</title>
<g id="a_node5"><a xlink:href="namespacepahm__netcdfio.html#aa0987122588b6ef883046848cfcefe0b" target="_top" xlink:title="Terminates the program on NetCDF error.">
<polygon fill="white" stroke="black" points="506,-41.18 506,-62.18 690,-62.18 690,-41.18 506,-41.18"/>
<text text-anchor="middle" x="598" y="-48.58" font-family="Helvetica,sans-Serif" font-size="12.00">pahm_netcdfio::netcdfterminate</text>
</a>
</g>
</g>
<!-- Node4&#45;&gt;Node5 -->
<g id="edge4" class="edge">
<title>Node4&#45;&gt;Node5</title>
<path fill="none" stroke="midnightblue" d="M470.02,-61.91C478.52,-61.22 487.08,-60.53 495.53,-59.85"/>
<polygon fill="midnightblue" stroke="midnightblue" points="496.08,-63.32 505.77,-59.03 495.52,-56.34 496.08,-63.32"/>
</g>
<!-- Node4&#45;&gt;Node6 -->
<g id="edge7" class="edge">
<title>Node4&#45;&gt;Node6</title>
<path fill="none" stroke="midnightblue" d="M392.56,-60.18C421.66,-50.97 466.24,-38.1 506,-31.68 577.22,-20.2 657.99,-15.39 722.14,-13.48"/>
<polygon fill="midnightblue" stroke="midnightblue" points="722.39,-16.98 732.29,-13.2 722.2,-9.98 722.39,-16.98"/>
</g>
<!-- Node4&#45;&gt;Node7 -->
<g id="edge8" class="edge">
<title>Node4&#45;&gt;Node7</title>
<path fill="none" stroke="midnightblue" d="M470.06,-75.25C543.24,-78.31 639.77,-82.35 715.73,-85.53"/>
<polygon fill="midnightblue" stroke="midnightblue" points="715.7,-89.03 725.83,-85.95 715.99,-82.03 715.7,-89.03"/>
</g>
<!-- Node5&#45;&gt;Node6 -->
<g id="edge5" class="edge">
<title>Node5&#45;&gt;Node6</title>
<path fill="none" stroke="midnightblue" d="M663.63,-41.18C694.58,-36.15 731.81,-30.1 764,-24.87"/>
<polygon fill="midnightblue" stroke="midnightblue" points="764.94,-28.26 774.25,-23.21 763.82,-21.35 764.94,-28.26"/>
</g>
<!-- Node5&#45;&gt;Node7 -->
<g id="edge6" class="edge">
<title>Node5&#45;&gt;Node7</title>
<path fill="none" stroke="midnightblue" d="M663.63,-62.19C694.58,-67.21 731.81,-73.27 764,-78.5"/>
<polygon fill="midnightblue" stroke="midnightblue" points="763.82,-82.01 774.25,-80.16 764.94,-75.1 763.82,-82.01"/>
</g>
</g>
</svg>
