<?xml version="1.0" encoding="UTF-8" standalone="no"?>
<!DOCTYPE svg PUBLIC "-//W3C//DTD SVG 1.1//EN"
 "http://www.w3.org/Graphics/SVG/1.1/DTD/svg11.dtd">
<!-- Generated by graphviz version 2.42.4 (0)
 -->
<!-- Title: pahm_messages::closelogfile Pages: 1 -->
<svg width="445pt" height="43pt"
 viewBox="0.00 0.00 445.00 43.00" xmlns="http://www.w3.org/2000/svg" xmlns:xlink="http://www.w3.org/1999/xlink">
<g id="graph0" class="graph" transform="scale(1 1) rotate(0) translate(4 39)">
<title>pahm_messages::closelogfile</title>
<polygon fill="white" stroke="transparent" points="-4,4 -4,-39 441,-39 441,4 -4,4"/>
<!-- Node1 -->
<g id="node1" class="node">
<title>Node1</title>
<g id="a_node1"><a xlink:title="Closes an opened log file.">
<polygon fill="#bfbfbf" stroke="black" points="262,-7 262,-28 437,-28 437,-7 262,-7"/>
<text text-anchor="middle" x="349.5" y="-14.4" font-family="Helvetica,sans-Serif" font-size="12.00">pahm_messages::closelogfile</text>
</a>
</g>
</g>
<!-- Node2 -->
<g id="node2" class="node">
<title>Node2</title>
<g id="a_node2"><a xlink:href="namespacepahm__drivermod.html#af330510561d1d60a5c566fcab929c68f" target="_top" xlink:title="Subroutine to finalize a PaHM run.">
<polygon fill="white" stroke="black" points="83,-0.5 83,-34.5 226,-34.5 226,-0.5 83,-0.5"/>
<text text-anchor="start" x="91" y="-20.9" font-family="Helvetica,sans-Serif" font-size="12.00">pahm_drivermod::pahm</text>
<text text-anchor="middle" x="154.5" y="-7.9" font-family="Helvetica,sans-Serif" font-size="12.00">_finalize</text>
</a>
</g>
</g>
<!-- Node1&#45;&gt;Node2 -->
<g id="edge1" class="edge">
<title>Node1&#45;&gt;Node2</title>
<path fill="none" stroke="midnightblue" d="M251.79,-17.5C243.17,-17.5 234.57,-17.5 226.23,-17.5"/>
<polygon fill="midnightblue" stroke="midnightblue" points="251.88,-21 261.88,-17.5 251.88,-14 251.88,-21"/>
</g>
<!-- Node3 -->
<g id="node3" class="node">
<title>Node3</title>
<g id="a_node3"><a xlink:href="pahm_8F90.html#a3d3918f5c5f1ac0a7991a7a78f530f30" target="_top" xlink:title=" ">
<polygon fill="white" stroke="black" points="0,-7 0,-28 47,-28 47,-7 0,-7"/>
<text text-anchor="middle" x="23.5" y="-14.4" font-family="Helvetica,sans-Serif" font-size="12.00">pahm</text>
</a>
</g>
</g>
<!-- Node2&#45;&gt;Node3 -->
<g id="edge2" class="edge">
<title>Node2&#45;&gt;Node3</title>
<path fill="none" stroke="midnightblue" d="M72.76,-17.5C63.49,-17.5 54.7,-17.5 47.23,-17.5"/>
<polygon fill="midnightblue" stroke="midnightblue" points="72.96,-21 82.96,-17.5 72.96,-14 72.96,-21"/>
</g>
</g>
</svg>
