<?xml version="1.0" encoding="UTF-8" standalone="no"?>
<!DOCTYPE svg PUBLIC "-//W3C//DTD SVG 1.1//EN"
 "http://www.w3.org/Graphics/SVG/1.1/DTD/svg11.dtd">
<!-- Generated by graphviz version 2.42.4 (0)
 -->
<!-- Title: sortutils::sort2 Pages: 1 -->
<svg width="364pt" height="70pt"
 viewBox="0.00 0.00 364.00 70.00" xmlns="http://www.w3.org/2000/svg" xmlns:xlink="http://www.w3.org/1999/xlink">
<g id="graph0" class="graph" transform="scale(1 1) rotate(0) translate(4 66)">
<title>sortutils::sort2</title>
<polygon fill="white" stroke="transparent" points="-4,4 -4,-66 360,-66 360,4 -4,4"/>
<!-- Node1 -->
<g id="node1" class="node">
<title>Node1</title>
<g id="a_node1"><a xlink:title="Sorts two 1D arrays into ascending numerical order using Quicksort.">
<polygon fill="#bfbfbf" stroke="black" points="0,-20.5 0,-41.5 92,-41.5 92,-20.5 0,-20.5"/>
<text text-anchor="middle" x="46" y="-27.9" font-family="Helvetica,sans-Serif" font-size="12.00">sortutils::sort2</text>
</a>
</g>
</g>
<!-- Node2 -->
<g id="node2" class="node">
<title>Node2</title>
<g id="a_node2"><a xlink:href="namespacepahm__messages.html#acf0c696cc1604842ee84a5df6d81179c" target="_top" xlink:title="Sets the name of the subroutine that is writing log and/or screen messages.">
<polygon fill="white" stroke="black" points="134.5,-40.5 134.5,-61.5 349.5,-61.5 349.5,-40.5 134.5,-40.5"/>
<text text-anchor="middle" x="242" y="-47.9" font-family="Helvetica,sans-Serif" font-size="12.00">pahm_messages::setmessagesource</text>
</a>
</g>
</g>
<!-- Node1&#45;&gt;Node2 -->
<g id="edge1" class="edge">
<title>Node1&#45;&gt;Node2</title>
<path fill="none" stroke="midnightblue" d="M92.48,-35.69C103.62,-36.84 116.03,-38.12 128.8,-39.43"/>
<polygon fill="midnightblue" stroke="midnightblue" points="128.8,-42.95 139.1,-40.5 129.51,-35.99 128.8,-42.95"/>
</g>
<!-- Node3 -->
<g id="node3" class="node">
<title>Node3</title>
<g id="a_node3"><a xlink:href="namespacepahm__messages.html#ad35e9f2327aad65d4c669e3d886f54dc" target="_top" xlink:title="Removes the name of the subroutine that is no longer active.">
<polygon fill="white" stroke="black" points="128,-0.5 128,-21.5 356,-21.5 356,-0.5 128,-0.5"/>
<text text-anchor="middle" x="242" y="-7.9" font-family="Helvetica,sans-Serif" font-size="12.00">pahm_messages::unsetmessagesource</text>
</a>
</g>
</g>
<!-- Node1&#45;&gt;Node3 -->
<g id="edge2" class="edge">
<title>Node1&#45;&gt;Node3</title>
<path fill="none" stroke="midnightblue" d="M92.48,-26.31C103.62,-25.16 116.03,-23.88 128.8,-22.57"/>
<polygon fill="midnightblue" stroke="midnightblue" points="129.51,-26.01 139.1,-21.5 128.8,-19.05 129.51,-26.01"/>
</g>
</g>
</svg>
