<?xml version="1.0" encoding="UTF-8" standalone="no"?>
<!DOCTYPE svg PUBLIC "-//W3C//DTD SVG 1.1//EN"
 "http://www.w3.org/Graphics/SVG/1.1/DTD/svg11.dtd">
<!-- Generated by graphviz version 2.42.4 (0)
 -->
<!-- Title: pahm_messages::setmessagesource Pages: 1 -->
<!--zoomable 1154 -->
<svg id="main" version="1.1" xmlns="http://www.w3.org/2000/svg" xmlns:xlink="http://www.w3.org/1999/xlink" xml:space="preserve" onload="init(evt)">
<style type="text/css"><![CDATA[
.edge:hover path { stroke: red; }
.edge:hover polygon { stroke: red; fill: red; }
]]></style>
<script type="text/javascript"><![CDATA[
var edges = document.getElementsByTagName('g');
if (edges && edges.length) {
  for (var i=0;i<edges.length;i++) {
    if (edges[i].id.substr(0,4)=='edge') {
      edges[i].setAttribute('class','edge');
    }
  }
}
]]></script>
        <defs>
                <circle id="rim" cx="0" cy="0" r="7"/>
                <circle id="rim2" cx="0" cy="0" r="3.5"/>
                <g id="zoomPlus">
                        <use xlink:href="#rim" fill="#404040">
                                <set attributeName="fill" to="#808080" begin="zoomplus.mouseover" end="zoomplus.mouseout"/>
                        </use>
                        <path d="M-4,0h8M0,-4v8" fill="none" stroke="white" stroke-width="1.5" pointer-events="none"/>
                </g>
                <g id="zoomMin">
                        <use xlink:href="#rim" fill="#404040">
                                <set attributeName="fill" to="#808080" begin="zoomminus.mouseover" end="zoomminus.mouseout"/>
                        </use>
                        <path d="M-4,0h8" fill="none" stroke="white" stroke-width="1.5" pointer-events="none"/>
                </g>
                <g id="dirArrow">
                        <path fill="none" stroke="white" stroke-width="1.5" d="M0,-3.0v7 M-2.5,-0.5L0,-3.0L2.5,-0.5"/>
                </g>
               <g id="resetDef">
                       <use xlink:href="#rim2" fill="#404040">
                               <set attributeName="fill" to="#808080" begin="reset.mouseover" end="reset.mouseout"/>
                       </use>
               </g>
        </defs>

<script type="text/javascript">
var viewWidth = 1319;
var viewHeight = 1154;
var sectionId = 'dynsection-7';
</script>
<script xlink:href="svgpan.js"/>
<svg id="graph" class="graph">
<g id="viewport">
<title>pahm_messages::setmessagesource</title>
<polygon fill="white" stroke="transparent" points="-4,4 -4,-1149.84 1315,-1149.84 1315,4 -4,4"/>
<!-- Node1 -->
<g id="node1" class="node">
<title>Node1</title>
<g id="a_node1"><a xlink:title="Sets the name of the subroutine that is writing log and/or screen messages.">
<polygon fill="#bfbfbf" stroke="black" points="1096,-577.5 1096,-598.5 1311,-598.5 1311,-577.5 1096,-577.5"/>
<text text-anchor="middle" x="1203.5" y="-584.9" font-family="Helvetica,sans-Serif" font-size="12.00">pahm_messages::setmessagesource</text>
</a>
</g>
</g>
<!-- Node2 -->
<g id="node2" class="node">
<title>Node2</title>
<g id="a_node2"><a xlink:href="namespacepahm__netcdfio.html#aa686f5f58121595cbd368f0f0b12bfba" target="_top" xlink:title="Checks the return value from netCDF calls; if there was an error, it writes the error message to the ...">
<polygon fill="white" stroke="black" points="590,-1037 590,-1071 718,-1071 718,-1037 590,-1037"/>
<text text-anchor="start" x="598" y="-1057.4" font-family="Helvetica,sans-Serif" font-size="12.00">pahm_netcdfio::base</text>
<text text-anchor="middle" x="654" y="-1044.4" font-family="Helvetica,sans-Serif" font-size="12.00">_netcdfcheckerr</text>
</a>
</g>
</g>
<!-- Node1&#45;&gt;Node2 -->
<g id="edge1" class="edge">
<title>Node1&#45;&gt;Node2</title>
<path fill="none" stroke="midnightblue" d="M1203.23,-608.77C1204.5,-681.06 1197.95,-923.15 1060,-1030 1008.28,-1070.06 818.39,-1064.62 718.07,-1058.62"/>
<polygon fill="midnightblue" stroke="midnightblue" points="1206.72,-608.58 1202.97,-598.67 1199.73,-608.75 1206.72,-608.58"/>
</g>
<!-- Node3 -->
<g id="node3" class="node">
<title>Node3</title>
<g id="a_node3"><a xlink:href="namespacepahm__vortex.html#a2c7cf08c2619746ea1c60556b6487b35" target="_top" xlink:title="This subroutine calculates the intensity time change of a variable using second order mumerical accur...">
<polygon fill="white" stroke="black" points="831,-810.5 831,-831.5 1029,-831.5 1029,-810.5 831,-810.5"/>
<text text-anchor="middle" x="930" y="-817.9" font-family="Helvetica,sans-Serif" font-size="12.00">pahm_vortex::calcintensitychange</text>
</a>
</g>
</g>
<!-- Node1&#45;&gt;Node3 -->
<g id="edge2" class="edge">
<title>Node1&#45;&gt;Node3</title>
<path fill="none" stroke="midnightblue" d="M1195.46,-608.14C1179.19,-651.49 1134.52,-753.5 1060,-801 1050.64,-806.97 1040.13,-811.39 1029.26,-814.63"/>
<polygon fill="midnightblue" stroke="midnightblue" points="1198.78,-609.28 1198.91,-598.68 1192.2,-606.88 1198.78,-609.28"/>
</g>
<!-- Node6 -->
<g id="node6" class="node">
<title>Node6</title>
<g id="a_node6"><a xlink:href="namespacepahm__drivermod.html#a7ae4571521a5bb4eb55990dd7fb76237" target="_top" xlink:title="Subroutine to run PaHM (timestepping).">
<polygon fill="white" stroke="black" points="83,-918.5 83,-939.5 250,-939.5 250,-918.5 83,-918.5"/>
<text text-anchor="middle" x="166.5" y="-925.9" font-family="Helvetica,sans-Serif" font-size="12.00">pahm_drivermod::pahm_run</text>
</a>
</g>
</g>
<!-- Node1&#45;&gt;Node6 -->
<g id="edge32" class="edge">
<title>Node1&#45;&gt;Node6</title>
<path fill="none" stroke="midnightblue" d="M1202.85,-608.88C1202.73,-678.46 1191.8,-903.35 1060,-997 988.35,-1047.91 487.22,-975.34 286,-949 265.93,-946.37 244.06,-942.87 224.63,-939.52"/>
<polygon fill="midnightblue" stroke="midnightblue" points="1206.35,-608.73 1202.78,-598.75 1199.35,-608.77 1206.35,-608.73"/>
</g>
<!-- Node8 -->
<g id="node8" class="node">
<title>Node8</title>
<g id="a_node8"><a xlink:href="interfacesortutils_1_1indexx.html#a14dc4f3d78c6d7a518f48185dac60b8c" target="_top" xlink:title="Indexes a 1D double precision array in ascending order.">
<polygon fill="white" stroke="black" points="877.5,-333 877.5,-367 982.5,-367 982.5,-333 877.5,-333"/>
<text text-anchor="start" x="885.5" y="-353.4" font-family="Helvetica,sans-Serif" font-size="12.00">sortutils::indexx::</text>
<text text-anchor="middle" x="930" y="-340.4" font-family="Helvetica,sans-Serif" font-size="12.00">indexxdouble</text>
</a>
</g>
</g>
<!-- Node1&#45;&gt;Node8 -->
<g id="edge7" class="edge">
<title>Node1&#45;&gt;Node8</title>
<path fill="none" stroke="midnightblue" d="M1194.59,-568.15C1177.01,-526.7 1130.59,-430.75 1060,-382 1037.31,-366.33 1007.69,-358.32 982.56,-354.23"/>
<polygon fill="midnightblue" stroke="midnightblue" points="1191.38,-569.55 1198.44,-577.46 1197.85,-566.88 1191.38,-569.55"/>
</g>
<!-- Node9 -->
<g id="node9" class="node">
<title>Node9</title>
<g id="a_node9"><a xlink:href="interfacesortutils_1_1indexx.html#a4e4fa36a9147b5a7eb8a9fd718fafc50" target="_top" xlink:title="Indexes a 1D integer array in ascending order.">
<polygon fill="white" stroke="black" points="877.5,-280 877.5,-314 982.5,-314 982.5,-280 877.5,-280"/>
<text text-anchor="start" x="885.5" y="-300.4" font-family="Helvetica,sans-Serif" font-size="12.00">sortutils::indexx::</text>
<text text-anchor="middle" x="930" y="-287.4" font-family="Helvetica,sans-Serif" font-size="12.00">indexxint</text>
</a>
</g>
</g>
<!-- Node1&#45;&gt;Node9 -->
<g id="edge8" class="edge">
<title>Node1&#45;&gt;Node9</title>
<path fill="none" stroke="midnightblue" d="M1197.85,-567.52C1185.27,-517.1 1145.6,-386.49 1060,-323 1037.89,-306.6 1008.01,-299.88 982.58,-297.36"/>
<polygon fill="midnightblue" stroke="midnightblue" points="1194.45,-568.36 1200.19,-577.26 1201.26,-566.72 1194.45,-568.36"/>
</g>
<!-- Node10 -->
<g id="node10" class="node">
<title>Node10</title>
<g id="a_node10"><a xlink:href="interfacesortutils_1_1indexx.html#abca639f6c4c72a7a97e26522db8c1249" target="_top" xlink:title="Indexes a 1D 32&#45;bit integer array in ascending order.">
<polygon fill="white" stroke="black" points="877.5,-227 877.5,-261 982.5,-261 982.5,-227 877.5,-227"/>
<text text-anchor="start" x="885.5" y="-247.4" font-family="Helvetica,sans-Serif" font-size="12.00">sortutils::indexx::</text>
<text text-anchor="middle" x="930" y="-234.4" font-family="Helvetica,sans-Serif" font-size="12.00">indexxint8</text>
</a>
</g>
</g>
<!-- Node1&#45;&gt;Node10 -->
<g id="edge9" class="edge">
<title>Node1&#45;&gt;Node10</title>
<path fill="none" stroke="midnightblue" d="M1199.79,-567.43C1191.12,-510.31 1158.58,-348.78 1060,-270 1038.4,-252.74 1008.4,-245.99 982.77,-243.67"/>
<polygon fill="midnightblue" stroke="midnightblue" points="1196.34,-568 1201.22,-577.41 1203.27,-567.01 1196.34,-568"/>
</g>
<!-- Node11 -->
<g id="node11" class="node">
<title>Node11</title>
<g id="a_node11"><a xlink:href="interfacesortutils_1_1indexx.html#af7ae6ba72f204c10de0faa8023f9fc4a" target="_top" xlink:title="Indexes a 1D single precision array in ascending order.">
<polygon fill="white" stroke="black" points="877.5,-174 877.5,-208 982.5,-208 982.5,-174 877.5,-174"/>
<text text-anchor="start" x="885.5" y="-194.4" font-family="Helvetica,sans-Serif" font-size="12.00">sortutils::indexx::</text>
<text text-anchor="middle" x="930" y="-181.4" font-family="Helvetica,sans-Serif" font-size="12.00">indexxsingle</text>
</a>
</g>
</g>
<!-- Node1&#45;&gt;Node11 -->
<g id="edge10" class="edge">
<title>Node1&#45;&gt;Node11</title>
<path fill="none" stroke="midnightblue" d="M1201.21,-567.09C1196.09,-503.54 1171.64,-311.32 1060,-217 1038.71,-199.01 1008.41,-192.26 982.53,-190.13"/>
<polygon fill="midnightblue" stroke="midnightblue" points="1197.74,-567.68 1201.95,-577.4 1204.72,-567.18 1197.74,-567.68"/>
</g>
<!-- Node12 -->
<g id="node12" class="node">
<title>Node12</title>
<g id="a_node12"><a xlink:href="interfacesortutils_1_1indexx.html#ae59fb4eaf41ea6af9149f9dc28df4421" target="_top" xlink:title="Indexes a 1D string array in ascending order.">
<polygon fill="white" stroke="black" points="877.5,-121 877.5,-155 982.5,-155 982.5,-121 877.5,-121"/>
<text text-anchor="start" x="885.5" y="-141.4" font-family="Helvetica,sans-Serif" font-size="12.00">sortutils::indexx::</text>
<text text-anchor="middle" x="930" y="-128.4" font-family="Helvetica,sans-Serif" font-size="12.00">indexxstring</text>
</a>
</g>
</g>
<!-- Node1&#45;&gt;Node12 -->
<g id="edge11" class="edge">
<title>Node1&#45;&gt;Node12</title>
<path fill="none" stroke="midnightblue" d="M1202.34,-567.38C1200.63,-498.5 1185.24,-274.45 1060,-164 1039.01,-145.49 1008.57,-138.74 982.53,-136.74"/>
<polygon fill="midnightblue" stroke="midnightblue" points="1198.84,-567.46 1202.52,-577.4 1205.84,-567.34 1198.84,-567.46"/>
</g>
<!-- Node13 -->
<g id="node13" class="node">
<title>Node13</title>
<g id="a_node13"><a xlink:href="namespacepahm__netcdfio.html#a21917504b7e9d5594375d1a48bb4cb8f" target="_top" xlink:title="Initializes a new NetCDF data file and puts it in define mode. Sets up netCDF dimensions and variable...">
<polygon fill="white" stroke="black" points="290,-918.5 290,-939.5 504,-939.5 504,-918.5 290,-918.5"/>
<text text-anchor="middle" x="397" y="-925.9" font-family="Helvetica,sans-Serif" font-size="12.00">pahm_netcdfio::initadcircnetcdfoutfile</text>
</a>
</g>
</g>
<!-- Node1&#45;&gt;Node13 -->
<g id="edge12" class="edge">
<title>Node1&#45;&gt;Node13</title>
<path fill="none" stroke="midnightblue" d="M1199.52,-608.7C1190.36,-663.97 1157.06,-815.27 1060,-881 1057.15,-882.93 690.53,-908.66 504.18,-921.64"/>
<polygon fill="midnightblue" stroke="midnightblue" points="1203,-609.12 1201.09,-598.7 1196.08,-608.04 1203,-609.12"/>
</g>
<!-- Node14 -->
<g id="node14" class="node">
<title>Node14</title>
<g id="a_node14"><a xlink:href="namespacecsv__module.html#a9813e1ff838ed6024c464bb5c443bada" target="_top" xlink:title="Initialize a [[csv_file(type)]].">
<polygon fill="white" stroke="black" points="588.5,-568 588.5,-602 719.5,-602 719.5,-568 588.5,-568"/>
<text text-anchor="start" x="596.5" y="-588.4" font-family="Helvetica,sans-Serif" font-size="12.00">csv_module::initialize</text>
<text text-anchor="middle" x="654" y="-575.4" font-family="Helvetica,sans-Serif" font-size="12.00">_csv_file</text>
</a>
</g>
</g>
<!-- Node1&#45;&gt;Node14 -->
<g id="edge14" class="edge">
<title>Node1&#45;&gt;Node14</title>
<path fill="none" stroke="midnightblue" d="M1085.66,-587.36C973.95,-586.75 809.61,-585.85 719.68,-585.35"/>
<polygon fill="midnightblue" stroke="midnightblue" points="1085.94,-590.86 1095.96,-587.42 1085.98,-583.86 1085.94,-590.86"/>
</g>
<!-- Node15 -->
<g id="node15" class="node">
<title>Node15</title>
<g id="a_node15"><a xlink:href="namespacepahm__netcdfio.html#aa0987122588b6ef883046848cfcefe0b" target="_top" xlink:title="Terminates the program on NetCDF error.">
<polygon fill="white" stroke="black" points="838,-966.5 838,-987.5 1022,-987.5 1022,-966.5 838,-966.5"/>
<text text-anchor="middle" x="930" y="-973.9" font-family="Helvetica,sans-Serif" font-size="12.00">pahm_netcdfio::netcdfterminate</text>
</a>
</g>
</g>
<!-- Node1&#45;&gt;Node15 -->
<g id="edge15" class="edge">
<title>Node1&#45;&gt;Node15</title>
<path fill="none" stroke="midnightblue" d="M1201.06,-608.98C1195.57,-671.89 1170.2,-860.2 1060,-952 1049.13,-961.05 1035.96,-967.19 1022.24,-971.28"/>
<polygon fill="midnightblue" stroke="midnightblue" points="1204.57,-608.99 1201.88,-598.75 1197.6,-608.44 1204.57,-608.99"/>
</g>
<!-- Node16 -->
<g id="node16" class="node">
<title>Node16</title>
<g id="a_node16"><a xlink:href="namespacepahm__netcdfio.html#a850b1df36d9d2d229b8b03f0558c3703" target="_top" xlink:title="Creates a new NetCDF data file and puts it in define mode.">
<polygon fill="white" stroke="black" points="544,-928.5 544,-949.5 764,-949.5 764,-928.5 544,-928.5"/>
<text text-anchor="middle" x="654" y="-935.9" font-family="Helvetica,sans-Serif" font-size="12.00">pahm_netcdfio::newadcircnetcdfoutfile</text>
</a>
</g>
</g>
<!-- Node1&#45;&gt;Node16 -->
<g id="edge19" class="edge">
<title>Node1&#45;&gt;Node16</title>
<path fill="none" stroke="midnightblue" d="M1200.64,-608.62C1194.09,-667.97 1166.29,-839.68 1060,-914 1013.88,-946.24 867.61,-947.98 764.14,-944.73"/>
<polygon fill="midnightblue" stroke="midnightblue" points="1204.13,-608.91 1201.66,-598.6 1197.17,-608.2 1204.13,-608.91"/>
</g>
<!-- Node17 -->
<g id="node17" class="node">
<title>Node17</title>
<g id="a_node17"><a xlink:href="namespaceutilities.html#a2a41067ed5533ec0c36318e8f1e960bf" target="_top" xlink:title="This subroutine opens an existing file for reading.">
<polygon fill="white" stroke="black" points="860,-616.5 860,-637.5 1000,-637.5 1000,-616.5 860,-616.5"/>
<text text-anchor="middle" x="930" y="-623.9" font-family="Helvetica,sans-Serif" font-size="12.00">utilities::openfileforread</text>
</a>
</g>
</g>
<!-- Node1&#45;&gt;Node17 -->
<g id="edge20" class="edge">
<title>Node1&#45;&gt;Node17</title>
<path fill="none" stroke="midnightblue" d="M1119.31,-599.95C1081.11,-605.44 1036.34,-611.87 1000.04,-617.08"/>
<polygon fill="midnightblue" stroke="midnightblue" points="1119.99,-603.39 1129.39,-598.5 1118.99,-596.46 1119.99,-603.39"/>
</g>
<!-- Node18 -->
<g id="node18" class="node">
<title>Node18</title>
<g id="a_node18"><a xlink:href="namespaceparwind.html#abae6c098afd2135918a478b6b7b20673" target="_top" xlink:title="Subroutine to read all a&#45;deck/b&#45;deck best track files (ATCF format).">
<polygon fill="white" stroke="black" points="576.5,-527.5 576.5,-548.5 731.5,-548.5 731.5,-527.5 576.5,-527.5"/>
<text text-anchor="middle" x="654" y="-534.9" font-family="Helvetica,sans-Serif" font-size="12.00">parwind::readbesttrackfile</text>
</a>
</g>
</g>
<!-- Node1&#45;&gt;Node18 -->
<g id="edge34" class="edge">
<title>Node1&#45;&gt;Node18</title>
<path fill="none" stroke="midnightblue" d="M1085.77,-577.34C978.87,-567.58 823.71,-553.41 731.71,-545.01"/>
<polygon fill="midnightblue" stroke="midnightblue" points="1085.69,-580.85 1095.96,-578.27 1086.32,-573.88 1085.69,-580.85"/>
</g>
<!-- Node20 -->
<g id="node20" class="node">
<title>Node20</title>
<g id="a_node20"><a xlink:href="namespacepahm__drivermod.html#ae0d4b223a96ba116b38152caf6b0768c" target="_top" xlink:title="Subroutine to initialize a PaHM run.">
<polygon fill="white" stroke="black" points="84,-711.5 84,-732.5 249,-732.5 249,-711.5 84,-711.5"/>
<text text-anchor="middle" x="166.5" y="-718.9" font-family="Helvetica,sans-Serif" font-size="12.00">pahm_drivermod::pahm_init</text>
</a>
</g>
</g>
<!-- Node1&#45;&gt;Node20 -->
<g id="edge31" class="edge">
<title>Node1&#45;&gt;Node20</title>
<path fill="none" stroke="midnightblue" d="M1187.86,-606.71C1164.38,-635.1 1115.3,-688.17 1060,-711 914.97,-770.86 440.94,-742.9 249.14,-728.6"/>
<polygon fill="midnightblue" stroke="midnightblue" points="1190.73,-608.72 1194.3,-598.75 1185.29,-604.32 1190.73,-608.72"/>
</g>
<!-- Node21 -->
<g id="node21" class="node">
<title>Node21</title>
<g id="a_node21"><a xlink:href="namespacepahm__mesh.html#af53257d02ceb6ebe4349de40187496d6" target="_top" xlink:title="Reads the ADCIRC fort.14 mesh file.">
<polygon fill="white" stroke="black" points="555.5,-659.5 555.5,-680.5 752.5,-680.5 752.5,-659.5 555.5,-659.5"/>
<text text-anchor="middle" x="654" y="-666.9" font-family="Helvetica,sans-Serif" font-size="12.00">pahm_mesh::readmeshasciifort14</text>
</a>
</g>
</g>
<!-- Node1&#45;&gt;Node21 -->
<g id="edge39" class="edge">
<title>Node1&#45;&gt;Node21</title>
<path fill="none" stroke="midnightblue" d="M1173.67,-603.33C1145.54,-617.45 1101.1,-637.61 1060,-647 957.02,-670.53 835.67,-674.38 752.84,-673.54"/>
<polygon fill="midnightblue" stroke="midnightblue" points="1175.6,-606.27 1182.91,-598.61 1172.41,-600.04 1175.6,-606.27"/>
</g>
<!-- Node22 -->
<g id="node22" class="node">
<title>Node22</title>
<g id="a_node22"><a xlink:href="namespacepahm__mesh.html#a6fd7801e4cbacfd2a7ce61c0fb31073c" target="_top" xlink:title="Reads an input mesh file for the specified supported model type.">
<polygon fill="white" stroke="black" points="326,-687.5 326,-708.5 468,-708.5 468,-687.5 326,-687.5"/>
<text text-anchor="middle" x="397" y="-694.9" font-family="Helvetica,sans-Serif" font-size="12.00">pahm_mesh::readmesh</text>
</a>
</g>
</g>
<!-- Node1&#45;&gt;Node22 -->
<g id="edge38" class="edge">
<title>Node1&#45;&gt;Node22</title>
<path fill="none" stroke="midnightblue" d="M1182.16,-605.02C1155.87,-625.88 1107.78,-660.25 1060,-675 852.59,-739.02 591.15,-721.14 468.11,-707.33"/>
<polygon fill="midnightblue" stroke="midnightblue" points="1184.63,-607.53 1190.21,-598.52 1180.23,-602.08 1184.63,-607.53"/>
</g>
<!-- Node23 -->
<g id="node23" class="node">
<title>Node23</title>
<g id="a_node23"><a xlink:href="namespacepahm__drivermod.html#af330510561d1d60a5c566fcab929c68f" target="_top" xlink:title="Subroutine to finalize a PaHM run.">
<polygon fill="white" stroke="black" points="95,-523 95,-557 238,-557 238,-523 95,-523"/>
<text text-anchor="start" x="103" y="-543.4" font-family="Helvetica,sans-Serif" font-size="12.00">pahm_drivermod::pahm</text>
<text text-anchor="middle" x="166.5" y="-530.4" font-family="Helvetica,sans-Serif" font-size="12.00">_finalize</text>
</a>
</g>
</g>
<!-- Node1&#45;&gt;Node23 -->
<g id="edge29" class="edge">
<title>Node1&#45;&gt;Node23</title>
<path fill="none" stroke="midnightblue" d="M1193.18,-568.15C1174.15,-530.12 1126.92,-447.43 1060,-410 1045.54,-401.91 780.54,-374.03 764,-373 666.41,-366.92 639.66,-352.74 544,-373 405.14,-402.41 255.26,-486.62 194.93,-522.96"/>
<polygon fill="midnightblue" stroke="midnightblue" points="1190.07,-569.76 1197.6,-577.21 1196.36,-566.69 1190.07,-569.76"/>
</g>
<!-- Node24 -->
<g id="node24" class="node">
<title>Node24</title>
<g id="a_node24"><a xlink:href="namespacesortutils.html#a33d62feb5c8d9983664fb4e8e6f336c0" target="_top" xlink:title="Sorts the array arr1D into ascending numerical order using Quicksort.">
<polygon fill="white" stroke="black" points="873.5,-80.5 873.5,-101.5 986.5,-101.5 986.5,-80.5 873.5,-80.5"/>
<text text-anchor="middle" x="930" y="-87.9" font-family="Helvetica,sans-Serif" font-size="12.00">sortutils::quicksort</text>
</a>
</g>
</g>
<!-- Node1&#45;&gt;Node24 -->
<g id="edge33" class="edge">
<title>Node1&#45;&gt;Node24</title>
<path fill="none" stroke="midnightblue" d="M1199.25,-567.04C1185.81,-483.23 1131.93,-173.73 1060,-111 1040.19,-93.72 1011.84,-88 986.77,-86.9"/>
<polygon fill="midnightblue" stroke="midnightblue" points="1195.82,-567.79 1200.84,-577.12 1202.74,-566.69 1195.82,-567.79"/>
</g>
<!-- Node25 -->
<g id="node25" class="node">
<title>Node25</title>
<g id="a_node25"><a xlink:href="namespaceutilities.html#ab095172ef12ae151ab5c9aacf82f4dc6" target="_top" xlink:title="This subroutine reads the program&#39;s main control file.">
<polygon fill="white" stroke="black" points="862,-770.5 862,-791.5 998,-791.5 998,-770.5 862,-770.5"/>
<text text-anchor="middle" x="930" y="-777.9" font-family="Helvetica,sans-Serif" font-size="12.00">utilities::readcontrolfile</text>
</a>
</g>
</g>
<!-- Node1&#45;&gt;Node25 -->
<g id="edge35" class="edge">
<title>Node1&#45;&gt;Node25</title>
<path fill="none" stroke="midnightblue" d="M1191.81,-607.84C1171.36,-643.72 1123.06,-719.1 1060,-756 1041.39,-766.89 1018.95,-773.14 998.03,-776.7"/>
<polygon fill="midnightblue" stroke="midnightblue" points="1195.02,-609.27 1196.83,-598.83 1188.91,-605.86 1195.02,-609.27"/>
</g>
<!-- Node27 -->
<g id="node27" class="node">
<title>Node27</title>
<g id="a_node27"><a xlink:href="namespacepahm__netcdfio.html#a9247da765972aa9c8c5b0d116238416f" target="_top" xlink:title="Compares the current simulation time with the array of output times in the file, and if the simulatio...">
<polygon fill="white" stroke="black" points="800,-40.5 800,-61.5 1060,-61.5 1060,-40.5 800,-40.5"/>
<text text-anchor="middle" x="930" y="-47.9" font-family="Helvetica,sans-Serif" font-size="12.00">pahm_netcdfio::setrecordcounterandstoretime</text>
</a>
</g>
</g>
<!-- Node1&#45;&gt;Node27 -->
<g id="edge40" class="edge">
<title>Node1&#45;&gt;Node27</title>
<path fill="none" stroke="midnightblue" d="M1199.75,-567.01C1187.77,-478.84 1137.25,-139.83 1060,-71 1055.94,-67.38 1051.51,-64.27 1046.81,-61.59"/>
<polygon fill="midnightblue" stroke="midnightblue" points="1196.31,-567.67 1201.1,-577.11 1203.25,-566.74 1196.31,-567.67"/>
</g>
<!-- Node28 -->
<g id="node28" class="node">
<title>Node28</title>
<g id="a_node28"><a xlink:href="namespacesortutils.html#a9ede2e4d77a01ef0a1c54e8dc4cf3b35" target="_top" xlink:title="Sorts two 1D arrays into ascending numerical order using Quicksort.">
<polygon fill="white" stroke="black" points="884,-0.5 884,-21.5 976,-21.5 976,-0.5 884,-0.5"/>
<text text-anchor="middle" x="930" y="-7.9" font-family="Helvetica,sans-Serif" font-size="12.00">sortutils::sort2</text>
</a>
</g>
</g>
<!-- Node1&#45;&gt;Node28 -->
<g id="edge41" class="edge">
<title>Node1&#45;&gt;Node28</title>
<path fill="none" stroke="midnightblue" d="M1200.21,-567.18C1189.66,-475.15 1142.65,-106.03 1060,-31 1037.68,-10.74 1003.73,-6.13 976.27,-6.38"/>
<polygon fill="midnightblue" stroke="midnightblue" points="1196.74,-567.67 1201.34,-577.21 1203.7,-566.88 1196.74,-567.67"/>
</g>
<!-- Node29 -->
<g id="node29" class="node">
<title>Node29</title>
<g id="a_node29"><a xlink:href="namespacepahm__messages.html#a8fdeeba7e0469ebda6435518f619444b" target="_top" xlink:title="Terminates the calling program when a fatal error is encountered.">
<polygon fill="white" stroke="black" points="848,-500.5 848,-521.5 1012,-521.5 1012,-500.5 848,-500.5"/>
<text text-anchor="middle" x="930" y="-507.9" font-family="Helvetica,sans-Serif" font-size="12.00">pahm_messages::terminate</text>
</a>
</g>
</g>
<!-- Node1&#45;&gt;Node29 -->
<g id="edge42" class="edge">
<title>Node1&#45;&gt;Node29</title>
<path fill="none" stroke="midnightblue" d="M1167.89,-573.62C1139.34,-562.18 1097.57,-546.42 1060,-536 1039.45,-530.3 1016.7,-525.43 996.1,-521.54"/>
<polygon fill="midnightblue" stroke="midnightblue" points="1166.83,-576.96 1177.41,-577.47 1169.45,-570.47 1166.83,-576.96"/>
</g>
<!-- Node30 -->
<g id="node30" class="node">
<title>Node30</title>
<g id="a_node30"><a xlink:href="interfacetimedateutils_1_1timeconv.html#a2f5f511b312d9f4b1bed33ecb8567b86" target="_top" xlink:title="Convert time from year, month, day, hour, min, sec into seconds since the reference date of the simul...">
<polygon fill="white" stroke="black" points="585,-436 585,-470 723,-470 723,-436 585,-436"/>
<text text-anchor="start" x="593" y="-456.4" font-family="Helvetica,sans-Serif" font-size="12.00">timedateutils::timeconv</text>
<text text-anchor="middle" x="654" y="-443.4" font-family="Helvetica,sans-Serif" font-size="12.00">::timeconvisec</text>
</a>
</g>
</g>
<!-- Node1&#45;&gt;Node30 -->
<g id="edge48" class="edge">
<title>Node1&#45;&gt;Node30</title>
<path fill="none" stroke="midnightblue" d="M1183.95,-570.71C1158.3,-547.98 1109.55,-508.84 1060,-491 947.04,-450.33 805.51,-446.92 723.17,-449.21"/>
<polygon fill="midnightblue" stroke="midnightblue" points="1181.67,-573.37 1191.44,-577.47 1186.36,-568.17 1181.67,-573.37"/>
</g>
<!-- Node31 -->
<g id="node31" class="node">
<title>Node31</title>
<g id="a_node31"><a xlink:href="interfacetimedateutils_1_1timeconv.html#a03e2abbe51f02a02624986a3d49ec192" target="_top" xlink:title="Convert time from year, month, day, hour, min, sec into seconds since the reference date of the simul...">
<polygon fill="white" stroke="black" points="585,-383 585,-417 723,-417 723,-383 585,-383"/>
<text text-anchor="start" x="593" y="-403.4" font-family="Helvetica,sans-Serif" font-size="12.00">timedateutils::timeconv</text>
<text text-anchor="middle" x="654" y="-390.4" font-family="Helvetica,sans-Serif" font-size="12.00">::timeconvrsec</text>
</a>
</g>
</g>
<!-- Node1&#45;&gt;Node31 -->
<g id="edge49" class="edge">
<title>Node1&#45;&gt;Node31</title>
<path fill="none" stroke="midnightblue" d="M1189.62,-568.87C1167.34,-537.55 1118.34,-475.99 1060,-448 1030.35,-433.78 830.51,-414.92 723.06,-405.65"/>
<polygon fill="midnightblue" stroke="midnightblue" points="1186.83,-571 1195.42,-577.21 1192.58,-567 1186.83,-571"/>
</g>
<!-- Node32 -->
<g id="node32" class="node">
<title>Node32</title>
<g id="a_node32"><a xlink:href="namespacepahm__vortex.html#a68cd3f6ceb40446c3c0c6d192f8b61bb" target="_top" xlink:title="This subroutine calculates the translational velocity of a moving hurricane using second order mumeri...">
<polygon fill="white" stroke="black" points="864.5,-850.5 864.5,-871.5 995.5,-871.5 995.5,-850.5 864.5,-850.5"/>
<text text-anchor="middle" x="930" y="-857.9" font-family="Helvetica,sans-Serif" font-size="12.00">pahm_vortex::uvtrans</text>
</a>
</g>
</g>
<!-- Node1&#45;&gt;Node32 -->
<g id="edge50" class="edge">
<title>Node1&#45;&gt;Node32</title>
<path fill="none" stroke="midnightblue" d="M1197.55,-608.45C1184.49,-657.62 1144.18,-782.69 1060,-841 1041.37,-853.91 1017.61,-859.78 995.57,-862.15"/>
<polygon fill="midnightblue" stroke="midnightblue" points="1200.97,-609.21 1200.05,-598.66 1194.18,-607.48 1200.97,-609.21"/>
</g>
<!-- Node33 -->
<g id="node33" class="node">
<title>Node33</title>
<g id="a_node33"><a xlink:href="namespacepahm__netcdfio.html#aaf8d794ff0adcfbca0e2d13c8b71162a" target="_top" xlink:title="Writes data to the NetCDF file.">
<polygon fill="white" stroke="black" points="300.5,-1062.5 300.5,-1083.5 493.5,-1083.5 493.5,-1062.5 300.5,-1062.5"/>
<text text-anchor="middle" x="397" y="-1069.9" font-family="Helvetica,sans-Serif" font-size="12.00">pahm_netcdfio::writenetcdfrecord</text>
</a>
</g>
</g>
<!-- Node1&#45;&gt;Node33 -->
<g id="edge52" class="edge">
<title>Node1&#45;&gt;Node33</title>
<path fill="none" stroke="midnightblue" d="M1199.35,-608.92C1186.33,-692.52 1133.84,-1000.99 1060,-1060 866.03,-1215.01 528.1,-1117.69 427.23,-1083.5"/>
<polygon fill="midnightblue" stroke="midnightblue" points="1202.84,-609.27 1200.9,-598.86 1195.92,-608.21 1202.84,-609.27"/>
</g>
<!-- Node4 -->
<g id="node4" class="node">
<title>Node4</title>
<g id="a_node4"><a xlink:href="namespaceparwind.html#a6efcf8be68b268f0a6d92ceb5f8c6f41" target="_top" xlink:title="Subroutine to support the Holland model (GetHolland). Gets the next line from the file,...">
<polygon fill="white" stroke="black" points="568.5,-850.5 568.5,-871.5 739.5,-871.5 739.5,-850.5 568.5,-850.5"/>
<text text-anchor="middle" x="654" y="-857.9" font-family="Helvetica,sans-Serif" font-size="12.00">parwind::processhollanddata</text>
</a>
</g>
</g>
<!-- Node3&#45;&gt;Node4 -->
<g id="edge3" class="edge">
<title>Node3&#45;&gt;Node4</title>
<path fill="none" stroke="midnightblue" d="M846.95,-832.98C808.79,-838.55 763.81,-845.12 726.98,-850.49"/>
<polygon fill="midnightblue" stroke="midnightblue" points="847.62,-836.42 857.01,-831.51 846.61,-829.49 847.62,-836.42"/>
</g>
<!-- Node5 -->
<g id="node5" class="node">
<title>Node5</title>
<g id="a_node5"><a xlink:href="namespaceparwind.html#a0f547832ef9dcece74e3d1267557c9e7" target="_top" xlink:title="Calculate wind velocities and MSL pressures at the mesh nodes from the P&#45;W Holland Wind model.">
<polygon fill="white" stroke="black" points="321.5,-859.5 321.5,-880.5 472.5,-880.5 472.5,-859.5 321.5,-859.5"/>
<text text-anchor="middle" x="397" y="-866.9" font-family="Helvetica,sans-Serif" font-size="12.00">parwind::gethollandfields</text>
</a>
</g>
</g>
<!-- Node4&#45;&gt;Node5 -->
<g id="edge4" class="edge">
<title>Node4&#45;&gt;Node5</title>
<path fill="none" stroke="midnightblue" d="M558.18,-864.35C530.03,-865.34 499.6,-866.41 472.9,-867.36"/>
<polygon fill="midnightblue" stroke="midnightblue" points="558.57,-867.84 568.44,-863.98 558.33,-860.84 558.57,-867.84"/>
</g>
<!-- Node5&#45;&gt;Node6 -->
<g id="edge5" class="edge">
<title>Node5&#45;&gt;Node6</title>
<path fill="none" stroke="midnightblue" d="M345.3,-883.09C304.09,-893.73 246.7,-908.55 208.38,-918.44"/>
<polygon fill="midnightblue" stroke="midnightblue" points="346.34,-886.44 355.15,-880.55 344.59,-879.66 346.34,-886.44"/>
</g>
<!-- Node7 -->
<g id="node7" class="node">
<title>Node7</title>
<g id="a_node7"><a xlink:href="pahm_8F90.html#a3d3918f5c5f1ac0a7991a7a78f530f30" target="_top" xlink:title=" ">
<polygon fill="white" stroke="black" points="0,-711.5 0,-732.5 47,-732.5 47,-711.5 0,-711.5"/>
<text text-anchor="middle" x="23.5" y="-718.9" font-family="Helvetica,sans-Serif" font-size="12.00">pahm</text>
</a>
</g>
</g>
<!-- Node6&#45;&gt;Node7 -->
<g id="edge6" class="edge">
<title>Node6&#45;&gt;Node7</title>
<path fill="none" stroke="midnightblue" d="M152.63,-910.11C123.68,-867.6 54.19,-765.58 31.67,-732.53"/>
<polygon fill="midnightblue" stroke="midnightblue" points="149.79,-912.16 158.31,-918.45 155.58,-908.22 149.79,-912.16"/>
</g>
<!-- Node13&#45;&gt;Node6 -->
<g id="edge13" class="edge">
<title>Node13&#45;&gt;Node6</title>
<path fill="none" stroke="midnightblue" d="M279.48,-929C269.6,-929 259.75,-929 250.21,-929"/>
<polygon fill="midnightblue" stroke="midnightblue" points="279.78,-932.5 289.78,-929 279.78,-925.5 279.78,-932.5"/>
</g>
<!-- Node15&#45;&gt;Node2 -->
<g id="edge16" class="edge">
<title>Node15&#45;&gt;Node2</title>
<path fill="none" stroke="midnightblue" d="M881.76,-990.27C835.8,-1003.19 765.76,-1022.87 715.69,-1036.95"/>
<polygon fill="midnightblue" stroke="midnightblue" points="882.8,-993.62 891.48,-987.55 880.9,-986.88 882.8,-993.62"/>
</g>
<!-- Node15&#45;&gt;Node16 -->
<g id="edge17" class="edge">
<title>Node15&#45;&gt;Node16</title>
<path fill="none" stroke="midnightblue" d="M843.08,-965.08C807.2,-960.11 765.87,-954.38 731.11,-949.56"/>
<polygon fill="midnightblue" stroke="midnightblue" points="842.65,-968.56 853.04,-966.47 843.62,-961.62 842.65,-968.56"/>
</g>
<!-- Node16&#45;&gt;Node13 -->
<g id="edge18" class="edge">
<title>Node16&#45;&gt;Node13</title>
<path fill="none" stroke="midnightblue" d="M533.56,-934.32C523.76,-933.93 513.89,-933.54 504.19,-933.16"/>
<polygon fill="midnightblue" stroke="midnightblue" points="533.62,-937.82 543.75,-934.72 533.89,-930.83 533.62,-937.82"/>
</g>
<!-- Node17&#45;&gt;Node14 -->
<g id="edge21" class="edge">
<title>Node17&#45;&gt;Node14</title>
<path fill="none" stroke="midnightblue" d="M850.16,-614.91C808.76,-608.57 758.65,-600.89 719.58,-594.9"/>
<polygon fill="midnightblue" stroke="midnightblue" points="849.8,-618.4 860.21,-616.46 850.86,-611.48 849.8,-618.4"/>
</g>
<!-- Node17&#45;&gt;Node18 -->
<g id="edge22" class="edge">
<title>Node17&#45;&gt;Node18</title>
<path fill="none" stroke="midnightblue" d="M898.51,-611.91C865.93,-596.35 812.42,-572.38 764,-558 751.55,-554.3 738.09,-551.16 725.01,-548.55"/>
<polygon fill="midnightblue" stroke="midnightblue" points="897.39,-615.26 907.92,-616.45 900.43,-608.95 897.39,-615.26"/>
</g>
<!-- Node19 -->
<g id="node19" class="node">
<title>Node19</title>
<g id="a_node19"><a xlink:href="namespaceparwind.html#a75c722a5d8fdb18014543923d7e4dcca" target="_top" xlink:title="Subroutine to read all a&#45;deck/b&#45;deck best track files (ATCF format).">
<polygon fill="white" stroke="black" points="310.5,-629.5 310.5,-650.5 483.5,-650.5 483.5,-629.5 310.5,-629.5"/>
<text text-anchor="middle" x="397" y="-636.9" font-family="Helvetica,sans-Serif" font-size="12.00">parwind::readcsvbesttrackfile</text>
</a>
</g>
</g>
<!-- Node17&#45;&gt;Node19 -->
<g id="edge23" class="edge">
<title>Node17&#45;&gt;Node19</title>
<path fill="none" stroke="midnightblue" d="M849.69,-628.94C751.5,-631.35 584.89,-635.42 483.79,-637.9"/>
<polygon fill="midnightblue" stroke="midnightblue" points="849.94,-632.44 859.85,-628.69 849.77,-625.44 849.94,-632.44"/>
</g>
<!-- Node17&#45;&gt;Node21 -->
<g id="edge26" class="edge">
<title>Node17&#45;&gt;Node21</title>
<path fill="none" stroke="midnightblue" d="M852.07,-639.07C811.25,-645.48 761.56,-653.28 722.29,-659.44"/>
<polygon fill="midnightblue" stroke="midnightblue" points="852.64,-642.53 861.97,-637.52 851.55,-635.61 852.64,-642.53"/>
</g>
<!-- Node19&#45;&gt;Node20 -->
<g id="edge24" class="edge">
<title>Node19&#45;&gt;Node20</title>
<path fill="none" stroke="midnightblue" d="M355.17,-653.85C334.42,-660.96 308.82,-669.82 286,-678 255.01,-689.1 219.65,-702.3 195.69,-711.33"/>
<polygon fill="midnightblue" stroke="midnightblue" points="356.31,-657.17 364.64,-650.62 354.04,-650.54 356.31,-657.17"/>
</g>
<!-- Node20&#45;&gt;Node7 -->
<g id="edge25" class="edge">
<title>Node20&#45;&gt;Node7</title>
<path fill="none" stroke="midnightblue" d="M73.88,-722C64.05,-722 54.82,-722 47.06,-722"/>
<polygon fill="midnightblue" stroke="midnightblue" points="73.89,-725.5 83.89,-722 73.89,-718.5 73.89,-725.5"/>
</g>
<!-- Node21&#45;&gt;Node22 -->
<g id="edge27" class="edge">
<title>Node21&#45;&gt;Node22</title>
<path fill="none" stroke="midnightblue" d="M547.2,-681.62C520.6,-684.54 492.7,-687.6 468.32,-690.28"/>
<polygon fill="midnightblue" stroke="midnightblue" points="547.76,-685.08 557.32,-680.51 547,-678.12 547.76,-685.08"/>
</g>
<!-- Node22&#45;&gt;Node20 -->
<g id="edge28" class="edge">
<title>Node22&#45;&gt;Node20</title>
<path fill="none" stroke="midnightblue" d="M315.77,-706.43C294.17,-708.7 270.78,-711.15 249.1,-713.43"/>
<polygon fill="midnightblue" stroke="midnightblue" points="316.31,-709.89 325.89,-705.36 315.58,-702.93 316.31,-709.89"/>
</g>
<!-- Node23&#45;&gt;Node7 -->
<g id="edge30" class="edge">
<title>Node23&#45;&gt;Node7</title>
<path fill="none" stroke="midnightblue" d="M146.04,-565.11C114.87,-605.35 55.01,-682.62 32.94,-711.11"/>
<polygon fill="midnightblue" stroke="midnightblue" points="148.88,-567.17 152.24,-557.12 143.34,-562.88 148.88,-567.17"/>
</g>
<!-- Node26 -->
<g id="node26" class="node">
<title>Node26</title>
<g id="a_node26"><a xlink:href="namespacepahm__drivermod.html#a3294ddc68b72ff9220010a8764a8afe3" target="_top" xlink:title="Prints on the screen the help system of the PaHM program.">
<polygon fill="white" stroke="black" points="286,-775.5 286,-796.5 508,-796.5 508,-775.5 286,-775.5"/>
<text text-anchor="middle" x="397" y="-782.9" font-family="Helvetica,sans-Serif" font-size="12.00">pahm_drivermod::getprogramcmdlargs</text>
</a>
</g>
</g>
<!-- Node25&#45;&gt;Node26 -->
<g id="edge36" class="edge">
<title>Node25&#45;&gt;Node26</title>
<path fill="none" stroke="midnightblue" d="M851.56,-781.73C761.06,-782.58 610.66,-784 508.06,-784.96"/>
<polygon fill="midnightblue" stroke="midnightblue" points="851.78,-785.23 861.75,-781.63 851.72,-778.23 851.78,-785.23"/>
</g>
<!-- Node26&#45;&gt;Node20 -->
<g id="edge37" class="edge">
<title>Node26&#45;&gt;Node20</title>
<path fill="none" stroke="midnightblue" d="M335.26,-773.27C319.17,-769.61 301.86,-765.4 286,-761 255.32,-752.49 220.8,-740.89 196.97,-732.56"/>
<polygon fill="midnightblue" stroke="midnightblue" points="334.57,-776.71 345.09,-775.48 336.1,-769.88 334.57,-776.71"/>
</g>
<!-- Node29&#45;&gt;Node14 -->
<g id="edge43" class="edge">
<title>Node29&#45;&gt;Node14</title>
<path fill="none" stroke="midnightblue" d="M883.54,-524.41C850.47,-534.05 804.56,-547.2 764,-558 749.68,-561.81 734.26,-565.74 719.65,-569.38"/>
<polygon fill="midnightblue" stroke="midnightblue" points="884.75,-527.7 893.37,-521.53 882.79,-520.98 884.75,-527.7"/>
</g>
<!-- Node29&#45;&gt;Node18 -->
<g id="edge44" class="edge">
<title>Node29&#45;&gt;Node18</title>
<path fill="none" stroke="midnightblue" d="M837.85,-519.98C803.42,-523.37 764.63,-527.2 731.66,-530.45"/>
<polygon fill="midnightblue" stroke="midnightblue" points="838.29,-523.46 847.9,-518.99 837.61,-516.49 838.29,-523.46"/>
</g>
<!-- Node29&#45;&gt;Node22 -->
<g id="edge45" class="edge">
<title>Node29&#45;&gt;Node22</title>
<path fill="none" stroke="midnightblue" d="M837.64,-500.38C738.28,-490.91 587.75,-483.32 544,-518 492.98,-558.45 552.06,-612.06 508,-660 495.83,-673.24 478.83,-681.87 461.82,-687.49"/>
<polygon fill="midnightblue" stroke="midnightblue" points="837.4,-503.87 847.69,-501.36 838.08,-496.9 837.4,-503.87"/>
</g>
<!-- Node29&#45;&gt;Node30 -->
<g id="edge46" class="edge">
<title>Node29&#45;&gt;Node30</title>
<path fill="none" stroke="midnightblue" d="M862.42,-498.52C842.33,-494.64 820.24,-490.26 800,-486 774.86,-480.71 747.36,-474.54 723.13,-468.98"/>
<polygon fill="midnightblue" stroke="midnightblue" points="861.93,-501.99 872.41,-500.44 863.25,-495.12 861.93,-501.99"/>
</g>
<!-- Node29&#45;&gt;Node31 -->
<g id="edge47" class="edge">
<title>Node29&#45;&gt;Node31</title>
<path fill="none" stroke="midnightblue" d="M896.68,-496.25C870.33,-483.98 832.31,-465.71 800,-448 783.56,-438.99 781.33,-433.15 764,-426 751.14,-420.69 736.96,-416.32 723.21,-412.78"/>
<polygon fill="midnightblue" stroke="midnightblue" points="895.29,-499.46 905.83,-500.49 898.23,-493.11 895.29,-499.46"/>
</g>
<!-- Node32&#45;&gt;Node4 -->
<g id="edge51" class="edge">
<title>Node32&#45;&gt;Node4</title>
<path fill="none" stroke="midnightblue" d="M854.14,-861C818.71,-861 776.25,-861 739.66,-861"/>
<polygon fill="midnightblue" stroke="midnightblue" points="854.41,-864.5 864.41,-861 854.41,-857.5 854.41,-864.5"/>
</g>
<!-- Node33&#45;&gt;Node6 -->
<g id="edge53" class="edge">
<title>Node33&#45;&gt;Node6</title>
<path fill="none" stroke="midnightblue" d="M359.58,-1058.63C337.62,-1049.36 309.45,-1036.37 286,-1022 244.08,-996.31 199.82,-958.2 179.27,-939.76"/>
<polygon fill="midnightblue" stroke="midnightblue" points="358.31,-1061.89 368.89,-1062.49 360.99,-1055.43 358.31,-1061.89"/>
</g>
</g>
</svg>
        <g id="navigator" transform="translate(0 0)" fill="#404254">
                <rect fill="#f2f5e9" fill-opacity="0.5" stroke="#606060" stroke-width=".5" x="0" y="0" width="60" height="60"/>
                <use id="zoomplus" xlink:href="#zoomPlus" x="17" y="9" onmousedown="handleZoom(evt,'in')"/>
                <use id="zoomminus" xlink:href="#zoomMin" x="42" y="9" onmousedown="handleZoom(evt,'out')"/>
                <use id="reset" xlink:href="#resetDef" x="30" y="36" onmousedown="handleReset()"/>
                <g id="arrowUp" xlink:href="#dirArrow" transform="translate(30 24)" onmousedown="handlePan(0,-1)">
                  <use xlink:href="#rim" fill="#404040">
                        <set attributeName="fill" to="#808080" begin="arrowUp.mouseover" end="arrowUp.mouseout"/>
                  </use>
                  <path fill="none" stroke="white" stroke-width="1.5" d="M0,-3.0v7 M-2.5,-0.5L0,-3.0L2.5,-0.5"/>
                </g>
                <g id="arrowRight" xlink:href="#dirArrow" transform="rotate(90) translate(36 -43)" onmousedown="handlePan(1,0)">
                  <use xlink:href="#rim" fill="#404040">
                        <set attributeName="fill" to="#808080" begin="arrowRight.mouseover" end="arrowRight.mouseout"/>
                  </use>
                  <path fill="none" stroke="white" stroke-width="1.5" d="M0,-3.0v7 M-2.5,-0.5L0,-3.0L2.5,-0.5"/>
                </g>
                <g id="arrowDown" xlink:href="#dirArrow" transform="rotate(180) translate(-30 -48)" onmousedown="handlePan(0,1)">
                  <use xlink:href="#rim" fill="#404040">
                        <set attributeName="fill" to="#808080" begin="arrowDown.mouseover" end="arrowDown.mouseout"/>
                  </use>
                  <path fill="none" stroke="white" stroke-width="1.5" d="M0,-3.0v7 M-2.5,-0.5L0,-3.0L2.5,-0.5"/>
                </g>
                <g id="arrowLeft" xlink:href="#dirArrow" transform="rotate(270) translate(-36 17)" onmousedown="handlePan(-1,0)">
                  <use xlink:href="#rim" fill="#404040">
                        <set attributeName="fill" to="#808080" begin="arrowLeft.mouseover" end="arrowLeft.mouseout"/>
                  </use>
                  <path fill="none" stroke="white" stroke-width="1.5" d="M0,-3.0v7 M-2.5,-0.5L0,-3.0L2.5,-0.5"/>
                </g>
        </g>
        <svg viewBox="0 0 15 15" width="100%" height="30px" preserveAspectRatio="xMaxYMin meet">
         <g id="arrow_out" transform="scale(0.3 0.3)">
          <a xlink:href="namespacepahm__messages_acf0c696cc1604842ee84a5df6d81179c_icgraph_org.svg" target="_base">
           <rect id="button" ry="5" rx="5" y="6" x="6" height="38" width="38"
                fill="#f2f5e9" fill-opacity="0.5" stroke="#606060" stroke-width="1.0"/>
           <path id="arrow"
             d="M 11.500037,31.436501 C 11.940474,20.09759 22.043105,11.32322 32.158766,21.979434 L 37.068811,17.246167 C 37.068811,17.246167 37.088388,32 37.088388,32 L 22.160133,31.978069 C 22.160133,31.978069 26.997745,27.140456 26.997745,27.140456 C 18.528582,18.264221 13.291696,25.230495 11.500037,31.436501 z"
             style="fill:#404040;"/>
          </a>
         </g>
        </svg>
</svg>
