<?xml version="1.0" encoding="UTF-8" standalone="no"?>
<!DOCTYPE svg PUBLIC "-//W3C//DTD SVG 1.1//EN"
 "http://www.w3.org/Graphics/SVG/1.1/DTD/svg11.dtd">
<!-- Generated by graphviz version 2.42.4 (0)
 -->
<!-- Title: parwind::getgahmfields Pages: 1 -->
<svg width="1073pt" height="870pt"
 viewBox="0.00 0.00 1073.00 870.00" xmlns="http://www.w3.org/2000/svg" xmlns:xlink="http://www.w3.org/1999/xlink">
<g id="graph0" class="graph" transform="scale(1 1) rotate(0) translate(4 866)">
<title>parwind::getgahmfields</title>
<polygon fill="white" stroke="transparent" points="-4,4 -4,-866 1069,-866 1069,4 -4,4"/>
<!-- Node1 -->
<g id="node1" class="node">
<title>Node1</title>
<g id="a_node1"><a xlink:title="Calculates wind velocities and MSL pressures at the mesh nodes from the GAHM Wind model.">
<polygon fill="#bfbfbf" stroke="black" points="0,-500.5 0,-521.5 141,-521.5 141,-500.5 0,-500.5"/>
<text text-anchor="middle" x="70.5" y="-507.9" font-family="Helvetica,sans-Serif" font-size="12.00">parwind::getgahmfields</text>
</a>
</g>
</g>
<!-- Node2 -->
<g id="node2" class="node">
<title>Node2</title>
<g id="a_node2"><a xlink:href="namespacetimedateutils.html#a565d549493d69e2c9ea5b7af18247df5" target="_top" xlink:title="Constructs a NetCDF time string.">
<polygon fill="white" stroke="black" points="203,-810.5 203,-831.5 375,-831.5 375,-810.5 203,-810.5"/>
<text text-anchor="middle" x="289" y="-817.9" font-family="Helvetica,sans-Serif" font-size="12.00">timedateutils::datetime2string</text>
</a>
</g>
</g>
<!-- Node1&#45;&gt;Node2 -->
<g id="edge1" class="edge">
<title>Node1&#45;&gt;Node2</title>
<path fill="none" stroke="midnightblue" d="M72.95,-521.69C78.74,-560.37 103.51,-694.68 177,-771 193.07,-787.69 215.74,-799.26 236.4,-807.03"/>
<polygon fill="midnightblue" stroke="midnightblue" points="235.44,-810.4 246.03,-810.44 237.77,-803.8 235.44,-810.4"/>
</g>
<!-- Node4 -->
<g id="node4" class="node">
<title>Node4</title>
<g id="a_node4"><a xlink:href="namespaceparwind.html#a7ef7c703a8b49ca555541ebb59f20a76" target="_top" xlink:title="Subroutine to deallocate memory of an allocated asymetric vortex structure.">
<polygon fill="white" stroke="black" points="198,-640.5 198,-661.5 380,-661.5 380,-640.5 198,-640.5"/>
<text text-anchor="middle" x="289" y="-647.9" font-family="Helvetica,sans-Serif" font-size="12.00">parwind::deallocasymvortstruct</text>
</a>
</g>
</g>
<!-- Node1&#45;&gt;Node4 -->
<g id="edge3" class="edge">
<title>Node1&#45;&gt;Node4</title>
<path fill="none" stroke="midnightblue" d="M77.5,-521.8C91.47,-545.83 128.69,-603.73 177,-631 180.89,-633.2 184.98,-635.16 189.18,-636.92"/>
<polygon fill="midnightblue" stroke="midnightblue" points="187.97,-640.2 198.56,-640.44 190.43,-633.65 187.97,-640.2"/>
</g>
<!-- Node5 -->
<g id="node5" class="node">
<title>Node5</title>
<g id="a_node5"><a xlink:href="namespacepahm__vortex.html#a5a31eb08b00f4f789596959da9447049" target="_top" xlink:title=" ">
<polygon fill="white" stroke="black" points="216,-600.5 216,-621.5 362,-621.5 362,-600.5 216,-600.5"/>
<text text-anchor="middle" x="289" y="-607.9" font-family="Helvetica,sans-Serif" font-size="12.00">pahm_vortex::fitrmaxes4</text>
</a>
</g>
</g>
<!-- Node1&#45;&gt;Node5 -->
<g id="edge4" class="edge">
<title>Node1&#45;&gt;Node5</title>
<path fill="none" stroke="midnightblue" d="M81.78,-521.54C99.49,-539 137.64,-573.73 177,-591 186.08,-594.98 195.91,-598.17 205.83,-600.73"/>
<polygon fill="midnightblue" stroke="midnightblue" points="205.23,-604.18 215.77,-603.08 206.84,-597.37 205.23,-604.18"/>
</g>
<!-- Node6 -->
<g id="node6" class="node">
<title>Node6</title>
<g id="a_node6"><a xlink:href="namespaceutilities.html#a35b859c005e3b9cc063bdc46a1675159" target="_top" xlink:title="Calculates the location of a value in an 1D array of values.">
<polygon fill="white" stroke="black" points="221,-560.5 221,-581.5 357,-581.5 357,-560.5 221,-560.5"/>
<text text-anchor="middle" x="289" y="-567.9" font-family="Helvetica,sans-Serif" font-size="12.00">utilities::getlocandratio</text>
</a>
</g>
</g>
<!-- Node1&#45;&gt;Node6 -->
<g id="edge5" class="edge">
<title>Node1&#45;&gt;Node6</title>
<path fill="none" stroke="midnightblue" d="M95.38,-521.5C116.49,-530.44 148.31,-543.05 177,-551 187.87,-554.01 199.47,-556.68 210.93,-559.01"/>
<polygon fill="midnightblue" stroke="midnightblue" points="210.44,-562.48 220.93,-560.97 211.79,-555.61 210.44,-562.48"/>
</g>
<!-- Node7 -->
<g id="node7" class="node">
<title>Node7</title>
<g id="a_node7"><a xlink:href="namespacetimedateutils.html#a6c7acacb9981bb9182378a449e45715b" target="_top" xlink:title="Calculates the conversion factor between time units and seconds.">
<polygon fill="white" stroke="black" points="202,-740.5 202,-761.5 376,-761.5 376,-740.5 202,-740.5"/>
<text text-anchor="middle" x="289" y="-747.9" font-family="Helvetica,sans-Serif" font-size="12.00">timedateutils::gettimeconvsec</text>
</a>
</g>
</g>
<!-- Node1&#45;&gt;Node7 -->
<g id="edge6" class="edge">
<title>Node1&#45;&gt;Node7</title>
<path fill="none" stroke="midnightblue" d="M76.77,-521.66C90.53,-548.79 129.78,-621.78 177,-671 202.08,-697.14 236.67,-720.53 260.54,-735.17"/>
<polygon fill="midnightblue" stroke="midnightblue" points="258.75,-738.17 269.13,-740.34 262.37,-732.18 258.75,-738.17"/>
</g>
<!-- Node8 -->
<g id="node8" class="node">
<title>Node8</title>
<g id="a_node8"><a xlink:href="namespacetimedateutils.html#abc63ac16baec18b6c9bb2ee6e0400a63" target="_top" xlink:title="Determines the Julian date from a Gregorian date.">
<polygon fill="white" stroke="black" points="211.5,-520.5 211.5,-541.5 366.5,-541.5 366.5,-520.5 211.5,-520.5"/>
<text text-anchor="middle" x="289" y="-527.9" font-family="Helvetica,sans-Serif" font-size="12.00">timedateutils::juldaytogreg</text>
</a>
</g>
</g>
<!-- Node1&#45;&gt;Node8 -->
<g id="edge8" class="edge">
<title>Node1&#45;&gt;Node8</title>
<path fill="none" stroke="midnightblue" d="M141.19,-517.44C160.33,-519.21 181.32,-521.15 201.29,-522.99"/>
<polygon fill="midnightblue" stroke="midnightblue" points="201.04,-526.48 211.32,-523.92 201.68,-519.51 201.04,-526.48"/>
</g>
<!-- Node9 -->
<g id="node9" class="node">
<title>Node9</title>
<g id="a_node9"><a xlink:href="namespaceparwind.html#ac27ad597b28ef7e2b0f2eba529c0c3a2" target="_top" xlink:title="Subroutine to support the asymetric vortex model(s) (Holland or otherwise).">
<polygon fill="white" stroke="black" points="177,-440.5 177,-461.5 401,-461.5 401,-440.5 177,-440.5"/>
<text text-anchor="middle" x="289" y="-447.9" font-family="Helvetica,sans-Serif" font-size="12.00">parwind::processasymmetricvortexdata</text>
</a>
</g>
</g>
<!-- Node1&#45;&gt;Node9 -->
<g id="edge9" class="edge">
<title>Node1&#45;&gt;Node9</title>
<path fill="none" stroke="midnightblue" d="M95.38,-500.5C116.49,-491.56 148.31,-478.95 177,-471 187.01,-468.23 197.64,-465.74 208.2,-463.55"/>
<polygon fill="midnightblue" stroke="midnightblue" points="209.16,-466.93 218.28,-461.53 207.79,-460.06 209.16,-466.93"/>
</g>
<!-- Node31 -->
<g id="node31" class="node">
<title>Node31</title>
<g id="a_node31"><a xlink:href="namespaceutilities.html#a8dff395c74e87d059dadcf8bacdbfedd" target="_top" xlink:title="Convert a string to upper&#45;case.">
<polygon fill="white" stroke="black" points="479,-40.5 479,-61.5 605,-61.5 605,-40.5 479,-40.5"/>
<text text-anchor="middle" x="542" y="-47.9" font-family="Helvetica,sans-Serif" font-size="12.00">utilities::touppercase</text>
</a>
</g>
</g>
<!-- Node1&#45;&gt;Node31 -->
<g id="edge41" class="edge">
<title>Node1&#45;&gt;Node31</title>
<path fill="none" stroke="midnightblue" d="M81.76,-500.42C99.44,-482.89 137.55,-448.07 177,-431 269.67,-390.9 331.65,-466.4 401,-393 499.9,-288.33 339.26,-176.75 437,-71 445.52,-61.78 456.89,-56.06 468.98,-52.62"/>
<polygon fill="midnightblue" stroke="midnightblue" points="469.85,-56.01 478.79,-50.33 468.26,-49.2 469.85,-56.01"/>
</g>
<!-- Node34 -->
<g id="node34" class="node">
<title>Node34</title>
<g id="a_node34"><a xlink:href="namespacepahm__vortex.html#aec49ae4ff8d891838b8406c4bdda4315" target="_top" xlink:title="Sets basic parameters for a new Vortex object.">
<polygon fill="white" stroke="black" points="219,-362.5 219,-383.5 359,-383.5 359,-362.5 219,-362.5"/>
<text text-anchor="middle" x="289" y="-369.9" font-family="Helvetica,sans-Serif" font-size="12.00">pahm_vortex::setvortex</text>
</a>
</g>
</g>
<!-- Node1&#45;&gt;Node34 -->
<g id="edge37" class="edge">
<title>Node1&#45;&gt;Node34</title>
<path fill="none" stroke="midnightblue" d="M78.19,-500.3C93,-477.57 130.9,-424.43 177,-398 186.87,-392.34 197.93,-387.96 209.13,-384.57"/>
<polygon fill="midnightblue" stroke="midnightblue" points="210.28,-387.88 218.98,-381.84 208.41,-381.14 210.28,-387.88"/>
</g>
<!-- Node35 -->
<g id="node35" class="node">
<title>Node35</title>
<g id="a_node35"><a xlink:href="namespaceutilities.html#a0ef8b9a5f7a0aac72618c3e7b05adf44" target="_top" xlink:title="Calculates the coordinates of an intermediate point between two points along the great circle.">
<polygon fill="white" stroke="black" points="211.5,-322.5 211.5,-343.5 366.5,-343.5 366.5,-322.5 211.5,-322.5"/>
<text text-anchor="middle" x="289" y="-329.9" font-family="Helvetica,sans-Serif" font-size="12.00">utilities::sphericalfracpoint</text>
</a>
</g>
</g>
<!-- Node1&#45;&gt;Node35 -->
<g id="edge38" class="edge">
<title>Node1&#45;&gt;Node35</title>
<path fill="none" stroke="midnightblue" d="M75.18,-500.39C85.84,-471.41 119.62,-390.61 177,-353 184.58,-348.03 193.04,-344.21 201.82,-341.28"/>
<polygon fill="midnightblue" stroke="midnightblue" points="202.85,-344.62 211.45,-338.43 200.87,-337.91 202.85,-344.62"/>
</g>
<!-- Node36 -->
<g id="node36" class="node">
<title>Node36</title>
<g id="a_node36"><a xlink:href="namespacepahm__vortex.html#a36692ff3ecdbb6e597657d579df88a12" target="_top" xlink:title="Spatial Interpolation function based on angle and r.">
<polygon fill="white" stroke="black" points="222,-141.5 222,-162.5 356,-162.5 356,-141.5 222,-141.5"/>
<text text-anchor="middle" x="289" y="-148.9" font-family="Helvetica,sans-Serif" font-size="12.00">pahm_vortex::spinterp</text>
</a>
</g>
</g>
<!-- Node1&#45;&gt;Node36 -->
<g id="edge39" class="edge">
<title>Node1&#45;&gt;Node36</title>
<path fill="none" stroke="midnightblue" d="M76.58,-500.46C91.15,-470.51 134.69,-382.55 177,-313 209.3,-259.9 252.17,-200.42 273.97,-170.83"/>
<polygon fill="midnightblue" stroke="midnightblue" points="276.89,-172.77 280.03,-162.65 271.26,-168.6 276.89,-172.77"/>
</g>
<!-- Node38 -->
<g id="node38" class="node">
<title>Node38</title>
<g id="a_node38"><a xlink:href="namespacepahm__vortex.html#aa42dc3ab759309e12cbb96f3eb1357c4" target="_top" xlink:title="Calculates (u, v) wind components and surface pressure from an asymmetric hurricane wind model.">
<polygon fill="white" stroke="black" points="231.5,-480.5 231.5,-501.5 346.5,-501.5 346.5,-480.5 231.5,-480.5"/>
<text text-anchor="middle" x="289" y="-487.9" font-family="Helvetica,sans-Serif" font-size="12.00">pahm_vortex::uvpr</text>
</a>
</g>
</g>
<!-- Node1&#45;&gt;Node38 -->
<g id="edge42" class="edge">
<title>Node1&#45;&gt;Node38</title>
<path fill="none" stroke="midnightblue" d="M141.19,-504.56C166.83,-502.19 195.79,-499.52 221.17,-497.17"/>
<polygon fill="midnightblue" stroke="midnightblue" points="221.81,-500.63 231.44,-496.22 221.16,-493.66 221.81,-500.63"/>
</g>
<!-- Node3 -->
<g id="node3" class="node">
<title>Node3</title>
<g id="a_node3"><a xlink:href="namespacetimedateutils.html#a09a914846a02d3d430348f83c67d58b5" target="_top" xlink:title="Convert a string to upper&#45;case.">
<polygon fill="white" stroke="black" points="487,-840.5 487,-861.5 597,-861.5 597,-840.5 487,-840.5"/>
<text text-anchor="middle" x="542" y="-847.9" font-family="Helvetica,sans-Serif" font-size="12.00">timedateutils::upp</text>
</a>
</g>
</g>
<!-- Node2&#45;&gt;Node3 -->
<g id="edge2" class="edge">
<title>Node2&#45;&gt;Node3</title>
<path fill="none" stroke="midnightblue" d="M375.33,-831.2C408.53,-835.17 445.92,-839.64 476.76,-843.32"/>
<polygon fill="midnightblue" stroke="midnightblue" points="476.61,-846.83 486.96,-844.54 477.45,-839.88 476.61,-846.83"/>
</g>
<!-- Node7&#45;&gt;Node3 -->
<g id="edge7" class="edge">
<title>Node7&#45;&gt;Node3</title>
<path fill="none" stroke="midnightblue" d="M318.91,-761.51C341.97,-770.48 374.66,-784.52 401,-801 418.66,-812.05 418.18,-822.08 437,-831 449.44,-836.89 463.49,-841.05 477.15,-843.98"/>
<polygon fill="midnightblue" stroke="midnightblue" points="476.51,-847.42 487,-845.9 477.86,-840.55 476.51,-847.42"/>
</g>
<!-- Node10 -->
<g id="node10" class="node">
<title>Node10</title>
<g id="a_node10"><a xlink:href="namespaceparwind.html#a13a3511750757644c7ab3dbeb92ca4a3" target="_top" xlink:title="Subroutine to allocate memory for an asymmetric vortex structure.">
<polygon fill="white" stroke="black" points="457.5,-720.5 457.5,-741.5 626.5,-741.5 626.5,-720.5 457.5,-720.5"/>
<text text-anchor="middle" x="542" y="-727.9" font-family="Helvetica,sans-Serif" font-size="12.00">parwind::allocasymvortstruct</text>
</a>
</g>
</g>
<!-- Node9&#45;&gt;Node10 -->
<g id="edge10" class="edge">
<title>Node9&#45;&gt;Node10</title>
<path fill="none" stroke="midnightblue" d="M389.21,-461.58C393.48,-464.23 397.45,-467.35 401,-471 476.14,-548.38 362.31,-633.18 437,-711 440.44,-714.58 444.31,-717.63 448.49,-720.22"/>
<polygon fill="midnightblue" stroke="midnightblue" points="446.96,-723.37 457.44,-724.91 450.2,-717.17 446.96,-723.37"/>
</g>
<!-- Node11 -->
<g id="node11" class="node">
<title>Node11</title>
<g id="a_node11"><a xlink:href="namespacepahm__vortex.html#a8b8e9e59c6d25c54f87fbd516c0d6ee0" target="_top" xlink:title="Calculates the radius of maximum winds for all storm quadrants.">
<polygon fill="white" stroke="black" points="466,-680.5 466,-701.5 618,-701.5 618,-680.5 466,-680.5"/>
<text text-anchor="middle" x="542" y="-687.9" font-family="Helvetica,sans-Serif" font-size="12.00">pahm_vortex::calcrmaxes</text>
</a>
</g>
</g>
<!-- Node9&#45;&gt;Node11 -->
<g id="edge11" class="edge">
<title>Node9&#45;&gt;Node11</title>
<path fill="none" stroke="midnightblue" d="M389.08,-461.7C393.39,-464.32 397.4,-467.4 401,-471 464.86,-534.87 373.52,-606.76 437,-671 442.59,-676.66 449.26,-680.97 456.48,-684.24"/>
<polygon fill="midnightblue" stroke="midnightblue" points="455.3,-687.53 465.89,-687.84 457.8,-680.99 455.3,-687.53"/>
</g>
<!-- Node16 -->
<g id="node16" class="node">
<title>Node16</title>
<g id="a_node16"><a xlink:href="namespacepahm__vortex.html#a4aa80220bd5616d4d2f267e48bfe3861" target="_top" xlink:title="Calculates the radius of maximum winds for all storm quadrants.">
<polygon fill="white" stroke="black" points="458,-640.5 458,-661.5 626,-661.5 626,-640.5 458,-640.5"/>
<text text-anchor="middle" x="542" y="-647.9" font-family="Helvetica,sans-Serif" font-size="12.00">pahm_vortex::calcrmaxesfull</text>
</a>
</g>
</g>
<!-- Node9&#45;&gt;Node16 -->
<g id="edge17" class="edge">
<title>Node9&#45;&gt;Node16</title>
<path fill="none" stroke="midnightblue" d="M388.39,-461.6C392.93,-464.23 397.18,-467.34 401,-471 453.64,-521.42 384.66,-580.27 437,-631 440.57,-634.46 444.54,-637.41 448.79,-639.92"/>
<polygon fill="midnightblue" stroke="midnightblue" points="447.37,-643.12 457.87,-644.48 450.51,-636.86 447.37,-643.12"/>
</g>
<!-- Node18 -->
<g id="node18" class="node">
<title>Node18</title>
<g id="a_node18"><a xlink:href="namespaceutilities.html#a241eabd46f9d0e4a26adc221570ad79f" target="_top" xlink:title="Find the unique non&#45;blank elements in 1D character array.">
<polygon fill="white" stroke="black" points="482,-600.5 482,-621.5 602,-621.5 602,-600.5 482,-600.5"/>
<text text-anchor="middle" x="542" y="-607.9" font-family="Helvetica,sans-Serif" font-size="12.00">utilities::charunique</text>
</a>
</g>
</g>
<!-- Node9&#45;&gt;Node18 -->
<g id="edge21" class="edge">
<title>Node9&#45;&gt;Node18</title>
<path fill="none" stroke="midnightblue" d="M387.32,-461.51C392.23,-464.15 396.84,-467.28 401,-471 442.54,-508.08 395.68,-553.67 437,-591 446.73,-599.79 459.11,-605.24 471.91,-608.52"/>
<polygon fill="midnightblue" stroke="midnightblue" points="471.23,-611.95 481.74,-610.62 472.7,-605.11 471.23,-611.95"/>
</g>
<!-- Node19 -->
<g id="node19" class="node">
<title>Node19</title>
<g id="a_node19"><a xlink:href="namespacepahm__vortex.html#a4d3964bc688515cb90cce06075736a3e" target="_top" xlink:title="Compute a wind angle to parameterize frictional inflow across isobars.">
<polygon fill="white" stroke="black" points="484.5,-760.5 484.5,-781.5 599.5,-781.5 599.5,-760.5 484.5,-760.5"/>
<text text-anchor="middle" x="542" y="-767.9" font-family="Helvetica,sans-Serif" font-size="12.00">pahm_vortex::fang</text>
</a>
</g>
</g>
<!-- Node9&#45;&gt;Node19 -->
<g id="edge22" class="edge">
<title>Node9&#45;&gt;Node19</title>
<path fill="none" stroke="midnightblue" d="M389.79,-461.8C393.85,-464.41 397.63,-467.45 401,-471 487.46,-561.93 351.08,-659.57 437,-751 446.78,-761.4 460.19,-767.34 474.14,-770.55"/>
<polygon fill="midnightblue" stroke="midnightblue" points="473.87,-774.06 484.34,-772.44 475.15,-767.18 473.87,-774.06"/>
</g>
<!-- Node20 -->
<g id="node20" class="node">
<title>Node20</title>
<g id="a_node20"><a xlink:href="namespacepahm__vortex.html#a50a6a2176317ad8726e41c879aa369ca" target="_top" xlink:title=" ">
<polygon fill="white" stroke="black" points="462,-560.5 462,-581.5 622,-581.5 622,-560.5 462,-560.5"/>
<text text-anchor="middle" x="542" y="-567.9" font-family="Helvetica,sans-Serif" font-size="12.00">pahm_vortex::getphifactors</text>
</a>
</g>
</g>
<!-- Node9&#45;&gt;Node20 -->
<g id="edge23" class="edge">
<title>Node9&#45;&gt;Node20</title>
<path fill="none" stroke="midnightblue" d="M385.43,-461.53C390.96,-464.14 396.22,-467.26 401,-471 431.73,-495 406.41,-526.82 437,-551 441.71,-554.73 446.92,-557.83 452.41,-560.4"/>
<polygon fill="midnightblue" stroke="midnightblue" points="451.31,-563.73 461.89,-564.25 453.94,-557.25 451.31,-563.73"/>
</g>
<!-- Node21 -->
<g id="node21" class="node">
<title>Node21</title>
<g id="a_node21"><a xlink:href="namespacepahm__vortex.html#a49b70ea3a709e8aca72137cb61cda8fe" target="_top" xlink:title=" ">
<polygon fill="white" stroke="black" points="468.5,-520.5 468.5,-541.5 615.5,-541.5 615.5,-520.5 468.5,-520.5"/>
<text text-anchor="middle" x="542" y="-527.9" font-family="Helvetica,sans-Serif" font-size="12.00">pahm_vortex::getrmaxes</text>
</a>
</g>
</g>
<!-- Node9&#45;&gt;Node21 -->
<g id="edge24" class="edge">
<title>Node9&#45;&gt;Node21</title>
<path fill="none" stroke="midnightblue" d="M379.1,-461.55C386.74,-464.08 394.16,-467.19 401,-471 421.9,-482.64 416.17,-499.24 437,-511 443.75,-514.81 451.11,-517.91 458.68,-520.43"/>
<polygon fill="midnightblue" stroke="midnightblue" points="457.77,-523.81 468.35,-523.32 459.77,-517.11 457.77,-523.81"/>
</g>
<!-- Node22 -->
<g id="node22" class="node">
<title>Node22</title>
<g id="a_node22"><a xlink:href="namespacepahm__vortex.html#ae27ba7661c30ad1c20c0d6cb6f0b5e44" target="_top" xlink:title=" ">
<polygon fill="white" stroke="black" points="444.5,-480.5 444.5,-501.5 639.5,-501.5 639.5,-480.5 444.5,-480.5"/>
<text text-anchor="middle" x="542" y="-487.9" font-family="Helvetica,sans-Serif" font-size="12.00">pahm_vortex::getshapeparameter</text>
</a>
</g>
</g>
<!-- Node9&#45;&gt;Node22 -->
<g id="edge25" class="edge">
<title>Node9&#45;&gt;Node22</title>
<path fill="none" stroke="midnightblue" d="M355.95,-461.51C389.39,-466.84 430.19,-473.34 464.95,-478.88"/>
<polygon fill="midnightblue" stroke="midnightblue" points="464.63,-482.37 475.06,-480.49 465.73,-475.46 464.63,-482.37"/>
</g>
<!-- Node23 -->
<g id="node23" class="node">
<title>Node23</title>
<g id="a_node23"><a xlink:href="namespacepahm__vortex.html#ab942e7c7cd5894dcefe967e609d9ab67" target="_top" xlink:title=" ">
<polygon fill="white" stroke="black" points="441.5,-440.5 441.5,-461.5 642.5,-461.5 642.5,-440.5 441.5,-440.5"/>
<text text-anchor="middle" x="542" y="-447.9" font-family="Helvetica,sans-Serif" font-size="12.00">pahm_vortex::getshapeparameters</text>
</a>
</g>
</g>
<!-- Node9&#45;&gt;Node23 -->
<g id="edge26" class="edge">
<title>Node9&#45;&gt;Node23</title>
<path fill="none" stroke="midnightblue" d="M401.19,-451C411.12,-451 421.16,-451 431.08,-451"/>
<polygon fill="midnightblue" stroke="midnightblue" points="431.35,-454.5 441.35,-451 431.35,-447.5 431.35,-454.5"/>
</g>
<!-- Node24 -->
<g id="node24" class="node">
<title>Node24</title>
<g id="a_node24"><a xlink:href="namespacepahm__vortex.html#acc3d1bbecfc799064da25d4f79a84c72" target="_top" xlink:title=" ">
<polygon fill="white" stroke="black" points="462,-400.5 462,-421.5 622,-421.5 622,-400.5 462,-400.5"/>
<text text-anchor="middle" x="542" y="-407.9" font-family="Helvetica,sans-Serif" font-size="12.00">pahm_vortex::getvmaxesbl</text>
</a>
</g>
</g>
<!-- Node9&#45;&gt;Node24 -->
<g id="edge27" class="edge">
<title>Node9&#45;&gt;Node24</title>
<path fill="none" stroke="midnightblue" d="M355.95,-440.49C389.39,-435.16 430.19,-428.66 464.95,-423.12"/>
<polygon fill="midnightblue" stroke="midnightblue" points="465.73,-426.54 475.06,-421.51 464.63,-419.63 465.73,-426.54"/>
</g>
<!-- Node25 -->
<g id="node25" class="node">
<title>Node25</title>
<g id="a_node25"><a xlink:href="namespacepahm__vortex.html#a2068d15c97a85bd4476a4522c233820e" target="_top" xlink:title="Creates a new Vortex object.">
<polygon fill="white" stroke="black" points="461,-360.5 461,-381.5 623,-381.5 623,-360.5 461,-360.5"/>
<text text-anchor="middle" x="542" y="-367.9" font-family="Helvetica,sans-Serif" font-size="12.00">pahm_vortex::newvortexfull</text>
</a>
</g>
</g>
<!-- Node9&#45;&gt;Node25 -->
<g id="edge28" class="edge">
<title>Node9&#45;&gt;Node25</title>
<path fill="none" stroke="midnightblue" d="M363.43,-440.47C376.41,-436.95 389.45,-432.26 401,-426 420.62,-415.37 417.21,-401.32 437,-391 441.52,-388.64 446.28,-386.56 451.18,-384.72"/>
<polygon fill="midnightblue" stroke="midnightblue" points="452.39,-388.01 460.73,-381.48 450.14,-381.38 452.39,-388.01"/>
</g>
<!-- Node26 -->
<g id="node26" class="node">
<title>Node26</title>
<g id="a_node26"><a xlink:href="namespacepahm__vortex.html#aaab97c7e261e40b1326920c6ea427f2d" target="_top" xlink:title=" ">
<polygon fill="white" stroke="black" points="457.5,-320.5 457.5,-341.5 626.5,-341.5 626.5,-320.5 457.5,-320.5"/>
<text text-anchor="middle" x="542" y="-327.9" font-family="Helvetica,sans-Serif" font-size="12.00">pahm_vortex::setisotachradii</text>
</a>
</g>
</g>
<!-- Node9&#45;&gt;Node26 -->
<g id="edge29" class="edge">
<title>Node9&#45;&gt;Node26</title>
<path fill="none" stroke="midnightblue" d="M374.94,-440.44C384.33,-436.85 393.27,-432.15 401,-426 429.93,-402.97 407.71,-373.57 437,-351 440.44,-348.35 444.13,-346.02 448,-343.97"/>
<polygon fill="midnightblue" stroke="midnightblue" points="449.68,-347.04 457.3,-339.68 446.75,-340.69 449.68,-347.04"/>
</g>
<!-- Node27 -->
<g id="node27" class="node">
<title>Node27</title>
<g id="a_node27"><a xlink:href="namespacepahm__vortex.html#ae829eb4bd86cf66b7417dd8c135cd14c" target="_top" xlink:title=" ">
<polygon fill="white" stroke="black" points="437,-280.5 437,-301.5 647,-301.5 647,-280.5 437,-280.5"/>
<text text-anchor="middle" x="542" y="-287.9" font-family="Helvetica,sans-Serif" font-size="12.00">pahm_vortex::setisotachwindspeeds</text>
</a>
</g>
</g>
<!-- Node9&#45;&gt;Node27 -->
<g id="edge30" class="edge">
<title>Node9&#45;&gt;Node27</title>
<path fill="none" stroke="midnightblue" d="M378.32,-440.44C386.62,-436.8 394.39,-432.09 401,-426 440.39,-389.71 397.04,-346.66 437,-311 438.54,-309.62 440.15,-308.33 441.82,-307.11"/>
<polygon fill="midnightblue" stroke="midnightblue" points="443.94,-309.91 450.57,-301.65 440.23,-303.97 443.94,-309.91"/>
</g>
<!-- Node28 -->
<g id="node28" class="node">
<title>Node28</title>
<g id="a_node28"><a xlink:href="namespacepahm__vortex.html#a2babf5c497b67cb302ce24a444d46b69" target="_top" xlink:title=" ">
<polygon fill="white" stroke="black" points="449.5,-240.5 449.5,-261.5 634.5,-261.5 634.5,-240.5 449.5,-240.5"/>
<text text-anchor="middle" x="542" y="-247.9" font-family="Helvetica,sans-Serif" font-size="12.00">pahm_vortex::setusequadrantvr</text>
</a>
</g>
</g>
<!-- Node9&#45;&gt;Node28 -->
<g id="edge31" class="edge">
<title>Node9&#45;&gt;Node28</title>
<path fill="none" stroke="midnightblue" d="M379.87,-440.44C387.67,-436.78 394.9,-432.06 401,-426 451.18,-376.16 386.05,-320.04 437,-271 438.32,-269.73 439.7,-268.53 441.12,-267.39"/>
<polygon fill="midnightblue" stroke="midnightblue" points="443.43,-270.06 449.76,-261.57 439.51,-264.25 443.43,-270.06"/>
</g>
<!-- Node29 -->
<g id="node29" class="node">
<title>Node29</title>
<g id="a_node29"><a xlink:href="namespacepahm__vortex.html#aa71f92eb0375994452c5d67fe09a906c" target="_top" xlink:title=" ">
<polygon fill="white" stroke="black" points="453,-200.5 453,-221.5 631,-221.5 631,-200.5 453,-200.5"/>
<text text-anchor="middle" x="542" y="-207.9" font-family="Helvetica,sans-Serif" font-size="12.00">pahm_vortex::setusevmaxesbl</text>
</a>
</g>
</g>
<!-- Node9&#45;&gt;Node29 -->
<g id="edge32" class="edge">
<title>Node9&#45;&gt;Node29</title>
<path fill="none" stroke="midnightblue" d="M380.69,-440.46C388.23,-436.78 395.18,-432.05 401,-426 462.09,-362.48 374.91,-293.55 437,-231 439.19,-228.8 441.54,-226.8 444.02,-224.99"/>
<polygon fill="midnightblue" stroke="midnightblue" points="446.23,-227.73 452.92,-219.52 442.57,-221.77 446.23,-227.73"/>
</g>
<!-- Node30 -->
<g id="node30" class="node">
<title>Node30</title>
<g id="a_node30"><a xlink:href="namespacepahm__vortex.html#a599c0f12ed25a3614a8d819202840888" target="_top" xlink:title=" ">
<polygon fill="white" stroke="black" points="462.5,-160.5 462.5,-181.5 621.5,-181.5 621.5,-160.5 462.5,-160.5"/>
<text text-anchor="middle" x="542" y="-167.9" font-family="Helvetica,sans-Serif" font-size="12.00">pahm_vortex::setvmaxesbl</text>
</a>
</g>
</g>
<!-- Node9&#45;&gt;Node30 -->
<g id="edge33" class="edge">
<title>Node9&#45;&gt;Node30</title>
<path fill="none" stroke="midnightblue" d="M381.42,-440.38C388.71,-436.7 395.41,-431.99 401,-426 473.07,-348.73 363.72,-267.12 437,-191 441.6,-186.22 446.97,-182.39 452.81,-179.34"/>
<polygon fill="midnightblue" stroke="midnightblue" points="454.57,-182.39 462.31,-175.15 451.75,-175.98 454.57,-182.39"/>
</g>
<!-- Node9&#45;&gt;Node31 -->
<g id="edge34" class="edge">
<title>Node9&#45;&gt;Node31</title>
<path fill="none" stroke="midnightblue" d="M382.26,-440.41C389.29,-436.71 395.69,-431.99 401,-426 506.18,-307.32 329.96,-188.01 437,-71 445.52,-61.69 456.95,-55.93 469.11,-52.49"/>
<polygon fill="midnightblue" stroke="midnightblue" points="470.03,-55.87 478.99,-50.21 468.45,-49.05 470.03,-55.87"/>
</g>
<!-- Node32 -->
<g id="node32" class="node">
<title>Node32</title>
<g id="a_node32"><a xlink:href="namespacepahm__vortex.html#a152bcd63167a2f915475a55f5b4d9f2e" target="_top" xlink:title="This subroutine calculates the translational velocity of a moving hurricane.">
<polygon fill="white" stroke="black" points="463.5,-120.5 463.5,-141.5 620.5,-141.5 620.5,-120.5 463.5,-120.5"/>
<text text-anchor="middle" x="542" y="-127.9" font-family="Helvetica,sans-Serif" font-size="12.00">pahm_vortex::uvtranspoint</text>
</a>
</g>
</g>
<!-- Node9&#45;&gt;Node32 -->
<g id="edge35" class="edge">
<title>Node9&#45;&gt;Node32</title>
<path fill="none" stroke="midnightblue" d="M381.82,-440.38C388.98,-436.69 395.54,-431.98 401,-426 484.09,-334.95 352.48,-240.73 437,-151 441.87,-145.83 447.64,-141.76 453.92,-138.59"/>
<polygon fill="midnightblue" stroke="midnightblue" points="455.62,-141.67 463.46,-134.55 452.88,-135.23 455.62,-141.67"/>
</g>
<!-- Node33 -->
<g id="node33" class="node">
<title>Node33</title>
<g id="a_node33"><a xlink:href="namespaceparwind.html#af04c6a174b50bd3f2995936289522213" target="_top" xlink:title="Outputs the post&#45;prossed best track data to file.">
<polygon fill="white" stroke="black" points="438,-80.5 438,-101.5 646,-101.5 646,-80.5 438,-80.5"/>
<text text-anchor="middle" x="542" y="-87.9" font-family="Helvetica,sans-Serif" font-size="12.00">parwind::writeasymmetricvortexdata</text>
</a>
</g>
</g>
<!-- Node9&#45;&gt;Node33 -->
<g id="edge36" class="edge">
<title>Node9&#45;&gt;Node33</title>
<path fill="none" stroke="midnightblue" d="M381.92,-440.47C389.07,-436.76 395.59,-432.03 401,-426 495.13,-321.14 341.23,-214.36 437,-111 438.05,-109.86 439.15,-108.78 440.29,-107.74"/>
<polygon fill="midnightblue" stroke="midnightblue" points="442.48,-110.47 448.33,-101.64 438.25,-104.9 442.48,-110.47"/>
</g>
<!-- Node12 -->
<g id="node12" class="node">
<title>Node12</title>
<g id="a_node12"><a xlink:href="namespacepahm__vortex.html#a24ea19697c70ab6e010e36a71faefcbc" target="_top" xlink:title="Use brute&#45;force marching to find a root the interval [x1,x2].">
<polygon fill="white" stroke="black" points="698,-640.5 698,-661.5 829,-661.5 829,-640.5 698,-640.5"/>
<text text-anchor="middle" x="763.5" y="-647.9" font-family="Helvetica,sans-Serif" font-size="12.00">pahm_vortex::findroot</text>
</a>
</g>
</g>
<!-- Node11&#45;&gt;Node12 -->
<g id="edge12" class="edge">
<title>Node11&#45;&gt;Node12</title>
<path fill="none" stroke="midnightblue" d="M600.67,-680.49C629.54,-675.23 664.68,-668.83 694.82,-663.33"/>
<polygon fill="midnightblue" stroke="midnightblue" points="695.62,-666.74 704.83,-661.51 694.37,-659.86 695.62,-666.74"/>
</g>
<!-- Node13 -->
<g id="node13" class="node">
<title>Node13</title>
<g id="a_node13"><a xlink:href="namespacepahm__vortex.html#a758504d51e519dac32d8146e79fccd2c" target="_top" xlink:title=" ">
<polygon fill="white" stroke="black" points="695,-720.5 695,-741.5 832,-741.5 832,-720.5 695,-720.5"/>
<text text-anchor="middle" x="763.5" y="-727.9" font-family="Helvetica,sans-Serif" font-size="12.00">pahm_vortex::vhnocori</text>
</a>
</g>
</g>
<!-- Node11&#45;&gt;Node13 -->
<g id="edge13" class="edge">
<title>Node11&#45;&gt;Node13</title>
<path fill="none" stroke="midnightblue" d="M600.67,-701.51C629.54,-706.77 664.68,-713.17 694.82,-718.67"/>
<polygon fill="midnightblue" stroke="midnightblue" points="694.37,-722.14 704.83,-720.49 695.62,-715.26 694.37,-722.14"/>
</g>
<!-- Node15 -->
<g id="node15" class="node">
<title>Node15</title>
<g id="a_node15"><a xlink:href="namespacepahm__vortex.html#a1e9c82cf5fb1c37ebd0629060e93d5fa" target="_top" xlink:title="External function f(x) = 0 for which a root is sought using Brent&#39;s root&#45;finding method.">
<polygon fill="white" stroke="black" points="690.5,-680.5 690.5,-701.5 836.5,-701.5 836.5,-680.5 690.5,-680.5"/>
<text text-anchor="middle" x="763.5" y="-687.9" font-family="Helvetica,sans-Serif" font-size="12.00">pahm_vortex::vhwithcori</text>
</a>
</g>
</g>
<!-- Node11&#45;&gt;Node15 -->
<g id="edge15" class="edge">
<title>Node11&#45;&gt;Node15</title>
<path fill="none" stroke="midnightblue" d="M618.23,-691C638.19,-691 659.85,-691 680.16,-691"/>
<polygon fill="midnightblue" stroke="midnightblue" points="680.33,-694.5 690.33,-691 680.33,-687.5 680.33,-694.5"/>
</g>
<!-- Node14 -->
<g id="node14" class="node">
<title>Node14</title>
<g id="a_node14"><a xlink:href="namespacepahm__vortex.html#a7ec34dd62a9f644c1e235bb030bcb312" target="_top" xlink:title=" ">
<polygon fill="white" stroke="black" points="880,-680.5 880,-701.5 1065,-701.5 1065,-680.5 880,-680.5"/>
<text text-anchor="middle" x="972.5" y="-687.9" font-family="Helvetica,sans-Serif" font-size="12.00">pahm_vortex::getusequadrantvr</text>
</a>
</g>
</g>
<!-- Node13&#45;&gt;Node14 -->
<g id="edge14" class="edge">
<title>Node13&#45;&gt;Node14</title>
<path fill="none" stroke="midnightblue" d="M818.89,-720.49C845.88,-715.27 878.67,-708.94 906.93,-703.48"/>
<polygon fill="midnightblue" stroke="midnightblue" points="907.96,-706.84 917.12,-701.51 906.63,-699.97 907.96,-706.84"/>
</g>
<!-- Node15&#45;&gt;Node14 -->
<g id="edge16" class="edge">
<title>Node15&#45;&gt;Node14</title>
<path fill="none" stroke="midnightblue" d="M836.61,-691C847.33,-691 858.54,-691 869.73,-691"/>
<polygon fill="midnightblue" stroke="midnightblue" points="869.99,-694.5 879.99,-691 869.99,-687.5 869.99,-694.5"/>
</g>
<!-- Node16&#45;&gt;Node12 -->
<g id="edge18" class="edge">
<title>Node16&#45;&gt;Node12</title>
<path fill="none" stroke="midnightblue" d="M626.3,-651C646.44,-651 667.84,-651 687.57,-651"/>
<polygon fill="midnightblue" stroke="midnightblue" points="687.71,-654.5 697.71,-651 687.71,-647.5 687.71,-654.5"/>
</g>
<!-- Node17 -->
<g id="node17" class="node">
<title>Node17</title>
<g id="a_node17"><a xlink:href="namespacepahm__vortex.html#a01b29cf3c18d04fb55a502f42f51af39" target="_top" xlink:title="External function f(x) = 0 for which a root is sought using Brent&#39;s root&#45;finding method.">
<polygon fill="white" stroke="black" points="683,-600.5 683,-621.5 844,-621.5 844,-600.5 683,-600.5"/>
<text text-anchor="middle" x="763.5" y="-607.9" font-family="Helvetica,sans-Serif" font-size="12.00">pahm_vortex::vhwithcorifull</text>
</a>
</g>
</g>
<!-- Node16&#45;&gt;Node17 -->
<g id="edge19" class="edge">
<title>Node16&#45;&gt;Node17</title>
<path fill="none" stroke="midnightblue" d="M600.67,-640.49C629.54,-635.23 664.68,-628.83 694.82,-623.33"/>
<polygon fill="midnightblue" stroke="midnightblue" points="695.62,-626.74 704.83,-621.51 694.37,-619.86 695.62,-626.74"/>
</g>
<!-- Node17&#45;&gt;Node14 -->
<g id="edge20" class="edge">
<title>Node17&#45;&gt;Node14</title>
<path fill="none" stroke="midnightblue" d="M812.87,-621.58C823.26,-624.29 834.08,-627.46 844,-631 879.14,-643.55 917.66,-662.45 943.07,-675.67"/>
<polygon fill="midnightblue" stroke="midnightblue" points="941.65,-678.88 952.13,-680.43 944.9,-672.68 941.65,-678.88"/>
</g>
<!-- Node37 -->
<g id="node37" class="node">
<title>Node37</title>
<g id="a_node37"><a xlink:href="namespacepahm__vortex.html#abd4f842d9803153921d04e4113b58889" target="_top" xlink:title=" ">
<polygon fill="white" stroke="black" points="479.5,-0.5 479.5,-21.5 604.5,-21.5 604.5,-0.5 479.5,-0.5"/>
<text text-anchor="middle" x="542" y="-7.9" font-family="Helvetica,sans-Serif" font-size="12.00">pahm_vortex::interpr</text>
</a>
</g>
</g>
<!-- Node36&#45;&gt;Node37 -->
<g id="edge40" class="edge">
<title>Node36&#45;&gt;Node37</title>
<path fill="none" stroke="midnightblue" d="M299.44,-141.2C321.1,-117.15 377.17,-59.12 437,-31 447.17,-26.22 458.41,-22.58 469.63,-19.82"/>
<polygon fill="midnightblue" stroke="midnightblue" points="470.47,-23.22 479.45,-17.6 468.93,-16.39 470.47,-23.22"/>
</g>
<!-- Node38&#45;&gt;Node19 -->
<g id="edge43" class="edge">
<title>Node38&#45;&gt;Node19</title>
<path fill="none" stroke="midnightblue" d="M346.78,-488.42C366.44,-490.53 387.02,-496.6 401,-511 476.14,-588.38 362.31,-673.18 437,-751 446.89,-761.3 460.34,-767.19 474.3,-770.4"/>
<polygon fill="midnightblue" stroke="midnightblue" points="474.03,-773.91 484.5,-772.29 475.3,-767.03 474.03,-773.91"/>
</g>
<!-- Node39 -->
<g id="node39" class="node">
<title>Node39</title>
<g id="a_node39"><a xlink:href="namespacepahm__vortex.html#a7fc78bcdd0071e81581505ac558c0e27" target="_top" xlink:title="Rotate a 2D vector (x, y) by an angle.">
<polygon fill="white" stroke="black" points="481,-800.5 481,-821.5 603,-821.5 603,-800.5 481,-800.5"/>
<text text-anchor="middle" x="542" y="-807.9" font-family="Helvetica,sans-Serif" font-size="12.00">pahm_vortex::rotate</text>
</a>
</g>
</g>
<!-- Node38&#45;&gt;Node39 -->
<g id="edge44" class="edge">
<title>Node38&#45;&gt;Node39</title>
<path fill="none" stroke="midnightblue" d="M346.66,-488.23C366.42,-490.29 387.1,-496.38 401,-511 487.46,-601.93 351.08,-699.57 437,-791 446.03,-800.61 458.16,-806.4 470.95,-809.77"/>
<polygon fill="midnightblue" stroke="midnightblue" points="470.31,-813.21 480.82,-811.89 471.78,-806.37 470.31,-813.21"/>
</g>
</g>
</svg>
