<?xml version="1.0" encoding="UTF-8" standalone="no"?>
<!DOCTYPE svg PUBLIC "-//W3C//DTD SVG 1.1//EN"
 "http://www.w3.org/Graphics/SVG/1.1/DTD/svg11.dtd">
<!-- Generated by graphviz version 2.42.4 (0)
 -->
<!-- Title: csv_module::to_real Pages: 1 -->
<svg width="544pt" height="90pt"
 viewBox="0.00 0.00 544.00 90.00" xmlns="http://www.w3.org/2000/svg" xmlns:xlink="http://www.w3.org/1999/xlink">
<g id="graph0" class="graph" transform="scale(1 1) rotate(0) translate(4 86)">
<title>csv_module::to_real</title>
<polygon fill="white" stroke="transparent" points="-4,4 -4,-86 540,-86 540,4 -4,4"/>
<!-- Node1 -->
<g id="node1" class="node">
<title>Node1</title>
<g id="a_node1"><a xlink:title="Converts a string to a &#39;real(wp)&#39;.">
<polygon fill="#bfbfbf" stroke="black" points="412,-30 412,-51 536,-51 536,-30 412,-30"/>
<text text-anchor="middle" x="474" y="-37.4" font-family="Helvetica,sans-Serif" font-size="12.00">csv_module::to_real</text>
</a>
</g>
</g>
<!-- Node2 -->
<g id="node2" class="node">
<title>Node2</title>
<g id="a_node2"><a xlink:href="namespacecsv__module.html#a650414ac2ed01f87425f588c2daba839" target="_top" xlink:title="Get an individual value from the &#39;csv_data&#39; structure in the CSV class.">
<polygon fill="white" stroke="black" points="217,-47.5 217,-81.5 345,-81.5 345,-47.5 217,-47.5"/>
<text text-anchor="start" x="225" y="-67.9" font-family="Helvetica,sans-Serif" font-size="12.00">csv_module::csv_get</text>
<text text-anchor="middle" x="281" y="-54.9" font-family="Helvetica,sans-Serif" font-size="12.00">_value</text>
</a>
</g>
</g>
<!-- Node1&#45;&gt;Node2 -->
<g id="edge1" class="edge">
<title>Node1&#45;&gt;Node2</title>
<path fill="none" stroke="midnightblue" d="M401.63,-49.47C383.09,-51.8 363.26,-54.29 345.17,-56.56"/>
<polygon fill="midnightblue" stroke="midnightblue" points="402.29,-52.91 411.78,-48.19 401.42,-45.97 402.29,-52.91"/>
</g>
<!-- Node4 -->
<g id="node4" class="node">
<title>Node4</title>
<g id="a_node4"><a xlink:href="namespacecsv__module.html#ab0bfadc5d97513c62e333b32957398fb" target="_top" xlink:title="Infers the variable type.">
<polygon fill="white" stroke="black" points="186,-7 186,-28 376,-28 376,-7 186,-7"/>
<text text-anchor="middle" x="281" y="-14.4" font-family="Helvetica,sans-Serif" font-size="12.00">csv_module::infer_variable_type</text>
</a>
</g>
</g>
<!-- Node1&#45;&gt;Node4 -->
<g id="edge3" class="edge">
<title>Node1&#45;&gt;Node4</title>
<path fill="none" stroke="midnightblue" d="M401.78,-31.92C391.2,-30.65 380.19,-29.32 369.32,-28.01"/>
<polygon fill="midnightblue" stroke="midnightblue" points="401.43,-35.41 411.78,-33.13 402.27,-28.46 401.43,-35.41"/>
</g>
<!-- Node3 -->
<g id="node3" class="node">
<title>Node3</title>
<g id="a_node3"><a xlink:href="structcsv__module_1_1csv__file.html#ab5a9ad6066ebf388d15c234e5f0b928a" target="_top" xlink:title=" ">
<polygon fill="white" stroke="black" points="0,-54 0,-75 150,-75 150,-54 0,-54"/>
<text text-anchor="middle" x="75" y="-61.4" font-family="Helvetica,sans-Serif" font-size="12.00">csv_module::csv_file::get</text>
</a>
</g>
</g>
<!-- Node2&#45;&gt;Node3 -->
<g id="edge2" class="edge">
<title>Node2&#45;&gt;Node3</title>
<path fill="none" stroke="midnightblue" d="M206.8,-64.5C188.44,-64.5 168.71,-64.5 150.3,-64.5"/>
<polygon fill="midnightblue" stroke="midnightblue" points="206.85,-68 216.85,-64.5 206.85,-61 206.85,-68"/>
</g>
<!-- Node5 -->
<g id="node5" class="node">
<title>Node5</title>
<g id="a_node5"><a xlink:href="namespacecsv__module.html#ace66eaa8da32c4eadee2b6bac017bdc9" target="_top" xlink:title="Returns an array indicating the variable type of each columns.">
<polygon fill="white" stroke="black" points="10,-0.5 10,-34.5 140,-34.5 140,-0.5 10,-0.5"/>
<text text-anchor="start" x="18" y="-20.9" font-family="Helvetica,sans-Serif" font-size="12.00">csv_module::variable</text>
<text text-anchor="middle" x="75" y="-7.9" font-family="Helvetica,sans-Serif" font-size="12.00">_types</text>
</a>
</g>
</g>
<!-- Node4&#45;&gt;Node5 -->
<g id="edge4" class="edge">
<title>Node4&#45;&gt;Node5</title>
<path fill="none" stroke="midnightblue" d="M175.6,-17.5C163.5,-17.5 151.45,-17.5 140.12,-17.5"/>
<polygon fill="midnightblue" stroke="midnightblue" points="175.76,-21 185.76,-17.5 175.76,-14 175.76,-21"/>
</g>
</g>
</svg>
