<?xml version="1.0" encoding="UTF-8" standalone="no"?>
<!DOCTYPE svg PUBLIC "-//W3C//DTD SVG 1.1//EN"
 "http://www.w3.org/Graphics/SVG/1.1/DTD/svg11.dtd">
<!-- Generated by graphviz version 2.42.4 (0)
 -->
<!-- Title: csv_module::get_column Pages: 1 -->
<svg width="421pt" height="70pt"
 viewBox="0.00 0.00 421.00 70.00" xmlns="http://www.w3.org/2000/svg" xmlns:xlink="http://www.w3.org/1999/xlink">
<g id="graph0" class="graph" transform="scale(1 1) rotate(0) translate(4 66)">
<title>csv_module::get_column</title>
<polygon fill="white" stroke="transparent" points="-4,4 -4,-66 417,-66 417,4 -4,4"/>
<!-- Node1 -->
<g id="node1" class="node">
<title>Node1</title>
<g id="a_node1"><a xlink:title="Return a column from a CSV file vector.">
<polygon fill="#bfbfbf" stroke="black" points="0,-20.5 0,-41.5 149,-41.5 149,-20.5 0,-20.5"/>
<text text-anchor="middle" x="74.5" y="-27.9" font-family="Helvetica,sans-Serif" font-size="12.00">csv_module::get_column</text>
</a>
</g>
</g>
<!-- Node2 -->
<g id="node2" class="node">
<title>Node2</title>
<g id="a_node2"><a xlink:href="namespacepahm__messages.html#acf0c696cc1604842ee84a5df6d81179c" target="_top" xlink:title="Sets the name of the subroutine that is writing log and/or screen messages.">
<polygon fill="white" stroke="black" points="191.5,-40.5 191.5,-61.5 406.5,-61.5 406.5,-40.5 191.5,-40.5"/>
<text text-anchor="middle" x="299" y="-47.9" font-family="Helvetica,sans-Serif" font-size="12.00">pahm_messages::setmessagesource</text>
</a>
</g>
</g>
<!-- Node1&#45;&gt;Node2 -->
<g id="edge1" class="edge">
<title>Node1&#45;&gt;Node2</title>
<path fill="none" stroke="midnightblue" d="M149.28,-37.63C159.64,-38.56 170.5,-39.54 181.42,-40.52"/>
<polygon fill="midnightblue" stroke="midnightblue" points="181.19,-44.01 191.46,-41.42 181.81,-37.04 181.19,-44.01"/>
</g>
<!-- Node3 -->
<g id="node3" class="node">
<title>Node3</title>
<g id="a_node3"><a xlink:href="namespacepahm__messages.html#ad35e9f2327aad65d4c669e3d886f54dc" target="_top" xlink:title="Removes the name of the subroutine that is no longer active.">
<polygon fill="white" stroke="black" points="185,-0.5 185,-21.5 413,-21.5 413,-0.5 185,-0.5"/>
<text text-anchor="middle" x="299" y="-7.9" font-family="Helvetica,sans-Serif" font-size="12.00">pahm_messages::unsetmessagesource</text>
</a>
</g>
</g>
<!-- Node1&#45;&gt;Node3 -->
<g id="edge2" class="edge">
<title>Node1&#45;&gt;Node3</title>
<path fill="none" stroke="midnightblue" d="M149.28,-24.37C157.46,-23.63 165.95,-22.87 174.54,-22.1"/>
<polygon fill="midnightblue" stroke="midnightblue" points="175.01,-25.57 184.65,-21.19 174.38,-18.6 175.01,-25.57"/>
</g>
</g>
</svg>
