<?xml version="1.0" encoding="UTF-8" standalone="no"?>
<!DOCTYPE svg PUBLIC "-//W3C//DTD SVG 1.1//EN"
 "http://www.w3.org/Graphics/SVG/1.1/DTD/svg11.dtd">
<!-- Generated by graphviz version 2.42.4 (0)
 -->
<!-- Title: utilities::openfileforread Pages: 1 -->
<svg width="874pt" height="147pt"
 viewBox="0.00 0.00 874.00 147.00" xmlns="http://www.w3.org/2000/svg" xmlns:xlink="http://www.w3.org/1999/xlink">
<g id="graph0" class="graph" transform="scale(1 1) rotate(0) translate(4 143)">
<title>utilities::openfileforread</title>
<polygon fill="white" stroke="transparent" points="-4,4 -4,-143 870,-143 870,4 -4,4"/>
<!-- Node1 -->
<g id="node1" class="node">
<title>Node1</title>
<g id="a_node1"><a xlink:title="This subroutine opens an existing file for reading.">
<polygon fill="#bfbfbf" stroke="black" points="726,-59.5 726,-80.5 866,-80.5 866,-59.5 726,-59.5"/>
<text text-anchor="middle" x="796" y="-66.9" font-family="Helvetica,sans-Serif" font-size="12.00">utilities::openfileforread</text>
</a>
</g>
</g>
<!-- Node2 -->
<g id="node2" class="node">
<title>Node2</title>
<g id="a_node2"><a xlink:href="namespacecsv__module.html#a95642923259cb41370798af573c1babc" target="_top" xlink:title="Reads a CSV file.">
<polygon fill="white" stroke="black" points="512.5,-117.5 512.5,-138.5 670.5,-138.5 670.5,-117.5 512.5,-117.5"/>
<text text-anchor="middle" x="591.5" y="-124.9" font-family="Helvetica,sans-Serif" font-size="12.00">csv_module::read_csv_file</text>
</a>
</g>
</g>
<!-- Node1&#45;&gt;Node2 -->
<g id="edge1" class="edge">
<title>Node1&#45;&gt;Node2</title>
<path fill="none" stroke="midnightblue" d="M753.31,-83.67C734.11,-89.82 710.97,-97.02 690,-103 672.35,-108.03 652.78,-113.14 635.83,-117.42"/>
<polygon fill="midnightblue" stroke="midnightblue" points="754.52,-86.95 762.97,-80.56 752.37,-80.29 754.52,-86.95"/>
</g>
<!-- Node3 -->
<g id="node3" class="node">
<title>Node3</title>
<g id="a_node3"><a xlink:href="namespaceparwind.html#abae6c098afd2135918a478b6b7b20673" target="_top" xlink:title="Subroutine to read all a&#45;deck/b&#45;deck best track files (ATCF format).">
<polygon fill="white" stroke="black" points="293,-80.5 293,-101.5 448,-101.5 448,-80.5 293,-80.5"/>
<text text-anchor="middle" x="370.5" y="-87.9" font-family="Helvetica,sans-Serif" font-size="12.00">parwind::readbesttrackfile</text>
</a>
</g>
</g>
<!-- Node1&#45;&gt;Node3 -->
<g id="edge2" class="edge">
<title>Node1&#45;&gt;Node3</title>
<path fill="none" stroke="midnightblue" d="M715.46,-73.94C638.86,-77.74 523.78,-83.45 448.16,-87.2"/>
<polygon fill="midnightblue" stroke="midnightblue" points="715.73,-77.44 725.54,-73.44 715.38,-70.44 715.73,-77.44"/>
</g>
<!-- Node6 -->
<g id="node6" class="node">
<title>Node6</title>
<g id="a_node6"><a xlink:href="namespaceparwind.html#a75c722a5d8fdb18014543923d7e4dcca" target="_top" xlink:title="Subroutine to read all a&#45;deck/b&#45;deck best track files (ATCF format).">
<polygon fill="white" stroke="black" points="284,-40.5 284,-61.5 457,-61.5 457,-40.5 284,-40.5"/>
<text text-anchor="middle" x="370.5" y="-47.9" font-family="Helvetica,sans-Serif" font-size="12.00">parwind::readcsvbesttrackfile</text>
</a>
</g>
</g>
<!-- Node1&#45;&gt;Node6 -->
<g id="edge5" class="edge">
<title>Node1&#45;&gt;Node6</title>
<path fill="none" stroke="midnightblue" d="M715.39,-66.43C641.75,-63.12 532.58,-58.23 457.09,-54.84"/>
<polygon fill="midnightblue" stroke="midnightblue" points="715.39,-69.93 725.54,-66.88 715.71,-62.94 715.39,-69.93"/>
</g>
<!-- Node7 -->
<g id="node7" class="node">
<title>Node7</title>
<g id="a_node7"><a xlink:href="namespacepahm__mesh.html#af53257d02ceb6ebe4349de40187496d6" target="_top" xlink:title="Reads the ADCIRC fort.14 mesh file.">
<polygon fill="white" stroke="black" points="493,-1.5 493,-22.5 690,-22.5 690,-1.5 493,-1.5"/>
<text text-anchor="middle" x="591.5" y="-8.9" font-family="Helvetica,sans-Serif" font-size="12.00">pahm_mesh::readmeshasciifort14</text>
</a>
</g>
</g>
<!-- Node1&#45;&gt;Node7 -->
<g id="edge7" class="edge">
<title>Node1&#45;&gt;Node7</title>
<path fill="none" stroke="midnightblue" d="M753.31,-56.33C734.11,-50.18 710.97,-42.98 690,-37 672.35,-31.97 652.78,-26.86 635.83,-22.58"/>
<polygon fill="midnightblue" stroke="midnightblue" points="752.37,-59.71 762.97,-59.44 754.52,-53.05 752.37,-59.71"/>
</g>
<!-- Node4 -->
<g id="node4" class="node">
<title>Node4</title>
<g id="a_node4"><a xlink:href="namespacepahm__drivermod.html#ae0d4b223a96ba116b38152caf6b0768c" target="_top" xlink:title="Subroutine to initialize a PaHM run.">
<polygon fill="white" stroke="black" points="83,-40.5 83,-61.5 248,-61.5 248,-40.5 83,-40.5"/>
<text text-anchor="middle" x="165.5" y="-47.9" font-family="Helvetica,sans-Serif" font-size="12.00">pahm_drivermod::pahm_init</text>
</a>
</g>
</g>
<!-- Node3&#45;&gt;Node4 -->
<g id="edge3" class="edge">
<title>Node3&#45;&gt;Node4</title>
<path fill="none" stroke="midnightblue" d="M306.17,-78.52C278.46,-73.06 246.3,-66.72 219.83,-61.51"/>
<polygon fill="midnightblue" stroke="midnightblue" points="305.68,-81.99 316.16,-80.49 307.03,-75.12 305.68,-81.99"/>
</g>
<!-- Node5 -->
<g id="node5" class="node">
<title>Node5</title>
<g id="a_node5"><a xlink:href="pahm_8F90.html#a3d3918f5c5f1ac0a7991a7a78f530f30" target="_top" xlink:title=" ">
<polygon fill="white" stroke="black" points="0,-40.5 0,-61.5 47,-61.5 47,-40.5 0,-40.5"/>
<text text-anchor="middle" x="23.5" y="-47.9" font-family="Helvetica,sans-Serif" font-size="12.00">pahm</text>
</a>
</g>
</g>
<!-- Node4&#45;&gt;Node5 -->
<g id="edge4" class="edge">
<title>Node4&#45;&gt;Node5</title>
<path fill="none" stroke="midnightblue" d="M72.42,-51C63.15,-51 54.47,-51 47.1,-51"/>
<polygon fill="midnightblue" stroke="midnightblue" points="72.66,-54.5 82.66,-51 72.66,-47.5 72.66,-54.5"/>
</g>
<!-- Node6&#45;&gt;Node4 -->
<g id="edge6" class="edge">
<title>Node6&#45;&gt;Node4</title>
<path fill="none" stroke="midnightblue" d="M273.88,-51C265.23,-51 256.53,-51 248.01,-51"/>
<polygon fill="midnightblue" stroke="midnightblue" points="274,-54.5 284,-51 274,-47.5 274,-54.5"/>
</g>
<!-- Node8 -->
<g id="node8" class="node">
<title>Node8</title>
<g id="a_node8"><a xlink:href="namespacepahm__mesh.html#a6fd7801e4cbacfd2a7ce61c0fb31073c" target="_top" xlink:title="Reads an input mesh file for the specified supported model type.">
<polygon fill="white" stroke="black" points="299.5,-0.5 299.5,-21.5 441.5,-21.5 441.5,-0.5 299.5,-0.5"/>
<text text-anchor="middle" x="370.5" y="-7.9" font-family="Helvetica,sans-Serif" font-size="12.00">pahm_mesh::readmesh</text>
</a>
</g>
</g>
<!-- Node7&#45;&gt;Node8 -->
<g id="edge8" class="edge">
<title>Node7&#45;&gt;Node8</title>
<path fill="none" stroke="midnightblue" d="M482.72,-11.51C468.79,-11.44 454.83,-11.38 441.72,-11.32"/>
<polygon fill="midnightblue" stroke="midnightblue" points="482.83,-15.01 492.85,-11.55 482.87,-8.01 482.83,-15.01"/>
</g>
<!-- Node8&#45;&gt;Node4 -->
<g id="edge9" class="edge">
<title>Node8&#45;&gt;Node4</title>
<path fill="none" stroke="midnightblue" d="M306.17,-23.48C278.46,-28.94 246.3,-35.28 219.83,-40.49"/>
<polygon fill="midnightblue" stroke="midnightblue" points="307.03,-26.88 316.16,-21.51 305.68,-20.01 307.03,-26.88"/>
</g>
</g>
</svg>
