<?xml version="1.0" encoding="UTF-8" standalone="no"?>
<!DOCTYPE svg PUBLIC "-//W3C//DTD SVG 1.1//EN"
 "http://www.w3.org/Graphics/SVG/1.1/DTD/svg11.dtd">
<!-- Generated by graphviz version 2.42.4 (0)
 -->
<!-- Title: csv_utilities::expand_vector Pages: 1 -->
<svg width="457pt" height="56pt"
 viewBox="0.00 0.00 457.00 55.50" xmlns="http://www.w3.org/2000/svg" xmlns:xlink="http://www.w3.org/1999/xlink">
<g id="graph0" class="graph" transform="scale(1 1) rotate(0) translate(4 51.5)">
<title>csv_utilities::expand_vector</title>
<polygon fill="white" stroke="transparent" points="-4,4 -4,-51.5 453,-51.5 453,4 -4,4"/>
<!-- Node1 -->
<g id="node1" class="node">
<title>Node1</title>
<g id="a_node1"><a xlink:title="Add elements to the integer vector in chunks.">
<polygon fill="#bfbfbf" stroke="black" points="325,-13 325,-47 449,-47 449,-13 325,-13"/>
<text text-anchor="start" x="333" y="-33.4" font-family="Helvetica,sans-Serif" font-size="12.00">csv_utilities::expand</text>
<text text-anchor="middle" x="387" y="-20.4" font-family="Helvetica,sans-Serif" font-size="12.00">_vector</text>
</a>
</g>
</g>
<!-- Node2 -->
<g id="node2" class="node">
<title>Node2</title>
<g id="a_node2"><a xlink:href="namespacecsv__module.html#a9813e1ff838ed6024c464bb5c443bada" target="_top" xlink:title="Initialize a [[csv_file(type)]].">
<polygon fill="white" stroke="black" points="0,-13 0,-47 131,-47 131,-13 0,-13"/>
<text text-anchor="start" x="8" y="-33.4" font-family="Helvetica,sans-Serif" font-size="12.00">csv_module::initialize</text>
<text text-anchor="middle" x="65.5" y="-20.4" font-family="Helvetica,sans-Serif" font-size="12.00">_csv_file</text>
</a>
</g>
</g>
<!-- Node1&#45;&gt;Node2 -->
<g id="edge1" class="edge">
<title>Node1&#45;&gt;Node2</title>
<path fill="none" stroke="midnightblue" d="M314.8,-30.82C306.11,-30.89 297.35,-30.96 289,-31 234.78,-31.28 221.22,-31.27 167,-31 155.4,-30.94 143.04,-30.85 131.1,-30.74"/>
<polygon fill="midnightblue" stroke="midnightblue" points="314.98,-34.32 324.94,-30.73 314.91,-27.32 314.98,-34.32"/>
</g>
<!-- Node3 -->
<g id="node3" class="node">
<title>Node3</title>
<g id="a_node3"><a xlink:href="namespacecsv__utilities.html#a6c1f008f2a5f0ec6727aa9627a9e7bc4" target="_top" xlink:title="Returns only the unique elements of the vector.">
<polygon fill="white" stroke="black" points="167,-0.5 167,-21.5 289,-21.5 289,-0.5 167,-0.5"/>
<text text-anchor="middle" x="228" y="-7.9" font-family="Helvetica,sans-Serif" font-size="12.00">csv_utilities::unique</text>
</a>
</g>
</g>
<!-- Node1&#45;&gt;Node3 -->
<g id="edge2" class="edge">
<title>Node1&#45;&gt;Node3</title>
<path fill="none" stroke="midnightblue" d="M314.87,-21.39C306.29,-20.35 297.6,-19.3 289.21,-18.29"/>
<polygon fill="midnightblue" stroke="midnightblue" points="314.5,-24.87 324.85,-22.6 315.34,-17.92 314.5,-24.87"/>
</g>
<!-- Node3&#45;&gt;Node2 -->
<g id="edge3" class="edge">
<title>Node3&#45;&gt;Node2</title>
<path fill="none" stroke="midnightblue" d="M156.83,-19.31C148.27,-20.32 139.56,-21.35 131.09,-22.35"/>
<polygon fill="midnightblue" stroke="midnightblue" points="157.26,-22.78 166.78,-18.13 156.44,-15.83 157.26,-22.78"/>
</g>
</g>
</svg>
