<?xml version="1.0" encoding="UTF-8" standalone="no"?>
<!DOCTYPE svg PUBLIC "-//W3C//DTD SVG 1.1//EN"
 "http://www.w3.org/Graphics/SVG/1.1/DTD/svg11.dtd">
<!-- Generated by graphviz version 2.42.4 (0)
 -->
<!-- Title: timedateutils::gettimeconvsec Pages: 1 -->
<svg width="1177pt" height="268pt"
 viewBox="0.00 0.00 1177.00 268.00" xmlns="http://www.w3.org/2000/svg" xmlns:xlink="http://www.w3.org/1999/xlink">
<g id="graph0" class="graph" transform="scale(1 1) rotate(0) translate(4 264)">
<title>timedateutils::gettimeconvsec</title>
<polygon fill="white" stroke="transparent" points="-4,4 -4,-264 1173,-264 1173,4 -4,4"/>
<!-- Node1 -->
<g id="node1" class="node">
<title>Node1</title>
<g id="a_node1"><a xlink:title="Calculates the conversion factor between time units and seconds.">
<polygon fill="#bfbfbf" stroke="black" points="995,-120.5 995,-141.5 1169,-141.5 1169,-120.5 995,-120.5"/>
<text text-anchor="middle" x="1082" y="-127.9" font-family="Helvetica,sans-Serif" font-size="12.00">timedateutils::gettimeconvsec</text>
</a>
</g>
</g>
<!-- Node2 -->
<g id="node2" class="node">
<title>Node2</title>
<g id="a_node2"><a xlink:href="namespaceutilities.html#a1e2f2593103f415e1c073284ff95a83f" target="_top" xlink:title="Checks the user defined control file inputs.">
<polygon fill="white" stroke="black" points="764,-238.5 764,-259.5 940,-259.5 940,-238.5 764,-238.5"/>
<text text-anchor="middle" x="852" y="-245.9" font-family="Helvetica,sans-Serif" font-size="12.00">utilities::checkcontrolfileinputs</text>
</a>
</g>
</g>
<!-- Node1&#45;&gt;Node2 -->
<g id="edge1" class="edge">
<title>Node1&#45;&gt;Node2</title>
<path fill="none" stroke="midnightblue" d="M1062.85,-148.84C1040.35,-169.95 999.96,-204.64 959,-224 945.92,-230.18 931.2,-234.9 916.97,-238.48"/>
<polygon fill="midnightblue" stroke="midnightblue" points="1065.48,-151.17 1070.29,-141.74 1060.64,-146.11 1065.48,-151.17"/>
</g>
<!-- Node3 -->
<g id="node3" class="node">
<title>Node3</title>
<g id="a_node3"><a xlink:href="namespaceutilities.html#ab095172ef12ae151ab5c9aacf82f4dc6" target="_top" xlink:title="This subroutine reads the program&#39;s main control file.">
<polygon fill="white" stroke="black" points="557.5,-217.5 557.5,-238.5 693.5,-238.5 693.5,-217.5 557.5,-217.5"/>
<text text-anchor="middle" x="625.5" y="-224.9" font-family="Helvetica,sans-Serif" font-size="12.00">utilities::readcontrolfile</text>
</a>
</g>
</g>
<!-- Node1&#45;&gt;Node3 -->
<g id="edge16" class="edge">
<title>Node1&#45;&gt;Node3</title>
<path fill="none" stroke="midnightblue" d="M1055.59,-146.76C1031.62,-160.82 994.21,-180.73 959,-191 869.65,-217.07 761.87,-225 693.75,-227.29"/>
<polygon fill="midnightblue" stroke="midnightblue" points="1057.6,-149.64 1064.39,-141.51 1054.01,-143.63 1057.6,-149.64"/>
</g>
<!-- Node7 -->
<g id="node7" class="node">
<title>Node7</title>
<g id="a_node7"><a xlink:href="namespacetimedateutils.html#a109255326a7eb93c3ccdb4b543c26385" target="_top" xlink:title="Calculates the elapsed time in seconds.">
<polygon fill="white" stroke="black" points="773,-160.5 773,-181.5 931,-181.5 931,-160.5 773,-160.5"/>
<text text-anchor="middle" x="852" y="-167.9" font-family="Helvetica,sans-Serif" font-size="12.00">timedateutils::elapsedsecs</text>
</a>
</g>
</g>
<!-- Node1&#45;&gt;Node7 -->
<g id="edge6" class="edge">
<title>Node1&#45;&gt;Node7</title>
<path fill="none" stroke="midnightblue" d="M1011.1,-143.26C979.7,-148.77 943.02,-155.21 912.9,-160.49"/>
<polygon fill="midnightblue" stroke="midnightblue" points="1011.85,-146.68 1021.1,-141.51 1010.64,-139.79 1011.85,-146.68"/>
</g>
<!-- Node10 -->
<g id="node10" class="node">
<title>Node10</title>
<g id="a_node10"><a xlink:href="namespaceparwind.html#ad79f0c20f27839cc6d7f50d7d1698b7c" target="_top" xlink:title="Calculates wind velocities and MSL pressures at the mesh nodes from the GAHM Wind model.">
<polygon fill="white" stroke="black" points="781.5,-120.5 781.5,-141.5 922.5,-141.5 922.5,-120.5 781.5,-120.5"/>
<text text-anchor="middle" x="852" y="-127.9" font-family="Helvetica,sans-Serif" font-size="12.00">parwind::getgahmfields</text>
</a>
</g>
</g>
<!-- Node1&#45;&gt;Node10 -->
<g id="edge9" class="edge">
<title>Node1&#45;&gt;Node10</title>
<path fill="none" stroke="midnightblue" d="M984.66,-131C963.84,-131 942.21,-131 922.64,-131"/>
<polygon fill="midnightblue" stroke="midnightblue" points="984.8,-134.5 994.8,-131 984.8,-127.5 984.8,-134.5"/>
</g>
<!-- Node12 -->
<g id="node12" class="node">
<title>Node12</title>
<g id="a_node12"><a xlink:href="namespaceparwind.html#ad2cf2a3c40591a24959e6dd126066294" target="_top" xlink:title="Calculates wind velocities and MSL pressures at the mesh nodes from the P&#45;W Holland Wind model.">
<polygon fill="white" stroke="black" points="776.5,-80.5 776.5,-101.5 927.5,-101.5 927.5,-80.5 776.5,-80.5"/>
<text text-anchor="middle" x="852" y="-87.9" font-family="Helvetica,sans-Serif" font-size="12.00">parwind::gethollandfields</text>
</a>
</g>
</g>
<!-- Node1&#45;&gt;Node12 -->
<g id="edge12" class="edge">
<title>Node1&#45;&gt;Node12</title>
<path fill="none" stroke="midnightblue" d="M1011.1,-118.74C979.7,-113.23 943.02,-106.79 912.9,-101.51"/>
<polygon fill="midnightblue" stroke="midnightblue" points="1010.64,-122.21 1021.1,-120.49 1011.85,-115.32 1010.64,-122.21"/>
</g>
<!-- Node13 -->
<g id="node13" class="node">
<title>Node13</title>
<g id="a_node13"><a xlink:href="namespacepahm__netcdfio.html#a21917504b7e9d5594375d1a48bb4cb8f" target="_top" xlink:title="Initializes a new NetCDF data file and puts it in define mode.">
<polygon fill="white" stroke="black" points="745,-40.5 745,-61.5 959,-61.5 959,-40.5 745,-40.5"/>
<text text-anchor="middle" x="852" y="-47.9" font-family="Helvetica,sans-Serif" font-size="12.00">pahm_netcdfio::initadcircnetcdfoutfile</text>
</a>
</g>
</g>
<!-- Node1&#45;&gt;Node13 -->
<g id="edge14" class="edge">
<title>Node1&#45;&gt;Node13</title>
<path fill="none" stroke="midnightblue" d="M1054.57,-115.39C1030.44,-101.77 993.4,-82.47 959,-71 947.72,-67.24 935.51,-64.11 923.53,-61.54"/>
<polygon fill="midnightblue" stroke="midnightblue" points="1053.04,-118.54 1063.46,-120.47 1056.52,-112.47 1053.04,-118.54"/>
</g>
<!-- Node14 -->
<g id="node14" class="node">
<title>Node14</title>
<g id="a_node14"><a xlink:href="namespacepahm__netcdfio.html#aaf8d794ff0adcfbca0e2d13c8b71162a" target="_top" xlink:title="Writes data to the NetCDF file.">
<polygon fill="white" stroke="black" points="755.5,-0.5 755.5,-21.5 948.5,-21.5 948.5,-0.5 755.5,-0.5"/>
<text text-anchor="middle" x="852" y="-7.9" font-family="Helvetica,sans-Serif" font-size="12.00">pahm_netcdfio::writenetcdfrecord</text>
</a>
</g>
</g>
<!-- Node1&#45;&gt;Node14 -->
<g id="edge17" class="edge">
<title>Node1&#45;&gt;Node14</title>
<path fill="none" stroke="midnightblue" d="M1064.59,-112.81C1042.81,-89.9 1002.07,-51.1 959,-31 950.77,-27.16 941.85,-24.06 932.8,-21.55"/>
<polygon fill="midnightblue" stroke="midnightblue" points="1062.09,-115.27 1071.47,-120.2 1067.21,-110.5 1062.09,-115.27"/>
</g>
<!-- Node2&#45;&gt;Node3 -->
<g id="edge2" class="edge">
<title>Node2&#45;&gt;Node3</title>
<path fill="none" stroke="midnightblue" d="M753.7,-239.9C733.47,-238.01 712.58,-236.05 693.73,-234.29"/>
<polygon fill="midnightblue" stroke="midnightblue" points="753.6,-243.4 763.88,-240.85 754.25,-236.43 753.6,-243.4"/>
</g>
<!-- Node4 -->
<g id="node4" class="node">
<title>Node4</title>
<g id="a_node4"><a xlink:href="namespacepahm__drivermod.html#a3294ddc68b72ff9220010a8764a8afe3" target="_top" xlink:title="Prints on the screen the help system of the PaHM program.">
<polygon fill="white" stroke="black" points="284,-203.5 284,-224.5 506,-224.5 506,-203.5 284,-203.5"/>
<text text-anchor="middle" x="395" y="-210.9" font-family="Helvetica,sans-Serif" font-size="12.00">pahm_drivermod::getprogramcmdlargs</text>
</a>
</g>
</g>
<!-- Node3&#45;&gt;Node4 -->
<g id="edge3" class="edge">
<title>Node3&#45;&gt;Node4</title>
<path fill="none" stroke="midnightblue" d="M547.13,-223.26C534.01,-222.46 520.16,-221.61 506.38,-220.76"/>
<polygon fill="midnightblue" stroke="midnightblue" points="547.29,-226.78 557.49,-223.89 547.72,-219.79 547.29,-226.78"/>
</g>
<!-- Node5 -->
<g id="node5" class="node">
<title>Node5</title>
<g id="a_node5"><a xlink:href="namespacepahm__drivermod.html#ae0d4b223a96ba116b38152caf6b0768c" target="_top" xlink:title="Subroutine to initialize a PaHM run.">
<polygon fill="white" stroke="black" points="83,-190.5 83,-211.5 248,-211.5 248,-190.5 83,-190.5"/>
<text text-anchor="middle" x="165.5" y="-197.9" font-family="Helvetica,sans-Serif" font-size="12.00">pahm_drivermod::pahm_init</text>
</a>
</g>
</g>
<!-- Node4&#45;&gt;Node5 -->
<g id="edge4" class="edge">
<title>Node4&#45;&gt;Node5</title>
<path fill="none" stroke="midnightblue" d="M273.77,-207.13C265.14,-206.64 256.56,-206.15 248.22,-205.67"/>
<polygon fill="midnightblue" stroke="midnightblue" points="273.73,-210.63 283.92,-207.71 274.13,-203.64 273.73,-210.63"/>
</g>
<!-- Node6 -->
<g id="node6" class="node">
<title>Node6</title>
<g id="a_node6"><a xlink:href="pahm_8F90.html#a3d3918f5c5f1ac0a7991a7a78f530f30" target="_top" xlink:title=" ">
<polygon fill="white" stroke="black" points="0,-143.5 0,-164.5 47,-164.5 47,-143.5 0,-143.5"/>
<text text-anchor="middle" x="23.5" y="-150.9" font-family="Helvetica,sans-Serif" font-size="12.00">pahm</text>
</a>
</g>
</g>
<!-- Node5&#45;&gt;Node6 -->
<g id="edge5" class="edge">
<title>Node5&#45;&gt;Node6</title>
<path fill="none" stroke="midnightblue" d="M123.51,-187.24C98.58,-178.87 67.69,-168.5 47.1,-161.59"/>
<polygon fill="midnightblue" stroke="midnightblue" points="122.49,-190.59 133.08,-190.45 124.72,-183.95 122.49,-190.59"/>
</g>
<!-- Node8 -->
<g id="node8" class="node">
<title>Node8</title>
<g id="a_node8"><a xlink:href="interfacetimedateutils_1_1timeconv.html#a2f5f511b312d9f4b1bed33ecb8567b86" target="_top" xlink:title="Convert time from year, month, day, hour, min, sec into seconds since the reference date of the simul...">
<polygon fill="white" stroke="black" points="556.5,-164 556.5,-198 694.5,-198 694.5,-164 556.5,-164"/>
<text text-anchor="start" x="564.5" y="-184.4" font-family="Helvetica,sans-Serif" font-size="12.00">timedateutils::timeconv</text>
<text text-anchor="middle" x="625.5" y="-171.4" font-family="Helvetica,sans-Serif" font-size="12.00">::timeconvisec</text>
</a>
</g>
</g>
<!-- Node7&#45;&gt;Node8 -->
<g id="edge7" class="edge">
<title>Node7&#45;&gt;Node8</title>
<path fill="none" stroke="midnightblue" d="M762.54,-174.94C739.98,-175.95 716.08,-177.01 694.7,-177.96"/>
<polygon fill="midnightblue" stroke="midnightblue" points="762.96,-178.43 772.8,-174.48 762.65,-171.43 762.96,-178.43"/>
</g>
<!-- Node9 -->
<g id="node9" class="node">
<title>Node9</title>
<g id="a_node9"><a xlink:href="interfacetimedateutils_1_1timeconv.html#a03e2abbe51f02a02624986a3d49ec192" target="_top" xlink:title="Convert time from year, month, day, hour, min, sec into seconds since the reference date of the simul...">
<polygon fill="white" stroke="black" points="556.5,-111 556.5,-145 694.5,-145 694.5,-111 556.5,-111"/>
<text text-anchor="start" x="564.5" y="-131.4" font-family="Helvetica,sans-Serif" font-size="12.00">timedateutils::timeconv</text>
<text text-anchor="middle" x="625.5" y="-118.4" font-family="Helvetica,sans-Serif" font-size="12.00">::timeconvrsec</text>
</a>
</g>
</g>
<!-- Node7&#45;&gt;Node9 -->
<g id="edge8" class="edge">
<title>Node7&#45;&gt;Node9</title>
<path fill="none" stroke="midnightblue" d="M784.9,-158.58C771.68,-156.09 757.9,-153.47 745,-151 728.74,-147.89 711.23,-144.51 694.79,-141.32"/>
<polygon fill="midnightblue" stroke="midnightblue" points="784.4,-162.05 794.88,-160.47 785.7,-155.17 784.4,-162.05"/>
</g>
<!-- Node11 -->
<g id="node11" class="node">
<title>Node11</title>
<g id="a_node11"><a xlink:href="namespacepahm__drivermod.html#a7ae4571521a5bb4eb55990dd7fb76237" target="_top" xlink:title="Subroutine to run PaHM (timestepping).">
<polygon fill="white" stroke="black" points="542,-70.5 542,-91.5 709,-91.5 709,-70.5 542,-70.5"/>
<text text-anchor="middle" x="625.5" y="-77.9" font-family="Helvetica,sans-Serif" font-size="12.00">pahm_drivermod::pahm_run</text>
</a>
</g>
</g>
<!-- Node10&#45;&gt;Node11 -->
<g id="edge10" class="edge">
<title>Node10&#45;&gt;Node11</title>
<path fill="none" stroke="midnightblue" d="M780.41,-118.54C768.55,-116.2 756.4,-113.65 745,-111 728.83,-107.23 725.07,-105.18 709,-101 696.73,-97.81 683.4,-94.51 671.1,-91.53"/>
<polygon fill="midnightblue" stroke="midnightblue" points="779.79,-121.99 790.28,-120.46 781.12,-115.12 779.79,-121.99"/>
</g>
<!-- Node11&#45;&gt;Node6 -->
<g id="edge11" class="edge">
<title>Node11&#45;&gt;Node6</title>
<path fill="none" stroke="midnightblue" d="M531.67,-92.29C389.42,-109.6 125.69,-141.69 47.14,-151.25"/>
<polygon fill="midnightblue" stroke="midnightblue" points="532.2,-95.76 541.7,-91.07 531.35,-88.81 532.2,-95.76"/>
</g>
<!-- Node12&#45;&gt;Node11 -->
<g id="edge13" class="edge">
<title>Node12&#45;&gt;Node11</title>
<path fill="none" stroke="midnightblue" d="M766,-87.21C747.34,-86.38 727.61,-85.5 709.05,-84.68"/>
<polygon fill="midnightblue" stroke="midnightblue" points="766.1,-90.72 776.24,-87.67 766.41,-83.73 766.1,-90.72"/>
</g>
<!-- Node13&#45;&gt;Node11 -->
<g id="edge15" class="edge">
<title>Node13&#45;&gt;Node11</title>
<path fill="none" stroke="midnightblue" d="M762.12,-62.88C743.3,-65.39 723.56,-68.03 705.14,-70.49"/>
<polygon fill="midnightblue" stroke="midnightblue" points="762.72,-66.33 772.17,-61.53 761.79,-59.39 762.72,-66.33"/>
</g>
<!-- Node14&#45;&gt;Node11 -->
<g id="edge18" class="edge">
<title>Node14&#45;&gt;Node11</title>
<path fill="none" stroke="midnightblue" d="M773.44,-23.65C763.79,-25.81 754.12,-28.25 745,-31 709.94,-41.57 671.17,-59.12 647.83,-70.37"/>
<polygon fill="midnightblue" stroke="midnightblue" points="774.42,-27.02 783.47,-21.51 772.96,-20.17 774.42,-27.02"/>
</g>
</g>
</svg>
