<?xml version="1.0" encoding="UTF-8" standalone="no"?>
<!DOCTYPE svg PUBLIC "-//W3C//DTD SVG 1.1//EN"
 "http://www.w3.org/Graphics/SVG/1.1/DTD/svg11.dtd">
<!-- Generated by graphviz version 2.42.4 (0)
 -->
<!-- Title: csv_module::csv_get_value Pages: 1 -->
<svg width="472pt" height="110pt"
 viewBox="0.00 0.00 472.00 110.00" xmlns="http://www.w3.org/2000/svg" xmlns:xlink="http://www.w3.org/1999/xlink">
<g id="graph0" class="graph" transform="scale(1 1) rotate(0) translate(4 106)">
<title>csv_module::csv_get_value</title>
<polygon fill="white" stroke="transparent" points="-4,4 -4,-106 468,-106 468,4 -4,4"/>
<!-- Node1 -->
<g id="node1" class="node">
<title>Node1</title>
<g id="a_node1"><a xlink:title="Get an individual value from the &#39;csv_data&#39; structure in the CSV class.">
<polygon fill="#bfbfbf" stroke="black" points="0,-34 0,-68 128,-68 128,-34 0,-34"/>
<text text-anchor="start" x="8" y="-54.4" font-family="Helvetica,sans-Serif" font-size="12.00">csv_module::csv_get</text>
<text text-anchor="middle" x="64" y="-41.4" font-family="Helvetica,sans-Serif" font-size="12.00">_value</text>
</a>
</g>
</g>
<!-- Node2 -->
<g id="node2" class="node">
<title>Node2</title>
<g id="a_node2"><a xlink:href="namespacecsv__module.html#a6be3694bd93818db748eba1dfbedbbc8" target="_top" xlink:title="Converts a string to a &#39;integer(ip)&#39;.">
<polygon fill="white" stroke="black" points="164,-80.5 164,-101.5 304,-101.5 304,-80.5 164,-80.5"/>
<text text-anchor="middle" x="234" y="-87.9" font-family="Helvetica,sans-Serif" font-size="12.00">csv_module::to_integer</text>
</a>
</g>
</g>
<!-- Node1&#45;&gt;Node2 -->
<g id="edge1" class="edge">
<title>Node1&#45;&gt;Node2</title>
<path fill="none" stroke="midnightblue" d="M128.03,-66.01C144.77,-69.99 162.68,-74.26 178.89,-78.12"/>
<polygon fill="midnightblue" stroke="midnightblue" points="178.2,-81.55 188.74,-80.46 179.82,-74.74 178.2,-81.55"/>
</g>
<!-- Node3 -->
<g id="node3" class="node">
<title>Node3</title>
<g id="a_node3"><a xlink:href="namespacecsv__module.html#afdb32ff9495b79418037e3fae406e67f" target="_top" xlink:title="Converts a string to a &#39;logical&#39;.">
<polygon fill="white" stroke="black" points="164.5,-40.5 164.5,-61.5 303.5,-61.5 303.5,-40.5 164.5,-40.5"/>
<text text-anchor="middle" x="234" y="-47.9" font-family="Helvetica,sans-Serif" font-size="12.00">csv_module::to_logical</text>
</a>
</g>
</g>
<!-- Node1&#45;&gt;Node3 -->
<g id="edge2" class="edge">
<title>Node1&#45;&gt;Node3</title>
<path fill="none" stroke="midnightblue" d="M128.03,-51C136.53,-51 145.34,-51 154.07,-51"/>
<polygon fill="midnightblue" stroke="midnightblue" points="154.26,-54.5 164.26,-51 154.26,-47.5 154.26,-54.5"/>
</g>
<!-- Node5 -->
<g id="node5" class="node">
<title>Node5</title>
<g id="a_node5"><a xlink:href="namespacecsv__module.html#afa16fb149f3106c9326e9c31a8bb083f" target="_top" xlink:title="Converts a string to a &#39;real(wp)&#39;.">
<polygon fill="white" stroke="black" points="172,-0.5 172,-21.5 296,-21.5 296,-0.5 172,-0.5"/>
<text text-anchor="middle" x="234" y="-7.9" font-family="Helvetica,sans-Serif" font-size="12.00">csv_module::to_real</text>
</a>
</g>
</g>
<!-- Node1&#45;&gt;Node5 -->
<g id="edge4" class="edge">
<title>Node1&#45;&gt;Node5</title>
<path fill="none" stroke="midnightblue" d="M128.03,-35.99C144.77,-32.01 162.68,-27.74 178.89,-23.88"/>
<polygon fill="midnightblue" stroke="midnightblue" points="179.82,-27.26 188.74,-21.54 178.2,-20.45 179.82,-27.26"/>
</g>
<!-- Node4 -->
<g id="node4" class="node">
<title>Node4</title>
<g id="a_node4"><a xlink:href="namespaceutilities.html#a376978b945cbdf5d33ff8bf905d19866" target="_top" xlink:title="Convert a string to lower&#45;case.">
<polygon fill="white" stroke="black" points="340,-40.5 340,-61.5 464,-61.5 464,-40.5 340,-40.5"/>
<text text-anchor="middle" x="402" y="-47.9" font-family="Helvetica,sans-Serif" font-size="12.00">utilities::tolowercase</text>
</a>
</g>
</g>
<!-- Node3&#45;&gt;Node4 -->
<g id="edge3" class="edge">
<title>Node3&#45;&gt;Node4</title>
<path fill="none" stroke="midnightblue" d="M303.96,-51C312.54,-51 321.32,-51 329.93,-51"/>
<polygon fill="midnightblue" stroke="midnightblue" points="329.94,-54.5 339.94,-51 329.94,-47.5 329.94,-54.5"/>
</g>
</g>
</svg>
