<?xml version="1.0" encoding="UTF-8" standalone="no"?>
<!DOCTYPE svg PUBLIC "-//W3C//DTD SVG 1.1//EN"
 "http://www.w3.org/Graphics/SVG/1.1/DTD/svg11.dtd">
<!-- Generated by graphviz version 2.42.4 (0)
 -->
<!-- Title: csv_module::add_cell Pages: 1 -->
<svg width="405pt" height="70pt"
 viewBox="0.00 0.00 405.00 70.00" xmlns="http://www.w3.org/2000/svg" xmlns:xlink="http://www.w3.org/1999/xlink">
<g id="graph0" class="graph" transform="scale(1 1) rotate(0) translate(4 66)">
<title>csv_module::add_cell</title>
<polygon fill="white" stroke="transparent" points="-4,4 -4,-66 401,-66 401,4 -4,4"/>
<!-- Node1 -->
<g id="node1" class="node">
<title>Node1</title>
<g id="a_node1"><a xlink:title="Adds a cell to a CSV file.">
<polygon fill="#bfbfbf" stroke="black" points="0,-20.5 0,-41.5 133,-41.5 133,-20.5 0,-20.5"/>
<text text-anchor="middle" x="66.5" y="-27.9" font-family="Helvetica,sans-Serif" font-size="12.00">csv_module::add_cell</text>
</a>
</g>
</g>
<!-- Node2 -->
<g id="node2" class="node">
<title>Node2</title>
<g id="a_node2"><a xlink:href="namespacepahm__messages.html#acf0c696cc1604842ee84a5df6d81179c" target="_top" xlink:title="Sets the name of the subroutine that is writing log and/or screen messages.">
<polygon fill="white" stroke="black" points="175.5,-40.5 175.5,-61.5 390.5,-61.5 390.5,-40.5 175.5,-40.5"/>
<text text-anchor="middle" x="283" y="-47.9" font-family="Helvetica,sans-Serif" font-size="12.00">pahm_messages::setmessagesource</text>
</a>
</g>
</g>
<!-- Node1&#45;&gt;Node2 -->
<g id="edge1" class="edge">
<title>Node1&#45;&gt;Node2</title>
<path fill="none" stroke="midnightblue" d="M133.02,-37.11C143.3,-38.07 154.19,-39.08 165.22,-40.11"/>
<polygon fill="midnightblue" stroke="midnightblue" points="165.08,-43.61 175.36,-41.06 165.73,-36.64 165.08,-43.61"/>
</g>
<!-- Node3 -->
<g id="node3" class="node">
<title>Node3</title>
<g id="a_node3"><a xlink:href="namespacepahm__messages.html#ad35e9f2327aad65d4c669e3d886f54dc" target="_top" xlink:title="Removes the name of the subroutine that is no longer active.">
<polygon fill="white" stroke="black" points="169,-0.5 169,-21.5 397,-21.5 397,-0.5 169,-0.5"/>
<text text-anchor="middle" x="283" y="-7.9" font-family="Helvetica,sans-Serif" font-size="12.00">pahm_messages::unsetmessagesource</text>
</a>
</g>
</g>
<!-- Node1&#45;&gt;Node3 -->
<g id="edge2" class="edge">
<title>Node1&#45;&gt;Node3</title>
<path fill="none" stroke="midnightblue" d="M133.02,-24.89C141.35,-24.11 150.07,-23.3 158.94,-22.47"/>
<polygon fill="midnightblue" stroke="midnightblue" points="159.37,-25.95 169,-21.54 158.72,-18.98 159.37,-25.95"/>
</g>
</g>
</svg>
