<?xml version="1.0" encoding="UTF-8" standalone="no"?>
<!DOCTYPE svg PUBLIC "-//W3C//DTD SVG 1.1//EN"
 "http://www.w3.org/Graphics/SVG/1.1/DTD/svg11.dtd">
<!-- Generated by graphviz version 2.42.4 (0)
 -->
<!-- Title: csv_module::get_header_csv_str Pages: 1 -->
<svg width="320pt" height="43pt"
 viewBox="0.00 0.00 320.00 43.00" xmlns="http://www.w3.org/2000/svg" xmlns:xlink="http://www.w3.org/1999/xlink">
<g id="graph0" class="graph" transform="scale(1 1) rotate(0) translate(4 39)">
<title>csv_module::get_header_csv_str</title>
<polygon fill="white" stroke="transparent" points="-4,4 -4,-39 316,-39 316,4 -4,4"/>
<!-- Node1 -->
<g id="node1" class="node">
<title>Node1</title>
<g id="a_node1"><a xlink:title="Returns the header as a &#39;type(csv_string)&#39; array (&#39;read&#39; must have already been called to read the fi...">
<polygon fill="#bfbfbf" stroke="black" points="164,-0.5 164,-34.5 312,-34.5 312,-0.5 164,-0.5"/>
<text text-anchor="start" x="172" y="-20.9" font-family="Helvetica,sans-Serif" font-size="12.00">csv_module::get_header</text>
<text text-anchor="middle" x="238" y="-7.9" font-family="Helvetica,sans-Serif" font-size="12.00">_csv_str</text>
</a>
</g>
</g>
<!-- Node2 -->
<g id="node2" class="node">
<title>Node2</title>
<g id="a_node2"><a xlink:href="structcsv__module_1_1csv__file.html#a0be9b204582c9f2006306bdad0642939" target="_top" xlink:title=" ">
<polygon fill="white" stroke="black" points="0,-0.5 0,-34.5 128,-34.5 128,-0.5 0,-0.5"/>
<text text-anchor="start" x="8" y="-20.9" font-family="Helvetica,sans-Serif" font-size="12.00">csv_module::csv_file</text>
<text text-anchor="middle" x="64" y="-7.9" font-family="Helvetica,sans-Serif" font-size="12.00">::get_header</text>
</a>
</g>
</g>
<!-- Node1&#45;&gt;Node2 -->
<g id="edge1" class="edge">
<title>Node1&#45;&gt;Node2</title>
<path fill="none" stroke="midnightblue" d="M153.28,-17.5C144.83,-17.5 136.35,-17.5 128.17,-17.5"/>
<polygon fill="midnightblue" stroke="midnightblue" points="153.56,-21 163.56,-17.5 153.56,-14 153.56,-21"/>
</g>
</g>
</svg>
