<?xml version="1.0" encoding="UTF-8" standalone="no"?>
<!DOCTYPE svg PUBLIC "-//W3C//DTD SVG 1.1//EN"
 "http://www.w3.org/Graphics/SVG/1.1/DTD/svg11.dtd">
<!-- Generated by graphviz version 2.42.4 (0)
 -->
<!-- Title: sortutils::quicksort Pages: 1 -->
<svg width="385pt" height="70pt"
 viewBox="0.00 0.00 385.00 70.00" xmlns="http://www.w3.org/2000/svg" xmlns:xlink="http://www.w3.org/1999/xlink">
<g id="graph0" class="graph" transform="scale(1 1) rotate(0) translate(4 66)">
<title>sortutils::quicksort</title>
<polygon fill="white" stroke="transparent" points="-4,4 -4,-66 381,-66 381,4 -4,4"/>
<!-- Node1 -->
<g id="node1" class="node">
<title>Node1</title>
<g id="a_node1"><a xlink:title="Sorts the array arr1D into ascending numerical order using Quicksort.">
<polygon fill="#bfbfbf" stroke="black" points="0,-20.5 0,-41.5 113,-41.5 113,-20.5 0,-20.5"/>
<text text-anchor="middle" x="56.5" y="-27.9" font-family="Helvetica,sans-Serif" font-size="12.00">sortutils::quicksort</text>
</a>
</g>
</g>
<!-- Node2 -->
<g id="node2" class="node">
<title>Node2</title>
<g id="a_node2"><a xlink:href="namespacepahm__messages.html#acf0c696cc1604842ee84a5df6d81179c" target="_top" xlink:title="Sets the name of the subroutine that is writing log and/or screen messages.">
<polygon fill="white" stroke="black" points="155.5,-40.5 155.5,-61.5 370.5,-61.5 370.5,-40.5 155.5,-40.5"/>
<text text-anchor="middle" x="263" y="-47.9" font-family="Helvetica,sans-Serif" font-size="12.00">pahm_messages::setmessagesource</text>
</a>
</g>
</g>
<!-- Node1&#45;&gt;Node2 -->
<g id="edge1" class="edge">
<title>Node1&#45;&gt;Node2</title>
<path fill="none" stroke="midnightblue" d="M113.11,-36.44C123.16,-37.42 133.98,-38.48 145.03,-39.56"/>
<polygon fill="midnightblue" stroke="midnightblue" points="144.94,-43.07 155.23,-40.56 145.62,-36.1 144.94,-43.07"/>
</g>
<!-- Node3 -->
<g id="node3" class="node">
<title>Node3</title>
<g id="a_node3"><a xlink:href="namespacepahm__messages.html#ad35e9f2327aad65d4c669e3d886f54dc" target="_top" xlink:title="Removes the name of the subroutine that is no longer active.">
<polygon fill="white" stroke="black" points="149,-0.5 149,-21.5 377,-21.5 377,-0.5 149,-0.5"/>
<text text-anchor="middle" x="263" y="-7.9" font-family="Helvetica,sans-Serif" font-size="12.00">pahm_messages::unsetmessagesource</text>
</a>
</g>
</g>
<!-- Node1&#45;&gt;Node3 -->
<g id="edge2" class="edge">
<title>Node1&#45;&gt;Node3</title>
<path fill="none" stroke="midnightblue" d="M113.11,-25.56C122.98,-24.6 133.59,-23.56 144.43,-22.5"/>
<polygon fill="midnightblue" stroke="midnightblue" points="144.83,-25.98 154.44,-21.52 144.15,-19.01 144.83,-25.98"/>
</g>
</g>
</svg>
