<?xml version="1.0" encoding="UTF-8" standalone="no"?>
<!DOCTYPE svg PUBLIC "-//W3C//DTD SVG 1.1//EN"
 "http://www.w3.org/Graphics/SVG/1.1/DTD/svg11.dtd">
<!-- Generated by graphviz version 2.42.4 (0)
 -->
<!-- Title: parwind::readcsvbesttrackfile Pages: 1 -->
<svg width="645pt" height="270pt"
 viewBox="0.00 0.00 645.00 270.00" xmlns="http://www.w3.org/2000/svg" xmlns:xlink="http://www.w3.org/1999/xlink">
<g id="graph0" class="graph" transform="scale(1 1) rotate(0) translate(4 266)">
<title>parwind::readcsvbesttrackfile</title>
<polygon fill="white" stroke="transparent" points="-4,4 -4,-266 641,-266 641,4 -4,4"/>
<!-- Node1 -->
<g id="node1" class="node">
<title>Node1</title>
<g id="a_node1"><a xlink:title="Subroutine to read all a&#45;deck/b&#45;deck best track files (ATCF format).">
<polygon fill="#bfbfbf" stroke="black" points="0,-120.5 0,-141.5 173,-141.5 173,-120.5 0,-120.5"/>
<text text-anchor="middle" x="86.5" y="-127.9" font-family="Helvetica,sans-Serif" font-size="12.00">parwind::readcsvbesttrackfile</text>
</a>
</g>
</g>
<!-- Node2 -->
<g id="node2" class="node">
<title>Node2</title>
<g id="a_node2"><a xlink:href="namespaceparwind.html#a9b826e18db73886e01f39d55bf7e5b85" target="_top" xlink:title="Subroutine to allocate memory for a best track structure.">
<polygon fill="white" stroke="black" points="224,-240.5 224,-261.5 358,-261.5 358,-240.5 224,-240.5"/>
<text text-anchor="middle" x="291" y="-247.9" font-family="Helvetica,sans-Serif" font-size="12.00">parwind::allocbtrstruct</text>
</a>
</g>
</g>
<!-- Node1&#45;&gt;Node2 -->
<g id="edge1" class="edge">
<title>Node1&#45;&gt;Node2</title>
<path fill="none" stroke="midnightblue" d="M97.09,-141.57C116.28,-162.05 161.64,-207.22 209,-231 213.58,-233.3 218.43,-235.34 223.4,-237.16"/>
<polygon fill="midnightblue" stroke="midnightblue" points="222.47,-240.54 233.06,-240.38 224.68,-233.9 222.47,-240.54"/>
</g>
<!-- Node3 -->
<g id="node3" class="node">
<title>Node3</title>
<g id="a_node3"><a xlink:href="namespaceutilities.html#a241eabd46f9d0e4a26adc221570ad79f" target="_top" xlink:title="Find the unique non&#45;blank elements in 1D character array.">
<polygon fill="white" stroke="black" points="231,-200.5 231,-221.5 351,-221.5 351,-200.5 231,-200.5"/>
<text text-anchor="middle" x="291" y="-207.9" font-family="Helvetica,sans-Serif" font-size="12.00">utilities::charunique</text>
</a>
</g>
</g>
<!-- Node1&#45;&gt;Node3 -->
<g id="edge2" class="edge">
<title>Node1&#45;&gt;Node3</title>
<path fill="none" stroke="midnightblue" d="M105.88,-141.65C129.21,-154.8 170.99,-177.11 209,-191 215.73,-193.46 222.89,-195.72 230.06,-197.76"/>
<polygon fill="midnightblue" stroke="midnightblue" points="229.23,-201.16 239.8,-200.4 231.07,-194.4 229.23,-201.16"/>
</g>
<!-- Node4 -->
<g id="node4" class="node">
<title>Node4</title>
<g id="a_node4"><a xlink:href="namespaceutilities.html#a8723656afba63e33ed1c6cc8e5440b63" target="_top" xlink:title="Gets a line from a file.">
<polygon fill="white" stroke="black" points="226,-160.5 226,-181.5 356,-181.5 356,-160.5 226,-160.5"/>
<text text-anchor="middle" x="291" y="-167.9" font-family="Helvetica,sans-Serif" font-size="12.00">utilities::getlinerecord</text>
</a>
</g>
</g>
<!-- Node1&#45;&gt;Node4 -->
<g id="edge3" class="edge">
<title>Node1&#45;&gt;Node4</title>
<path fill="none" stroke="midnightblue" d="M140.7,-141.51C167.11,-146.73 199.19,-153.06 226.83,-158.52"/>
<polygon fill="midnightblue" stroke="midnightblue" points="226.31,-161.99 236.8,-160.49 227.67,-155.12 226.31,-161.99"/>
</g>
<!-- Node5 -->
<g id="node5" class="node">
<title>Node5</title>
<g id="a_node5"><a xlink:href="namespaceutilities.html#a2a5c60da3dadf9f6ef913709c07dbee7" target="_top" xlink:title="Returns the value of the leading integer numeric string.">
<polygon fill="white" stroke="black" points="240,-120.5 240,-141.5 342,-141.5 342,-120.5 240,-120.5"/>
<text text-anchor="middle" x="291" y="-127.9" font-family="Helvetica,sans-Serif" font-size="12.00">utilities::intvalstr</text>
</a>
</g>
</g>
<!-- Node1&#45;&gt;Node5 -->
<g id="edge4" class="edge">
<title>Node1&#45;&gt;Node5</title>
<path fill="none" stroke="midnightblue" d="M173.08,-131C192.12,-131 211.92,-131 229.69,-131"/>
<polygon fill="midnightblue" stroke="midnightblue" points="229.9,-134.5 239.9,-131 229.9,-127.5 229.9,-134.5"/>
</g>
<!-- Node7 -->
<g id="node7" class="node">
<title>Node7</title>
<g id="a_node7"><a xlink:href="namespaceutilities.html#a2a41067ed5533ec0c36318e8f1e960bf" target="_top" xlink:title="This subroutine opens an existing file for reading.">
<polygon fill="white" stroke="black" points="221,-80.5 221,-101.5 361,-101.5 361,-80.5 221,-80.5"/>
<text text-anchor="middle" x="291" y="-87.9" font-family="Helvetica,sans-Serif" font-size="12.00">utilities::openfileforread</text>
</a>
</g>
</g>
<!-- Node1&#45;&gt;Node7 -->
<g id="edge6" class="edge">
<title>Node1&#45;&gt;Node7</title>
<path fill="none" stroke="midnightblue" d="M140.7,-120.49C167.11,-115.27 199.19,-108.94 226.83,-103.48"/>
<polygon fill="midnightblue" stroke="midnightblue" points="227.67,-106.88 236.8,-101.51 226.31,-100.01 227.67,-106.88"/>
</g>
<!-- Node10 -->
<g id="node10" class="node">
<title>Node10</title>
<g id="a_node10"><a xlink:href="namespaceutilities.html#a8dff395c74e87d059dadcf8bacdbfedd" target="_top" xlink:title="Convert a string to upper&#45;case.">
<polygon fill="white" stroke="black" points="228,-40.5 228,-61.5 354,-61.5 354,-40.5 228,-40.5"/>
<text text-anchor="middle" x="291" y="-47.9" font-family="Helvetica,sans-Serif" font-size="12.00">utilities::touppercase</text>
</a>
</g>
</g>
<!-- Node1&#45;&gt;Node10 -->
<g id="edge9" class="edge">
<title>Node1&#45;&gt;Node10</title>
<path fill="none" stroke="midnightblue" d="M105.88,-120.35C129.21,-107.2 170.99,-84.89 209,-71 215.73,-68.54 222.89,-66.28 230.06,-64.24"/>
<polygon fill="midnightblue" stroke="midnightblue" points="231.07,-67.6 239.8,-61.6 229.23,-60.84 231.07,-67.6"/>
</g>
<!-- Node11 -->
<g id="node11" class="node">
<title>Node11</title>
<g id="a_node11"><a xlink:href="namespaceparwind.html#a7a4d6eb0de8c960ffd29e8705b11e707" target="_top" xlink:title="Writes the best track data (adjusted or not) to the &quot;adjusted&quot; best track output file.">
<polygon fill="white" stroke="black" points="209,-0.5 209,-21.5 373,-21.5 373,-0.5 209,-0.5"/>
<text text-anchor="middle" x="291" y="-7.9" font-family="Helvetica,sans-Serif" font-size="12.00">parwind::writebesttrackdata</text>
</a>
</g>
</g>
<!-- Node1&#45;&gt;Node11 -->
<g id="edge10" class="edge">
<title>Node1&#45;&gt;Node11</title>
<path fill="none" stroke="midnightblue" d="M97.09,-120.43C116.28,-99.95 161.64,-54.78 209,-31 213.58,-28.7 218.43,-26.66 223.4,-24.84"/>
<polygon fill="midnightblue" stroke="midnightblue" points="224.68,-28.1 233.06,-21.62 222.47,-21.46 224.68,-28.1"/>
</g>
<!-- Node6 -->
<g id="node6" class="node">
<title>Node6</title>
<g id="a_node6"><a xlink:href="namespaceutilities.html#a26a70a9de90e0016d323e4c8dbea1a5b" target="_top" xlink:title="Scans string looking for the leading integer numeric string.">
<polygon fill="white" stroke="black" points="474,-120.5 474,-141.5 572,-141.5 572,-120.5 474,-120.5"/>
<text text-anchor="middle" x="523" y="-127.9" font-family="Helvetica,sans-Serif" font-size="12.00">utilities::intscan</text>
</a>
</g>
</g>
<!-- Node5&#45;&gt;Node6 -->
<g id="edge5" class="edge">
<title>Node5&#45;&gt;Node6</title>
<path fill="none" stroke="midnightblue" d="M342.19,-131C377.95,-131 426.13,-131 463.62,-131"/>
<polygon fill="midnightblue" stroke="midnightblue" points="463.89,-134.5 473.89,-131 463.89,-127.5 463.89,-134.5"/>
</g>
<!-- Node8 -->
<g id="node8" class="node">
<title>Node8</title>
<g id="a_node8"><a xlink:href="namespacepahm__messages.html#acf0c696cc1604842ee84a5df6d81179c" target="_top" xlink:title="Sets the name of the subroutine that is writing log and/or screen messages.">
<polygon fill="white" stroke="black" points="415.5,-80.5 415.5,-101.5 630.5,-101.5 630.5,-80.5 415.5,-80.5"/>
<text text-anchor="middle" x="523" y="-87.9" font-family="Helvetica,sans-Serif" font-size="12.00">pahm_messages::setmessagesource</text>
</a>
</g>
</g>
<!-- Node7&#45;&gt;Node8 -->
<g id="edge7" class="edge">
<title>Node7&#45;&gt;Node8</title>
<path fill="none" stroke="midnightblue" d="M361.01,-91C374.88,-91 389.81,-91 404.8,-91"/>
<polygon fill="midnightblue" stroke="midnightblue" points="405.17,-94.5 415.17,-91 405.17,-87.5 405.17,-94.5"/>
</g>
<!-- Node9 -->
<g id="node9" class="node">
<title>Node9</title>
<g id="a_node9"><a xlink:href="namespacepahm__messages.html#ad35e9f2327aad65d4c669e3d886f54dc" target="_top" xlink:title="Removes the name of the subroutine that is no longer active.">
<polygon fill="white" stroke="black" points="409,-40.5 409,-61.5 637,-61.5 637,-40.5 409,-40.5"/>
<text text-anchor="middle" x="523" y="-47.9" font-family="Helvetica,sans-Serif" font-size="12.00">pahm_messages::unsetmessagesource</text>
</a>
</g>
</g>
<!-- Node7&#45;&gt;Node9 -->
<g id="edge8" class="edge">
<title>Node7&#45;&gt;Node9</title>
<path fill="none" stroke="midnightblue" d="M352.43,-80.49C382.81,-75.21 419.82,-68.77 451.49,-63.26"/>
<polygon fill="midnightblue" stroke="midnightblue" points="452.32,-66.67 461.57,-61.51 451.12,-59.77 452.32,-66.67"/>
</g>
</g>
</svg>
