<?xml version="1.0" encoding="UTF-8" standalone="no"?>
<!DOCTYPE svg PUBLIC "-//W3C//DTD SVG 1.1//EN"
 "http://www.w3.org/Graphics/SVG/1.1/DTD/svg11.dtd">
<!-- Generated by graphviz version 2.42.4 (0)
 -->
<!-- Title: csv_module::get_integer_column Pages: 1 -->
<svg width="419pt" height="70pt"
 viewBox="0.00 0.00 419.00 70.00" xmlns="http://www.w3.org/2000/svg" xmlns:xlink="http://www.w3.org/1999/xlink">
<g id="graph0" class="graph" transform="scale(1 1) rotate(0) translate(4 66)">
<title>csv_module::get_integer_column</title>
<polygon fill="white" stroke="transparent" points="-4,4 -4,-66 415,-66 415,4 -4,4"/>
<!-- Node1 -->
<g id="node1" class="node">
<title>Node1</title>
<g id="a_node1"><a xlink:title="Return a column from a CSV file as a &#39;integer(ip)&#39; vector.">
<polygon fill="#bfbfbf" stroke="black" points="0,-14 0,-48 147,-48 147,-14 0,-14"/>
<text text-anchor="start" x="8" y="-34.4" font-family="Helvetica,sans-Serif" font-size="12.00">csv_module::get_integer</text>
<text text-anchor="middle" x="73.5" y="-21.4" font-family="Helvetica,sans-Serif" font-size="12.00">_column</text>
</a>
</g>
</g>
<!-- Node2 -->
<g id="node2" class="node">
<title>Node2</title>
<g id="a_node2"><a xlink:href="namespacepahm__messages.html#acf0c696cc1604842ee84a5df6d81179c" target="_top" xlink:title="Sets the name of the subroutine that is writing log and/or screen messages.">
<polygon fill="white" stroke="black" points="189.5,-40.5 189.5,-61.5 404.5,-61.5 404.5,-40.5 189.5,-40.5"/>
<text text-anchor="middle" x="297" y="-47.9" font-family="Helvetica,sans-Serif" font-size="12.00">pahm_messages::setmessagesource</text>
</a>
</g>
</g>
<!-- Node1&#45;&gt;Node2 -->
<g id="edge1" class="edge">
<title>Node1&#45;&gt;Node2</title>
<path fill="none" stroke="midnightblue" d="M147.03,-37.55C157.36,-38.48 168.21,-39.46 179.13,-40.45"/>
<polygon fill="midnightblue" stroke="midnightblue" points="178.89,-43.94 189.17,-41.35 179.52,-36.97 178.89,-43.94"/>
</g>
<!-- Node3 -->
<g id="node3" class="node">
<title>Node3</title>
<g id="a_node3"><a xlink:href="namespacepahm__messages.html#ad35e9f2327aad65d4c669e3d886f54dc" target="_top" xlink:title="Removes the name of the subroutine that is no longer active.">
<polygon fill="white" stroke="black" points="183,-0.5 183,-21.5 411,-21.5 411,-0.5 183,-0.5"/>
<text text-anchor="middle" x="297" y="-7.9" font-family="Helvetica,sans-Serif" font-size="12.00">pahm_messages::unsetmessagesource</text>
</a>
</g>
</g>
<!-- Node1&#45;&gt;Node3 -->
<g id="edge2" class="edge">
<title>Node1&#45;&gt;Node3</title>
<path fill="none" stroke="midnightblue" d="M147.03,-24.45C155.28,-23.71 163.85,-22.93 172.54,-22.15"/>
<polygon fill="midnightblue" stroke="midnightblue" points="173.12,-25.61 182.76,-21.22 172.49,-18.64 173.12,-25.61"/>
</g>
</g>
</svg>
