<?xml version="1.0" encoding="UTF-8" standalone="no"?>
<!DOCTYPE svg PUBLIC "-//W3C//DTD SVG 1.1//EN"
 "http://www.w3.org/Graphics/SVG/1.1/DTD/svg11.dtd">
<!-- Generated by graphviz version 2.42.4 (0)
 -->
<!-- Title: csv_module::variable_types Pages: 1 -->
<!--zoomable 150 -->
<svg id="main" version="1.1" xmlns="http://www.w3.org/2000/svg" xmlns:xlink="http://www.w3.org/1999/xlink" xml:space="preserve" onload="init(evt)">
<style type="text/css"><![CDATA[
.edge:hover path { stroke: red; }
.edge:hover polygon { stroke: red; fill: red; }
]]></style>
<script type="text/javascript"><![CDATA[
var edges = document.getElementsByTagName('g');
if (edges && edges.length) {
  for (var i=0;i<edges.length;i++) {
    if (edges[i].id.substr(0,4)=='edge') {
      edges[i].setAttribute('class','edge');
    }
  }
}
]]></script>
        <defs>
                <circle id="rim" cx="0" cy="0" r="7"/>
                <circle id="rim2" cx="0" cy="0" r="3.5"/>
                <g id="zoomPlus">
                        <use xlink:href="#rim" fill="#404040">
                                <set attributeName="fill" to="#808080" begin="zoomplus.mouseover" end="zoomplus.mouseout"/>
                        </use>
                        <path d="M-4,0h8M0,-4v8" fill="none" stroke="white" stroke-width="1.5" pointer-events="none"/>
                </g>
                <g id="zoomMin">
                        <use xlink:href="#rim" fill="#404040">
                                <set attributeName="fill" to="#808080" begin="zoomminus.mouseover" end="zoomminus.mouseout"/>
                        </use>
                        <path d="M-4,0h8" fill="none" stroke="white" stroke-width="1.5" pointer-events="none"/>
                </g>
                <g id="dirArrow">
                        <path fill="none" stroke="white" stroke-width="1.5" d="M0,-3.0v7 M-2.5,-0.5L0,-3.0L2.5,-0.5"/>
                </g>
               <g id="resetDef">
                       <use xlink:href="#rim2" fill="#404040">
                               <set attributeName="fill" to="#808080" begin="reset.mouseover" end="reset.mouseout"/>
                       </use>
               </g>
        </defs>

<script type="text/javascript">
var viewWidth = 738;
var viewHeight = 150;
var sectionId = 'dynsection-36';
</script>
<script xlink:href="svgpan.js"/>
<svg id="graph" class="graph">
<g id="viewport">
<title>csv_module::variable_types</title>
<polygon fill="white" stroke="transparent" points="-4,4 -4,-146 734,-146 734,4 -4,4"/>
<!-- Node1 -->
<g id="node1" class="node">
<title>Node1</title>
<g id="a_node1"><a xlink:title="Returns an array indicating the variable type of each columns.">
<polygon fill="#bfbfbf" stroke="black" points="0,-34 0,-68 130,-68 130,-34 0,-34"/>
<text text-anchor="start" x="8" y="-54.4" font-family="Helvetica,sans-Serif" font-size="12.00">csv_module::variable</text>
<text text-anchor="middle" x="65" y="-41.4" font-family="Helvetica,sans-Serif" font-size="12.00">_types</text>
</a>
</g>
</g>
<!-- Node2 -->
<g id="node2" class="node">
<title>Node2</title>
<g id="a_node2"><a xlink:href="namespacecsv__module.html#ab0bfadc5d97513c62e333b32957398fb" target="_top" xlink:title="Infers the variable type.">
<polygon fill="white" stroke="black" points="185,-80.5 185,-101.5 375,-101.5 375,-80.5 185,-80.5"/>
<text text-anchor="middle" x="280" y="-87.9" font-family="Helvetica,sans-Serif" font-size="12.00">csv_module::infer_variable_type</text>
</a>
</g>
</g>
<!-- Node1&#45;&gt;Node2 -->
<g id="edge1" class="edge">
<title>Node1&#45;&gt;Node2</title>
<path fill="none" stroke="midnightblue" d="M130.24,-64.07C142.12,-66.42 154.43,-68.82 166,-71 179.55,-73.55 194.03,-76.19 207.95,-78.67"/>
<polygon fill="midnightblue" stroke="midnightblue" points="207.51,-82.15 217.96,-80.45 208.73,-75.26 207.51,-82.15"/>
</g>
<!-- Node7 -->
<g id="node7" class="node">
<title>Node7</title>
<g id="a_node7"><a xlink:href="namespacepahm__messages.html#acf0c696cc1604842ee84a5df6d81179c" target="_top" xlink:title="Sets the name of the subroutine that is writing log and/or screen messages.">
<polygon fill="white" stroke="black" points="172.5,-40.5 172.5,-61.5 387.5,-61.5 387.5,-40.5 172.5,-40.5"/>
<text text-anchor="middle" x="280" y="-47.9" font-family="Helvetica,sans-Serif" font-size="12.00">pahm_messages::setmessagesource</text>
</a>
</g>
</g>
<!-- Node1&#45;&gt;Node7 -->
<g id="edge6" class="edge">
<title>Node1&#45;&gt;Node7</title>
<path fill="none" stroke="midnightblue" d="M130.2,-51C140.42,-51 151.26,-51 162.25,-51"/>
<polygon fill="midnightblue" stroke="midnightblue" points="162.37,-54.5 172.37,-51 162.37,-47.5 162.37,-54.5"/>
</g>
<!-- Node8 -->
<g id="node8" class="node">
<title>Node8</title>
<g id="a_node8"><a xlink:href="namespacepahm__messages.html#ad35e9f2327aad65d4c669e3d886f54dc" target="_top" xlink:title="Removes the name of the subroutine that is no longer active.">
<polygon fill="white" stroke="black" points="166,-0.5 166,-21.5 394,-21.5 394,-0.5 166,-0.5"/>
<text text-anchor="middle" x="280" y="-7.9" font-family="Helvetica,sans-Serif" font-size="12.00">pahm_messages::unsetmessagesource</text>
</a>
</g>
</g>
<!-- Node1&#45;&gt;Node8 -->
<g id="edge7" class="edge">
<title>Node1&#45;&gt;Node8</title>
<path fill="none" stroke="midnightblue" d="M130.24,-37.93C142.12,-35.58 154.43,-33.18 166,-31 179.55,-28.45 194.03,-25.81 207.95,-23.33"/>
<polygon fill="midnightblue" stroke="midnightblue" points="208.73,-26.74 217.96,-21.55 207.51,-19.85 208.73,-26.74"/>
</g>
<!-- Node3 -->
<g id="node3" class="node">
<title>Node3</title>
<g id="a_node3"><a xlink:href="namespacecsv__module.html#a6be3694bd93818db748eba1dfbedbbc8" target="_top" xlink:title="Converts a string to a &#39;integer(ip)&#39;.">
<polygon fill="white" stroke="black" points="430,-120.5 430,-141.5 570,-141.5 570,-120.5 430,-120.5"/>
<text text-anchor="middle" x="500" y="-127.9" font-family="Helvetica,sans-Serif" font-size="12.00">csv_module::to_integer</text>
</a>
</g>
</g>
<!-- Node2&#45;&gt;Node3 -->
<g id="edge2" class="edge">
<title>Node2&#45;&gt;Node3</title>
<path fill="none" stroke="midnightblue" d="M338.28,-101.51C366.95,-106.77 401.84,-113.17 431.78,-118.67"/>
<polygon fill="midnightblue" stroke="midnightblue" points="431.26,-122.13 441.73,-120.49 432.52,-115.24 431.26,-122.13"/>
</g>
<!-- Node4 -->
<g id="node4" class="node">
<title>Node4</title>
<g id="a_node4"><a xlink:href="namespacecsv__module.html#afdb32ff9495b79418037e3fae406e67f" target="_top" xlink:title="Converts a string to a &#39;logical&#39;.">
<polygon fill="white" stroke="black" points="430.5,-80.5 430.5,-101.5 569.5,-101.5 569.5,-80.5 430.5,-80.5"/>
<text text-anchor="middle" x="500" y="-87.9" font-family="Helvetica,sans-Serif" font-size="12.00">csv_module::to_logical</text>
</a>
</g>
</g>
<!-- Node2&#45;&gt;Node4 -->
<g id="edge3" class="edge">
<title>Node2&#45;&gt;Node4</title>
<path fill="none" stroke="midnightblue" d="M375.03,-91C390.11,-91 405.57,-91 420.24,-91"/>
<polygon fill="midnightblue" stroke="midnightblue" points="420.26,-94.5 430.26,-91 420.26,-87.5 420.26,-94.5"/>
</g>
<!-- Node6 -->
<g id="node6" class="node">
<title>Node6</title>
<g id="a_node6"><a xlink:href="namespacecsv__module.html#afa16fb149f3106c9326e9c31a8bb083f" target="_top" xlink:title="Converts a string to a &#39;real(wp)&#39;.">
<polygon fill="white" stroke="black" points="438,-40.5 438,-61.5 562,-61.5 562,-40.5 438,-40.5"/>
<text text-anchor="middle" x="500" y="-47.9" font-family="Helvetica,sans-Serif" font-size="12.00">csv_module::to_real</text>
</a>
</g>
</g>
<!-- Node2&#45;&gt;Node6 -->
<g id="edge5" class="edge">
<title>Node2&#45;&gt;Node6</title>
<path fill="none" stroke="midnightblue" d="M341.43,-80.45C358.44,-77.45 376.95,-74.13 394,-71 407.09,-68.6 421.09,-65.97 434.45,-63.43"/>
<polygon fill="midnightblue" stroke="midnightblue" points="435.36,-66.82 444.53,-61.52 434.05,-59.95 435.36,-66.82"/>
</g>
<!-- Node5 -->
<g id="node5" class="node">
<title>Node5</title>
<g id="a_node5"><a xlink:href="namespaceutilities.html#a376978b945cbdf5d33ff8bf905d19866" target="_top" xlink:title="Convert a string to lower&#45;case.">
<polygon fill="white" stroke="black" points="606,-80.5 606,-101.5 730,-101.5 730,-80.5 606,-80.5"/>
<text text-anchor="middle" x="668" y="-87.9" font-family="Helvetica,sans-Serif" font-size="12.00">utilities::tolowercase</text>
</a>
</g>
</g>
<!-- Node4&#45;&gt;Node5 -->
<g id="edge4" class="edge">
<title>Node4&#45;&gt;Node5</title>
<path fill="none" stroke="midnightblue" d="M569.96,-91C578.54,-91 587.32,-91 595.93,-91"/>
<polygon fill="midnightblue" stroke="midnightblue" points="595.94,-94.5 605.94,-91 595.94,-87.5 595.94,-94.5"/>
</g>
</g>
</svg>
        <g id="navigator" transform="translate(0 0)" fill="#404254">
                <rect fill="#f2f5e9" fill-opacity="0.5" stroke="#606060" stroke-width=".5" x="0" y="0" width="60" height="60"/>
                <use id="zoomplus" xlink:href="#zoomPlus" x="17" y="9" onmousedown="handleZoom(evt,'in')"/>
                <use id="zoomminus" xlink:href="#zoomMin" x="42" y="9" onmousedown="handleZoom(evt,'out')"/>
                <use id="reset" xlink:href="#resetDef" x="30" y="36" onmousedown="handleReset()"/>
                <g id="arrowUp" xlink:href="#dirArrow" transform="translate(30 24)" onmousedown="handlePan(0,-1)">
                  <use xlink:href="#rim" fill="#404040">
                        <set attributeName="fill" to="#808080" begin="arrowUp.mouseover" end="arrowUp.mouseout"/>
                  </use>
                  <path fill="none" stroke="white" stroke-width="1.5" d="M0,-3.0v7 M-2.5,-0.5L0,-3.0L2.5,-0.5"/>
                </g>
                <g id="arrowRight" xlink:href="#dirArrow" transform="rotate(90) translate(36 -43)" onmousedown="handlePan(1,0)">
                  <use xlink:href="#rim" fill="#404040">
                        <set attributeName="fill" to="#808080" begin="arrowRight.mouseover" end="arrowRight.mouseout"/>
                  </use>
                  <path fill="none" stroke="white" stroke-width="1.5" d="M0,-3.0v7 M-2.5,-0.5L0,-3.0L2.5,-0.5"/>
                </g>
                <g id="arrowDown" xlink:href="#dirArrow" transform="rotate(180) translate(-30 -48)" onmousedown="handlePan(0,1)">
                  <use xlink:href="#rim" fill="#404040">
                        <set attributeName="fill" to="#808080" begin="arrowDown.mouseover" end="arrowDown.mouseout"/>
                  </use>
                  <path fill="none" stroke="white" stroke-width="1.5" d="M0,-3.0v7 M-2.5,-0.5L0,-3.0L2.5,-0.5"/>
                </g>
                <g id="arrowLeft" xlink:href="#dirArrow" transform="rotate(270) translate(-36 17)" onmousedown="handlePan(-1,0)">
                  <use xlink:href="#rim" fill="#404040">
                        <set attributeName="fill" to="#808080" begin="arrowLeft.mouseover" end="arrowLeft.mouseout"/>
                  </use>
                  <path fill="none" stroke="white" stroke-width="1.5" d="M0,-3.0v7 M-2.5,-0.5L0,-3.0L2.5,-0.5"/>
                </g>
        </g>
        <svg viewBox="0 0 15 15" width="100%" height="30px" preserveAspectRatio="xMaxYMin meet">
         <g id="arrow_out" transform="scale(0.3 0.3)">
          <a xlink:href="namespacecsv__module_ace66eaa8da32c4eadee2b6bac017bdc9_cgraph_org.svg" target="_base">
           <rect id="button" ry="5" rx="5" y="6" x="6" height="38" width="38"
                fill="#f2f5e9" fill-opacity="0.5" stroke="#606060" stroke-width="1.0"/>
           <path id="arrow"
             d="M 11.500037,31.436501 C 11.940474,20.09759 22.043105,11.32322 32.158766,21.979434 L 37.068811,17.246167 C 37.068811,17.246167 37.088388,32 37.088388,32 L 22.160133,31.978069 C 22.160133,31.978069 26.997745,27.140456 26.997745,27.140456 C 18.528582,18.264221 13.291696,25.230495 11.500037,31.436501 z"
             style="fill:#404040;"/>
          </a>
         </g>
        </svg>
</svg>
