<?xml version="1.0" encoding="UTF-8" standalone="no"?>
<!DOCTYPE svg PUBLIC "-//W3C//DTD SVG 1.1//EN"
 "http://www.w3.org/Graphics/SVG/1.1/DTD/svg11.dtd">
<!-- Generated by graphviz version 2.42.4 (0)
 -->
<!-- Title: pahm_vortex::getusequadrantvr Pages: 1 -->
<!--zoomable 110 -->
<svg id="main" version="1.1" xmlns="http://www.w3.org/2000/svg" xmlns:xlink="http://www.w3.org/1999/xlink" xml:space="preserve" onload="init(evt)">
<style type="text/css"><![CDATA[
.edge:hover path { stroke: red; }
.edge:hover polygon { stroke: red; fill: red; }
]]></style>
<script type="text/javascript"><![CDATA[
var edges = document.getElementsByTagName('g');
if (edges && edges.length) {
  for (var i=0;i<edges.length;i++) {
    if (edges[i].id.substr(0,4)=='edge') {
      edges[i].setAttribute('class','edge');
    }
  }
}
]]></script>
        <defs>
                <circle id="rim" cx="0" cy="0" r="7"/>
                <circle id="rim2" cx="0" cy="0" r="3.5"/>
                <g id="zoomPlus">
                        <use xlink:href="#rim" fill="#404040">
                                <set attributeName="fill" to="#808080" begin="zoomplus.mouseover" end="zoomplus.mouseout"/>
                        </use>
                        <path d="M-4,0h8M0,-4v8" fill="none" stroke="white" stroke-width="1.5" pointer-events="none"/>
                </g>
                <g id="zoomMin">
                        <use xlink:href="#rim" fill="#404040">
                                <set attributeName="fill" to="#808080" begin="zoomminus.mouseover" end="zoomminus.mouseout"/>
                        </use>
                        <path d="M-4,0h8" fill="none" stroke="white" stroke-width="1.5" pointer-events="none"/>
                </g>
                <g id="dirArrow">
                        <path fill="none" stroke="white" stroke-width="1.5" d="M0,-3.0v7 M-2.5,-0.5L0,-3.0L2.5,-0.5"/>
                </g>
               <g id="resetDef">
                       <use xlink:href="#rim2" fill="#404040">
                               <set attributeName="fill" to="#808080" begin="reset.mouseover" end="reset.mouseout"/>
                       </use>
               </g>
        </defs>

<script type="text/javascript">
var viewWidth = 594;
var viewHeight = 110;
var sectionId = 'dynsection-6';
</script>
<script xlink:href="svgpan.js"/>
<svg id="graph" class="graph">
<g id="viewport">
<title>pahm_vortex::getusequadrantvr</title>
<polygon fill="white" stroke="transparent" points="-4,4 -4,-106 590,-106 590,4 -4,4"/>
<!-- Node1 -->
<g id="node1" class="node">
<title>Node1</title>
<g id="a_node1"><a xlink:title=" ">
<polygon fill="#bfbfbf" stroke="black" points="401,-40.5 401,-61.5 586,-61.5 586,-40.5 401,-40.5"/>
<text text-anchor="middle" x="493.5" y="-47.9" font-family="Helvetica,sans-Serif" font-size="12.00">pahm_vortex::getusequadrantvr</text>
</a>
</g>
</g>
<!-- Node2 -->
<g id="node2" class="node">
<title>Node2</title>
<g id="a_node2"><a xlink:href="namespacepahm__vortex.html#a758504d51e519dac32d8146e79fccd2c" target="_top" xlink:title=" ">
<polygon fill="white" stroke="black" points="216,-80.5 216,-101.5 353,-101.5 353,-80.5 216,-80.5"/>
<text text-anchor="middle" x="284.5" y="-87.9" font-family="Helvetica,sans-Serif" font-size="12.00">pahm_vortex::vhnocori</text>
</a>
</g>
</g>
<!-- Node1&#45;&gt;Node2 -->
<g id="edge1" class="edge">
<title>Node1&#45;&gt;Node2</title>
<path fill="none" stroke="midnightblue" d="M427.93,-63.48C399.67,-68.94 366.87,-75.28 339.88,-80.49"/>
<polygon fill="midnightblue" stroke="midnightblue" points="428.96,-66.84 438.11,-61.51 427.63,-59.97 428.96,-66.84"/>
</g>
<!-- Node4 -->
<g id="node4" class="node">
<title>Node4</title>
<g id="a_node4"><a xlink:href="namespacepahm__vortex.html#a1e9c82cf5fb1c37ebd0629060e93d5fa" target="_top" xlink:title="External function f(x) = 0 for which a root is sought using Brent&#39;s root&#45;finding method.">
<polygon fill="white" stroke="black" points="211.5,-40.5 211.5,-61.5 357.5,-61.5 357.5,-40.5 211.5,-40.5"/>
<text text-anchor="middle" x="284.5" y="-47.9" font-family="Helvetica,sans-Serif" font-size="12.00">pahm_vortex::vhwithcori</text>
</a>
</g>
</g>
<!-- Node1&#45;&gt;Node4 -->
<g id="edge3" class="edge">
<title>Node1&#45;&gt;Node4</title>
<path fill="none" stroke="midnightblue" d="M390.58,-51C379.42,-51 368.24,-51 357.55,-51"/>
<polygon fill="midnightblue" stroke="midnightblue" points="390.8,-54.5 400.8,-51 390.8,-47.5 390.8,-54.5"/>
</g>
<!-- Node5 -->
<g id="node5" class="node">
<title>Node5</title>
<g id="a_node5"><a xlink:href="namespacepahm__vortex.html#a01b29cf3c18d04fb55a502f42f51af39" target="_top" xlink:title="External function f(x) = 0 for which a root is sought using Brent&#39;s root&#45;finding method.">
<polygon fill="white" stroke="black" points="204,-0.5 204,-21.5 365,-21.5 365,-0.5 204,-0.5"/>
<text text-anchor="middle" x="284.5" y="-7.9" font-family="Helvetica,sans-Serif" font-size="12.00">pahm_vortex::vhwithcorifull</text>
</a>
</g>
</g>
<!-- Node1&#45;&gt;Node5 -->
<g id="edge5" class="edge">
<title>Node1&#45;&gt;Node5</title>
<path fill="none" stroke="midnightblue" d="M427.93,-38.52C399.67,-33.06 366.87,-26.72 339.88,-21.51"/>
<polygon fill="midnightblue" stroke="midnightblue" points="427.63,-42.03 438.11,-40.49 428.96,-35.16 427.63,-42.03"/>
</g>
<!-- Node3 -->
<g id="node3" class="node">
<title>Node3</title>
<g id="a_node3"><a xlink:href="namespacepahm__vortex.html#a580543eed13ec39a2d21135376a5f72a" target="_top" xlink:title="Calculate the radius of maximum winds for all storm quadrants.">
<polygon fill="white" stroke="black" points="8,-60.5 8,-81.5 160,-81.5 160,-60.5 8,-60.5"/>
<text text-anchor="middle" x="84" y="-67.9" font-family="Helvetica,sans-Serif" font-size="12.00">pahm_vortex::calcrmaxes</text>
</a>
</g>
</g>
<!-- Node2&#45;&gt;Node3 -->
<g id="edge2" class="edge">
<title>Node2&#45;&gt;Node3</title>
<path fill="none" stroke="midnightblue" d="M205.56,-83.15C190.66,-81.65 175.09,-80.08 160.28,-78.59"/>
<polygon fill="midnightblue" stroke="midnightblue" points="205.44,-86.65 215.74,-84.17 206.14,-79.69 205.44,-86.65"/>
</g>
<!-- Node4&#45;&gt;Node3 -->
<g id="edge4" class="edge">
<title>Node4&#45;&gt;Node3</title>
<path fill="none" stroke="midnightblue" d="M201.02,-59.31C187.49,-60.67 173.52,-62.08 160.17,-63.43"/>
<polygon fill="midnightblue" stroke="midnightblue" points="201.68,-62.76 211.28,-58.28 200.97,-55.8 201.68,-62.76"/>
</g>
<!-- Node6 -->
<g id="node6" class="node">
<title>Node6</title>
<g id="a_node6"><a xlink:href="namespacepahm__vortex.html#a5f7ee771ea7ff74d85f4f431886bbffb" target="_top" xlink:title="Calculate the radius of maximum winds for all storm quadrants. Solving the full gradient wind equatio...">
<polygon fill="white" stroke="black" points="0,-0.5 0,-21.5 168,-21.5 168,-0.5 0,-0.5"/>
<text text-anchor="middle" x="84" y="-7.9" font-family="Helvetica,sans-Serif" font-size="12.00">pahm_vortex::calcrmaxesfull</text>
</a>
</g>
</g>
<!-- Node5&#45;&gt;Node6 -->
<g id="edge6" class="edge">
<title>Node5&#45;&gt;Node6</title>
<path fill="none" stroke="midnightblue" d="M193.63,-11C185.16,-11 176.59,-11 168.18,-11"/>
<polygon fill="midnightblue" stroke="midnightblue" points="193.91,-14.5 203.91,-11 193.91,-7.5 193.91,-14.5"/>
</g>
</g>
</svg>
        <g id="navigator" transform="translate(0 0)" fill="#404254">
                <rect fill="#f2f5e9" fill-opacity="0.5" stroke="#606060" stroke-width=".5" x="0" y="0" width="60" height="60"/>
                <use id="zoomplus" xlink:href="#zoomPlus" x="17" y="9" onmousedown="handleZoom(evt,'in')"/>
                <use id="zoomminus" xlink:href="#zoomMin" x="42" y="9" onmousedown="handleZoom(evt,'out')"/>
                <use id="reset" xlink:href="#resetDef" x="30" y="36" onmousedown="handleReset()"/>
                <g id="arrowUp" xlink:href="#dirArrow" transform="translate(30 24)" onmousedown="handlePan(0,-1)">
                  <use xlink:href="#rim" fill="#404040">
                        <set attributeName="fill" to="#808080" begin="arrowUp.mouseover" end="arrowUp.mouseout"/>
                  </use>
                  <path fill="none" stroke="white" stroke-width="1.5" d="M0,-3.0v7 M-2.5,-0.5L0,-3.0L2.5,-0.5"/>
                </g>
                <g id="arrowRight" xlink:href="#dirArrow" transform="rotate(90) translate(36 -43)" onmousedown="handlePan(1,0)">
                  <use xlink:href="#rim" fill="#404040">
                        <set attributeName="fill" to="#808080" begin="arrowRight.mouseover" end="arrowRight.mouseout"/>
                  </use>
                  <path fill="none" stroke="white" stroke-width="1.5" d="M0,-3.0v7 M-2.5,-0.5L0,-3.0L2.5,-0.5"/>
                </g>
                <g id="arrowDown" xlink:href="#dirArrow" transform="rotate(180) translate(-30 -48)" onmousedown="handlePan(0,1)">
                  <use xlink:href="#rim" fill="#404040">
                        <set attributeName="fill" to="#808080" begin="arrowDown.mouseover" end="arrowDown.mouseout"/>
                  </use>
                  <path fill="none" stroke="white" stroke-width="1.5" d="M0,-3.0v7 M-2.5,-0.5L0,-3.0L2.5,-0.5"/>
                </g>
                <g id="arrowLeft" xlink:href="#dirArrow" transform="rotate(270) translate(-36 17)" onmousedown="handlePan(-1,0)">
                  <use xlink:href="#rim" fill="#404040">
                        <set attributeName="fill" to="#808080" begin="arrowLeft.mouseover" end="arrowLeft.mouseout"/>
                  </use>
                  <path fill="none" stroke="white" stroke-width="1.5" d="M0,-3.0v7 M-2.5,-0.5L0,-3.0L2.5,-0.5"/>
                </g>
        </g>
        <svg viewBox="0 0 15 15" width="100%" height="30px" preserveAspectRatio="xMaxYMin meet">
         <g id="arrow_out" transform="scale(0.3 0.3)">
          <a xlink:href="namespacepahm__vortex_a632207c65211e9337eb3f016f274558d_icgraph_org.svg" target="_base">
           <rect id="button" ry="5" rx="5" y="6" x="6" height="38" width="38"
                fill="#f2f5e9" fill-opacity="0.5" stroke="#606060" stroke-width="1.0"/>
           <path id="arrow"
             d="M 11.500037,31.436501 C 11.940474,20.09759 22.043105,11.32322 32.158766,21.979434 L 37.068811,17.246167 C 37.068811,17.246167 37.088388,32 37.088388,32 L 22.160133,31.978069 C 22.160133,31.978069 26.997745,27.140456 26.997745,27.140456 C 18.528582,18.264221 13.291696,25.230495 11.500037,31.436501 z"
             style="fill:#404040;"/>
          </a>
         </g>
        </svg>
</svg>
