<?xml version="1.0" encoding="UTF-8" standalone="no"?>
<!DOCTYPE svg PUBLIC "-//W3C//DTD SVG 1.1//EN"
 "http://www.w3.org/Graphics/SVG/1.1/DTD/svg11.dtd">
<!-- Generated by graphviz version 2.42.4 (0)
 -->
<!-- Title: csv_module::tokenize_csv_line Pages: 1 -->
<svg width="444pt" height="43pt"
 viewBox="0.00 0.00 444.00 43.00" xmlns="http://www.w3.org/2000/svg" xmlns:xlink="http://www.w3.org/1999/xlink">
<g id="graph0" class="graph" transform="scale(1 1) rotate(0) translate(4 39)">
<title>csv_module::tokenize_csv_line</title>
<polygon fill="white" stroke="transparent" points="-4,4 -4,-39 440,-39 440,4 -4,4"/>
<!-- Node1 -->
<g id="node1" class="node">
<title>Node1</title>
<g id="a_node1"><a xlink:title="Tokenize a line from a CSV file.">
<polygon fill="#bfbfbf" stroke="black" points="0,-0.5 0,-34.5 131,-34.5 131,-0.5 0,-0.5"/>
<text text-anchor="start" x="8" y="-20.9" font-family="Helvetica,sans-Serif" font-size="12.00">csv_module::tokenize</text>
<text text-anchor="middle" x="65.5" y="-7.9" font-family="Helvetica,sans-Serif" font-size="12.00">_csv_line</text>
</a>
</g>
</g>
<!-- Node2 -->
<g id="node2" class="node">
<title>Node2</title>
<g id="a_node2"><a xlink:href="namespacecsv__module.html#a93688c838159ffaf313d24b71dff1c2b" target="_top" xlink:title="Splits a character string using a token.">
<polygon fill="white" stroke="black" points="167,-7 167,-28 276,-28 276,-7 167,-7"/>
<text text-anchor="middle" x="221.5" y="-14.4" font-family="Helvetica,sans-Serif" font-size="12.00">csv_module::split</text>
</a>
</g>
</g>
<!-- Node1&#45;&gt;Node2 -->
<g id="edge1" class="edge">
<title>Node1&#45;&gt;Node2</title>
<path fill="none" stroke="midnightblue" d="M131.36,-17.5C139.78,-17.5 148.39,-17.5 156.79,-17.5"/>
<polygon fill="midnightblue" stroke="midnightblue" points="156.9,-21 166.89,-17.5 156.89,-14 156.9,-21"/>
</g>
<!-- Node3 -->
<g id="node3" class="node">
<title>Node3</title>
<g id="a_node3"><a xlink:href="namespacecsv__utilities.html#a6e82721fc2fc96ab10ca4a32547e1c88" target="_top" xlink:title="Add elements to the integer vector in chunks.">
<polygon fill="white" stroke="black" points="312,-0.5 312,-34.5 436,-34.5 436,-0.5 312,-0.5"/>
<text text-anchor="start" x="320" y="-20.9" font-family="Helvetica,sans-Serif" font-size="12.00">csv_utilities::expand</text>
<text text-anchor="middle" x="374" y="-7.9" font-family="Helvetica,sans-Serif" font-size="12.00">_vector</text>
</a>
</g>
</g>
<!-- Node2&#45;&gt;Node3 -->
<g id="edge2" class="edge">
<title>Node2&#45;&gt;Node3</title>
<path fill="none" stroke="midnightblue" d="M276.41,-17.5C284.56,-17.5 293.08,-17.5 301.54,-17.5"/>
<polygon fill="midnightblue" stroke="midnightblue" points="301.79,-21 311.79,-17.5 301.79,-14 301.79,-21"/>
</g>
</g>
</svg>
