<?xml version="1.0" encoding="UTF-8" standalone="no"?>
<!DOCTYPE svg PUBLIC "-//W3C//DTD SVG 1.1//EN"
 "http://www.w3.org/Graphics/SVG/1.1/DTD/svg11.dtd">
<!-- Generated by graphviz version 2.42.4 (0)
 -->
<!-- Title: pahm_vortex::rotate Pages: 1 -->
<svg width="744pt" height="70pt"
 viewBox="0.00 0.00 744.00 70.00" xmlns="http://www.w3.org/2000/svg" xmlns:xlink="http://www.w3.org/1999/xlink">
<g id="graph0" class="graph" transform="scale(1 1) rotate(0) translate(4 66)">
<title>pahm_vortex::rotate</title>
<polygon fill="white" stroke="transparent" points="-4,4 -4,-66 740,-66 740,4 -4,4"/>
<!-- Node1 -->
<g id="node1" class="node">
<title>Node1</title>
<g id="a_node1"><a xlink:title="Rotate a 2D vector (x, y) by an angle.">
<polygon fill="#bfbfbf" stroke="black" points="614,-20.5 614,-41.5 736,-41.5 736,-20.5 614,-20.5"/>
<text text-anchor="middle" x="675" y="-27.9" font-family="Helvetica,sans-Serif" font-size="12.00">pahm_vortex::rotate</text>
</a>
</g>
</g>
<!-- Node2 -->
<g id="node2" class="node">
<title>Node2</title>
<g id="a_node2"><a xlink:href="namespacepahm__vortex.html#aab234ce6758e2aa3ce44a3ff0f19c1f6" target="_top" xlink:title="Calculates (u, v) wind components and surface pressure from an asymmetric hurricane wind model.">
<polygon fill="white" stroke="black" points="465,-40.5 465,-61.5 576,-61.5 576,-40.5 465,-40.5"/>
<text text-anchor="middle" x="520.5" y="-47.9" font-family="Helvetica,sans-Serif" font-size="12.00">pahm_vortex::uvp</text>
</a>
</g>
</g>
<!-- Node1&#45;&gt;Node2 -->
<g id="edge1" class="edge">
<title>Node1&#45;&gt;Node2</title>
<path fill="none" stroke="midnightblue" d="M603.81,-40.21C594.61,-41.41 585.28,-42.64 576.38,-43.8"/>
<polygon fill="midnightblue" stroke="midnightblue" points="604.27,-43.68 613.73,-38.9 603.36,-36.73 604.27,-43.68"/>
</g>
<!-- Node3 -->
<g id="node3" class="node">
<title>Node3</title>
<g id="a_node3"><a xlink:href="namespacepahm__vortex.html#aa42dc3ab759309e12cbb96f3eb1357c4" target="_top" xlink:title="Calculates (u, v) wind components and surface pressure from an asymmetric hurricane wind model.">
<polygon fill="white" stroke="black" points="463,-0.5 463,-21.5 578,-21.5 578,-0.5 463,-0.5"/>
<text text-anchor="middle" x="520.5" y="-7.9" font-family="Helvetica,sans-Serif" font-size="12.00">pahm_vortex::uvpr</text>
</a>
</g>
</g>
<!-- Node1&#45;&gt;Node3 -->
<g id="edge2" class="edge">
<title>Node1&#45;&gt;Node3</title>
<path fill="none" stroke="midnightblue" d="M603.8,-21.79C595.27,-20.68 586.65,-19.54 578.35,-18.46"/>
<polygon fill="midnightblue" stroke="midnightblue" points="603.36,-25.27 613.73,-23.1 604.27,-18.32 603.36,-25.27"/>
</g>
<!-- Node4 -->
<g id="node4" class="node">
<title>Node4</title>
<g id="a_node4"><a xlink:href="namespaceparwind.html#ad79f0c20f27839cc6d7f50d7d1698b7c" target="_top" xlink:title="Calculates wind velocities and MSL pressures at the mesh nodes from the GAHM Wind model.">
<polygon fill="white" stroke="black" points="286,-0.5 286,-21.5 427,-21.5 427,-0.5 286,-0.5"/>
<text text-anchor="middle" x="356.5" y="-7.9" font-family="Helvetica,sans-Serif" font-size="12.00">parwind::getgahmfields</text>
</a>
</g>
</g>
<!-- Node3&#45;&gt;Node4 -->
<g id="edge3" class="edge">
<title>Node3&#45;&gt;Node4</title>
<path fill="none" stroke="midnightblue" d="M452.72,-11C444.31,-11 435.69,-11 427.24,-11"/>
<polygon fill="midnightblue" stroke="midnightblue" points="452.84,-14.5 462.84,-11 452.84,-7.5 452.84,-14.5"/>
</g>
<!-- Node5 -->
<g id="node5" class="node">
<title>Node5</title>
<g id="a_node5"><a xlink:href="namespacepahm__drivermod.html#a7ae4571521a5bb4eb55990dd7fb76237" target="_top" xlink:title="Subroutine to run PaHM (timestepping).">
<polygon fill="white" stroke="black" points="83,-0.5 83,-21.5 250,-21.5 250,-0.5 83,-0.5"/>
<text text-anchor="middle" x="166.5" y="-7.9" font-family="Helvetica,sans-Serif" font-size="12.00">pahm_drivermod::pahm_run</text>
</a>
</g>
</g>
<!-- Node4&#45;&gt;Node5 -->
<g id="edge4" class="edge">
<title>Node4&#45;&gt;Node5</title>
<path fill="none" stroke="midnightblue" d="M275.59,-11C267.17,-11 258.6,-11 250.15,-11"/>
<polygon fill="midnightblue" stroke="midnightblue" points="275.76,-14.5 285.76,-11 275.76,-7.5 275.76,-14.5"/>
</g>
<!-- Node6 -->
<g id="node6" class="node">
<title>Node6</title>
<g id="a_node6"><a xlink:href="pahm_8F90.html#a3d3918f5c5f1ac0a7991a7a78f530f30" target="_top" xlink:title=" ">
<polygon fill="white" stroke="black" points="0,-0.5 0,-21.5 47,-21.5 47,-0.5 0,-0.5"/>
<text text-anchor="middle" x="23.5" y="-7.9" font-family="Helvetica,sans-Serif" font-size="12.00">pahm</text>
</a>
</g>
</g>
<!-- Node5&#45;&gt;Node6 -->
<g id="edge5" class="edge">
<title>Node5&#45;&gt;Node6</title>
<path fill="none" stroke="midnightblue" d="M72.41,-11C63.14,-11 54.45,-11 47.08,-11"/>
<polygon fill="midnightblue" stroke="midnightblue" points="72.66,-14.5 82.66,-11 72.66,-7.5 72.66,-14.5"/>
</g>
</g>
</svg>
