<?xml version="1.0" encoding="UTF-8" standalone="no"?>
<!DOCTYPE svg PUBLIC "-//W3C//DTD SVG 1.1//EN"
 "http://www.w3.org/Graphics/SVG/1.1/DTD/svg11.dtd">
<!-- Generated by graphviz version 2.42.4 (0)
 -->
<!-- Title: utilities::getlinerecord Pages: 1 -->
<svg width="1017pt" height="109pt"
 viewBox="0.00 0.00 1017.00 109.00" xmlns="http://www.w3.org/2000/svg" xmlns:xlink="http://www.w3.org/1999/xlink">
<g id="graph0" class="graph" transform="scale(1 1) rotate(0) translate(4 105)">
<title>utilities::getlinerecord</title>
<polygon fill="white" stroke="transparent" points="-4,4 -4,-105 1013,-105 1013,4 -4,4"/>
<!-- Node1 -->
<g id="node1" class="node">
<title>Node1</title>
<g id="a_node1"><a xlink:title="Gets a line from a file.">
<polygon fill="#bfbfbf" stroke="black" points="879,-39.5 879,-60.5 1009,-60.5 1009,-39.5 879,-39.5"/>
<text text-anchor="middle" x="944" y="-46.9" font-family="Helvetica,sans-Serif" font-size="12.00">utilities::getlinerecord</text>
</a>
</g>
</g>
<!-- Node2 -->
<g id="node2" class="node">
<title>Node2</title>
<g id="a_node2"><a xlink:href="namespaceutilities.html#ab30d13ba0fcebcb933a30be2237ec162" target="_top" xlink:title="This function parses lines of text from input script/control files.">
<polygon fill="white" stroke="black" points="733,-78.5 733,-99.5 843,-99.5 843,-78.5 733,-78.5"/>
<text text-anchor="middle" x="788" y="-85.9" font-family="Helvetica,sans-Serif" font-size="12.00">utilities::parseline</text>
</a>
</g>
</g>
<!-- Node1&#45;&gt;Node2 -->
<g id="edge1" class="edge">
<title>Node1&#45;&gt;Node2</title>
<path fill="none" stroke="midnightblue" d="M891.55,-63.03C871.77,-68.04 849.46,-73.69 830.71,-78.44"/>
<polygon fill="midnightblue" stroke="midnightblue" points="892.49,-66.4 901.33,-60.55 890.77,-59.62 892.49,-66.4"/>
</g>
<!-- Node7 -->
<g id="node7" class="node">
<title>Node7</title>
<g id="a_node7"><a xlink:href="namespaceparwind.html#abae6c098afd2135918a478b6b7b20673" target="_top" xlink:title="Subroutine to read all a&#45;deck/b&#45;deck best track files (ATCF format).">
<polygon fill="white" stroke="black" points="542,-39.5 542,-60.5 697,-60.5 697,-39.5 542,-39.5"/>
<text text-anchor="middle" x="619.5" y="-46.9" font-family="Helvetica,sans-Serif" font-size="12.00">parwind::readbesttrackfile</text>
</a>
</g>
</g>
<!-- Node1&#45;&gt;Node7 -->
<g id="edge6" class="edge">
<title>Node1&#45;&gt;Node7</title>
<path fill="none" stroke="midnightblue" d="M868.86,-50C817.46,-50 749.21,-50 697.26,-50"/>
<polygon fill="midnightblue" stroke="midnightblue" points="868.9,-53.5 878.9,-50 868.9,-46.5 868.9,-53.5"/>
</g>
<!-- Node8 -->
<g id="node8" class="node">
<title>Node8</title>
<g id="a_node8"><a xlink:href="namespaceparwind.html#a75c722a5d8fdb18014543923d7e4dcca" target="_top" xlink:title="Subroutine to read all a&#45;deck/b&#45;deck best track files (ATCF format).">
<polygon fill="white" stroke="black" points="308.5,-0.5 308.5,-21.5 481.5,-21.5 481.5,-0.5 308.5,-0.5"/>
<text text-anchor="middle" x="395" y="-7.9" font-family="Helvetica,sans-Serif" font-size="12.00">parwind::readcsvbesttrackfile</text>
</a>
</g>
</g>
<!-- Node1&#45;&gt;Node8 -->
<g id="edge8" class="edge">
<title>Node1&#45;&gt;Node8</title>
<path fill="none" stroke="midnightblue" d="M868.64,-43.6C819.86,-39.49 754.66,-34.16 697,-30 624.41,-24.76 541.91,-19.61 481.66,-15.99"/>
<polygon fill="midnightblue" stroke="midnightblue" points="868.54,-47.11 878.8,-44.46 869.13,-40.13 868.54,-47.11"/>
</g>
<!-- Node3 -->
<g id="node3" class="node">
<title>Node3</title>
<g id="a_node3"><a xlink:href="namespaceutilities.html#ab095172ef12ae151ab5c9aacf82f4dc6" target="_top" xlink:title="This subroutine reads the program&#39;s main control file.">
<polygon fill="white" stroke="black" points="551.5,-79.5 551.5,-100.5 687.5,-100.5 687.5,-79.5 551.5,-79.5"/>
<text text-anchor="middle" x="619.5" y="-86.9" font-family="Helvetica,sans-Serif" font-size="12.00">utilities::readcontrolfile</text>
</a>
</g>
</g>
<!-- Node2&#45;&gt;Node3 -->
<g id="edge2" class="edge">
<title>Node2&#45;&gt;Node3</title>
<path fill="none" stroke="midnightblue" d="M722.6,-89.39C711.16,-89.46 699.21,-89.53 687.69,-89.6"/>
<polygon fill="midnightblue" stroke="midnightblue" points="722.96,-92.88 732.94,-89.32 722.92,-85.88 722.96,-92.88"/>
</g>
<!-- Node4 -->
<g id="node4" class="node">
<title>Node4</title>
<g id="a_node4"><a xlink:href="namespacepahm__drivermod.html#a3294ddc68b72ff9220010a8764a8afe3" target="_top" xlink:title="Prints on the screen the help system of the PaHM program.">
<polygon fill="white" stroke="black" points="284,-78.5 284,-99.5 506,-99.5 506,-78.5 284,-78.5"/>
<text text-anchor="middle" x="395" y="-85.9" font-family="Helvetica,sans-Serif" font-size="12.00">pahm_drivermod::getprogramcmdlargs</text>
</a>
</g>
</g>
<!-- Node3&#45;&gt;Node4 -->
<g id="edge3" class="edge">
<title>Node3&#45;&gt;Node4</title>
<path fill="none" stroke="midnightblue" d="M541.19,-89.65C529.85,-89.6 517.98,-89.55 506.14,-89.5"/>
<polygon fill="midnightblue" stroke="midnightblue" points="541.43,-93.15 551.44,-89.7 541.46,-86.15 541.43,-93.15"/>
</g>
<!-- Node5 -->
<g id="node5" class="node">
<title>Node5</title>
<g id="a_node5"><a xlink:href="namespacepahm__drivermod.html#ae0d4b223a96ba116b38152caf6b0768c" target="_top" xlink:title="Subroutine to initialize a PaHM run.">
<polygon fill="white" stroke="black" points="83,-39.5 83,-60.5 248,-60.5 248,-39.5 83,-39.5"/>
<text text-anchor="middle" x="165.5" y="-46.9" font-family="Helvetica,sans-Serif" font-size="12.00">pahm_drivermod::pahm_init</text>
</a>
</g>
</g>
<!-- Node4&#45;&gt;Node5 -->
<g id="edge4" class="edge">
<title>Node4&#45;&gt;Node5</title>
<path fill="none" stroke="midnightblue" d="M322.62,-76.76C292.21,-71.55 257.09,-65.53 227.87,-60.52"/>
<polygon fill="midnightblue" stroke="midnightblue" points="322.29,-80.26 332.73,-78.5 323.47,-73.36 322.29,-80.26"/>
</g>
<!-- Node6 -->
<g id="node6" class="node">
<title>Node6</title>
<g id="a_node6"><a xlink:href="pahm_8F90.html#a3d3918f5c5f1ac0a7991a7a78f530f30" target="_top" xlink:title=" ">
<polygon fill="white" stroke="black" points="0,-39.5 0,-60.5 47,-60.5 47,-39.5 0,-39.5"/>
<text text-anchor="middle" x="23.5" y="-46.9" font-family="Helvetica,sans-Serif" font-size="12.00">pahm</text>
</a>
</g>
</g>
<!-- Node5&#45;&gt;Node6 -->
<g id="edge5" class="edge">
<title>Node5&#45;&gt;Node6</title>
<path fill="none" stroke="midnightblue" d="M72.42,-50C63.15,-50 54.47,-50 47.1,-50"/>
<polygon fill="midnightblue" stroke="midnightblue" points="72.66,-53.5 82.66,-50 72.66,-46.5 72.66,-53.5"/>
</g>
<!-- Node7&#45;&gt;Node5 -->
<g id="edge7" class="edge">
<title>Node7&#45;&gt;Node5</title>
<path fill="none" stroke="midnightblue" d="M531.8,-50C449.99,-50 328.25,-50 248.14,-50"/>
<polygon fill="midnightblue" stroke="midnightblue" points="531.82,-53.5 541.82,-50 531.82,-46.5 531.82,-53.5"/>
</g>
<!-- Node8&#45;&gt;Node5 -->
<g id="edge9" class="edge">
<title>Node8&#45;&gt;Node5</title>
<path fill="none" stroke="midnightblue" d="M322.62,-23.24C292.21,-28.45 257.09,-34.47 227.87,-39.48"/>
<polygon fill="midnightblue" stroke="midnightblue" points="323.47,-26.64 332.73,-21.5 322.29,-19.74 323.47,-26.64"/>
</g>
</g>
</svg>
