<?xml version="1.0" encoding="UTF-8" standalone="no"?>
<!DOCTYPE svg PUBLIC "-//W3C//DTD SVG 1.1//EN"
 "http://www.w3.org/Graphics/SVG/1.1/DTD/svg11.dtd">
<!-- Generated by graphviz version 2.42.4 (0)
 -->
<!-- Title: csv_module::read_line_from_file Pages: 1 -->
<svg width="409pt" height="70pt"
 viewBox="0.00 0.00 409.00 70.00" xmlns="http://www.w3.org/2000/svg" xmlns:xlink="http://www.w3.org/1999/xlink">
<g id="graph0" class="graph" transform="scale(1 1) rotate(0) translate(4 66)">
<title>csv_module::read_line_from_file</title>
<polygon fill="white" stroke="transparent" points="-4,4 -4,-66 405,-66 405,4 -4,4"/>
<!-- Node1 -->
<g id="node1" class="node">
<title>Node1</title>
<g id="a_node1"><a xlink:title="Reads the next line from a file.">
<polygon fill="#bfbfbf" stroke="black" points="0,-14 0,-48 137,-48 137,-14 0,-14"/>
<text text-anchor="start" x="8" y="-34.4" font-family="Helvetica,sans-Serif" font-size="12.00">csv_module::read_line</text>
<text text-anchor="middle" x="68.5" y="-21.4" font-family="Helvetica,sans-Serif" font-size="12.00">_from_file</text>
</a>
</g>
</g>
<!-- Node2 -->
<g id="node2" class="node">
<title>Node2</title>
<g id="a_node2"><a xlink:href="namespacepahm__messages.html#acf0c696cc1604842ee84a5df6d81179c" target="_top" xlink:title="Sets the name of the subroutine that is writing log and/or screen messages.">
<polygon fill="white" stroke="black" points="179.5,-40.5 179.5,-61.5 394.5,-61.5 394.5,-40.5 179.5,-40.5"/>
<text text-anchor="middle" x="287" y="-47.9" font-family="Helvetica,sans-Serif" font-size="12.00">pahm_messages::setmessagesource</text>
</a>
</g>
</g>
<!-- Node1&#45;&gt;Node2 -->
<g id="edge1" class="edge">
<title>Node1&#45;&gt;Node2</title>
<path fill="none" stroke="midnightblue" d="M137.11,-37.25C147.37,-38.19 158.2,-39.19 169.15,-40.21"/>
<polygon fill="midnightblue" stroke="midnightblue" points="168.94,-43.7 179.22,-41.14 169.58,-36.73 168.94,-43.7"/>
</g>
<!-- Node3 -->
<g id="node3" class="node">
<title>Node3</title>
<g id="a_node3"><a xlink:href="namespacepahm__messages.html#ad35e9f2327aad65d4c669e3d886f54dc" target="_top" xlink:title="Removes the name of the subroutine that is no longer active.">
<polygon fill="white" stroke="black" points="173,-0.5 173,-21.5 401,-21.5 401,-0.5 173,-0.5"/>
<text text-anchor="middle" x="287" y="-7.9" font-family="Helvetica,sans-Serif" font-size="12.00">pahm_messages::unsetmessagesource</text>
</a>
</g>
</g>
<!-- Node1&#45;&gt;Node3 -->
<g id="edge2" class="edge">
<title>Node1&#45;&gt;Node3</title>
<path fill="none" stroke="midnightblue" d="M137.11,-24.75C145.4,-23.99 154.07,-23.19 162.87,-22.37"/>
<polygon fill="midnightblue" stroke="midnightblue" points="163.21,-25.86 172.85,-21.45 162.57,-18.89 163.21,-25.86"/>
</g>
</g>
</svg>
