<?xml version="1.0" encoding="UTF-8" standalone="no"?>
<!DOCTYPE svg PUBLIC "-//W3C//DTD SVG 1.1//EN"
 "http://www.w3.org/Graphics/SVG/1.1/DTD/svg11.dtd">
<!-- Generated by graphviz version 2.42.4 (0)
 -->
<!-- Title: parwind::gethollandfields Pages: 1 -->
<svg width="864pt" height="230pt"
 viewBox="0.00 0.00 864.00 230.00" xmlns="http://www.w3.org/2000/svg" xmlns:xlink="http://www.w3.org/1999/xlink">
<g id="graph0" class="graph" transform="scale(1 1) rotate(0) translate(4 226)">
<title>parwind::gethollandfields</title>
<polygon fill="white" stroke="transparent" points="-4,4 -4,-226 860,-226 860,4 -4,4"/>
<!-- Node1 -->
<g id="node1" class="node">
<title>Node1</title>
<g id="a_node1"><a xlink:title="Calculates wind velocities and MSL pressures at the mesh nodes from the P&#45;W Holland Wind model.">
<polygon fill="#bfbfbf" stroke="black" points="0,-120.5 0,-141.5 151,-141.5 151,-120.5 0,-120.5"/>
<text text-anchor="middle" x="75.5" y="-127.9" font-family="Helvetica,sans-Serif" font-size="12.00">parwind::gethollandfields</text>
</a>
</g>
</g>
<!-- Node2 -->
<g id="node2" class="node">
<title>Node2</title>
<g id="a_node2"><a xlink:href="namespaceparwind.html#a0ed4ae2d2927c042da5b0f3df42f5ef8" target="_top" xlink:title="Subroutine to deallocate memory of an allocated holland structure.">
<polygon fill="white" stroke="black" points="196,-200.5 196,-221.5 349,-221.5 349,-200.5 196,-200.5"/>
<text text-anchor="middle" x="272.5" y="-207.9" font-family="Helvetica,sans-Serif" font-size="12.00">parwind::deallochollstruct</text>
</a>
</g>
</g>
<!-- Node1&#45;&gt;Node2 -->
<g id="edge1" class="edge">
<title>Node1&#45;&gt;Node2</title>
<path fill="none" stroke="midnightblue" d="M92.69,-141.58C113.66,-154.86 151.72,-177.52 187,-191 193.43,-193.46 200.26,-195.68 207.14,-197.66"/>
<polygon fill="midnightblue" stroke="midnightblue" points="206.64,-201.15 217.21,-200.4 208.48,-194.4 206.64,-201.15"/>
</g>
<!-- Node3 -->
<g id="node3" class="node">
<title>Node3</title>
<g id="a_node3"><a xlink:href="namespaceutilities.html#a35b859c005e3b9cc063bdc46a1675159" target="_top" xlink:title="Calculates the location of a value in an 1D array of values.">
<polygon fill="white" stroke="black" points="204.5,-160.5 204.5,-181.5 340.5,-181.5 340.5,-160.5 204.5,-160.5"/>
<text text-anchor="middle" x="272.5" y="-167.9" font-family="Helvetica,sans-Serif" font-size="12.00">utilities::getlocandratio</text>
</a>
</g>
</g>
<!-- Node1&#45;&gt;Node3 -->
<g id="edge2" class="edge">
<title>Node1&#45;&gt;Node3</title>
<path fill="none" stroke="midnightblue" d="M127.73,-141.51C153.05,-146.7 183.78,-153.01 210.32,-158.45"/>
<polygon fill="midnightblue" stroke="midnightblue" points="209.77,-161.91 220.27,-160.49 211.18,-155.05 209.77,-161.91"/>
</g>
<!-- Node4 -->
<g id="node4" class="node">
<title>Node4</title>
<g id="a_node4"><a xlink:href="namespacetimedateutils.html#abc63ac16baec18b6c9bb2ee6e0400a63" target="_top" xlink:title="Determines the Julian date from a Gregorian date.">
<polygon fill="white" stroke="black" points="195,-120.5 195,-141.5 350,-141.5 350,-120.5 195,-120.5"/>
<text text-anchor="middle" x="272.5" y="-127.9" font-family="Helvetica,sans-Serif" font-size="12.00">timedateutils::juldaytogreg</text>
</a>
</g>
</g>
<!-- Node1&#45;&gt;Node4 -->
<g id="edge3" class="edge">
<title>Node1&#45;&gt;Node4</title>
<path fill="none" stroke="midnightblue" d="M151.06,-131C162,-131 173.36,-131 184.53,-131"/>
<polygon fill="midnightblue" stroke="midnightblue" points="184.72,-134.5 194.72,-131 184.72,-127.5 184.72,-134.5"/>
</g>
<!-- Node5 -->
<g id="node5" class="node">
<title>Node5</title>
<g id="a_node5"><a xlink:href="namespaceparwind.html#a6efcf8be68b268f0a6d92ceb5f8c6f41" target="_top" xlink:title="Subroutine to support the Holland model (GetHolland). Gets the next line from the file,...">
<polygon fill="white" stroke="black" points="187,-80.5 187,-101.5 358,-101.5 358,-80.5 187,-80.5"/>
<text text-anchor="middle" x="272.5" y="-87.9" font-family="Helvetica,sans-Serif" font-size="12.00">parwind::processhollanddata</text>
</a>
</g>
</g>
<!-- Node1&#45;&gt;Node5 -->
<g id="edge4" class="edge">
<title>Node1&#45;&gt;Node5</title>
<path fill="none" stroke="midnightblue" d="M127.73,-120.49C153.05,-115.3 183.78,-108.99 210.32,-103.55"/>
<polygon fill="midnightblue" stroke="midnightblue" points="211.18,-106.95 220.27,-101.51 209.77,-100.09 211.18,-106.95"/>
</g>
<!-- Node13 -->
<g id="node13" class="node">
<title>Node13</title>
<g id="a_node13"><a xlink:href="namespaceutilities.html#a0ef8b9a5f7a0aac72618c3e7b05adf44" target="_top" xlink:title="Calculates the coordinates of an intermediate point between two points along the great circle.">
<polygon fill="white" stroke="black" points="195,-40.5 195,-61.5 350,-61.5 350,-40.5 195,-40.5"/>
<text text-anchor="middle" x="272.5" y="-47.9" font-family="Helvetica,sans-Serif" font-size="12.00">utilities::sphericalfracpoint</text>
</a>
</g>
</g>
<!-- Node1&#45;&gt;Node13 -->
<g id="edge14" class="edge">
<title>Node1&#45;&gt;Node13</title>
<path fill="none" stroke="midnightblue" d="M92.69,-120.42C113.66,-107.14 151.72,-84.48 187,-71 193.43,-68.54 200.26,-66.32 207.14,-64.34"/>
<polygon fill="midnightblue" stroke="midnightblue" points="208.48,-67.6 217.21,-61.6 206.64,-60.85 208.48,-67.6"/>
</g>
<!-- Node6 -->
<g id="node6" class="node">
<title>Node6</title>
<g id="a_node6"><a xlink:href="namespaceparwind.html#a7bbd86c1fc9b715f2dd8c8d340c6964c" target="_top" xlink:title="Subroutine to allocate memory for a holland structure.">
<polygon fill="white" stroke="black" points="423,-160.5 423,-181.5 563,-181.5 563,-160.5 423,-160.5"/>
<text text-anchor="middle" x="493" y="-167.9" font-family="Helvetica,sans-Serif" font-size="12.00">parwind::allochollstruct</text>
</a>
</g>
</g>
<!-- Node5&#45;&gt;Node6 -->
<g id="edge5" class="edge">
<title>Node5&#45;&gt;Node6</title>
<path fill="none" stroke="midnightblue" d="M336.99,-101.54C344.34,-104.05 351.52,-107.16 358,-111 378.57,-123.2 373.24,-139.12 394,-151 399.92,-154.39 406.34,-157.21 412.96,-159.55"/>
<polygon fill="midnightblue" stroke="midnightblue" points="412.17,-162.98 422.76,-162.66 414.28,-156.3 412.17,-162.98"/>
</g>
<!-- Node7 -->
<g id="node7" class="node">
<title>Node7</title>
<g id="a_node7"><a xlink:href="namespacepahm__vortex.html#a2c7cf08c2619746ea1c60556b6487b35" target="_top" xlink:title="This subroutine calculates the intensity time change of a variable using second order mumerical accur...">
<polygon fill="white" stroke="black" points="394,-80.5 394,-101.5 592,-101.5 592,-80.5 394,-80.5"/>
<text text-anchor="middle" x="493" y="-87.9" font-family="Helvetica,sans-Serif" font-size="12.00">pahm_vortex::calcintensitychange</text>
</a>
</g>
</g>
<!-- Node5&#45;&gt;Node7 -->
<g id="edge6" class="edge">
<title>Node5&#45;&gt;Node7</title>
<path fill="none" stroke="midnightblue" d="M358.29,-91C366.65,-91 375.22,-91 383.78,-91"/>
<polygon fill="midnightblue" stroke="midnightblue" points="383.8,-94.5 393.8,-91 383.8,-87.5 383.8,-94.5"/>
</g>
<!-- Node10 -->
<g id="node10" class="node">
<title>Node10</title>
<g id="a_node10"><a xlink:href="namespaceutilities.html#a241eabd46f9d0e4a26adc221570ad79f" target="_top" xlink:title="Find the unique non&#45;blank elements in 1D character array.">
<polygon fill="white" stroke="black" points="433,-40.5 433,-61.5 553,-61.5 553,-40.5 433,-40.5"/>
<text text-anchor="middle" x="493" y="-47.9" font-family="Helvetica,sans-Serif" font-size="12.00">utilities::charunique</text>
</a>
</g>
</g>
<!-- Node5&#45;&gt;Node10 -->
<g id="edge9" class="edge">
<title>Node5&#45;&gt;Node10</title>
<path fill="none" stroke="midnightblue" d="M330.91,-80.49C359.65,-75.23 394.62,-68.83 424.63,-63.33"/>
<polygon fill="midnightblue" stroke="midnightblue" points="425.39,-66.75 434.6,-61.51 424.13,-59.87 425.39,-66.75"/>
</g>
<!-- Node11 -->
<g id="node11" class="node">
<title>Node11</title>
<g id="a_node11"><a xlink:href="namespaceutilities.html#a8dff395c74e87d059dadcf8bacdbfedd" target="_top" xlink:title="Convert a string to upper&#45;case.">
<polygon fill="white" stroke="black" points="430,-0.5 430,-21.5 556,-21.5 556,-0.5 430,-0.5"/>
<text text-anchor="middle" x="493" y="-7.9" font-family="Helvetica,sans-Serif" font-size="12.00">utilities::touppercase</text>
</a>
</g>
</g>
<!-- Node5&#45;&gt;Node11 -->
<g id="edge10" class="edge">
<title>Node5&#45;&gt;Node11</title>
<path fill="none" stroke="midnightblue" d="M336.99,-80.46C344.34,-77.95 351.52,-74.84 358,-71 378.57,-58.8 373.24,-42.88 394,-31 402.02,-26.41 410.95,-22.86 420.06,-20.12"/>
<polygon fill="midnightblue" stroke="midnightblue" points="421.22,-23.44 429.97,-17.46 419.41,-16.68 421.22,-23.44"/>
</g>
<!-- Node12 -->
<g id="node12" class="node">
<title>Node12</title>
<g id="a_node12"><a xlink:href="namespacepahm__vortex.html#a68cd3f6ceb40446c3c0c6d192f8b61bb" target="_top" xlink:title="This subroutine calculates the translational velocity of a moving hurricane using second order mumeri...">
<polygon fill="white" stroke="black" points="427.5,-120.5 427.5,-141.5 558.5,-141.5 558.5,-120.5 427.5,-120.5"/>
<text text-anchor="middle" x="493" y="-127.9" font-family="Helvetica,sans-Serif" font-size="12.00">pahm_vortex::uvtrans</text>
</a>
</g>
</g>
<!-- Node5&#45;&gt;Node12 -->
<g id="edge11" class="edge">
<title>Node5&#45;&gt;Node12</title>
<path fill="none" stroke="midnightblue" d="M330.91,-101.51C359.65,-106.77 394.62,-113.17 424.63,-118.67"/>
<polygon fill="midnightblue" stroke="midnightblue" points="424.13,-122.13 434.6,-120.49 425.39,-115.25 424.13,-122.13"/>
</g>
<!-- Node8 -->
<g id="node8" class="node">
<title>Node8</title>
<g id="a_node8"><a xlink:href="namespacepahm__messages.html#acf0c696cc1604842ee84a5df6d81179c" target="_top" xlink:title="Sets the name of the subroutine that is writing log and/or screen messages.">
<polygon fill="white" stroke="black" points="634.5,-120.5 634.5,-141.5 849.5,-141.5 849.5,-120.5 634.5,-120.5"/>
<text text-anchor="middle" x="742" y="-127.9" font-family="Helvetica,sans-Serif" font-size="12.00">pahm_messages::setmessagesource</text>
</a>
</g>
</g>
<!-- Node7&#45;&gt;Node8 -->
<g id="edge7" class="edge">
<title>Node7&#45;&gt;Node8</title>
<path fill="none" stroke="midnightblue" d="M558.9,-101.51C591.81,-106.84 631.95,-113.34 666.16,-118.88"/>
<polygon fill="midnightblue" stroke="midnightblue" points="665.68,-122.35 676.11,-120.49 666.8,-115.44 665.68,-122.35"/>
</g>
<!-- Node9 -->
<g id="node9" class="node">
<title>Node9</title>
<g id="a_node9"><a xlink:href="namespacepahm__messages.html#ad35e9f2327aad65d4c669e3d886f54dc" target="_top" xlink:title="Removes the name of the subroutine that is no longer active.">
<polygon fill="white" stroke="black" points="628,-80.5 628,-101.5 856,-101.5 856,-80.5 628,-80.5"/>
<text text-anchor="middle" x="742" y="-87.9" font-family="Helvetica,sans-Serif" font-size="12.00">pahm_messages::unsetmessagesource</text>
</a>
</g>
</g>
<!-- Node7&#45;&gt;Node9 -->
<g id="edge8" class="edge">
<title>Node7&#45;&gt;Node9</title>
<path fill="none" stroke="midnightblue" d="M592.33,-91C600.74,-91 609.32,-91 617.89,-91"/>
<polygon fill="midnightblue" stroke="midnightblue" points="617.94,-94.5 627.94,-91 617.94,-87.5 617.94,-94.5"/>
</g>
<!-- Node12&#45;&gt;Node8 -->
<g id="edge12" class="edge">
<title>Node12&#45;&gt;Node8</title>
<path fill="none" stroke="midnightblue" d="M558.57,-131C578.74,-131 601.65,-131 624.26,-131"/>
<polygon fill="midnightblue" stroke="midnightblue" points="624.27,-134.5 634.27,-131 624.27,-127.5 624.27,-134.5"/>
</g>
<!-- Node12&#45;&gt;Node9 -->
<g id="edge13" class="edge">
<title>Node12&#45;&gt;Node9</title>
<path fill="none" stroke="midnightblue" d="M558.57,-120.54C591.49,-115.21 631.7,-108.7 665.98,-103.15"/>
<polygon fill="midnightblue" stroke="midnightblue" points="666.63,-106.59 675.95,-101.54 665.51,-99.68 666.63,-106.59"/>
</g>
</g>
</svg>
