<?xml version="1.0" encoding="UTF-8" standalone="no"?>
<!DOCTYPE svg PUBLIC "-//W3C//DTD SVG 1.1//EN"
 "http://www.w3.org/Graphics/SVG/1.1/DTD/svg11.dtd">
<!-- Generated by graphviz version 2.42.4 (0)
 -->
<!-- Title: pahm_drivermod::pahm_run Pages: 1 -->
<svg width="1179pt" height="625pt"
 viewBox="0.00 0.00 1179.00 624.55" xmlns="http://www.w3.org/2000/svg" xmlns:xlink="http://www.w3.org/1999/xlink">
<g id="graph0" class="graph" transform="scale(1 1) rotate(0) translate(4 620.55)">
<title>pahm_drivermod::pahm_run</title>
<polygon fill="white" stroke="transparent" points="-4,4 -4,-620.55 1175,-620.55 1175,4 -4,4"/>
<!-- Node1 -->
<g id="node1" class="node">
<title>Node1</title>
<g id="a_node1"><a xlink:title="Subroutine to run PaHM (timestepping).">
<polygon fill="#bfbfbf" stroke="black" points="0,-160.05 0,-181.05 167,-181.05 167,-160.05 0,-160.05"/>
<text text-anchor="middle" x="83.5" y="-167.45" font-family="Helvetica,sans-Serif" font-size="12.00">pahm_drivermod::pahm_run</text>
</a>
</g>
</g>
<!-- Node2 -->
<g id="node2" class="node">
<title>Node2</title>
<g id="a_node2"><a xlink:href="namespaceparwind.html#a0f547832ef9dcece74e3d1267557c9e7" target="_top" xlink:title="Calculate wind velocities and MSL pressures at the mesh nodes from the P&#45;W Holland Wind model.">
<polygon fill="white" stroke="black" points="234.5,-495.05 234.5,-516.05 385.5,-516.05 385.5,-495.05 234.5,-495.05"/>
<text text-anchor="middle" x="310" y="-502.45" font-family="Helvetica,sans-Serif" font-size="12.00">parwind::gethollandfields</text>
</a>
</g>
</g>
<!-- Node1&#45;&gt;Node2 -->
<g id="edge1" class="edge">
<title>Node1&#45;&gt;Node2</title>
<path fill="none" stroke="midnightblue" d="M87.51,-181.1C98.3,-217.63 137.91,-340.89 203,-422.55 225.25,-450.46 258.68,-474.61 282.03,-489.55"/>
<polygon fill="midnightblue" stroke="midnightblue" points="280.41,-492.66 290.75,-495 284.12,-486.73 280.41,-492.66"/>
</g>
<!-- Node9 -->
<g id="node9" class="node">
<title>Node9</title>
<g id="a_node9"><a xlink:href="namespacepahm__messages.html#acf0c696cc1604842ee84a5df6d81179c" target="_top" xlink:title="Sets the name of the subroutine that is writing log and/or screen messages.">
<polygon fill="white" stroke="black" points="949.5,-81.05 949.5,-102.05 1164.5,-102.05 1164.5,-81.05 949.5,-81.05"/>
<text text-anchor="middle" x="1057" y="-88.45" font-family="Helvetica,sans-Serif" font-size="12.00">pahm_messages::setmessagesource</text>
</a>
</g>
</g>
<!-- Node1&#45;&gt;Node9 -->
<g id="edge27" class="edge">
<title>Node1&#45;&gt;Node9</title>
<path fill="none" stroke="midnightblue" d="M102.89,-159.89C125.78,-146.94 166.33,-125.04 203,-110.55 310.65,-68 338.91,-57.06 453,-37.55 651.99,-3.52 709.73,19.34 907,-23.55 952.88,-33.52 1001.57,-58.92 1030.35,-75.69"/>
<polygon fill="midnightblue" stroke="midnightblue" points="1028.58,-78.71 1038.97,-80.81 1032.15,-72.69 1028.58,-78.71"/>
</g>
<!-- Node10 -->
<g id="node10" class="node">
<title>Node10</title>
<g id="a_node10"><a xlink:href="namespacepahm__messages.html#ad35e9f2327aad65d4c669e3d886f54dc" target="_top" xlink:title="Removes the name of the subroutine that is no longer active.">
<polygon fill="white" stroke="black" points="943,-201.05 943,-222.05 1171,-222.05 1171,-201.05 943,-201.05"/>
<text text-anchor="middle" x="1057" y="-208.45" font-family="Helvetica,sans-Serif" font-size="12.00">pahm_messages::unsetmessagesource</text>
</a>
</g>
</g>
<!-- Node1&#45;&gt;Node10 -->
<g id="edge28" class="edge">
<title>Node1&#45;&gt;Node10</title>
<path fill="none" stroke="midnightblue" d="M104.2,-181.14C179.72,-220.92 459.05,-360.65 709,-389.55 796.42,-399.65 827.27,-426.78 907,-389.55 978.21,-356.29 1027.4,-270.4 1046.79,-231.37"/>
<polygon fill="midnightblue" stroke="midnightblue" points="1049.97,-232.84 1051.17,-222.31 1043.66,-229.79 1049.97,-232.84"/>
</g>
<!-- Node15 -->
<g id="node15" class="node">
<title>Node15</title>
<g id="a_node15"><a xlink:href="namespacepahm__netcdfio.html#a21917504b7e9d5594375d1a48bb4cb8f" target="_top" xlink:title="Initializes a new NetCDF data file and puts it in define mode. Sets up netCDF dimensions and variable...">
<polygon fill="white" stroke="black" points="203,-160.05 203,-181.05 417,-181.05 417,-160.05 203,-160.05"/>
<text text-anchor="middle" x="310" y="-167.45" font-family="Helvetica,sans-Serif" font-size="12.00">pahm_netcdfio::initadcircnetcdfoutfile</text>
</a>
</g>
</g>
<!-- Node1&#45;&gt;Node15 -->
<g id="edge16" class="edge">
<title>Node1&#45;&gt;Node15</title>
<path fill="none" stroke="midnightblue" d="M167.14,-170.55C175.5,-170.55 184.09,-170.55 192.71,-170.55"/>
<polygon fill="midnightblue" stroke="midnightblue" points="192.84,-174.05 202.84,-170.55 192.84,-167.05 192.84,-174.05"/>
</g>
<!-- Node20 -->
<g id="node20" class="node">
<title>Node20</title>
<g id="a_node20"><a xlink:href="namespacepahm__netcdfio.html#aaf8d794ff0adcfbca0e2d13c8b71162a" target="_top" xlink:title="Writes data to the NetCDF file.">
<polygon fill="white" stroke="black" points="711.5,-81.05 711.5,-102.05 904.5,-102.05 904.5,-81.05 711.5,-81.05"/>
<text text-anchor="middle" x="808" y="-88.45" font-family="Helvetica,sans-Serif" font-size="12.00">pahm_netcdfio::writenetcdfrecord</text>
</a>
</g>
</g>
<!-- Node1&#45;&gt;Node20 -->
<g id="edge29" class="edge">
<title>Node1&#45;&gt;Node20</title>
<path fill="none" stroke="midnightblue" d="M146.29,-160.01C164.55,-156.93 184.57,-153.57 203,-150.55 314.03,-132.29 341.11,-122.47 453,-110.55 536.12,-101.69 630.69,-96.88 701.16,-94.32"/>
<polygon fill="midnightblue" stroke="midnightblue" points="701.51,-97.81 711.38,-93.96 701.26,-90.82 701.51,-97.81"/>
</g>
<!-- Node3 -->
<g id="node3" class="node">
<title>Node3</title>
<g id="a_node3"><a xlink:href="namespaceparwind.html#a0ed4ae2d2927c042da5b0f3df42f5ef8" target="_top" xlink:title="Subroutine to deallocate memory of an allocated holland structure.">
<polygon fill="white" stroke="black" points="486.5,-595.05 486.5,-616.05 639.5,-616.05 639.5,-595.05 486.5,-595.05"/>
<text text-anchor="middle" x="563" y="-602.45" font-family="Helvetica,sans-Serif" font-size="12.00">parwind::deallochollstruct</text>
</a>
</g>
</g>
<!-- Node2&#45;&gt;Node3 -->
<g id="edge2" class="edge">
<title>Node2&#45;&gt;Node3</title>
<path fill="none" stroke="midnightblue" d="M325.94,-516.2C350.97,-533.52 403.51,-567.63 453,-585.55 460.52,-588.27 468.48,-590.63 476.53,-592.69"/>
<polygon fill="midnightblue" stroke="midnightblue" points="475.83,-596.12 486.37,-595.04 477.46,-589.31 475.83,-596.12"/>
</g>
<!-- Node4 -->
<g id="node4" class="node">
<title>Node4</title>
<g id="a_node4"><a xlink:href="namespaceutilities.html#a35b859c005e3b9cc063bdc46a1675159" target="_top" xlink:title="Calculates the location of a value in an 1D array of values.">
<polygon fill="white" stroke="black" points="495,-555.05 495,-576.05 631,-576.05 631,-555.05 495,-555.05"/>
<text text-anchor="middle" x="563" y="-562.45" font-family="Helvetica,sans-Serif" font-size="12.00">utilities::getlocandratio</text>
</a>
</g>
</g>
<!-- Node2&#45;&gt;Node4 -->
<g id="edge3" class="edge">
<title>Node2&#45;&gt;Node4</title>
<path fill="none" stroke="midnightblue" d="M344.91,-516.06C373.54,-524.7 415.7,-536.89 453,-545.55 464.57,-548.23 476.89,-550.78 488.94,-553.11"/>
<polygon fill="midnightblue" stroke="midnightblue" points="488.49,-556.59 498.97,-555.01 489.79,-549.71 488.49,-556.59"/>
</g>
<!-- Node5 -->
<g id="node5" class="node">
<title>Node5</title>
<g id="a_node5"><a xlink:href="namespacetimedateutils.html#abc63ac16baec18b6c9bb2ee6e0400a63" target="_top" xlink:title="Determines the Julian date from a Gregorian date.">
<polygon fill="white" stroke="black" points="485.5,-515.05 485.5,-536.05 640.5,-536.05 640.5,-515.05 485.5,-515.05"/>
<text text-anchor="middle" x="563" y="-522.45" font-family="Helvetica,sans-Serif" font-size="12.00">timedateutils::juldaytogreg</text>
</a>
</g>
</g>
<!-- Node2&#45;&gt;Node5 -->
<g id="edge4" class="edge">
<title>Node2&#45;&gt;Node5</title>
<path fill="none" stroke="midnightblue" d="M385.63,-511.49C413.81,-513.74 446.11,-516.31 475.3,-518.64"/>
<polygon fill="midnightblue" stroke="midnightblue" points="475.24,-522.14 485.49,-519.45 475.79,-515.17 475.24,-522.14"/>
</g>
<!-- Node6 -->
<g id="node6" class="node">
<title>Node6</title>
<g id="a_node6"><a xlink:href="namespaceparwind.html#a6efcf8be68b268f0a6d92ceb5f8c6f41" target="_top" xlink:title="Subroutine to support the Holland model (GetHolland). Gets the next line from the file,...">
<polygon fill="white" stroke="black" points="477.5,-299.05 477.5,-320.05 648.5,-320.05 648.5,-299.05 477.5,-299.05"/>
<text text-anchor="middle" x="563" y="-306.45" font-family="Helvetica,sans-Serif" font-size="12.00">parwind::processhollanddata</text>
</a>
</g>
</g>
<!-- Node2&#45;&gt;Node6 -->
<g id="edge5" class="edge">
<title>Node2&#45;&gt;Node6</title>
<path fill="none" stroke="midnightblue" d="M324.49,-495.01C365.69,-462.84 490.09,-365.7 540.47,-326.36"/>
<polygon fill="midnightblue" stroke="midnightblue" points="542.71,-329.05 548.44,-320.14 538.4,-323.53 542.71,-329.05"/>
</g>
<!-- Node14 -->
<g id="node14" class="node">
<title>Node14</title>
<g id="a_node14"><a xlink:href="namespaceutilities.html#a0ef8b9a5f7a0aac72618c3e7b05adf44" target="_top" xlink:title="Calculates the coordinates of an intermediate point between two points along the great circle.">
<polygon fill="white" stroke="black" points="485.5,-475.05 485.5,-496.05 640.5,-496.05 640.5,-475.05 485.5,-475.05"/>
<text text-anchor="middle" x="563" y="-482.45" font-family="Helvetica,sans-Serif" font-size="12.00">utilities::sphericalfracpoint</text>
</a>
</g>
</g>
<!-- Node2&#45;&gt;Node14 -->
<g id="edge15" class="edge">
<title>Node2&#45;&gt;Node14</title>
<path fill="none" stroke="midnightblue" d="M385.63,-499.6C413.81,-497.35 446.11,-494.78 475.3,-492.45"/>
<polygon fill="midnightblue" stroke="midnightblue" points="475.79,-495.93 485.49,-491.64 475.24,-488.95 475.79,-495.93"/>
</g>
<!-- Node7 -->
<g id="node7" class="node">
<title>Node7</title>
<g id="a_node7"><a xlink:href="namespaceparwind.html#a7bbd86c1fc9b715f2dd8c8d340c6964c" target="_top" xlink:title="Subroutine to allocate memory for a holland structure.">
<polygon fill="white" stroke="black" points="738,-279.05 738,-300.05 878,-300.05 878,-279.05 738,-279.05"/>
<text text-anchor="middle" x="808" y="-286.45" font-family="Helvetica,sans-Serif" font-size="12.00">parwind::allochollstruct</text>
</a>
</g>
</g>
<!-- Node6&#45;&gt;Node7 -->
<g id="edge6" class="edge">
<title>Node6&#45;&gt;Node7</title>
<path fill="none" stroke="midnightblue" d="M648.65,-302.58C674.29,-300.47 702.35,-298.16 727.63,-296.08"/>
<polygon fill="midnightblue" stroke="midnightblue" points="728.23,-299.54 737.91,-295.23 727.66,-292.56 728.23,-299.54"/>
</g>
<!-- Node8 -->
<g id="node8" class="node">
<title>Node8</title>
<g id="a_node8"><a xlink:href="namespacepahm__vortex.html#a2c7cf08c2619746ea1c60556b6487b35" target="_top" xlink:title="This subroutine calculates the intensity time change of a variable using second order mumerical accur...">
<polygon fill="white" stroke="black" points="709,-201.05 709,-222.05 907,-222.05 907,-201.05 709,-201.05"/>
<text text-anchor="middle" x="808" y="-208.45" font-family="Helvetica,sans-Serif" font-size="12.00">pahm_vortex::calcintensitychange</text>
</a>
</g>
</g>
<!-- Node6&#45;&gt;Node8 -->
<g id="edge7" class="edge">
<title>Node6&#45;&gt;Node8</title>
<path fill="none" stroke="midnightblue" d="M590.47,-298.87C634.4,-281.15 722.42,-245.65 771.63,-225.81"/>
<polygon fill="midnightblue" stroke="midnightblue" points="772.97,-229.04 780.93,-222.06 770.35,-222.55 772.97,-229.04"/>
</g>
<!-- Node11 -->
<g id="node11" class="node">
<title>Node11</title>
<g id="a_node11"><a xlink:href="namespaceutilities.html#a241eabd46f9d0e4a26adc221570ad79f" target="_top" xlink:title="Find the unique non&#45;blank elements in 1D character array.">
<polygon fill="white" stroke="black" points="748,-359.05 748,-380.05 868,-380.05 868,-359.05 748,-359.05"/>
<text text-anchor="middle" x="808" y="-366.45" font-family="Helvetica,sans-Serif" font-size="12.00">utilities::charunique</text>
</a>
</g>
</g>
<!-- Node6&#45;&gt;Node11 -->
<g id="edge10" class="edge">
<title>Node6&#45;&gt;Node11</title>
<path fill="none" stroke="midnightblue" d="M599.58,-320.09C628.83,-328.58 671.42,-340.54 709,-349.55 719.67,-352.1 731.03,-354.61 742.11,-356.95"/>
<polygon fill="midnightblue" stroke="midnightblue" points="741.67,-360.43 752.17,-359.04 743.09,-353.58 741.67,-360.43"/>
</g>
<!-- Node12 -->
<g id="node12" class="node">
<title>Node12</title>
<g id="a_node12"><a xlink:href="namespaceutilities.html#a8dff395c74e87d059dadcf8bacdbfedd" target="_top" xlink:title="Convert a string to upper&#45;case.">
<polygon fill="white" stroke="black" points="745,-319.05 745,-340.05 871,-340.05 871,-319.05 745,-319.05"/>
<text text-anchor="middle" x="808" y="-326.45" font-family="Helvetica,sans-Serif" font-size="12.00">utilities::touppercase</text>
</a>
</g>
</g>
<!-- Node6&#45;&gt;Node12 -->
<g id="edge11" class="edge">
<title>Node6&#45;&gt;Node12</title>
<path fill="none" stroke="midnightblue" d="M648.65,-316.51C676.7,-318.82 707.66,-321.37 734.7,-323.59"/>
<polygon fill="midnightblue" stroke="midnightblue" points="734.6,-327.1 744.85,-324.43 735.18,-320.12 734.6,-327.1"/>
</g>
<!-- Node13 -->
<g id="node13" class="node">
<title>Node13</title>
<g id="a_node13"><a xlink:href="namespacepahm__vortex.html#a68cd3f6ceb40446c3c0c6d192f8b61bb" target="_top" xlink:title="This subroutine calculates the translational velocity of a moving hurricane using second order mumeri...">
<polygon fill="white" stroke="black" points="742.5,-161.05 742.5,-182.05 873.5,-182.05 873.5,-161.05 742.5,-161.05"/>
<text text-anchor="middle" x="808" y="-168.45" font-family="Helvetica,sans-Serif" font-size="12.00">pahm_vortex::uvtrans</text>
</a>
</g>
</g>
<!-- Node6&#45;&gt;Node13 -->
<g id="edge12" class="edge">
<title>Node6&#45;&gt;Node13</title>
<path fill="none" stroke="midnightblue" d="M580.65,-298.98C602.71,-284.65 642.42,-257.71 673,-230.55 690.64,-214.88 688.45,-203.13 709,-191.55 716.34,-187.41 724.42,-184.12 732.69,-181.51"/>
<polygon fill="midnightblue" stroke="midnightblue" points="733.79,-184.84 742.45,-178.74 731.88,-178.1 733.79,-184.84"/>
</g>
<!-- Node8&#45;&gt;Node9 -->
<g id="edge8" class="edge">
<title>Node8&#45;&gt;Node9</title>
<path fill="none" stroke="midnightblue" d="M878.04,-201C887.95,-198.48 897.87,-195.37 907,-191.55 957.31,-170.5 1008.49,-131.48 1035.82,-108.9"/>
<polygon fill="midnightblue" stroke="midnightblue" points="1038.41,-111.3 1043.83,-102.2 1033.91,-105.94 1038.41,-111.3"/>
</g>
<!-- Node8&#45;&gt;Node10 -->
<g id="edge9" class="edge">
<title>Node8&#45;&gt;Node10</title>
<path fill="none" stroke="midnightblue" d="M907.33,-211.55C915.74,-211.55 924.32,-211.55 932.89,-211.55"/>
<polygon fill="midnightblue" stroke="midnightblue" points="932.94,-215.05 942.94,-211.55 932.94,-208.05 932.94,-215.05"/>
</g>
<!-- Node13&#45;&gt;Node9 -->
<g id="edge13" class="edge">
<title>Node13&#45;&gt;Node9</title>
<path fill="none" stroke="midnightblue" d="M869.29,-161.04C881.86,-158.35 894.94,-155.17 907,-151.55 948.27,-139.14 994.01,-119.85 1023.78,-106.5"/>
<polygon fill="midnightblue" stroke="midnightblue" points="1025.57,-109.54 1033.24,-102.23 1022.68,-103.16 1025.57,-109.54"/>
</g>
<!-- Node13&#45;&gt;Node10 -->
<g id="edge14" class="edge">
<title>Node13&#45;&gt;Node10</title>
<path fill="none" stroke="midnightblue" d="M873.57,-182C906.49,-187.33 946.7,-193.84 980.98,-199.4"/>
<polygon fill="midnightblue" stroke="midnightblue" points="980.51,-202.87 990.95,-201.01 981.63,-195.96 980.51,-202.87"/>
</g>
<!-- Node15&#45;&gt;Node9 -->
<g id="edge25" class="edge">
<title>Node15&#45;&gt;Node9</title>
<path fill="none" stroke="midnightblue" d="M330.94,-160.04C406,-121.75 678.92,5.9 907,-35.55 949.75,-43.31 996.19,-62.66 1025.66,-76.44"/>
<polygon fill="midnightblue" stroke="midnightblue" points="1024.45,-79.73 1034.98,-80.87 1027.45,-73.41 1024.45,-79.73"/>
</g>
<!-- Node15&#45;&gt;Node10 -->
<g id="edge26" class="edge">
<title>Node15&#45;&gt;Node10</title>
<path fill="none" stroke="midnightblue" d="M317.12,-181.07C334.44,-209.84 386.82,-290.23 453,-329.55 553.47,-389.23 592.91,-376.12 709,-389.55 796.42,-399.65 827.27,-426.78 907,-389.55 978.21,-356.29 1027.4,-270.4 1046.79,-231.37"/>
<polygon fill="midnightblue" stroke="midnightblue" points="1049.97,-232.84 1051.17,-222.31 1043.66,-229.79 1049.97,-232.84"/>
</g>
<!-- Node16 -->
<g id="node16" class="node">
<title>Node16</title>
<g id="a_node16"><a xlink:href="namespacetimedateutils.html#a565d549493d69e2c9ea5b7af18247df5" target="_top" xlink:title="Constructs a NetCDF time string.">
<polygon fill="white" stroke="black" points="477,-120.05 477,-141.05 649,-141.05 649,-120.05 477,-120.05"/>
<text text-anchor="middle" x="563" y="-127.45" font-family="Helvetica,sans-Serif" font-size="12.00">timedateutils::datetime2string</text>
</a>
</g>
</g>
<!-- Node15&#45;&gt;Node16 -->
<g id="edge17" class="edge">
<title>Node15&#45;&gt;Node16</title>
<path fill="none" stroke="midnightblue" d="M376.95,-160.04C410.39,-154.71 451.19,-148.21 485.95,-142.66"/>
<polygon fill="midnightblue" stroke="midnightblue" points="486.73,-146.08 496.06,-141.05 485.63,-139.17 486.73,-146.08"/>
</g>
<!-- Node17 -->
<g id="node17" class="node">
<title>Node17</title>
<g id="a_node17"><a xlink:href="namespacetimedateutils.html#a6c7acacb9981bb9182378a449e45715b" target="_top" xlink:title="Calculates the conversion factor between time units and seconds.">
<polygon fill="white" stroke="black" points="476,-200.05 476,-221.05 650,-221.05 650,-200.05 476,-200.05"/>
<text text-anchor="middle" x="563" y="-207.45" font-family="Helvetica,sans-Serif" font-size="12.00">timedateutils::gettimeconvsec</text>
</a>
</g>
</g>
<!-- Node15&#45;&gt;Node17 -->
<g id="edge18" class="edge">
<title>Node15&#45;&gt;Node17</title>
<path fill="none" stroke="midnightblue" d="M376.95,-181.05C410.39,-186.39 451.19,-192.89 485.95,-198.43"/>
<polygon fill="midnightblue" stroke="midnightblue" points="485.63,-201.92 496.06,-200.04 486.73,-195.01 485.63,-201.92"/>
</g>
<!-- Node18 -->
<g id="node18" class="node">
<title>Node18</title>
<g id="a_node18"><a xlink:href="namespacepahm__netcdfio.html#a850b1df36d9d2d229b8b03f0558c3703" target="_top" xlink:title="Creates a new NetCDF data file and puts it in define mode.">
<polygon fill="white" stroke="black" points="453,-160.05 453,-181.05 673,-181.05 673,-160.05 453,-160.05"/>
<text text-anchor="middle" x="563" y="-167.45" font-family="Helvetica,sans-Serif" font-size="12.00">pahm_netcdfio::newadcircnetcdfoutfile</text>
</a>
</g>
</g>
<!-- Node15&#45;&gt;Node18 -->
<g id="edge19" class="edge">
<title>Node15&#45;&gt;Node18</title>
<path fill="none" stroke="midnightblue" d="M417.08,-170.55C425.55,-170.55 434.13,-170.55 442.67,-170.55"/>
<polygon fill="midnightblue" stroke="midnightblue" points="442.68,-174.05 452.68,-170.55 442.68,-167.05 442.68,-174.05"/>
</g>
<!-- Node18&#45;&gt;Node9 -->
<g id="edge23" class="edge">
<title>Node18&#45;&gt;Node9</title>
<path fill="none" stroke="midnightblue" d="M657.43,-159.98C662.97,-157.38 668.22,-154.27 673,-150.55 703.43,-126.82 676.55,-92.42 709,-71.55 807.23,-8.36 955.3,-52.16 1021.68,-77.28"/>
<polygon fill="midnightblue" stroke="midnightblue" points="1020.65,-80.64 1031.23,-80.99 1023.18,-74.11 1020.65,-80.64"/>
</g>
<!-- Node18&#45;&gt;Node10 -->
<g id="edge24" class="edge">
<title>Node18&#45;&gt;Node10</title>
<path fill="none" stroke="midnightblue" d="M651.55,-181.13C659.04,-183.65 666.31,-186.75 673,-190.55 694.09,-202.51 686.91,-221.54 709,-231.55 812.01,-278.18 950.13,-245.83 1016.77,-225.14"/>
<polygon fill="midnightblue" stroke="midnightblue" points="1017.99,-228.42 1026.46,-222.06 1015.87,-221.75 1017.99,-228.42"/>
</g>
<!-- Node19 -->
<g id="node19" class="node">
<title>Node19</title>
<g id="a_node19"><a xlink:href="namespacepahm__netcdfio.html#aa0987122588b6ef883046848cfcefe0b" target="_top" xlink:title="Terminates the program on NetCDF error.">
<polygon fill="white" stroke="black" points="716,-121.05 716,-142.05 900,-142.05 900,-121.05 716,-121.05"/>
<text text-anchor="middle" x="808" y="-128.45" font-family="Helvetica,sans-Serif" font-size="12.00">pahm_netcdfio::netcdfterminate</text>
</a>
</g>
</g>
<!-- Node18&#45;&gt;Node19 -->
<g id="edge20" class="edge">
<title>Node18&#45;&gt;Node19</title>
<path fill="none" stroke="midnightblue" d="M629.44,-160.04C660.91,-154.99 698.8,-148.91 731.48,-143.67"/>
<polygon fill="midnightblue" stroke="midnightblue" points="732.12,-147.11 741.44,-142.07 731.02,-140.2 732.12,-147.11"/>
</g>
<!-- Node19&#45;&gt;Node9 -->
<g id="edge21" class="edge">
<title>Node19&#45;&gt;Node9</title>
<path fill="none" stroke="midnightblue" d="M873.9,-121.04C906.81,-115.71 946.95,-109.21 981.16,-103.66"/>
<polygon fill="midnightblue" stroke="midnightblue" points="981.8,-107.11 991.11,-102.05 980.68,-100.2 981.8,-107.11"/>
</g>
<!-- Node19&#45;&gt;Node10 -->
<g id="edge22" class="edge">
<title>Node19&#45;&gt;Node10</title>
<path fill="none" stroke="midnightblue" d="M869.29,-142.05C881.86,-144.74 894.94,-147.92 907,-151.55 948.27,-163.95 994.01,-183.24 1023.78,-196.59"/>
<polygon fill="midnightblue" stroke="midnightblue" points="1022.68,-199.93 1033.24,-200.87 1025.57,-193.55 1022.68,-199.93"/>
</g>
<!-- Node20&#45;&gt;Node9 -->
<g id="edge30" class="edge">
<title>Node20&#45;&gt;Node9</title>
<path fill="none" stroke="midnightblue" d="M904.85,-91.55C916.07,-91.55 927.62,-91.55 939.08,-91.55"/>
<polygon fill="midnightblue" stroke="midnightblue" points="939.13,-95.05 949.13,-91.55 939.13,-88.05 939.13,-95.05"/>
</g>
<!-- Node20&#45;&gt;Node10 -->
<g id="edge31" class="edge">
<title>Node20&#45;&gt;Node10</title>
<path fill="none" stroke="midnightblue" d="M878.04,-102.09C887.95,-104.62 897.87,-107.73 907,-111.55 957.31,-132.59 1008.49,-171.61 1035.82,-194.19"/>
<polygon fill="midnightblue" stroke="midnightblue" points="1033.91,-197.15 1043.83,-200.89 1038.41,-191.79 1033.91,-197.15"/>
</g>
</g>
</svg>
