<?xml version="1.0" encoding="UTF-8" standalone="no"?>
<!DOCTYPE svg PUBLIC "-//W3C//DTD SVG 1.1//EN"
 "http://www.w3.org/Graphics/SVG/1.1/DTD/svg11.dtd">
<!-- Generated by graphviz version 2.42.4 (0)
 -->
<!-- Title: pahm_netcdfio::newadcircnetcdfoutfile Pages: 1 -->
<svg width="712pt" height="79pt"
 viewBox="0.00 0.00 712.00 79.00" xmlns="http://www.w3.org/2000/svg" xmlns:xlink="http://www.w3.org/1999/xlink">
<g id="graph0" class="graph" transform="scale(1 1) rotate(0) translate(4 75)">
<title>pahm_netcdfio::newadcircnetcdfoutfile</title>
<polygon fill="white" stroke="transparent" points="-4,4 -4,-75 708,-75 708,4 -4,4"/>
<!-- Node1 -->
<g id="node1" class="node">
<title>Node1</title>
<g id="a_node1"><a xlink:title="Creates a new NetCDF data file and puts it in define mode.">
<polygon fill="#bfbfbf" stroke="black" points="0,-20.5 0,-41.5 220,-41.5 220,-20.5 0,-20.5"/>
<text text-anchor="middle" x="110" y="-27.9" font-family="Helvetica,sans-Serif" font-size="12.00">pahm_netcdfio::newadcircnetcdfoutfile</text>
</a>
</g>
</g>
<!-- Node2 -->
<g id="node2" class="node">
<title>Node2</title>
<g id="a_node2"><a xlink:href="namespacepahm__netcdfio.html#aa0987122588b6ef883046848cfcefe0b" target="_top" xlink:title="Terminates the program on NetCDF error.">
<polygon fill="white" stroke="black" points="256,-20.5 256,-41.5 440,-41.5 440,-20.5 256,-20.5"/>
<text text-anchor="middle" x="348" y="-27.9" font-family="Helvetica,sans-Serif" font-size="12.00">pahm_netcdfio::netcdfterminate</text>
</a>
</g>
</g>
<!-- Node1&#45;&gt;Node2 -->
<g id="edge1" class="edge">
<title>Node1&#45;&gt;Node2</title>
<path fill="none" stroke="midnightblue" d="M220.02,-31C228.52,-31 237.08,-31 245.53,-31"/>
<polygon fill="midnightblue" stroke="midnightblue" points="245.77,-34.5 255.77,-31 245.77,-27.5 245.77,-34.5"/>
</g>
<!-- Node3 -->
<g id="node3" class="node">
<title>Node3</title>
<g id="a_node3"><a xlink:href="namespacepahm__messages.html#acf0c696cc1604842ee84a5df6d81179c" target="_top" xlink:title="Sets the name of the subroutine that is writing log and/or screen messages.">
<polygon fill="white" stroke="black" points="482.5,-49.5 482.5,-70.5 697.5,-70.5 697.5,-49.5 482.5,-49.5"/>
<text text-anchor="middle" x="590" y="-56.9" font-family="Helvetica,sans-Serif" font-size="12.00">pahm_messages::setmessagesource</text>
</a>
</g>
</g>
<!-- Node1&#45;&gt;Node3 -->
<g id="edge4" class="edge">
<title>Node1&#45;&gt;Node3</title>
<path fill="none" stroke="midnightblue" d="M176.16,-41.54C201.07,-45.16 229.79,-48.84 256,-51 327.67,-56.89 408.28,-59.19 472.24,-59.98"/>
<polygon fill="midnightblue" stroke="midnightblue" points="472.32,-63.48 482.36,-60.1 472.4,-56.48 472.32,-63.48"/>
</g>
<!-- Node4 -->
<g id="node4" class="node">
<title>Node4</title>
<g id="a_node4"><a xlink:href="namespacepahm__messages.html#ad35e9f2327aad65d4c669e3d886f54dc" target="_top" xlink:title="Removes the name of the subroutine that is no longer active.">
<polygon fill="white" stroke="black" points="476,-0.5 476,-21.5 704,-21.5 704,-0.5 476,-0.5"/>
<text text-anchor="middle" x="590" y="-7.9" font-family="Helvetica,sans-Serif" font-size="12.00">pahm_messages::unsetmessagesource</text>
</a>
</g>
</g>
<!-- Node1&#45;&gt;Node4 -->
<g id="edge5" class="edge">
<title>Node1&#45;&gt;Node4</title>
<path fill="none" stroke="midnightblue" d="M173.61,-20.45C199.09,-16.66 228.87,-12.86 256,-11 325.25,-6.25 402.79,-5.95 465.61,-6.98"/>
<polygon fill="midnightblue" stroke="midnightblue" points="465.91,-10.48 475.97,-7.16 466.03,-3.49 465.91,-10.48"/>
</g>
<!-- Node2&#45;&gt;Node3 -->
<g id="edge2" class="edge">
<title>Node2&#45;&gt;Node3</title>
<path fill="none" stroke="midnightblue" d="M435.98,-41.51C454.09,-43.7 473.29,-46.02 491.75,-48.25"/>
<polygon fill="midnightblue" stroke="midnightblue" points="491.56,-51.75 501.91,-49.48 492.4,-44.8 491.56,-51.75"/>
</g>
<!-- Node2&#45;&gt;Node4 -->
<g id="edge3" class="edge">
<title>Node2&#45;&gt;Node4</title>
<path fill="none" stroke="midnightblue" d="M440.08,-23.41C448.46,-22.71 457.05,-22 465.66,-21.28"/>
<polygon fill="midnightblue" stroke="midnightblue" points="466.1,-24.75 475.77,-20.44 465.51,-17.78 466.1,-24.75"/>
</g>
</g>
</svg>
