<?xml version="1.0" encoding="UTF-8" standalone="no"?>
<!DOCTYPE svg PUBLIC "-//W3C//DTD SVG 1.1//EN"
 "http://www.w3.org/Graphics/SVG/1.1/DTD/svg11.dtd">
<!-- Generated by graphviz version 2.42.4 (0)
 -->
<!-- Title: utilities::parseline Pages: 1 -->
<svg width="284pt" height="70pt"
 viewBox="0.00 0.00 284.00 70.00" xmlns="http://www.w3.org/2000/svg" xmlns:xlink="http://www.w3.org/1999/xlink">
<g id="graph0" class="graph" transform="scale(1 1) rotate(0) translate(4 66)">
<title>utilities::parseline</title>
<polygon fill="white" stroke="transparent" points="-4,4 -4,-66 280,-66 280,4 -4,4"/>
<!-- Node1 -->
<g id="node1" class="node">
<title>Node1</title>
<g id="a_node1"><a xlink:title="This function parses lines of text from input script/control files.">
<polygon fill="#bfbfbf" stroke="black" points="0,-20.5 0,-41.5 110,-41.5 110,-20.5 0,-20.5"/>
<text text-anchor="middle" x="55" y="-27.9" font-family="Helvetica,sans-Serif" font-size="12.00">utilities::parseline</text>
</a>
</g>
</g>
<!-- Node2 -->
<g id="node2" class="node">
<title>Node2</title>
<g id="a_node2"><a xlink:href="namespaceutilities.html#a8723656afba63e33ed1c6cc8e5440b63" target="_top" xlink:title="Gets a line from a file.">
<polygon fill="white" stroke="black" points="146,-40.5 146,-61.5 276,-61.5 276,-40.5 146,-40.5"/>
<text text-anchor="middle" x="211" y="-47.9" font-family="Helvetica,sans-Serif" font-size="12.00">utilities::getlinerecord</text>
</a>
</g>
</g>
<!-- Node1&#45;&gt;Node2 -->
<g id="edge1" class="edge">
<title>Node1&#45;&gt;Node2</title>
<path fill="none" stroke="midnightblue" d="M110.29,-38.05C118.57,-39.13 127.24,-40.25 135.85,-41.37"/>
<polygon fill="midnightblue" stroke="midnightblue" points="135.55,-44.86 145.92,-42.68 136.45,-37.92 135.55,-44.86"/>
</g>
<!-- Node3 -->
<g id="node3" class="node">
<title>Node3</title>
<g id="a_node3"><a xlink:href="namespaceutilities.html#a8dff395c74e87d059dadcf8bacdbfedd" target="_top" xlink:title="Convert a string to upper&#45;case.">
<polygon fill="white" stroke="black" points="148,-0.5 148,-21.5 274,-21.5 274,-0.5 148,-0.5"/>
<text text-anchor="middle" x="211" y="-7.9" font-family="Helvetica,sans-Serif" font-size="12.00">utilities::touppercase</text>
</a>
</g>
</g>
<!-- Node1&#45;&gt;Node3 -->
<g id="edge2" class="edge">
<title>Node1&#45;&gt;Node3</title>
<path fill="none" stroke="midnightblue" d="M110.29,-23.95C119.2,-22.79 128.55,-21.58 137.8,-20.38"/>
<polygon fill="midnightblue" stroke="midnightblue" points="138.32,-23.84 147.78,-19.08 137.41,-16.9 138.32,-23.84"/>
</g>
</g>
</svg>
