<?xml version="1.0" encoding="UTF-8" standalone="no"?>
<!DOCTYPE svg PUBLIC "-//W3C//DTD SVG 1.1//EN"
 "http://www.w3.org/Graphics/SVG/1.1/DTD/svg11.dtd">
<!-- Generated by graphviz version 2.42.4 (0)
 -->
<!-- Title: pahm_drivermod::pahm_init Pages: 1 -->
<!--zoomable 1066 -->
<svg id="main" version="1.1" xmlns="http://www.w3.org/2000/svg" xmlns:xlink="http://www.w3.org/1999/xlink" xml:space="preserve" onload="init(evt)">
<style type="text/css"><![CDATA[
.edge:hover path { stroke: red; }
.edge:hover polygon { stroke: red; fill: red; }
]]></style>
<script type="text/javascript"><![CDATA[
var edges = document.getElementsByTagName('g');
if (edges && edges.length) {
  for (var i=0;i<edges.length;i++) {
    if (edges[i].id.substr(0,4)=='edge') {
      edges[i].setAttribute('class','edge');
    }
  }
}
]]></script>
        <defs>
                <circle id="rim" cx="0" cy="0" r="7"/>
                <circle id="rim2" cx="0" cy="0" r="3.5"/>
                <g id="zoomPlus">
                        <use xlink:href="#rim" fill="#404040">
                                <set attributeName="fill" to="#808080" begin="zoomplus.mouseover" end="zoomplus.mouseout"/>
                        </use>
                        <path d="M-4,0h8M0,-4v8" fill="none" stroke="white" stroke-width="1.5" pointer-events="none"/>
                </g>
                <g id="zoomMin">
                        <use xlink:href="#rim" fill="#404040">
                                <set attributeName="fill" to="#808080" begin="zoomminus.mouseover" end="zoomminus.mouseout"/>
                        </use>
                        <path d="M-4,0h8" fill="none" stroke="white" stroke-width="1.5" pointer-events="none"/>
                </g>
                <g id="dirArrow">
                        <path fill="none" stroke="white" stroke-width="1.5" d="M0,-3.0v7 M-2.5,-0.5L0,-3.0L2.5,-0.5"/>
                </g>
               <g id="resetDef">
                       <use xlink:href="#rim2" fill="#404040">
                               <set attributeName="fill" to="#808080" begin="reset.mouseover" end="reset.mouseout"/>
                       </use>
               </g>
        </defs>

<script type="text/javascript">
var viewWidth = 1230;
var viewHeight = 1066;
var sectionId = 'dynsection-4';
</script>
<script xlink:href="svgpan.js"/>
<svg id="graph" class="graph">
<g id="viewport">
<title>pahm_drivermod::pahm_init</title>
<polygon fill="white" stroke="transparent" points="-4,4 -4,-1061.89 1226,-1061.89 1226,4 -4,4"/>
<!-- Node1 -->
<g id="node1" class="node">
<title>Node1</title>
<g id="a_node1"><a xlink:title="Subroutine to initialize a PaHM run.">
<polygon fill="#bfbfbf" stroke="black" points="0,-309.39 0,-330.39 165,-330.39 165,-309.39 0,-309.39"/>
<text text-anchor="middle" x="82.5" y="-316.79" font-family="Helvetica,sans-Serif" font-size="12.00">pahm_drivermod::pahm_init</text>
</a>
</g>
</g>
<!-- Node2 -->
<g id="node2" class="node">
<title>Node2</title>
<g id="a_node2"><a xlink:href="namespacepahm__drivermod.html#a3294ddc68b72ff9220010a8764a8afe3" target="_top" xlink:title="Prints on the screen the help system of the PaHM program.">
<polygon fill="white" stroke="black" points="201,-886.39 201,-907.39 423,-907.39 423,-886.39 201,-886.39"/>
<text text-anchor="middle" x="312" y="-893.79" font-family="Helvetica,sans-Serif" font-size="12.00">pahm_drivermod::getprogramcmdlargs</text>
</a>
</g>
</g>
<!-- Node1&#45;&gt;Node2 -->
<g id="edge1" class="edge">
<title>Node1&#45;&gt;Node2</title>
<path fill="none" stroke="midnightblue" d="M87.64,-330.39C114.72,-399.07 266.52,-784.08 303.08,-876.8"/>
<polygon fill="midnightblue" stroke="midnightblue" points="299.85,-878.16 306.78,-886.18 306.37,-875.59 299.85,-878.16"/>
</g>
<!-- Node3 -->
<g id="node3" class="node">
<title>Node3</title>
<g id="a_node3"><a xlink:href="namespacepahm__messages.html#ad2fb6cca6853de16ee45c8cdebe6190a" target="_top" xlink:title="Initializes logging levels.">
<polygon fill="white" stroke="black" points="472.5,-964.39 472.5,-985.39 642.5,-985.39 642.5,-964.39 472.5,-964.39"/>
<text text-anchor="middle" x="557.5" y="-971.79" font-family="Helvetica,sans-Serif" font-size="12.00">pahm_messages::initlogging</text>
</a>
</g>
</g>
<!-- Node1&#45;&gt;Node3 -->
<g id="edge25" class="edge">
<title>Node1&#45;&gt;Node3</title>
<path fill="none" stroke="midnightblue" d="M83.99,-330.45C87.56,-403.31 112.19,-830.93 201,-916.89 271.78,-985.39 390.04,-991.55 470.56,-986.15"/>
<polygon fill="midnightblue" stroke="midnightblue" points="470.97,-989.63 480.68,-985.4 470.45,-982.65 470.97,-989.63"/>
</g>
<!-- Node20 -->
<g id="node20" class="node">
<title>Node20</title>
<g id="a_node20"><a xlink:href="namespacepahm__messages.html#acf0c696cc1604842ee84a5df6d81179c" target="_top" xlink:title="Sets the name of the subroutine that is writing log and/or screen messages.">
<polygon fill="white" stroke="black" points="1000.5,-194.39 1000.5,-215.39 1215.5,-215.39 1215.5,-194.39 1000.5,-194.39"/>
<text text-anchor="middle" x="1108" y="-201.79" font-family="Helvetica,sans-Serif" font-size="12.00">pahm_messages::setmessagesource</text>
</a>
</g>
</g>
<!-- Node1&#45;&gt;Node20 -->
<g id="edge48" class="edge">
<title>Node1&#45;&gt;Node20</title>
<path fill="none" stroke="midnightblue" d="M165.1,-310.72C349.76,-289.97 799.43,-239.44 1003.38,-216.53"/>
<polygon fill="midnightblue" stroke="midnightblue" points="1003.95,-219.99 1013.5,-215.39 1003.17,-213.03 1003.95,-219.99"/>
</g>
<!-- Node21 -->
<g id="node21" class="node">
<title>Node21</title>
<g id="a_node21"><a xlink:href="namespaceparwind.html#a75c722a5d8fdb18014543923d7e4dcca" target="_top" xlink:title="Subroutine to read all a&#45;deck/b&#45;deck best track files (ATCF format).">
<polygon fill="white" stroke="black" points="471,-353.39 471,-374.39 644,-374.39 644,-353.39 471,-353.39"/>
<text text-anchor="middle" x="557.5" y="-360.79" font-family="Helvetica,sans-Serif" font-size="12.00">parwind::readcsvbesttrackfile</text>
</a>
</g>
</g>
<!-- Node1&#45;&gt;Node21 -->
<g id="edge26" class="edge">
<title>Node1&#45;&gt;Node21</title>
<path fill="none" stroke="midnightblue" d="M165.08,-327.47C247.19,-335.11 373.78,-346.89 460.64,-354.97"/>
<polygon fill="midnightblue" stroke="midnightblue" points="460.48,-358.47 470.76,-355.91 461.13,-351.5 460.48,-358.47"/>
</g>
<!-- Node27 -->
<g id="node27" class="node">
<title>Node27</title>
<g id="a_node27"><a xlink:href="namespacepahm__messages.html#ad35e9f2327aad65d4c669e3d886f54dc" target="_top" xlink:title="Removes the name of the subroutine that is no longer active.">
<polygon fill="white" stroke="black" points="994,-36.39 994,-57.39 1222,-57.39 1222,-36.39 994,-36.39"/>
<text text-anchor="middle" x="1108" y="-43.79" font-family="Helvetica,sans-Serif" font-size="12.00">pahm_messages::unsetmessagesource</text>
</a>
</g>
</g>
<!-- Node1&#45;&gt;Node27 -->
<g id="edge49" class="edge">
<title>Node1&#45;&gt;Node27</title>
<path fill="none" stroke="midnightblue" d="M90.76,-309.29C107.82,-284.93 152.73,-223.93 201,-183.89 303.09,-99.21 331.95,-71.96 459,-33.89 669.3,29.14 935.45,-11.45 1050.16,-34.33"/>
<polygon fill="midnightblue" stroke="midnightblue" points="1049.63,-37.8 1060.12,-36.35 1051.02,-30.94 1049.63,-37.8"/>
</g>
<!-- Node29 -->
<g id="node29" class="node">
<title>Node29</title>
<g id="a_node29"><a xlink:href="namespacepahm__mesh.html#a6fd7801e4cbacfd2a7ce61c0fb31073c" target="_top" xlink:title="Reads an input mesh file for the specified supported model type.">
<polygon fill="white" stroke="black" points="241,-193.39 241,-214.39 383,-214.39 383,-193.39 241,-193.39"/>
<text text-anchor="middle" x="312" y="-200.79" font-family="Helvetica,sans-Serif" font-size="12.00">pahm_mesh::readmesh</text>
</a>
</g>
</g>
<!-- Node1&#45;&gt;Node29 -->
<g id="edge37" class="edge">
<title>Node1&#45;&gt;Node29</title>
<path fill="none" stroke="midnightblue" d="M98.98,-309.23C121,-294.33 162.94,-266.99 201,-247.89 223.54,-236.58 249.71,-226.01 270.87,-218.07"/>
<polygon fill="midnightblue" stroke="midnightblue" points="272.35,-221.25 280.52,-214.5 269.92,-214.68 272.35,-221.25"/>
</g>
<!-- Node2&#45;&gt;Node3 -->
<g id="edge2" class="edge">
<title>Node2&#45;&gt;Node3</title>
<path fill="none" stroke="midnightblue" d="M339.64,-907.44C368.71,-918.75 416.75,-936.83 459,-949.89 472.7,-954.12 487.64,-958.21 501.62,-961.81"/>
<polygon fill="midnightblue" stroke="midnightblue" points="501.04,-965.27 511.59,-964.34 502.76,-958.49 501.04,-965.27"/>
</g>
<!-- Node5 -->
<g id="node5" class="node">
<title>Node5</title>
<g id="a_node5"><a xlink:href="namespacepahm__messages.html#a0bf7cabdd36155ddc9946687defee4ff" target="_top" xlink:title="Prints on the screen the help system of the program.">
<polygon fill="white" stroke="black" points="466.5,-886.39 466.5,-907.39 648.5,-907.39 648.5,-886.39 466.5,-886.39"/>
<text text-anchor="middle" x="557.5" y="-893.79" font-family="Helvetica,sans-Serif" font-size="12.00">pahm_messages::programhelp</text>
</a>
</g>
</g>
<!-- Node2&#45;&gt;Node5 -->
<g id="edge4" class="edge">
<title>Node2&#45;&gt;Node5</title>
<path fill="none" stroke="midnightblue" d="M423.35,-896.89C434.22,-896.89 445.21,-896.89 455.98,-896.89"/>
<polygon fill="midnightblue" stroke="midnightblue" points="456.22,-900.39 466.22,-896.89 456.22,-893.39 456.22,-900.39"/>
</g>
<!-- Node6 -->
<g id="node6" class="node">
<title>Node6</title>
<g id="a_node6"><a xlink:href="namespacepahm__messages.html#a339ae583dc62f85245ae10374b0c677f" target="_top" xlink:title="Prints on the screen the versioning information of the program.">
<polygon fill="white" stroke="black" points="726.5,-996.39 726.5,-1017.39 923.5,-1017.39 923.5,-996.39 726.5,-996.39"/>
<text text-anchor="middle" x="825" y="-1003.79" font-family="Helvetica,sans-Serif" font-size="12.00">pahm_messages::programversion</text>
</a>
</g>
</g>
<!-- Node2&#45;&gt;Node6 -->
<g id="edge6" class="edge">
<title>Node2&#45;&gt;Node6</title>
<path fill="none" stroke="midnightblue" d="M388.74,-907.43C482.37,-920.81 632.31,-943.53 656,-954.89 675.3,-964.14 672.62,-977.8 692,-986.89 699.69,-990.49 707.89,-993.48 716.29,-995.94"/>
<polygon fill="midnightblue" stroke="midnightblue" points="715.65,-999.4 726.22,-998.61 717.47,-992.64 715.65,-999.4"/>
</g>
<!-- Node7 -->
<g id="node7" class="node">
<title>Node7</title>
<g id="a_node7"><a xlink:href="namespaceutilities.html#ab095172ef12ae151ab5c9aacf82f4dc6" target="_top" xlink:title="This subroutine reads the program&#39;s main control file.">
<polygon fill="white" stroke="black" points="489.5,-776.39 489.5,-797.39 625.5,-797.39 625.5,-776.39 489.5,-776.39"/>
<text text-anchor="middle" x="557.5" y="-783.79" font-family="Helvetica,sans-Serif" font-size="12.00">utilities::readcontrolfile</text>
</a>
</g>
</g>
<!-- Node2&#45;&gt;Node7 -->
<g id="edge7" class="edge">
<title>Node2&#45;&gt;Node7</title>
<path fill="none" stroke="midnightblue" d="M336.35,-886.34C379.98,-866.63 473.98,-824.16 523.86,-801.63"/>
<polygon fill="midnightblue" stroke="midnightblue" points="525.55,-804.71 533.22,-797.4 522.67,-798.33 525.55,-804.71"/>
</g>
<!-- Node4 -->
<g id="node4" class="node">
<title>Node4</title>
<g id="a_node4"><a xlink:href="namespacepahm__messages.html#a4856e55c31868efd23b7f6ca723004e5" target="_top" xlink:title="Opens the log file for writting.">
<polygon fill="white" stroke="black" points="738.5,-1036.39 738.5,-1057.39 911.5,-1057.39 911.5,-1036.39 738.5,-1036.39"/>
<text text-anchor="middle" x="825" y="-1043.79" font-family="Helvetica,sans-Serif" font-size="12.00">pahm_messages::openlogfile</text>
</a>
</g>
</g>
<!-- Node3&#45;&gt;Node4 -->
<g id="edge3" class="edge">
<title>Node3&#45;&gt;Node4</title>
<path fill="none" stroke="midnightblue" d="M581.14,-985.48C607.28,-997.31 651.87,-1016.17 692,-1026.89 703.66,-1030 716.04,-1032.67 728.37,-1034.96"/>
<polygon fill="midnightblue" stroke="midnightblue" points="727.76,-1038.41 738.22,-1036.71 728.99,-1031.51 727.76,-1038.41"/>
</g>
<!-- Node5&#45;&gt;Node6 -->
<g id="edge5" class="edge">
<title>Node5&#45;&gt;Node6</title>
<path fill="none" stroke="midnightblue" d="M628.61,-907.4C638.43,-910.93 647.91,-915.63 656,-921.89 682.13,-942.08 664.89,-968.03 692,-986.89 699.55,-992.13 707.92,-996.24 716.69,-999.42"/>
<polygon fill="midnightblue" stroke="midnightblue" points="715.74,-1002.79 726.34,-1002.53 717.89,-996.13 715.74,-1002.79"/>
</g>
<!-- Node8 -->
<g id="node8" class="node">
<title>Node8</title>
<g id="a_node8"><a xlink:href="namespaceutilities.html#a1e2f2593103f415e1c073284ff95a83f" target="_top" xlink:title="Checks the user defined control file inputs.">
<polygon fill="white" stroke="black" points="737,-718.39 737,-739.39 913,-739.39 913,-718.39 737,-718.39"/>
<text text-anchor="middle" x="825" y="-725.79" font-family="Helvetica,sans-Serif" font-size="12.00">utilities::checkcontrolfileinputs</text>
</a>
</g>
</g>
<!-- Node7&#45;&gt;Node8 -->
<g id="edge8" class="edge">
<title>Node7&#45;&gt;Node8</title>
<path fill="none" stroke="midnightblue" d="M598.67,-776.34C625.11,-769.56 660.51,-760.75 692,-753.89 712.27,-749.46 734.4,-745.09 754.64,-741.28"/>
<polygon fill="midnightblue" stroke="midnightblue" points="755.53,-744.67 764.72,-739.39 754.25,-737.79 755.53,-744.67"/>
</g>
<!-- Node9 -->
<g id="node9" class="node">
<title>Node9</title>
<g id="a_node9"><a xlink:href="namespacetimedateutils.html#a6c7acacb9981bb9182378a449e45715b" target="_top" xlink:title="Calculates the conversion factor between time units and seconds.">
<polygon fill="white" stroke="black" points="1021,-747.39 1021,-768.39 1195,-768.39 1195,-747.39 1021,-747.39"/>
<text text-anchor="middle" x="1108" y="-754.79" font-family="Helvetica,sans-Serif" font-size="12.00">timedateutils::gettimeconvsec</text>
</a>
</g>
</g>
<!-- Node7&#45;&gt;Node9 -->
<g id="edge13" class="edge">
<title>Node7&#45;&gt;Node9</title>
<path fill="none" stroke="midnightblue" d="M625.76,-783.33C722.16,-778.23 900.13,-768.82 1010.54,-762.99"/>
<polygon fill="midnightblue" stroke="midnightblue" points="1010.87,-766.47 1020.67,-762.45 1010.5,-759.48 1010.87,-766.47"/>
</g>
<!-- Node10 -->
<g id="node10" class="node">
<title>Node10</title>
<g id="a_node10"><a xlink:href="namespacetimedateutils.html#a393203cc78370648d0dd392fe96d66ff" target="_top" xlink:title="Pre&#45;processes an arbitrary date string.">
<polygon fill="white" stroke="black" points="1041.5,-688.39 1041.5,-709.39 1174.5,-709.39 1174.5,-688.39 1041.5,-688.39"/>
<text text-anchor="middle" x="1108" y="-695.79" font-family="Helvetica,sans-Serif" font-size="12.00">timedateutils::joindate</text>
</a>
</g>
</g>
<!-- Node7&#45;&gt;Node10 -->
<g id="edge14" class="edge">
<title>Node7&#45;&gt;Node10</title>
<path fill="none" stroke="midnightblue" d="M571.48,-776.21C594.21,-758.27 643.45,-722.66 692,-708.89 806.76,-676.33 946.61,-681.69 1031.13,-689.55"/>
<polygon fill="midnightblue" stroke="midnightblue" points="1030.87,-693.04 1041.16,-690.52 1031.54,-686.07 1030.87,-693.04"/>
</g>
<!-- Node11 -->
<g id="node11" class="node">
<title>Node11</title>
<g id="a_node11"><a xlink:href="namespaceutilities.html#a8dff395c74e87d059dadcf8bacdbfedd" target="_top" xlink:title="Convert a string to upper&#45;case.">
<polygon fill="white" stroke="black" points="1045,-602.39 1045,-623.39 1171,-623.39 1171,-602.39 1045,-602.39"/>
<text text-anchor="middle" x="1108" y="-609.79" font-family="Helvetica,sans-Serif" font-size="12.00">utilities::touppercase</text>
</a>
</g>
</g>
<!-- Node7&#45;&gt;Node11 -->
<g id="edge24" class="edge">
<title>Node7&#45;&gt;Node11</title>
<path fill="none" stroke="midnightblue" d="M567.98,-776.24C588.29,-754.19 638.52,-703.63 692,-679.89 722.72,-666.24 924.19,-637.53 1034.71,-622.51"/>
<polygon fill="midnightblue" stroke="midnightblue" points="1035.35,-625.96 1044.79,-621.14 1034.41,-619.02 1035.35,-625.96"/>
</g>
<!-- Node12 -->
<g id="node12" class="node">
<title>Node12</title>
<g id="a_node12"><a xlink:href="namespacetimedateutils.html#a565d549493d69e2c9ea5b7af18247df5" target="_top" xlink:title="Constructs a NetCDF time string.">
<polygon fill="white" stroke="black" points="739,-916.39 739,-937.39 911,-937.39 911,-916.39 739,-916.39"/>
<text text-anchor="middle" x="825" y="-923.79" font-family="Helvetica,sans-Serif" font-size="12.00">timedateutils::datetime2string</text>
</a>
</g>
</g>
<!-- Node7&#45;&gt;Node12 -->
<g id="edge12" class="edge">
<title>Node7&#45;&gt;Node12</title>
<path fill="none" stroke="midnightblue" d="M570.05,-797.59C601.12,-826.37 684.67,-903.42 692,-906.89 703.41,-912.27 715.94,-916.28 728.59,-919.24"/>
<polygon fill="midnightblue" stroke="midnightblue" points="728.24,-922.74 738.75,-921.39 729.69,-915.89 728.24,-922.74"/>
</g>
<!-- Node13 -->
<g id="node13" class="node">
<title>Node13</title>
<g id="a_node13"><a xlink:href="namespacetimedateutils.html#abc63ac16baec18b6c9bb2ee6e0400a63" target="_top" xlink:title="Determines the Julian date from a Gregorian date.">
<polygon fill="white" stroke="black" points="747.5,-876.39 747.5,-897.39 902.5,-897.39 902.5,-876.39 747.5,-876.39"/>
<text text-anchor="middle" x="825" y="-883.79" font-family="Helvetica,sans-Serif" font-size="12.00">timedateutils::juldaytogreg</text>
</a>
</g>
</g>
<!-- Node7&#45;&gt;Node13 -->
<g id="edge15" class="edge">
<title>Node7&#45;&gt;Node13</title>
<path fill="none" stroke="midnightblue" d="M572,-797.46C595.14,-814.98 644.45,-849.79 692,-866.89 706.31,-872.03 721.96,-875.85 737.32,-878.69"/>
<polygon fill="midnightblue" stroke="midnightblue" points="736.91,-882.17 747.36,-880.42 738.1,-875.27 736.91,-882.17"/>
</g>
<!-- Node14 -->
<g id="node14" class="node">
<title>Node14</title>
<g id="a_node14"><a xlink:href="namespaceutilities.html#a062355064a86a716b2ddff1aa0cd3fb4" target="_top" xlink:title="This function loads input values into a requested model integer variable.">
<polygon fill="white" stroke="black" points="768.5,-836.39 768.5,-857.39 881.5,-857.39 881.5,-836.39 768.5,-836.39"/>
<text text-anchor="middle" x="825" y="-843.79" font-family="Helvetica,sans-Serif" font-size="12.00">utilities::loadintvar</text>
</a>
</g>
</g>
<!-- Node7&#45;&gt;Node14 -->
<g id="edge16" class="edge">
<title>Node7&#45;&gt;Node14</title>
<path fill="none" stroke="midnightblue" d="M589.2,-797.43C616.05,-806.32 656.23,-818.86 692,-826.89 713.48,-831.7 737.18,-835.7 758.51,-838.82"/>
<polygon fill="midnightblue" stroke="midnightblue" points="758.05,-842.29 768.44,-840.24 759.04,-835.36 758.05,-842.29"/>
</g>
<!-- Node15 -->
<g id="node15" class="node">
<title>Node15</title>
<g id="a_node15"><a xlink:href="namespaceutilities.html#a4a70a4be51dcd79bc46b6cfcb2d2ac0a" target="_top" xlink:title="This function loads input values into a requested model real variable.">
<polygon fill="white" stroke="black" points="765,-796.39 765,-817.39 885,-817.39 885,-796.39 765,-796.39"/>
<text text-anchor="middle" x="825" y="-803.79" font-family="Helvetica,sans-Serif" font-size="12.00">utilities::loadrealvar</text>
</a>
</g>
</g>
<!-- Node7&#45;&gt;Node15 -->
<g id="edge17" class="edge">
<title>Node7&#45;&gt;Node15</title>
<path fill="none" stroke="midnightblue" d="M625.84,-791.96C665.27,-794.93 714.96,-798.67 754.72,-801.67"/>
<polygon fill="midnightblue" stroke="midnightblue" points="754.63,-805.17 764.87,-802.43 755.16,-798.19 754.63,-805.17"/>
</g>
<!-- Node16 -->
<g id="node16" class="node">
<title>Node16</title>
<g id="a_node16"><a xlink:href="namespaceutilities.html#ab30d13ba0fcebcb933a30be2237ec162" target="_top" xlink:title="This function parses lines of text from input script/control files.">
<polygon fill="white" stroke="black" points="770,-602.39 770,-623.39 880,-623.39 880,-602.39 770,-602.39"/>
<text text-anchor="middle" x="825" y="-609.79" font-family="Helvetica,sans-Serif" font-size="12.00">utilities::parseline</text>
</a>
</g>
</g>
<!-- Node7&#45;&gt;Node16 -->
<g id="edge18" class="edge">
<title>Node7&#45;&gt;Node16</title>
<path fill="none" stroke="midnightblue" d="M564.66,-776.08C581.21,-748.1 629.69,-673.04 692,-637.89 712.43,-626.36 737.19,-620.03 759.72,-616.59"/>
<polygon fill="midnightblue" stroke="midnightblue" points="760.45,-620.02 769.89,-615.21 759.51,-613.09 760.45,-620.02"/>
</g>
<!-- Node18 -->
<g id="node18" class="node">
<title>Node18</title>
<g id="a_node18"><a xlink:href="namespaceutilities.html#a57953a3306e17ea2e28254e3d2091516" target="_top" xlink:title="This subroutine prints on the screen the values of the program&#39;s parameters.">
<polygon fill="white" stroke="black" points="747,-956.39 747,-977.39 903,-977.39 903,-956.39 747,-956.39"/>
<text text-anchor="middle" x="825" y="-963.79" font-family="Helvetica,sans-Serif" font-size="12.00">utilities::printmodelparams</text>
</a>
</g>
</g>
<!-- Node7&#45;&gt;Node18 -->
<g id="edge21" class="edge">
<title>Node7&#45;&gt;Node18</title>
<path fill="none" stroke="midnightblue" d="M572.88,-797.51C593.32,-813.14 631.04,-844.06 656,-876.89 677.18,-904.73 663.59,-926.47 692,-946.89 705.09,-956.29 720.82,-962.07 736.78,-965.48"/>
<polygon fill="midnightblue" stroke="midnightblue" points="736.25,-968.95 746.72,-967.32 737.52,-962.06 736.25,-968.95"/>
</g>
<!-- Node7&#45;&gt;Node20 -->
<g id="edge23" class="edge">
<title>Node7&#45;&gt;Node20</title>
<path fill="none" stroke="midnightblue" d="M563.24,-776.08C577.85,-743.9 625.27,-647.56 692,-592.89 791.49,-511.36 877.84,-579.47 958,-478.89 1013.74,-408.94 945.04,-355.74 994,-280.89 1012.36,-252.81 1045.08,-232.52 1070.6,-219.99"/>
<polygon fill="midnightblue" stroke="midnightblue" points="1072.43,-223 1079.98,-215.58 1069.44,-216.67 1072.43,-223"/>
</g>
<!-- Node8&#45;&gt;Node9 -->
<g id="edge9" class="edge">
<title>Node8&#45;&gt;Node9</title>
<path fill="none" stroke="midnightblue" d="M913.37,-737.9C944.19,-741.08 979.01,-744.68 1010.54,-747.93"/>
<polygon fill="midnightblue" stroke="midnightblue" points="1010.34,-751.43 1020.65,-748.97 1011.06,-744.47 1010.34,-751.43"/>
</g>
<!-- Node8&#45;&gt;Node10 -->
<g id="edge10" class="edge">
<title>Node8&#45;&gt;Node10</title>
<path fill="none" stroke="midnightblue" d="M913.37,-719.56C951.07,-715.53 994.75,-710.87 1031.08,-706.99"/>
<polygon fill="midnightblue" stroke="midnightblue" points="1031.55,-710.46 1041.12,-705.92 1030.8,-703.5 1031.55,-710.46"/>
</g>
<!-- Node8&#45;&gt;Node11 -->
<g id="edge11" class="edge">
<title>Node8&#45;&gt;Node11</title>
<path fill="none" stroke="midnightblue" d="M851.93,-718.18C902.66,-697.24 1015.06,-650.84 1072.2,-627.25"/>
<polygon fill="midnightblue" stroke="midnightblue" points="1073.63,-630.45 1081.54,-623.4 1070.96,-623.98 1073.63,-630.45"/>
</g>
<!-- Node16&#45;&gt;Node11 -->
<g id="edge20" class="edge">
<title>Node16&#45;&gt;Node11</title>
<path fill="none" stroke="midnightblue" d="M880.18,-612.89C924.18,-612.89 986.61,-612.89 1034.84,-612.89"/>
<polygon fill="midnightblue" stroke="midnightblue" points="1034.91,-616.39 1044.91,-612.89 1034.91,-609.39 1034.91,-616.39"/>
</g>
<!-- Node17 -->
<g id="node17" class="node">
<title>Node17</title>
<g id="a_node17"><a xlink:href="namespaceutilities.html#a8723656afba63e33ed1c6cc8e5440b63" target="_top" xlink:title="Gets a line from a file.">
<polygon fill="white" stroke="black" points="1043,-446.39 1043,-467.39 1173,-467.39 1173,-446.39 1043,-446.39"/>
<text text-anchor="middle" x="1108" y="-453.79" font-family="Helvetica,sans-Serif" font-size="12.00">utilities::getlinerecord</text>
</a>
</g>
</g>
<!-- Node16&#45;&gt;Node17 -->
<g id="edge19" class="edge">
<title>Node16&#45;&gt;Node17</title>
<path fill="none" stroke="midnightblue" d="M880.08,-609.2C904.81,-605.89 933.9,-599.65 958,-587.89 1015.19,-559.96 1067.44,-504.11 1092.09,-475.19"/>
<polygon fill="midnightblue" stroke="midnightblue" points="1094.83,-477.37 1098.56,-467.46 1089.46,-472.88 1094.83,-477.37"/>
</g>
<!-- Node19 -->
<g id="node19" class="node">
<title>Node19</title>
<g id="a_node19"><a xlink:href="namespaceutilities.html#a376978b945cbdf5d33ff8bf905d19866" target="_top" xlink:title="Convert a string to lower&#45;case.">
<polygon fill="white" stroke="black" points="1046,-956.39 1046,-977.39 1170,-977.39 1170,-956.39 1046,-956.39"/>
<text text-anchor="middle" x="1108" y="-963.79" font-family="Helvetica,sans-Serif" font-size="12.00">utilities::tolowercase</text>
</a>
</g>
</g>
<!-- Node18&#45;&gt;Node19 -->
<g id="edge22" class="edge">
<title>Node18&#45;&gt;Node19</title>
<path fill="none" stroke="midnightblue" d="M903.16,-966.89C944.5,-966.89 995.09,-966.89 1035.53,-966.89"/>
<polygon fill="midnightblue" stroke="midnightblue" points="1035.58,-970.39 1045.58,-966.89 1035.58,-963.39 1035.58,-970.39"/>
</g>
<!-- Node21&#45;&gt;Node11 -->
<g id="edge35" class="edge">
<title>Node21&#45;&gt;Node11</title>
<path fill="none" stroke="midnightblue" d="M567.2,-374.63C586.75,-397.95 636.81,-453.19 692,-478.89 800.57,-529.43 845.68,-480.34 958,-521.89 1007,-540.01 1057.55,-574.97 1085.36,-595.89"/>
<polygon fill="midnightblue" stroke="midnightblue" points="1083.49,-598.86 1093.56,-602.15 1087.74,-593.3 1083.49,-598.86"/>
</g>
<!-- Node21&#45;&gt;Node17 -->
<g id="edge29" class="edge">
<title>Node21&#45;&gt;Node17</title>
<path fill="none" stroke="midnightblue" d="M611.6,-353.36C689.48,-340.1 838.39,-323.08 958,-358.89 1010.69,-374.66 1061.99,-415.72 1088.47,-439.39"/>
<polygon fill="midnightblue" stroke="midnightblue" points="1086.11,-441.98 1095.86,-446.13 1090.83,-436.8 1086.11,-441.98"/>
</g>
<!-- Node22 -->
<g id="node22" class="node">
<title>Node22</title>
<g id="a_node22"><a xlink:href="namespaceparwind.html#a9b826e18db73886e01f39d55bf7e5b85" target="_top" xlink:title="Subroutine to allocate memory for a best track structure.">
<polygon fill="white" stroke="black" points="758,-448.39 758,-469.39 892,-469.39 892,-448.39 758,-448.39"/>
<text text-anchor="middle" x="825" y="-455.79" font-family="Helvetica,sans-Serif" font-size="12.00">parwind::allocbtrstruct</text>
</a>
</g>
</g>
<!-- Node21&#45;&gt;Node22 -->
<g id="edge27" class="edge">
<title>Node21&#45;&gt;Node22</title>
<path fill="none" stroke="midnightblue" d="M573.26,-374.57C597.01,-391.2 645.74,-422.98 692,-438.89 709.65,-444.95 729.26,-449.18 747.85,-452.13"/>
<polygon fill="midnightblue" stroke="midnightblue" points="747.35,-455.59 757.75,-453.6 748.37,-448.67 747.35,-455.59"/>
</g>
<!-- Node23 -->
<g id="node23" class="node">
<title>Node23</title>
<g id="a_node23"><a xlink:href="namespaceutilities.html#a241eabd46f9d0e4a26adc221570ad79f" target="_top" xlink:title="Find the unique non&#45;blank elements in 1D character array.">
<polygon fill="white" stroke="black" points="765,-408.39 765,-429.39 885,-429.39 885,-408.39 765,-408.39"/>
<text text-anchor="middle" x="825" y="-415.79" font-family="Helvetica,sans-Serif" font-size="12.00">utilities::charunique</text>
</a>
</g>
</g>
<!-- Node21&#45;&gt;Node23 -->
<g id="edge28" class="edge">
<title>Node21&#45;&gt;Node23</title>
<path fill="none" stroke="midnightblue" d="M594.52,-374.44C621.25,-382 658.68,-392.01 692,-398.89 712.29,-403.07 734.51,-406.77 754.83,-409.82"/>
<polygon fill="midnightblue" stroke="midnightblue" points="754.55,-413.31 764.95,-411.3 755.57,-406.39 754.55,-413.31"/>
</g>
<!-- Node24 -->
<g id="node24" class="node">
<title>Node24</title>
<g id="a_node24"><a xlink:href="namespaceutilities.html#a2a5c60da3dadf9f6ef913709c07dbee7" target="_top" xlink:title="Returns the value of the leading integer numeric string.">
<polygon fill="white" stroke="black" points="774,-290.39 774,-311.39 876,-311.39 876,-290.39 774,-290.39"/>
<text text-anchor="middle" x="825" y="-297.79" font-family="Helvetica,sans-Serif" font-size="12.00">utilities::intvalstr</text>
</a>
</g>
</g>
<!-- Node21&#45;&gt;Node24 -->
<g id="edge30" class="edge">
<title>Node21&#45;&gt;Node24</title>
<path fill="none" stroke="midnightblue" d="M592.3,-353.35C619.15,-345.2 657.76,-333.98 692,-325.89 715.32,-320.37 741.19,-315.25 763.8,-311.1"/>
<polygon fill="midnightblue" stroke="midnightblue" points="764.73,-314.49 773.94,-309.27 763.48,-307.61 764.73,-314.49"/>
</g>
<!-- Node26 -->
<g id="node26" class="node">
<title>Node26</title>
<g id="a_node26"><a xlink:href="namespaceutilities.html#a2a41067ed5533ec0c36318e8f1e960bf" target="_top" xlink:title="This subroutine opens an existing file for reading.">
<polygon fill="white" stroke="black" points="755,-136.39 755,-157.39 895,-157.39 895,-136.39 755,-136.39"/>
<text text-anchor="middle" x="825" y="-143.79" font-family="Helvetica,sans-Serif" font-size="12.00">utilities::openfileforread</text>
</a>
</g>
</g>
<!-- Node21&#45;&gt;Node26 -->
<g id="edge32" class="edge">
<title>Node21&#45;&gt;Node26</title>
<path fill="none" stroke="midnightblue" d="M571.67,-353.12C614.58,-318.05 750.68,-206.81 803.12,-163.95"/>
<polygon fill="midnightblue" stroke="midnightblue" points="805.54,-166.49 811.07,-157.46 801.11,-161.07 805.54,-166.49"/>
</g>
<!-- Node28 -->
<g id="node28" class="node">
<title>Node28</title>
<g id="a_node28"><a xlink:href="namespaceparwind.html#a7a4d6eb0de8c960ffd29e8705b11e707" target="_top" xlink:title="Writes the best track data (adjusted or not) to the &quot;adjusted&quot; best track output file.">
<polygon fill="white" stroke="black" points="743,-368.39 743,-389.39 907,-389.39 907,-368.39 743,-368.39"/>
<text text-anchor="middle" x="825" y="-375.79" font-family="Helvetica,sans-Serif" font-size="12.00">parwind::writebesttrackdata</text>
</a>
</g>
</g>
<!-- Node21&#45;&gt;Node28 -->
<g id="edge36" class="edge">
<title>Node21&#45;&gt;Node28</title>
<path fill="none" stroke="midnightblue" d="M644.33,-368.73C672.66,-370.33 704.25,-372.12 732.95,-373.74"/>
<polygon fill="midnightblue" stroke="midnightblue" points="732.79,-377.24 742.97,-374.31 733.19,-370.25 732.79,-377.24"/>
</g>
<!-- Node25 -->
<g id="node25" class="node">
<title>Node25</title>
<g id="a_node25"><a xlink:href="namespaceutilities.html#a26a70a9de90e0016d323e4c8dbea1a5b" target="_top" xlink:title="Scans string looking for the leading integer numeric string.">
<polygon fill="white" stroke="black" points="1059,-290.39 1059,-311.39 1157,-311.39 1157,-290.39 1059,-290.39"/>
<text text-anchor="middle" x="1108" y="-297.79" font-family="Helvetica,sans-Serif" font-size="12.00">utilities::intscan</text>
</a>
</g>
</g>
<!-- Node24&#45;&gt;Node25 -->
<g id="edge31" class="edge">
<title>Node24&#45;&gt;Node25</title>
<path fill="none" stroke="midnightblue" d="M876.24,-300.89C924.53,-300.89 997.5,-300.89 1048.41,-300.89"/>
<polygon fill="midnightblue" stroke="midnightblue" points="1048.61,-304.39 1058.61,-300.89 1048.61,-297.39 1048.61,-304.39"/>
</g>
<!-- Node26&#45;&gt;Node20 -->
<g id="edge33" class="edge">
<title>Node26&#45;&gt;Node20</title>
<path fill="none" stroke="midnightblue" d="M883.58,-157.39C906.74,-161.72 933.67,-166.89 958,-171.89 988.86,-178.22 1023.19,-185.79 1051.12,-192.08"/>
<polygon fill="midnightblue" stroke="midnightblue" points="1050.57,-195.55 1061.1,-194.34 1052.12,-188.72 1050.57,-195.55"/>
</g>
<!-- Node26&#45;&gt;Node27 -->
<g id="edge34" class="edge">
<title>Node26&#45;&gt;Node27</title>
<path fill="none" stroke="midnightblue" d="M895.22,-140.93C915.77,-137.96 938.1,-133.51 958,-126.89 1005,-111.23 1054.78,-81.45 1083.25,-62.98"/>
<polygon fill="midnightblue" stroke="midnightblue" points="1085.28,-65.83 1091.71,-57.41 1081.44,-59.98 1085.28,-65.83"/>
</g>
<!-- Node29&#45;&gt;Node11 -->
<g id="edge46" class="edge">
<title>Node29&#45;&gt;Node11</title>
<path fill="none" stroke="midnightblue" d="M319.73,-214.8C338.63,-244.82 395.03,-329.92 459,-383.89 632.38,-530.14 905.59,-585.46 1034.76,-604.25"/>
<polygon fill="midnightblue" stroke="midnightblue" points="1034.54,-607.75 1044.93,-605.7 1035.52,-600.82 1034.54,-607.75"/>
</g>
<!-- Node29&#45;&gt;Node20 -->
<g id="edge42" class="edge">
<title>Node29&#45;&gt;Node20</title>
<path fill="none" stroke="midnightblue" d="M383.11,-203.97C519.69,-204.15 822.65,-204.53 990.1,-204.74"/>
<polygon fill="midnightblue" stroke="midnightblue" points="990.18,-208.24 1000.19,-204.75 990.19,-201.24 990.18,-208.24"/>
</g>
<!-- Node29&#45;&gt;Node27 -->
<g id="edge47" class="edge">
<title>Node29&#45;&gt;Node27</title>
<path fill="none" stroke="midnightblue" d="M323.2,-193.24C345.52,-170.64 401.31,-117.83 459,-91.89 647.51,-7.12 898.26,-20.66 1025.49,-35.2"/>
<polygon fill="midnightblue" stroke="midnightblue" points="1025.21,-38.69 1035.55,-36.38 1026.03,-31.74 1025.21,-38.69"/>
</g>
<!-- Node30 -->
<g id="node30" class="node">
<title>Node30</title>
<g id="a_node30"><a xlink:href="namespacepahm__mesh.html#af53257d02ceb6ebe4349de40187496d6" target="_top" xlink:title="Reads the ADCIRC fort.14 mesh file.">
<polygon fill="white" stroke="black" points="459,-155.39 459,-176.39 656,-176.39 656,-155.39 459,-155.39"/>
<text text-anchor="middle" x="557.5" y="-162.79" font-family="Helvetica,sans-Serif" font-size="12.00">pahm_mesh::readmeshasciifort14</text>
</a>
</g>
</g>
<!-- Node29&#45;&gt;Node30 -->
<g id="edge38" class="edge">
<title>Node29&#45;&gt;Node30</title>
<path fill="none" stroke="midnightblue" d="M380.5,-193.35C410.99,-188.59 447.17,-182.95 478.78,-178.01"/>
<polygon fill="midnightblue" stroke="midnightblue" points="479.52,-181.44 488.86,-176.44 478.44,-174.52 479.52,-181.44"/>
</g>
<!-- Node32 -->
<g id="node32" class="node">
<title>Node32</title>
<g id="a_node32"><a xlink:href="namespacepahm__messages.html#a8fdeeba7e0469ebda6435518f619444b" target="_top" xlink:title="Terminates the calling program when a fatal error is encountered.">
<polygon fill="white" stroke="black" points="743,-56.39 743,-77.39 907,-77.39 907,-56.39 743,-56.39"/>
<text text-anchor="middle" x="825" y="-63.79" font-family="Helvetica,sans-Serif" font-size="12.00">pahm_messages::terminate</text>
</a>
</g>
</g>
<!-- Node29&#45;&gt;Node32 -->
<g id="edge43" class="edge">
<title>Node29&#45;&gt;Node32</title>
<path fill="none" stroke="midnightblue" d="M336.68,-193.37C365.27,-180.93 415.02,-160.12 459,-145.89 560.63,-112.98 587.29,-108.02 692,-86.89 706.12,-84.03 721.17,-81.39 735.86,-79.02"/>
<polygon fill="midnightblue" stroke="midnightblue" points="736.62,-82.44 745.95,-77.42 735.53,-75.53 736.62,-82.44"/>
</g>
<!-- Node30&#45;&gt;Node20 -->
<g id="edge41" class="edge">
<title>Node30&#45;&gt;Node20</title>
<path fill="none" stroke="midnightblue" d="M656.24,-172.84C749.74,-179.48 890.83,-189.51 990.21,-196.58"/>
<polygon fill="midnightblue" stroke="midnightblue" points="990.07,-200.08 1000.29,-197.3 990.57,-193.1 990.07,-200.08"/>
</g>
<!-- Node30&#45;&gt;Node26 -->
<g id="edge40" class="edge">
<title>Node30&#45;&gt;Node26</title>
<path fill="none" stroke="midnightblue" d="M656.23,-158.89C685.33,-156.81 716.85,-154.55 744.63,-152.56"/>
<polygon fill="midnightblue" stroke="midnightblue" points="744.96,-156.05 754.69,-151.85 744.46,-149.07 744.96,-156.05"/>
</g>
<!-- Node31 -->
<g id="node31" class="node">
<title>Node31</title>
<g id="a_node31"><a xlink:href="namespacepahm__mesh.html#a3ac2350cf2b06f708810684f67950e69" target="_top" xlink:title="Allocates memory to mesh arrays.">
<polygon fill="white" stroke="black" points="692,-96.39 692,-117.39 958,-117.39 958,-96.39 692,-96.39"/>
<text text-anchor="middle" x="825" y="-103.79" font-family="Helvetica,sans-Serif" font-size="12.00">pahm_mesh::allocatenodalandelementalarrays</text>
</a>
</g>
</g>
<!-- Node30&#45;&gt;Node31 -->
<g id="edge39" class="edge">
<title>Node30&#45;&gt;Node31</title>
<path fill="none" stroke="midnightblue" d="M590.02,-155.38C616.88,-146.74 656.63,-134.69 692,-126.89 705.2,-123.97 719.25,-121.34 733.06,-119.03"/>
<polygon fill="midnightblue" stroke="midnightblue" points="733.75,-122.46 743.06,-117.4 732.62,-115.55 733.75,-122.46"/>
</g>
<!-- Node32&#45;&gt;Node20 -->
<g id="edge44" class="edge">
<title>Node32&#45;&gt;Node20</title>
<path fill="none" stroke="midnightblue" d="M907.09,-72.41C924.37,-75.43 942.16,-80 958,-86.89 1012.85,-110.73 1064.72,-159.96 1090.34,-186.68"/>
<polygon fill="midnightblue" stroke="midnightblue" points="1088.01,-189.31 1097.42,-194.19 1093.11,-184.51 1088.01,-189.31"/>
</g>
<!-- Node32&#45;&gt;Node27 -->
<g id="edge45" class="edge">
<title>Node32&#45;&gt;Node27</title>
<path fill="none" stroke="midnightblue" d="M907.28,-61.1C931.1,-59.4 957.71,-57.51 983.54,-55.67"/>
<polygon fill="midnightblue" stroke="midnightblue" points="984.04,-59.15 993.77,-54.94 983.55,-52.16 984.04,-59.15"/>
</g>
</g>
</svg>
        <g id="navigator" transform="translate(0 0)" fill="#404254">
                <rect fill="#f2f5e9" fill-opacity="0.5" stroke="#606060" stroke-width=".5" x="0" y="0" width="60" height="60"/>
                <use id="zoomplus" xlink:href="#zoomPlus" x="17" y="9" onmousedown="handleZoom(evt,'in')"/>
                <use id="zoomminus" xlink:href="#zoomMin" x="42" y="9" onmousedown="handleZoom(evt,'out')"/>
                <use id="reset" xlink:href="#resetDef" x="30" y="36" onmousedown="handleReset()"/>
                <g id="arrowUp" xlink:href="#dirArrow" transform="translate(30 24)" onmousedown="handlePan(0,-1)">
                  <use xlink:href="#rim" fill="#404040">
                        <set attributeName="fill" to="#808080" begin="arrowUp.mouseover" end="arrowUp.mouseout"/>
                  </use>
                  <path fill="none" stroke="white" stroke-width="1.5" d="M0,-3.0v7 M-2.5,-0.5L0,-3.0L2.5,-0.5"/>
                </g>
                <g id="arrowRight" xlink:href="#dirArrow" transform="rotate(90) translate(36 -43)" onmousedown="handlePan(1,0)">
                  <use xlink:href="#rim" fill="#404040">
                        <set attributeName="fill" to="#808080" begin="arrowRight.mouseover" end="arrowRight.mouseout"/>
                  </use>
                  <path fill="none" stroke="white" stroke-width="1.5" d="M0,-3.0v7 M-2.5,-0.5L0,-3.0L2.5,-0.5"/>
                </g>
                <g id="arrowDown" xlink:href="#dirArrow" transform="rotate(180) translate(-30 -48)" onmousedown="handlePan(0,1)">
                  <use xlink:href="#rim" fill="#404040">
                        <set attributeName="fill" to="#808080" begin="arrowDown.mouseover" end="arrowDown.mouseout"/>
                  </use>
                  <path fill="none" stroke="white" stroke-width="1.5" d="M0,-3.0v7 M-2.5,-0.5L0,-3.0L2.5,-0.5"/>
                </g>
                <g id="arrowLeft" xlink:href="#dirArrow" transform="rotate(270) translate(-36 17)" onmousedown="handlePan(-1,0)">
                  <use xlink:href="#rim" fill="#404040">
                        <set attributeName="fill" to="#808080" begin="arrowLeft.mouseover" end="arrowLeft.mouseout"/>
                  </use>
                  <path fill="none" stroke="white" stroke-width="1.5" d="M0,-3.0v7 M-2.5,-0.5L0,-3.0L2.5,-0.5"/>
                </g>
        </g>
        <svg viewBox="0 0 15 15" width="100%" height="30px" preserveAspectRatio="xMaxYMin meet">
         <g id="arrow_out" transform="scale(0.3 0.3)">
          <a xlink:href="namespacepahm__drivermod_ae0d4b223a96ba116b38152caf6b0768c_cgraph_org.svg" target="_base">
           <rect id="button" ry="5" rx="5" y="6" x="6" height="38" width="38"
                fill="#f2f5e9" fill-opacity="0.5" stroke="#606060" stroke-width="1.0"/>
           <path id="arrow"
             d="M 11.500037,31.436501 C 11.940474,20.09759 22.043105,11.32322 32.158766,21.979434 L 37.068811,17.246167 C 37.068811,17.246167 37.088388,32 37.088388,32 L 22.160133,31.978069 C 22.160133,31.978069 26.997745,27.140456 26.997745,27.140456 C 18.528582,18.264221 13.291696,25.230495 11.500037,31.436501 z"
             style="fill:#404040;"/>
          </a>
         </g>
        </svg>
</svg>
