<?xml version="1.0" encoding="UTF-8" standalone="no"?>
<!DOCTYPE svg PUBLIC "-//W3C//DTD SVG 1.1//EN"
 "http://www.w3.org/Graphics/SVG/1.1/DTD/svg11.dtd">
<!-- Generated by graphviz version 2.42.4 (0)
 -->
<!-- Title: pahm_vortex::uvpr Pages: 1 -->
<svg width="281pt" height="70pt"
 viewBox="0.00 0.00 281.00 70.00" xmlns="http://www.w3.org/2000/svg" xmlns:xlink="http://www.w3.org/1999/xlink">
<g id="graph0" class="graph" transform="scale(1 1) rotate(0) translate(4 66)">
<title>pahm_vortex::uvpr</title>
<polygon fill="white" stroke="transparent" points="-4,4 -4,-66 277,-66 277,4 -4,4"/>
<!-- Node1 -->
<g id="node1" class="node">
<title>Node1</title>
<g id="a_node1"><a xlink:title="Calculate (u, v) wind components and surface pressure from an asymmetric hurricane wind model.">
<polygon fill="#bfbfbf" stroke="black" points="0,-20.5 0,-41.5 115,-41.5 115,-20.5 0,-20.5"/>
<text text-anchor="middle" x="57.5" y="-27.9" font-family="Helvetica,sans-Serif" font-size="12.00">pahm_vortex::uvpr</text>
</a>
</g>
</g>
<!-- Node2 -->
<g id="node2" class="node">
<title>Node2</title>
<g id="a_node2"><a xlink:href="namespacepahm__vortex.html#ac953414ecaf1b96028c4258cb011658d" target="_top" xlink:title="Compute a wind angle to parameterize frictional inflow across isobars.">
<polygon fill="white" stroke="black" points="154.5,-40.5 154.5,-61.5 269.5,-61.5 269.5,-40.5 154.5,-40.5"/>
<text text-anchor="middle" x="212" y="-47.9" font-family="Helvetica,sans-Serif" font-size="12.00">pahm_vortex::fang</text>
</a>
</g>
</g>
<!-- Node1&#45;&gt;Node2 -->
<g id="edge1" class="edge">
<title>Node1&#45;&gt;Node2</title>
<path fill="none" stroke="midnightblue" d="M115.29,-38.45C124.78,-39.69 134.7,-40.99 144.41,-42.27"/>
<polygon fill="midnightblue" stroke="midnightblue" points="144.05,-45.75 154.42,-43.58 144.96,-38.81 144.05,-45.75"/>
</g>
<!-- Node3 -->
<g id="node3" class="node">
<title>Node3</title>
<g id="a_node3"><a xlink:href="namespacepahm__vortex.html#a7fc78bcdd0071e81581505ac558c0e27" target="_top" xlink:title="Rotate a 2D vector (x, y) by an angle.">
<polygon fill="white" stroke="black" points="151,-0.5 151,-21.5 273,-21.5 273,-0.5 151,-0.5"/>
<text text-anchor="middle" x="212" y="-7.9" font-family="Helvetica,sans-Serif" font-size="12.00">pahm_vortex::rotate</text>
</a>
</g>
</g>
<!-- Node1&#45;&gt;Node3 -->
<g id="edge2" class="edge">
<title>Node1&#45;&gt;Node3</title>
<path fill="none" stroke="midnightblue" d="M115.29,-23.55C123.62,-22.46 132.3,-21.32 140.86,-20.2"/>
<polygon fill="midnightblue" stroke="midnightblue" points="141.39,-23.66 150.85,-18.89 140.48,-16.72 141.39,-23.66"/>
</g>
</g>
</svg>
