<?xml version="1.0" encoding="UTF-8" standalone="no"?>
<!DOCTYPE svg PUBLIC "-//W3C//DTD SVG 1.1//EN"
 "http://www.w3.org/Graphics/SVG/1.1/DTD/svg11.dtd">
<!-- Generated by graphviz version 2.42.4 (0)
 -->
<!-- Title: csv_utilities::expand_vector Pages: 1 -->
<svg width="484pt" height="84pt"
 viewBox="0.00 0.00 484.00 83.50" xmlns="http://www.w3.org/2000/svg" xmlns:xlink="http://www.w3.org/1999/xlink">
<g id="graph0" class="graph" transform="scale(1 1) rotate(0) translate(4 79.5)">
<title>csv_utilities::expand_vector</title>
<polygon fill="white" stroke="transparent" points="-4,4 -4,-79.5 480,-79.5 480,4 -4,4"/>
<!-- Node1 -->
<g id="node1" class="node">
<title>Node1</title>
<g id="a_node1"><a xlink:title="Add elements to the integer vector in chunks.">
<polygon fill="#bfbfbf" stroke="black" points="352,-17 352,-51 476,-51 476,-17 352,-17"/>
<text text-anchor="start" x="360" y="-37.4" font-family="Helvetica,sans-Serif" font-size="12.00">csv_utilities::expand</text>
<text text-anchor="middle" x="414" y="-24.4" font-family="Helvetica,sans-Serif" font-size="12.00">_vector</text>
</a>
</g>
</g>
<!-- Node2 -->
<g id="node2" class="node">
<title>Node2</title>
<g id="a_node2"><a xlink:href="namespacecsv__module.html#a93688c838159ffaf313d24b71dff1c2b" target="_top" xlink:title="Splits a character string using a token.">
<polygon fill="white" stroke="black" points="200.5,-45.5 200.5,-66.5 309.5,-66.5 309.5,-45.5 200.5,-45.5"/>
<text text-anchor="middle" x="255" y="-52.9" font-family="Helvetica,sans-Serif" font-size="12.00">csv_module::split</text>
</a>
</g>
</g>
<!-- Node1&#45;&gt;Node2 -->
<g id="edge1" class="edge">
<title>Node1&#45;&gt;Node2</title>
<path fill="none" stroke="midnightblue" d="M341.94,-43.96C331.06,-45.48 320,-47.03 309.58,-48.49"/>
<polygon fill="midnightblue" stroke="midnightblue" points="342.43,-47.42 351.85,-42.57 341.46,-40.49 342.43,-47.42"/>
</g>
<!-- Node4 -->
<g id="node4" class="node">
<title>Node4</title>
<g id="a_node4"><a xlink:href="namespacecsv__utilities.html#a6c1f008f2a5f0ec6727aa9627a9e7bc4" target="_top" xlink:title="Finds the unique elements in a vector of integers.">
<polygon fill="white" stroke="black" points="194,-3.5 194,-24.5 316,-24.5 316,-3.5 194,-3.5"/>
<text text-anchor="middle" x="255" y="-10.9" font-family="Helvetica,sans-Serif" font-size="12.00">csv_utilities::unique</text>
</a>
</g>
</g>
<!-- Node1&#45;&gt;Node4 -->
<g id="edge3" class="edge">
<title>Node1&#45;&gt;Node4</title>
<path fill="none" stroke="midnightblue" d="M341.87,-24.94C333.29,-23.85 324.6,-22.74 316.21,-21.67"/>
<polygon fill="midnightblue" stroke="midnightblue" points="341.49,-28.42 351.85,-26.21 342.37,-21.47 341.49,-28.42"/>
</g>
<!-- Node3 -->
<g id="node3" class="node">
<title>Node3</title>
<g id="a_node3"><a xlink:href="namespacecsv__module.html#a72b45c18168ec635068da3c5e6241288" target="_top" xlink:title="Tokenize a line from a CSV file.">
<polygon fill="white" stroke="black" points="13.5,-41 13.5,-75 144.5,-75 144.5,-41 13.5,-41"/>
<text text-anchor="start" x="21.5" y="-61.4" font-family="Helvetica,sans-Serif" font-size="12.00">csv_module::tokenize</text>
<text text-anchor="middle" x="79" y="-48.4" font-family="Helvetica,sans-Serif" font-size="12.00">_csv_line</text>
</a>
</g>
</g>
<!-- Node2&#45;&gt;Node3 -->
<g id="edge2" class="edge">
<title>Node2&#45;&gt;Node3</title>
<path fill="none" stroke="midnightblue" d="M190.29,-56.73C175.46,-56.9 159.65,-57.08 144.78,-57.26"/>
<polygon fill="midnightblue" stroke="midnightblue" points="190.42,-60.23 200.37,-56.62 190.33,-53.23 190.42,-60.23"/>
</g>
<!-- Node5 -->
<g id="node5" class="node">
<title>Node5</title>
<g id="a_node5"><a xlink:href="namespacecsv__module.html#a95642923259cb41370798af573c1babc" target="_top" xlink:title="Reads a CSV file.">
<polygon fill="white" stroke="black" points="0,-0.5 0,-21.5 158,-21.5 158,-0.5 0,-0.5"/>
<text text-anchor="middle" x="79" y="-7.9" font-family="Helvetica,sans-Serif" font-size="12.00">csv_module::read_csv_file</text>
</a>
</g>
</g>
<!-- Node4&#45;&gt;Node5 -->
<g id="edge4" class="edge">
<title>Node4&#45;&gt;Node5</title>
<path fill="none" stroke="midnightblue" d="M183.52,-12.78C175.13,-12.64 166.53,-12.49 158.04,-12.35"/>
<polygon fill="midnightblue" stroke="midnightblue" points="183.57,-16.29 193.63,-12.96 183.69,-9.29 183.57,-16.29"/>
</g>
</g>
</svg>
