<?xml version="1.0" encoding="UTF-8" standalone="no"?>
<!DOCTYPE svg PUBLIC "-//W3C//DTD SVG 1.1//EN"
 "http://www.w3.org/Graphics/SVG/1.1/DTD/svg11.dtd">
<!-- Generated by graphviz version 2.42.4 (0)
 -->
<!-- Title: pahm_netcdfio::netcdfterminate Pages: 1 -->
<svg width="456pt" height="70pt"
 viewBox="0.00 0.00 456.00 70.00" xmlns="http://www.w3.org/2000/svg" xmlns:xlink="http://www.w3.org/1999/xlink">
<g id="graph0" class="graph" transform="scale(1 1) rotate(0) translate(4 66)">
<title>pahm_netcdfio::netcdfterminate</title>
<polygon fill="white" stroke="transparent" points="-4,4 -4,-66 452,-66 452,4 -4,4"/>
<!-- Node1 -->
<g id="node1" class="node">
<title>Node1</title>
<g id="a_node1"><a xlink:title="Terminates the program on NetCDF error.">
<polygon fill="#bfbfbf" stroke="black" points="0,-20.5 0,-41.5 184,-41.5 184,-20.5 0,-20.5"/>
<text text-anchor="middle" x="92" y="-27.9" font-family="Helvetica,sans-Serif" font-size="12.00">pahm_netcdfio::netcdfterminate</text>
</a>
</g>
</g>
<!-- Node2 -->
<g id="node2" class="node">
<title>Node2</title>
<g id="a_node2"><a xlink:href="namespacepahm__messages.html#acf0c696cc1604842ee84a5df6d81179c" target="_top" xlink:title="Sets the name of the subroutine that is writing log and/or screen messages.">
<polygon fill="white" stroke="black" points="226.5,-40.5 226.5,-61.5 441.5,-61.5 441.5,-40.5 226.5,-40.5"/>
<text text-anchor="middle" x="334" y="-47.9" font-family="Helvetica,sans-Serif" font-size="12.00">pahm_messages::setmessagesource</text>
</a>
</g>
</g>
<!-- Node1&#45;&gt;Node2 -->
<g id="edge1" class="edge">
<title>Node1&#45;&gt;Node2</title>
<path fill="none" stroke="midnightblue" d="M184.08,-38.59C194.53,-39.46 205.29,-40.36 216.02,-41.25"/>
<polygon fill="midnightblue" stroke="midnightblue" points="216.03,-44.76 226.29,-42.11 216.61,-37.79 216.03,-44.76"/>
</g>
<!-- Node3 -->
<g id="node3" class="node">
<title>Node3</title>
<g id="a_node3"><a xlink:href="namespacepahm__messages.html#ad35e9f2327aad65d4c669e3d886f54dc" target="_top" xlink:title="Removes the name of the subroutine that is no longer active.">
<polygon fill="white" stroke="black" points="220,-0.5 220,-21.5 448,-21.5 448,-0.5 220,-0.5"/>
<text text-anchor="middle" x="334" y="-7.9" font-family="Helvetica,sans-Serif" font-size="12.00">pahm_messages::unsetmessagesource</text>
</a>
</g>
</g>
<!-- Node1&#45;&gt;Node3 -->
<g id="edge2" class="edge">
<title>Node1&#45;&gt;Node3</title>
<path fill="none" stroke="midnightblue" d="M184.08,-23.41C192.46,-22.71 201.05,-22 209.66,-21.28"/>
<polygon fill="midnightblue" stroke="midnightblue" points="210.1,-24.75 219.77,-20.44 209.51,-17.78 210.1,-24.75"/>
</g>
</g>
</svg>
