<?xml version="1.0" encoding="UTF-8" standalone="no"?>
<!DOCTYPE svg PUBLIC "-//W3C//DTD SVG 1.1//EN"
 "http://www.w3.org/Graphics/SVG/1.1/DTD/svg11.dtd">
<!-- Generated by graphviz version 2.42.4 (0)
 -->
<!-- Title: utilities::tolowercase Pages: 1 -->
<!--zoomable 131 -->
<svg id="main" version="1.1" xmlns="http://www.w3.org/2000/svg" xmlns:xlink="http://www.w3.org/1999/xlink" xml:space="preserve" onload="init(evt)">
<style type="text/css"><![CDATA[
.edge:hover path { stroke: red; }
.edge:hover polygon { stroke: red; fill: red; }
]]></style>
<script type="text/javascript"><![CDATA[
var edges = document.getElementsByTagName('g');
if (edges && edges.length) {
  for (var i=0;i<edges.length;i++) {
    if (edges[i].id.substr(0,4)=='edge') {
      edges[i].setAttribute('class','edge');
    }
  }
}
]]></script>
        <defs>
                <circle id="rim" cx="0" cy="0" r="7"/>
                <circle id="rim2" cx="0" cy="0" r="3.5"/>
                <g id="zoomPlus">
                        <use xlink:href="#rim" fill="#404040">
                                <set attributeName="fill" to="#808080" begin="zoomplus.mouseover" end="zoomplus.mouseout"/>
                        </use>
                        <path d="M-4,0h8M0,-4v8" fill="none" stroke="white" stroke-width="1.5" pointer-events="none"/>
                </g>
                <g id="zoomMin">
                        <use xlink:href="#rim" fill="#404040">
                                <set attributeName="fill" to="#808080" begin="zoomminus.mouseover" end="zoomminus.mouseout"/>
                        </use>
                        <path d="M-4,0h8" fill="none" stroke="white" stroke-width="1.5" pointer-events="none"/>
                </g>
                <g id="dirArrow">
                        <path fill="none" stroke="white" stroke-width="1.5" d="M0,-3.0v7 M-2.5,-0.5L0,-3.0L2.5,-0.5"/>
                </g>
               <g id="resetDef">
                       <use xlink:href="#rim2" fill="#404040">
                               <set attributeName="fill" to="#808080" begin="reset.mouseover" end="reset.mouseout"/>
                       </use>
               </g>
        </defs>

<script type="text/javascript">
var viewWidth = 1092;
var viewHeight = 131;
var sectionId = 'dynsection-24';
</script>
<script xlink:href="svgpan.js"/>
<svg id="graph" class="graph">
<g id="viewport">
<title>utilities::tolowercase</title>
<polygon fill="white" stroke="transparent" points="-4,4 -4,-126.5 1088,-126.5 1088,4 -4,4"/>
<!-- Node1 -->
<g id="node1" class="node">
<title>Node1</title>
<g id="a_node1"><a xlink:title="Convert a string to lower&#45;case.">
<polygon fill="#bfbfbf" stroke="black" points="960,-74 960,-95 1084,-95 1084,-74 960,-74"/>
<text text-anchor="middle" x="1022" y="-81.4" font-family="Helvetica,sans-Serif" font-size="12.00">utilities::tolowercase</text>
</a>
</g>
</g>
<!-- Node2 -->
<g id="node2" class="node">
<title>Node2</title>
<g id="a_node2"><a xlink:href="namespaceutilities.html#a57953a3306e17ea2e28254e3d2091516" target="_top" xlink:title="This subroutine prints on the screen the values of the program&#39;s parameters.">
<polygon fill="white" stroke="black" points="768,-97 768,-118 924,-118 924,-97 768,-97"/>
<text text-anchor="middle" x="846" y="-104.4" font-family="Helvetica,sans-Serif" font-size="12.00">utilities::printmodelparams</text>
</a>
</g>
</g>
<!-- Node1&#45;&gt;Node2 -->
<g id="edge1" class="edge">
<title>Node1&#45;&gt;Node2</title>
<path fill="none" stroke="midnightblue" d="M949.59,-93.94C941.23,-95.04 932.68,-96.17 924.25,-97.29"/>
<polygon fill="midnightblue" stroke="midnightblue" points="950.2,-97.39 959.65,-92.61 949.28,-90.45 950.2,-97.39"/>
</g>
<!-- Node7 -->
<g id="node7" class="node">
<title>Node7</title>
<g id="a_node7"><a xlink:href="namespacecsv__module.html#afdb32ff9495b79418037e3fae406e67f" target="_top" xlink:title="Converts a string to a &#39;logical&#39;.">
<polygon fill="white" stroke="black" points="776.5,-54 776.5,-75 915.5,-75 915.5,-54 776.5,-54"/>
<text text-anchor="middle" x="846" y="-61.4" font-family="Helvetica,sans-Serif" font-size="12.00">csv_module::to_logical</text>
</a>
</g>
</g>
<!-- Node1&#45;&gt;Node7 -->
<g id="edge6" class="edge">
<title>Node1&#45;&gt;Node7</title>
<path fill="none" stroke="midnightblue" d="M949.54,-76.29C938.39,-75 926.89,-73.68 915.8,-72.41"/>
<polygon fill="midnightblue" stroke="midnightblue" points="949.32,-79.78 959.65,-77.45 950.12,-72.83 949.32,-79.78"/>
</g>
<!-- Node3 -->
<g id="node3" class="node">
<title>Node3</title>
<g id="a_node3"><a xlink:href="namespaceutilities.html#ab095172ef12ae151ab5c9aacf82f4dc6" target="_top" xlink:title="This subroutine reads the program&#39;s main control file.">
<polygon fill="white" stroke="black" points="569,-101 569,-122 705,-122 705,-101 569,-101"/>
<text text-anchor="middle" x="637" y="-108.4" font-family="Helvetica,sans-Serif" font-size="12.00">utilities::readcontrolfile</text>
</a>
</g>
</g>
<!-- Node2&#45;&gt;Node3 -->
<g id="edge2" class="edge">
<title>Node2&#45;&gt;Node3</title>
<path fill="none" stroke="midnightblue" d="M757.69,-109.19C740.16,-109.53 722,-109.88 705.27,-110.2"/>
<polygon fill="midnightblue" stroke="midnightblue" points="757.99,-112.68 767.92,-108.99 757.86,-105.68 757.99,-112.68"/>
</g>
<!-- Node4 -->
<g id="node4" class="node">
<title>Node4</title>
<g id="a_node4"><a xlink:href="namespacepahm__drivermod.html#a3294ddc68b72ff9220010a8764a8afe3" target="_top" xlink:title="Prints on the screen the help system of the PaHM program.">
<polygon fill="white" stroke="black" points="284,-101 284,-122 506,-122 506,-101 284,-101"/>
<text text-anchor="middle" x="395" y="-108.4" font-family="Helvetica,sans-Serif" font-size="12.00">pahm_drivermod::getprogramcmdlargs</text>
</a>
</g>
</g>
<!-- Node3&#45;&gt;Node4 -->
<g id="edge3" class="edge">
<title>Node3&#45;&gt;Node4</title>
<path fill="none" stroke="midnightblue" d="M558.63,-111.5C541.96,-111.5 524.03,-111.5 506.38,-111.5"/>
<polygon fill="midnightblue" stroke="midnightblue" points="558.83,-115 568.83,-111.5 558.83,-108 558.83,-115"/>
</g>
<!-- Node5 -->
<g id="node5" class="node">
<title>Node5</title>
<g id="a_node5"><a xlink:href="namespacepahm__drivermod.html#ae0d4b223a96ba116b38152caf6b0768c" target="_top" xlink:title="Subroutine to initialize a PaHM run.">
<polygon fill="white" stroke="black" points="83,-101 83,-122 248,-122 248,-101 83,-101"/>
<text text-anchor="middle" x="165.5" y="-108.4" font-family="Helvetica,sans-Serif" font-size="12.00">pahm_drivermod::pahm_init</text>
</a>
</g>
</g>
<!-- Node4&#45;&gt;Node5 -->
<g id="edge4" class="edge">
<title>Node4&#45;&gt;Node5</title>
<path fill="none" stroke="midnightblue" d="M273.77,-111.5C265.14,-111.5 256.56,-111.5 248.22,-111.5"/>
<polygon fill="midnightblue" stroke="midnightblue" points="273.92,-115 283.92,-111.5 273.92,-108 273.92,-115"/>
</g>
<!-- Node6 -->
<g id="node6" class="node">
<title>Node6</title>
<g id="a_node6"><a xlink:href="pahm_8F90.html#a3d3918f5c5f1ac0a7991a7a78f530f30" target="_top" xlink:title=" ">
<polygon fill="white" stroke="black" points="0,-101 0,-122 47,-122 47,-101 0,-101"/>
<text text-anchor="middle" x="23.5" y="-108.4" font-family="Helvetica,sans-Serif" font-size="12.00">pahm</text>
</a>
</g>
</g>
<!-- Node5&#45;&gt;Node6 -->
<g id="edge5" class="edge">
<title>Node5&#45;&gt;Node6</title>
<path fill="none" stroke="midnightblue" d="M72.42,-111.5C63.15,-111.5 54.47,-111.5 47.1,-111.5"/>
<polygon fill="midnightblue" stroke="midnightblue" points="72.66,-115 82.66,-111.5 72.66,-108 72.66,-115"/>
</g>
<!-- Node8 -->
<g id="node8" class="node">
<title>Node8</title>
<g id="a_node8"><a xlink:href="namespacecsv__module.html#a650414ac2ed01f87425f588c2daba839" target="_top" xlink:title="Get an individual value from the &#39;csv_data&#39; structure in the CSV class.">
<polygon fill="white" stroke="black" points="573,-47.5 573,-81.5 701,-81.5 701,-47.5 573,-47.5"/>
<text text-anchor="start" x="581" y="-67.9" font-family="Helvetica,sans-Serif" font-size="12.00">csv_module::csv_get</text>
<text text-anchor="middle" x="637" y="-54.9" font-family="Helvetica,sans-Serif" font-size="12.00">_value</text>
</a>
</g>
</g>
<!-- Node7&#45;&gt;Node8 -->
<g id="edge7" class="edge">
<title>Node7&#45;&gt;Node8</title>
<path fill="none" stroke="midnightblue" d="M766.27,-64.5C744.76,-64.5 721.73,-64.5 701.21,-64.5"/>
<polygon fill="midnightblue" stroke="midnightblue" points="766.36,-68 776.36,-64.5 766.36,-61 766.36,-68"/>
</g>
<!-- Node10 -->
<g id="node10" class="node">
<title>Node10</title>
<g id="a_node10"><a xlink:href="namespacecsv__module.html#ab0bfadc5d97513c62e333b32957398fb" target="_top" xlink:title="Infers the variable type.">
<polygon fill="white" stroke="black" points="542,-7 542,-28 732,-28 732,-7 542,-7"/>
<text text-anchor="middle" x="637" y="-14.4" font-family="Helvetica,sans-Serif" font-size="12.00">csv_module::infer_variable_type</text>
</a>
</g>
</g>
<!-- Node7&#45;&gt;Node10 -->
<g id="edge9" class="edge">
<title>Node7&#45;&gt;Node10</title>
<path fill="none" stroke="midnightblue" d="M792.19,-51.59C773.23,-47.04 751.68,-41.94 732,-37.5 718,-34.34 702.8,-31.05 688.79,-28.06"/>
<polygon fill="midnightblue" stroke="midnightblue" points="791.59,-55.05 802.13,-53.99 793.23,-48.24 791.59,-55.05"/>
</g>
<!-- Node9 -->
<g id="node9" class="node">
<title>Node9</title>
<g id="a_node9"><a xlink:href="structcsv__module_1_1csv__file.html#ab5a9ad6066ebf388d15c234e5f0b928a" target="_top" xlink:title=" ">
<polygon fill="white" stroke="black" points="320,-54 320,-75 470,-75 470,-54 320,-54"/>
<text text-anchor="middle" x="395" y="-61.4" font-family="Helvetica,sans-Serif" font-size="12.00">csv_module::csv_file::get</text>
</a>
</g>
</g>
<!-- Node8&#45;&gt;Node9 -->
<g id="edge8" class="edge">
<title>Node8&#45;&gt;Node9</title>
<path fill="none" stroke="midnightblue" d="M562.75,-64.5C533.39,-64.5 499.59,-64.5 470.14,-64.5"/>
<polygon fill="midnightblue" stroke="midnightblue" points="562.94,-68 572.94,-64.5 562.94,-61 562.94,-68"/>
</g>
<!-- Node11 -->
<g id="node11" class="node">
<title>Node11</title>
<g id="a_node11"><a xlink:href="namespacecsv__module.html#ace66eaa8da32c4eadee2b6bac017bdc9" target="_top" xlink:title="Returns an array indicating the variable type of each columns.">
<polygon fill="white" stroke="black" points="330,-0.5 330,-34.5 460,-34.5 460,-0.5 330,-0.5"/>
<text text-anchor="start" x="338" y="-20.9" font-family="Helvetica,sans-Serif" font-size="12.00">csv_module::variable</text>
<text text-anchor="middle" x="395" y="-7.9" font-family="Helvetica,sans-Serif" font-size="12.00">_types</text>
</a>
</g>
</g>
<!-- Node10&#45;&gt;Node11 -->
<g id="edge10" class="edge">
<title>Node10&#45;&gt;Node11</title>
<path fill="none" stroke="midnightblue" d="M531.52,-17.5C507.29,-17.5 482.2,-17.5 460.3,-17.5"/>
<polygon fill="midnightblue" stroke="midnightblue" points="531.83,-21 541.83,-17.5 531.83,-14 531.83,-21"/>
</g>
</g>
</svg>
        <g id="navigator" transform="translate(0 0)" fill="#404254">
                <rect fill="#f2f5e9" fill-opacity="0.5" stroke="#606060" stroke-width=".5" x="0" y="0" width="60" height="60"/>
                <use id="zoomplus" xlink:href="#zoomPlus" x="17" y="9" onmousedown="handleZoom(evt,'in')"/>
                <use id="zoomminus" xlink:href="#zoomMin" x="42" y="9" onmousedown="handleZoom(evt,'out')"/>
                <use id="reset" xlink:href="#resetDef" x="30" y="36" onmousedown="handleReset()"/>
                <g id="arrowUp" xlink:href="#dirArrow" transform="translate(30 24)" onmousedown="handlePan(0,-1)">
                  <use xlink:href="#rim" fill="#404040">
                        <set attributeName="fill" to="#808080" begin="arrowUp.mouseover" end="arrowUp.mouseout"/>
                  </use>
                  <path fill="none" stroke="white" stroke-width="1.5" d="M0,-3.0v7 M-2.5,-0.5L0,-3.0L2.5,-0.5"/>
                </g>
                <g id="arrowRight" xlink:href="#dirArrow" transform="rotate(90) translate(36 -43)" onmousedown="handlePan(1,0)">
                  <use xlink:href="#rim" fill="#404040">
                        <set attributeName="fill" to="#808080" begin="arrowRight.mouseover" end="arrowRight.mouseout"/>
                  </use>
                  <path fill="none" stroke="white" stroke-width="1.5" d="M0,-3.0v7 M-2.5,-0.5L0,-3.0L2.5,-0.5"/>
                </g>
                <g id="arrowDown" xlink:href="#dirArrow" transform="rotate(180) translate(-30 -48)" onmousedown="handlePan(0,1)">
                  <use xlink:href="#rim" fill="#404040">
                        <set attributeName="fill" to="#808080" begin="arrowDown.mouseover" end="arrowDown.mouseout"/>
                  </use>
                  <path fill="none" stroke="white" stroke-width="1.5" d="M0,-3.0v7 M-2.5,-0.5L0,-3.0L2.5,-0.5"/>
                </g>
                <g id="arrowLeft" xlink:href="#dirArrow" transform="rotate(270) translate(-36 17)" onmousedown="handlePan(-1,0)">
                  <use xlink:href="#rim" fill="#404040">
                        <set attributeName="fill" to="#808080" begin="arrowLeft.mouseover" end="arrowLeft.mouseout"/>
                  </use>
                  <path fill="none" stroke="white" stroke-width="1.5" d="M0,-3.0v7 M-2.5,-0.5L0,-3.0L2.5,-0.5"/>
                </g>
        </g>
        <svg viewBox="0 0 15 15" width="100%" height="30px" preserveAspectRatio="xMaxYMin meet">
         <g id="arrow_out" transform="scale(0.3 0.3)">
          <a xlink:href="namespaceutilities_a376978b945cbdf5d33ff8bf905d19866_icgraph_org.svg" target="_base">
           <rect id="button" ry="5" rx="5" y="6" x="6" height="38" width="38"
                fill="#f2f5e9" fill-opacity="0.5" stroke="#606060" stroke-width="1.0"/>
           <path id="arrow"
             d="M 11.500037,31.436501 C 11.940474,20.09759 22.043105,11.32322 32.158766,21.979434 L 37.068811,17.246167 C 37.068811,17.246167 37.088388,32 37.088388,32 L 22.160133,31.978069 C 22.160133,31.978069 26.997745,27.140456 26.997745,27.140456 C 18.528582,18.264221 13.291696,25.230495 11.500037,31.436501 z"
             style="fill:#404040;"/>
          </a>
         </g>
        </svg>
</svg>
