<?xml version="1.0" encoding="UTF-8" standalone="no"?>
<!DOCTYPE svg PUBLIC "-//W3C//DTD SVG 1.1//EN"
 "http://www.w3.org/Graphics/SVG/1.1/DTD/svg11.dtd">
<!-- Generated by graphviz version 2.42.4 (0)
 -->
<!-- Title: utilities::charunique Pages: 1 -->
<svg width="810pt" height="110pt"
 viewBox="0.00 0.00 810.00 110.00" xmlns="http://www.w3.org/2000/svg" xmlns:xlink="http://www.w3.org/1999/xlink">
<g id="graph0" class="graph" transform="scale(1 1) rotate(0) translate(4 106)">
<title>utilities::charunique</title>
<polygon fill="white" stroke="transparent" points="-4,4 -4,-106 806,-106 806,4 -4,4"/>
<!-- Node1 -->
<g id="node1" class="node">
<title>Node1</title>
<g id="a_node1"><a xlink:title="Find the unique non&#45;blank elements in 1D character array.">
<polygon fill="#bfbfbf" stroke="black" points="682,-40.5 682,-61.5 802,-61.5 802,-40.5 682,-40.5"/>
<text text-anchor="middle" x="742" y="-47.9" font-family="Helvetica,sans-Serif" font-size="12.00">utilities::charunique</text>
</a>
</g>
</g>
<!-- Node2 -->
<g id="node2" class="node">
<title>Node2</title>
<g id="a_node2"><a xlink:href="namespaceparwind.html#a6efcf8be68b268f0a6d92ceb5f8c6f41" target="_top" xlink:title="Subroutine to support the Holland model (GetHolland). Gets the next line from the file,...">
<polygon fill="white" stroke="black" points="474,-80.5 474,-101.5 645,-101.5 645,-80.5 474,-80.5"/>
<text text-anchor="middle" x="559.5" y="-87.9" font-family="Helvetica,sans-Serif" font-size="12.00">parwind::processhollanddata</text>
</a>
</g>
</g>
<!-- Node1&#45;&gt;Node2 -->
<g id="edge1" class="edge">
<title>Node1&#45;&gt;Node2</title>
<path fill="none" stroke="midnightblue" d="M683.72,-63.69C659.3,-69.11 631.15,-75.34 607.92,-80.49"/>
<polygon fill="midnightblue" stroke="midnightblue" points="684.57,-67.09 693.58,-61.51 683.06,-60.26 684.57,-67.09"/>
</g>
<!-- Node6 -->
<g id="node6" class="node">
<title>Node6</title>
<g id="a_node6"><a xlink:href="namespaceparwind.html#abae6c098afd2135918a478b6b7b20673" target="_top" xlink:title="Subroutine to read all a&#45;deck/b&#45;deck best track files (ATCF format).">
<polygon fill="white" stroke="black" points="482,-40.5 482,-61.5 637,-61.5 637,-40.5 482,-40.5"/>
<text text-anchor="middle" x="559.5" y="-47.9" font-family="Helvetica,sans-Serif" font-size="12.00">parwind::readbesttrackfile</text>
</a>
</g>
</g>
<!-- Node1&#45;&gt;Node6 -->
<g id="edge5" class="edge">
<title>Node1&#45;&gt;Node6</title>
<path fill="none" stroke="midnightblue" d="M671.68,-51C660.38,-51 648.62,-51 637.16,-51"/>
<polygon fill="midnightblue" stroke="midnightblue" points="671.9,-54.5 681.9,-51 671.9,-47.5 671.9,-54.5"/>
</g>
<!-- Node7 -->
<g id="node7" class="node">
<title>Node7</title>
<g id="a_node7"><a xlink:href="namespaceparwind.html#a75c722a5d8fdb18014543923d7e4dcca" target="_top" xlink:title="Subroutine to read all a&#45;deck/b&#45;deck best track files (ATCF format).">
<polygon fill="white" stroke="black" points="473,-0.5 473,-21.5 646,-21.5 646,-0.5 473,-0.5"/>
<text text-anchor="middle" x="559.5" y="-7.9" font-family="Helvetica,sans-Serif" font-size="12.00">parwind::readcsvbesttrackfile</text>
</a>
</g>
</g>
<!-- Node1&#45;&gt;Node7 -->
<g id="edge6" class="edge">
<title>Node1&#45;&gt;Node7</title>
<path fill="none" stroke="midnightblue" d="M683.72,-38.31C659.3,-32.89 631.15,-26.66 607.92,-21.51"/>
<polygon fill="midnightblue" stroke="midnightblue" points="683.06,-41.74 693.58,-40.49 684.57,-34.91 683.06,-41.74"/>
</g>
<!-- Node3 -->
<g id="node3" class="node">
<title>Node3</title>
<g id="a_node3"><a xlink:href="namespaceparwind.html#a0f547832ef9dcece74e3d1267557c9e7" target="_top" xlink:title="Calculate wind velocities and MSL pressures at the mesh nodes from the P&#45;W Holland Wind model.">
<polygon fill="white" stroke="black" points="286,-77.5 286,-98.5 437,-98.5 437,-77.5 286,-77.5"/>
<text text-anchor="middle" x="361.5" y="-84.9" font-family="Helvetica,sans-Serif" font-size="12.00">parwind::gethollandfields</text>
</a>
</g>
</g>
<!-- Node2&#45;&gt;Node3 -->
<g id="edge2" class="edge">
<title>Node2&#45;&gt;Node3</title>
<path fill="none" stroke="midnightblue" d="M463.88,-89.55C454.93,-89.41 445.93,-89.28 437.21,-89.14"/>
<polygon fill="midnightblue" stroke="midnightblue" points="463.9,-93.05 473.96,-89.71 464.01,-86.05 463.9,-93.05"/>
</g>
<!-- Node4 -->
<g id="node4" class="node">
<title>Node4</title>
<g id="a_node4"><a xlink:href="namespacepahm__drivermod.html#a7ae4571521a5bb4eb55990dd7fb76237" target="_top" xlink:title="Subroutine to run PaHM (timestepping).">
<polygon fill="white" stroke="black" points="83,-75.5 83,-96.5 250,-96.5 250,-75.5 83,-75.5"/>
<text text-anchor="middle" x="166.5" y="-82.9" font-family="Helvetica,sans-Serif" font-size="12.00">pahm_drivermod::pahm_run</text>
</a>
</g>
</g>
<!-- Node3&#45;&gt;Node4 -->
<g id="edge3" class="edge">
<title>Node3&#45;&gt;Node4</title>
<path fill="none" stroke="midnightblue" d="M275.67,-87.12C267.23,-87.03 258.67,-86.94 250.26,-86.86"/>
<polygon fill="midnightblue" stroke="midnightblue" points="275.85,-90.62 285.88,-87.23 275.92,-83.62 275.85,-90.62"/>
</g>
<!-- Node5 -->
<g id="node5" class="node">
<title>Node5</title>
<g id="a_node5"><a xlink:href="pahm_8F90.html#a3d3918f5c5f1ac0a7991a7a78f530f30" target="_top" xlink:title=" ">
<polygon fill="white" stroke="black" points="0,-50.5 0,-71.5 47,-71.5 47,-50.5 0,-50.5"/>
<text text-anchor="middle" x="23.5" y="-57.9" font-family="Helvetica,sans-Serif" font-size="12.00">pahm</text>
</a>
</g>
</g>
<!-- Node4&#45;&gt;Node5 -->
<g id="edge4" class="edge">
<title>Node4&#45;&gt;Node5</title>
<path fill="none" stroke="midnightblue" d="M95.81,-73.64C78.26,-70.53 60.63,-67.41 47.29,-65.04"/>
<polygon fill="midnightblue" stroke="midnightblue" points="95.65,-77.17 106.11,-75.47 96.88,-70.28 95.65,-77.17"/>
</g>
<!-- Node8 -->
<g id="node8" class="node">
<title>Node8</title>
<g id="a_node8"><a xlink:href="namespacepahm__drivermod.html#ae0d4b223a96ba116b38152caf6b0768c" target="_top" xlink:title="Subroutine to initialize a PaHM run.">
<polygon fill="white" stroke="black" points="84,-30.5 84,-51.5 249,-51.5 249,-30.5 84,-30.5"/>
<text text-anchor="middle" x="166.5" y="-37.9" font-family="Helvetica,sans-Serif" font-size="12.00">pahm_drivermod::pahm_init</text>
</a>
</g>
</g>
<!-- Node7&#45;&gt;Node8 -->
<g id="edge7" class="edge">
<title>Node7&#45;&gt;Node8</title>
<path fill="none" stroke="midnightblue" d="M462.37,-18.38C396.92,-23.4 311.22,-29.97 249.09,-34.74"/>
<polygon fill="midnightblue" stroke="midnightblue" points="462.99,-21.84 472.69,-17.58 462.45,-14.86 462.99,-21.84"/>
</g>
<!-- Node8&#45;&gt;Node5 -->
<g id="edge8" class="edge">
<title>Node8&#45;&gt;Node5</title>
<path fill="none" stroke="midnightblue" d="M81.19,-52.96C68.72,-54.73 56.86,-56.41 47.23,-57.78"/>
<polygon fill="midnightblue" stroke="midnightblue" points="81.87,-56.4 91.28,-51.53 80.89,-49.47 81.87,-56.4"/>
</g>
</g>
</svg>
