<?xml version="1.0" encoding="UTF-8" standalone="no"?>
<!DOCTYPE svg PUBLIC "-//W3C//DTD SVG 1.1//EN"
 "http://www.w3.org/Graphics/SVG/1.1/DTD/svg11.dtd">
<!-- Generated by graphviz version 2.42.4 (0)
 -->
<!-- Title: pahm_drivermod::getprogramcmdlargs Pages: 1 -->
<!--zoomable 502 -->
<svg id="main" version="1.1" xmlns="http://www.w3.org/2000/svg" xmlns:xlink="http://www.w3.org/1999/xlink" xml:space="preserve" onload="init(evt)">
<style type="text/css"><![CDATA[
.edge:hover path { stroke: red; }
.edge:hover polygon { stroke: red; fill: red; }
]]></style>
<script type="text/javascript"><![CDATA[
var edges = document.getElementsByTagName('g');
if (edges && edges.length) {
  for (var i=0;i<edges.length;i++) {
    if (edges[i].id.substr(0,4)=='edge') {
      edges[i].setAttribute('class','edge');
    }
  }
}
]]></script>
        <defs>
                <circle id="rim" cx="0" cy="0" r="7"/>
                <circle id="rim2" cx="0" cy="0" r="3.5"/>
                <g id="zoomPlus">
                        <use xlink:href="#rim" fill="#404040">
                                <set attributeName="fill" to="#808080" begin="zoomplus.mouseover" end="zoomplus.mouseout"/>
                        </use>
                        <path d="M-4,0h8M0,-4v8" fill="none" stroke="white" stroke-width="1.5" pointer-events="none"/>
                </g>
                <g id="zoomMin">
                        <use xlink:href="#rim" fill="#404040">
                                <set attributeName="fill" to="#808080" begin="zoomminus.mouseover" end="zoomminus.mouseout"/>
                        </use>
                        <path d="M-4,0h8" fill="none" stroke="white" stroke-width="1.5" pointer-events="none"/>
                </g>
                <g id="dirArrow">
                        <path fill="none" stroke="white" stroke-width="1.5" d="M0,-3.0v7 M-2.5,-0.5L0,-3.0L2.5,-0.5"/>
                </g>
               <g id="resetDef">
                       <use xlink:href="#rim2" fill="#404040">
                               <set attributeName="fill" to="#808080" begin="reset.mouseover" end="reset.mouseout"/>
                       </use>
               </g>
        </defs>

<script type="text/javascript">
var viewWidth = 1055;
var viewHeight = 502;
var sectionId = 'dynsection-0';
</script>
<script xlink:href="svgpan.js"/>
<svg id="graph" class="graph">
<g id="viewport">
<title>pahm_drivermod::getprogramcmdlargs</title>
<polygon fill="white" stroke="transparent" points="-4,4 -4,-498 1051,-498 1051,4 -4,4"/>
<!-- Node1 -->
<g id="node1" class="node">
<title>Node1</title>
<g id="a_node1"><a xlink:title="Prints on the screen the help system of the PaHM program.">
<polygon fill="#bfbfbf" stroke="black" points="0,-412.5 0,-433.5 222,-433.5 222,-412.5 0,-412.5"/>
<text text-anchor="middle" x="111" y="-419.9" font-family="Helvetica,sans-Serif" font-size="12.00">pahm_drivermod::getprogramcmdlargs</text>
</a>
</g>
</g>
<!-- Node2 -->
<g id="node2" class="node">
<title>Node2</title>
<g id="a_node2"><a xlink:href="namespacepahm__messages.html#ad2fb6cca6853de16ee45c8cdebe6190a" target="_top" xlink:title="Initializes logging levels.">
<polygon fill="white" stroke="black" points="264,-471.5 264,-492.5 434,-492.5 434,-471.5 264,-471.5"/>
<text text-anchor="middle" x="349" y="-478.9" font-family="Helvetica,sans-Serif" font-size="12.00">pahm_messages::initlogging</text>
</a>
</g>
</g>
<!-- Node1&#45;&gt;Node2 -->
<g id="edge1" class="edge">
<title>Node1&#45;&gt;Node2</title>
<path fill="none" stroke="midnightblue" d="M154.19,-433.55C193.84,-443.46 253.28,-458.32 295.88,-468.97"/>
<polygon fill="midnightblue" stroke="midnightblue" points="295.23,-472.41 305.78,-471.44 296.92,-465.62 295.23,-472.41"/>
</g>
<!-- Node4 -->
<g id="node4" class="node">
<title>Node4</title>
<g id="a_node4"><a xlink:href="namespacepahm__messages.html#a0bf7cabdd36155ddc9946687defee4ff" target="_top" xlink:title="Prints on the screen the help system of the program.">
<polygon fill="white" stroke="black" points="258,-393.5 258,-414.5 440,-414.5 440,-393.5 258,-393.5"/>
<text text-anchor="middle" x="349" y="-400.9" font-family="Helvetica,sans-Serif" font-size="12.00">pahm_messages::programhelp</text>
</a>
</g>
</g>
<!-- Node1&#45;&gt;Node4 -->
<g id="edge3" class="edge">
<title>Node1&#45;&gt;Node4</title>
<path fill="none" stroke="midnightblue" d="M222.05,-414.14C230.69,-413.44 239.39,-412.74 247.95,-412.05"/>
<polygon fill="midnightblue" stroke="midnightblue" points="248.25,-415.54 257.93,-411.25 247.69,-408.56 248.25,-415.54"/>
</g>
<!-- Node5 -->
<g id="node5" class="node">
<title>Node5</title>
<g id="a_node5"><a xlink:href="namespacepahm__messages.html#a339ae583dc62f85245ae10374b0c677f" target="_top" xlink:title="Prints on the screen the versioning information of the program.">
<polygon fill="white" stroke="black" points="485,-432.5 485,-453.5 682,-453.5 682,-432.5 485,-432.5"/>
<text text-anchor="middle" x="583.5" y="-439.9" font-family="Helvetica,sans-Serif" font-size="12.00">pahm_messages::programversion</text>
</a>
</g>
</g>
<!-- Node1&#45;&gt;Node5 -->
<g id="edge5" class="edge">
<title>Node1&#45;&gt;Node5</title>
<path fill="none" stroke="midnightblue" d="M222.01,-427.68C298.17,-430.91 399.03,-435.2 474.7,-438.42"/>
<polygon fill="midnightblue" stroke="midnightblue" points="474.6,-441.92 484.74,-438.84 474.89,-434.92 474.6,-441.92"/>
</g>
<!-- Node6 -->
<g id="node6" class="node">
<title>Node6</title>
<g id="a_node6"><a xlink:href="namespaceutilities.html#ab095172ef12ae151ab5c9aacf82f4dc6" target="_top" xlink:title="This subroutine reads the program&#39;s main control file.">
<polygon fill="white" stroke="black" points="281,-214.5 281,-235.5 417,-235.5 417,-214.5 281,-214.5"/>
<text text-anchor="middle" x="349" y="-221.9" font-family="Helvetica,sans-Serif" font-size="12.00">utilities::readcontrolfile</text>
</a>
</g>
</g>
<!-- Node1&#45;&gt;Node6 -->
<g id="edge6" class="edge">
<title>Node1&#45;&gt;Node6</title>
<path fill="none" stroke="midnightblue" d="M124.69,-412.35C163.34,-379.92 279.9,-282.13 327.46,-242.23"/>
<polygon fill="midnightblue" stroke="midnightblue" points="329.84,-244.81 335.25,-235.7 325.34,-239.44 329.84,-244.81"/>
</g>
<!-- Node3 -->
<g id="node3" class="node">
<title>Node3</title>
<g id="a_node3"><a xlink:href="namespacepahm__messages.html#a4856e55c31868efd23b7f6ca723004e5" target="_top" xlink:title="Opens the log file for writting.">
<polygon fill="white" stroke="black" points="497,-472.5 497,-493.5 670,-493.5 670,-472.5 497,-472.5"/>
<text text-anchor="middle" x="583.5" y="-479.9" font-family="Helvetica,sans-Serif" font-size="12.00">pahm_messages::openlogfile</text>
</a>
</g>
</g>
<!-- Node2&#45;&gt;Node3 -->
<g id="edge2" class="edge">
<title>Node2&#45;&gt;Node3</title>
<path fill="none" stroke="midnightblue" d="M434.27,-482.36C451.32,-482.44 469.37,-482.51 486.79,-482.59"/>
<polygon fill="midnightblue" stroke="midnightblue" points="486.94,-486.09 496.96,-482.63 486.97,-479.09 486.94,-486.09"/>
</g>
<!-- Node4&#45;&gt;Node5 -->
<g id="edge4" class="edge">
<title>Node4&#45;&gt;Node5</title>
<path fill="none" stroke="midnightblue" d="M412.61,-414.5C442.59,-419.53 478.66,-425.58 509.84,-430.81"/>
<polygon fill="midnightblue" stroke="midnightblue" points="509.34,-434.28 519.78,-432.48 510.49,-427.37 509.34,-434.28"/>
</g>
<!-- Node7 -->
<g id="node7" class="node">
<title>Node7</title>
<g id="a_node7"><a xlink:href="namespaceutilities.html#a1e2f2593103f415e1c073284ff95a83f" target="_top" xlink:title="Checks the user defined control file inputs.">
<polygon fill="white" stroke="black" points="495.5,-156.5 495.5,-177.5 671.5,-177.5 671.5,-156.5 495.5,-156.5"/>
<text text-anchor="middle" x="583.5" y="-163.9" font-family="Helvetica,sans-Serif" font-size="12.00">utilities::checkcontrolfileinputs</text>
</a>
</g>
</g>
<!-- Node6&#45;&gt;Node7 -->
<g id="edge7" class="edge">
<title>Node6&#45;&gt;Node7</title>
<path fill="none" stroke="midnightblue" d="M389.1,-214.49C413.94,-207.87 446.81,-199.25 476,-192 492.41,-187.93 510.28,-183.66 526.62,-179.83"/>
<polygon fill="midnightblue" stroke="midnightblue" points="527.63,-183.19 536.57,-177.51 526.04,-176.38 527.63,-183.19"/>
</g>
<!-- Node8 -->
<g id="node8" class="node">
<title>Node8</title>
<g id="a_node8"><a xlink:href="namespacetimedateutils.html#a6c7acacb9981bb9182378a449e45715b" target="_top" xlink:title="Calculates the conversion factor between time units and seconds.">
<polygon fill="white" stroke="black" points="727,-193.5 727,-214.5 901,-214.5 901,-193.5 727,-193.5"/>
<text text-anchor="middle" x="814" y="-200.9" font-family="Helvetica,sans-Serif" font-size="12.00">timedateutils::gettimeconvsec</text>
</a>
</g>
</g>
<!-- Node6&#45;&gt;Node8 -->
<g id="edge14" class="edge">
<title>Node6&#45;&gt;Node8</title>
<path fill="none" stroke="midnightblue" d="M417.32,-221.95C496.05,-218.38 626.97,-212.44 716.49,-208.38"/>
<polygon fill="midnightblue" stroke="midnightblue" points="716.82,-211.87 726.66,-207.92 716.51,-204.87 716.82,-211.87"/>
</g>
<!-- Node10 -->
<g id="node10" class="node">
<title>Node10</title>
<g id="a_node10"><a xlink:href="namespacetimedateutils.html#a393203cc78370648d0dd392fe96d66ff" target="_top" xlink:title="Pre&#45;processes an arbitrary date string.">
<polygon fill="white" stroke="black" points="747.5,-136.5 747.5,-157.5 880.5,-157.5 880.5,-136.5 747.5,-136.5"/>
<text text-anchor="middle" x="814" y="-143.9" font-family="Helvetica,sans-Serif" font-size="12.00">timedateutils::joindate</text>
</a>
</g>
</g>
<!-- Node6&#45;&gt;Node10 -->
<g id="edge15" class="edge">
<title>Node6&#45;&gt;Node10</title>
<path fill="none" stroke="midnightblue" d="M362.1,-214.21C383.33,-196.1 429.48,-160.23 476,-147 563.02,-122.24 667.89,-127.4 737.28,-135.36"/>
<polygon fill="midnightblue" stroke="midnightblue" points="736.91,-138.84 747.25,-136.55 737.74,-131.89 736.91,-138.84"/>
</g>
<!-- Node11 -->
<g id="node11" class="node">
<title>Node11</title>
<g id="a_node11"><a xlink:href="namespaceutilities.html#a8dff395c74e87d059dadcf8bacdbfedd" target="_top" xlink:title="Convert a string to upper&#45;case.">
<polygon fill="white" stroke="black" points="751,-79.5 751,-100.5 877,-100.5 877,-79.5 751,-79.5"/>
<text text-anchor="middle" x="814" y="-86.9" font-family="Helvetica,sans-Serif" font-size="12.00">utilities::touppercase</text>
</a>
</g>
</g>
<!-- Node6&#45;&gt;Node11 -->
<g id="edge25" class="edge">
<title>Node6&#45;&gt;Node11</title>
<path fill="none" stroke="midnightblue" d="M359.46,-214.17C378.86,-192.82 425.57,-145.56 476,-125 562.18,-89.86 670.56,-84.79 740.78,-86.04"/>
<polygon fill="midnightblue" stroke="midnightblue" points="740.78,-89.54 750.86,-86.27 740.94,-82.54 740.78,-89.54"/>
</g>
<!-- Node12 -->
<g id="node12" class="node">
<title>Node12</title>
<g id="a_node12"><a xlink:href="namespacetimedateutils.html#a565d549493d69e2c9ea5b7af18247df5" target="_top" xlink:title="Constructs a NetCDF time string.">
<polygon fill="white" stroke="black" points="728,-233.5 728,-254.5 900,-254.5 900,-233.5 728,-233.5"/>
<text text-anchor="middle" x="814" y="-240.9" font-family="Helvetica,sans-Serif" font-size="12.00">timedateutils::datetime2string</text>
</a>
</g>
</g>
<!-- Node6&#45;&gt;Node12 -->
<g id="edge12" class="edge">
<title>Node6&#45;&gt;Node12</title>
<path fill="none" stroke="midnightblue" d="M417.32,-227.76C496.41,-231.01 628.18,-236.42 717.73,-240.09"/>
<polygon fill="midnightblue" stroke="midnightblue" points="717.75,-243.59 727.89,-240.51 718.04,-236.6 717.75,-243.59"/>
</g>
<!-- Node13 -->
<g id="node13" class="node">
<title>Node13</title>
<g id="a_node13"><a xlink:href="namespacetimedateutils.html#abc63ac16baec18b6c9bb2ee6e0400a63" target="_top" xlink:title="Determines the Julian date from a Gregorian date.">
<polygon fill="white" stroke="black" points="506,-0.5 506,-21.5 661,-21.5 661,-0.5 506,-0.5"/>
<text text-anchor="middle" x="583.5" y="-7.9" font-family="Helvetica,sans-Serif" font-size="12.00">timedateutils::juldaytogreg</text>
</a>
</g>
</g>
<!-- Node6&#45;&gt;Node13 -->
<g id="edge16" class="edge">
<title>Node6&#45;&gt;Node13</title>
<path fill="none" stroke="midnightblue" d="M353.45,-214.45C364.9,-181.29 404.93,-78.61 476,-31 482.18,-26.86 488.99,-23.52 496.09,-20.84"/>
<polygon fill="midnightblue" stroke="midnightblue" points="497.53,-24.05 505.92,-17.57 495.32,-17.4 497.53,-24.05"/>
</g>
<!-- Node14 -->
<g id="node14" class="node">
<title>Node14</title>
<g id="a_node14"><a xlink:href="namespaceutilities.html#a062355064a86a716b2ddff1aa0cd3fb4" target="_top" xlink:title="This function loads input values into a requested model integer variable.">
<polygon fill="white" stroke="black" points="527,-392.5 527,-413.5 640,-413.5 640,-392.5 527,-392.5"/>
<text text-anchor="middle" x="583.5" y="-399.9" font-family="Helvetica,sans-Serif" font-size="12.00">utilities::loadintvar</text>
</a>
</g>
</g>
<!-- Node6&#45;&gt;Node14 -->
<g id="edge17" class="edge">
<title>Node6&#45;&gt;Node14</title>
<path fill="none" stroke="midnightblue" d="M355.03,-235.61C369.37,-264.59 413.47,-345.38 476,-383 488.19,-390.34 502.48,-395.08 516.56,-398.13"/>
<polygon fill="midnightblue" stroke="midnightblue" points="516.26,-401.64 526.74,-400.06 517.56,-394.76 516.26,-401.64"/>
</g>
<!-- Node15 -->
<g id="node15" class="node">
<title>Node15</title>
<g id="a_node15"><a xlink:href="namespaceutilities.html#a4a70a4be51dcd79bc46b6cfcb2d2ac0a" target="_top" xlink:title="This function loads input values into a requested model real variable.">
<polygon fill="white" stroke="black" points="523.5,-352.5 523.5,-373.5 643.5,-373.5 643.5,-352.5 523.5,-352.5"/>
<text text-anchor="middle" x="583.5" y="-359.9" font-family="Helvetica,sans-Serif" font-size="12.00">utilities::loadrealvar</text>
</a>
</g>
</g>
<!-- Node6&#45;&gt;Node15 -->
<g id="edge18" class="edge">
<title>Node6&#45;&gt;Node15</title>
<path fill="none" stroke="midnightblue" d="M357.78,-235.58C375.71,-259.12 422.54,-315.9 476,-343 487.57,-348.86 500.63,-353.02 513.53,-355.96"/>
<polygon fill="midnightblue" stroke="midnightblue" points="512.85,-359.39 523.35,-357.98 514.26,-352.54 512.85,-359.39"/>
</g>
<!-- Node16 -->
<g id="node16" class="node">
<title>Node16</title>
<g id="a_node16"><a xlink:href="namespaceutilities.html#ab30d13ba0fcebcb933a30be2237ec162" target="_top" xlink:title="This function parses lines of text from input script/control files.">
<polygon fill="white" stroke="black" points="528.5,-40.5 528.5,-61.5 638.5,-61.5 638.5,-40.5 528.5,-40.5"/>
<text text-anchor="middle" x="583.5" y="-47.9" font-family="Helvetica,sans-Serif" font-size="12.00">utilities::parseline</text>
</a>
</g>
</g>
<!-- Node6&#45;&gt;Node16 -->
<g id="edge19" class="edge">
<title>Node6&#45;&gt;Node16</title>
<path fill="none" stroke="midnightblue" d="M355.73,-214.34C371.17,-186.72 416.49,-112.46 476,-76 488.76,-68.18 503.76,-62.81 518.41,-59.11"/>
<polygon fill="midnightblue" stroke="midnightblue" points="519.49,-62.45 528.46,-56.81 517.93,-55.63 519.49,-62.45"/>
</g>
<!-- Node18 -->
<g id="node18" class="node">
<title>Node18</title>
<g id="a_node18"><a xlink:href="namespaceutilities.html#a57953a3306e17ea2e28254e3d2091516" target="_top" xlink:title="This subroutine prints on the screen the values of the program&#39;s parameters.">
<polygon fill="white" stroke="black" points="505.5,-312.5 505.5,-333.5 661.5,-333.5 661.5,-312.5 505.5,-312.5"/>
<text text-anchor="middle" x="583.5" y="-319.9" font-family="Helvetica,sans-Serif" font-size="12.00">utilities::printmodelparams</text>
</a>
</g>
</g>
<!-- Node6&#45;&gt;Node18 -->
<g id="edge22" class="edge">
<title>Node6&#45;&gt;Node18</title>
<path fill="none" stroke="midnightblue" d="M363.46,-235.7C385.58,-252.72 431.62,-285.79 476,-303 482.81,-305.64 490.01,-307.94 497.32,-309.95"/>
<polygon fill="midnightblue" stroke="midnightblue" points="496.77,-313.42 507.33,-312.49 498.5,-306.63 496.77,-313.42"/>
</g>
<!-- Node20 -->
<g id="node20" class="node">
<title>Node20</title>
<g id="a_node20"><a xlink:href="namespacepahm__messages.html#acf0c696cc1604842ee84a5df6d81179c" target="_top" xlink:title="Sets the name of the subroutine that is writing log and/or screen messages.">
<polygon fill="white" stroke="black" points="476,-272.5 476,-293.5 691,-293.5 691,-272.5 476,-272.5"/>
<text text-anchor="middle" x="583.5" y="-279.9" font-family="Helvetica,sans-Serif" font-size="12.00">pahm_messages::setmessagesource</text>
</a>
</g>
</g>
<!-- Node6&#45;&gt;Node20 -->
<g id="edge24" class="edge">
<title>Node6&#45;&gt;Node20</title>
<path fill="none" stroke="midnightblue" d="M389.1,-235.51C413.94,-242.13 446.81,-250.75 476,-258 492.41,-262.07 510.28,-266.34 526.62,-270.17"/>
<polygon fill="midnightblue" stroke="midnightblue" points="526.04,-273.62 536.57,-272.49 527.63,-266.81 526.04,-273.62"/>
</g>
<!-- Node7&#45;&gt;Node8 -->
<g id="edge8" class="edge">
<title>Node7&#45;&gt;Node8</title>
<path fill="none" stroke="midnightblue" d="M649.37,-177.5C676.99,-181.98 709.37,-187.22 738.01,-191.86"/>
<polygon fill="midnightblue" stroke="midnightblue" points="737.54,-195.33 747.97,-193.47 738.66,-188.42 737.54,-195.33"/>
</g>
<!-- Node7&#45;&gt;Node10 -->
<g id="edge10" class="edge">
<title>Node7&#45;&gt;Node10</title>
<path fill="none" stroke="midnightblue" d="M671.54,-159.38C693.11,-157.49 716.05,-155.49 737.04,-153.65"/>
<polygon fill="midnightblue" stroke="midnightblue" points="737.52,-157.12 747.18,-152.76 736.91,-150.15 737.52,-157.12"/>
</g>
<!-- Node7&#45;&gt;Node11 -->
<g id="edge11" class="edge">
<title>Node7&#45;&gt;Node11</title>
<path fill="none" stroke="midnightblue" d="M615.79,-156.45C656.36,-142.78 727.2,-118.91 772.02,-103.81"/>
<polygon fill="midnightblue" stroke="midnightblue" points="773.36,-107.05 781.72,-100.54 771.13,-100.42 773.36,-107.05"/>
</g>
<!-- Node9 -->
<g id="node9" class="node">
<title>Node9</title>
<g id="a_node9"><a xlink:href="namespacetimedateutils.html#a09a914846a02d3d430348f83c67d58b5" target="_top" xlink:title="Convert a string to upper&#45;case.">
<polygon fill="white" stroke="black" points="937,-213.5 937,-234.5 1047,-234.5 1047,-213.5 937,-213.5"/>
<text text-anchor="middle" x="992" y="-220.9" font-family="Helvetica,sans-Serif" font-size="12.00">timedateutils::upp</text>
</a>
</g>
</g>
<!-- Node8&#45;&gt;Node9 -->
<g id="edge9" class="edge">
<title>Node8&#45;&gt;Node9</title>
<path fill="none" stroke="midnightblue" d="M901.2,-213.79C909.86,-214.78 918.56,-215.77 926.94,-216.72"/>
<polygon fill="midnightblue" stroke="midnightblue" points="926.65,-220.21 936.98,-217.86 927.44,-213.25 926.65,-220.21"/>
</g>
<!-- Node12&#45;&gt;Node9 -->
<g id="edge13" class="edge">
<title>Node12&#45;&gt;Node9</title>
<path fill="none" stroke="midnightblue" d="M900.16,-234.32C909.12,-233.3 918.11,-232.28 926.78,-231.3"/>
<polygon fill="midnightblue" stroke="midnightblue" points="927.23,-234.77 936.77,-230.16 926.44,-227.81 927.23,-234.77"/>
</g>
<!-- Node16&#45;&gt;Node11 -->
<g id="edge21" class="edge">
<title>Node16&#45;&gt;Node11</title>
<path fill="none" stroke="midnightblue" d="M638.65,-60.24C669.27,-65.47 707.94,-72.07 741.07,-77.72"/>
<polygon fill="midnightblue" stroke="midnightblue" points="740.72,-81.21 751.16,-79.45 741.9,-74.31 740.72,-81.21"/>
</g>
<!-- Node17 -->
<g id="node17" class="node">
<title>Node17</title>
<g id="a_node17"><a xlink:href="namespaceutilities.html#a8723656afba63e33ed1c6cc8e5440b63" target="_top" xlink:title="Gets a line from a file.">
<polygon fill="white" stroke="black" points="749,-39.5 749,-60.5 879,-60.5 879,-39.5 749,-39.5"/>
<text text-anchor="middle" x="814" y="-46.9" font-family="Helvetica,sans-Serif" font-size="12.00">utilities::getlinerecord</text>
</a>
</g>
</g>
<!-- Node16&#45;&gt;Node17 -->
<g id="edge20" class="edge">
<title>Node16&#45;&gt;Node17</title>
<path fill="none" stroke="midnightblue" d="M638.65,-50.76C668.42,-50.63 705.81,-50.47 738.31,-50.33"/>
<polygon fill="midnightblue" stroke="midnightblue" points="738.7,-53.83 748.68,-50.28 738.66,-46.83 738.7,-53.83"/>
</g>
<!-- Node19 -->
<g id="node19" class="node">
<title>Node19</title>
<g id="a_node19"><a xlink:href="namespaceutilities.html#a376978b945cbdf5d33ff8bf905d19866" target="_top" xlink:title="Convert a string to lower&#45;case.">
<polygon fill="white" stroke="black" points="752,-312.5 752,-333.5 876,-333.5 876,-312.5 752,-312.5"/>
<text text-anchor="middle" x="814" y="-319.9" font-family="Helvetica,sans-Serif" font-size="12.00">utilities::tolowercase</text>
</a>
</g>
</g>
<!-- Node18&#45;&gt;Node19 -->
<g id="edge23" class="edge">
<title>Node18&#45;&gt;Node19</title>
<path fill="none" stroke="midnightblue" d="M661.54,-323C687.39,-323 716.09,-323 741.5,-323"/>
<polygon fill="midnightblue" stroke="midnightblue" points="741.8,-326.5 751.8,-323 741.8,-319.5 741.8,-326.5"/>
</g>
</g>
</svg>
        <g id="navigator" transform="translate(0 0)" fill="#404254">
                <rect fill="#f2f5e9" fill-opacity="0.5" stroke="#606060" stroke-width=".5" x="0" y="0" width="60" height="60"/>
                <use id="zoomplus" xlink:href="#zoomPlus" x="17" y="9" onmousedown="handleZoom(evt,'in')"/>
                <use id="zoomminus" xlink:href="#zoomMin" x="42" y="9" onmousedown="handleZoom(evt,'out')"/>
                <use id="reset" xlink:href="#resetDef" x="30" y="36" onmousedown="handleReset()"/>
                <g id="arrowUp" xlink:href="#dirArrow" transform="translate(30 24)" onmousedown="handlePan(0,-1)">
                  <use xlink:href="#rim" fill="#404040">
                        <set attributeName="fill" to="#808080" begin="arrowUp.mouseover" end="arrowUp.mouseout"/>
                  </use>
                  <path fill="none" stroke="white" stroke-width="1.5" d="M0,-3.0v7 M-2.5,-0.5L0,-3.0L2.5,-0.5"/>
                </g>
                <g id="arrowRight" xlink:href="#dirArrow" transform="rotate(90) translate(36 -43)" onmousedown="handlePan(1,0)">
                  <use xlink:href="#rim" fill="#404040">
                        <set attributeName="fill" to="#808080" begin="arrowRight.mouseover" end="arrowRight.mouseout"/>
                  </use>
                  <path fill="none" stroke="white" stroke-width="1.5" d="M0,-3.0v7 M-2.5,-0.5L0,-3.0L2.5,-0.5"/>
                </g>
                <g id="arrowDown" xlink:href="#dirArrow" transform="rotate(180) translate(-30 -48)" onmousedown="handlePan(0,1)">
                  <use xlink:href="#rim" fill="#404040">
                        <set attributeName="fill" to="#808080" begin="arrowDown.mouseover" end="arrowDown.mouseout"/>
                  </use>
                  <path fill="none" stroke="white" stroke-width="1.5" d="M0,-3.0v7 M-2.5,-0.5L0,-3.0L2.5,-0.5"/>
                </g>
                <g id="arrowLeft" xlink:href="#dirArrow" transform="rotate(270) translate(-36 17)" onmousedown="handlePan(-1,0)">
                  <use xlink:href="#rim" fill="#404040">
                        <set attributeName="fill" to="#808080" begin="arrowLeft.mouseover" end="arrowLeft.mouseout"/>
                  </use>
                  <path fill="none" stroke="white" stroke-width="1.5" d="M0,-3.0v7 M-2.5,-0.5L0,-3.0L2.5,-0.5"/>
                </g>
        </g>
        <svg viewBox="0 0 15 15" width="100%" height="30px" preserveAspectRatio="xMaxYMin meet">
         <g id="arrow_out" transform="scale(0.3 0.3)">
          <a xlink:href="namespacepahm__drivermod_a3294ddc68b72ff9220010a8764a8afe3_cgraph_org.svg" target="_base">
           <rect id="button" ry="5" rx="5" y="6" x="6" height="38" width="38"
                fill="#f2f5e9" fill-opacity="0.5" stroke="#606060" stroke-width="1.0"/>
           <path id="arrow"
             d="M 11.500037,31.436501 C 11.940474,20.09759 22.043105,11.32322 32.158766,21.979434 L 37.068811,17.246167 C 37.068811,17.246167 37.088388,32 37.088388,32 L 22.160133,31.978069 C 22.160133,31.978069 26.997745,27.140456 26.997745,27.140456 C 18.528582,18.264221 13.291696,25.230495 11.500037,31.436501 z"
             style="fill:#404040;"/>
          </a>
         </g>
        </svg>
</svg>
