<?xml version="1.0" encoding="UTF-8" standalone="no"?>
<!DOCTYPE svg PUBLIC "-//W3C//DTD SVG 1.1//EN"
 "http://www.w3.org/Graphics/SVG/1.1/DTD/svg11.dtd">
<!-- Generated by graphviz version 2.42.4 (0)
 -->
<!-- Title: csv_module::csv_file::get Pages: 1 -->
<svg width="778pt" height="395pt"
 viewBox="0.00 0.00 778.00 394.50" xmlns="http://www.w3.org/2000/svg" xmlns:xlink="http://www.w3.org/1999/xlink">
<g id="graph0" class="graph" transform="scale(1 1) rotate(0) translate(4 390.5)">
<title>csv_module::csv_file::get</title>
<polygon fill="white" stroke="transparent" points="-4,4 -4,-390.5 774,-390.5 774,4 -4,4"/>
<!-- Node1 -->
<g id="node1" class="node">
<title>Node1</title>
<g id="a_node1"><a xlink:title=" ">
<polygon fill="#bfbfbf" stroke="black" points="0,-166 0,-187 150,-187 150,-166 0,-166"/>
<text text-anchor="middle" x="75" y="-173.4" font-family="Helvetica,sans-Serif" font-size="12.00">csv_module::csv_file::get</text>
</a>
</g>
</g>
<!-- Node2 -->
<g id="node2" class="node">
<title>Node2</title>
<g id="a_node2"><a xlink:href="namespacecsv__module.html#a650414ac2ed01f87425f588c2daba839" target="_top" xlink:title="Get an individual value from the &#39;csv_data&#39; structure in the CSV class.">
<polygon fill="white" stroke="black" points="202,-318.5 202,-352.5 330,-352.5 330,-318.5 202,-318.5"/>
<text text-anchor="start" x="210" y="-338.9" font-family="Helvetica,sans-Serif" font-size="12.00">csv_module::csv_get</text>
<text text-anchor="middle" x="266" y="-325.9" font-family="Helvetica,sans-Serif" font-size="12.00">_value</text>
</a>
</g>
</g>
<!-- Node1&#45;&gt;Node2 -->
<g id="edge1" class="edge">
<title>Node1&#45;&gt;Node2</title>
<path fill="none" stroke="midnightblue" d="M81.94,-187.2C96.42,-212.3 136.01,-275.38 186,-309.5 188.14,-310.96 190.37,-312.34 192.66,-313.65"/>
<polygon fill="midnightblue" stroke="midnightblue" points="191.28,-316.88 201.78,-318.35 194.49,-310.66 191.28,-316.88"/>
</g>
<!-- Node7 -->
<g id="node7" class="node">
<title>Node7</title>
<g id="a_node7"><a xlink:href="namespacecsv__module.html#a927fb75f11713d7777f1fe0193300074" target="_top" xlink:title="Convert a column from a &#39;csv_string&#39; matrix to a &#39;character(len=*)&#39; vector.">
<polygon fill="white" stroke="black" points="186,-106.5 186,-140.5 346,-140.5 346,-106.5 186,-106.5"/>
<text text-anchor="start" x="194" y="-126.9" font-family="Helvetica,sans-Serif" font-size="12.00">csv_module::get_character</text>
<text text-anchor="middle" x="266" y="-113.9" font-family="Helvetica,sans-Serif" font-size="12.00">_column</text>
</a>
</g>
</g>
<!-- Node1&#45;&gt;Node7 -->
<g id="edge6" class="edge">
<title>Node1&#45;&gt;Node7</title>
<path fill="none" stroke="midnightblue" d="M113.79,-165.9C136.82,-159.44 166.97,-150.99 194.29,-143.33"/>
<polygon fill="midnightblue" stroke="midnightblue" points="195.52,-146.62 204.21,-140.55 193.63,-139.88 195.52,-146.62"/>
</g>
<!-- Node10 -->
<g id="node10" class="node">
<title>Node10</title>
<g id="a_node10"><a xlink:href="namespacecsv__module.html#a3a80796da0c4249bd569bb195e91f0da" target="_top" xlink:title="Returns a &#39;character(len=*)&#39; array containing the csv data (&#39;read&#39; must have already been called to r...">
<polygon fill="white" stroke="black" points="202,-53.5 202,-87.5 330,-87.5 330,-53.5 202,-53.5"/>
<text text-anchor="start" x="210" y="-73.9" font-family="Helvetica,sans-Serif" font-size="12.00">csv_module::get_csv</text>
<text text-anchor="middle" x="266" y="-60.9" font-family="Helvetica,sans-Serif" font-size="12.00">_data_as_str</text>
</a>
</g>
</g>
<!-- Node1&#45;&gt;Node10 -->
<g id="edge9" class="edge">
<title>Node1&#45;&gt;Node10</title>
<path fill="none" stroke="midnightblue" d="M88.03,-165.78C107.42,-148.97 147.33,-116.31 186,-96.5 189.51,-94.7 193.18,-92.99 196.92,-91.37"/>
<polygon fill="midnightblue" stroke="midnightblue" points="198.41,-94.54 206.35,-87.52 195.76,-88.06 198.41,-94.54"/>
</g>
<!-- Node11 -->
<g id="node11" class="node">
<title>Node11</title>
<g id="a_node11"><a xlink:href="namespacecsv__module.html#a5a4ceefb76bd849ea02ae885ae197594" target="_top" xlink:title="Convert a column from a &#39;csv_string&#39; matrix to a &#39;type(csv_string)&#39; vector.">
<polygon fill="white" stroke="black" points="202,-0.5 202,-34.5 330,-34.5 330,-0.5 202,-0.5"/>
<text text-anchor="start" x="210" y="-20.9" font-family="Helvetica,sans-Serif" font-size="12.00">csv_module::get_csv</text>
<text text-anchor="middle" x="266" y="-7.9" font-family="Helvetica,sans-Serif" font-size="12.00">_string_column</text>
</a>
</g>
</g>
<!-- Node1&#45;&gt;Node11 -->
<g id="edge12" class="edge">
<title>Node1&#45;&gt;Node11</title>
<path fill="none" stroke="midnightblue" d="M81.94,-165.8C96.42,-140.7 136.01,-77.62 186,-43.5 188.14,-42.04 190.37,-40.66 192.66,-39.35"/>
<polygon fill="midnightblue" stroke="midnightblue" points="194.49,-42.34 201.78,-34.65 191.28,-36.12 194.49,-42.34"/>
</g>
<!-- Node12 -->
<g id="node12" class="node">
<title>Node12</title>
<g id="a_node12"><a xlink:href="namespacecsv__module.html#a9847f10986d9a798bbe51ab9c092ede2" target="_top" xlink:title="Return a column from a CSV file as a &#39;integer(ip)&#39; vector.">
<polygon fill="white" stroke="black" points="192.5,-265.5 192.5,-299.5 339.5,-299.5 339.5,-265.5 192.5,-265.5"/>
<text text-anchor="start" x="200.5" y="-285.9" font-family="Helvetica,sans-Serif" font-size="12.00">csv_module::get_integer</text>
<text text-anchor="middle" x="266" y="-272.9" font-family="Helvetica,sans-Serif" font-size="12.00">_column</text>
</a>
</g>
</g>
<!-- Node1&#45;&gt;Node12 -->
<g id="edge15" class="edge">
<title>Node1&#45;&gt;Node12</title>
<path fill="none" stroke="midnightblue" d="M88.03,-187.22C107.42,-204.03 147.33,-236.69 186,-256.5 189.51,-258.3 193.18,-260.01 196.92,-261.63"/>
<polygon fill="midnightblue" stroke="midnightblue" points="195.76,-264.94 206.35,-265.48 198.41,-258.46 195.76,-264.94"/>
</g>
<!-- Node13 -->
<g id="node13" class="node">
<title>Node13</title>
<g id="a_node13"><a xlink:href="namespacecsv__module.html#a791a2afbb75c69e6cd2cff20f41be9c5" target="_top" xlink:title="Convert a column from a &#39;csv_string&#39; matrix to a &#39;logical&#39; vector.">
<polygon fill="white" stroke="black" points="193,-212.5 193,-246.5 339,-246.5 339,-212.5 193,-212.5"/>
<text text-anchor="start" x="201" y="-232.9" font-family="Helvetica,sans-Serif" font-size="12.00">csv_module::get_logical</text>
<text text-anchor="middle" x="266" y="-219.9" font-family="Helvetica,sans-Serif" font-size="12.00">_column</text>
</a>
</g>
</g>
<!-- Node1&#45;&gt;Node13 -->
<g id="edge18" class="edge">
<title>Node1&#45;&gt;Node13</title>
<path fill="none" stroke="midnightblue" d="M113.79,-187.1C136.82,-193.56 166.97,-202.01 194.29,-209.67"/>
<polygon fill="midnightblue" stroke="midnightblue" points="193.63,-213.12 204.21,-212.45 195.52,-206.38 193.63,-213.12"/>
</g>
<!-- Node14 -->
<g id="node14" class="node">
<title>Node14</title>
<g id="a_node14"><a xlink:href="namespacecsv__module.html#a930d4cf8629ce9f0ee7cc45c7e3ab5a3" target="_top" xlink:title="Return a column from a CSV file as a &#39;real(wp)&#39; vector.">
<polygon fill="white" stroke="black" points="200.5,-159.5 200.5,-193.5 331.5,-193.5 331.5,-159.5 200.5,-159.5"/>
<text text-anchor="start" x="208.5" y="-179.9" font-family="Helvetica,sans-Serif" font-size="12.00">csv_module::get_real</text>
<text text-anchor="middle" x="266" y="-166.9" font-family="Helvetica,sans-Serif" font-size="12.00">_column</text>
</a>
</g>
</g>
<!-- Node1&#45;&gt;Node14 -->
<g id="edge21" class="edge">
<title>Node1&#45;&gt;Node14</title>
<path fill="none" stroke="midnightblue" d="M150.16,-176.5C163.21,-176.5 176.81,-176.5 189.89,-176.5"/>
<polygon fill="midnightblue" stroke="midnightblue" points="190.25,-180 200.25,-176.5 190.25,-173 190.25,-180"/>
</g>
<!-- Node3 -->
<g id="node3" class="node">
<title>Node3</title>
<g id="a_node3"><a xlink:href="namespacecsv__module.html#a6be3694bd93818db748eba1dfbedbbc8" target="_top" xlink:title="Converts a string to a &#39;integer(ip)&#39;.">
<polygon fill="white" stroke="black" points="426,-365 426,-386 566,-386 566,-365 426,-365"/>
<text text-anchor="middle" x="496" y="-372.4" font-family="Helvetica,sans-Serif" font-size="12.00">csv_module::to_integer</text>
</a>
</g>
</g>
<!-- Node2&#45;&gt;Node3 -->
<g id="edge2" class="edge">
<title>Node2&#45;&gt;Node3</title>
<path fill="none" stroke="midnightblue" d="M330.21,-346.59C359.57,-351.74 394.59,-357.88 424.77,-363.18"/>
<polygon fill="midnightblue" stroke="midnightblue" points="424.36,-366.66 434.81,-364.94 425.57,-359.77 424.36,-366.66"/>
</g>
<!-- Node4 -->
<g id="node4" class="node">
<title>Node4</title>
<g id="a_node4"><a xlink:href="namespacecsv__module.html#afdb32ff9495b79418037e3fae406e67f" target="_top" xlink:title="Converts a string to a &#39;logical&#39;.">
<polygon fill="white" stroke="black" points="426.5,-325 426.5,-346 565.5,-346 565.5,-325 426.5,-325"/>
<text text-anchor="middle" x="496" y="-332.4" font-family="Helvetica,sans-Serif" font-size="12.00">csv_module::to_logical</text>
</a>
</g>
</g>
<!-- Node2&#45;&gt;Node4 -->
<g id="edge3" class="edge">
<title>Node2&#45;&gt;Node4</title>
<path fill="none" stroke="midnightblue" d="M330.21,-335.5C356.85,-335.5 388.15,-335.5 416.27,-335.5"/>
<polygon fill="midnightblue" stroke="midnightblue" points="416.47,-339 426.47,-335.5 416.47,-332 416.47,-339"/>
</g>
<!-- Node6 -->
<g id="node6" class="node">
<title>Node6</title>
<g id="a_node6"><a xlink:href="namespacecsv__module.html#afa16fb149f3106c9326e9c31a8bb083f" target="_top" xlink:title="Converts a string to a &#39;real(wp)&#39;.">
<polygon fill="white" stroke="black" points="434,-285 434,-306 558,-306 558,-285 434,-285"/>
<text text-anchor="middle" x="496" y="-292.4" font-family="Helvetica,sans-Serif" font-size="12.00">csv_module::to_real</text>
</a>
</g>
</g>
<!-- Node2&#45;&gt;Node6 -->
<g id="edge5" class="edge">
<title>Node2&#45;&gt;Node6</title>
<path fill="none" stroke="midnightblue" d="M330.21,-324.41C359.57,-319.26 394.59,-313.12 424.77,-307.82"/>
<polygon fill="midnightblue" stroke="midnightblue" points="425.57,-311.23 434.81,-306.06 424.36,-304.34 425.57,-311.23"/>
</g>
<!-- Node5 -->
<g id="node5" class="node">
<title>Node5</title>
<g id="a_node5"><a xlink:href="namespaceutilities.html#a376978b945cbdf5d33ff8bf905d19866" target="_top" xlink:title="Convert a string to lower&#45;case.">
<polygon fill="white" stroke="black" points="646,-325 646,-346 770,-346 770,-325 646,-325"/>
<text text-anchor="middle" x="708" y="-332.4" font-family="Helvetica,sans-Serif" font-size="12.00">utilities::tolowercase</text>
</a>
</g>
</g>
<!-- Node4&#45;&gt;Node5 -->
<g id="edge4" class="edge">
<title>Node4&#45;&gt;Node5</title>
<path fill="none" stroke="midnightblue" d="M565.76,-335.5C588.17,-335.5 613.08,-335.5 635.67,-335.5"/>
<polygon fill="midnightblue" stroke="midnightblue" points="635.87,-339 645.87,-335.5 635.87,-332 635.87,-339"/>
</g>
<!-- Node8 -->
<g id="node8" class="node">
<title>Node8</title>
<g id="a_node8"><a xlink:href="namespacepahm__messages.html#acf0c696cc1604842ee84a5df6d81179c" target="_top" xlink:title="Sets the name of the subroutine that is writing log and/or screen messages.">
<polygon fill="white" stroke="black" points="388.5,-116 388.5,-137 603.5,-137 603.5,-116 388.5,-116"/>
<text text-anchor="middle" x="496" y="-123.4" font-family="Helvetica,sans-Serif" font-size="12.00">pahm_messages::setmessagesource</text>
</a>
</g>
</g>
<!-- Node7&#45;&gt;Node8 -->
<g id="edge7" class="edge">
<title>Node7&#45;&gt;Node8</title>
<path fill="none" stroke="midnightblue" d="M346.1,-124.54C356.54,-124.68 367.41,-124.82 378.31,-124.96"/>
<polygon fill="midnightblue" stroke="midnightblue" points="378.28,-128.46 388.32,-125.1 378.37,-121.47 378.28,-128.46"/>
</g>
<!-- Node9 -->
<g id="node9" class="node">
<title>Node9</title>
<g id="a_node9"><a xlink:href="namespacepahm__messages.html#ad35e9f2327aad65d4c669e3d886f54dc" target="_top" xlink:title="Removes the name of the subroutine that is no longer active.">
<polygon fill="white" stroke="black" points="382,-160 382,-181 610,-181 610,-160 382,-160"/>
<text text-anchor="middle" x="496" y="-167.4" font-family="Helvetica,sans-Serif" font-size="12.00">pahm_messages::unsetmessagesource</text>
</a>
</g>
</g>
<!-- Node7&#45;&gt;Node9 -->
<g id="edge8" class="edge">
<title>Node7&#45;&gt;Node9</title>
<path fill="none" stroke="midnightblue" d="M346.1,-139.81C374.84,-145.73 406.86,-152.33 433.81,-157.89"/>
<polygon fill="midnightblue" stroke="midnightblue" points="433.38,-161.37 443.88,-159.96 434.79,-154.52 433.38,-161.37"/>
</g>
<!-- Node10&#45;&gt;Node8 -->
<g id="edge10" class="edge">
<title>Node10&#45;&gt;Node8</title>
<path fill="none" stroke="midnightblue" d="M330.21,-86.02C365.44,-94.68 408.81,-105.33 442.21,-113.53"/>
<polygon fill="midnightblue" stroke="midnightblue" points="441.69,-117.01 452.24,-116 443.36,-110.21 441.69,-117.01"/>
</g>
<!-- Node10&#45;&gt;Node9 -->
<g id="edge11" class="edge">
<title>Node10&#45;&gt;Node9</title>
<path fill="none" stroke="midnightblue" d="M330.06,-87.12C335.7,-89.81 341.11,-92.92 346,-96.5 368.09,-112.68 359.07,-131.54 382,-146.5 388.01,-150.42 394.54,-153.71 401.33,-156.47"/>
<polygon fill="midnightblue" stroke="midnightblue" points="400.14,-159.76 410.73,-159.92 402.55,-153.19 400.14,-159.76"/>
</g>
<!-- Node11&#45;&gt;Node8 -->
<g id="edge13" class="edge">
<title>Node11&#45;&gt;Node8</title>
<path fill="none" stroke="midnightblue" d="M323.18,-34.52C330.93,-37.29 338.73,-40.31 346,-43.5 391.27,-63.34 440.86,-92.6 469.88,-110.56"/>
<polygon fill="midnightblue" stroke="midnightblue" points="468.21,-113.64 478.55,-115.96 471.92,-107.7 468.21,-113.64"/>
</g>
<!-- Node11&#45;&gt;Node9 -->
<g id="edge14" class="edge">
<title>Node11&#45;&gt;Node9</title>
<path fill="none" stroke="midnightblue" d="M330.09,-32.09C335.92,-35.19 341.36,-38.95 346,-43.5 380.6,-77.47 345.6,-114.45 382,-146.5 385.75,-149.81 389.85,-152.69 394.18,-155.22"/>
<polygon fill="midnightblue" stroke="midnightblue" points="392.88,-158.48 403.38,-159.9 396.05,-152.24 392.88,-158.48"/>
</g>
<!-- Node12&#45;&gt;Node8 -->
<g id="edge16" class="edge">
<title>Node12&#45;&gt;Node8</title>
<path fill="none" stroke="midnightblue" d="M334.69,-265.32C338.79,-262.77 342.61,-259.85 346,-256.5 381.35,-221.49 344.8,-183.54 382,-150.5 385.74,-147.18 389.82,-144.28 394.15,-141.74"/>
<polygon fill="midnightblue" stroke="midnightblue" points="396.02,-144.72 403.33,-137.05 392.83,-138.48 396.02,-144.72"/>
</g>
<!-- Node12&#45;&gt;Node9 -->
<g id="edge17" class="edge">
<title>Node12&#45;&gt;Node9</title>
<path fill="none" stroke="midnightblue" d="M323.64,-265.43C331.25,-262.68 338.88,-259.68 346,-256.5 391.76,-236.03 441.56,-205.43 470.44,-186.79"/>
<polygon fill="midnightblue" stroke="midnightblue" points="472.58,-189.57 479.05,-181.18 468.76,-183.71 472.58,-189.57"/>
</g>
<!-- Node13&#45;&gt;Node8 -->
<g id="edge19" class="edge">
<title>Node13&#45;&gt;Node8</title>
<path fill="none" stroke="midnightblue" d="M329.74,-212.33C335.5,-209.52 341.03,-206.26 346,-202.5 368.42,-185.55 358.6,-166.07 382,-150.5 387.78,-146.65 394.06,-143.41 400.6,-140.68"/>
<polygon fill="midnightblue" stroke="midnightblue" points="402.21,-143.81 410.34,-137.02 399.75,-137.26 402.21,-143.81"/>
</g>
<!-- Node13&#45;&gt;Node9 -->
<g id="edge20" class="edge">
<title>Node13&#45;&gt;Node9</title>
<path fill="none" stroke="midnightblue" d="M332.95,-212.43C368.47,-203.24 411.6,-192.08 444.44,-183.58"/>
<polygon fill="midnightblue" stroke="midnightblue" points="445.47,-186.93 454.28,-181.04 443.72,-180.16 445.47,-186.93"/>
</g>
<!-- Node14&#45;&gt;Node8 -->
<g id="edge22" class="edge">
<title>Node14&#45;&gt;Node8</title>
<path fill="none" stroke="midnightblue" d="M331.74,-161.71C348.13,-158.01 365.7,-154.07 382,-150.5 399.11,-146.75 417.71,-142.76 434.77,-139.14"/>
<polygon fill="midnightblue" stroke="midnightblue" points="435.57,-142.55 444.62,-137.05 434.12,-135.7 435.57,-142.55"/>
</g>
<!-- Node14&#45;&gt;Node9 -->
<g id="edge23" class="edge">
<title>Node14&#45;&gt;Node9</title>
<path fill="none" stroke="midnightblue" d="M331.73,-174.8C344.33,-174.46 357.94,-174.11 371.72,-173.74"/>
<polygon fill="midnightblue" stroke="midnightblue" points="371.87,-177.24 381.78,-173.48 371.69,-170.24 371.87,-177.24"/>
</g>
</g>
</svg>
