<?xml version="1.0" encoding="UTF-8" standalone="no"?>
<!DOCTYPE svg PUBLIC "-//W3C//DTD SVG 1.1//EN"
 "http://www.w3.org/Graphics/SVG/1.1/DTD/svg11.dtd">
<!-- Generated by graphviz version 2.42.4 (0)
 -->
<!-- Title: csv_module::csv_file::get_header Pages: 1 -->
<!--zoomable 84 -->
<svg id="main" version="1.1" xmlns="http://www.w3.org/2000/svg" xmlns:xlink="http://www.w3.org/1999/xlink" xml:space="preserve" onload="init(evt)">
<style type="text/css"><![CDATA[
.edge:hover path { stroke: red; }
.edge:hover polygon { stroke: red; fill: red; }
]]></style>
<script type="text/javascript"><![CDATA[
var edges = document.getElementsByTagName('g');
if (edges && edges.length) {
  for (var i=0;i<edges.length;i++) {
    if (edges[i].id.substr(0,4)=='edge') {
      edges[i].setAttribute('class','edge');
    }
  }
}
]]></script>
        <defs>
                <circle id="rim" cx="0" cy="0" r="7"/>
                <circle id="rim2" cx="0" cy="0" r="3.5"/>
                <g id="zoomPlus">
                        <use xlink:href="#rim" fill="#404040">
                                <set attributeName="fill" to="#808080" begin="zoomplus.mouseover" end="zoomplus.mouseout"/>
                        </use>
                        <path d="M-4,0h8M0,-4v8" fill="none" stroke="white" stroke-width="1.5" pointer-events="none"/>
                </g>
                <g id="zoomMin">
                        <use xlink:href="#rim" fill="#404040">
                                <set attributeName="fill" to="#808080" begin="zoomminus.mouseover" end="zoomminus.mouseout"/>
                        </use>
                        <path d="M-4,0h8" fill="none" stroke="white" stroke-width="1.5" pointer-events="none"/>
                </g>
                <g id="dirArrow">
                        <path fill="none" stroke="white" stroke-width="1.5" d="M0,-3.0v7 M-2.5,-0.5L0,-3.0L2.5,-0.5"/>
                </g>
               <g id="resetDef">
                       <use xlink:href="#rim2" fill="#404040">
                               <set attributeName="fill" to="#808080" begin="reset.mouseover" end="reset.mouseout"/>
                       </use>
               </g>
        </defs>

<script type="text/javascript">
var viewWidth = 603;
var viewHeight = 84;
var sectionId = 'dynsection-3';
</script>
<script xlink:href="svgpan.js"/>
<svg id="graph" class="graph">
<g id="viewport">
<title>csv_module::csv_file::get_header</title>
<polygon fill="white" stroke="transparent" points="-4,4 -4,-79.5 599,-79.5 599,4 -4,4"/>
<!-- Node1 -->
<g id="node1" class="node">
<title>Node1</title>
<g id="a_node1"><a xlink:title=" ">
<polygon fill="#bfbfbf" stroke="black" points="0,-17 0,-51 128,-51 128,-17 0,-17"/>
<text text-anchor="start" x="8" y="-37.4" font-family="Helvetica,sans-Serif" font-size="12.00">csv_module::csv_file</text>
<text text-anchor="middle" x="64" y="-24.4" font-family="Helvetica,sans-Serif" font-size="12.00">::get_header</text>
</a>
</g>
</g>
<!-- Node2 -->
<g id="node2" class="node">
<title>Node2</title>
<g id="a_node2"><a xlink:href="namespacecsv__module.html#a0218de64ca7fa8dc49fae600c20139eb" target="_top" xlink:title="Returns the header as a &#39;type(csv_string)&#39; array (&#39;read&#39; must have already been called to read the fi...">
<polygon fill="white" stroke="black" points="173.5,-41 173.5,-75 321.5,-75 321.5,-41 173.5,-41"/>
<text text-anchor="start" x="181.5" y="-61.4" font-family="Helvetica,sans-Serif" font-size="12.00">csv_module::get_header</text>
<text text-anchor="middle" x="247.5" y="-48.4" font-family="Helvetica,sans-Serif" font-size="12.00">_csv_str</text>
</a>
</g>
</g>
<!-- Node1&#45;&gt;Node2 -->
<g id="edge1" class="edge">
<title>Node1&#45;&gt;Node2</title>
<path fill="none" stroke="midnightblue" d="M128.23,-42.36C139.46,-43.85 151.32,-45.41 163.01,-46.96"/>
<polygon fill="midnightblue" stroke="midnightblue" points="162.86,-50.47 173.23,-48.31 163.78,-43.53 162.86,-50.47"/>
</g>
<!-- Node5 -->
<g id="node5" class="node">
<title>Node5</title>
<g id="a_node5"><a xlink:href="namespacecsv__module.html#aa05825295e68549013e1583d97322663" target="_top" xlink:title="Returns the header as a &#39;character(len=*)&#39; array.">
<polygon fill="white" stroke="black" points="164,-0.5 164,-21.5 331,-21.5 331,-0.5 164,-0.5"/>
<text text-anchor="middle" x="247.5" y="-7.9" font-family="Helvetica,sans-Serif" font-size="12.00">csv_module::get_header_str</text>
</a>
</g>
</g>
<!-- Node1&#45;&gt;Node5 -->
<g id="edge4" class="edge">
<title>Node1&#45;&gt;Node5</title>
<path fill="none" stroke="midnightblue" d="M128.23,-25.99C136.46,-24.94 145.03,-23.86 153.63,-22.77"/>
<polygon fill="midnightblue" stroke="midnightblue" points="154.23,-26.22 163.71,-21.49 153.35,-19.28 154.23,-26.22"/>
</g>
<!-- Node3 -->
<g id="node3" class="node">
<title>Node3</title>
<g id="a_node3"><a xlink:href="namespacepahm__messages.html#acf0c696cc1604842ee84a5df6d81179c" target="_top" xlink:title="Sets the name of the subroutine that is writing log and/or screen messages.">
<polygon fill="white" stroke="black" points="373.5,-45.5 373.5,-66.5 588.5,-66.5 588.5,-45.5 373.5,-45.5"/>
<text text-anchor="middle" x="481" y="-52.9" font-family="Helvetica,sans-Serif" font-size="12.00">pahm_messages::setmessagesource</text>
</a>
</g>
</g>
<!-- Node2&#45;&gt;Node3 -->
<g id="edge2" class="edge">
<title>Node2&#45;&gt;Node3</title>
<path fill="none" stroke="midnightblue" d="M321.75,-57.37C334.97,-57.25 349.04,-57.13 363.14,-57.01"/>
<polygon fill="midnightblue" stroke="midnightblue" points="363.43,-60.51 373.4,-56.92 363.37,-53.51 363.43,-60.51"/>
</g>
<!-- Node4 -->
<g id="node4" class="node">
<title>Node4</title>
<g id="a_node4"><a xlink:href="namespacepahm__messages.html#ad35e9f2327aad65d4c669e3d886f54dc" target="_top" xlink:title="Removes the name of the subroutine that is no longer active.">
<polygon fill="white" stroke="black" points="367,-3.5 367,-24.5 595,-24.5 595,-3.5 367,-3.5"/>
<text text-anchor="middle" x="481" y="-10.9" font-family="Helvetica,sans-Serif" font-size="12.00">pahm_messages::unsetmessagesource</text>
</a>
</g>
</g>
<!-- Node2&#45;&gt;Node4 -->
<g id="edge3" class="edge">
<title>Node2&#45;&gt;Node4</title>
<path fill="none" stroke="midnightblue" d="M321.75,-44.08C351.49,-38.43 385.58,-31.95 414.48,-26.45"/>
<polygon fill="midnightblue" stroke="midnightblue" points="415.31,-29.86 424.48,-24.55 414,-22.98 415.31,-29.86"/>
</g>
<!-- Node5&#45;&gt;Node3 -->
<g id="edge5" class="edge">
<title>Node5&#45;&gt;Node3</title>
<path fill="none" stroke="midnightblue" d="M302.78,-21.55C336.47,-28.1 379.95,-36.55 415.41,-43.45"/>
<polygon fill="midnightblue" stroke="midnightblue" points="415.18,-46.97 425.66,-45.44 416.51,-40.09 415.18,-46.97"/>
</g>
<!-- Node5&#45;&gt;Node4 -->
<g id="edge6" class="edge">
<title>Node5&#45;&gt;Node4</title>
<path fill="none" stroke="midnightblue" d="M331.1,-12.07C339.4,-12.18 347.96,-12.29 356.57,-12.4"/>
<polygon fill="midnightblue" stroke="midnightblue" points="356.65,-15.9 366.69,-12.53 356.74,-8.9 356.65,-15.9"/>
</g>
</g>
</svg>
        <g id="navigator" transform="translate(0 0)" fill="#404254">
                <rect fill="#f2f5e9" fill-opacity="0.5" stroke="#606060" stroke-width=".5" x="0" y="0" width="60" height="60"/>
                <use id="zoomplus" xlink:href="#zoomPlus" x="17" y="9" onmousedown="handleZoom(evt,'in')"/>
                <use id="zoomminus" xlink:href="#zoomMin" x="42" y="9" onmousedown="handleZoom(evt,'out')"/>
                <use id="reset" xlink:href="#resetDef" x="30" y="36" onmousedown="handleReset()"/>
                <g id="arrowUp" xlink:href="#dirArrow" transform="translate(30 24)" onmousedown="handlePan(0,-1)">
                  <use xlink:href="#rim" fill="#404040">
                        <set attributeName="fill" to="#808080" begin="arrowUp.mouseover" end="arrowUp.mouseout"/>
                  </use>
                  <path fill="none" stroke="white" stroke-width="1.5" d="M0,-3.0v7 M-2.5,-0.5L0,-3.0L2.5,-0.5"/>
                </g>
                <g id="arrowRight" xlink:href="#dirArrow" transform="rotate(90) translate(36 -43)" onmousedown="handlePan(1,0)">
                  <use xlink:href="#rim" fill="#404040">
                        <set attributeName="fill" to="#808080" begin="arrowRight.mouseover" end="arrowRight.mouseout"/>
                  </use>
                  <path fill="none" stroke="white" stroke-width="1.5" d="M0,-3.0v7 M-2.5,-0.5L0,-3.0L2.5,-0.5"/>
                </g>
                <g id="arrowDown" xlink:href="#dirArrow" transform="rotate(180) translate(-30 -48)" onmousedown="handlePan(0,1)">
                  <use xlink:href="#rim" fill="#404040">
                        <set attributeName="fill" to="#808080" begin="arrowDown.mouseover" end="arrowDown.mouseout"/>
                  </use>
                  <path fill="none" stroke="white" stroke-width="1.5" d="M0,-3.0v7 M-2.5,-0.5L0,-3.0L2.5,-0.5"/>
                </g>
                <g id="arrowLeft" xlink:href="#dirArrow" transform="rotate(270) translate(-36 17)" onmousedown="handlePan(-1,0)">
                  <use xlink:href="#rim" fill="#404040">
                        <set attributeName="fill" to="#808080" begin="arrowLeft.mouseover" end="arrowLeft.mouseout"/>
                  </use>
                  <path fill="none" stroke="white" stroke-width="1.5" d="M0,-3.0v7 M-2.5,-0.5L0,-3.0L2.5,-0.5"/>
                </g>
        </g>
        <svg viewBox="0 0 15 15" width="100%" height="30px" preserveAspectRatio="xMaxYMin meet">
         <g id="arrow_out" transform="scale(0.3 0.3)">
          <a xlink:href="structcsv__module_1_1csv__file_a0be9b204582c9f2006306bdad0642939_cgraph_org.svg" target="_base">
           <rect id="button" ry="5" rx="5" y="6" x="6" height="38" width="38"
                fill="#f2f5e9" fill-opacity="0.5" stroke="#606060" stroke-width="1.0"/>
           <path id="arrow"
             d="M 11.500037,31.436501 C 11.940474,20.09759 22.043105,11.32322 32.158766,21.979434 L 37.068811,17.246167 C 37.068811,17.246167 37.088388,32 37.088388,32 L 22.160133,31.978069 C 22.160133,31.978069 26.997745,27.140456 26.997745,27.140456 C 18.528582,18.264221 13.291696,25.230495 11.500037,31.436501 z"
             style="fill:#404040;"/>
          </a>
         </g>
        </svg>
</svg>
