<?xml version="1.0" encoding="UTF-8" standalone="no"?>
<!DOCTYPE svg PUBLIC "-//W3C//DTD SVG 1.1//EN"
 "http://www.w3.org/Graphics/SVG/1.1/DTD/svg11.dtd">
<!-- Generated by graphviz version 2.42.4 (0)
 -->
<!-- Title: csv_module::csv_file::add Pages: 1 -->
<svg width="608pt" height="130pt"
 viewBox="0.00 0.00 608.00 130.00" xmlns="http://www.w3.org/2000/svg" xmlns:xlink="http://www.w3.org/1999/xlink">
<g id="graph0" class="graph" transform="scale(1 1) rotate(0) translate(4 126)">
<title>csv_module::csv_file::add</title>
<polygon fill="white" stroke="transparent" points="-4,4 -4,-126 604,-126 604,4 -4,4"/>
<!-- Node1 -->
<g id="node1" class="node">
<title>Node1</title>
<g id="a_node1"><a xlink:title=" ">
<polygon fill="#bfbfbf" stroke="black" points="0,-40.5 0,-61.5 154,-61.5 154,-40.5 0,-40.5"/>
<text text-anchor="middle" x="77" y="-47.9" font-family="Helvetica,sans-Serif" font-size="12.00">csv_module::csv_file::add</text>
</a>
</g>
</g>
<!-- Node2 -->
<g id="node2" class="node">
<title>Node2</title>
<g id="a_node2"><a xlink:href="namespacecsv__module.html#a33cbac9cb533148ecd71dfb2cf972774" target="_top" xlink:title="Adds a cell to a CSV file.">
<polygon fill="white" stroke="black" points="196.5,-80.5 196.5,-101.5 329.5,-101.5 329.5,-80.5 196.5,-80.5"/>
<text text-anchor="middle" x="263" y="-87.9" font-family="Helvetica,sans-Serif" font-size="12.00">csv_module::add_cell</text>
</a>
</g>
</g>
<!-- Node1&#45;&gt;Node2 -->
<g id="edge1" class="edge">
<title>Node1&#45;&gt;Node2</title>
<path fill="none" stroke="midnightblue" d="M126.34,-61.51C150.02,-66.66 178.72,-72.9 203.61,-78.31"/>
<polygon fill="midnightblue" stroke="midnightblue" points="203.14,-81.79 213.66,-80.49 204.63,-74.95 203.14,-81.79"/>
</g>
<!-- Node5 -->
<g id="node5" class="node">
<title>Node5</title>
<g id="a_node5"><a xlink:href="namespacecsv__module.html#a9aea10c998962d0ea34bc33a2e120707" target="_top" xlink:title="Adds a matrix to a CSV file.">
<polygon fill="white" stroke="black" points="190,-40.5 190,-61.5 336,-61.5 336,-40.5 190,-40.5"/>
<text text-anchor="middle" x="263" y="-47.9" font-family="Helvetica,sans-Serif" font-size="12.00">csv_module::add_matrix</text>
</a>
</g>
</g>
<!-- Node1&#45;&gt;Node5 -->
<g id="edge4" class="edge">
<title>Node1&#45;&gt;Node5</title>
<path fill="none" stroke="midnightblue" d="M154.17,-51C162.53,-51 171.08,-51 179.51,-51"/>
<polygon fill="midnightblue" stroke="midnightblue" points="179.73,-54.5 189.73,-51 179.73,-47.5 179.73,-54.5"/>
</g>
<!-- Node6 -->
<g id="node6" class="node">
<title>Node6</title>
<g id="a_node6"><a xlink:href="namespacecsv__module.html#a5f906bf5dc2331ba5654372a5d00fffc" target="_top" xlink:title="Adds a vector to a CSV file.">
<polygon fill="white" stroke="black" points="190,-0.5 190,-21.5 336,-21.5 336,-0.5 190,-0.5"/>
<text text-anchor="middle" x="263" y="-7.9" font-family="Helvetica,sans-Serif" font-size="12.00">csv_module::add_vector</text>
</a>
</g>
</g>
<!-- Node1&#45;&gt;Node6 -->
<g id="edge5" class="edge">
<title>Node1&#45;&gt;Node6</title>
<path fill="none" stroke="midnightblue" d="M126.34,-40.49C150.02,-35.34 178.72,-29.1 203.61,-23.69"/>
<polygon fill="midnightblue" stroke="midnightblue" points="204.63,-27.05 213.66,-21.51 203.14,-20.21 204.63,-27.05"/>
</g>
<!-- Node3 -->
<g id="node3" class="node">
<title>Node3</title>
<g id="a_node3"><a xlink:href="namespacepahm__messages.html#acf0c696cc1604842ee84a5df6d81179c" target="_top" xlink:title="Sets the name of the subroutine that is writing log and/or screen messages.">
<polygon fill="white" stroke="black" points="378.5,-100.5 378.5,-121.5 593.5,-121.5 593.5,-100.5 378.5,-100.5"/>
<text text-anchor="middle" x="486" y="-107.9" font-family="Helvetica,sans-Serif" font-size="12.00">pahm_messages::setmessagesource</text>
</a>
</g>
</g>
<!-- Node2&#45;&gt;Node3 -->
<g id="edge2" class="edge">
<title>Node2&#45;&gt;Node3</title>
<path fill="none" stroke="midnightblue" d="M329.71,-96.95C341.88,-98.05 354.91,-99.23 368.08,-100.42"/>
<polygon fill="midnightblue" stroke="midnightblue" points="367.88,-103.91 378.15,-101.33 368.51,-96.94 367.88,-103.91"/>
</g>
<!-- Node4 -->
<g id="node4" class="node">
<title>Node4</title>
<g id="a_node4"><a xlink:href="namespacepahm__messages.html#ad35e9f2327aad65d4c669e3d886f54dc" target="_top" xlink:title="Removes the name of the subroutine that is no longer active.">
<polygon fill="white" stroke="black" points="372,-60.5 372,-81.5 600,-81.5 600,-60.5 372,-60.5"/>
<text text-anchor="middle" x="486" y="-67.9" font-family="Helvetica,sans-Serif" font-size="12.00">pahm_messages::unsetmessagesource</text>
</a>
</g>
</g>
<!-- Node2&#45;&gt;Node4 -->
<g id="edge3" class="edge">
<title>Node2&#45;&gt;Node4</title>
<path fill="none" stroke="midnightblue" d="M329.71,-85.05C339.94,-84.13 350.78,-83.15 361.8,-82.15"/>
<polygon fill="midnightblue" stroke="midnightblue" points="362.31,-85.62 371.95,-81.23 361.67,-78.65 362.31,-85.62"/>
</g>
</g>
</svg>
