<?xml version="1.0" encoding="UTF-8" standalone="no"?>
<!DOCTYPE svg PUBLIC "-//W3C//DTD SVG 1.1//EN"
 "http://www.w3.org/Graphics/SVG/1.1/DTD/svg11.dtd">
<!-- Generated by graphviz version 2.42.4 (0)
 -->
<!-- Title: timedateutils::leapyear Pages: 1 -->
<!--zoomable 230 -->
<svg id="main" version="1.1" xmlns="http://www.w3.org/2000/svg" xmlns:xlink="http://www.w3.org/1999/xlink" xml:space="preserve" onload="init(evt)">
<style type="text/css"><![CDATA[
.edge:hover path { stroke: red; }
.edge:hover polygon { stroke: red; fill: red; }
]]></style>
<script type="text/javascript"><![CDATA[
var edges = document.getElementsByTagName('g');
if (edges && edges.length) {
  for (var i=0;i<edges.length;i++) {
    if (edges[i].id.substr(0,4)=='edge') {
      edges[i].setAttribute('class','edge');
    }
  }
}
]]></script>
        <defs>
                <circle id="rim" cx="0" cy="0" r="7"/>
                <circle id="rim2" cx="0" cy="0" r="3.5"/>
                <g id="zoomPlus">
                        <use xlink:href="#rim" fill="#404040">
                                <set attributeName="fill" to="#808080" begin="zoomplus.mouseover" end="zoomplus.mouseout"/>
                        </use>
                        <path d="M-4,0h8M0,-4v8" fill="none" stroke="white" stroke-width="1.5" pointer-events="none"/>
                </g>
                <g id="zoomMin">
                        <use xlink:href="#rim" fill="#404040">
                                <set attributeName="fill" to="#808080" begin="zoomminus.mouseover" end="zoomminus.mouseout"/>
                        </use>
                        <path d="M-4,0h8" fill="none" stroke="white" stroke-width="1.5" pointer-events="none"/>
                </g>
                <g id="dirArrow">
                        <path fill="none" stroke="white" stroke-width="1.5" d="M0,-3.0v7 M-2.5,-0.5L0,-3.0L2.5,-0.5"/>
                </g>
               <g id="resetDef">
                       <use xlink:href="#rim2" fill="#404040">
                               <set attributeName="fill" to="#808080" begin="reset.mouseover" end="reset.mouseout"/>
                       </use>
               </g>
        </defs>

<script type="text/javascript">
var viewWidth = 559;
var viewHeight = 230;
var sectionId = 'dynsection-7';
</script>
<script xlink:href="svgpan.js"/>
<svg id="graph" class="graph">
<g id="viewport">
<title>timedateutils::leapyear</title>
<polygon fill="white" stroke="transparent" points="-4,4 -4,-225.5 555,-225.5 555,4 -4,4"/>
<!-- Node1 -->
<g id="node1" class="node">
<title>Node1</title>
<g id="a_node1"><a xlink:title="Checks for a leap year.">
<polygon fill="#bfbfbf" stroke="black" points="414,-87.5 414,-108.5 551,-108.5 551,-87.5 414,-87.5"/>
<text text-anchor="middle" x="482.5" y="-94.9" font-family="Helvetica,sans-Serif" font-size="12.00">timedateutils::leapyear</text>
</a>
</g>
</g>
<!-- Node2 -->
<g id="node2" class="node">
<title>Node2</title>
<g id="a_node2"><a xlink:href="interfacetimedateutils_1_1gregtojulday.html#a6a65e9e2d0f95a66554e1290a9f13a6f" target="_top" xlink:title="Determines the Julian date from a Gregorian date.">
<polygon fill="white" stroke="black" points="223,-187 223,-221 378,-221 378,-187 223,-187"/>
<text text-anchor="start" x="231" y="-207.4" font-family="Helvetica,sans-Serif" font-size="12.00">timedateutils::gregtojulday</text>
<text text-anchor="middle" x="300.5" y="-194.4" font-family="Helvetica,sans-Serif" font-size="12.00">::gregtojulday2</text>
</a>
</g>
</g>
<!-- Node1&#45;&gt;Node2 -->
<g id="edge1" class="edge">
<title>Node1&#45;&gt;Node2</title>
<path fill="none" stroke="midnightblue" d="M462.89,-115.49C443.14,-133.28 410.36,-160.62 378,-178 371.94,-181.25 365.4,-184.21 358.79,-186.87"/>
<polygon fill="midnightblue" stroke="midnightblue" points="465.26,-118.06 470.28,-108.73 460.54,-112.9 465.26,-118.06"/>
</g>
<!-- Node3 -->
<g id="node3" class="node">
<title>Node3</title>
<g id="a_node3"><a xlink:href="interfacetimedateutils_1_1gregtojulday.html#afc8af3bdb0b4ce15757d5d57c4dccd35" target="_top" xlink:title="Determines the Julian date from a Gregorian date.">
<polygon fill="white" stroke="black" points="223,-134 223,-168 378,-168 378,-134 223,-134"/>
<text text-anchor="start" x="231" y="-154.4" font-family="Helvetica,sans-Serif" font-size="12.00">timedateutils::gregtojulday</text>
<text text-anchor="middle" x="300.5" y="-141.4" font-family="Helvetica,sans-Serif" font-size="12.00">::gregtojuldayisec</text>
</a>
</g>
</g>
<!-- Node1&#45;&gt;Node3 -->
<g id="edge2" class="edge">
<title>Node1&#45;&gt;Node3</title>
<path fill="none" stroke="midnightblue" d="M435.9,-111.43C412.67,-118.27 384.16,-126.66 359.4,-133.95"/>
<polygon fill="midnightblue" stroke="midnightblue" points="436.9,-114.78 445.51,-108.6 434.93,-108.07 436.9,-114.78"/>
</g>
<!-- Node4 -->
<g id="node4" class="node">
<title>Node4</title>
<g id="a_node4"><a xlink:href="interfacetimedateutils_1_1gregtojulday.html#a69d60502d5a566a83c486c68ef728178" target="_top" xlink:title="Determines the Julian date from a Gregorian date.">
<polygon fill="white" stroke="black" points="223,-81 223,-115 378,-115 378,-81 223,-81"/>
<text text-anchor="start" x="231" y="-101.4" font-family="Helvetica,sans-Serif" font-size="12.00">timedateutils::gregtojulday</text>
<text text-anchor="middle" x="300.5" y="-88.4" font-family="Helvetica,sans-Serif" font-size="12.00">::gregtojuldayrsec</text>
</a>
</g>
</g>
<!-- Node1&#45;&gt;Node4 -->
<g id="edge3" class="edge">
<title>Node1&#45;&gt;Node4</title>
<path fill="none" stroke="midnightblue" d="M403.73,-98C395.26,-98 386.64,-98 378.19,-98"/>
<polygon fill="midnightblue" stroke="midnightblue" points="403.96,-101.5 413.96,-98 403.96,-94.5 403.96,-101.5"/>
</g>
<!-- Node5 -->
<g id="node5" class="node">
<title>Node5</title>
<g id="a_node5"><a xlink:href="namespacetimedateutils.html#a101cf9ce5907971b096d77575d8d249d" target="_top" xlink:title="Determines the days in the month of the year.">
<polygon fill="white" stroke="black" points="226.5,-40.5 226.5,-61.5 374.5,-61.5 374.5,-40.5 226.5,-40.5"/>
<text text-anchor="middle" x="300.5" y="-47.9" font-family="Helvetica,sans-Serif" font-size="12.00">timedateutils::monthdays</text>
</a>
</g>
</g>
<!-- Node1&#45;&gt;Node5 -->
<g id="edge4" class="edge">
<title>Node1&#45;&gt;Node5</title>
<path fill="none" stroke="midnightblue" d="M431.4,-84.92C403.12,-77.53 368.25,-68.43 341.76,-61.51"/>
<polygon fill="midnightblue" stroke="midnightblue" points="430.54,-88.31 441.1,-87.45 432.31,-81.54 430.54,-88.31"/>
</g>
<!-- Node7 -->
<g id="node7" class="node">
<title>Node7</title>
<g id="a_node7"><a xlink:href="namespacetimedateutils.html#aca37b13adf7e4d6eba9469a5f47b0df5" target="_top" xlink:title="Determines the days of the year.">
<polygon fill="white" stroke="black" points="231.5,-0.5 231.5,-21.5 369.5,-21.5 369.5,-0.5 231.5,-0.5"/>
<text text-anchor="middle" x="300.5" y="-7.9" font-family="Helvetica,sans-Serif" font-size="12.00">timedateutils::yeardays</text>
</a>
</g>
</g>
<!-- Node1&#45;&gt;Node7 -->
<g id="edge6" class="edge">
<title>Node1&#45;&gt;Node7</title>
<path fill="none" stroke="midnightblue" d="M460.08,-81.21C439.92,-66.13 408.37,-44.39 378,-31 369.58,-27.29 360.33,-24.15 351.26,-21.54"/>
<polygon fill="midnightblue" stroke="midnightblue" points="458.16,-84.14 468.24,-87.41 462.4,-78.57 458.16,-84.14"/>
</g>
<!-- Node6 -->
<g id="node6" class="node">
<title>Node6</title>
<g id="a_node6"><a xlink:href="interfacetimedateutils_1_1splitdatetimestring.html#ab470f2a5a3e605e3a3d8f359154b3c29" target="_top" xlink:title="Splits a date string into components.">
<polygon fill="white" stroke="black" points="0,-34 0,-68 187,-68 187,-34 0,-34"/>
<text text-anchor="start" x="8" y="-54.4" font-family="Helvetica,sans-Serif" font-size="12.00">timedateutils::splitdatetimestring</text>
<text text-anchor="middle" x="93.5" y="-41.4" font-family="Helvetica,sans-Serif" font-size="12.00">::splitdatetimestring</text>
</a>
</g>
</g>
<!-- Node5&#45;&gt;Node6 -->
<g id="edge5" class="edge">
<title>Node5&#45;&gt;Node6</title>
<path fill="none" stroke="midnightblue" d="M216.16,-51C206.66,-51 196.93,-51 187.32,-51"/>
<polygon fill="midnightblue" stroke="midnightblue" points="216.36,-54.5 226.36,-51 216.36,-47.5 216.36,-54.5"/>
</g>
</g>
</svg>
        <g id="navigator" transform="translate(0 0)" fill="#404254">
                <rect fill="#f2f5e9" fill-opacity="0.5" stroke="#606060" stroke-width=".5" x="0" y="0" width="60" height="60"/>
                <use id="zoomplus" xlink:href="#zoomPlus" x="17" y="9" onmousedown="handleZoom(evt,'in')"/>
                <use id="zoomminus" xlink:href="#zoomMin" x="42" y="9" onmousedown="handleZoom(evt,'out')"/>
                <use id="reset" xlink:href="#resetDef" x="30" y="36" onmousedown="handleReset()"/>
                <g id="arrowUp" xlink:href="#dirArrow" transform="translate(30 24)" onmousedown="handlePan(0,-1)">
                  <use xlink:href="#rim" fill="#404040">
                        <set attributeName="fill" to="#808080" begin="arrowUp.mouseover" end="arrowUp.mouseout"/>
                  </use>
                  <path fill="none" stroke="white" stroke-width="1.5" d="M0,-3.0v7 M-2.5,-0.5L0,-3.0L2.5,-0.5"/>
                </g>
                <g id="arrowRight" xlink:href="#dirArrow" transform="rotate(90) translate(36 -43)" onmousedown="handlePan(1,0)">
                  <use xlink:href="#rim" fill="#404040">
                        <set attributeName="fill" to="#808080" begin="arrowRight.mouseover" end="arrowRight.mouseout"/>
                  </use>
                  <path fill="none" stroke="white" stroke-width="1.5" d="M0,-3.0v7 M-2.5,-0.5L0,-3.0L2.5,-0.5"/>
                </g>
                <g id="arrowDown" xlink:href="#dirArrow" transform="rotate(180) translate(-30 -48)" onmousedown="handlePan(0,1)">
                  <use xlink:href="#rim" fill="#404040">
                        <set attributeName="fill" to="#808080" begin="arrowDown.mouseover" end="arrowDown.mouseout"/>
                  </use>
                  <path fill="none" stroke="white" stroke-width="1.5" d="M0,-3.0v7 M-2.5,-0.5L0,-3.0L2.5,-0.5"/>
                </g>
                <g id="arrowLeft" xlink:href="#dirArrow" transform="rotate(270) translate(-36 17)" onmousedown="handlePan(-1,0)">
                  <use xlink:href="#rim" fill="#404040">
                        <set attributeName="fill" to="#808080" begin="arrowLeft.mouseover" end="arrowLeft.mouseout"/>
                  </use>
                  <path fill="none" stroke="white" stroke-width="1.5" d="M0,-3.0v7 M-2.5,-0.5L0,-3.0L2.5,-0.5"/>
                </g>
        </g>
        <svg viewBox="0 0 15 15" width="100%" height="30px" preserveAspectRatio="xMaxYMin meet">
         <g id="arrow_out" transform="scale(0.3 0.3)">
          <a xlink:href="namespacetimedateutils_ac0661d72fdf8161ad7d0b30d0dc57bd6_icgraph_org.svg" target="_base">
           <rect id="button" ry="5" rx="5" y="6" x="6" height="38" width="38"
                fill="#f2f5e9" fill-opacity="0.5" stroke="#606060" stroke-width="1.0"/>
           <path id="arrow"
             d="M 11.500037,31.436501 C 11.940474,20.09759 22.043105,11.32322 32.158766,21.979434 L 37.068811,17.246167 C 37.068811,17.246167 37.088388,32 37.088388,32 L 22.160133,31.978069 C 22.160133,31.978069 26.997745,27.140456 26.997745,27.140456 C 18.528582,18.264221 13.291696,25.230495 11.500037,31.436501 z"
             style="fill:#404040;"/>
          </a>
         </g>
        </svg>
</svg>
