<?xml version="1.0" encoding="UTF-8" standalone="no"?>
<!DOCTYPE svg PUBLIC "-//W3C//DTD SVG 1.1//EN"
 "http://www.w3.org/Graphics/SVG/1.1/DTD/svg11.dtd">
<!-- Generated by graphviz version 2.42.4 (0)
 -->
<!-- Title: timedateutils::elapsedsecs Pages: 1 -->
<svg width="340pt" height="96pt"
 viewBox="0.00 0.00 340.00 96.00" xmlns="http://www.w3.org/2000/svg" xmlns:xlink="http://www.w3.org/1999/xlink">
<g id="graph0" class="graph" transform="scale(1 1) rotate(0) translate(4 92)">
<title>timedateutils::elapsedsecs</title>
<polygon fill="white" stroke="transparent" points="-4,4 -4,-92 336,-92 336,4 -4,4"/>
<!-- Node1 -->
<g id="node1" class="node">
<title>Node1</title>
<g id="a_node1"><a xlink:title="Calculates the elapsed time in seconds.">
<polygon fill="#bfbfbf" stroke="black" points="174,-33 174,-54 332,-54 332,-33 174,-33"/>
<text text-anchor="middle" x="253" y="-40.4" font-family="Helvetica,sans-Serif" font-size="12.00">timedateutils::elapsedsecs</text>
</a>
</g>
</g>
<!-- Node2 -->
<g id="node2" class="node">
<title>Node2</title>
<g id="a_node2"><a xlink:href="interfacetimedateutils_1_1timeconv.html#a2f5f511b312d9f4b1bed33ecb8567b86" target="_top" xlink:title="Convert time from year, month, day, hour, min, sec into seconds since the reference date of the simul...">
<polygon fill="white" stroke="black" points="0,-53.5 0,-87.5 138,-87.5 138,-53.5 0,-53.5"/>
<text text-anchor="start" x="8" y="-73.9" font-family="Helvetica,sans-Serif" font-size="12.00">timedateutils::timeconv</text>
<text text-anchor="middle" x="69" y="-60.9" font-family="Helvetica,sans-Serif" font-size="12.00">::timeconvisec</text>
</a>
</g>
</g>
<!-- Node1&#45;&gt;Node2 -->
<g id="edge1" class="edge">
<title>Node1&#45;&gt;Node2</title>
<path fill="none" stroke="midnightblue" d="M171.05,-55.51C160.02,-57.15 148.78,-58.81 138.01,-60.41"/>
<polygon fill="midnightblue" stroke="midnightblue" points="171.73,-58.95 181.11,-54.02 170.71,-52.02 171.73,-58.95"/>
</g>
<!-- Node3 -->
<g id="node3" class="node">
<title>Node3</title>
<g id="a_node3"><a xlink:href="interfacetimedateutils_1_1timeconv.html#a03e2abbe51f02a02624986a3d49ec192" target="_top" xlink:title="Convert time from year, month, day, hour, min, sec into seconds since the reference date of the simul...">
<polygon fill="white" stroke="black" points="0,-0.5 0,-34.5 138,-34.5 138,-0.5 0,-0.5"/>
<text text-anchor="start" x="8" y="-20.9" font-family="Helvetica,sans-Serif" font-size="12.00">timedateutils::timeconv</text>
<text text-anchor="middle" x="69" y="-7.9" font-family="Helvetica,sans-Serif" font-size="12.00">::timeconvrsec</text>
</a>
</g>
</g>
<!-- Node1&#45;&gt;Node3 -->
<g id="edge2" class="edge">
<title>Node1&#45;&gt;Node3</title>
<path fill="none" stroke="midnightblue" d="M168.43,-31.56C158.3,-30.11 148.05,-28.65 138.18,-27.24"/>
<polygon fill="midnightblue" stroke="midnightblue" points="168.1,-35.05 178.5,-33 169.09,-28.12 168.1,-35.05"/>
</g>
</g>
</svg>
