<?xml version="1.0" encoding="UTF-8" standalone="no"?>
<!DOCTYPE svg PUBLIC "-//W3C//DTD SVG 1.1//EN"
 "http://www.w3.org/Graphics/SVG/1.1/DTD/svg11.dtd">
<!-- Generated by graphviz version 2.42.4 (0)
 -->
<!-- Title: pahm_messages::programversion Pages: 1 -->
<svg width="965pt" height="49pt"
 viewBox="0.00 0.00 965.00 49.00" xmlns="http://www.w3.org/2000/svg" xmlns:xlink="http://www.w3.org/1999/xlink">
<g id="graph0" class="graph" transform="scale(1 1) rotate(0) translate(4 45)">
<title>pahm_messages::programversion</title>
<polygon fill="white" stroke="transparent" points="-4,4 -4,-45 961,-45 961,4 -4,4"/>
<!-- Node1 -->
<g id="node1" class="node">
<title>Node1</title>
<g id="a_node1"><a xlink:title="Prints on the screen the versioning information of the program.">
<polygon fill="#bfbfbf" stroke="black" points="760,-19.5 760,-40.5 957,-40.5 957,-19.5 760,-19.5"/>
<text text-anchor="middle" x="858.5" y="-26.9" font-family="Helvetica,sans-Serif" font-size="12.00">pahm_messages::programversion</text>
</a>
</g>
</g>
<!-- Node2 -->
<g id="node2" class="node">
<title>Node2</title>
<g id="a_node2"><a xlink:href="namespacepahm__drivermod.html#a3294ddc68b72ff9220010a8764a8afe3" target="_top" xlink:title="Prints on the screen the help system of the PaHM program.">
<polygon fill="white" stroke="black" points="284,-19.5 284,-40.5 506,-40.5 506,-19.5 284,-19.5"/>
<text text-anchor="middle" x="395" y="-26.9" font-family="Helvetica,sans-Serif" font-size="12.00">pahm_drivermod::getprogramcmdlargs</text>
</a>
</g>
</g>
<!-- Node1&#45;&gt;Node2 -->
<g id="edge1" class="edge">
<title>Node1&#45;&gt;Node2</title>
<path fill="none" stroke="midnightblue" d="M749.62,-30.88C740.95,-30.93 732.33,-30.97 724,-31 643.11,-31.3 622.89,-31.28 542,-31 530.34,-30.96 518.16,-30.9 506.01,-30.83"/>
<polygon fill="midnightblue" stroke="midnightblue" points="749.82,-34.38 759.8,-30.82 749.78,-27.38 749.82,-34.38"/>
</g>
<!-- Node5 -->
<g id="node5" class="node">
<title>Node5</title>
<g id="a_node5"><a xlink:href="namespacepahm__messages.html#a0bf7cabdd36155ddc9946687defee4ff" target="_top" xlink:title="Prints on the screen the help system of the program.">
<polygon fill="white" stroke="black" points="542,-0.5 542,-21.5 724,-21.5 724,-0.5 542,-0.5"/>
<text text-anchor="middle" x="633" y="-7.9" font-family="Helvetica,sans-Serif" font-size="12.00">pahm_messages::programhelp</text>
</a>
</g>
</g>
<!-- Node1&#45;&gt;Node5 -->
<g id="edge4" class="edge">
<title>Node1&#45;&gt;Node5</title>
<path fill="none" stroke="midnightblue" d="M749.75,-20.84C741.16,-20.11 732.55,-19.38 724.11,-18.66"/>
<polygon fill="midnightblue" stroke="midnightblue" points="749.53,-24.33 759.79,-21.69 750.13,-17.36 749.53,-24.33"/>
</g>
<!-- Node3 -->
<g id="node3" class="node">
<title>Node3</title>
<g id="a_node3"><a xlink:href="namespacepahm__drivermod.html#ae0d4b223a96ba116b38152caf6b0768c" target="_top" xlink:title="Subroutine to initialize a PaHM run.">
<polygon fill="white" stroke="black" points="83,-19.5 83,-40.5 248,-40.5 248,-19.5 83,-19.5"/>
<text text-anchor="middle" x="165.5" y="-26.9" font-family="Helvetica,sans-Serif" font-size="12.00">pahm_drivermod::pahm_init</text>
</a>
</g>
</g>
<!-- Node2&#45;&gt;Node3 -->
<g id="edge2" class="edge">
<title>Node2&#45;&gt;Node3</title>
<path fill="none" stroke="midnightblue" d="M273.77,-30C265.14,-30 256.56,-30 248.22,-30"/>
<polygon fill="midnightblue" stroke="midnightblue" points="273.92,-33.5 283.92,-30 273.92,-26.5 273.92,-33.5"/>
</g>
<!-- Node4 -->
<g id="node4" class="node">
<title>Node4</title>
<g id="a_node4"><a xlink:href="pahm_8F90.html#a3d3918f5c5f1ac0a7991a7a78f530f30" target="_top" xlink:title=" ">
<polygon fill="white" stroke="black" points="0,-19.5 0,-40.5 47,-40.5 47,-19.5 0,-19.5"/>
<text text-anchor="middle" x="23.5" y="-26.9" font-family="Helvetica,sans-Serif" font-size="12.00">pahm</text>
</a>
</g>
</g>
<!-- Node3&#45;&gt;Node4 -->
<g id="edge3" class="edge">
<title>Node3&#45;&gt;Node4</title>
<path fill="none" stroke="midnightblue" d="M72.42,-30C63.15,-30 54.47,-30 47.1,-30"/>
<polygon fill="midnightblue" stroke="midnightblue" points="72.66,-33.5 82.66,-30 72.66,-26.5 72.66,-33.5"/>
</g>
<!-- Node5&#45;&gt;Node2 -->
<g id="edge5" class="edge">
<title>Node5&#45;&gt;Node2</title>
<path fill="none" stroke="midnightblue" d="M531.64,-19.08C523.28,-19.75 514.8,-20.44 506.37,-21.11"/>
<polygon fill="midnightblue" stroke="midnightblue" points="532.08,-22.56 541.77,-18.26 531.52,-15.58 532.08,-22.56"/>
</g>
</g>
</svg>
