<?xml version="1.0" encoding="UTF-8" standalone="no"?>
<!DOCTYPE svg PUBLIC "-//W3C//DTD SVG 1.1//EN"
 "http://www.w3.org/Graphics/SVG/1.1/DTD/svg11.dtd">
<!-- Generated by graphviz version 2.42.4 (0)
 -->
<!-- Title: pahm_vortex::calcintensitychange Pages: 1 -->
<svg width="470pt" height="70pt"
 viewBox="0.00 0.00 470.00 70.00" xmlns="http://www.w3.org/2000/svg" xmlns:xlink="http://www.w3.org/1999/xlink">
<g id="graph0" class="graph" transform="scale(1 1) rotate(0) translate(4 66)">
<title>pahm_vortex::calcintensitychange</title>
<polygon fill="white" stroke="transparent" points="-4,4 -4,-66 466,-66 466,4 -4,4"/>
<!-- Node1 -->
<g id="node1" class="node">
<title>Node1</title>
<g id="a_node1"><a xlink:title="This subroutine calculates the intensity time change of a variable using second order mumerical accur...">
<polygon fill="#bfbfbf" stroke="black" points="0,-20.5 0,-41.5 198,-41.5 198,-20.5 0,-20.5"/>
<text text-anchor="middle" x="99" y="-27.9" font-family="Helvetica,sans-Serif" font-size="12.00">pahm_vortex::calcintensitychange</text>
</a>
</g>
</g>
<!-- Node2 -->
<g id="node2" class="node">
<title>Node2</title>
<g id="a_node2"><a xlink:href="namespacepahm__messages.html#acf0c696cc1604842ee84a5df6d81179c" target="_top" xlink:title="Sets the name of the subroutine that is writing log and/or screen messages.">
<polygon fill="white" stroke="black" points="240.5,-40.5 240.5,-61.5 455.5,-61.5 455.5,-40.5 240.5,-40.5"/>
<text text-anchor="middle" x="348" y="-47.9" font-family="Helvetica,sans-Serif" font-size="12.00">pahm_messages::setmessagesource</text>
</a>
</g>
</g>
<!-- Node1&#45;&gt;Node2 -->
<g id="edge1" class="edge">
<title>Node1&#45;&gt;Node2</title>
<path fill="none" stroke="midnightblue" d="M198.33,-38.96C208.83,-39.81 219.59,-40.68 230.27,-41.55"/>
<polygon fill="midnightblue" stroke="midnightblue" points="230.24,-45.06 240.49,-42.38 230.8,-38.08 230.24,-45.06"/>
</g>
<!-- Node3 -->
<g id="node3" class="node">
<title>Node3</title>
<g id="a_node3"><a xlink:href="namespacepahm__messages.html#ad35e9f2327aad65d4c669e3d886f54dc" target="_top" xlink:title="Removes the name of the subroutine that is no longer active.">
<polygon fill="white" stroke="black" points="234,-0.5 234,-21.5 462,-21.5 462,-0.5 234,-0.5"/>
<text text-anchor="middle" x="348" y="-7.9" font-family="Helvetica,sans-Serif" font-size="12.00">pahm_messages::unsetmessagesource</text>
</a>
</g>
</g>
<!-- Node1&#45;&gt;Node3 -->
<g id="edge2" class="edge">
<title>Node1&#45;&gt;Node3</title>
<path fill="none" stroke="midnightblue" d="M198.33,-23.04C206.74,-22.36 215.32,-21.66 223.89,-20.97"/>
<polygon fill="midnightblue" stroke="midnightblue" points="224.26,-24.45 233.94,-20.15 223.69,-17.47 224.26,-24.45"/>
</g>
</g>
</svg>
