<?xml version="1.0" encoding="UTF-8" standalone="no"?>
<!DOCTYPE svg PUBLIC "-//W3C//DTD SVG 1.1//EN"
 "http://www.w3.org/Graphics/SVG/1.1/DTD/svg11.dtd">
<!-- Generated by graphviz version 2.42.4 (0)
 -->
<!-- Title: utilities::readcontrolfile Pages: 1 -->
<!--zoomable 426 -->
<svg id="main" version="1.1" xmlns="http://www.w3.org/2000/svg" xmlns:xlink="http://www.w3.org/1999/xlink" xml:space="preserve" onload="init(evt)">
<style type="text/css"><![CDATA[
.edge:hover path { stroke: red; }
.edge:hover polygon { stroke: red; fill: red; }
]]></style>
<script type="text/javascript"><![CDATA[
var edges = document.getElementsByTagName('g');
if (edges && edges.length) {
  for (var i=0;i<edges.length;i++) {
    if (edges[i].id.substr(0,4)=='edge') {
      edges[i].setAttribute('class','edge');
    }
  }
}
]]></script>
        <defs>
                <circle id="rim" cx="0" cy="0" r="7"/>
                <circle id="rim2" cx="0" cy="0" r="3.5"/>
                <g id="zoomPlus">
                        <use xlink:href="#rim" fill="#404040">
                                <set attributeName="fill" to="#808080" begin="zoomplus.mouseover" end="zoomplus.mouseout"/>
                        </use>
                        <path d="M-4,0h8M0,-4v8" fill="none" stroke="white" stroke-width="1.5" pointer-events="none"/>
                </g>
                <g id="zoomMin">
                        <use xlink:href="#rim" fill="#404040">
                                <set attributeName="fill" to="#808080" begin="zoomminus.mouseover" end="zoomminus.mouseout"/>
                        </use>
                        <path d="M-4,0h8" fill="none" stroke="white" stroke-width="1.5" pointer-events="none"/>
                </g>
                <g id="dirArrow">
                        <path fill="none" stroke="white" stroke-width="1.5" d="M0,-3.0v7 M-2.5,-0.5L0,-3.0L2.5,-0.5"/>
                </g>
               <g id="resetDef">
                       <use xlink:href="#rim2" fill="#404040">
                               <set attributeName="fill" to="#808080" begin="reset.mouseover" end="reset.mouseout"/>
                       </use>
               </g>
        </defs>

<script type="text/javascript">
var viewWidth = 605;
var viewHeight = 426;
var sectionId = 'dynsection-19';
</script>
<script xlink:href="svgpan.js"/>
<svg id="graph" class="graph">
<g id="viewport">
<title>utilities::readcontrolfile</title>
<polygon fill="white" stroke="transparent" points="-4,4 -4,-421.78 601,-421.78 601,4 -4,4"/>
<!-- Node1 -->
<g id="node1" class="node">
<title>Node1</title>
<g id="a_node1"><a xlink:title="This subroutine reads the program&#39;s main control file.">
<polygon fill="#bfbfbf" stroke="black" points="0,-200.5 0,-221.5 136,-221.5 136,-200.5 0,-200.5"/>
<text text-anchor="middle" x="68" y="-207.9" font-family="Helvetica,sans-Serif" font-size="12.00">utilities::readcontrolfile</text>
</a>
</g>
</g>
<!-- Node2 -->
<g id="node2" class="node">
<title>Node2</title>
<g id="a_node2"><a xlink:href="namespaceutilities.html#a1e2f2593103f415e1c073284ff95a83f" target="_top" xlink:title="Checks the user defined control file inputs.">
<polygon fill="white" stroke="black" points="191.5,-318.5 191.5,-339.5 367.5,-339.5 367.5,-318.5 191.5,-318.5"/>
<text text-anchor="middle" x="279.5" y="-325.9" font-family="Helvetica,sans-Serif" font-size="12.00">utilities::checkcontrolfileinputs</text>
</a>
</g>
</g>
<!-- Node1&#45;&gt;Node2 -->
<g id="edge1" class="edge">
<title>Node1&#45;&gt;Node2</title>
<path fill="none" stroke="midnightblue" d="M77.41,-221.51C93.57,-240.96 131.02,-282.54 172,-304 180.9,-308.66 190.66,-312.46 200.55,-315.56"/>
<polygon fill="midnightblue" stroke="midnightblue" points="199.89,-319.01 210.47,-318.43 201.83,-312.29 199.89,-319.01"/>
</g>
<!-- Node3 -->
<g id="node3" class="node">
<title>Node3</title>
<g id="a_node3"><a xlink:href="namespacetimedateutils.html#a6c7acacb9981bb9182378a449e45715b" target="_top" xlink:title="Calculates the conversion factor between time units and seconds.">
<polygon fill="white" stroke="black" points="423,-386.5 423,-407.5 597,-407.5 597,-386.5 423,-386.5"/>
<text text-anchor="middle" x="510" y="-393.9" font-family="Helvetica,sans-Serif" font-size="12.00">timedateutils::gettimeconvsec</text>
</a>
</g>
</g>
<!-- Node1&#45;&gt;Node3 -->
<g id="edge6" class="edge">
<title>Node1&#45;&gt;Node3</title>
<path fill="none" stroke="midnightblue" d="M71.86,-221.62C80.7,-252.19 110.81,-340.54 172,-377 257.18,-427.76 376.96,-420.16 448.4,-409.17"/>
<polygon fill="midnightblue" stroke="midnightblue" points="449.26,-412.58 458.58,-407.53 448.15,-405.67 449.26,-412.58"/>
</g>
<!-- Node4 -->
<g id="node4" class="node">
<title>Node4</title>
<g id="a_node4"><a xlink:href="namespacetimedateutils.html#a393203cc78370648d0dd392fe96d66ff" target="_top" xlink:title="Pre&#45;processes an arbitrary date string.">
<polygon fill="white" stroke="black" points="443.5,-337.5 443.5,-358.5 576.5,-358.5 576.5,-337.5 443.5,-337.5"/>
<text text-anchor="middle" x="510" y="-344.9" font-family="Helvetica,sans-Serif" font-size="12.00">timedateutils::joindate</text>
</a>
</g>
</g>
<!-- Node1&#45;&gt;Node4 -->
<g id="edge7" class="edge">
<title>Node1&#45;&gt;Node4</title>
<path fill="none" stroke="midnightblue" d="M72.95,-221.58C83.8,-248.86 116.95,-321.39 172,-349 265.65,-395.96 393.16,-376.74 461.35,-360.94"/>
<polygon fill="midnightblue" stroke="midnightblue" points="462.46,-364.28 471.37,-358.55 460.83,-357.47 462.46,-364.28"/>
</g>
<!-- Node5 -->
<g id="node5" class="node">
<title>Node5</title>
<g id="a_node5"><a xlink:href="namespaceutilities.html#a8dff395c74e87d059dadcf8bacdbfedd" target="_top" xlink:title="Convert a string to upper&#45;case.">
<polygon fill="white" stroke="black" points="447,-279.5 447,-300.5 573,-300.5 573,-279.5 447,-279.5"/>
<text text-anchor="middle" x="510" y="-286.9" font-family="Helvetica,sans-Serif" font-size="12.00">utilities::touppercase</text>
</a>
</g>
</g>
<!-- Node1&#45;&gt;Node5 -->
<g id="edge17" class="edge">
<title>Node1&#45;&gt;Node5</title>
<path fill="none" stroke="midnightblue" d="M82.35,-221.6C101.11,-235.81 136.92,-260.46 172,-271 260.21,-297.51 367.14,-298.63 436.55,-295.54"/>
<polygon fill="midnightblue" stroke="midnightblue" points="437.12,-299.02 446.94,-295.04 436.78,-292.03 437.12,-299.02"/>
</g>
<!-- Node6 -->
<g id="node6" class="node">
<title>Node6</title>
<g id="a_node6"><a xlink:href="namespacetimedateutils.html#a565d549493d69e2c9ea5b7af18247df5" target="_top" xlink:title="Constructs a NetCDF time string.">
<polygon fill="white" stroke="black" points="193.5,-200.5 193.5,-221.5 365.5,-221.5 365.5,-200.5 193.5,-200.5"/>
<text text-anchor="middle" x="279.5" y="-207.9" font-family="Helvetica,sans-Serif" font-size="12.00">timedateutils::datetime2string</text>
</a>
</g>
</g>
<!-- Node1&#45;&gt;Node6 -->
<g id="edge5" class="edge">
<title>Node1&#45;&gt;Node6</title>
<path fill="none" stroke="midnightblue" d="M136.15,-211C151.07,-211 167.17,-211 182.99,-211"/>
<polygon fill="midnightblue" stroke="midnightblue" points="183.32,-214.5 193.32,-211 183.32,-207.5 183.32,-214.5"/>
</g>
<!-- Node7 -->
<g id="node7" class="node">
<title>Node7</title>
<g id="a_node7"><a xlink:href="namespacetimedateutils.html#abc63ac16baec18b6c9bb2ee6e0400a63" target="_top" xlink:title="Determines the Julian date from a Gregorian date.">
<polygon fill="white" stroke="black" points="202,-160.5 202,-181.5 357,-181.5 357,-160.5 202,-160.5"/>
<text text-anchor="middle" x="279.5" y="-167.9" font-family="Helvetica,sans-Serif" font-size="12.00">timedateutils::juldaytogreg</text>
</a>
</g>
</g>
<!-- Node1&#45;&gt;Node7 -->
<g id="edge8" class="edge">
<title>Node1&#45;&gt;Node7</title>
<path fill="none" stroke="midnightblue" d="M122.98,-200.45C138.77,-197.39 156.08,-194.04 172,-191 184.96,-188.53 198.81,-185.91 212.09,-183.41"/>
<polygon fill="midnightblue" stroke="midnightblue" points="212.93,-186.81 222.11,-181.52 211.64,-179.93 212.93,-186.81"/>
</g>
<!-- Node8 -->
<g id="node8" class="node">
<title>Node8</title>
<g id="a_node8"><a xlink:href="namespaceutilities.html#a062355064a86a716b2ddff1aa0cd3fb4" target="_top" xlink:title="This function loads input values into a requested model integer variable.">
<polygon fill="white" stroke="black" points="223,-120.5 223,-141.5 336,-141.5 336,-120.5 223,-120.5"/>
<text text-anchor="middle" x="279.5" y="-127.9" font-family="Helvetica,sans-Serif" font-size="12.00">utilities::loadintvar</text>
</a>
</g>
</g>
<!-- Node1&#45;&gt;Node8 -->
<g id="edge9" class="edge">
<title>Node1&#45;&gt;Node8</title>
<path fill="none" stroke="midnightblue" d="M83.55,-200.34C102.8,-186.77 138.26,-163.57 172,-151 184.91,-146.19 199.15,-142.5 212.9,-139.67"/>
<polygon fill="midnightblue" stroke="midnightblue" points="213.64,-143.1 222.8,-137.77 212.32,-136.22 213.64,-143.1"/>
</g>
<!-- Node9 -->
<g id="node9" class="node">
<title>Node9</title>
<g id="a_node9"><a xlink:href="namespaceutilities.html#a4a70a4be51dcd79bc46b6cfcb2d2ac0a" target="_top" xlink:title="This function loads input values into a requested model real variable.">
<polygon fill="white" stroke="black" points="219.5,-80.5 219.5,-101.5 339.5,-101.5 339.5,-80.5 219.5,-80.5"/>
<text text-anchor="middle" x="279.5" y="-87.9" font-family="Helvetica,sans-Serif" font-size="12.00">utilities::loadrealvar</text>
</a>
</g>
</g>
<!-- Node1&#45;&gt;Node9 -->
<g id="edge10" class="edge">
<title>Node1&#45;&gt;Node9</title>
<path fill="none" stroke="midnightblue" d="M76.41,-200.48C91.67,-179.68 128.85,-133.36 172,-111 183.51,-105.03 196.55,-100.83 209.45,-97.87"/>
<polygon fill="midnightblue" stroke="midnightblue" points="210.18,-101.3 219.26,-95.85 208.76,-94.44 210.18,-101.3"/>
</g>
<!-- Node10 -->
<g id="node10" class="node">
<title>Node10</title>
<g id="a_node10"><a xlink:href="namespaceutilities.html#ab30d13ba0fcebcb933a30be2237ec162" target="_top" xlink:title="This function parses lines of text from input script/control files.">
<polygon fill="white" stroke="black" points="224.5,-240.5 224.5,-261.5 334.5,-261.5 334.5,-240.5 224.5,-240.5"/>
<text text-anchor="middle" x="279.5" y="-247.9" font-family="Helvetica,sans-Serif" font-size="12.00">utilities::parseline</text>
</a>
</g>
</g>
<!-- Node1&#45;&gt;Node10 -->
<g id="edge11" class="edge">
<title>Node1&#45;&gt;Node10</title>
<path fill="none" stroke="midnightblue" d="M122.98,-221.55C138.77,-224.61 156.08,-227.96 172,-231 185.68,-233.61 200.35,-236.39 214.3,-239.01"/>
<polygon fill="midnightblue" stroke="midnightblue" points="213.83,-242.48 224.31,-240.89 215.13,-235.6 213.83,-242.48"/>
</g>
<!-- Node12 -->
<g id="node12" class="node">
<title>Node12</title>
<g id="a_node12"><a xlink:href="namespaceutilities.html#a57953a3306e17ea2e28254e3d2091516" target="_top" xlink:title="This subroutine prints on the screen the values of the program&#39;s parameters.">
<polygon fill="white" stroke="black" points="201.5,-40.5 201.5,-61.5 357.5,-61.5 357.5,-40.5 201.5,-40.5"/>
<text text-anchor="middle" x="279.5" y="-47.9" font-family="Helvetica,sans-Serif" font-size="12.00">utilities::printmodelparams</text>
</a>
</g>
</g>
<!-- Node1&#45;&gt;Node12 -->
<g id="edge14" class="edge">
<title>Node1&#45;&gt;Node12</title>
<path fill="none" stroke="midnightblue" d="M73.4,-200.46C85.08,-173.89 119.63,-103.91 172,-71 178.13,-67.15 184.83,-64 191.78,-61.43"/>
<polygon fill="midnightblue" stroke="midnightblue" points="192.98,-64.72 201.39,-58.28 190.8,-58.07 192.98,-64.72"/>
</g>
<!-- Node14 -->
<g id="node14" class="node">
<title>Node14</title>
<g id="a_node14"><a xlink:href="namespacepahm__messages.html#acf0c696cc1604842ee84a5df6d81179c" target="_top" xlink:title="Sets the name of the subroutine that is writing log and/or screen messages.">
<polygon fill="white" stroke="black" points="172,-0.5 172,-21.5 387,-21.5 387,-0.5 172,-0.5"/>
<text text-anchor="middle" x="279.5" y="-7.9" font-family="Helvetica,sans-Serif" font-size="12.00">pahm_messages::setmessagesource</text>
</a>
</g>
</g>
<!-- Node1&#45;&gt;Node14 -->
<g id="edge16" class="edge">
<title>Node1&#45;&gt;Node14</title>
<path fill="none" stroke="midnightblue" d="M71.69,-200.35C80.27,-168.76 110.1,-75.04 172,-31 174.56,-29.18 177.24,-27.51 180.02,-25.98"/>
<polygon fill="midnightblue" stroke="midnightblue" points="181.68,-29.06 189.16,-21.56 178.63,-22.76 181.68,-29.06"/>
</g>
<!-- Node2&#45;&gt;Node3 -->
<g id="edge2" class="edge">
<title>Node2&#45;&gt;Node3</title>
<path fill="none" stroke="midnightblue" d="M316.2,-339.62C356.03,-351.48 420.53,-370.67 463.84,-383.56"/>
<polygon fill="midnightblue" stroke="midnightblue" points="462.96,-386.95 473.55,-386.45 464.96,-380.24 462.96,-386.95"/>
</g>
<!-- Node2&#45;&gt;Node4 -->
<g id="edge3" class="edge">
<title>Node2&#45;&gt;Node4</title>
<path fill="none" stroke="midnightblue" d="M367.54,-336.24C389.11,-338.03 412.05,-339.94 433.04,-341.68"/>
<polygon fill="midnightblue" stroke="midnightblue" points="432.92,-345.19 443.18,-342.53 433.5,-338.21 432.92,-345.19"/>
</g>
<!-- Node2&#45;&gt;Node5 -->
<g id="edge4" class="edge">
<title>Node2&#45;&gt;Node5</title>
<path fill="none" stroke="midnightblue" d="M342.03,-318.5C371.37,-313.49 406.64,-307.47 437.19,-302.26"/>
<polygon fill="midnightblue" stroke="midnightblue" points="438.09,-305.65 447.36,-300.52 436.91,-298.75 438.09,-305.65"/>
</g>
<!-- Node10&#45;&gt;Node5 -->
<g id="edge13" class="edge">
<title>Node10&#45;&gt;Node5</title>
<path fill="none" stroke="midnightblue" d="M334.65,-260.24C365.27,-265.47 403.94,-272.07 437.07,-277.72"/>
<polygon fill="midnightblue" stroke="midnightblue" points="436.72,-281.21 447.16,-279.45 437.9,-274.31 436.72,-281.21"/>
</g>
<!-- Node11 -->
<g id="node11" class="node">
<title>Node11</title>
<g id="a_node11"><a xlink:href="namespaceutilities.html#a8723656afba63e33ed1c6cc8e5440b63" target="_top" xlink:title="Gets a line from a file.">
<polygon fill="white" stroke="black" points="445,-239.5 445,-260.5 575,-260.5 575,-239.5 445,-239.5"/>
<text text-anchor="middle" x="510" y="-246.9" font-family="Helvetica,sans-Serif" font-size="12.00">utilities::getlinerecord</text>
</a>
</g>
</g>
<!-- Node10&#45;&gt;Node11 -->
<g id="edge12" class="edge">
<title>Node10&#45;&gt;Node11</title>
<path fill="none" stroke="midnightblue" d="M334.65,-250.76C364.42,-250.63 401.81,-250.47 434.31,-250.33"/>
<polygon fill="midnightblue" stroke="midnightblue" points="434.7,-253.83 444.68,-250.28 434.66,-246.83 434.7,-253.83"/>
</g>
<!-- Node13 -->
<g id="node13" class="node">
<title>Node13</title>
<g id="a_node13"><a xlink:href="namespaceutilities.html#a376978b945cbdf5d33ff8bf905d19866" target="_top" xlink:title="Convert a string to lower&#45;case.">
<polygon fill="white" stroke="black" points="448,-40.5 448,-61.5 572,-61.5 572,-40.5 448,-40.5"/>
<text text-anchor="middle" x="510" y="-47.9" font-family="Helvetica,sans-Serif" font-size="12.00">utilities::tolowercase</text>
</a>
</g>
</g>
<!-- Node12&#45;&gt;Node13 -->
<g id="edge15" class="edge">
<title>Node12&#45;&gt;Node13</title>
<path fill="none" stroke="midnightblue" d="M357.54,-51C383.39,-51 412.09,-51 437.5,-51"/>
<polygon fill="midnightblue" stroke="midnightblue" points="437.8,-54.5 447.8,-51 437.8,-47.5 437.8,-54.5"/>
</g>
</g>
</svg>
        <g id="navigator" transform="translate(0 0)" fill="#404254">
                <rect fill="#f2f5e9" fill-opacity="0.5" stroke="#606060" stroke-width=".5" x="0" y="0" width="60" height="60"/>
                <use id="zoomplus" xlink:href="#zoomPlus" x="17" y="9" onmousedown="handleZoom(evt,'in')"/>
                <use id="zoomminus" xlink:href="#zoomMin" x="42" y="9" onmousedown="handleZoom(evt,'out')"/>
                <use id="reset" xlink:href="#resetDef" x="30" y="36" onmousedown="handleReset()"/>
                <g id="arrowUp" xlink:href="#dirArrow" transform="translate(30 24)" onmousedown="handlePan(0,-1)">
                  <use xlink:href="#rim" fill="#404040">
                        <set attributeName="fill" to="#808080" begin="arrowUp.mouseover" end="arrowUp.mouseout"/>
                  </use>
                  <path fill="none" stroke="white" stroke-width="1.5" d="M0,-3.0v7 M-2.5,-0.5L0,-3.0L2.5,-0.5"/>
                </g>
                <g id="arrowRight" xlink:href="#dirArrow" transform="rotate(90) translate(36 -43)" onmousedown="handlePan(1,0)">
                  <use xlink:href="#rim" fill="#404040">
                        <set attributeName="fill" to="#808080" begin="arrowRight.mouseover" end="arrowRight.mouseout"/>
                  </use>
                  <path fill="none" stroke="white" stroke-width="1.5" d="M0,-3.0v7 M-2.5,-0.5L0,-3.0L2.5,-0.5"/>
                </g>
                <g id="arrowDown" xlink:href="#dirArrow" transform="rotate(180) translate(-30 -48)" onmousedown="handlePan(0,1)">
                  <use xlink:href="#rim" fill="#404040">
                        <set attributeName="fill" to="#808080" begin="arrowDown.mouseover" end="arrowDown.mouseout"/>
                  </use>
                  <path fill="none" stroke="white" stroke-width="1.5" d="M0,-3.0v7 M-2.5,-0.5L0,-3.0L2.5,-0.5"/>
                </g>
                <g id="arrowLeft" xlink:href="#dirArrow" transform="rotate(270) translate(-36 17)" onmousedown="handlePan(-1,0)">
                  <use xlink:href="#rim" fill="#404040">
                        <set attributeName="fill" to="#808080" begin="arrowLeft.mouseover" end="arrowLeft.mouseout"/>
                  </use>
                  <path fill="none" stroke="white" stroke-width="1.5" d="M0,-3.0v7 M-2.5,-0.5L0,-3.0L2.5,-0.5"/>
                </g>
        </g>
        <svg viewBox="0 0 15 15" width="100%" height="30px" preserveAspectRatio="xMaxYMin meet">
         <g id="arrow_out" transform="scale(0.3 0.3)">
          <a xlink:href="namespaceutilities_ab095172ef12ae151ab5c9aacf82f4dc6_cgraph_org.svg" target="_base">
           <rect id="button" ry="5" rx="5" y="6" x="6" height="38" width="38"
                fill="#f2f5e9" fill-opacity="0.5" stroke="#606060" stroke-width="1.0"/>
           <path id="arrow"
             d="M 11.500037,31.436501 C 11.940474,20.09759 22.043105,11.32322 32.158766,21.979434 L 37.068811,17.246167 C 37.068811,17.246167 37.088388,32 37.088388,32 L 22.160133,31.978069 C 22.160133,31.978069 26.997745,27.140456 26.997745,27.140456 C 18.528582,18.264221 13.291696,25.230495 11.500037,31.436501 z"
             style="fill:#404040;"/>
          </a>
         </g>
        </svg>
</svg>
