<?xml version="1.0" encoding="UTF-8" standalone="no"?>
<!DOCTYPE svg PUBLIC "-//W3C//DTD SVG 1.1//EN"
 "http://www.w3.org/Graphics/SVG/1.1/DTD/svg11.dtd">
<!-- Generated by graphviz version 2.42.4 (0)
 -->
<!-- Title: pahm_vortex::uvp Pages: 1 -->
<svg width="277pt" height="110pt"
 viewBox="0.00 0.00 277.00 110.00" xmlns="http://www.w3.org/2000/svg" xmlns:xlink="http://www.w3.org/1999/xlink">
<g id="graph0" class="graph" transform="scale(1 1) rotate(0) translate(4 106)">
<title>pahm_vortex::uvp</title>
<polygon fill="white" stroke="transparent" points="-4,4 -4,-106 273,-106 273,4 -4,4"/>
<!-- Node1 -->
<g id="node1" class="node">
<title>Node1</title>
<g id="a_node1"><a xlink:title="Calculate (u, v) wind components and surface pressure from an asymmetric hurricane wind model.">
<polygon fill="#bfbfbf" stroke="black" points="0,-40.5 0,-61.5 111,-61.5 111,-40.5 0,-40.5"/>
<text text-anchor="middle" x="55.5" y="-47.9" font-family="Helvetica,sans-Serif" font-size="12.00">pahm_vortex::uvp</text>
</a>
</g>
</g>
<!-- Node2 -->
<g id="node2" class="node">
<title>Node2</title>
<g id="a_node2"><a xlink:href="namespacepahm__vortex.html#ac953414ecaf1b96028c4258cb011658d" target="_top" xlink:title="Compute a wind angle to parameterize frictional inflow across isobars.">
<polygon fill="white" stroke="black" points="150.5,-80.5 150.5,-101.5 265.5,-101.5 265.5,-80.5 150.5,-80.5"/>
<text text-anchor="middle" x="208" y="-87.9" font-family="Helvetica,sans-Serif" font-size="12.00">pahm_vortex::fang</text>
</a>
</g>
</g>
<!-- Node1&#45;&gt;Node2 -->
<g id="edge1" class="edge">
<title>Node1&#45;&gt;Node2</title>
<path fill="none" stroke="midnightblue" d="M96.04,-61.51C114.89,-66.52 137.63,-72.56 157.61,-77.87"/>
<polygon fill="midnightblue" stroke="midnightblue" points="156.9,-81.31 167.46,-80.49 158.7,-74.54 156.9,-81.31"/>
</g>
<!-- Node3 -->
<g id="node3" class="node">
<title>Node3</title>
<g id="a_node3"><a xlink:href="namespacepahm__vortex.html#ae5616e321c85eb04b486fa78ea556773" target="_top" xlink:title="Calculate the radius of maximum winds.">
<polygon fill="white" stroke="black" points="151,-40.5 151,-61.5 265,-61.5 265,-40.5 151,-40.5"/>
<text text-anchor="middle" x="208" y="-47.9" font-family="Helvetica,sans-Serif" font-size="12.00">pahm_vortex::rmw</text>
</a>
</g>
</g>
<!-- Node1&#45;&gt;Node3 -->
<g id="edge2" class="edge">
<title>Node1&#45;&gt;Node3</title>
<path fill="none" stroke="midnightblue" d="M111.26,-51C120.8,-51 130.82,-51 140.64,-51"/>
<polygon fill="midnightblue" stroke="midnightblue" points="140.76,-54.5 150.76,-51 140.76,-47.5 140.76,-54.5"/>
</g>
<!-- Node4 -->
<g id="node4" class="node">
<title>Node4</title>
<g id="a_node4"><a xlink:href="namespacepahm__vortex.html#a7fc78bcdd0071e81581505ac558c0e27" target="_top" xlink:title="Rotate a 2D vector (x, y) by an angle.">
<polygon fill="white" stroke="black" points="147,-0.5 147,-21.5 269,-21.5 269,-0.5 147,-0.5"/>
<text text-anchor="middle" x="208" y="-7.9" font-family="Helvetica,sans-Serif" font-size="12.00">pahm_vortex::rotate</text>
</a>
</g>
</g>
<!-- Node1&#45;&gt;Node4 -->
<g id="edge3" class="edge">
<title>Node1&#45;&gt;Node4</title>
<path fill="none" stroke="midnightblue" d="M96.04,-40.49C114.89,-35.48 137.63,-29.44 157.61,-24.13"/>
<polygon fill="midnightblue" stroke="midnightblue" points="158.7,-27.46 167.46,-21.51 156.9,-20.69 158.7,-27.46"/>
</g>
</g>
</svg>
