<?xml version="1.0" encoding="UTF-8" standalone="no"?>
<!DOCTYPE svg PUBLIC "-//W3C//DTD SVG 1.1//EN"
 "http://www.w3.org/Graphics/SVG/1.1/DTD/svg11.dtd">
<!-- Generated by graphviz version 2.42.4 (0)
 -->
<!-- Title: utilities::getlinerecord Pages: 1 -->
<svg width="1080pt" height="90pt"
 viewBox="0.00 0.00 1080.00 90.00" xmlns="http://www.w3.org/2000/svg" xmlns:xlink="http://www.w3.org/1999/xlink">
<g id="graph0" class="graph" transform="scale(1 1) rotate(0) translate(4 86)">
<title>utilities::getlinerecord</title>
<polygon fill="white" stroke="transparent" points="-4,4 -4,-86 1076,-86 1076,4 -4,4"/>
<!-- Node1 -->
<g id="node1" class="node">
<title>Node1</title>
<g id="a_node1"><a xlink:title="Gets a line from a file.">
<polygon fill="#bfbfbf" stroke="black" points="942,-20.5 942,-41.5 1072,-41.5 1072,-20.5 942,-20.5"/>
<text text-anchor="middle" x="1007" y="-27.9" font-family="Helvetica,sans-Serif" font-size="12.00">utilities::getlinerecord</text>
</a>
</g>
</g>
<!-- Node2 -->
<g id="node2" class="node">
<title>Node2</title>
<g id="a_node2"><a xlink:href="namespaceutilities.html#ab30d13ba0fcebcb933a30be2237ec162" target="_top" xlink:title="This function parses lines of text from input script/control files.">
<polygon fill="white" stroke="black" points="773.5,-60.5 773.5,-81.5 883.5,-81.5 883.5,-60.5 773.5,-60.5"/>
<text text-anchor="middle" x="828.5" y="-67.9" font-family="Helvetica,sans-Serif" font-size="12.00">utilities::parseline</text>
</a>
</g>
</g>
<!-- Node1&#45;&gt;Node2 -->
<g id="edge1" class="edge">
<title>Node1&#45;&gt;Node2</title>
<path fill="none" stroke="midnightblue" d="M949.67,-43.77C925.86,-49.16 898.48,-55.37 875.87,-60.49"/>
<polygon fill="midnightblue" stroke="midnightblue" points="950.65,-47.13 959.63,-41.51 949.1,-40.31 950.65,-47.13"/>
</g>
<!-- Node7 -->
<g id="node7" class="node">
<title>Node7</title>
<g id="a_node7"><a xlink:href="namespaceparwind.html#abae6c098afd2135918a478b6b7b20673" target="_top" xlink:title="Subroutine to read all a&#45;deck/b&#45;deck best track files (ATCF format).">
<polygon fill="white" stroke="black" points="751,-20.5 751,-41.5 906,-41.5 906,-20.5 751,-20.5"/>
<text text-anchor="middle" x="828.5" y="-27.9" font-family="Helvetica,sans-Serif" font-size="12.00">parwind::readbesttrackfile</text>
</a>
</g>
</g>
<!-- Node1&#45;&gt;Node7 -->
<g id="edge6" class="edge">
<title>Node1&#45;&gt;Node7</title>
<path fill="none" stroke="midnightblue" d="M931.65,-31C923.26,-31 914.7,-31 906.28,-31"/>
<polygon fill="midnightblue" stroke="midnightblue" points="931.78,-34.5 941.78,-31 931.78,-27.5 931.78,-34.5"/>
</g>
<!-- Node8 -->
<g id="node8" class="node">
<title>Node8</title>
<g id="a_node8"><a xlink:href="namespaceparwind.html#a75c722a5d8fdb18014543923d7e4dcca" target="_top" xlink:title="Subroutine to read all a&#45;deck/b&#45;deck best track files (ATCF format).">
<polygon fill="white" stroke="black" points="542,-0.5 542,-21.5 715,-21.5 715,-0.5 542,-0.5"/>
<text text-anchor="middle" x="628.5" y="-7.9" font-family="Helvetica,sans-Serif" font-size="12.00">parwind::readcsvbesttrackfile</text>
</a>
</g>
</g>
<!-- Node1&#45;&gt;Node8 -->
<g id="edge7" class="edge">
<title>Node1&#45;&gt;Node8</title>
<path fill="none" stroke="midnightblue" d="M952.81,-18.34C937.76,-15.31 921.32,-12.52 906,-11 842.23,-4.69 769.77,-4.96 715.04,-6.66"/>
<polygon fill="midnightblue" stroke="midnightblue" points="952.46,-21.84 962.96,-20.46 953.89,-14.99 952.46,-21.84"/>
</g>
<!-- Node3 -->
<g id="node3" class="node">
<title>Node3</title>
<g id="a_node3"><a xlink:href="namespaceutilities.html#ab095172ef12ae151ab5c9aacf82f4dc6" target="_top" xlink:title="This subroutine reads the program&#39;s main control file.">
<polygon fill="white" stroke="black" points="560.5,-50.5 560.5,-71.5 696.5,-71.5 696.5,-50.5 560.5,-50.5"/>
<text text-anchor="middle" x="628.5" y="-57.9" font-family="Helvetica,sans-Serif" font-size="12.00">utilities::readcontrolfile</text>
</a>
</g>
</g>
<!-- Node2&#45;&gt;Node3 -->
<g id="edge2" class="edge">
<title>Node2&#45;&gt;Node3</title>
<path fill="none" stroke="midnightblue" d="M763.16,-67.75C741.86,-66.67 718.12,-65.48 696.62,-64.39"/>
<polygon fill="midnightblue" stroke="midnightblue" points="763.23,-71.26 773.4,-68.27 763.58,-64.27 763.23,-71.26"/>
</g>
<!-- Node4 -->
<g id="node4" class="node">
<title>Node4</title>
<g id="a_node4"><a xlink:href="namespacepahm__drivermod.html#a3294ddc68b72ff9220010a8764a8afe3" target="_top" xlink:title="Prints on the screen the help system of the PaHM program.">
<polygon fill="white" stroke="black" points="284,-39.5 284,-60.5 506,-60.5 506,-39.5 284,-39.5"/>
<text text-anchor="middle" x="395" y="-46.9" font-family="Helvetica,sans-Serif" font-size="12.00">pahm_drivermod::getprogramcmdlargs</text>
</a>
</g>
</g>
<!-- Node3&#45;&gt;Node4 -->
<g id="edge3" class="edge">
<title>Node3&#45;&gt;Node4</title>
<path fill="none" stroke="midnightblue" d="M550.12,-57.32C536,-56.65 521.02,-55.94 506.17,-55.23"/>
<polygon fill="midnightblue" stroke="midnightblue" points="550.07,-60.82 560.23,-57.8 550.41,-53.83 550.07,-60.82"/>
</g>
<!-- Node5 -->
<g id="node5" class="node">
<title>Node5</title>
<g id="a_node5"><a xlink:href="namespacepahm__drivermod.html#ae0d4b223a96ba116b38152caf6b0768c" target="_top" xlink:title="Subroutine to initialize a PaHM run.">
<polygon fill="white" stroke="black" points="83,-19.5 83,-40.5 248,-40.5 248,-19.5 83,-19.5"/>
<text text-anchor="middle" x="165.5" y="-26.9" font-family="Helvetica,sans-Serif" font-size="12.00">pahm_drivermod::pahm_init</text>
</a>
</g>
</g>
<!-- Node4&#45;&gt;Node5 -->
<g id="edge4" class="edge">
<title>Node4&#45;&gt;Node5</title>
<path fill="none" stroke="midnightblue" d="M273.77,-39.43C265.14,-38.67 256.56,-37.92 248.22,-37.18"/>
<polygon fill="midnightblue" stroke="midnightblue" points="273.65,-42.93 283.92,-40.32 274.26,-35.96 273.65,-42.93"/>
</g>
<!-- Node6 -->
<g id="node6" class="node">
<title>Node6</title>
<g id="a_node6"><a xlink:href="pahm_8F90.html#a3d3918f5c5f1ac0a7991a7a78f530f30" target="_top" xlink:title=" ">
<polygon fill="white" stroke="black" points="0,-19.5 0,-40.5 47,-40.5 47,-19.5 0,-19.5"/>
<text text-anchor="middle" x="23.5" y="-26.9" font-family="Helvetica,sans-Serif" font-size="12.00">pahm</text>
</a>
</g>
</g>
<!-- Node5&#45;&gt;Node6 -->
<g id="edge5" class="edge">
<title>Node5&#45;&gt;Node6</title>
<path fill="none" stroke="midnightblue" d="M72.42,-30C63.15,-30 54.47,-30 47.1,-30"/>
<polygon fill="midnightblue" stroke="midnightblue" points="72.66,-33.5 82.66,-30 72.66,-26.5 72.66,-33.5"/>
</g>
<!-- Node8&#45;&gt;Node5 -->
<g id="edge8" class="edge">
<title>Node8&#45;&gt;Node5</title>
<path fill="none" stroke="midnightblue" d="M531.84,-14.94C448.03,-18.4 327.55,-23.36 248.19,-26.63"/>
<polygon fill="midnightblue" stroke="midnightblue" points="532.02,-18.44 541.87,-14.53 531.73,-11.44 532.02,-18.44"/>
</g>
</g>
</svg>
