<?xml version="1.0" encoding="UTF-8" standalone="no"?>
<!DOCTYPE svg PUBLIC "-//W3C//DTD SVG 1.1//EN"
 "http://www.w3.org/Graphics/SVG/1.1/DTD/svg11.dtd">
<!-- Generated by graphviz version 2.42.4 (0)
 -->
<!-- Title: utilities::openfileforread Pages: 1 -->
<!--zoomable 162 -->
<svg id="main" version="1.1" xmlns="http://www.w3.org/2000/svg" xmlns:xlink="http://www.w3.org/1999/xlink" xml:space="preserve" onload="init(evt)">
<style type="text/css"><![CDATA[
.edge:hover path { stroke: red; }
.edge:hover polygon { stroke: red; fill: red; }
]]></style>
<script type="text/javascript"><![CDATA[
var edges = document.getElementsByTagName('g');
if (edges && edges.length) {
  for (var i=0;i<edges.length;i++) {
    if (edges[i].id.substr(0,4)=='edge') {
      edges[i].setAttribute('class','edge');
    }
  }
}
]]></script>
        <defs>
                <circle id="rim" cx="0" cy="0" r="7"/>
                <circle id="rim2" cx="0" cy="0" r="3.5"/>
                <g id="zoomPlus">
                        <use xlink:href="#rim" fill="#404040">
                                <set attributeName="fill" to="#808080" begin="zoomplus.mouseover" end="zoomplus.mouseout"/>
                        </use>
                        <path d="M-4,0h8M0,-4v8" fill="none" stroke="white" stroke-width="1.5" pointer-events="none"/>
                </g>
                <g id="zoomMin">
                        <use xlink:href="#rim" fill="#404040">
                                <set attributeName="fill" to="#808080" begin="zoomminus.mouseover" end="zoomminus.mouseout"/>
                        </use>
                        <path d="M-4,0h8" fill="none" stroke="white" stroke-width="1.5" pointer-events="none"/>
                </g>
                <g id="dirArrow">
                        <path fill="none" stroke="white" stroke-width="1.5" d="M0,-3.0v7 M-2.5,-0.5L0,-3.0L2.5,-0.5"/>
                </g>
               <g id="resetDef">
                       <use xlink:href="#rim2" fill="#404040">
                               <set attributeName="fill" to="#808080" begin="reset.mouseover" end="reset.mouseout"/>
                       </use>
               </g>
        </defs>

<script type="text/javascript">
var viewWidth = 874;
var viewHeight = 162;
var sectionId = 'dynsection-14';
</script>
<script xlink:href="svgpan.js"/>
<svg id="graph" class="graph">
<g id="viewport">
<title>utilities::openfileforread</title>
<polygon fill="white" stroke="transparent" points="-4,4 -4,-157.5 870,-157.5 870,4 -4,4"/>
<!-- Node1 -->
<g id="node1" class="node">
<title>Node1</title>
<g id="a_node1"><a xlink:title="This subroutine opens an existing file for reading.">
<polygon fill="#bfbfbf" stroke="black" points="726,-58.5 726,-79.5 866,-79.5 866,-58.5 726,-58.5"/>
<text text-anchor="middle" x="796" y="-65.9" font-family="Helvetica,sans-Serif" font-size="12.00">utilities::openfileforread</text>
</a>
</g>
</g>
<!-- Node2 -->
<g id="node2" class="node">
<title>Node2</title>
<g id="a_node2"><a xlink:href="namespacecsv__module.html#a9813e1ff838ed6024c464bb5c443bada" target="_top" xlink:title="Initialize a [[csv_file(type)]].">
<polygon fill="white" stroke="black" points="526,-119 526,-153 657,-153 657,-119 526,-119"/>
<text text-anchor="start" x="534" y="-139.4" font-family="Helvetica,sans-Serif" font-size="12.00">csv_module::initialize</text>
<text text-anchor="middle" x="591.5" y="-126.4" font-family="Helvetica,sans-Serif" font-size="12.00">_csv_file</text>
</a>
</g>
</g>
<!-- Node1&#45;&gt;Node2 -->
<g id="edge1" class="edge">
<title>Node1&#45;&gt;Node2</title>
<path fill="none" stroke="midnightblue" d="M759.91,-83.31C739.64,-91.34 713.57,-101.26 690,-109 679.4,-112.48 668.06,-115.89 657,-119.06"/>
<polygon fill="midnightblue" stroke="midnightblue" points="761.36,-86.5 769.35,-79.54 758.77,-80 761.36,-86.5"/>
</g>
<!-- Node3 -->
<g id="node3" class="node">
<title>Node3</title>
<g id="a_node3"><a xlink:href="namespaceparwind.html#abae6c098afd2135918a478b6b7b20673" target="_top" xlink:title="Subroutine to read all a&#45;deck/b&#45;deck best track files (ATCF format).">
<polygon fill="white" stroke="black" points="514,-78.5 514,-99.5 669,-99.5 669,-78.5 514,-78.5"/>
<text text-anchor="middle" x="591.5" y="-85.9" font-family="Helvetica,sans-Serif" font-size="12.00">parwind::readbesttrackfile</text>
</a>
</g>
</g>
<!-- Node1&#45;&gt;Node3 -->
<g id="edge2" class="edge">
<title>Node1&#45;&gt;Node3</title>
<path fill="none" stroke="midnightblue" d="M715.92,-76.81C700.59,-78.32 684.55,-79.91 669.3,-81.41"/>
<polygon fill="midnightblue" stroke="midnightblue" points="716.27,-80.29 725.88,-75.83 715.58,-73.33 716.27,-80.29"/>
</g>
<!-- Node4 -->
<g id="node4" class="node">
<title>Node4</title>
<g id="a_node4"><a xlink:href="namespaceparwind.html#a75c722a5d8fdb18014543923d7e4dcca" target="_top" xlink:title="Subroutine to read all a&#45;deck/b&#45;deck best track files (ATCF format).">
<polygon fill="white" stroke="black" points="284,-40.5 284,-61.5 457,-61.5 457,-40.5 284,-40.5"/>
<text text-anchor="middle" x="370.5" y="-47.9" font-family="Helvetica,sans-Serif" font-size="12.00">parwind::readcsvbesttrackfile</text>
</a>
</g>
</g>
<!-- Node1&#45;&gt;Node4 -->
<g id="edge3" class="edge">
<title>Node1&#45;&gt;Node4</title>
<path fill="none" stroke="midnightblue" d="M715.39,-65.62C641.75,-62.49 532.58,-57.85 457.09,-54.64"/>
<polygon fill="midnightblue" stroke="midnightblue" points="715.4,-69.12 725.54,-66.05 715.7,-62.13 715.4,-69.12"/>
</g>
<!-- Node7 -->
<g id="node7" class="node">
<title>Node7</title>
<g id="a_node7"><a xlink:href="namespacepahm__mesh.html#af53257d02ceb6ebe4349de40187496d6" target="_top" xlink:title="Reads the ADCIRC fort.14 mesh file.">
<polygon fill="white" stroke="black" points="493,-0.5 493,-21.5 690,-21.5 690,-0.5 493,-0.5"/>
<text text-anchor="middle" x="591.5" y="-7.9" font-family="Helvetica,sans-Serif" font-size="12.00">pahm_mesh::readmeshasciifort14</text>
</a>
</g>
</g>
<!-- Node1&#45;&gt;Node7 -->
<g id="edge6" class="edge">
<title>Node1&#45;&gt;Node7</title>
<path fill="none" stroke="midnightblue" d="M753.31,-55.33C734.11,-49.18 710.97,-41.98 690,-36 672.35,-30.97 652.78,-25.86 635.83,-21.58"/>
<polygon fill="midnightblue" stroke="midnightblue" points="752.37,-58.71 762.97,-58.44 754.52,-52.05 752.37,-58.71"/>
</g>
<!-- Node5 -->
<g id="node5" class="node">
<title>Node5</title>
<g id="a_node5"><a xlink:href="namespacepahm__drivermod.html#ae0d4b223a96ba116b38152caf6b0768c" target="_top" xlink:title="Subroutine to initialize a PaHM run.">
<polygon fill="white" stroke="black" points="83,-20.5 83,-41.5 248,-41.5 248,-20.5 83,-20.5"/>
<text text-anchor="middle" x="165.5" y="-27.9" font-family="Helvetica,sans-Serif" font-size="12.00">pahm_drivermod::pahm_init</text>
</a>
</g>
</g>
<!-- Node4&#45;&gt;Node5 -->
<g id="edge4" class="edge">
<title>Node4&#45;&gt;Node5</title>
<path fill="none" stroke="midnightblue" d="M273.88,-41.58C265.23,-40.73 256.53,-39.87 248.01,-39.03"/>
<polygon fill="midnightblue" stroke="midnightblue" points="273.7,-45.08 284,-42.58 274.39,-38.11 273.7,-45.08"/>
</g>
<!-- Node6 -->
<g id="node6" class="node">
<title>Node6</title>
<g id="a_node6"><a xlink:href="pahm_8F90.html#a3d3918f5c5f1ac0a7991a7a78f530f30" target="_top" xlink:title=" ">
<polygon fill="white" stroke="black" points="0,-20.5 0,-41.5 47,-41.5 47,-20.5 0,-20.5"/>
<text text-anchor="middle" x="23.5" y="-27.9" font-family="Helvetica,sans-Serif" font-size="12.00">pahm</text>
</a>
</g>
</g>
<!-- Node5&#45;&gt;Node6 -->
<g id="edge5" class="edge">
<title>Node5&#45;&gt;Node6</title>
<path fill="none" stroke="midnightblue" d="M72.42,-31C63.15,-31 54.47,-31 47.1,-31"/>
<polygon fill="midnightblue" stroke="midnightblue" points="72.66,-34.5 82.66,-31 72.66,-27.5 72.66,-34.5"/>
</g>
<!-- Node8 -->
<g id="node8" class="node">
<title>Node8</title>
<g id="a_node8"><a xlink:href="namespacepahm__mesh.html#a6fd7801e4cbacfd2a7ce61c0fb31073c" target="_top" xlink:title="Reads an input mesh file for the specified supported model type.">
<polygon fill="white" stroke="black" points="299.5,-0.5 299.5,-21.5 441.5,-21.5 441.5,-0.5 299.5,-0.5"/>
<text text-anchor="middle" x="370.5" y="-7.9" font-family="Helvetica,sans-Serif" font-size="12.00">pahm_mesh::readmesh</text>
</a>
</g>
</g>
<!-- Node7&#45;&gt;Node8 -->
<g id="edge7" class="edge">
<title>Node7&#45;&gt;Node8</title>
<path fill="none" stroke="midnightblue" d="M482.72,-11C468.79,-11 454.83,-11 441.72,-11"/>
<polygon fill="midnightblue" stroke="midnightblue" points="482.85,-14.5 492.85,-11 482.85,-7.5 482.85,-14.5"/>
</g>
<!-- Node8&#45;&gt;Node5 -->
<g id="edge8" class="edge">
<title>Node8&#45;&gt;Node5</title>
<path fill="none" stroke="midnightblue" d="M289.16,-18.91C275.68,-20.24 261.68,-21.62 248.16,-22.95"/>
<polygon fill="midnightblue" stroke="midnightblue" points="289.75,-22.37 299.35,-17.91 289.06,-15.41 289.75,-22.37"/>
</g>
</g>
</svg>
        <g id="navigator" transform="translate(0 0)" fill="#404254">
                <rect fill="#f2f5e9" fill-opacity="0.5" stroke="#606060" stroke-width=".5" x="0" y="0" width="60" height="60"/>
                <use id="zoomplus" xlink:href="#zoomPlus" x="17" y="9" onmousedown="handleZoom(evt,'in')"/>
                <use id="zoomminus" xlink:href="#zoomMin" x="42" y="9" onmousedown="handleZoom(evt,'out')"/>
                <use id="reset" xlink:href="#resetDef" x="30" y="36" onmousedown="handleReset()"/>
                <g id="arrowUp" xlink:href="#dirArrow" transform="translate(30 24)" onmousedown="handlePan(0,-1)">
                  <use xlink:href="#rim" fill="#404040">
                        <set attributeName="fill" to="#808080" begin="arrowUp.mouseover" end="arrowUp.mouseout"/>
                  </use>
                  <path fill="none" stroke="white" stroke-width="1.5" d="M0,-3.0v7 M-2.5,-0.5L0,-3.0L2.5,-0.5"/>
                </g>
                <g id="arrowRight" xlink:href="#dirArrow" transform="rotate(90) translate(36 -43)" onmousedown="handlePan(1,0)">
                  <use xlink:href="#rim" fill="#404040">
                        <set attributeName="fill" to="#808080" begin="arrowRight.mouseover" end="arrowRight.mouseout"/>
                  </use>
                  <path fill="none" stroke="white" stroke-width="1.5" d="M0,-3.0v7 M-2.5,-0.5L0,-3.0L2.5,-0.5"/>
                </g>
                <g id="arrowDown" xlink:href="#dirArrow" transform="rotate(180) translate(-30 -48)" onmousedown="handlePan(0,1)">
                  <use xlink:href="#rim" fill="#404040">
                        <set attributeName="fill" to="#808080" begin="arrowDown.mouseover" end="arrowDown.mouseout"/>
                  </use>
                  <path fill="none" stroke="white" stroke-width="1.5" d="M0,-3.0v7 M-2.5,-0.5L0,-3.0L2.5,-0.5"/>
                </g>
                <g id="arrowLeft" xlink:href="#dirArrow" transform="rotate(270) translate(-36 17)" onmousedown="handlePan(-1,0)">
                  <use xlink:href="#rim" fill="#404040">
                        <set attributeName="fill" to="#808080" begin="arrowLeft.mouseover" end="arrowLeft.mouseout"/>
                  </use>
                  <path fill="none" stroke="white" stroke-width="1.5" d="M0,-3.0v7 M-2.5,-0.5L0,-3.0L2.5,-0.5"/>
                </g>
        </g>
        <svg viewBox="0 0 15 15" width="100%" height="30px" preserveAspectRatio="xMaxYMin meet">
         <g id="arrow_out" transform="scale(0.3 0.3)">
          <a xlink:href="namespaceutilities_a2a41067ed5533ec0c36318e8f1e960bf_icgraph_org.svg" target="_base">
           <rect id="button" ry="5" rx="5" y="6" x="6" height="38" width="38"
                fill="#f2f5e9" fill-opacity="0.5" stroke="#606060" stroke-width="1.0"/>
           <path id="arrow"
             d="M 11.500037,31.436501 C 11.940474,20.09759 22.043105,11.32322 32.158766,21.979434 L 37.068811,17.246167 C 37.068811,17.246167 37.088388,32 37.088388,32 L 22.160133,31.978069 C 22.160133,31.978069 26.997745,27.140456 26.997745,27.140456 C 18.528582,18.264221 13.291696,25.230495 11.500037,31.436501 z"
             style="fill:#404040;"/>
          </a>
         </g>
        </svg>
</svg>
