<?xml version="1.0" encoding="UTF-8" standalone="no"?>
<!DOCTYPE svg PUBLIC "-//W3C//DTD SVG 1.1//EN"
 "http://www.w3.org/Graphics/SVG/1.1/DTD/svg11.dtd">
<!-- Generated by graphviz version 2.42.4 (0)
 -->
<!-- Title: pahm_netcdfio::setrecordcounterandstoretime Pages: 1 -->
<svg width="532pt" height="70pt"
 viewBox="0.00 0.00 532.00 70.00" xmlns="http://www.w3.org/2000/svg" xmlns:xlink="http://www.w3.org/1999/xlink">
<g id="graph0" class="graph" transform="scale(1 1) rotate(0) translate(4 66)">
<title>pahm_netcdfio::setrecordcounterandstoretime</title>
<polygon fill="white" stroke="transparent" points="-4,4 -4,-66 528,-66 528,4 -4,4"/>
<!-- Node1 -->
<g id="node1" class="node">
<title>Node1</title>
<g id="a_node1"><a xlink:title="Compares the current simulation time with the array of output times in the file, and if the simulatio...">
<polygon fill="#bfbfbf" stroke="black" points="0,-20.5 0,-41.5 260,-41.5 260,-20.5 0,-20.5"/>
<text text-anchor="middle" x="130" y="-27.9" font-family="Helvetica,sans-Serif" font-size="12.00">pahm_netcdfio::setrecordcounterandstoretime</text>
</a>
</g>
</g>
<!-- Node2 -->
<g id="node2" class="node">
<title>Node2</title>
<g id="a_node2"><a xlink:href="namespacepahm__messages.html#acf0c696cc1604842ee84a5df6d81179c" target="_top" xlink:title="Sets the name of the subroutine that is writing log and/or screen messages.">
<polygon fill="white" stroke="black" points="302.5,-40.5 302.5,-61.5 517.5,-61.5 517.5,-40.5 302.5,-40.5"/>
<text text-anchor="middle" x="410" y="-47.9" font-family="Helvetica,sans-Serif" font-size="12.00">pahm_messages::setmessagesource</text>
</a>
</g>
</g>
<!-- Node1&#45;&gt;Node2 -->
<g id="edge1" class="edge">
<title>Node1&#45;&gt;Node2</title>
<path fill="none" stroke="midnightblue" d="M260.23,-40.3C270.87,-41.06 281.59,-41.83 292.13,-42.59"/>
<polygon fill="midnightblue" stroke="midnightblue" points="291.94,-46.09 302.17,-43.31 292.45,-39.11 291.94,-46.09"/>
</g>
<!-- Node3 -->
<g id="node3" class="node">
<title>Node3</title>
<g id="a_node3"><a xlink:href="namespacepahm__messages.html#ad35e9f2327aad65d4c669e3d886f54dc" target="_top" xlink:title="Removes the name of the subroutine that is no longer active.">
<polygon fill="white" stroke="black" points="296,-0.5 296,-21.5 524,-21.5 524,-0.5 296,-0.5"/>
<text text-anchor="middle" x="410" y="-7.9" font-family="Helvetica,sans-Serif" font-size="12.00">pahm_messages::unsetmessagesource</text>
</a>
</g>
</g>
<!-- Node1&#45;&gt;Node3 -->
<g id="edge2" class="edge">
<title>Node1&#45;&gt;Node3</title>
<path fill="none" stroke="midnightblue" d="M260.23,-21.7C268.7,-21.09 277.22,-20.48 285.66,-19.87"/>
<polygon fill="midnightblue" stroke="midnightblue" points="286.18,-23.35 295.9,-19.14 285.68,-16.36 286.18,-23.35"/>
</g>
</g>
</svg>
