<?xml version="1.0" encoding="UTF-8" standalone="no"?>
<!DOCTYPE svg PUBLIC "-//W3C//DTD SVG 1.1//EN"
 "http://www.w3.org/Graphics/SVG/1.1/DTD/svg11.dtd">
<!-- Generated by graphviz version 2.42.4 (0)
 -->
<!-- Title: pahm_drivermod::getprogramcmdlargs Pages: 1 -->
<!--zoomable 504 -->
<svg id="main" version="1.1" xmlns="http://www.w3.org/2000/svg" xmlns:xlink="http://www.w3.org/1999/xlink" xml:space="preserve" onload="init(evt)">
<style type="text/css"><![CDATA[
.edge:hover path { stroke: red; }
.edge:hover polygon { stroke: red; fill: red; }
]]></style>
<script type="text/javascript"><![CDATA[
var edges = document.getElementsByTagName('g');
if (edges && edges.length) {
  for (var i=0;i<edges.length;i++) {
    if (edges[i].id.substr(0,4)=='edge') {
      edges[i].setAttribute('class','edge');
    }
  }
}
]]></script>
        <defs>
                <circle id="rim" cx="0" cy="0" r="7"/>
                <circle id="rim2" cx="0" cy="0" r="3.5"/>
                <g id="zoomPlus">
                        <use xlink:href="#rim" fill="#404040">
                                <set attributeName="fill" to="#808080" begin="zoomplus.mouseover" end="zoomplus.mouseout"/>
                        </use>
                        <path d="M-4,0h8M0,-4v8" fill="none" stroke="white" stroke-width="1.5" pointer-events="none"/>
                </g>
                <g id="zoomMin">
                        <use xlink:href="#rim" fill="#404040">
                                <set attributeName="fill" to="#808080" begin="zoomminus.mouseover" end="zoomminus.mouseout"/>
                        </use>
                        <path d="M-4,0h8" fill="none" stroke="white" stroke-width="1.5" pointer-events="none"/>
                </g>
                <g id="dirArrow">
                        <path fill="none" stroke="white" stroke-width="1.5" d="M0,-3.0v7 M-2.5,-0.5L0,-3.0L2.5,-0.5"/>
                </g>
               <g id="resetDef">
                       <use xlink:href="#rim2" fill="#404040">
                               <set attributeName="fill" to="#808080" begin="reset.mouseover" end="reset.mouseout"/>
                       </use>
               </g>
        </defs>

<script type="text/javascript">
var viewWidth = 909;
var viewHeight = 504;
var sectionId = 'dynsection-0';
</script>
<script xlink:href="svgpan.js"/>
<svg id="graph" class="graph">
<g id="viewport">
<title>pahm_drivermod::getprogramcmdlargs</title>
<polygon fill="white" stroke="transparent" points="-4,4 -4,-500 905,-500 905,4 -4,4"/>
<!-- Node1 -->
<g id="node1" class="node">
<title>Node1</title>
<g id="a_node1"><a xlink:title="Prints on the screen the help system of the PaHM program.">
<polygon fill="#bfbfbf" stroke="black" points="0,-414.5 0,-435.5 222,-435.5 222,-414.5 0,-414.5"/>
<text text-anchor="middle" x="111" y="-421.9" font-family="Helvetica,sans-Serif" font-size="12.00">pahm_drivermod::getprogramcmdlargs</text>
</a>
</g>
</g>
<!-- Node2 -->
<g id="node2" class="node">
<title>Node2</title>
<g id="a_node2"><a xlink:href="namespacepahm__messages.html#ad2fb6cca6853de16ee45c8cdebe6190a" target="_top" xlink:title="Initializes logging levels.">
<polygon fill="white" stroke="black" points="264,-473.5 264,-494.5 434,-494.5 434,-473.5 264,-473.5"/>
<text text-anchor="middle" x="349" y="-480.9" font-family="Helvetica,sans-Serif" font-size="12.00">pahm_messages::initlogging</text>
</a>
</g>
</g>
<!-- Node1&#45;&gt;Node2 -->
<g id="edge1" class="edge">
<title>Node1&#45;&gt;Node2</title>
<path fill="none" stroke="midnightblue" d="M154.19,-435.55C193.84,-445.46 253.28,-460.32 295.88,-470.97"/>
<polygon fill="midnightblue" stroke="midnightblue" points="295.23,-474.41 305.78,-473.44 296.92,-467.62 295.23,-474.41"/>
</g>
<!-- Node4 -->
<g id="node4" class="node">
<title>Node4</title>
<g id="a_node4"><a xlink:href="namespacepahm__messages.html#a0bf7cabdd36155ddc9946687defee4ff" target="_top" xlink:title="Prints on the screen the help system of the program.">
<polygon fill="white" stroke="black" points="258,-395.5 258,-416.5 440,-416.5 440,-395.5 258,-395.5"/>
<text text-anchor="middle" x="349" y="-402.9" font-family="Helvetica,sans-Serif" font-size="12.00">pahm_messages::programhelp</text>
</a>
</g>
</g>
<!-- Node1&#45;&gt;Node4 -->
<g id="edge3" class="edge">
<title>Node1&#45;&gt;Node4</title>
<path fill="none" stroke="midnightblue" d="M222.05,-416.14C230.69,-415.44 239.39,-414.74 247.95,-414.05"/>
<polygon fill="midnightblue" stroke="midnightblue" points="248.25,-417.54 257.93,-413.25 247.69,-410.56 248.25,-417.54"/>
</g>
<!-- Node5 -->
<g id="node5" class="node">
<title>Node5</title>
<g id="a_node5"><a xlink:href="namespacepahm__messages.html#a339ae583dc62f85245ae10374b0c677f" target="_top" xlink:title="Prints on the screen the versioning information of the program.">
<polygon fill="white" stroke="black" points="485,-434.5 485,-455.5 682,-455.5 682,-434.5 485,-434.5"/>
<text text-anchor="middle" x="583.5" y="-441.9" font-family="Helvetica,sans-Serif" font-size="12.00">pahm_messages::programversion</text>
</a>
</g>
</g>
<!-- Node1&#45;&gt;Node5 -->
<g id="edge5" class="edge">
<title>Node1&#45;&gt;Node5</title>
<path fill="none" stroke="midnightblue" d="M222.01,-429.68C298.17,-432.91 399.03,-437.2 474.7,-440.42"/>
<polygon fill="midnightblue" stroke="midnightblue" points="474.6,-443.92 484.74,-440.84 474.89,-436.92 474.6,-443.92"/>
</g>
<!-- Node6 -->
<g id="node6" class="node">
<title>Node6</title>
<g id="a_node6"><a xlink:href="namespaceutilities.html#ab095172ef12ae151ab5c9aacf82f4dc6" target="_top" xlink:title="This subroutine reads the program&#39;s main control file.">
<polygon fill="white" stroke="black" points="281,-214.5 281,-235.5 417,-235.5 417,-214.5 281,-214.5"/>
<text text-anchor="middle" x="349" y="-221.9" font-family="Helvetica,sans-Serif" font-size="12.00">utilities::readcontrolfile</text>
</a>
</g>
</g>
<!-- Node1&#45;&gt;Node6 -->
<g id="edge6" class="edge">
<title>Node1&#45;&gt;Node6</title>
<path fill="none" stroke="midnightblue" d="M124.69,-414.25C163.44,-381.41 280.45,-282.25 327.79,-242.12"/>
<polygon fill="midnightblue" stroke="midnightblue" points="330.17,-244.7 335.54,-235.56 325.64,-239.36 330.17,-244.7"/>
</g>
<!-- Node3 -->
<g id="node3" class="node">
<title>Node3</title>
<g id="a_node3"><a xlink:href="namespacepahm__messages.html#a4856e55c31868efd23b7f6ca723004e5" target="_top" xlink:title="Opens the log file for writting.">
<polygon fill="white" stroke="black" points="497,-474.5 497,-495.5 670,-495.5 670,-474.5 497,-474.5"/>
<text text-anchor="middle" x="583.5" y="-481.9" font-family="Helvetica,sans-Serif" font-size="12.00">pahm_messages::openlogfile</text>
</a>
</g>
</g>
<!-- Node2&#45;&gt;Node3 -->
<g id="edge2" class="edge">
<title>Node2&#45;&gt;Node3</title>
<path fill="none" stroke="midnightblue" d="M434.27,-484.36C451.32,-484.44 469.37,-484.51 486.79,-484.59"/>
<polygon fill="midnightblue" stroke="midnightblue" points="486.94,-488.09 496.96,-484.63 486.97,-481.09 486.94,-488.09"/>
</g>
<!-- Node4&#45;&gt;Node5 -->
<g id="edge4" class="edge">
<title>Node4&#45;&gt;Node5</title>
<path fill="none" stroke="midnightblue" d="M412.61,-416.5C442.59,-421.53 478.66,-427.58 509.84,-432.81"/>
<polygon fill="midnightblue" stroke="midnightblue" points="509.34,-436.28 519.78,-434.48 510.49,-429.37 509.34,-436.28"/>
</g>
<!-- Node7 -->
<g id="node7" class="node">
<title>Node7</title>
<g id="a_node7"><a xlink:href="namespaceutilities.html#a1e2f2593103f415e1c073284ff95a83f" target="_top" xlink:title="Checks the user defined control file inputs.">
<polygon fill="white" stroke="black" points="495.5,-78.5 495.5,-99.5 671.5,-99.5 671.5,-78.5 495.5,-78.5"/>
<text text-anchor="middle" x="583.5" y="-85.9" font-family="Helvetica,sans-Serif" font-size="12.00">utilities::checkcontrolfileinputs</text>
</a>
</g>
</g>
<!-- Node6&#45;&gt;Node7 -->
<g id="edge7" class="edge">
<title>Node6&#45;&gt;Node7</title>
<path fill="none" stroke="midnightblue" d="M358.86,-214.23C377.86,-191.87 424.96,-140.34 476,-114 485.14,-109.28 495.19,-105.44 505.34,-102.32"/>
<polygon fill="midnightblue" stroke="midnightblue" points="506.43,-105.65 515.09,-99.54 504.51,-98.91 506.43,-105.65"/>
</g>
<!-- Node8 -->
<g id="node8" class="node">
<title>Node8</title>
<g id="a_node8"><a xlink:href="namespacetimedateutils.html#a6c7acacb9981bb9182378a449e45715b" target="_top" xlink:title="Calculates the conversion factor between time units and seconds.">
<polygon fill="white" stroke="black" points="727,-146.5 727,-167.5 901,-167.5 901,-146.5 727,-146.5"/>
<text text-anchor="middle" x="814" y="-153.9" font-family="Helvetica,sans-Serif" font-size="12.00">timedateutils::gettimeconvsec</text>
</a>
</g>
</g>
<!-- Node6&#45;&gt;Node8 -->
<g id="edge12" class="edge">
<title>Node6&#45;&gt;Node8</title>
<path fill="none" stroke="midnightblue" d="M377.07,-214.46C402.27,-205.11 441.1,-191.9 476,-185 556.12,-169.16 648.67,-162.27 716.49,-159.28"/>
<polygon fill="midnightblue" stroke="midnightblue" points="716.89,-162.76 726.74,-158.85 716.6,-155.77 716.89,-162.76"/>
</g>
<!-- Node9 -->
<g id="node9" class="node">
<title>Node9</title>
<g id="a_node9"><a xlink:href="namespacetimedateutils.html#a393203cc78370648d0dd392fe96d66ff" target="_top" xlink:title="Pre&#45;processes an arbitrary date string.">
<polygon fill="white" stroke="black" points="747.5,-89.5 747.5,-110.5 880.5,-110.5 880.5,-89.5 747.5,-89.5"/>
<text text-anchor="middle" x="814" y="-96.9" font-family="Helvetica,sans-Serif" font-size="12.00">timedateutils::joindate</text>
</a>
</g>
</g>
<!-- Node6&#45;&gt;Node9 -->
<g id="edge13" class="edge">
<title>Node6&#45;&gt;Node9</title>
<path fill="none" stroke="midnightblue" d="M365.5,-214.25C388.52,-198.82 433.57,-170.67 476,-156 562.82,-125.99 667.94,-111.79 737.44,-105.26"/>
<polygon fill="midnightblue" stroke="midnightblue" points="737.79,-108.74 747.43,-104.35 737.15,-101.77 737.79,-108.74"/>
</g>
<!-- Node10 -->
<g id="node10" class="node">
<title>Node10</title>
<g id="a_node10"><a xlink:href="namespaceutilities.html#a8dff395c74e87d059dadcf8bacdbfedd" target="_top" xlink:title="Convert a string to upper&#45;case.">
<polygon fill="white" stroke="black" points="751,-40.5 751,-61.5 877,-61.5 877,-40.5 751,-40.5"/>
<text text-anchor="middle" x="814" y="-47.9" font-family="Helvetica,sans-Serif" font-size="12.00">utilities::touppercase</text>
</a>
</g>
</g>
<!-- Node6&#45;&gt;Node10 -->
<g id="edge23" class="edge">
<title>Node6&#45;&gt;Node10</title>
<path fill="none" stroke="midnightblue" d="M354.83,-214.08C368.64,-184.34 411.52,-101.95 476,-69 560.79,-25.68 673.73,-30.1 744.91,-39.11"/>
<polygon fill="midnightblue" stroke="midnightblue" points="744.73,-42.62 755.11,-40.47 745.65,-35.68 744.73,-42.62"/>
</g>
<!-- Node11 -->
<g id="node11" class="node">
<title>Node11</title>
<g id="a_node11"><a xlink:href="namespacetimedateutils.html#a565d549493d69e2c9ea5b7af18247df5" target="_top" xlink:title="Constructs a NetCDF time string.">
<polygon fill="white" stroke="black" points="497.5,-394.5 497.5,-415.5 669.5,-415.5 669.5,-394.5 497.5,-394.5"/>
<text text-anchor="middle" x="583.5" y="-401.9" font-family="Helvetica,sans-Serif" font-size="12.00">timedateutils::datetime2string</text>
</a>
</g>
</g>
<!-- Node6&#45;&gt;Node11 -->
<g id="edge11" class="edge">
<title>Node6&#45;&gt;Node11</title>
<path fill="none" stroke="midnightblue" d="M354.99,-235.75C369.23,-265.09 413.1,-346.89 476,-385 479.71,-387.25 483.62,-389.25 487.65,-391.04"/>
<polygon fill="midnightblue" stroke="midnightblue" points="486.69,-394.42 497.28,-394.83 489.26,-387.91 486.69,-394.42"/>
</g>
<!-- Node12 -->
<g id="node12" class="node">
<title>Node12</title>
<g id="a_node12"><a xlink:href="namespacetimedateutils.html#abc63ac16baec18b6c9bb2ee6e0400a63" target="_top" xlink:title="Determines the Julian date from a Gregorian date.">
<polygon fill="white" stroke="black" points="506,-354.5 506,-375.5 661,-375.5 661,-354.5 506,-354.5"/>
<text text-anchor="middle" x="583.5" y="-361.9" font-family="Helvetica,sans-Serif" font-size="12.00">timedateutils::juldaytogreg</text>
</a>
</g>
</g>
<!-- Node6&#45;&gt;Node12 -->
<g id="edge14" class="edge">
<title>Node6&#45;&gt;Node12</title>
<path fill="none" stroke="midnightblue" d="M357.73,-235.76C375.57,-259.71 422.23,-317.46 476,-345 482.39,-348.27 489.24,-351.01 496.27,-353.31"/>
<polygon fill="midnightblue" stroke="midnightblue" points="495.37,-356.69 505.95,-356.17 497.35,-349.98 495.37,-356.69"/>
</g>
<!-- Node13 -->
<g id="node13" class="node">
<title>Node13</title>
<g id="a_node13"><a xlink:href="namespaceutilities.html#a062355064a86a716b2ddff1aa0cd3fb4" target="_top" xlink:title="This function loads input values into a requested model integer variable.">
<polygon fill="white" stroke="black" points="527,-314.5 527,-335.5 640,-335.5 640,-314.5 527,-314.5"/>
<text text-anchor="middle" x="583.5" y="-321.9" font-family="Helvetica,sans-Serif" font-size="12.00">utilities::loadintvar</text>
</a>
</g>
</g>
<!-- Node6&#45;&gt;Node13 -->
<g id="edge15" class="edge">
<title>Node6&#45;&gt;Node13</title>
<path fill="none" stroke="midnightblue" d="M363.05,-235.71C384.97,-253.1 431.17,-287.32 476,-305 488.89,-310.08 503.17,-313.9 516.98,-316.75"/>
<polygon fill="midnightblue" stroke="midnightblue" points="516.45,-320.21 526.93,-318.66 517.77,-313.34 516.45,-320.21"/>
</g>
<!-- Node14 -->
<g id="node14" class="node">
<title>Node14</title>
<g id="a_node14"><a xlink:href="namespaceutilities.html#a4a70a4be51dcd79bc46b6cfcb2d2ac0a" target="_top" xlink:title="This function loads input values into a requested model real variable.">
<polygon fill="white" stroke="black" points="523.5,-274.5 523.5,-295.5 643.5,-295.5 643.5,-274.5 523.5,-274.5"/>
<text text-anchor="middle" x="583.5" y="-281.9" font-family="Helvetica,sans-Serif" font-size="12.00">utilities::loadrealvar</text>
</a>
</g>
</g>
<!-- Node6&#45;&gt;Node14 -->
<g id="edge16" class="edge">
<title>Node6&#45;&gt;Node14</title>
<path fill="none" stroke="midnightblue" d="M379.75,-235.57C405.09,-244.31 442.61,-256.6 476,-265 488.02,-268.02 500.91,-270.82 513.42,-273.3"/>
<polygon fill="midnightblue" stroke="midnightblue" points="512.87,-276.75 523.35,-275.22 514.2,-269.88 512.87,-276.75"/>
</g>
<!-- Node15 -->
<g id="node15" class="node">
<title>Node15</title>
<g id="a_node15"><a xlink:href="namespaceutilities.html#ab30d13ba0fcebcb933a30be2237ec162" target="_top" xlink:title="This function parses lines of text from input script/control files.">
<polygon fill="white" stroke="black" points="528.5,-0.5 528.5,-21.5 638.5,-21.5 638.5,-0.5 528.5,-0.5"/>
<text text-anchor="middle" x="583.5" y="-7.9" font-family="Helvetica,sans-Serif" font-size="12.00">utilities::parseline</text>
</a>
</g>
</g>
<!-- Node6&#45;&gt;Node15 -->
<g id="edge17" class="edge">
<title>Node6&#45;&gt;Node15</title>
<path fill="none" stroke="midnightblue" d="M353.8,-214.39C365.98,-182 407.32,-83.67 476,-36 488.42,-27.38 503.42,-21.7 518.19,-17.97"/>
<polygon fill="midnightblue" stroke="midnightblue" points="519.36,-21.3 528.35,-15.69 517.82,-14.47 519.36,-21.3"/>
</g>
<!-- Node17 -->
<g id="node17" class="node">
<title>Node17</title>
<g id="a_node17"><a xlink:href="namespaceutilities.html#a57953a3306e17ea2e28254e3d2091516" target="_top" xlink:title="This subroutine prints on the screen the values of the program&#39;s parameters.">
<polygon fill="white" stroke="black" points="505.5,-234.5 505.5,-255.5 661.5,-255.5 661.5,-234.5 505.5,-234.5"/>
<text text-anchor="middle" x="583.5" y="-241.9" font-family="Helvetica,sans-Serif" font-size="12.00">utilities::printmodelparams</text>
</a>
</g>
</g>
<!-- Node6&#45;&gt;Node17 -->
<g id="edge20" class="edge">
<title>Node6&#45;&gt;Node17</title>
<path fill="none" stroke="midnightblue" d="M417.25,-230.78C441.52,-232.87 469.28,-235.26 495.03,-237.48"/>
<polygon fill="midnightblue" stroke="midnightblue" points="494.9,-240.98 505.16,-238.35 495.5,-234 494.9,-240.98"/>
</g>
<!-- Node19 -->
<g id="node19" class="node">
<title>Node19</title>
<g id="a_node19"><a xlink:href="namespacepahm__messages.html#acf0c696cc1604842ee84a5df6d81179c" target="_top" xlink:title="Sets the name of the subroutine that is writing log and/or screen messages.">
<polygon fill="white" stroke="black" points="476,-194.5 476,-215.5 691,-215.5 691,-194.5 476,-194.5"/>
<text text-anchor="middle" x="583.5" y="-201.9" font-family="Helvetica,sans-Serif" font-size="12.00">pahm_messages::setmessagesource</text>
</a>
</g>
</g>
<!-- Node6&#45;&gt;Node19 -->
<g id="edge22" class="edge">
<title>Node6&#45;&gt;Node19</title>
<path fill="none" stroke="midnightblue" d="M417.25,-219.22C432.46,-217.91 449.05,-216.48 465.65,-215.05"/>
<polygon fill="midnightblue" stroke="midnightblue" points="466.32,-218.51 475.98,-214.16 465.72,-211.53 466.32,-218.51"/>
</g>
<!-- Node7&#45;&gt;Node8 -->
<g id="edge8" class="edge">
<title>Node7&#45;&gt;Node8</title>
<path fill="none" stroke="midnightblue" d="M620.2,-99.62C660.03,-111.48 724.53,-130.67 767.84,-143.56"/>
<polygon fill="midnightblue" stroke="midnightblue" points="766.96,-146.95 777.55,-146.45 768.96,-140.24 766.96,-146.95"/>
</g>
<!-- Node7&#45;&gt;Node9 -->
<g id="edge9" class="edge">
<title>Node7&#45;&gt;Node9</title>
<path fill="none" stroke="midnightblue" d="M671.54,-93.19C693.11,-94.23 716.05,-95.33 737.04,-96.34"/>
<polygon fill="midnightblue" stroke="midnightblue" points="737.02,-99.85 747.18,-96.83 737.36,-92.85 737.02,-99.85"/>
</g>
<!-- Node7&#45;&gt;Node10 -->
<g id="edge10" class="edge">
<title>Node7&#45;&gt;Node10</title>
<path fill="none" stroke="midnightblue" d="M647.85,-78.47C676.68,-73.67 710.95,-67.97 740.78,-63.01"/>
<polygon fill="midnightblue" stroke="midnightblue" points="741.43,-66.45 750.72,-61.36 740.28,-59.55 741.43,-66.45"/>
</g>
<!-- Node15&#45;&gt;Node10 -->
<g id="edge19" class="edge">
<title>Node15&#45;&gt;Node10</title>
<path fill="none" stroke="midnightblue" d="M638.65,-20.48C669.75,-25.92 709.15,-32.82 742.62,-38.68"/>
<polygon fill="midnightblue" stroke="midnightblue" points="742.35,-42.19 752.81,-40.46 743.56,-35.29 742.35,-42.19"/>
</g>
<!-- Node16 -->
<g id="node16" class="node">
<title>Node16</title>
<g id="a_node16"><a xlink:href="namespaceutilities.html#a8723656afba63e33ed1c6cc8e5440b63" target="_top" xlink:title="Gets a line from a file.">
<polygon fill="white" stroke="black" points="749,-0.5 749,-21.5 879,-21.5 879,-0.5 749,-0.5"/>
<text text-anchor="middle" x="814" y="-7.9" font-family="Helvetica,sans-Serif" font-size="12.00">utilities::getlinerecord</text>
</a>
</g>
</g>
<!-- Node15&#45;&gt;Node16 -->
<g id="edge18" class="edge">
<title>Node15&#45;&gt;Node16</title>
<path fill="none" stroke="midnightblue" d="M638.65,-11C668.42,-11 705.81,-11 738.31,-11"/>
<polygon fill="midnightblue" stroke="midnightblue" points="738.68,-14.5 748.68,-11 738.68,-7.5 738.68,-14.5"/>
</g>
<!-- Node18 -->
<g id="node18" class="node">
<title>Node18</title>
<g id="a_node18"><a xlink:href="namespaceutilities.html#a376978b945cbdf5d33ff8bf905d19866" target="_top" xlink:title="Convert a string to lower&#45;case.">
<polygon fill="white" stroke="black" points="752,-234.5 752,-255.5 876,-255.5 876,-234.5 752,-234.5"/>
<text text-anchor="middle" x="814" y="-241.9" font-family="Helvetica,sans-Serif" font-size="12.00">utilities::tolowercase</text>
</a>
</g>
</g>
<!-- Node17&#45;&gt;Node18 -->
<g id="edge21" class="edge">
<title>Node17&#45;&gt;Node18</title>
<path fill="none" stroke="midnightblue" d="M661.54,-245C687.39,-245 716.09,-245 741.5,-245"/>
<polygon fill="midnightblue" stroke="midnightblue" points="741.8,-248.5 751.8,-245 741.8,-241.5 741.8,-248.5"/>
</g>
</g>
</svg>
        <g id="navigator" transform="translate(0 0)" fill="#404254">
                <rect fill="#f2f5e9" fill-opacity="0.5" stroke="#606060" stroke-width=".5" x="0" y="0" width="60" height="60"/>
                <use id="zoomplus" xlink:href="#zoomPlus" x="17" y="9" onmousedown="handleZoom(evt,'in')"/>
                <use id="zoomminus" xlink:href="#zoomMin" x="42" y="9" onmousedown="handleZoom(evt,'out')"/>
                <use id="reset" xlink:href="#resetDef" x="30" y="36" onmousedown="handleReset()"/>
                <g id="arrowUp" xlink:href="#dirArrow" transform="translate(30 24)" onmousedown="handlePan(0,-1)">
                  <use xlink:href="#rim" fill="#404040">
                        <set attributeName="fill" to="#808080" begin="arrowUp.mouseover" end="arrowUp.mouseout"/>
                  </use>
                  <path fill="none" stroke="white" stroke-width="1.5" d="M0,-3.0v7 M-2.5,-0.5L0,-3.0L2.5,-0.5"/>
                </g>
                <g id="arrowRight" xlink:href="#dirArrow" transform="rotate(90) translate(36 -43)" onmousedown="handlePan(1,0)">
                  <use xlink:href="#rim" fill="#404040">
                        <set attributeName="fill" to="#808080" begin="arrowRight.mouseover" end="arrowRight.mouseout"/>
                  </use>
                  <path fill="none" stroke="white" stroke-width="1.5" d="M0,-3.0v7 M-2.5,-0.5L0,-3.0L2.5,-0.5"/>
                </g>
                <g id="arrowDown" xlink:href="#dirArrow" transform="rotate(180) translate(-30 -48)" onmousedown="handlePan(0,1)">
                  <use xlink:href="#rim" fill="#404040">
                        <set attributeName="fill" to="#808080" begin="arrowDown.mouseover" end="arrowDown.mouseout"/>
                  </use>
                  <path fill="none" stroke="white" stroke-width="1.5" d="M0,-3.0v7 M-2.5,-0.5L0,-3.0L2.5,-0.5"/>
                </g>
                <g id="arrowLeft" xlink:href="#dirArrow" transform="rotate(270) translate(-36 17)" onmousedown="handlePan(-1,0)">
                  <use xlink:href="#rim" fill="#404040">
                        <set attributeName="fill" to="#808080" begin="arrowLeft.mouseover" end="arrowLeft.mouseout"/>
                  </use>
                  <path fill="none" stroke="white" stroke-width="1.5" d="M0,-3.0v7 M-2.5,-0.5L0,-3.0L2.5,-0.5"/>
                </g>
        </g>
        <svg viewBox="0 0 15 15" width="100%" height="30px" preserveAspectRatio="xMaxYMin meet">
         <g id="arrow_out" transform="scale(0.3 0.3)">
          <a xlink:href="namespacepahm__drivermod_a3294ddc68b72ff9220010a8764a8afe3_cgraph_org.svg" target="_base">
           <rect id="button" ry="5" rx="5" y="6" x="6" height="38" width="38"
                fill="#f2f5e9" fill-opacity="0.5" stroke="#606060" stroke-width="1.0"/>
           <path id="arrow"
             d="M 11.500037,31.436501 C 11.940474,20.09759 22.043105,11.32322 32.158766,21.979434 L 37.068811,17.246167 C 37.068811,17.246167 37.088388,32 37.088388,32 L 22.160133,31.978069 C 22.160133,31.978069 26.997745,27.140456 26.997745,27.140456 C 18.528582,18.264221 13.291696,25.230495 11.500037,31.436501 z"
             style="fill:#404040;"/>
          </a>
         </g>
        </svg>
</svg>
