<?xml version="1.0" encoding="UTF-8" standalone="no"?>
<!DOCTYPE svg PUBLIC "-//W3C//DTD SVG 1.1//EN"
 "http://www.w3.org/Graphics/SVG/1.1/DTD/svg11.dtd">
<!-- Generated by graphviz version 2.42.4 (0)
 -->
<!-- Title: pahm_netcdfio::netcdfterminate Pages: 1 -->
<svg width="984pt" height="84pt"
 viewBox="0.00 0.00 984.00 83.50" xmlns="http://www.w3.org/2000/svg" xmlns:xlink="http://www.w3.org/1999/xlink">
<g id="graph0" class="graph" transform="scale(1 1) rotate(0) translate(4 79.5)">
<title>pahm_netcdfio::netcdfterminate</title>
<polygon fill="white" stroke="transparent" points="-4,4 -4,-79.5 980,-79.5 980,4 -4,4"/>
<!-- Node1 -->
<g id="node1" class="node">
<title>Node1</title>
<g id="a_node1"><a xlink:title="Terminates the program on NetCDF error.">
<polygon fill="#bfbfbf" stroke="black" points="792,-23.5 792,-44.5 976,-44.5 976,-23.5 792,-23.5"/>
<text text-anchor="middle" x="884" y="-30.9" font-family="Helvetica,sans-Serif" font-size="12.00">pahm_netcdfio::netcdfterminate</text>
</a>
</g>
</g>
<!-- Node2 -->
<g id="node2" class="node">
<title>Node2</title>
<g id="a_node2"><a xlink:href="namespacepahm__netcdfio.html#aa686f5f58121595cbd368f0f0b12bfba" target="_top" xlink:title="Checks the return value from netCDF calls; if there was an error, it writes the error message to the ...">
<polygon fill="white" stroke="black" points="582,-41 582,-75 710,-75 710,-41 582,-41"/>
<text text-anchor="start" x="590" y="-61.4" font-family="Helvetica,sans-Serif" font-size="12.00">pahm_netcdfio::base</text>
<text text-anchor="middle" x="646" y="-48.4" font-family="Helvetica,sans-Serif" font-size="12.00">_netcdfcheckerr</text>
</a>
</g>
</g>
<!-- Node1&#45;&gt;Node2 -->
<g id="edge1" class="edge">
<title>Node1&#45;&gt;Node2</title>
<path fill="none" stroke="midnightblue" d="M781.78,-44.29C757.5,-46.76 732.24,-49.33 710.25,-51.57"/>
<polygon fill="midnightblue" stroke="midnightblue" points="782.16,-47.77 791.76,-43.28 781.45,-40.81 782.16,-47.77"/>
</g>
<!-- Node3 -->
<g id="node3" class="node">
<title>Node3</title>
<g id="a_node3"><a xlink:href="namespacepahm__netcdfio.html#a850b1df36d9d2d229b8b03f0558c3703" target="_top" xlink:title="Creates a new NetCDF data file and puts it in define mode.">
<polygon fill="white" stroke="black" points="536,-0.5 536,-21.5 756,-21.5 756,-0.5 536,-0.5"/>
<text text-anchor="middle" x="646" y="-7.9" font-family="Helvetica,sans-Serif" font-size="12.00">pahm_netcdfio::newadcircnetcdfoutfile</text>
</a>
</g>
</g>
<!-- Node1&#45;&gt;Node3 -->
<g id="edge2" class="edge">
<title>Node1&#45;&gt;Node3</title>
<path fill="none" stroke="midnightblue" d="M781.78,-24.14C772.89,-23.27 763.87,-22.39 754.93,-21.52"/>
<polygon fill="midnightblue" stroke="midnightblue" points="781.46,-27.62 791.76,-25.11 782.14,-20.65 781.46,-27.62"/>
</g>
<!-- Node4 -->
<g id="node4" class="node">
<title>Node4</title>
<g id="a_node4"><a xlink:href="namespacepahm__netcdfio.html#a21917504b7e9d5594375d1a48bb4cb8f" target="_top" xlink:title="Initializes a new NetCDF data file and puts it in define mode. Sets up netCDF dimensions and variable...">
<polygon fill="white" stroke="black" points="286,-0.5 286,-21.5 500,-21.5 500,-0.5 286,-0.5"/>
<text text-anchor="middle" x="393" y="-7.9" font-family="Helvetica,sans-Serif" font-size="12.00">pahm_netcdfio::initadcircnetcdfoutfile</text>
</a>
</g>
</g>
<!-- Node3&#45;&gt;Node4 -->
<g id="edge3" class="edge">
<title>Node3&#45;&gt;Node4</title>
<path fill="none" stroke="midnightblue" d="M525.4,-11C516.99,-11 508.54,-11 500.21,-11"/>
<polygon fill="midnightblue" stroke="midnightblue" points="525.64,-14.5 535.64,-11 525.64,-7.5 525.64,-14.5"/>
</g>
<!-- Node5 -->
<g id="node5" class="node">
<title>Node5</title>
<g id="a_node5"><a xlink:href="namespacepahm__drivermod.html#a7ae4571521a5bb4eb55990dd7fb76237" target="_top" xlink:title="Subroutine to run PaHM (timestepping).">
<polygon fill="white" stroke="black" points="83,-0.5 83,-21.5 250,-21.5 250,-0.5 83,-0.5"/>
<text text-anchor="middle" x="166.5" y="-7.9" font-family="Helvetica,sans-Serif" font-size="12.00">pahm_drivermod::pahm_run</text>
</a>
</g>
</g>
<!-- Node4&#45;&gt;Node5 -->
<g id="edge4" class="edge">
<title>Node4&#45;&gt;Node5</title>
<path fill="none" stroke="midnightblue" d="M275.83,-11C267.17,-11 258.55,-11 250.16,-11"/>
<polygon fill="midnightblue" stroke="midnightblue" points="276,-14.5 286,-11 276,-7.5 276,-14.5"/>
</g>
<!-- Node6 -->
<g id="node6" class="node">
<title>Node6</title>
<g id="a_node6"><a xlink:href="pahm_8F90.html#a3d3918f5c5f1ac0a7991a7a78f530f30" target="_top" xlink:title=" ">
<polygon fill="white" stroke="black" points="0,-0.5 0,-21.5 47,-21.5 47,-0.5 0,-0.5"/>
<text text-anchor="middle" x="23.5" y="-7.9" font-family="Helvetica,sans-Serif" font-size="12.00">pahm</text>
</a>
</g>
</g>
<!-- Node5&#45;&gt;Node6 -->
<g id="edge5" class="edge">
<title>Node5&#45;&gt;Node6</title>
<path fill="none" stroke="midnightblue" d="M72.41,-11C63.14,-11 54.45,-11 47.08,-11"/>
<polygon fill="midnightblue" stroke="midnightblue" points="72.66,-14.5 82.66,-11 72.66,-7.5 72.66,-14.5"/>
</g>
</g>
</svg>
