<?xml version="1.0" encoding="UTF-8" standalone="no"?>
<!DOCTYPE svg PUBLIC "-//W3C//DTD SVG 1.1//EN"
 "http://www.w3.org/Graphics/SVG/1.1/DTD/svg11.dtd">
<!-- Generated by graphviz version 2.42.4 (0)
 -->
<!-- Title: parwind::processhollanddata Pages: 1 -->
<svg width="677pt" height="190pt"
 viewBox="0.00 0.00 677.00 190.00" xmlns="http://www.w3.org/2000/svg" xmlns:xlink="http://www.w3.org/1999/xlink">
<g id="graph0" class="graph" transform="scale(1 1) rotate(0) translate(4 186)">
<title>parwind::processhollanddata</title>
<polygon fill="white" stroke="transparent" points="-4,4 -4,-186 673,-186 673,4 -4,4"/>
<!-- Node1 -->
<g id="node1" class="node">
<title>Node1</title>
<g id="a_node1"><a xlink:title="Subroutine to support the Holland model (GetHolland). Gets the next line from the file,...">
<polygon fill="#bfbfbf" stroke="black" points="0,-80.5 0,-101.5 171,-101.5 171,-80.5 0,-80.5"/>
<text text-anchor="middle" x="85.5" y="-87.9" font-family="Helvetica,sans-Serif" font-size="12.00">parwind::processhollanddata</text>
</a>
</g>
</g>
<!-- Node2 -->
<g id="node2" class="node">
<title>Node2</title>
<g id="a_node2"><a xlink:href="namespaceparwind.html#a7bbd86c1fc9b715f2dd8c8d340c6964c" target="_top" xlink:title="Subroutine to allocate memory for a holland structure.">
<polygon fill="white" stroke="black" points="236,-160.5 236,-181.5 376,-181.5 376,-160.5 236,-160.5"/>
<text text-anchor="middle" x="306" y="-167.9" font-family="Helvetica,sans-Serif" font-size="12.00">parwind::allochollstruct</text>
</a>
</g>
</g>
<!-- Node1&#45;&gt;Node2 -->
<g id="edge1" class="edge">
<title>Node1&#45;&gt;Node2</title>
<path fill="none" stroke="midnightblue" d="M104.23,-101.68C127.18,-115.06 168.77,-137.84 207,-151 214.79,-153.68 223.06,-156.06 231.36,-158.15"/>
<polygon fill="midnightblue" stroke="midnightblue" points="230.55,-161.55 241.09,-160.47 232.18,-154.74 230.55,-161.55"/>
</g>
<!-- Node3 -->
<g id="node3" class="node">
<title>Node3</title>
<g id="a_node3"><a xlink:href="namespacepahm__vortex.html#a2c7cf08c2619746ea1c60556b6487b35" target="_top" xlink:title="This subroutine calculates the intensity time change of a variable using second order mumerical accur...">
<polygon fill="white" stroke="black" points="207,-80.5 207,-101.5 405,-101.5 405,-80.5 207,-80.5"/>
<text text-anchor="middle" x="306" y="-87.9" font-family="Helvetica,sans-Serif" font-size="12.00">pahm_vortex::calcintensitychange</text>
</a>
</g>
</g>
<!-- Node1&#45;&gt;Node3 -->
<g id="edge2" class="edge">
<title>Node1&#45;&gt;Node3</title>
<path fill="none" stroke="midnightblue" d="M171.29,-91C179.65,-91 188.22,-91 196.78,-91"/>
<polygon fill="midnightblue" stroke="midnightblue" points="196.8,-94.5 206.8,-91 196.8,-87.5 196.8,-94.5"/>
</g>
<!-- Node6 -->
<g id="node6" class="node">
<title>Node6</title>
<g id="a_node6"><a xlink:href="namespaceutilities.html#a241eabd46f9d0e4a26adc221570ad79f" target="_top" xlink:title="Find the unique non&#45;blank elements in 1D character array.">
<polygon fill="white" stroke="black" points="246,-40.5 246,-61.5 366,-61.5 366,-40.5 246,-40.5"/>
<text text-anchor="middle" x="306" y="-47.9" font-family="Helvetica,sans-Serif" font-size="12.00">utilities::charunique</text>
</a>
</g>
</g>
<!-- Node1&#45;&gt;Node6 -->
<g id="edge5" class="edge">
<title>Node1&#45;&gt;Node6</title>
<path fill="none" stroke="midnightblue" d="M143.91,-80.49C172.65,-75.23 207.62,-68.83 237.63,-63.33"/>
<polygon fill="midnightblue" stroke="midnightblue" points="238.39,-66.75 247.6,-61.51 237.13,-59.87 238.39,-66.75"/>
</g>
<!-- Node7 -->
<g id="node7" class="node">
<title>Node7</title>
<g id="a_node7"><a xlink:href="namespaceutilities.html#a8dff395c74e87d059dadcf8bacdbfedd" target="_top" xlink:title="Convert a string to upper&#45;case.">
<polygon fill="white" stroke="black" points="243,-0.5 243,-21.5 369,-21.5 369,-0.5 243,-0.5"/>
<text text-anchor="middle" x="306" y="-7.9" font-family="Helvetica,sans-Serif" font-size="12.00">utilities::touppercase</text>
</a>
</g>
</g>
<!-- Node1&#45;&gt;Node7 -->
<g id="edge6" class="edge">
<title>Node1&#45;&gt;Node7</title>
<path fill="none" stroke="midnightblue" d="M104.23,-80.32C127.18,-66.94 168.77,-44.16 207,-31 215.29,-28.14 224.12,-25.64 232.96,-23.45"/>
<polygon fill="midnightblue" stroke="midnightblue" points="233.98,-26.81 242.92,-21.12 232.38,-19.99 233.98,-26.81"/>
</g>
<!-- Node8 -->
<g id="node8" class="node">
<title>Node8</title>
<g id="a_node8"><a xlink:href="namespacepahm__vortex.html#a68cd3f6ceb40446c3c0c6d192f8b61bb" target="_top" xlink:title="This subroutine calculates the translational velocity of a moving hurricane using second order mumeri...">
<polygon fill="white" stroke="black" points="240.5,-120.5 240.5,-141.5 371.5,-141.5 371.5,-120.5 240.5,-120.5"/>
<text text-anchor="middle" x="306" y="-127.9" font-family="Helvetica,sans-Serif" font-size="12.00">pahm_vortex::uvtrans</text>
</a>
</g>
</g>
<!-- Node1&#45;&gt;Node8 -->
<g id="edge7" class="edge">
<title>Node1&#45;&gt;Node8</title>
<path fill="none" stroke="midnightblue" d="M143.91,-101.51C172.65,-106.77 207.62,-113.17 237.63,-118.67"/>
<polygon fill="midnightblue" stroke="midnightblue" points="237.13,-122.13 247.6,-120.49 238.39,-115.25 237.13,-122.13"/>
</g>
<!-- Node4 -->
<g id="node4" class="node">
<title>Node4</title>
<g id="a_node4"><a xlink:href="namespacepahm__messages.html#acf0c696cc1604842ee84a5df6d81179c" target="_top" xlink:title="Sets the name of the subroutine that is writing log and/or screen messages.">
<polygon fill="white" stroke="black" points="447.5,-120.5 447.5,-141.5 662.5,-141.5 662.5,-120.5 447.5,-120.5"/>
<text text-anchor="middle" x="555" y="-127.9" font-family="Helvetica,sans-Serif" font-size="12.00">pahm_messages::setmessagesource</text>
</a>
</g>
</g>
<!-- Node3&#45;&gt;Node4 -->
<g id="edge3" class="edge">
<title>Node3&#45;&gt;Node4</title>
<path fill="none" stroke="midnightblue" d="M371.9,-101.51C404.81,-106.84 444.95,-113.34 479.16,-118.88"/>
<polygon fill="midnightblue" stroke="midnightblue" points="478.68,-122.35 489.11,-120.49 479.8,-115.44 478.68,-122.35"/>
</g>
<!-- Node5 -->
<g id="node5" class="node">
<title>Node5</title>
<g id="a_node5"><a xlink:href="namespacepahm__messages.html#ad35e9f2327aad65d4c669e3d886f54dc" target="_top" xlink:title="Removes the name of the subroutine that is no longer active.">
<polygon fill="white" stroke="black" points="441,-80.5 441,-101.5 669,-101.5 669,-80.5 441,-80.5"/>
<text text-anchor="middle" x="555" y="-87.9" font-family="Helvetica,sans-Serif" font-size="12.00">pahm_messages::unsetmessagesource</text>
</a>
</g>
</g>
<!-- Node3&#45;&gt;Node5 -->
<g id="edge4" class="edge">
<title>Node3&#45;&gt;Node5</title>
<path fill="none" stroke="midnightblue" d="M405.33,-91C413.74,-91 422.32,-91 430.89,-91"/>
<polygon fill="midnightblue" stroke="midnightblue" points="430.94,-94.5 440.94,-91 430.94,-87.5 430.94,-94.5"/>
</g>
<!-- Node8&#45;&gt;Node4 -->
<g id="edge8" class="edge">
<title>Node8&#45;&gt;Node4</title>
<path fill="none" stroke="midnightblue" d="M371.57,-131C391.74,-131 414.65,-131 437.26,-131"/>
<polygon fill="midnightblue" stroke="midnightblue" points="437.27,-134.5 447.27,-131 437.27,-127.5 437.27,-134.5"/>
</g>
<!-- Node8&#45;&gt;Node5 -->
<g id="edge9" class="edge">
<title>Node8&#45;&gt;Node5</title>
<path fill="none" stroke="midnightblue" d="M371.57,-120.54C404.49,-115.21 444.7,-108.7 478.98,-103.15"/>
<polygon fill="midnightblue" stroke="midnightblue" points="479.63,-106.59 488.95,-101.54 478.51,-99.68 479.63,-106.59"/>
</g>
</g>
</svg>
