<?xml version="1.0" encoding="UTF-8" standalone="no"?>
<!DOCTYPE svg PUBLIC "-//W3C//DTD SVG 1.1//EN"
 "http://www.w3.org/Graphics/SVG/1.1/DTD/svg11.dtd">
<!-- Generated by graphviz version 2.42.4 (0)
 -->
<!-- Title: pahm_vortex::findroot Pages: 1 -->
<svg width="343pt" height="70pt"
 viewBox="0.00 0.00 343.00 70.00" xmlns="http://www.w3.org/2000/svg" xmlns:xlink="http://www.w3.org/1999/xlink">
<g id="graph0" class="graph" transform="scale(1 1) rotate(0) translate(4 66)">
<title>pahm_vortex::findroot</title>
<polygon fill="white" stroke="transparent" points="-4,4 -4,-66 339,-66 339,4 -4,4"/>
<!-- Node1 -->
<g id="node1" class="node">
<title>Node1</title>
<g id="a_node1"><a xlink:title="Use brute&#45;force marching to find a root the interval [x1,x2].">
<polygon fill="#bfbfbf" stroke="black" points="204,-20.5 204,-41.5 335,-41.5 335,-20.5 204,-20.5"/>
<text text-anchor="middle" x="269.5" y="-27.9" font-family="Helvetica,sans-Serif" font-size="12.00">pahm_vortex::findroot</text>
</a>
</g>
</g>
<!-- Node2 -->
<g id="node2" class="node">
<title>Node2</title>
<g id="a_node2"><a xlink:href="namespacepahm__vortex.html#a580543eed13ec39a2d21135376a5f72a" target="_top" xlink:title="Calculate the radius of maximum winds for all storm quadrants.">
<polygon fill="white" stroke="black" points="8,-40.5 8,-61.5 160,-61.5 160,-40.5 8,-40.5"/>
<text text-anchor="middle" x="84" y="-47.9" font-family="Helvetica,sans-Serif" font-size="12.00">pahm_vortex::calcrmaxes</text>
</a>
</g>
</g>
<!-- Node1&#45;&gt;Node2 -->
<g id="edge1" class="edge">
<title>Node1&#45;&gt;Node2</title>
<path fill="none" stroke="midnightblue" d="M193.73,-39.15C182.63,-40.36 171.19,-41.61 160.09,-42.82"/>
<polygon fill="midnightblue" stroke="midnightblue" points="194.24,-42.61 203.8,-38.05 193.48,-35.66 194.24,-42.61"/>
</g>
<!-- Node3 -->
<g id="node3" class="node">
<title>Node3</title>
<g id="a_node3"><a xlink:href="namespacepahm__vortex.html#a5f7ee771ea7ff74d85f4f431886bbffb" target="_top" xlink:title="Calculate the radius of maximum winds for all storm quadrants. Solving the full gradient wind equatio...">
<polygon fill="white" stroke="black" points="0,-0.5 0,-21.5 168,-21.5 168,-0.5 0,-0.5"/>
<text text-anchor="middle" x="84" y="-7.9" font-family="Helvetica,sans-Serif" font-size="12.00">pahm_vortex::calcrmaxesfull</text>
</a>
</g>
</g>
<!-- Node1&#45;&gt;Node3 -->
<g id="edge2" class="edge">
<title>Node1&#45;&gt;Node3</title>
<path fill="none" stroke="midnightblue" d="M193.65,-22.84C185.22,-21.92 176.6,-20.98 168.08,-20.05"/>
<polygon fill="midnightblue" stroke="midnightblue" points="193.48,-26.34 203.8,-23.95 194.24,-19.39 193.48,-26.34"/>
</g>
</g>
</svg>
