<?xml version="1.0" encoding="UTF-8" standalone="no"?>
<!DOCTYPE svg PUBLIC "-//W3C//DTD SVG 1.1//EN"
 "http://www.w3.org/Graphics/SVG/1.1/DTD/svg11.dtd">
<!-- Generated by graphviz version 2.42.4 (0)
 -->
<!-- Title: pahm_mesh::readmeshasciifort14 Pages: 1 -->
<svg width="771pt" height="109pt"
 viewBox="0.00 0.00 771.00 109.00" xmlns="http://www.w3.org/2000/svg" xmlns:xlink="http://www.w3.org/1999/xlink">
<g id="graph0" class="graph" transform="scale(1 1) rotate(0) translate(4 105)">
<title>pahm_mesh::readmeshasciifort14</title>
<polygon fill="white" stroke="transparent" points="-4,4 -4,-105 767,-105 767,4 -4,4"/>
<!-- Node1 -->
<g id="node1" class="node">
<title>Node1</title>
<g id="a_node1"><a xlink:title="Reads the ADCIRC fort.14 mesh file.">
<polygon fill="#bfbfbf" stroke="black" points="0,-40.5 0,-61.5 197,-61.5 197,-40.5 0,-40.5"/>
<text text-anchor="middle" x="98.5" y="-47.9" font-family="Helvetica,sans-Serif" font-size="12.00">pahm_mesh::readmeshasciifort14</text>
</a>
</g>
</g>
<!-- Node2 -->
<g id="node2" class="node">
<title>Node2</title>
<g id="a_node2"><a xlink:href="namespacepahm__mesh.html#a3ac2350cf2b06f708810684f67950e69" target="_top" xlink:title="Allocates memory to mesh arrays.">
<polygon fill="white" stroke="black" points="233,-79.5 233,-100.5 499,-100.5 499,-79.5 233,-79.5"/>
<text text-anchor="middle" x="366" y="-86.9" font-family="Helvetica,sans-Serif" font-size="12.00">pahm_mesh::allocatenodalandelementalarrays</text>
</a>
</g>
</g>
<!-- Node1&#45;&gt;Node2 -->
<g id="edge1" class="edge">
<title>Node1&#45;&gt;Node2</title>
<path fill="none" stroke="midnightblue" d="M171,-61.5C205.67,-66.6 247.49,-72.74 283.41,-78.02"/>
<polygon fill="midnightblue" stroke="midnightblue" points="282.97,-81.49 293.37,-79.48 283.99,-74.56 282.97,-81.49"/>
</g>
<!-- Node3 -->
<g id="node3" class="node">
<title>Node3</title>
<g id="a_node3"><a xlink:href="namespaceutilities.html#a2a41067ed5533ec0c36318e8f1e960bf" target="_top" xlink:title="This subroutine opens an existing file for reading.">
<polygon fill="white" stroke="black" points="296,-1.5 296,-22.5 436,-22.5 436,-1.5 296,-1.5"/>
<text text-anchor="middle" x="366" y="-8.9" font-family="Helvetica,sans-Serif" font-size="12.00">utilities::openfileforread</text>
</a>
</g>
</g>
<!-- Node1&#45;&gt;Node3 -->
<g id="edge2" class="edge">
<title>Node1&#45;&gt;Node3</title>
<path fill="none" stroke="midnightblue" d="M171,-40.5C206.38,-35.3 249.19,-29.01 285.58,-23.67"/>
<polygon fill="midnightblue" stroke="midnightblue" points="286.28,-27.1 295.67,-22.18 285.27,-20.17 286.28,-27.1"/>
</g>
<!-- Node4 -->
<g id="node4" class="node">
<title>Node4</title>
<g id="a_node4"><a xlink:href="namespacepahm__messages.html#acf0c696cc1604842ee84a5df6d81179c" target="_top" xlink:title="Sets the name of the subroutine that is writing log and/or screen messages.">
<polygon fill="white" stroke="black" points="541.5,-40.5 541.5,-61.5 756.5,-61.5 756.5,-40.5 541.5,-40.5"/>
<text text-anchor="middle" x="649" y="-47.9" font-family="Helvetica,sans-Serif" font-size="12.00">pahm_messages::setmessagesource</text>
</a>
</g>
</g>
<!-- Node1&#45;&gt;Node4 -->
<g id="edge5" class="edge">
<title>Node1&#45;&gt;Node4</title>
<path fill="none" stroke="midnightblue" d="M197.24,-51C290.74,-51 431.83,-51 531.21,-51"/>
<polygon fill="midnightblue" stroke="midnightblue" points="531.29,-54.5 541.29,-51 531.29,-47.5 531.29,-54.5"/>
</g>
<!-- Node3&#45;&gt;Node4 -->
<g id="edge3" class="edge">
<title>Node3&#45;&gt;Node4</title>
<path fill="none" stroke="midnightblue" d="M436.1,-21.59C474.15,-26.87 521.72,-33.47 562.14,-39.08"/>
<polygon fill="midnightblue" stroke="midnightblue" points="561.86,-42.58 572.25,-40.49 562.83,-35.65 561.86,-42.58"/>
</g>
<!-- Node5 -->
<g id="node5" class="node">
<title>Node5</title>
<g id="a_node5"><a xlink:href="namespacepahm__messages.html#ad35e9f2327aad65d4c669e3d886f54dc" target="_top" xlink:title="Removes the name of the subroutine that is no longer active.">
<polygon fill="white" stroke="black" points="535,-0.5 535,-21.5 763,-21.5 763,-0.5 535,-0.5"/>
<text text-anchor="middle" x="649" y="-7.9" font-family="Helvetica,sans-Serif" font-size="12.00">pahm_messages::unsetmessagesource</text>
</a>
</g>
</g>
<!-- Node3&#45;&gt;Node5 -->
<g id="edge4" class="edge">
<title>Node3&#45;&gt;Node5</title>
<path fill="none" stroke="midnightblue" d="M436.1,-11.75C462.82,-11.66 494.23,-11.55 524.56,-11.44"/>
<polygon fill="midnightblue" stroke="midnightblue" points="524.81,-14.94 534.8,-11.4 524.78,-7.94 524.81,-14.94"/>
</g>
</g>
</svg>
