<?xml version="1.0" encoding="UTF-8" standalone="no"?>
<!DOCTYPE svg PUBLIC "-//W3C//DTD SVG 1.1//EN"
 "http://www.w3.org/Graphics/SVG/1.1/DTD/svg11.dtd">
<!-- Generated by graphviz version 2.42.4 (0)
 -->
<!-- Title: pahm_vortex::getusequadrantvr Pages: 1 -->
<svg width="594pt" height="110pt"
 viewBox="0.00 0.00 594.00 110.00" xmlns="http://www.w3.org/2000/svg" xmlns:xlink="http://www.w3.org/1999/xlink">
<g id="graph0" class="graph" transform="scale(1 1) rotate(0) translate(4 106)">
<title>pahm_vortex::getusequadrantvr</title>
<polygon fill="white" stroke="transparent" points="-4,4 -4,-106 590,-106 590,4 -4,4"/>
<!-- Node1 -->
<g id="node1" class="node">
<title>Node1</title>
<g id="a_node1"><a xlink:title=" ">
<polygon fill="#bfbfbf" stroke="black" points="401,-40.5 401,-61.5 586,-61.5 586,-40.5 401,-40.5"/>
<text text-anchor="middle" x="493.5" y="-47.9" font-family="Helvetica,sans-Serif" font-size="12.00">pahm_vortex::getusequadrantvr</text>
</a>
</g>
</g>
<!-- Node2 -->
<g id="node2" class="node">
<title>Node2</title>
<g id="a_node2"><a xlink:href="namespacepahm__vortex.html#a758504d51e519dac32d8146e79fccd2c" target="_top" xlink:title=" ">
<polygon fill="white" stroke="black" points="216,-80.5 216,-101.5 353,-101.5 353,-80.5 216,-80.5"/>
<text text-anchor="middle" x="284.5" y="-87.9" font-family="Helvetica,sans-Serif" font-size="12.00">pahm_vortex::vhnocori</text>
</a>
</g>
</g>
<!-- Node1&#45;&gt;Node2 -->
<g id="edge1" class="edge">
<title>Node1&#45;&gt;Node2</title>
<path fill="none" stroke="midnightblue" d="M427.93,-63.48C399.67,-68.94 366.87,-75.28 339.88,-80.49"/>
<polygon fill="midnightblue" stroke="midnightblue" points="428.96,-66.84 438.11,-61.51 427.63,-59.97 428.96,-66.84"/>
</g>
<!-- Node4 -->
<g id="node4" class="node">
<title>Node4</title>
<g id="a_node4"><a xlink:href="namespacepahm__vortex.html#a1e9c82cf5fb1c37ebd0629060e93d5fa" target="_top" xlink:title="External function f(x) = 0 for which a root is sought using Brent&#39;s root&#45;finding method.">
<polygon fill="white" stroke="black" points="211.5,-40.5 211.5,-61.5 357.5,-61.5 357.5,-40.5 211.5,-40.5"/>
<text text-anchor="middle" x="284.5" y="-47.9" font-family="Helvetica,sans-Serif" font-size="12.00">pahm_vortex::vhwithcori</text>
</a>
</g>
</g>
<!-- Node1&#45;&gt;Node4 -->
<g id="edge3" class="edge">
<title>Node1&#45;&gt;Node4</title>
<path fill="none" stroke="midnightblue" d="M390.58,-51C379.42,-51 368.24,-51 357.55,-51"/>
<polygon fill="midnightblue" stroke="midnightblue" points="390.8,-54.5 400.8,-51 390.8,-47.5 390.8,-54.5"/>
</g>
<!-- Node5 -->
<g id="node5" class="node">
<title>Node5</title>
<g id="a_node5"><a xlink:href="namespacepahm__vortex.html#a01b29cf3c18d04fb55a502f42f51af39" target="_top" xlink:title="External function f(x) = 0 for which a root is sought using Brent&#39;s root&#45;finding method.">
<polygon fill="white" stroke="black" points="204,-0.5 204,-21.5 365,-21.5 365,-0.5 204,-0.5"/>
<text text-anchor="middle" x="284.5" y="-7.9" font-family="Helvetica,sans-Serif" font-size="12.00">pahm_vortex::vhwithcorifull</text>
</a>
</g>
</g>
<!-- Node1&#45;&gt;Node5 -->
<g id="edge5" class="edge">
<title>Node1&#45;&gt;Node5</title>
<path fill="none" stroke="midnightblue" d="M427.93,-38.52C399.67,-33.06 366.87,-26.72 339.88,-21.51"/>
<polygon fill="midnightblue" stroke="midnightblue" points="427.63,-42.03 438.11,-40.49 428.96,-35.16 427.63,-42.03"/>
</g>
<!-- Node3 -->
<g id="node3" class="node">
<title>Node3</title>
<g id="a_node3"><a xlink:href="namespacepahm__vortex.html#a580543eed13ec39a2d21135376a5f72a" target="_top" xlink:title="Calculate the radius of maximum winds for all storm quadrants.">
<polygon fill="white" stroke="black" points="8,-60.5 8,-81.5 160,-81.5 160,-60.5 8,-60.5"/>
<text text-anchor="middle" x="84" y="-67.9" font-family="Helvetica,sans-Serif" font-size="12.00">pahm_vortex::calcrmaxes</text>
</a>
</g>
</g>
<!-- Node2&#45;&gt;Node3 -->
<g id="edge2" class="edge">
<title>Node2&#45;&gt;Node3</title>
<path fill="none" stroke="midnightblue" d="M205.56,-83.15C190.66,-81.65 175.09,-80.08 160.28,-78.59"/>
<polygon fill="midnightblue" stroke="midnightblue" points="205.44,-86.65 215.74,-84.17 206.14,-79.69 205.44,-86.65"/>
</g>
<!-- Node4&#45;&gt;Node3 -->
<g id="edge4" class="edge">
<title>Node4&#45;&gt;Node3</title>
<path fill="none" stroke="midnightblue" d="M201.02,-59.31C187.49,-60.67 173.52,-62.08 160.17,-63.43"/>
<polygon fill="midnightblue" stroke="midnightblue" points="201.68,-62.76 211.28,-58.28 200.97,-55.8 201.68,-62.76"/>
</g>
<!-- Node6 -->
<g id="node6" class="node">
<title>Node6</title>
<g id="a_node6"><a xlink:href="namespacepahm__vortex.html#a5f7ee771ea7ff74d85f4f431886bbffb" target="_top" xlink:title="Calculate the radius of maximum winds for all storm quadrants. Solving the full gradient wind equatio...">
<polygon fill="white" stroke="black" points="0,-0.5 0,-21.5 168,-21.5 168,-0.5 0,-0.5"/>
<text text-anchor="middle" x="84" y="-7.9" font-family="Helvetica,sans-Serif" font-size="12.00">pahm_vortex::calcrmaxesfull</text>
</a>
</g>
</g>
<!-- Node5&#45;&gt;Node6 -->
<g id="edge6" class="edge">
<title>Node5&#45;&gt;Node6</title>
<path fill="none" stroke="midnightblue" d="M193.63,-11C185.16,-11 176.59,-11 168.18,-11"/>
<polygon fill="midnightblue" stroke="midnightblue" points="193.91,-14.5 203.91,-11 193.91,-7.5 193.91,-14.5"/>
</g>
</g>
</svg>
