<?xml version="1.0" encoding="UTF-8" standalone="no"?>
<!DOCTYPE svg PUBLIC "-//W3C//DTD SVG 1.1//EN"
 "http://www.w3.org/Graphics/SVG/1.1/DTD/svg11.dtd">
<!-- Generated by graphviz version 2.42.4 (0)
 -->
<!-- Title: utilities::checkcontrolfileinputs Pages: 1 -->
<svg width="394pt" height="110pt"
 viewBox="0.00 0.00 394.00 110.00" xmlns="http://www.w3.org/2000/svg" xmlns:xlink="http://www.w3.org/1999/xlink">
<g id="graph0" class="graph" transform="scale(1 1) rotate(0) translate(4 106)">
<title>utilities::checkcontrolfileinputs</title>
<polygon fill="white" stroke="transparent" points="-4,4 -4,-106 390,-106 390,4 -4,4"/>
<!-- Node1 -->
<g id="node1" class="node">
<title>Node1</title>
<g id="a_node1"><a xlink:title="Checks the user defined control file inputs.">
<polygon fill="#bfbfbf" stroke="black" points="0,-40.5 0,-61.5 176,-61.5 176,-40.5 0,-40.5"/>
<text text-anchor="middle" x="88" y="-47.9" font-family="Helvetica,sans-Serif" font-size="12.00">utilities::checkcontrolfileinputs</text>
</a>
</g>
</g>
<!-- Node2 -->
<g id="node2" class="node">
<title>Node2</title>
<g id="a_node2"><a xlink:href="namespacetimedateutils.html#a6c7acacb9981bb9182378a449e45715b" target="_top" xlink:title="Calculates the conversion factor between time units and seconds.">
<polygon fill="white" stroke="black" points="212,-80.5 212,-101.5 386,-101.5 386,-80.5 212,-80.5"/>
<text text-anchor="middle" x="299" y="-87.9" font-family="Helvetica,sans-Serif" font-size="12.00">timedateutils::gettimeconvsec</text>
</a>
</g>
</g>
<!-- Node1&#45;&gt;Node2 -->
<g id="edge1" class="edge">
<title>Node1&#45;&gt;Node2</title>
<path fill="none" stroke="midnightblue" d="M143.91,-61.51C171.28,-66.75 204.56,-73.12 233.18,-78.59"/>
<polygon fill="midnightblue" stroke="midnightblue" points="232.61,-82.05 243.09,-80.49 233.93,-75.17 232.61,-82.05"/>
</g>
<!-- Node3 -->
<g id="node3" class="node">
<title>Node3</title>
<g id="a_node3"><a xlink:href="namespacetimedateutils.html#a393203cc78370648d0dd392fe96d66ff" target="_top" xlink:title="Pre&#45;processes an arbitrary date string.">
<polygon fill="white" stroke="black" points="232.5,-40.5 232.5,-61.5 365.5,-61.5 365.5,-40.5 232.5,-40.5"/>
<text text-anchor="middle" x="299" y="-47.9" font-family="Helvetica,sans-Serif" font-size="12.00">timedateutils::joindate</text>
</a>
</g>
</g>
<!-- Node1&#45;&gt;Node3 -->
<g id="edge2" class="edge">
<title>Node1&#45;&gt;Node3</title>
<path fill="none" stroke="midnightblue" d="M176.12,-51C191.41,-51 207.21,-51 222.16,-51"/>
<polygon fill="midnightblue" stroke="midnightblue" points="222.36,-54.5 232.36,-51 222.36,-47.5 222.36,-54.5"/>
</g>
<!-- Node4 -->
<g id="node4" class="node">
<title>Node4</title>
<g id="a_node4"><a xlink:href="namespaceutilities.html#a8dff395c74e87d059dadcf8bacdbfedd" target="_top" xlink:title="Convert a string to upper&#45;case.">
<polygon fill="white" stroke="black" points="236,-0.5 236,-21.5 362,-21.5 362,-0.5 236,-0.5"/>
<text text-anchor="middle" x="299" y="-7.9" font-family="Helvetica,sans-Serif" font-size="12.00">utilities::touppercase</text>
</a>
</g>
</g>
<!-- Node1&#45;&gt;Node4 -->
<g id="edge3" class="edge">
<title>Node1&#45;&gt;Node4</title>
<path fill="none" stroke="midnightblue" d="M143.91,-40.49C171.28,-35.25 204.56,-28.88 233.18,-23.41"/>
<polygon fill="midnightblue" stroke="midnightblue" points="233.93,-26.83 243.09,-21.51 232.61,-19.95 233.93,-26.83"/>
</g>
</g>
</svg>
