<?xml version="1.0" encoding="UTF-8" standalone="no"?>
<!DOCTYPE svg PUBLIC "-//W3C//DTD SVG 1.1//EN"
 "http://www.w3.org/Graphics/SVG/1.1/DTD/svg11.dtd">
<!-- Generated by graphviz version 2.42.4 (0)
 -->
<!-- Title: pahm_vortex::calcrmaxesfull Pages: 1 -->
<svg width="594pt" height="70pt"
 viewBox="0.00 0.00 594.00 70.00" xmlns="http://www.w3.org/2000/svg" xmlns:xlink="http://www.w3.org/1999/xlink">
<g id="graph0" class="graph" transform="scale(1 1) rotate(0) translate(4 66)">
<title>pahm_vortex::calcrmaxesfull</title>
<polygon fill="white" stroke="transparent" points="-4,4 -4,-66 590,-66 590,4 -4,4"/>
<!-- Node1 -->
<g id="node1" class="node">
<title>Node1</title>
<g id="a_node1"><a xlink:title="Calculate the radius of maximum winds for all storm quadrants. Solving the full gradient wind equatio...">
<polygon fill="#bfbfbf" stroke="black" points="0,-20.5 0,-41.5 168,-41.5 168,-20.5 0,-20.5"/>
<text text-anchor="middle" x="84" y="-27.9" font-family="Helvetica,sans-Serif" font-size="12.00">pahm_vortex::calcrmaxesfull</text>
</a>
</g>
</g>
<!-- Node2 -->
<g id="node2" class="node">
<title>Node2</title>
<g id="a_node2"><a xlink:href="namespacepahm__vortex.html#a24ea19697c70ab6e010e36a71faefcbc" target="_top" xlink:title="Use brute&#45;force marching to find a root the interval [x1,x2].">
<polygon fill="white" stroke="black" points="219,-40.5 219,-61.5 350,-61.5 350,-40.5 219,-40.5"/>
<text text-anchor="middle" x="284.5" y="-47.9" font-family="Helvetica,sans-Serif" font-size="12.00">pahm_vortex::findroot</text>
</a>
</g>
</g>
<!-- Node1&#45;&gt;Node2 -->
<g id="edge1" class="edge">
<title>Node1&#45;&gt;Node2</title>
<path fill="none" stroke="midnightblue" d="M168.03,-39.37C181.58,-40.73 195.54,-42.14 208.86,-43.48"/>
<polygon fill="midnightblue" stroke="midnightblue" points="208.62,-46.97 218.92,-44.49 209.32,-40.01 208.62,-46.97"/>
</g>
<!-- Node3 -->
<g id="node3" class="node">
<title>Node3</title>
<g id="a_node3"><a xlink:href="namespacepahm__vortex.html#a01b29cf3c18d04fb55a502f42f51af39" target="_top" xlink:title="External function f(x) = 0 for which a root is sought using Brent&#39;s root&#45;finding method.">
<polygon fill="white" stroke="black" points="204,-0.5 204,-21.5 365,-21.5 365,-0.5 204,-0.5"/>
<text text-anchor="middle" x="284.5" y="-7.9" font-family="Helvetica,sans-Serif" font-size="12.00">pahm_vortex::vhwithcorifull</text>
</a>
</g>
</g>
<!-- Node1&#45;&gt;Node3 -->
<g id="edge2" class="edge">
<title>Node1&#45;&gt;Node3</title>
<path fill="none" stroke="midnightblue" d="M168.03,-22.63C176.58,-21.77 185.3,-20.89 193.92,-20.03"/>
<polygon fill="midnightblue" stroke="midnightblue" points="194.38,-23.5 203.98,-19.01 193.68,-16.53 194.38,-23.5"/>
</g>
<!-- Node4 -->
<g id="node4" class="node">
<title>Node4</title>
<g id="a_node4"><a xlink:href="namespacepahm__vortex.html#a632207c65211e9337eb3f016f274558d" target="_top" xlink:title=" ">
<polygon fill="white" stroke="black" points="401,-0.5 401,-21.5 586,-21.5 586,-0.5 401,-0.5"/>
<text text-anchor="middle" x="493.5" y="-7.9" font-family="Helvetica,sans-Serif" font-size="12.00">pahm_vortex::getusequadrantvr</text>
</a>
</g>
</g>
<!-- Node3&#45;&gt;Node4 -->
<g id="edge3" class="edge">
<title>Node3&#45;&gt;Node4</title>
<path fill="none" stroke="midnightblue" d="M365.24,-11C373.59,-11 382.15,-11 390.71,-11"/>
<polygon fill="midnightblue" stroke="midnightblue" points="390.72,-14.5 400.72,-11 390.72,-7.5 390.72,-14.5"/>
</g>
</g>
</svg>
