<?xml version="1.0" encoding="UTF-8" standalone="no"?>
<!DOCTYPE svg PUBLIC "-//W3C//DTD SVG 1.1//EN"
 "http://www.w3.org/Graphics/SVG/1.1/DTD/svg11.dtd">
<!-- Generated by graphviz version 2.42.4 (0)
 -->
<!-- Title: pahm_mesh::allocatenodalandelementalarrays Pages: 1 -->
<svg width="969pt" height="30pt"
 viewBox="0.00 0.00 969.00 30.00" xmlns="http://www.w3.org/2000/svg" xmlns:xlink="http://www.w3.org/1999/xlink">
<g id="graph0" class="graph" transform="scale(1 1) rotate(0) translate(4 26)">
<title>pahm_mesh::allocatenodalandelementalarrays</title>
<polygon fill="white" stroke="transparent" points="-4,4 -4,-26 965,-26 965,4 -4,4"/>
<!-- Node1 -->
<g id="node1" class="node">
<title>Node1</title>
<g id="a_node1"><a xlink:title="Allocates memory to mesh arrays.">
<polygon fill="#bfbfbf" stroke="black" points="695,-0.5 695,-21.5 961,-21.5 961,-0.5 695,-0.5"/>
<text text-anchor="middle" x="828" y="-7.9" font-family="Helvetica,sans-Serif" font-size="12.00">pahm_mesh::allocatenodalandelementalarrays</text>
</a>
</g>
</g>
<!-- Node2 -->
<g id="node2" class="node">
<title>Node2</title>
<g id="a_node2"><a xlink:href="namespacepahm__mesh.html#af53257d02ceb6ebe4349de40187496d6" target="_top" xlink:title="Reads the ADCIRC fort.14 mesh file.">
<polygon fill="white" stroke="black" points="462,-0.5 462,-21.5 659,-21.5 659,-0.5 462,-0.5"/>
<text text-anchor="middle" x="560.5" y="-7.9" font-family="Helvetica,sans-Serif" font-size="12.00">pahm_mesh::readmeshasciifort14</text>
</a>
</g>
</g>
<!-- Node1&#45;&gt;Node2 -->
<g id="edge1" class="edge">
<title>Node1&#45;&gt;Node2</title>
<path fill="none" stroke="midnightblue" d="M684.56,-11C675.99,-11 667.48,-11 659.16,-11"/>
<polygon fill="midnightblue" stroke="midnightblue" points="684.64,-14.5 694.64,-11 684.64,-7.5 684.64,-14.5"/>
</g>
<!-- Node3 -->
<g id="node3" class="node">
<title>Node3</title>
<g id="a_node3"><a xlink:href="namespacepahm__mesh.html#a6fd7801e4cbacfd2a7ce61c0fb31073c" target="_top" xlink:title="Reads an input mesh file for the specified supported model type.">
<polygon fill="white" stroke="black" points="284,-0.5 284,-21.5 426,-21.5 426,-0.5 284,-0.5"/>
<text text-anchor="middle" x="355" y="-7.9" font-family="Helvetica,sans-Serif" font-size="12.00">pahm_mesh::readmesh</text>
</a>
</g>
</g>
<!-- Node2&#45;&gt;Node3 -->
<g id="edge2" class="edge">
<title>Node2&#45;&gt;Node3</title>
<path fill="none" stroke="midnightblue" d="M451.76,-11C443.12,-11 434.53,-11 426.25,-11"/>
<polygon fill="midnightblue" stroke="midnightblue" points="451.92,-14.5 461.92,-11 451.92,-7.5 451.92,-14.5"/>
</g>
<!-- Node4 -->
<g id="node4" class="node">
<title>Node4</title>
<g id="a_node4"><a xlink:href="namespacepahm__drivermod.html#ae0d4b223a96ba116b38152caf6b0768c" target="_top" xlink:title="Subroutine to initialize a PaHM run.">
<polygon fill="white" stroke="black" points="83,-0.5 83,-21.5 248,-21.5 248,-0.5 83,-0.5"/>
<text text-anchor="middle" x="165.5" y="-7.9" font-family="Helvetica,sans-Serif" font-size="12.00">pahm_drivermod::pahm_init</text>
</a>
</g>
</g>
<!-- Node3&#45;&gt;Node4 -->
<g id="edge3" class="edge">
<title>Node3&#45;&gt;Node4</title>
<path fill="none" stroke="midnightblue" d="M273.7,-11C265.25,-11 256.65,-11 248.19,-11"/>
<polygon fill="midnightblue" stroke="midnightblue" points="273.92,-14.5 283.92,-11 273.92,-7.5 273.92,-14.5"/>
</g>
<!-- Node5 -->
<g id="node5" class="node">
<title>Node5</title>
<g id="a_node5"><a xlink:href="pahm_8F90.html#a3d3918f5c5f1ac0a7991a7a78f530f30" target="_top" xlink:title=" ">
<polygon fill="white" stroke="black" points="0,-0.5 0,-21.5 47,-21.5 47,-0.5 0,-0.5"/>
<text text-anchor="middle" x="23.5" y="-7.9" font-family="Helvetica,sans-Serif" font-size="12.00">pahm</text>
</a>
</g>
</g>
<!-- Node4&#45;&gt;Node5 -->
<g id="edge4" class="edge">
<title>Node4&#45;&gt;Node5</title>
<path fill="none" stroke="midnightblue" d="M72.42,-11C63.15,-11 54.47,-11 47.1,-11"/>
<polygon fill="midnightblue" stroke="midnightblue" points="72.66,-14.5 82.66,-11 72.66,-7.5 72.66,-14.5"/>
</g>
</g>
</svg>
