<?xml version="1.0" encoding="UTF-8" standalone="no"?>
<!DOCTYPE svg PUBLIC "-//W3C//DTD SVG 1.1//EN"
 "http://www.w3.org/Graphics/SVG/1.1/DTD/svg11.dtd">
<!-- Generated by graphviz version 2.42.4 (0)
 -->
<!-- Title: timedateutils::juldaytogreg Pages: 1 -->
<svg width="918pt" height="150pt"
 viewBox="0.00 0.00 918.00 150.00" xmlns="http://www.w3.org/2000/svg" xmlns:xlink="http://www.w3.org/1999/xlink">
<g id="graph0" class="graph" transform="scale(1 1) rotate(0) translate(4 146)">
<title>timedateutils::juldaytogreg</title>
<polygon fill="white" stroke="transparent" points="-4,4 -4,-146 914,-146 914,4 -4,4"/>
<!-- Node1 -->
<g id="node1" class="node">
<title>Node1</title>
<g id="a_node1"><a xlink:title="Determines the Julian date from a Gregorian date.">
<polygon fill="#bfbfbf" stroke="black" points="755,-60.5 755,-81.5 910,-81.5 910,-60.5 755,-60.5"/>
<text text-anchor="middle" x="832.5" y="-67.9" font-family="Helvetica,sans-Serif" font-size="12.00">timedateutils::juldaytogreg</text>
</a>
</g>
</g>
<!-- Node2 -->
<g id="node2" class="node">
<title>Node2</title>
<g id="a_node2"><a xlink:href="../../d4/d19/namespacetimedateutils.html#a86f68bd48786e32c535b0564f3bdea5c" target="_top" xlink:title="Determines the Gregorian date (year, month, day) from a day of the year.">
<polygon fill="white" stroke="black" points="542,-120.5 542,-141.5 719,-141.5 719,-120.5 542,-120.5"/>
<text text-anchor="middle" x="630.5" y="-127.9" font-family="Helvetica,sans-Serif" font-size="12.00">timedateutils::dayofyeartogreg</text>
</a>
</g>
</g>
<!-- Node1&#45;&gt;Node2 -->
<g id="edge1" class="edge">
<title>Node1&#45;&gt;Node2</title>
<path fill="none" stroke="midnightblue" d="M794.97,-85.21C773.13,-93.4 744.72,-103.52 719,-111 707.18,-114.44 694.32,-117.66 682.19,-120.47"/>
<polygon fill="midnightblue" stroke="midnightblue" points="796.4,-88.41 804.51,-81.6 793.92,-81.87 796.4,-88.41"/>
</g>
<!-- Node3 -->
<g id="node3" class="node">
<title>Node3</title>
<g id="a_node3"><a xlink:href="../../d9/d41/namespaceparwind.html#ad79f0c20f27839cc6d7f50d7d1698b7c" target="_top" xlink:title="Calculates wind velocities and MSL pressures at the mesh nodes from the GAHM Wind model.">
<polygon fill="white" stroke="black" points="560,-80.5 560,-101.5 701,-101.5 701,-80.5 560,-80.5"/>
<text text-anchor="middle" x="630.5" y="-87.9" font-family="Helvetica,sans-Serif" font-size="12.00">parwind::getgahmfields</text>
</a>
</g>
</g>
<!-- Node1&#45;&gt;Node3 -->
<g id="edge2" class="edge">
<title>Node1&#45;&gt;Node3</title>
<path fill="none" stroke="midnightblue" d="M744.74,-79.68C730.18,-81.13 715.23,-82.63 701.17,-84.03"/>
<polygon fill="midnightblue" stroke="midnightblue" points="745.14,-83.15 754.75,-78.68 744.45,-76.19 745.14,-83.15"/>
</g>
<!-- Node6 -->
<g id="node6" class="node">
<title>Node6</title>
<g id="a_node6"><a xlink:href="../../d9/d41/namespaceparwind.html#ad2cf2a3c40591a24959e6dd126066294" target="_top" xlink:title="Calculates wind velocities and MSL pressures at the mesh nodes from the P&#45;W Holland Wind model.">
<polygon fill="white" stroke="black" points="555,-40.5 555,-61.5 706,-61.5 706,-40.5 555,-40.5"/>
<text text-anchor="middle" x="630.5" y="-47.9" font-family="Helvetica,sans-Serif" font-size="12.00">parwind::gethollandfields</text>
</a>
</g>
</g>
<!-- Node1&#45;&gt;Node6 -->
<g id="edge5" class="edge">
<title>Node1&#45;&gt;Node6</title>
<path fill="none" stroke="midnightblue" d="M744.54,-62.3C731.72,-61.02 718.61,-59.71 706.07,-58.46"/>
<polygon fill="midnightblue" stroke="midnightblue" points="744.45,-65.81 754.75,-63.32 745.14,-58.85 744.45,-65.81"/>
</g>
<!-- Node7 -->
<g id="node7" class="node">
<title>Node7</title>
<g id="a_node7"><a xlink:href="../../d2/d96/namespaceutilities.html#ab095172ef12ae151ab5c9aacf82f4dc6" target="_top" xlink:title="This subroutine reads the program&#39;s main control file.">
<polygon fill="white" stroke="black" points="562.5,-0.5 562.5,-21.5 698.5,-21.5 698.5,-0.5 562.5,-0.5"/>
<text text-anchor="middle" x="630.5" y="-7.9" font-family="Helvetica,sans-Serif" font-size="12.00">utilities::readcontrolfile</text>
</a>
</g>
</g>
<!-- Node1&#45;&gt;Node7 -->
<g id="edge7" class="edge">
<title>Node1&#45;&gt;Node7</title>
<path fill="none" stroke="midnightblue" d="M794.97,-56.79C773.13,-48.6 744.72,-38.48 719,-31 707.18,-27.56 694.32,-24.34 682.19,-21.53"/>
<polygon fill="midnightblue" stroke="midnightblue" points="793.92,-60.13 804.51,-60.4 796.4,-53.59 793.92,-60.13"/>
</g>
<!-- Node4 -->
<g id="node4" class="node">
<title>Node4</title>
<g id="a_node4"><a xlink:href="../../de/d07/namespacepahm__drivermod.html#a7ae4571521a5bb4eb55990dd7fb76237" target="_top" xlink:title="Subroutine to run PaHM (timestepping).">
<polygon fill="white" stroke="black" points="311.5,-40.5 311.5,-61.5 478.5,-61.5 478.5,-40.5 311.5,-40.5"/>
<text text-anchor="middle" x="395" y="-47.9" font-family="Helvetica,sans-Serif" font-size="12.00">pahm_drivermod::pahm_run</text>
</a>
</g>
</g>
<!-- Node3&#45;&gt;Node4 -->
<g id="edge3" class="edge">
<title>Node3&#45;&gt;Node4</title>
<path fill="none" stroke="midnightblue" d="M557.91,-78.74C525.76,-73.23 488.19,-66.79 457.34,-61.51"/>
<polygon fill="midnightblue" stroke="midnightblue" points="557.7,-82.25 568.15,-80.49 558.89,-75.35 557.7,-82.25"/>
</g>
<!-- Node5 -->
<g id="node5" class="node">
<title>Node5</title>
<g id="a_node5"><a xlink:href="../../d9/d8a/pahm_8F90.html#a3d3918f5c5f1ac0a7991a7a78f530f30" target="_top" xlink:title=" ">
<polygon fill="white" stroke="black" points="0,-19.5 0,-40.5 47,-40.5 47,-19.5 0,-19.5"/>
<text text-anchor="middle" x="23.5" y="-26.9" font-family="Helvetica,sans-Serif" font-size="12.00">pahm</text>
</a>
</g>
</g>
<!-- Node4&#45;&gt;Node5 -->
<g id="edge4" class="edge">
<title>Node4&#45;&gt;Node5</title>
<path fill="none" stroke="midnightblue" d="M300.89,-45.71C215.91,-40.88 96.29,-34.08 47.04,-31.28"/>
<polygon fill="midnightblue" stroke="midnightblue" points="300.89,-49.21 311.08,-46.29 301.29,-42.23 300.89,-49.21"/>
</g>
<!-- Node6&#45;&gt;Node4 -->
<g id="edge6" class="edge">
<title>Node6&#45;&gt;Node4</title>
<path fill="none" stroke="midnightblue" d="M544.87,-51C523.32,-51 500.18,-51 478.72,-51"/>
<polygon fill="midnightblue" stroke="midnightblue" points="544.98,-54.5 554.98,-51 544.98,-47.5 544.98,-54.5"/>
</g>
<!-- Node8 -->
<g id="node8" class="node">
<title>Node8</title>
<g id="a_node8"><a xlink:href="../../de/d07/namespacepahm__drivermod.html#a3294ddc68b72ff9220010a8764a8afe3" target="_top" xlink:title="Prints on the screen the help system of the PaHM program.">
<polygon fill="white" stroke="black" points="284,-0.5 284,-21.5 506,-21.5 506,-0.5 284,-0.5"/>
<text text-anchor="middle" x="395" y="-7.9" font-family="Helvetica,sans-Serif" font-size="12.00">pahm_drivermod::getprogramcmdlargs</text>
</a>
</g>
</g>
<!-- Node7&#45;&gt;Node8 -->
<g id="edge8" class="edge">
<title>Node7&#45;&gt;Node8</title>
<path fill="none" stroke="midnightblue" d="M552.24,-11C537.52,-11 521.84,-11 506.31,-11"/>
<polygon fill="midnightblue" stroke="midnightblue" points="552.28,-14.5 562.28,-11 552.28,-7.5 552.28,-14.5"/>
</g>
<!-- Node9 -->
<g id="node9" class="node">
<title>Node9</title>
<g id="a_node9"><a xlink:href="../../de/d07/namespacepahm__drivermod.html#ae0d4b223a96ba116b38152caf6b0768c" target="_top" xlink:title="Subroutine to initialize a PaHM run.">
<polygon fill="white" stroke="black" points="83,-0.5 83,-21.5 248,-21.5 248,-0.5 83,-0.5"/>
<text text-anchor="middle" x="165.5" y="-7.9" font-family="Helvetica,sans-Serif" font-size="12.00">pahm_drivermod::pahm_init</text>
</a>
</g>
</g>
<!-- Node8&#45;&gt;Node9 -->
<g id="edge9" class="edge">
<title>Node8&#45;&gt;Node9</title>
<path fill="none" stroke="midnightblue" d="M273.77,-11C265.14,-11 256.56,-11 248.22,-11"/>
<polygon fill="midnightblue" stroke="midnightblue" points="273.92,-14.5 283.92,-11 273.92,-7.5 273.92,-14.5"/>
</g>
<!-- Node9&#45;&gt;Node5 -->
<g id="edge10" class="edge">
<title>Node9&#45;&gt;Node5</title>
<path fill="none" stroke="midnightblue" d="M76.92,-22.89C65.95,-24.37 55.6,-25.78 47.04,-26.94"/>
<polygon fill="midnightblue" stroke="midnightblue" points="77.69,-26.31 87.13,-21.5 76.75,-19.38 77.69,-26.31"/>
</g>
</g>
</svg>
