<?xml version="1.0" encoding="UTF-8" standalone="no"?>
<!DOCTYPE svg PUBLIC "-//W3C//DTD SVG 1.1//EN"
 "http://www.w3.org/Graphics/SVG/1.1/DTD/svg11.dtd">
<!-- Generated by graphviz version 2.42.4 (0)
 -->
<!-- Title: timedateutils::datetime2string Pages: 1 -->
<svg width="972pt" height="150pt"
 viewBox="0.00 0.00 972.00 150.00" xmlns="http://www.w3.org/2000/svg" xmlns:xlink="http://www.w3.org/1999/xlink">
<g id="graph0" class="graph" transform="scale(1 1) rotate(0) translate(4 146)">
<title>timedateutils::datetime2string</title>
<polygon fill="white" stroke="transparent" points="-4,4 -4,-146 968,-146 968,4 -4,4"/>
<!-- Node1 -->
<g id="node1" class="node">
<title>Node1</title>
<g id="a_node1"><a xlink:title="Constructs a NetCDF time string.">
<polygon fill="#bfbfbf" stroke="black" points="792,-60.5 792,-81.5 964,-81.5 964,-60.5 792,-60.5"/>
<text text-anchor="middle" x="878" y="-67.9" font-family="Helvetica,sans-Serif" font-size="12.00">timedateutils::datetime2string</text>
</a>
</g>
</g>
<!-- Node2 -->
<g id="node2" class="node">
<title>Node2</title>
<g id="a_node2"><a xlink:href="../../d9/d41/namespaceparwind.html#ad79f0c20f27839cc6d7f50d7d1698b7c" target="_top" xlink:title="Calculates wind velocities and MSL pressures at the mesh nodes from the GAHM Wind model.">
<polygon fill="white" stroke="black" points="578.5,-120.5 578.5,-141.5 719.5,-141.5 719.5,-120.5 578.5,-120.5"/>
<text text-anchor="middle" x="649" y="-127.9" font-family="Helvetica,sans-Serif" font-size="12.00">parwind::getgahmfields</text>
</a>
</g>
</g>
<!-- Node1&#45;&gt;Node2 -->
<g id="edge1" class="edge">
<title>Node1&#45;&gt;Node2</title>
<path fill="none" stroke="midnightblue" d="M838.83,-85.06C815.21,-93.4 784.12,-103.73 756,-111 742.31,-114.54 727.48,-117.73 713.36,-120.47"/>
<polygon fill="midnightblue" stroke="midnightblue" points="840.23,-88.28 848.47,-81.62 837.88,-81.69 840.23,-88.28"/>
</g>
<!-- Node5 -->
<g id="node5" class="node">
<title>Node5</title>
<g id="a_node5"><a xlink:href="../../d9/d41/namespaceparwind.html#ad2cf2a3c40591a24959e6dd126066294" target="_top" xlink:title="Calculates wind velocities and MSL pressures at the mesh nodes from the P&#45;W Holland Wind model.">
<polygon fill="white" stroke="black" points="573.5,-80.5 573.5,-101.5 724.5,-101.5 724.5,-80.5 573.5,-80.5"/>
<text text-anchor="middle" x="649" y="-87.9" font-family="Helvetica,sans-Serif" font-size="12.00">parwind::gethollandfields</text>
</a>
</g>
</g>
<!-- Node1&#45;&gt;Node5 -->
<g id="edge4" class="edge">
<title>Node1&#45;&gt;Node5</title>
<path fill="none" stroke="midnightblue" d="M781.67,-79.4C762.69,-81.07 743.01,-82.81 724.83,-84.41"/>
<polygon fill="midnightblue" stroke="midnightblue" points="782.17,-82.87 791.83,-78.5 781.56,-75.9 782.17,-82.87"/>
</g>
<!-- Node6 -->
<g id="node6" class="node">
<title>Node6</title>
<g id="a_node6"><a xlink:href="../../da/dd1/namespacepahm__netcdfio.html#a21917504b7e9d5594375d1a48bb4cb8f" target="_top" xlink:title="Initializes a new NetCDF data file and puts it in define mode.">
<polygon fill="white" stroke="black" points="542,-40.5 542,-61.5 756,-61.5 756,-40.5 542,-40.5"/>
<text text-anchor="middle" x="649" y="-47.9" font-family="Helvetica,sans-Serif" font-size="12.00">pahm_netcdfio::initadcircnetcdfoutfile</text>
</a>
</g>
</g>
<!-- Node1&#45;&gt;Node6 -->
<g id="edge6" class="edge">
<title>Node1&#45;&gt;Node6</title>
<path fill="none" stroke="midnightblue" d="M781.7,-62.6C773.33,-61.87 764.82,-61.12 756.37,-60.37"/>
<polygon fill="midnightblue" stroke="midnightblue" points="781.56,-66.1 791.83,-63.5 782.17,-59.13 781.56,-66.1"/>
</g>
<!-- Node7 -->
<g id="node7" class="node">
<title>Node7</title>
<g id="a_node7"><a xlink:href="../../d2/d96/namespaceutilities.html#ab095172ef12ae151ab5c9aacf82f4dc6" target="_top" xlink:title="This subroutine reads the program&#39;s main control file.">
<polygon fill="white" stroke="black" points="581,-0.5 581,-21.5 717,-21.5 717,-0.5 581,-0.5"/>
<text text-anchor="middle" x="649" y="-7.9" font-family="Helvetica,sans-Serif" font-size="12.00">utilities::readcontrolfile</text>
</a>
</g>
</g>
<!-- Node1&#45;&gt;Node7 -->
<g id="edge8" class="edge">
<title>Node1&#45;&gt;Node7</title>
<path fill="none" stroke="midnightblue" d="M838.83,-56.94C815.21,-48.6 784.12,-38.27 756,-31 742.31,-27.46 727.48,-24.27 713.36,-21.53"/>
<polygon fill="midnightblue" stroke="midnightblue" points="837.88,-60.31 848.47,-60.38 840.23,-53.72 837.88,-60.31"/>
</g>
<!-- Node3 -->
<g id="node3" class="node">
<title>Node3</title>
<g id="a_node3"><a xlink:href="../../de/d07/namespacepahm__drivermod.html#a7ae4571521a5bb4eb55990dd7fb76237" target="_top" xlink:title="Subroutine to run PaHM (timestepping).">
<polygon fill="white" stroke="black" points="311.5,-70.5 311.5,-91.5 478.5,-91.5 478.5,-70.5 311.5,-70.5"/>
<text text-anchor="middle" x="395" y="-77.9" font-family="Helvetica,sans-Serif" font-size="12.00">pahm_drivermod::pahm_run</text>
</a>
</g>
</g>
<!-- Node2&#45;&gt;Node3 -->
<g id="edge2" class="edge">
<title>Node2&#45;&gt;Node3</title>
<path fill="none" stroke="midnightblue" d="M581.43,-118.61C568.35,-116.13 554.74,-113.51 542,-111 510.14,-104.72 474.43,-97.39 446.3,-91.54"/>
<polygon fill="midnightblue" stroke="midnightblue" points="580.83,-122.06 591.31,-120.48 582.13,-115.18 580.83,-122.06"/>
</g>
<!-- Node4 -->
<g id="node4" class="node">
<title>Node4</title>
<g id="a_node4"><a xlink:href="../../d9/d8a/pahm_8F90.html#a3d3918f5c5f1ac0a7991a7a78f530f30" target="_top" xlink:title=" ">
<polygon fill="white" stroke="black" points="0,-39.5 0,-60.5 47,-60.5 47,-39.5 0,-39.5"/>
<text text-anchor="middle" x="23.5" y="-46.9" font-family="Helvetica,sans-Serif" font-size="12.00">pahm</text>
</a>
</g>
</g>
<!-- Node3&#45;&gt;Node4 -->
<g id="edge3" class="edge">
<title>Node3&#45;&gt;Node4</title>
<path fill="none" stroke="midnightblue" d="M300.89,-73.19C215.91,-66.06 96.29,-56.02 47.04,-51.89"/>
<polygon fill="midnightblue" stroke="midnightblue" points="300.82,-76.69 311.08,-74.04 301.4,-69.72 300.82,-76.69"/>
</g>
<!-- Node5&#45;&gt;Node3 -->
<g id="edge5" class="edge">
<title>Node5&#45;&gt;Node3</title>
<path fill="none" stroke="midnightblue" d="M563.14,-87.63C535.92,-86.55 505.84,-85.36 478.77,-84.28"/>
<polygon fill="midnightblue" stroke="midnightblue" points="563.28,-91.14 573.41,-88.04 563.56,-84.15 563.28,-91.14"/>
</g>
<!-- Node6&#45;&gt;Node3 -->
<g id="edge7" class="edge">
<title>Node6&#45;&gt;Node3</title>
<path fill="none" stroke="midnightblue" d="M549.57,-62.72C526.16,-65.5 501.42,-68.45 478.79,-71.14"/>
<polygon fill="midnightblue" stroke="midnightblue" points="549.99,-66.19 559.51,-61.53 549.16,-59.24 549.99,-66.19"/>
</g>
<!-- Node8 -->
<g id="node8" class="node">
<title>Node8</title>
<g id="a_node8"><a xlink:href="../../de/d07/namespacepahm__drivermod.html#a3294ddc68b72ff9220010a8764a8afe3" target="_top" xlink:title="Prints on the screen the help system of the PaHM program.">
<polygon fill="white" stroke="black" points="284,-20.5 284,-41.5 506,-41.5 506,-20.5 284,-20.5"/>
<text text-anchor="middle" x="395" y="-27.9" font-family="Helvetica,sans-Serif" font-size="12.00">pahm_drivermod::getprogramcmdlargs</text>
</a>
</g>
</g>
<!-- Node7&#45;&gt;Node8 -->
<g id="edge9" class="edge">
<title>Node7&#45;&gt;Node8</title>
<path fill="none" stroke="midnightblue" d="M570.68,-17.14C550.34,-18.75 528.01,-20.52 506.31,-22.25"/>
<polygon fill="midnightblue" stroke="midnightblue" points="571.11,-20.61 580.8,-16.33 570.55,-13.64 571.11,-20.61"/>
</g>
<!-- Node9 -->
<g id="node9" class="node">
<title>Node9</title>
<g id="a_node9"><a xlink:href="../../de/d07/namespacepahm__drivermod.html#ae0d4b223a96ba116b38152caf6b0768c" target="_top" xlink:title="Subroutine to initialize a PaHM run.">
<polygon fill="white" stroke="black" points="83,-20.5 83,-41.5 248,-41.5 248,-20.5 83,-20.5"/>
<text text-anchor="middle" x="165.5" y="-27.9" font-family="Helvetica,sans-Serif" font-size="12.00">pahm_drivermod::pahm_init</text>
</a>
</g>
</g>
<!-- Node8&#45;&gt;Node9 -->
<g id="edge10" class="edge">
<title>Node8&#45;&gt;Node9</title>
<path fill="none" stroke="midnightblue" d="M273.77,-31C265.14,-31 256.56,-31 248.22,-31"/>
<polygon fill="midnightblue" stroke="midnightblue" points="273.92,-34.5 283.92,-31 273.92,-27.5 273.92,-34.5"/>
</g>
<!-- Node9&#45;&gt;Node4 -->
<g id="edge11" class="edge">
<title>Node9&#45;&gt;Node4</title>
<path fill="none" stroke="midnightblue" d="M76.92,-42.89C65.95,-44.37 55.6,-45.78 47.04,-46.94"/>
<polygon fill="midnightblue" stroke="midnightblue" points="77.69,-46.31 87.13,-41.5 76.75,-39.38 77.69,-46.31"/>
</g>
</g>
</svg>
