<?xml version="1.0" encoding="UTF-8" standalone="no"?>
<!DOCTYPE svg PUBLIC "-//W3C//DTD SVG 1.1//EN"
 "http://www.w3.org/Graphics/SVG/1.1/DTD/svg11.dtd">
<!-- Generated by graphviz version 2.42.4 (0)
 -->
<!-- Title: timedateutils::upp Pages: 1 -->
<!--zoomable 339 -->
<svg id="main" version="1.1" xmlns="http://www.w3.org/2000/svg" xmlns:xlink="http://www.w3.org/1999/xlink" xml:space="preserve" onload="init(evt)">
<style type="text/css"><![CDATA[
.edge:hover path { stroke: red; }
.edge:hover polygon { stroke: red; fill: red; }
]]></style>
<script type="text/javascript"><![CDATA[
var edges = document.getElementsByTagName('g');
if (edges && edges.length) {
  for (var i=0;i<edges.length;i++) {
    if (edges[i].id.substr(0,4)=='edge') {
      edges[i].setAttribute('class','edge');
    }
  }
}
]]></script>
        <defs>
                <circle id="rim" cx="0" cy="0" r="7"/>
                <circle id="rim2" cx="0" cy="0" r="3.5"/>
                <g id="zoomPlus">
                        <use xlink:href="#rim" fill="#404040">
                                <set attributeName="fill" to="#808080" begin="zoomplus.mouseover" end="zoomplus.mouseout"/>
                        </use>
                        <path d="M-4,0h8M0,-4v8" fill="none" stroke="white" stroke-width="1.5" pointer-events="none"/>
                </g>
                <g id="zoomMin">
                        <use xlink:href="#rim" fill="#404040">
                                <set attributeName="fill" to="#808080" begin="zoomminus.mouseover" end="zoomminus.mouseout"/>
                        </use>
                        <path d="M-4,0h8" fill="none" stroke="white" stroke-width="1.5" pointer-events="none"/>
                </g>
                <g id="dirArrow">
                        <path fill="none" stroke="white" stroke-width="1.5" d="M0,-3.0v7 M-2.5,-0.5L0,-3.0L2.5,-0.5"/>
                </g>
               <g id="resetDef">
                       <use xlink:href="#rim2" fill="#404040">
                               <set attributeName="fill" to="#808080" begin="reset.mouseover" end="reset.mouseout"/>
                       </use>
               </g>
        </defs>

<script type="text/javascript">
var viewWidth = 1323;
var viewHeight = 339;
var sectionId = 'dynsection-14';
</script>
<script xlink:href="../../svgpan.js"/>
<svg id="graph" class="graph">
<g id="viewport">
<title>timedateutils::upp</title>
<polygon fill="white" stroke="transparent" points="-4,4 -4,-334.5 1319,-334.5 1319,4 -4,4"/>
<!-- Node1 -->
<g id="node1" class="node">
<title>Node1</title>
<g id="a_node1"><a xlink:title="Convert a string to upper&#45;case.">
<polygon fill="#bfbfbf" stroke="black" points="1205,-209 1205,-230 1315,-230 1315,-209 1205,-209"/>
<text text-anchor="middle" x="1260" y="-216.4" font-family="Helvetica,sans-Serif" font-size="12.00">timedateutils::upp</text>
</a>
</g>
</g>
<!-- Node2 -->
<g id="node2" class="node">
<title>Node2</title>
<g id="a_node2"><a xlink:href="../../d4/d19/namespacetimedateutils.html#a565d549493d69e2c9ea5b7af18247df5" target="_top" xlink:title="Constructs a NetCDF time string.">
<polygon fill="white" stroke="black" points="996,-229 996,-250 1168,-250 1168,-229 996,-229"/>
<text text-anchor="middle" x="1082" y="-236.4" font-family="Helvetica,sans-Serif" font-size="12.00">timedateutils::datetime2string</text>
</a>
</g>
</g>
<!-- Node1&#45;&gt;Node2 -->
<g id="edge1" class="edge">
<title>Node1&#45;&gt;Node2</title>
<path fill="none" stroke="midnightblue" d="M1194.76,-226.8C1186.1,-227.78 1177.1,-228.81 1168.14,-229.83"/>
<polygon fill="midnightblue" stroke="midnightblue" points="1195.22,-230.27 1204.76,-225.66 1194.43,-223.32 1195.22,-230.27"/>
</g>
<!-- Node11 -->
<g id="node11" class="node">
<title>Node11</title>
<g id="a_node11"><a xlink:href="../../d4/d19/namespacetimedateutils.html#a6c7acacb9981bb9182378a449e45715b" target="_top" xlink:title="Calculates the conversion factor between time units and seconds.">
<polygon fill="white" stroke="black" points="995,-189 995,-210 1169,-210 1169,-189 995,-189"/>
<text text-anchor="middle" x="1082" y="-196.4" font-family="Helvetica,sans-Serif" font-size="12.00">timedateutils::gettimeconvsec</text>
</a>
</g>
</g>
<!-- Node1&#45;&gt;Node11 -->
<g id="edge13" class="edge">
<title>Node1&#45;&gt;Node11</title>
<path fill="none" stroke="midnightblue" d="M1194.75,-212.2C1186.4,-211.25 1177.75,-210.27 1169.11,-209.29"/>
<polygon fill="midnightblue" stroke="midnightblue" points="1194.43,-215.68 1204.76,-213.34 1195.22,-208.73 1194.43,-215.68"/>
</g>
<!-- Node3 -->
<g id="node3" class="node">
<title>Node3</title>
<g id="a_node3"><a xlink:href="../../d9/d41/namespaceparwind.html#ad79f0c20f27839cc6d7f50d7d1698b7c" target="_top" xlink:title="Calculates wind velocities and MSL pressures at the mesh nodes from the GAHM Wind model.">
<polygon fill="white" stroke="black" points="781.5,-309 781.5,-330 922.5,-330 922.5,-309 781.5,-309"/>
<text text-anchor="middle" x="852" y="-316.4" font-family="Helvetica,sans-Serif" font-size="12.00">parwind::getgahmfields</text>
</a>
</g>
</g>
<!-- Node2&#45;&gt;Node3 -->
<g id="edge2" class="edge">
<title>Node2&#45;&gt;Node3</title>
<path fill="none" stroke="midnightblue" d="M1054.57,-255.11C1030.44,-268.73 993.4,-288.03 959,-299.5 947.45,-303.35 934.93,-306.53 922.68,-309.14"/>
<polygon fill="midnightblue" stroke="midnightblue" points="1056.52,-258.03 1063.46,-250.03 1053.04,-251.96 1056.52,-258.03"/>
</g>
<!-- Node6 -->
<g id="node6" class="node">
<title>Node6</title>
<g id="a_node6"><a xlink:href="../../d9/d41/namespaceparwind.html#ad2cf2a3c40591a24959e6dd126066294" target="_top" xlink:title="Calculates wind velocities and MSL pressures at the mesh nodes from the P&#45;W Holland Wind model.">
<polygon fill="white" stroke="black" points="776.5,-269 776.5,-290 927.5,-290 927.5,-269 776.5,-269"/>
<text text-anchor="middle" x="852" y="-276.4" font-family="Helvetica,sans-Serif" font-size="12.00">parwind::gethollandfields</text>
</a>
</g>
</g>
<!-- Node2&#45;&gt;Node6 -->
<g id="edge5" class="edge">
<title>Node2&#45;&gt;Node6</title>
<path fill="none" stroke="midnightblue" d="M1011.1,-251.76C979.7,-257.27 943.02,-263.71 912.9,-268.99"/>
<polygon fill="midnightblue" stroke="midnightblue" points="1011.85,-255.18 1021.1,-250.01 1010.64,-248.29 1011.85,-255.18"/>
</g>
<!-- Node7 -->
<g id="node7" class="node">
<title>Node7</title>
<g id="a_node7"><a xlink:href="../../da/dd1/namespacepahm__netcdfio.html#a21917504b7e9d5594375d1a48bb4cb8f" target="_top" xlink:title="Initializes a new NetCDF data file and puts it in define mode.">
<polygon fill="white" stroke="black" points="745,-229 745,-250 959,-250 959,-229 745,-229"/>
<text text-anchor="middle" x="852" y="-236.4" font-family="Helvetica,sans-Serif" font-size="12.00">pahm_netcdfio::initadcircnetcdfoutfile</text>
</a>
</g>
</g>
<!-- Node2&#45;&gt;Node7 -->
<g id="edge7" class="edge">
<title>Node2&#45;&gt;Node7</title>
<path fill="none" stroke="midnightblue" d="M985.65,-239.5C976.96,-239.5 968.11,-239.5 959.33,-239.5"/>
<polygon fill="midnightblue" stroke="midnightblue" points="985.78,-243 995.78,-239.5 985.78,-236 985.78,-243"/>
</g>
<!-- Node8 -->
<g id="node8" class="node">
<title>Node8</title>
<g id="a_node8"><a xlink:href="../../d2/d96/namespaceutilities.html#ab095172ef12ae151ab5c9aacf82f4dc6" target="_top" xlink:title="This subroutine reads the program&#39;s main control file.">
<polygon fill="white" stroke="black" points="557.5,-131 557.5,-152 693.5,-152 693.5,-131 557.5,-131"/>
<text text-anchor="middle" x="625.5" y="-138.4" font-family="Helvetica,sans-Serif" font-size="12.00">utilities::readcontrolfile</text>
</a>
</g>
</g>
<!-- Node2&#45;&gt;Node8 -->
<g id="edge9" class="edge">
<title>Node2&#45;&gt;Node8</title>
<path fill="none" stroke="midnightblue" d="M1006.47,-225.28C1002.49,-223.56 998.64,-221.65 995,-219.5 974.4,-207.34 980.26,-190.46 959,-179.5 935.99,-167.64 783.82,-153.87 693.51,-146.6"/>
<polygon fill="midnightblue" stroke="midnightblue" points="1005.34,-228.59 1015.93,-228.91 1007.85,-222.06 1005.34,-228.59"/>
</g>
<!-- Node4 -->
<g id="node4" class="node">
<title>Node4</title>
<g id="a_node4"><a xlink:href="../../de/d07/namespacepahm__drivermod.html#a7ae4571521a5bb4eb55990dd7fb76237" target="_top" xlink:title="Subroutine to run PaHM (timestepping).">
<polygon fill="white" stroke="black" points="542,-229 542,-250 709,-250 709,-229 542,-229"/>
<text text-anchor="middle" x="625.5" y="-236.4" font-family="Helvetica,sans-Serif" font-size="12.00">pahm_drivermod::pahm_run</text>
</a>
</g>
</g>
<!-- Node3&#45;&gt;Node4 -->
<g id="edge3" class="edge">
<title>Node3&#45;&gt;Node4</title>
<path fill="none" stroke="midnightblue" d="M771.49,-307.04C762.46,-304.88 753.46,-302.38 745,-299.5 707.01,-286.59 665.92,-263.51 643.49,-250.05"/>
<polygon fill="midnightblue" stroke="midnightblue" points="770.75,-310.46 781.28,-309.25 772.3,-303.63 770.75,-310.46"/>
</g>
<!-- Node5 -->
<g id="node5" class="node">
<title>Node5</title>
<g id="a_node5"><a xlink:href="../../d9/d8a/pahm_8F90.html#a3d3918f5c5f1ac0a7991a7a78f530f30" target="_top" xlink:title=" ">
<polygon fill="white" stroke="black" points="0,-180 0,-201 47,-201 47,-180 0,-180"/>
<text text-anchor="middle" x="23.5" y="-187.4" font-family="Helvetica,sans-Serif" font-size="12.00">pahm</text>
</a>
</g>
</g>
<!-- Node4&#45;&gt;Node5 -->
<g id="edge4" class="edge">
<title>Node4&#45;&gt;Node5</title>
<path fill="none" stroke="midnightblue" d="M531.67,-231.92C389.42,-220.3 125.69,-198.76 47.14,-192.35"/>
<polygon fill="midnightblue" stroke="midnightblue" points="531.45,-235.41 541.7,-232.74 532.02,-228.44 531.45,-235.41"/>
</g>
<!-- Node6&#45;&gt;Node4 -->
<g id="edge6" class="edge">
<title>Node6&#45;&gt;Node4</title>
<path fill="none" stroke="midnightblue" d="M781.77,-267.17C750.94,-261.67 715.01,-255.27 685.48,-250.01"/>
<polygon fill="midnightblue" stroke="midnightblue" points="781.56,-270.68 792.02,-268.99 782.78,-263.79 781.56,-270.68"/>
</g>
<!-- Node7&#45;&gt;Node4 -->
<g id="edge8" class="edge">
<title>Node7&#45;&gt;Node4</title>
<path fill="none" stroke="midnightblue" d="M734.83,-239.5C726.17,-239.5 717.55,-239.5 709.16,-239.5"/>
<polygon fill="midnightblue" stroke="midnightblue" points="735,-243 745,-239.5 735,-236 735,-243"/>
</g>
<!-- Node9 -->
<g id="node9" class="node">
<title>Node9</title>
<g id="a_node9"><a xlink:href="../../de/d07/namespacepahm__drivermod.html#a3294ddc68b72ff9220010a8764a8afe3" target="_top" xlink:title="Prints on the screen the help system of the PaHM program.">
<polygon fill="white" stroke="black" points="284,-151 284,-172 506,-172 506,-151 284,-151"/>
<text text-anchor="middle" x="395" y="-158.4" font-family="Helvetica,sans-Serif" font-size="12.00">pahm_drivermod::getprogramcmdlargs</text>
</a>
</g>
</g>
<!-- Node8&#45;&gt;Node9 -->
<g id="edge10" class="edge">
<title>Node8&#45;&gt;Node9</title>
<path fill="none" stroke="midnightblue" d="M547.52,-148.24C534.28,-149.4 520.3,-150.62 506.38,-151.84"/>
<polygon fill="midnightblue" stroke="midnightblue" points="547.83,-151.72 557.49,-147.37 547.22,-144.75 547.83,-151.72"/>
</g>
<!-- Node10 -->
<g id="node10" class="node">
<title>Node10</title>
<g id="a_node10"><a xlink:href="../../de/d07/namespacepahm__drivermod.html#ae0d4b223a96ba116b38152caf6b0768c" target="_top" xlink:title="Subroutine to initialize a PaHM run.">
<polygon fill="white" stroke="black" points="83,-161 83,-182 248,-182 248,-161 83,-161"/>
<text text-anchor="middle" x="165.5" y="-168.4" font-family="Helvetica,sans-Serif" font-size="12.00">pahm_drivermod::pahm_init</text>
</a>
</g>
</g>
<!-- Node9&#45;&gt;Node10 -->
<g id="edge11" class="edge">
<title>Node9&#45;&gt;Node10</title>
<path fill="none" stroke="midnightblue" d="M273.77,-166.78C265.14,-167.16 256.56,-167.54 248.22,-167.91"/>
<polygon fill="midnightblue" stroke="midnightblue" points="274.08,-170.27 283.92,-166.34 273.77,-163.28 274.08,-170.27"/>
</g>
<!-- Node10&#45;&gt;Node5 -->
<g id="edge12" class="edge">
<title>Node10&#45;&gt;Node5</title>
<path fill="none" stroke="midnightblue" d="M76.92,-183.39C65.95,-184.87 55.6,-186.28 47.04,-187.44"/>
<polygon fill="midnightblue" stroke="midnightblue" points="77.69,-186.81 87.13,-182 76.75,-179.88 77.69,-186.81"/>
</g>
<!-- Node11&#45;&gt;Node3 -->
<g id="edge19" class="edge">
<title>Node11&#45;&gt;Node3</title>
<path fill="none" stroke="midnightblue" d="M1001.37,-214.9C999.15,-216.31 997.02,-217.84 995,-219.5 964.89,-244.26 989.63,-275.37 959,-299.5 948.55,-307.73 935.75,-312.93 922.7,-316.15"/>
<polygon fill="midnightblue" stroke="midnightblue" points="1003.2,-217.9 1010.33,-210.06 999.87,-211.74 1003.2,-217.9"/>
</g>
<!-- Node11&#45;&gt;Node6 -->
<g id="edge20" class="edge">
<title>Node11&#45;&gt;Node6</title>
<path fill="none" stroke="midnightblue" d="M1006.47,-213.72C1002.49,-215.44 998.64,-217.35 995,-219.5 974.4,-231.66 979.85,-247.78 959,-259.5 949.37,-264.92 938.55,-268.9 927.59,-271.82"/>
<polygon fill="midnightblue" stroke="midnightblue" points="1007.85,-216.94 1015.93,-210.09 1005.34,-210.41 1007.85,-216.94"/>
</g>
<!-- Node11&#45;&gt;Node7 -->
<g id="edge21" class="edge">
<title>Node11&#45;&gt;Node7</title>
<path fill="none" stroke="midnightblue" d="M1011.1,-211.76C979.7,-217.27 943.02,-223.71 912.9,-228.99"/>
<polygon fill="midnightblue" stroke="midnightblue" points="1011.85,-215.18 1021.1,-210.01 1010.64,-208.29 1011.85,-215.18"/>
</g>
<!-- Node11&#45;&gt;Node8 -->
<g id="edge22" class="edge">
<title>Node11&#45;&gt;Node8</title>
<path fill="none" stroke="midnightblue" d="M1053.87,-183.99C1029.81,-171.16 993.28,-153.89 959,-146.5 868.7,-127.02 761.4,-129.94 693.61,-134.87"/>
<polygon fill="midnightblue" stroke="midnightblue" points="1052.3,-187.12 1062.76,-188.83 1055.65,-180.97 1052.3,-187.12"/>
</g>
<!-- Node12 -->
<g id="node12" class="node">
<title>Node12</title>
<g id="a_node12"><a xlink:href="../../d2/d96/namespaceutilities.html#a1e2f2593103f415e1c073284ff95a83f" target="_top" xlink:title="Checks the user defined control file inputs.">
<polygon fill="white" stroke="black" points="764,-73 764,-94 940,-94 940,-73 764,-73"/>
<text text-anchor="middle" x="852" y="-80.4" font-family="Helvetica,sans-Serif" font-size="12.00">utilities::checkcontrolfileinputs</text>
</a>
</g>
</g>
<!-- Node11&#45;&gt;Node12 -->
<g id="edge14" class="edge">
<title>Node11&#45;&gt;Node12</title>
<path fill="none" stroke="midnightblue" d="M1062.42,-181.73C1039.78,-161.07 999.53,-127.39 959,-108.5 945.8,-102.35 930.96,-97.64 916.65,-94.05"/>
<polygon fill="midnightblue" stroke="midnightblue" points="1060.22,-184.46 1069.93,-188.7 1064.98,-179.33 1060.22,-184.46"/>
</g>
<!-- Node13 -->
<g id="node13" class="node">
<title>Node13</title>
<g id="a_node13"><a xlink:href="../../d4/d19/namespacetimedateutils.html#a109255326a7eb93c3ccdb4b543c26385" target="_top" xlink:title="Calculates the elapsed time in seconds.">
<polygon fill="white" stroke="black" points="773,-33 773,-54 931,-54 931,-33 773,-33"/>
<text text-anchor="middle" x="852" y="-40.4" font-family="Helvetica,sans-Serif" font-size="12.00">timedateutils::elapsedsecs</text>
</a>
</g>
</g>
<!-- Node11&#45;&gt;Node13 -->
<g id="edge16" class="edge">
<title>Node11&#45;&gt;Node13</title>
<path fill="none" stroke="midnightblue" d="M1069.57,-180.11C1050.66,-149.92 1009.87,-92.16 959,-63.5 950.43,-58.67 940.92,-54.99 931.22,-52.17"/>
<polygon fill="midnightblue" stroke="midnightblue" points="1066.72,-182.17 1074.92,-188.88 1072.69,-178.52 1066.72,-182.17"/>
</g>
<!-- Node16 -->
<g id="node16" class="node">
<title>Node16</title>
<g id="a_node16"><a xlink:href="../../da/dd1/namespacepahm__netcdfio.html#aaf8d794ff0adcfbca0e2d13c8b71162a" target="_top" xlink:title="Writes data to the NetCDF file.">
<polygon fill="white" stroke="black" points="755.5,-189 755.5,-210 948.5,-210 948.5,-189 755.5,-189"/>
<text text-anchor="middle" x="852" y="-196.4" font-family="Helvetica,sans-Serif" font-size="12.00">pahm_netcdfio::writenetcdfrecord</text>
</a>
</g>
</g>
<!-- Node11&#45;&gt;Node16 -->
<g id="edge23" class="edge">
<title>Node11&#45;&gt;Node16</title>
<path fill="none" stroke="midnightblue" d="M984.51,-199.5C972.71,-199.5 960.65,-199.5 948.86,-199.5"/>
<polygon fill="midnightblue" stroke="midnightblue" points="984.8,-203 994.8,-199.5 984.8,-196 984.8,-203"/>
</g>
<!-- Node12&#45;&gt;Node8 -->
<g id="edge15" class="edge">
<title>Node12&#45;&gt;Node8</title>
<path fill="none" stroke="midnightblue" d="M794.67,-96.34C778.59,-100.13 761.07,-104.37 745,-108.5 717.39,-115.6 686.35,-124.27 662.97,-130.94"/>
<polygon fill="midnightblue" stroke="midnightblue" points="795.52,-99.74 804.46,-94.05 793.93,-92.92 795.52,-99.74"/>
</g>
<!-- Node14 -->
<g id="node14" class="node">
<title>Node14</title>
<g id="a_node14"><a xlink:href="../../d7/d92/interfacetimedateutils_1_1timeconv.html#a2f5f511b312d9f4b1bed33ecb8567b86" target="_top" xlink:title="Convert time from year, month, day, hour, min, sec into seconds since the reference date of the simul...">
<polygon fill="white" stroke="black" points="556.5,-53.5 556.5,-87.5 694.5,-87.5 694.5,-53.5 556.5,-53.5"/>
<text text-anchor="start" x="564.5" y="-73.9" font-family="Helvetica,sans-Serif" font-size="12.00">timedateutils::timeconv</text>
<text text-anchor="middle" x="625.5" y="-60.9" font-family="Helvetica,sans-Serif" font-size="12.00">::timeconvisec</text>
</a>
</g>
</g>
<!-- Node13&#45;&gt;Node14 -->
<g id="edge17" class="edge">
<title>Node13&#45;&gt;Node14</title>
<path fill="none" stroke="midnightblue" d="M762.84,-54.1C740.19,-56.83 716.17,-59.72 694.7,-62.3"/>
<polygon fill="midnightblue" stroke="midnightblue" points="763.29,-57.57 772.8,-52.91 762.45,-50.62 763.29,-57.57"/>
</g>
<!-- Node15 -->
<g id="node15" class="node">
<title>Node15</title>
<g id="a_node15"><a xlink:href="../../d7/d92/interfacetimedateutils_1_1timeconv.html#a03e2abbe51f02a02624986a3d49ec192" target="_top" xlink:title="Convert time from year, month, day, hour, min, sec into seconds since the reference date of the simul...">
<polygon fill="white" stroke="black" points="556.5,-0.5 556.5,-34.5 694.5,-34.5 694.5,-0.5 556.5,-0.5"/>
<text text-anchor="start" x="564.5" y="-20.9" font-family="Helvetica,sans-Serif" font-size="12.00">timedateutils::timeconv</text>
<text text-anchor="middle" x="625.5" y="-7.9" font-family="Helvetica,sans-Serif" font-size="12.00">::timeconvrsec</text>
</a>
</g>
</g>
<!-- Node13&#45;&gt;Node15 -->
<g id="edge18" class="edge">
<title>Node13&#45;&gt;Node15</title>
<path fill="none" stroke="midnightblue" d="M762.84,-33.29C740.19,-30.67 716.17,-27.89 694.7,-25.4"/>
<polygon fill="midnightblue" stroke="midnightblue" points="762.46,-36.77 772.8,-34.44 763.27,-29.82 762.46,-36.77"/>
</g>
<!-- Node16&#45;&gt;Node4 -->
<g id="edge24" class="edge">
<title>Node16&#45;&gt;Node4</title>
<path fill="none" stroke="midnightblue" d="M781.77,-211.83C750.94,-217.33 715.01,-223.73 685.48,-228.99"/>
<polygon fill="midnightblue" stroke="midnightblue" points="782.78,-215.21 792.02,-210.01 781.56,-208.32 782.78,-215.21"/>
</g>
</g>
</svg>
        <g id="navigator" transform="translate(0 0)" fill="#404254">
                <rect fill="#f2f5e9" fill-opacity="0.5" stroke="#606060" stroke-width=".5" x="0" y="0" width="60" height="60"/>
                <use id="zoomplus" xlink:href="#zoomPlus" x="17" y="9" onmousedown="handleZoom(evt,'in')"/>
                <use id="zoomminus" xlink:href="#zoomMin" x="42" y="9" onmousedown="handleZoom(evt,'out')"/>
                <use id="reset" xlink:href="#resetDef" x="30" y="36" onmousedown="handleReset()"/>
                <g id="arrowUp" xlink:href="#dirArrow" transform="translate(30 24)" onmousedown="handlePan(0,-1)">
                  <use xlink:href="#rim" fill="#404040">
                        <set attributeName="fill" to="#808080" begin="arrowUp.mouseover" end="arrowUp.mouseout"/>
                  </use>
                  <path fill="none" stroke="white" stroke-width="1.5" d="M0,-3.0v7 M-2.5,-0.5L0,-3.0L2.5,-0.5"/>
                </g>
                <g id="arrowRight" xlink:href="#dirArrow" transform="rotate(90) translate(36 -43)" onmousedown="handlePan(1,0)">
                  <use xlink:href="#rim" fill="#404040">
                        <set attributeName="fill" to="#808080" begin="arrowRight.mouseover" end="arrowRight.mouseout"/>
                  </use>
                  <path fill="none" stroke="white" stroke-width="1.5" d="M0,-3.0v7 M-2.5,-0.5L0,-3.0L2.5,-0.5"/>
                </g>
                <g id="arrowDown" xlink:href="#dirArrow" transform="rotate(180) translate(-30 -48)" onmousedown="handlePan(0,1)">
                  <use xlink:href="#rim" fill="#404040">
                        <set attributeName="fill" to="#808080" begin="arrowDown.mouseover" end="arrowDown.mouseout"/>
                  </use>
                  <path fill="none" stroke="white" stroke-width="1.5" d="M0,-3.0v7 M-2.5,-0.5L0,-3.0L2.5,-0.5"/>
                </g>
                <g id="arrowLeft" xlink:href="#dirArrow" transform="rotate(270) translate(-36 17)" onmousedown="handlePan(-1,0)">
                  <use xlink:href="#rim" fill="#404040">
                        <set attributeName="fill" to="#808080" begin="arrowLeft.mouseover" end="arrowLeft.mouseout"/>
                  </use>
                  <path fill="none" stroke="white" stroke-width="1.5" d="M0,-3.0v7 M-2.5,-0.5L0,-3.0L2.5,-0.5"/>
                </g>
        </g>
        <svg viewBox="0 0 15 15" width="100%" height="30px" preserveAspectRatio="xMaxYMin meet">
         <g id="arrow_out" transform="scale(0.3 0.3)">
          <a xlink:href="namespacetimedateutils_a09a914846a02d3d430348f83c67d58b5_icgraph_org.svg" target="_base">
           <rect id="button" ry="5" rx="5" y="6" x="6" height="38" width="38"
                fill="#f2f5e9" fill-opacity="0.5" stroke="#606060" stroke-width="1.0"/>
           <path id="arrow"
             d="M 11.500037,31.436501 C 11.940474,20.09759 22.043105,11.32322 32.158766,21.979434 L 37.068811,17.246167 C 37.068811,17.246167 37.088388,32 37.088388,32 L 22.160133,31.978069 C 22.160133,31.978069 26.997745,27.140456 26.997745,27.140456 C 18.528582,18.264221 13.291696,25.230495 11.500037,31.436501 z"
             style="fill:#404040;"/>
          </a>
         </g>
        </svg>
</svg>
