<?xml version="1.0" encoding="UTF-8" standalone="no"?>
<!DOCTYPE svg PUBLIC "-//W3C//DTD SVG 1.1//EN"
 "http://www.w3.org/Graphics/SVG/1.1/DTD/svg11.dtd">
<!-- Generated by graphviz version 2.42.4 (0)
 -->
<!-- Title: timedateutils::gettimeconvsec Pages: 1 -->
<svg width="1177pt" height="228pt"
 viewBox="0.00 0.00 1177.00 228.00" xmlns="http://www.w3.org/2000/svg" xmlns:xlink="http://www.w3.org/1999/xlink">
<g id="graph0" class="graph" transform="scale(1 1) rotate(0) translate(4 224)">
<title>timedateutils::gettimeconvsec</title>
<polygon fill="white" stroke="transparent" points="-4,4 -4,-224 1173,-224 1173,4 -4,4"/>
<!-- Node1 -->
<g id="node1" class="node">
<title>Node1</title>
<g id="a_node1"><a xlink:title="Calculates the conversion factor between time units and seconds.">
<polygon fill="#bfbfbf" stroke="black" points="995,-100.5 995,-121.5 1169,-121.5 1169,-100.5 995,-100.5"/>
<text text-anchor="middle" x="1082" y="-107.9" font-family="Helvetica,sans-Serif" font-size="12.00">timedateutils::gettimeconvsec</text>
</a>
</g>
</g>
<!-- Node2 -->
<g id="node2" class="node">
<title>Node2</title>
<g id="a_node2"><a xlink:href="../../d2/d96/namespaceutilities.html#a1e2f2593103f415e1c073284ff95a83f" target="_top" xlink:title="Checks the user defined control file inputs.">
<polygon fill="white" stroke="black" points="764,-198.5 764,-219.5 940,-219.5 940,-198.5 764,-198.5"/>
<text text-anchor="middle" x="852" y="-205.9" font-family="Helvetica,sans-Serif" font-size="12.00">utilities::checkcontrolfileinputs</text>
</a>
</g>
</g>
<!-- Node1&#45;&gt;Node2 -->
<g id="edge1" class="edge">
<title>Node1&#45;&gt;Node2</title>
<path fill="none" stroke="midnightblue" d="M1058.45,-127.41C1034.77,-143.92 995.91,-169.02 959,-184 944.2,-190.01 927.61,-194.77 912.04,-198.46"/>
<polygon fill="midnightblue" stroke="midnightblue" points="1060.6,-130.17 1066.75,-121.54 1056.56,-124.46 1060.6,-130.17"/>
</g>
<!-- Node3 -->
<g id="node3" class="node">
<title>Node3</title>
<g id="a_node3"><a xlink:href="../../d2/d96/namespaceutilities.html#ab095172ef12ae151ab5c9aacf82f4dc6" target="_top" xlink:title="This subroutine reads the program&#39;s main control file.">
<polygon fill="white" stroke="black" points="557.5,-187.5 557.5,-208.5 693.5,-208.5 693.5,-187.5 557.5,-187.5"/>
<text text-anchor="middle" x="625.5" y="-194.9" font-family="Helvetica,sans-Serif" font-size="12.00">utilities::readcontrolfile</text>
</a>
</g>
</g>
<!-- Node1&#45;&gt;Node3 -->
<g id="edge14" class="edge">
<title>Node1&#45;&gt;Node3</title>
<path fill="none" stroke="midnightblue" d="M1043.89,-125.06C1019.96,-133.65 988,-144.25 959,-151 868.29,-172.11 761.31,-185.17 693.69,-192.02"/>
<polygon fill="midnightblue" stroke="midnightblue" points="1045.09,-128.35 1053.29,-121.64 1042.7,-121.77 1045.09,-128.35"/>
</g>
<!-- Node7 -->
<g id="node7" class="node">
<title>Node7</title>
<g id="a_node7"><a xlink:href="../../d4/d19/namespacetimedateutils.html#a109255326a7eb93c3ccdb4b543c26385" target="_top" xlink:title="Calculates the elapsed time in seconds.">
<polygon fill="white" stroke="black" points="773,-120.5 773,-141.5 931,-141.5 931,-120.5 773,-120.5"/>
<text text-anchor="middle" x="852" y="-127.9" font-family="Helvetica,sans-Serif" font-size="12.00">timedateutils::elapsedsecs</text>
</a>
</g>
</g>
<!-- Node1&#45;&gt;Node7 -->
<g id="edge6" class="edge">
<title>Node1&#45;&gt;Node7</title>
<path fill="none" stroke="midnightblue" d="M984.41,-119.47C966.61,-121.03 948.24,-122.65 931.07,-124.15"/>
<polygon fill="midnightblue" stroke="midnightblue" points="985.15,-122.92 994.8,-118.56 984.54,-115.95 985.15,-122.92"/>
</g>
<!-- Node10 -->
<g id="node10" class="node">
<title>Node10</title>
<g id="a_node10"><a xlink:href="../../d9/d41/namespaceparwind.html#ad2cf2a3c40591a24959e6dd126066294" target="_top" xlink:title="Calculates wind velocities and MSL pressures at the mesh nodes from the P&#45;W Holland Wind model.">
<polygon fill="white" stroke="black" points="776.5,-80.5 776.5,-101.5 927.5,-101.5 927.5,-80.5 776.5,-80.5"/>
<text text-anchor="middle" x="852" y="-87.9" font-family="Helvetica,sans-Serif" font-size="12.00">parwind::gethollandfields</text>
</a>
</g>
</g>
<!-- Node1&#45;&gt;Node10 -->
<g id="edge9" class="edge">
<title>Node1&#45;&gt;Node10</title>
<path fill="none" stroke="midnightblue" d="M984.63,-102.55C965.61,-100.88 945.92,-99.15 927.75,-97.56"/>
<polygon fill="midnightblue" stroke="midnightblue" points="984.54,-106.05 994.8,-103.44 985.15,-99.08 984.54,-106.05"/>
</g>
<!-- Node12 -->
<g id="node12" class="node">
<title>Node12</title>
<g id="a_node12"><a xlink:href="../../da/dd1/namespacepahm__netcdfio.html#a21917504b7e9d5594375d1a48bb4cb8f" target="_top" xlink:title="Initializes a new NetCDF data file and puts it in define mode.">
<polygon fill="white" stroke="black" points="745,-40.5 745,-61.5 959,-61.5 959,-40.5 745,-40.5"/>
<text text-anchor="middle" x="852" y="-47.9" font-family="Helvetica,sans-Serif" font-size="12.00">pahm_netcdfio::initadcircnetcdfoutfile</text>
</a>
</g>
</g>
<!-- Node1&#45;&gt;Node12 -->
<g id="edge12" class="edge">
<title>Node1&#45;&gt;Node12</title>
<path fill="none" stroke="midnightblue" d="M1042.51,-96.95C1018.68,-88.61 987.33,-78.28 959,-71 945.22,-67.46 930.27,-64.25 916.08,-61.5"/>
<polygon fill="midnightblue" stroke="midnightblue" points="1041.63,-100.35 1052.23,-100.39 1043.97,-93.75 1041.63,-100.35"/>
</g>
<!-- Node13 -->
<g id="node13" class="node">
<title>Node13</title>
<g id="a_node13"><a xlink:href="../../da/dd1/namespacepahm__netcdfio.html#aaf8d794ff0adcfbca0e2d13c8b71162a" target="_top" xlink:title="Writes data to the NetCDF file.">
<polygon fill="white" stroke="black" points="755.5,-0.5 755.5,-21.5 948.5,-21.5 948.5,-0.5 755.5,-0.5"/>
<text text-anchor="middle" x="852" y="-7.9" font-family="Helvetica,sans-Serif" font-size="12.00">pahm_netcdfio::writenetcdfrecord</text>
</a>
</g>
</g>
<!-- Node1&#45;&gt;Node13 -->
<g id="edge15" class="edge">
<title>Node1&#45;&gt;Node13</title>
<path fill="none" stroke="midnightblue" d="M1060.37,-93.76C1037.2,-75.32 997.74,-46.63 959,-31 949.45,-27.15 939.11,-24.03 928.76,-21.5"/>
<polygon fill="midnightblue" stroke="midnightblue" points="1058.45,-96.71 1068.42,-100.28 1062.85,-91.27 1058.45,-96.71"/>
</g>
<!-- Node2&#45;&gt;Node3 -->
<g id="edge2" class="edge">
<title>Node2&#45;&gt;Node3</title>
<path fill="none" stroke="midnightblue" d="M753.7,-204.23C733.47,-203.24 712.58,-202.22 693.73,-201.29"/>
<polygon fill="midnightblue" stroke="midnightblue" points="753.72,-207.74 763.88,-204.73 754.06,-200.75 753.72,-207.74"/>
</g>
<!-- Node4 -->
<g id="node4" class="node">
<title>Node4</title>
<g id="a_node4"><a xlink:href="../../de/d07/namespacepahm__drivermod.html#a3294ddc68b72ff9220010a8764a8afe3" target="_top" xlink:title="Prints on the screen the help system of the PaHM program.">
<polygon fill="white" stroke="black" points="284,-173.5 284,-194.5 506,-194.5 506,-173.5 284,-173.5"/>
<text text-anchor="middle" x="395" y="-180.9" font-family="Helvetica,sans-Serif" font-size="12.00">pahm_drivermod::getprogramcmdlargs</text>
</a>
</g>
</g>
<!-- Node3&#45;&gt;Node4 -->
<g id="edge3" class="edge">
<title>Node3&#45;&gt;Node4</title>
<path fill="none" stroke="midnightblue" d="M547.13,-193.26C534.01,-192.46 520.16,-191.61 506.38,-190.76"/>
<polygon fill="midnightblue" stroke="midnightblue" points="547.29,-196.78 557.49,-193.89 547.72,-189.79 547.29,-196.78"/>
</g>
<!-- Node5 -->
<g id="node5" class="node">
<title>Node5</title>
<g id="a_node5"><a xlink:href="../../de/d07/namespacepahm__drivermod.html#ae0d4b223a96ba116b38152caf6b0768c" target="_top" xlink:title="Subroutine to initialize a PaHM run.">
<polygon fill="white" stroke="black" points="83,-160.5 83,-181.5 248,-181.5 248,-160.5 83,-160.5"/>
<text text-anchor="middle" x="165.5" y="-167.9" font-family="Helvetica,sans-Serif" font-size="12.00">pahm_drivermod::pahm_init</text>
</a>
</g>
</g>
<!-- Node4&#45;&gt;Node5 -->
<g id="edge4" class="edge">
<title>Node4&#45;&gt;Node5</title>
<path fill="none" stroke="midnightblue" d="M273.77,-177.13C265.14,-176.64 256.56,-176.15 248.22,-175.67"/>
<polygon fill="midnightblue" stroke="midnightblue" points="273.73,-180.63 283.92,-177.71 274.13,-173.64 273.73,-180.63"/>
</g>
<!-- Node6 -->
<g id="node6" class="node">
<title>Node6</title>
<g id="a_node6"><a xlink:href="../../d9/d8a/pahm_8F90.html#a3d3918f5c5f1ac0a7991a7a78f530f30" target="_top" xlink:title=" ">
<polygon fill="white" stroke="black" points="0,-113.5 0,-134.5 47,-134.5 47,-113.5 0,-113.5"/>
<text text-anchor="middle" x="23.5" y="-120.9" font-family="Helvetica,sans-Serif" font-size="12.00">pahm</text>
</a>
</g>
</g>
<!-- Node5&#45;&gt;Node6 -->
<g id="edge5" class="edge">
<title>Node5&#45;&gt;Node6</title>
<path fill="none" stroke="midnightblue" d="M123.51,-157.24C98.58,-148.87 67.69,-138.5 47.1,-131.59"/>
<polygon fill="midnightblue" stroke="midnightblue" points="122.49,-160.59 133.08,-160.45 124.72,-153.95 122.49,-160.59"/>
</g>
<!-- Node8 -->
<g id="node8" class="node">
<title>Node8</title>
<g id="a_node8"><a xlink:href="../../d7/d92/interfacetimedateutils_1_1timeconv.html#a2f5f511b312d9f4b1bed33ecb8567b86" target="_top" xlink:title="Convert time from year, month, day, hour, min, sec into seconds since the reference date of the simul...">
<polygon fill="white" stroke="black" points="556.5,-134 556.5,-168 694.5,-168 694.5,-134 556.5,-134"/>
<text text-anchor="start" x="564.5" y="-154.4" font-family="Helvetica,sans-Serif" font-size="12.00">timedateutils::timeconv</text>
<text text-anchor="middle" x="625.5" y="-141.4" font-family="Helvetica,sans-Serif" font-size="12.00">::timeconvisec</text>
</a>
</g>
</g>
<!-- Node7&#45;&gt;Node8 -->
<g id="edge7" class="edge">
<title>Node7&#45;&gt;Node8</title>
<path fill="none" stroke="midnightblue" d="M762.54,-138.88C739.98,-140.89 716.08,-143.02 694.7,-144.92"/>
<polygon fill="midnightblue" stroke="midnightblue" points="763.15,-142.34 772.8,-137.97 762.52,-135.37 763.15,-142.34"/>
</g>
<!-- Node9 -->
<g id="node9" class="node">
<title>Node9</title>
<g id="a_node9"><a xlink:href="../../d7/d92/interfacetimedateutils_1_1timeconv.html#a03e2abbe51f02a02624986a3d49ec192" target="_top" xlink:title="Convert time from year, month, day, hour, min, sec into seconds since the reference date of the simul...">
<polygon fill="white" stroke="black" points="556.5,-81 556.5,-115 694.5,-115 694.5,-81 556.5,-81"/>
<text text-anchor="start" x="564.5" y="-101.4" font-family="Helvetica,sans-Serif" font-size="12.00">timedateutils::timeconv</text>
<text text-anchor="middle" x="625.5" y="-88.4" font-family="Helvetica,sans-Serif" font-size="12.00">::timeconvrsec</text>
</a>
</g>
</g>
<!-- Node7&#45;&gt;Node9 -->
<g id="edge8" class="edge">
<title>Node7&#45;&gt;Node9</title>
<path fill="none" stroke="midnightblue" d="M769.37,-119C744.89,-115.4 718.31,-111.5 694.79,-108.04"/>
<polygon fill="midnightblue" stroke="midnightblue" points="768.95,-122.48 779.35,-120.47 769.96,-115.55 768.95,-122.48"/>
</g>
<!-- Node11 -->
<g id="node11" class="node">
<title>Node11</title>
<g id="a_node11"><a xlink:href="../../de/d07/namespacepahm__drivermod.html#a7ae4571521a5bb4eb55990dd7fb76237" target="_top" xlink:title="Subroutine to run PaHM (timestepping).">
<polygon fill="white" stroke="black" points="542,-40.5 542,-61.5 709,-61.5 709,-40.5 542,-40.5"/>
<text text-anchor="middle" x="625.5" y="-47.9" font-family="Helvetica,sans-Serif" font-size="12.00">pahm_drivermod::pahm_run</text>
</a>
</g>
</g>
<!-- Node10&#45;&gt;Node11 -->
<g id="edge10" class="edge">
<title>Node10&#45;&gt;Node11</title>
<path fill="none" stroke="midnightblue" d="M781.77,-78.67C750.94,-73.17 715.01,-66.77 685.48,-61.51"/>
<polygon fill="midnightblue" stroke="midnightblue" points="781.56,-82.18 792.02,-80.49 782.78,-75.29 781.56,-82.18"/>
</g>
<!-- Node11&#45;&gt;Node6 -->
<g id="edge11" class="edge">
<title>Node11&#45;&gt;Node6</title>
<path fill="none" stroke="midnightblue" d="M531.67,-62.29C389.42,-79.6 125.69,-111.69 47.14,-121.25"/>
<polygon fill="midnightblue" stroke="midnightblue" points="532.2,-65.76 541.7,-61.07 531.35,-58.81 532.2,-65.76"/>
</g>
<!-- Node12&#45;&gt;Node11 -->
<g id="edge13" class="edge">
<title>Node12&#45;&gt;Node11</title>
<path fill="none" stroke="midnightblue" d="M734.83,-51C726.17,-51 717.55,-51 709.16,-51"/>
<polygon fill="midnightblue" stroke="midnightblue" points="735,-54.5 745,-51 735,-47.5 735,-54.5"/>
</g>
<!-- Node13&#45;&gt;Node11 -->
<g id="edge16" class="edge">
<title>Node13&#45;&gt;Node11</title>
<path fill="none" stroke="midnightblue" d="M781.77,-23.33C750.94,-28.83 715.01,-35.23 685.48,-40.49"/>
<polygon fill="midnightblue" stroke="midnightblue" points="782.78,-26.71 792.02,-21.51 781.56,-19.82 782.78,-26.71"/>
</g>
</g>
</svg>
